<svg width="21" height="27" viewBox="0 0 21 27" fill="none" xmlns="http://www.w3.org/2000/svg">
<path d="M0.961553 20.8798L0.36619 20.4236H0.366189L0.961553 20.8798ZM2.36682 16.9289L1.61682 16.9197V16.9289H2.36682ZM2.39631 14.5402L3.14631 14.5495V14.5402H2.39631ZM20.0473 20.8989L20.6517 20.4549L20.6517 20.4549L20.0473 20.8989ZM18.6949 16.9289L17.9449 16.9192V16.9289H18.6949ZM18.7244 14.6586L19.4744 14.6683V14.6586H18.7244ZM1.55692 21.3359C2.33902 20.315 3.11682 18.7897 3.11682 16.9289H1.61682C1.61682 18.3651 1.01424 19.5778 0.36619 20.4236L1.55692 21.3359ZM3.11676 16.9382L3.14626 14.5495L1.64637 14.531L1.61688 16.9197L3.11676 16.9382ZM20.6517 20.4549C20.0308 19.6098 19.4449 18.3856 19.4449 16.9289H17.9449C17.9449 18.7919 18.6917 20.3205 19.4428 21.343L20.6517 20.4549ZM19.4448 16.9387L19.4743 14.6683L17.9744 14.6488L17.9449 16.9192L19.4448 16.9387ZM19.4744 14.6586C19.4744 9.73494 15.4507 5.75438 10.5007 5.75438V7.25438C14.6343 7.25438 17.9744 10.5753 17.9744 14.6586H19.4744ZM19.5551 22.756C20.1951 22.756 20.614 22.3097 20.7901 21.8995C20.9652 21.4918 20.9938 20.9206 20.6517 20.4549L19.4428 21.343C19.4195 21.3112 19.4174 21.2865 19.4173 21.2851C19.4173 21.2842 19.4175 21.2868 19.4165 21.2921C19.4156 21.2974 19.4139 21.3029 19.4118 21.3078C19.4063 21.3205 19.4054 21.3133 19.4253 21.2979C19.4362 21.2893 19.4536 21.2784 19.4777 21.2697C19.5025 21.2607 19.5292 21.256 19.5551 21.256V22.756ZM3.14631 14.5402C3.14631 10.5223 6.43295 7.25438 10.5007 7.25438V5.75438C5.61655 5.75438 1.64631 9.68194 1.64631 14.5402H3.14631ZM1.44737 21.256C1.47395 21.256 1.50137 21.261 1.52659 21.2702C1.55111 21.2793 1.56855 21.2905 1.57926 21.299C1.5985 21.3142 1.59641 21.3203 1.59024 21.3054C1.5878 21.2996 1.58591 21.293 1.58485 21.2868C1.58379 21.2806 1.58401 21.2774 1.58399 21.2777C1.58396 21.2781 1.58174 21.3035 1.55692 21.3359L0.366189 20.4236C0.00916779 20.8897 0.0339842 21.4701 0.205477 21.882C0.377801 22.2959 0.796989 22.756 1.44737 22.756V21.256ZM19.5551 21.256H1.44737V22.756H19.5551V21.256ZM13.6173 22.006C13.6173 23.5136 12.2779 24.8333 10.5007 24.8333V26.3333C12.9944 26.3333 15.1173 24.4498 15.1173 22.006H13.6173ZM10.5007 24.8333C8.72337 24.8333 7.38399 23.5136 7.38399 22.006H5.88399C5.88399 24.4498 8.00693 26.3333 10.5007 26.3333V24.8333ZM12.3284 3.96052C12.3284 4.9419 11.5195 5.75438 10.5007 5.75438V7.25438C12.3291 7.25438 13.8284 5.789 13.8284 3.96052H12.3284ZM10.5007 5.75438C9.4818 5.75438 8.67287 4.9419 8.67287 3.96052H7.17287C7.17287 5.789 8.67217 7.25438 10.5007 7.25438V5.75438ZM8.67287 3.96052C8.67287 2.97913 9.4818 2.16666 10.5007 2.16666V0.666656C8.67217 0.666656 7.17287 2.13203 7.17287 3.96052H8.67287ZM10.5007 2.16666C11.5195 2.16666 12.3284 2.97913 12.3284 3.96052H13.8284C13.8284 2.13203 12.3291 0.666656 10.5007 0.666656V2.16666Z" fill="#622a2a" fill-opacity="0.85"/>
</svg>
