<?xml version="1.0" encoding="utf-8"?>
<!-- Generator: Adobe Illustrator 28.4.1, SVG Export Plug-In . SVG Version: 6.00 Build 0)  -->
<svg version="1.1" id="Слой_1" xmlns="http://www.w3.org/2000/svg" xmlns:xlink="http://www.w3.org/1999/xlink" x="0px" y="0px"
	 viewBox="0 0 800 800" style="enable-background:new 0 0 800 800;" xml:space="preserve">
<style type="text/css">
	.st0{fill:#7F6EE9;}
	.st1{fill:#F3F3F3;}
	.st2{fill:#8A8DA7;}
	.st3{fill:#C5C8D9;}
</style>
<path class="st0" d="M788,496.8C734.5,711.1,517.5,841.5,303.2,788C88.9,734.6-41.5,517.5,12,303.3C65.4,89,282.4-41.5,496.7,12
	C711,65.4,841.4,282.5,788,496.8L788,496.8z"/>
<g>
	<path class="st1" d="M408.8,191.5v0.2c0.2,1,0.2,2.3,0.2,3.5V345c-0.2,0.8-0.8,1-1.5,1.5c-4.4,2.1-8.5,3.9-12.9,5.8
		c-6,2.7-12.3,5.6-18.3,8.3l-21.8,10c-6,2.7-12,5.4-17.9,8.1c-7.1,3.3-14.3,6.4-21.4,9.8c-6,2.7-12,5.6-18.3,8.3
		c-5,2.3-10,4.4-14.7,6.6c-0.4,0.2-0.8,0.4-1.2,0.4c-0.2,0-0.2,0-0.4-0.2l5.6-9.3c10.8-17.9,21.4-35.5,32.2-53.4
		c11.4-19.1,23.1-38.2,34.5-57.3c10.6-17.7,21.4-35.3,32-53c7.7-12.9,15.6-25.8,23.3-38.6c0.2-0.4,0.4-0.6,0.4-1h0.2
		C408.6,191.1,408.8,191.3,408.8,191.5z"/>
	<path class="st2" d="M536.4,403.6l0.2,0.2L506,421.9l-96,56.7c-0.4,0.2-0.8,0.4-1,0.6c-0.6,0-0.6-0.6-0.6-0.8v-1.9V348.2
		c0-0.6,0-1.5,0.2-2.1c0.2-0.8,0.8-0.6,1.5-0.4c2.7,1.2,5.6,2.5,8.3,3.7c8.1,3.7,16.2,7.5,24.3,11c7.1,3.1,13.9,6.4,21,9.6
		c7.1,3.1,14.1,6.4,21.2,9.6c6,2.7,12.3,5.6,18.3,8.3c6,2.7,12.3,5.6,18.3,8.3c4.8,2.1,9.6,4.4,14.3,6.4
		C535.7,403.2,535.9,403.4,536.4,403.6z"/>
	<path class="st1" d="M408.8,608.2c0,0.2-0.2,0.4-0.2,0.6h-0.2c0-0.4-0.4-0.6-0.6-1c-12.9-18.1-25.8-36.4-38.6-54.4
		c-13.1-18.5-26.4-37.2-39.5-55.7c-12.7-17.9-25.6-35.9-38.2-53.8c-3.3-4.8-6.6-9.3-10-14.1c-0.2-0.4-0.4-0.6-0.8-1.2
		c0.6,0,1,0.4,1.2,0.6c18.1,10.6,35.9,21.2,54,31.8c20.8,12.3,41.3,24.5,62.1,36.8l10.6,6.2c0.4,0.4,0.4,0.8,0.4,1.2v100.1
		C409,606.4,409,607.4,408.8,608.2z"/>
	<path class="st3" d="M280.4,404v-0.2c6.6-2.9,13.1-6,19.7-8.9c8.5-3.9,17-7.7,25.6-11.6c6.4-2.9,13.1-6,19.5-8.9
		c9.6-4.4,18.9-8.5,28.5-12.9c6.4-2.9,12.9-5.8,19.5-8.9c4.6-2.1,9.3-4.2,13.9-6.2c0.4-0.2,1-0.4,1.2-0.8c0.2,0,0.2,0.2,0,0.4v131.9
		c0,0.6-0.2,1.2,0.2,1.7c-0.4,0.6-0.8,0-1-0.2c-1.9-1-3.7-2.1-5.6-3.3c-40.1-23.7-80.4-47.6-120.5-71.3
		C281.3,404.5,280.8,404.3,280.4,404z"/>
	<path class="st3" d="M535.9,428.6h0.2c0,0.4-0.4,0.8-0.6,1.2c-38.2,53.8-76.4,107.8-114.7,161.6c-3.9,5.6-8.1,11.2-12,16.8
		c-0.2-0.2-0.2-0.4-0.2-0.6v-1.2V505.6v-1.9c8.7-5.2,17.2-10.2,26-15.4c33.7-19.9,67.3-39.7,100.8-59.6
		C535.5,429,535.7,428.8,535.9,428.6z"/>
	<path class="st3" d="M408.6,345.9v-0.4v-1.2V193.4c0-0.6-0.2-1,0.2-1.7c42.2,70,84.3,139.8,126.3,209.8c0.4,0.6,1,1.5,1.2,2.3
		c-2.9-1-5.6-2.5-8.3-3.7c-3.3-1.5-6.9-3.1-10.2-4.6c-2.1-1-4.4-1.9-6.4-2.9c-3.5-1.7-7.1-3.1-10.6-4.8c-2.1-0.8-4.2-1.9-6.2-2.9
		l-13.7-6.2c-2.3-1-4.6-2.1-7.1-3.1l-10-4.4c-2.1-0.8-4.2-1.9-6.2-2.9l-13.7-6.2c-2.3-1-4.6-2.1-7.1-3.1l-10-4.4
		c-2.3-1-4.4-2.1-6.6-3.1c-3.9-1.9-7.9-3.7-12-5.4C408.8,345.9,408.6,345.9,408.6,345.9z"/>
</g>
</svg>
