<svg width="25" height="25" viewBox="0 0 25 25" fill="none" xmlns="http://www.w3.org/2000/svg">
<path d="M12.2139 23.7144C18.5651 23.7144 23.7139 18.5656 23.7139 12.2144C23.7139 5.86308 18.5651 0.714355 12.2139 0.714355C5.86259 0.714355 0.713867 5.86308 0.713867 12.2144C0.713867 18.5656 5.86259 23.7144 12.2139 23.7144Z" fill="#09109E"/>
<path d="M12.5228 6C12.6459 6.09656 12.7677 6.19485 12.8926 6.28942C13.5149 6.76004 14.211 7.09141 14.9506 7.33739C15.6766 7.57866 16.4225 7.72834 17.1861 7.79064C17.4239 7.81 17.6626 7.82192 17.901 7.8378C17.9214 7.83904 17.9418 7.84277 17.9743 7.84674C17.9775 7.89216 17.9828 7.93609 17.9833 7.98003C17.9936 8.65816 18.015 9.33629 17.9833 10.0144C17.9249 11.2595 17.7867 12.4941 17.4818 13.7064C17.4526 13.8226 17.4179 13.9375 17.3847 14.0527C17.3781 14.075 17.3658 14.0959 17.3567 14.116C17.1125 13.8764 16.8726 13.6414 16.6305 13.4041C16.7818 12.9466 16.8175 12.4673 16.8271 11.989C16.8472 10.9678 16.8477 9.94641 16.8555 8.92499C16.8558 8.88031 16.8515 8.83563 16.8487 8.78078C16.056 8.73113 15.2925 8.57178 14.5523 8.30718C13.8102 8.04184 13.1235 7.67621 12.4981 7.19492C12.081 7.68341 11.5083 7.90085 10.933 8.10761C10.1871 8.37569 9.4158 8.55291 8.63817 8.70433C8.48612 8.73387 8.33306 8.75819 8.18051 8.78599C8.14803 8.79195 8.11657 8.80237 8.07075 8.81454C8.07075 8.90191 8.07427 8.98829 8.07025 9.07442C8.04507 9.62 8.0418 10.1658 8.07327 10.7112C8.13243 11.7346 8.28775 12.7408 8.64673 13.7086C8.79828 14.1175 8.98382 14.5106 9.23178 14.8723C9.3209 15.0021 9.4221 15.1237 9.52481 15.2583C9.33902 15.4757 9.14845 15.6988 8.94933 15.9319C8.87154 15.8676 8.79576 15.8103 8.72603 15.7465C8.43024 15.4767 8.20291 15.1557 8.01209 14.808C7.71479 14.2664 7.51516 13.6885 7.36185 13.0941C7.20249 12.4762 7.09324 11.8497 7.03106 11.2153C7.02174 11.1207 7.01797 11.0458 7.00462 10.9519C6.99531 10.8876 7.00261 10.6913 7.00462 10.6168C7.00462 10.3768 7.00462 10.286 7.00462 10.0459C7.00462 9.98389 7.00311 9.89602 7.00462 9.85978C7.01495 9.60784 6.99783 9.40926 7.00462 9.15732C7.0157 8.74826 7.02351 8.3392 7.03357 7.92989C7.03433 7.90259 7.04163 7.87528 7.04641 7.8445C7.08619 7.84252 7.11917 7.84103 7.15215 7.83929C7.48671 7.82316 7.82228 7.81695 8.15584 7.78915C8.96695 7.72164 9.75037 7.53274 10.5041 7.22967C11.1682 6.96259 11.7857 6.61682 12.3292 6.15116C12.3818 6.10624 12.4249 6.05064 12.4724 6L12.5228 6Z" fill="white"/>
<path d="M12.3681 19C11.7025 18.4072 11.0369 17.8144 10.3713 17.2218C10.1494 17.0241 9.92734 16.8269 9.70547 16.6292C9.68126 16.6076 9.65851 16.5842 9.62598 16.5527C9.84025 16.3018 10.0516 16.0545 10.2727 15.7957C10.9635 16.3993 11.6548 17.0032 12.3534 17.6137C13.5571 16.4134 14.7559 15.2179 15.9433 14.0341C16.1712 14.2683 16.3948 14.4977 16.626 14.7352C16.6137 14.7483 16.5839 14.7813 16.5523 14.813C15.1992 16.1724 13.8457 17.5316 12.4928 18.891C12.4581 18.926 12.4258 18.9635 12.3923 19H12.3678H12.3681Z" fill="white"/>
</svg>
