<?xml version="1.0" encoding="utf-8"?>
<!-- Generator: Adobe Illustrator 28.4.1, SVG Export Plug-In . SVG Version: 6.00 Build 0)  -->
<svg version="1.1" id="Слой_1" xmlns="http://www.w3.org/2000/svg" xmlns:xlink="http://www.w3.org/1999/xlink" x="0px" y="0px"
	 viewBox="0 0 800 800" style="enable-background:new 0 0 800 800;" xml:space="preserve">
<style type="text/css">
	.st0{fill:#50AF95;}
	.st1{fill-rule:evenodd;clip-rule:evenodd;fill:#FFFFFF;}
</style>
<path class="st0" d="M788,496.8C734.5,711.1,517.5,841.5,303.2,788C88.9,734.6-41.5,517.5,12,303.3C65.4,89,282.4-41.5,496.7,12
	C711,65.4,841.4,282.5,788,496.8L788,496.8z"/>
<path class="st1" d="M439,413.2L439,413.2c-2.2,0.1-13.4,0.8-38.5,0.8c-19.9,0-34.1-0.6-39.1-0.8l0,0
	c-77.1-3.4-134.7-16.8-134.7-32.9c0-16.1,57.6-29.5,134.7-32.9v52.5c5.1,0.4,19.5,1.2,39.4,1.2c23.9,0,35.9-1,38.1-1.2v-52.4
	c77,3.4,134.4,16.8,134.4,32.8c0,16.1-57.4,29.5-134.4,32.9l0,0H439z M439,342v-46.9h107.4v-71.6H254v71.6h107.4V342
	c-87.3,4-152.9,21.3-152.9,42c0,20.7,65.7,38,152.9,42v150.4H439V426c87.1-4,152.6-21.3,152.6-42C591.6,363.3,526.1,346,439,342
	L439,342L439,342z M439,342L439,342z"/>
</svg>
