<svg width="106" height="117" viewBox="0 0 106 117" fill="none" xmlns="http://www.w3.org/2000/svg">
<g id="Asset 9 1" clip-path="url(#clip0_3155_69270)">
<g id="Layer 2">
<g id="Layer 1">
<path id="Vector" d="M39.0057 61.4853L38.8555 60.7832V60.9337C38.8932 61.1207 38.9433 61.305 39.0057 61.4853Z" fill="url(#paint0_linear_3155_69270)"/>
<path id="Vector_2" d="M44.613 71.5649C45.2405 71.3612 45.9068 71.3072 46.5589 71.4074C47.2109 71.5075 47.8305 71.759 48.3683 72.1416L47.5671 71.3643L47.2917 71.0383C46.6408 70.2861 45.3891 70.0604 43.5364 70.4616C37.4779 71.7655 27.3135 79.3382 20.8293 87.3872C16.373 92.9539 14.8208 97.4173 16.3229 99.0221V99.1725L17.2993 100.226L20.2785 103.034C18.2757 101.204 19.2771 96.2638 23.3579 89.9449C29.0409 81.0934 38.5544 72.8688 44.613 71.5649Z" fill="url(#paint1_linear_3155_69270)"/>
<path id="Vector_3" d="M68.0971 41.0488C68.0971 41.0488 68.0971 41.1741 68.0971 41.2494V41.0488C62.8897 45.0106 60.4362 48.0447 61.0871 49.2734L61.663 50.3265C61.663 50.4519 61.7881 50.6023 61.8632 50.7528L62.0635 51.1289C61.6129 50.2011 64.3918 47.819 69.9247 44.5593C78.2094 39.6783 87.0749 35.8619 96.312 33.2003C98.2397 32.774 99.3663 32.7991 99.7168 33.2003C99.7168 32.9245 99.4414 32.6486 99.3162 32.3979L98.6653 31.0689L97.0631 28.1853C96.6625 27.5835 95.4858 27.4581 93.483 27.8844C87.3743 29.0629 76.0333 35.106 68.0971 41.0488Z" fill="url(#paint2_linear_3155_69270)"/>
<path id="Vector_4" d="M63.4392 34.6286C58.9077 40.12 57.3305 44.5082 58.8326 46.1882C58.9877 46.3436 59.1301 46.5113 59.2582 46.6897L59.9342 47.5422C58.8326 46.0377 60.8605 42.3266 65.7675 37.5122C73.0027 30.3909 83.793 23.5956 89.8766 22.2917C91.6541 21.9156 92.8307 22.041 93.4316 22.6177L93.1312 22.2165C92.1298 20.9627 90.9281 19.4582 89.9517 18.3299C89.3008 17.6027 88.049 17.3519 86.1964 17.7531C80.1128 19.1072 69.9484 26.6297 63.4392 34.6286Z" fill="url(#paint3_linear_3155_69270)"/>
<path id="Vector_5" d="M57.8823 29.5396C53.2007 39.2687 54.9782 42.7542 56.4553 43.9578L56.6806 44.1333L57.3065 44.6599H57.4317C55.4539 42.8294 56.4302 37.8896 60.486 31.5707C66.169 22.6942 75.6825 14.4696 81.7411 13.1657C82.8179 12.8476 83.9729 12.9277 84.9957 13.3913L82.4921 11.2349L82.0165 10.8838L81.0651 10.1567C75.6324 7.04736 63.6905 18.1054 57.8823 29.5396Z" fill="url(#paint4_linear_3155_69270)"/>
<path id="Vector_6" d="M51.6227 25.8531C49.2944 34.3786 50.446 40.8981 54.1262 42.5781L54.5768 42.8038H54.8022L55.1527 43.0044C52.0733 41.2241 51.6978 35.1559 54.677 27.3075C58.5575 17.2273 66.5938 7.92447 72.6023 6.62057C73.7707 6.30089 75.017 6.44458 76.0823 7.02177L75.1059 6.41997C73.7289 5.71787 72.0265 4.8904 70.3992 4.16322C69.5757 3.97163 68.7192 3.97163 67.8957 4.16322C61.8371 5.46712 54.5518 15.1712 51.6227 25.8531Z" fill="url(#paint5_linear_3155_69270)"/>
<path id="Vector_7" d="M45.0638 23.7206C44.2877 33.55 47.367 40.9722 52.1738 41.9H52.6245H53.025C48.7941 40.5459 46.7161 33.5249 48.2933 24.3475C50.0709 13.4649 56.505 3.45999 62.5886 2.15609C63.4116 1.95995 64.2691 1.95995 65.0921 2.15609C63.3897 1.70474 61.3618 1.17817 59.7846 0.852193C59.0423 0.689894 58.2737 0.689894 57.5314 0.852193C51.4478 2.18117 45.8148 12.5371 45.0638 23.7206Z" fill="url(#paint6_linear_3155_69270)"/>
<path id="Vector_8" d="M38.0291 23.2953C39.1807 34.203 44.5884 42.1768 50.3215 41.8007C50.5545 41.7756 50.7895 41.7756 51.0225 41.8007C45.6649 41.4747 41.4339 33.7265 41.2587 23.2953C41.1585 11.8361 45.8902 1.50515 51.9738 0.201251C52.4063 0.150631 52.8432 0.150631 53.2757 0.201251L50.0711 0.000650486H47.5676C47.276 -0.0236543 46.9829 -0.0236543 46.6914 0.000650486C40.7329 1.53023 36.8024 11.8611 38.0291 23.2953Z" fill="url(#paint7_linear_3155_69270)"/>
<path id="Vector_9" d="M31.1445 24.6744C34.4742 35.7074 42.085 43.606 48.1435 42.2269H48.4189H48.1936L48.8445 42.0514L49.3202 41.926H49.0448H49.5205C43.4869 43.1547 36.7274 35.0805 34.4992 23.8218C32.0958 12.5381 35.05 2.25734 41.1837 0.978516H40.7831L37.3533 1.95644L34.8497 2.75884C29.7175 5.06574 28.015 14.4187 31.0944 24.6744H31.1445Z" fill="url(#paint8_linear_3155_69270)"/>
<path id="Vector_10" d="M24.8351 27.7586H24.6098C29.9173 37.7886 39.1303 44.9099 45.1889 43.606H45.3641H45.2139C45.9095 43.4642 46.572 43.1919 47.1667 42.8036L47.7425 42.4526H47.9428C47.494 42.6677 47.0241 42.8358 46.5408 42.9541L46.0401 43.2048L46.5158 42.9541C40.4572 44.258 31.9702 36.7355 27.589 26.1538C23.6083 16.4748 24.4095 7.52307 29.1662 5.16602C27.6891 5.96842 25.7363 7.04664 24.3344 7.94934L24.0089 8.14994C19.8781 10.9082 20.0283 19.0576 24.6098 27.884L24.8351 27.7586Z" fill="url(#paint9_linear_3155_69270)"/>
<path id="Vector_11" d="M19.3024 32.423V32.5734C26.2622 41.1992 36.8271 47.142 42.8857 45.8381C43.9378 45.6519 44.9027 45.1335 45.6396 44.3587L46.1904 43.807L46.4658 43.5563C45.7482 44.166 44.8861 44.5805 43.9622 44.7599C37.9037 46.0638 27.9646 39.5192 21.7558 30.1662L21.5555 30.3417L21.6557 30.091C16.6486 22.5685 15.6221 15.4723 18.5763 12.3379L17.8753 12.9648L17.3496 13.4161L14.846 15.9236C12.1422 18.9326 13.7195 25.4521 19.2773 32.3728L19.3024 32.423Z" fill="url(#paint10_linear_3155_69270)"/>
<path id="Vector_12" d="M15.0214 38.4906C23.2831 45.311 34.8995 49.7995 40.9581 48.5206C41.594 48.4331 42.204 48.2112 42.7478 47.8697C43.2917 47.5282 43.7568 47.0748 44.1126 46.5397C44.3129 46.1887 44.6133 45.7373 44.8386 45.3863C44.0935 46.3506 43.0109 46.9958 41.8093 47.1917C35.7507 48.4705 24.61 43.28 16.9241 35.5318C8.61234 26.8308 9.98928 22.4426 10.9657 20.9883C10.0394 22.3925 8.81262 24.248 7.96142 25.7024C6.23397 28.5108 8.78758 33.4255 15.0214 38.4906Z" fill="url(#paint11_linear_3155_69270)"/>
<path id="Vector_13" d="M11.8663 45.3611C21.0543 50.1002 33.4218 52.8836 39.4053 51.5797C41.2329 51.1785 42.2844 50.4513 42.5848 49.5235C42.6336 49.3695 42.6921 49.2187 42.76 49.0722C42.8852 48.7462 43.0354 48.2948 43.1856 47.9939C42.8695 48.5741 42.4215 49.0715 41.8778 49.4462C41.3342 49.8208 40.7102 50.062 40.0562 50.1504C33.9976 51.4543 21.9556 47.8184 13.1682 42.0512C5.00663 36.4594 4.30563 33.0994 5.00663 31.2188C4.55599 32.3471 3.9301 33.7263 3.5045 35.0051L3.0789 36.2588V36.5347C2.50308 38.7413 5.53237 42.0762 11.8663 45.3611Z" fill="url(#paint12_linear_3155_69270)"/>
<path id="Vector_14" d="M10.1888 52.9335C19.8775 55.441 32.7207 56.2685 38.7292 54.9646C40.757 54.5383 41.7585 53.9114 41.8586 53.1842C41.8725 52.9588 41.8725 52.7327 41.8586 52.5072C41.8586 52.2063 41.8586 51.9054 42.0088 51.6547V51.4039C41.8085 52.2815 40.7821 52.9586 38.8293 53.3848C32.7707 54.6887 20.1529 52.8583 10.6394 49.2976C4.23036 46.9155 0.900643 44.2826 1.25114 42.5273V42.7781V43.3047C1.00079 44.7339 0.650289 46.6146 0.475041 48.0438C0.274758 49.448 3.72965 51.3287 10.1888 52.9335Z" fill="url(#paint13_linear_3155_69270)"/>
<path id="Vector_15" d="M10.0142 60.6311C10.0275 60.7394 10.0275 60.8489 10.0142 60.9571C19.6187 60.9594 29.2069 60.1626 38.6797 58.575C40.8328 58.0986 41.8342 57.6723 41.8092 57.3212V57.0454C41.8092 56.6693 41.8092 56.2932 41.8092 55.9672V55.3152C41.8092 55.8418 40.7577 56.3684 38.6797 56.8197C29.1599 58.1597 19.5058 58.244 9.9641 57.0705C3.47992 56.2932 0 55.1648 0 54.1367C0 55.8167 0 58.0735 0 59.7786C0 60.4305 3.55503 60.8568 9.83892 60.8568C9.90527 60.7881 9.96403 60.7125 10.0142 60.6311Z" fill="url(#paint14_linear_3155_69270)"/>
<path id="Vector_16" d="M11.1401 68.8562V69.1571C20.5283 66.6496 33.0461 63.5403 39.1046 62.2364C40.2344 61.9349 41.3921 61.75 42.5595 61.6847V61.2585L42.4093 60.6567C42.4093 60.3558 42.2841 59.9546 42.209 59.6035C42.209 59.6035 41.9587 59.8543 39.0546 60.4811C39.0424 60.539 39.0424 60.5988 39.0546 60.6567V60.4811C32.7456 61.785 20.0276 63.8913 10.414 65.1952V65.4209C10.414 65.4209 10.414 65.2705 10.414 65.1952C7.23133 65.7606 4.00756 66.0625 0.775391 66.0979L1.32617 69.0066L1.97709 71.8401C4.98787 70.7043 8.07489 69.7826 11.2152 69.0819L11.1401 68.8562ZM39.0045 61.4841C38.9926 61.3005 38.9926 61.1162 39.0045 60.9325V60.782V61.4841Z" fill="url(#paint15_linear_3155_69270)"/>
<path id="Vector_17" d="M14.0697 77.1809C22.3545 72.3064 31.2203 68.4984 40.457 65.847C40.4462 65.7974 40.4462 65.7461 40.457 65.6965V65.847C42.56 65.3956 43.7116 65.4708 43.9369 65.847V65.5962C43.8686 65.4844 43.8099 65.367 43.7617 65.2452C43.5864 64.844 43.3862 64.2923 43.2109 63.866C43.0357 63.4397 42.0092 63.5902 39.8562 64.0666C30.5177 66.4683 21.3777 69.5868 12.5175 73.3945C6.73428 75.902 3.705 77.557 3.88024 78.1337C4.53117 79.8137 5.40741 82.0203 6.13343 83.6502C5.73287 82.7475 8.5118 80.4155 14.0697 77.1809Z" fill="url(#paint16_linear_3155_69270)"/>
<path id="Vector_18" d="M18.2007 84.1771C25.461 77.0809 36.2513 70.2855 42.3099 68.9816C44.2626 68.5804 45.4894 68.781 46.0151 69.4831L45.8649 69.2825C45.6145 68.9315 45.3141 68.455 45.0888 68.104L44.9386 67.8532C44.538 67.2514 43.3613 67.1261 41.3585 67.5523C35.2999 68.8562 23.9839 74.8492 16.0727 80.9675C10.8153 85.0296 8.41189 88.1139 9.16295 89.3425C9.91401 90.5712 11.0156 92.2763 11.8668 93.5301L12.0921 93.8059L12.2924 94.0817C11.291 92.6274 13.3188 88.9413 18.2007 84.1771Z" fill="url(#paint17_linear_3155_69270)"/>
<path id="Vector_19" d="M29.2915 94.3336C33.172 84.1532 41.2334 74.8504 47.292 73.5465C48.4498 73.2309 49.6838 73.3653 50.7469 73.9226L50.2462 73.5966L49.7204 73.2455C49.171 72.8882 48.5499 72.6558 47.9011 72.5648C47.2523 72.4739 46.5914 72.5265 45.9651 72.719C39.9065 74.0229 31.1191 82.749 26.3624 92.453C22.8574 99.474 22.4819 104.991 24.9103 106.871L25.1607 107.047C26.5376 108 28.3151 109.203 29.7171 110.056C26.6628 108.2 26.3123 102.132 29.2915 94.3336Z" fill="url(#paint18_linear_3155_69270)"/>
<path id="Vector_20" d="M35.8007 97.2164C37.6783 86.1583 44.1375 76.1534 50.196 74.8495C51.1152 74.6084 52.0809 74.6084 53 74.8495H52.7747L52.1238 74.5987C51.117 74.1808 50.0039 74.093 48.9443 74.348H49.0694H48.9192C42.8607 75.6519 35.6254 85.381 32.7714 96.088C30.4681 104.639 31.6698 111.133 35.2749 112.863L38.5796 114.167L39.2806 114.418L39.9315 114.644L40.4072 114.794C36.2513 113.289 34.2234 106.319 35.8007 97.2164Z" fill="url(#paint19_linear_3155_69270)"/>
<path id="Vector_21" d="M42.5598 98.4959C42.3595 87.0367 47.1413 76.7058 53.1998 75.4269C53.7231 75.3538 54.2539 75.3538 54.7771 75.4269H54.2263H53.9259C53.2063 75.29 52.4674 75.29 51.7478 75.4269C45.6642 76.7308 40.0813 86.9614 39.2301 98.2954C38.5291 108.1 41.6084 115.497 46.3902 116.475L47.5919 116.675C48.9939 116.851 50.6713 117.077 52.0232 117.177C46.8909 116.45 42.7851 108.777 42.5598 98.4959Z" fill="url(#paint20_linear_3155_69270)"/>
<path id="Vector_22" d="M49.5702 98.0194C47.2669 86.7106 50.3212 76.5051 56.3798 75.2012H55.9292H56.4048H56.0543H55.7289L54.9277 75.3265C48.8441 76.6305 44.9136 86.9614 46.2655 98.3956C47.4672 109.027 52.6996 116.901 58.2825 116.901H59.0836C60.7109 116.725 62.7388 116.45 64.3661 116.174C58.3576 117.102 51.8233 109.103 49.5702 98.0194Z" fill="url(#paint21_linear_3155_69270)"/>
<path id="Vector_23" d="M56.3546 95.6864C52.3489 85.9573 53.1751 77.0556 58.0319 74.6484C57.9084 74.7276 57.7732 74.7868 57.6314 74.824L57.3309 74.9493C51.8232 76.855 49.9705 86.4588 53.2251 97.0153C56.6049 108.023 64.2658 115.897 70.3243 114.568H70.6498L71.8515 114.142L73.629 113.465L76.1326 112.336H76.3078C75.991 112.463 75.6645 112.563 75.3314 112.637C69.1977 113.816 60.7358 106.268 56.3546 95.6864Z" fill="url(#paint22_linear_3155_69270)"/>
<path id="Vector_24" d="M62.3386 91.6742C55.0784 80.0895 58.0075 75.2249 59.6348 73.5449L59.4345 73.7204L58.8587 74.1467C53.8516 78.1086 56.0047 86.8848 59.6098 93.7805C67.1204 107.07 77.1346 111.885 82.3169 108.825C83.3684 108.023 84.6953 107.045 85.8719 106.117L86.7482 105.39C80.4643 109.452 68.9229 101.554 62.3386 91.6742Z" fill="url(#paint23_linear_3155_69270)"/>
<path id="Vector_25" d="M92.0556 97.9938C85.9971 99.2977 74.8563 94.0821 67.1955 86.3339C61.2871 80.366 59.1591 74.6489 61.2621 71.7402C61.087 72.0025 60.8857 72.2461 60.6612 72.4674C57.9824 75.4513 59.5847 81.9458 65.1926 88.8163C72.1775 97.392 82.7174 103.285 88.8511 102.006C89.9193 101.793 90.8974 101.26 91.6551 100.476C92.5564 99.398 93.7581 97.9687 94.6093 96.8905L95.0599 96.2385C94.314 97.1806 93.2415 97.8071 92.0556 97.9938Z" fill="url(#paint24_linear_3155_69270)"/>
<path id="Vector_26" d="M97.6384 88.0143C91.5798 89.3182 79.5378 85.6823 70.7754 79.89C64.4665 75.7526 61.5624 71.6152 62.6639 69.1328C62.5308 69.4706 62.3717 69.7975 62.1882 70.1107L62.038 70.4116C60.5109 73.1448 63.0895 77.9341 69.2232 82.9491C77.5099 89.7194 89.2515 94.1577 95.21 92.9792C95.8493 92.8918 96.4631 92.6702 97.011 92.3289C97.5589 91.9875 98.0287 91.5341 98.3895 90.9982L99.0154 89.8448C99.5661 88.6913 100.317 87.2119 100.843 86.0334C100.509 86.5985 100.042 87.0739 99.4841 87.4189C98.926 87.7639 98.2927 87.9682 97.6384 88.0143Z" fill="url(#paint25_linear_3155_69270)"/>
<path id="Vector_27" d="M101.368 76.7543C95.3099 78.0582 82.692 76.2027 73.2036 72.617C66.7444 70.1095 63.4147 67.602 63.8153 65.7715V65.8969C63.8153 66.1978 63.6651 66.4987 63.59 66.7494C63.5314 67.013 63.4561 67.2727 63.3647 67.5267C62.7388 69.6832 65.8682 72.9931 72.2522 76.2027C81.4653 80.8666 93.8328 83.7252 99.7912 82.2959C101.594 81.8947 102.645 81.1926 102.971 80.2648C103.446 78.635 104.047 76.5036 104.423 74.8737C104.348 75.651 103.321 76.3281 101.368 76.7543Z" fill="url(#paint26_linear_3155_69270)"/>
<path id="Vector_28" d="M102.871 64.5945C93.3493 65.9271 83.6939 65.9945 74.155 64.7951C67.821 64.0178 64.3411 62.9145 64.291 61.8613C64.3051 62.1202 64.3051 62.3797 64.291 62.6387C64.291 62.9897 64.291 63.4411 64.291 63.8423C64.291 65.2465 67.6458 67.0769 74.0298 68.6065V68.3307C74.0298 68.3307 74.0298 68.5062 74.0298 68.6065C83.7185 70.9636 96.5617 71.8161 102.57 70.5122C104.573 70.0859 105.599 69.4841 105.725 68.757V68.6065L106.025 65.3718L106.15 63.09C105.975 63.6166 104.949 64.1432 102.871 64.5945Z" fill="url(#paint27_linear_3155_69270)"/>
<path id="Vector_29" d="M73.6292 56.6448C70.4608 57.2521 67.2416 57.5544 64.0156 57.5475C64.1909 58.726 64.2409 59.5786 64.2409 59.6036C64.2409 60.2305 67.7709 60.6066 74.0799 60.5565C74.0799 60.5565 74.0799 60.3308 74.0799 60.2305C74.0799 60.1302 74.0799 60.4562 74.0799 60.5565C83.6866 60.4881 93.2724 59.6496 102.745 58.049C104.898 57.5976 105.9 57.1714 105.875 56.8203C105.7 55.1653 105.474 52.6579 105.149 51.0781C105.149 51.2286 104.147 51.5295 101.994 51.9808C95.9859 53.2596 83.2679 55.366 73.6292 56.6448Z" fill="url(#paint28_linear_3155_69270)"/>
<path id="Vector_30" d="M71.6012 48.6465C65.793 51.154 62.7387 52.7337 62.9389 53.2603C63.1392 53.7868 63.3645 54.6394 63.5398 55.2663C66.5295 54.0616 69.6102 53.0973 72.7528 52.3826L72.6026 51.831C72.6026 51.7056 72.6026 51.5552 72.6026 51.4298C72.6026 51.5552 72.6026 51.6805 72.6026 51.8059L72.7528 52.3325C86.7476 48.4709 103.071 44.5091 103.922 44.81C103.446 43.155 102.82 40.9484 102.245 39.3186C102.245 39.0177 101.068 39.0678 98.9149 39.5192C89.6025 41.8981 80.4741 44.9484 71.6012 48.6465Z" fill="url(#paint29_linear_3155_69270)"/>
</g>
</g>
</g>
<defs>
<linearGradient id="paint0_linear_3155_69270" x1="38.8555" y1="61.1343" x2="39.0057" y2="61.1343" gradientUnits="userSpaceOnUse">
<stop stop-color="#0A0A0A"/>
<stop offset="1" stop-color="#A3A3A3"/>
</linearGradient>
<linearGradient id="paint1_linear_3155_69270" x1="15.7666" y1="86.6421" x2="48.3679" y2="86.6421" gradientUnits="userSpaceOnUse">
<stop stop-color="#BEA000"/>
<stop offset="1" stop-color="#FFD600"/>
</linearGradient>
<linearGradient id="paint2_linear_3155_69270" x1="60.9844" y1="39.3753" x2="99.7164" y2="39.3753" gradientUnits="userSpaceOnUse">
<stop stop-color="#BEA000"/>
<stop offset="1" stop-color="#FFD600"/>
</linearGradient>
<linearGradient id="paint3_linear_3155_69270" x1="58.2813" y1="32.5453" x2="93.4312" y2="32.5453" gradientUnits="userSpaceOnUse">
<stop stop-color="#BEA000"/>
<stop offset="1" stop-color="#FFD600"/>
</linearGradient>
<linearGradient id="paint4_linear_3155_69270" x1="54.8574" y1="27.1342" x2="84.9953" y2="27.1342" gradientUnits="userSpaceOnUse">
<stop stop-color="#BEA000"/>
<stop offset="1" stop-color="#FFD600"/>
</linearGradient>
<linearGradient id="paint5_linear_3155_69270" x1="50.416" y1="23.5028" x2="76.082" y2="23.5028" gradientUnits="userSpaceOnUse">
<stop stop-color="#BEA000"/>
<stop offset="1" stop-color="#FFD600"/>
</linearGradient>
<linearGradient id="paint6_linear_3155_69270" x1="44.9443" y1="21.3055" x2="65.0919" y2="21.3055" gradientUnits="userSpaceOnUse">
<stop stop-color="#BEA000"/>
<stop offset="1" stop-color="#FFD600"/>
</linearGradient>
<linearGradient id="paint7_linear_3155_69270" x1="37.8047" y1="20.8881" x2="53.2755" y2="20.8881" gradientUnits="userSpaceOnUse">
<stop stop-color="#BEA000"/>
<stop offset="1" stop-color="#FFD600"/>
</linearGradient>
<linearGradient id="paint8_linear_3155_69270" x1="29.5586" y1="21.6712" x2="49.5203" y2="21.6712" gradientUnits="userSpaceOnUse">
<stop stop-color="#BEA000"/>
<stop offset="1" stop-color="#FFD600"/>
</linearGradient>
<linearGradient id="paint9_linear_3155_69270" x1="21.0361" y1="24.4539" x2="47.9425" y2="24.4539" gradientUnits="userSpaceOnUse">
<stop stop-color="#BEA000"/>
<stop offset="1" stop-color="#FFD600"/>
</linearGradient>
<linearGradient id="paint10_linear_3155_69270" x1="13.5557" y1="29.1698" x2="46.4654" y2="29.1698" gradientUnits="userSpaceOnUse">
<stop stop-color="#BEA000"/>
<stop offset="1" stop-color="#FFD600"/>
</linearGradient>
<linearGradient id="paint11_linear_3155_69270" x1="7.43359" y1="34.8567" x2="44.8382" y2="34.8567" gradientUnits="userSpaceOnUse">
<stop stop-color="#BEA000"/>
<stop offset="1" stop-color="#FFD600"/>
</linearGradient>
<linearGradient id="paint12_linear_3155_69270" x1="3.00977" y1="41.5549" x2="43.1852" y2="41.5549" gradientUnits="userSpaceOnUse">
<stop stop-color="#BEA000"/>
<stop offset="1" stop-color="#FFD600"/>
</linearGradient>
<linearGradient id="paint13_linear_3155_69270" x1="0.466797" y1="49.0488" x2="42.0084" y2="49.0488" gradientUnits="userSpaceOnUse">
<stop stop-color="#BEA000"/>
<stop offset="1" stop-color="#FFD600"/>
</linearGradient>
<linearGradient id="paint14_linear_3155_69270" x1="0" y1="57.5453" x2="41.8092" y2="57.5453" gradientUnits="userSpaceOnUse">
<stop stop-color="#BEA000"/>
<stop offset="1" stop-color="#FFD600"/>
</linearGradient>
<linearGradient id="paint15_linear_3155_69270" x1="0.775391" y1="65.7189" x2="42.5591" y2="65.7189" gradientUnits="userSpaceOnUse">
<stop stop-color="#BEA000"/>
<stop offset="1" stop-color="#FFD600"/>
</linearGradient>
<linearGradient id="paint16_linear_3155_69270" x1="3.87305" y1="73.628" x2="43.9365" y2="73.628" gradientUnits="userSpaceOnUse">
<stop stop-color="#BEA000"/>
<stop offset="1" stop-color="#FFD600"/>
</linearGradient>
<linearGradient id="paint17_linear_3155_69270" x1="9.02832" y1="80.6849" x2="46.0147" y2="80.6849" gradientUnits="userSpaceOnUse">
<stop stop-color="#BEA000"/>
<stop offset="1" stop-color="#FFD600"/>
</linearGradient>
<linearGradient id="paint18_linear_3155_69270" x1="23.3584" y1="91.2797" x2="50.7466" y2="91.2797" gradientUnits="userSpaceOnUse">
<stop stop-color="#BEA000"/>
<stop offset="1" stop-color="#FFD600"/>
</linearGradient>
<linearGradient id="paint19_linear_3155_69270" x1="31.5938" y1="94.49" x2="52.9998" y2="94.49" gradientUnits="userSpaceOnUse">
<stop stop-color="#BEA000"/>
<stop offset="1" stop-color="#FFD600"/>
</linearGradient>
<linearGradient id="paint20_linear_3155_69270" x1="39.1309" y1="96.2407" x2="54.7769" y2="96.2407" gradientUnits="userSpaceOnUse">
<stop stop-color="#BEA000"/>
<stop offset="1" stop-color="#FFD600"/>
</linearGradient>
<linearGradient id="paint21_linear_3155_69270" x1="45.999" y1="96.0412" x2="64.3659" y2="96.0412" gradientUnits="userSpaceOnUse">
<stop stop-color="#BEA000"/>
<stop offset="1" stop-color="#FFD600"/>
</linearGradient>
<linearGradient id="paint22_linear_3155_69270" x1="51.6191" y1="94.6719" x2="76.3075" y2="94.6719" gradientUnits="userSpaceOnUse">
<stop stop-color="#BEA000"/>
<stop offset="1" stop-color="#FFD600"/>
</linearGradient>
<linearGradient id="paint23_linear_3155_69270" x1="55.916" y1="91.6202" x2="86.7478" y2="91.6202" gradientUnits="userSpaceOnUse">
<stop stop-color="#BEA000"/>
<stop offset="1" stop-color="#FFD600"/>
</linearGradient>
<linearGradient id="paint24_linear_3155_69270" x1="59.3955" y1="86.953" x2="95.0595" y2="86.953" gradientUnits="userSpaceOnUse">
<stop stop-color="#BEA000"/>
<stop offset="1" stop-color="#FFD600"/>
</linearGradient>
<linearGradient id="paint25_linear_3155_69270" x1="61.6084" y1="81.145" x2="100.843" y2="81.145" gradientUnits="userSpaceOnUse">
<stop stop-color="#BEA000"/>
<stop offset="1" stop-color="#FFD600"/>
</linearGradient>
<linearGradient id="paint26_linear_3155_69270" x1="63.2861" y1="74.2146" x2="104.422" y2="74.2146" gradientUnits="userSpaceOnUse">
<stop stop-color="#BEA000"/>
<stop offset="1" stop-color="#FFD600"/>
</linearGradient>
<linearGradient id="paint27_linear_3155_69270" x1="64.291" y1="66.4899" x2="106.15" y2="66.4899" gradientUnits="userSpaceOnUse">
<stop stop-color="#BEA000"/>
<stop offset="1" stop-color="#FFD600"/>
</linearGradient>
<linearGradient id="paint28_linear_3155_69270" x1="64.0156" y1="55.8173" x2="105.875" y2="55.8173" gradientUnits="userSpaceOnUse">
<stop stop-color="#BEA000"/>
<stop offset="1" stop-color="#FFD600"/>
</linearGradient>
<linearGradient id="paint29_linear_3155_69270" x1="62.9297" y1="47.1938" x2="103.921" y2="47.1938" gradientUnits="userSpaceOnUse">
<stop stop-color="#BEA000"/>
<stop offset="1" stop-color="#FFD600"/>
</linearGradient>
<clipPath id="clip0_3155_69270">
<rect width="106" height="117" fill="white"/>
</clipPath>
</defs>
</svg>
