<svg width="117" height="117" viewBox="0 0 117 117" fill="none" xmlns="http://www.w3.org/2000/svg">
<g id="Asset 12 1" clip-path="url(#clip0_3155_69336)">
<g id="Layer 2">
<g id="Layer 1">
<path id="Vector" d="M58.5137 6.71382e-06C46.9396 -0.00553647 35.6237 3.42154 25.9975 9.84777C16.3712 16.274 8.86695 25.4107 4.43387 36.1023C0.000782665 46.7938 -1.16199 58.5599 1.09262 69.9124C3.34723 81.2648 8.91794 91.6936 17.1002 99.8798C25.2824 108.066 35.7085 113.642 47.0599 115.902C58.4113 118.162 70.1779 117.005 80.8716 112.577C91.5653 108.149 100.706 100.649 107.136 91.0256C113.567 81.4024 117 70.0882 117 58.514C117 43 110.839 28.121 99.8713 17.1483C88.9038 6.17557 74.0278 0.0074368 58.5137 6.71382e-06ZM58.5137 105.566C49.1998 105.572 40.0934 102.815 32.3468 97.6435C24.6002 92.4724 18.5615 85.1197 14.9946 76.5158C11.4278 67.9118 10.493 58.4433 12.3088 49.308C14.1245 40.1727 18.609 31.7812 25.195 25.1952C31.7809 18.6093 40.1724 14.1247 49.3077 12.309C58.443 10.4933 67.9116 11.428 76.5155 14.9949C85.1194 18.5618 92.4721 24.6005 97.6432 32.3471C102.814 40.0937 105.572 49.2 105.566 58.514C105.559 70.9908 100.599 82.9544 91.7765 91.7768C82.9541 100.599 70.9905 105.559 58.5137 105.566Z" fill="url(#paint0_radial_3155_69336)"/>
<path id="Vector_2" d="M97.3792 67.7313C102.46 46.2058 89.1284 24.6374 67.6029 19.5569C46.0774 14.4764 24.509 27.8077 19.4285 49.3332C14.348 70.8587 27.6794 92.4271 49.2048 97.5076C70.7303 102.588 92.2987 89.2568 97.3792 67.7313Z" fill="url(#paint1_radial_3155_69336)"/>
<path id="Vector_3" d="M110.106 30.8264C109.938 36.0606 108.307 41.143 105.397 45.4973C102.488 49.8516 98.4161 53.3035 93.6445 55.4615C88.8729 57.6196 83.5921 58.3974 78.4009 57.7068C73.2097 57.0163 68.3159 54.8849 64.2744 51.5545C60.233 48.2241 57.2055 43.8279 55.5355 38.8644C53.8655 33.9009 53.6196 28.5688 54.8259 23.4727C56.0321 18.3766 58.6422 13.7204 62.3601 10.0323C66.078 6.34412 70.7549 3.77152 75.8606 2.60624C70.2397 0.881101 64.3933 0.00272294 58.5137 7.88247e-06C46.7524 -0.00609691 35.2624 3.53395 25.5438 10.158C15.8252 16.7821 8.32944 26.1824 4.03517 37.1317C7.46755 34.3304 11.653 32.6089 16.063 32.1845C20.4731 31.7601 24.91 32.6519 28.8136 34.7472C32.7172 36.8425 35.9125 40.0475 37.996 43.9574C40.0795 47.8674 40.9578 52.3069 40.5201 56.7157C40.0823 61.1244 38.3481 65.3046 35.5364 68.7285C32.7247 72.1524 28.9616 74.6665 24.7222 75.9533C20.4828 77.2401 15.9571 77.2419 11.7167 75.9586C7.47617 74.6753 3.71099 72.1643 0.896484 68.7428C3.30522 82.2716 10.3986 94.5212 20.9333 103.345C31.4681 112.168 44.7721 117.002 58.5137 117C60.027 117 61.5683 117 63.0816 116.832C58.1527 114.806 53.922 111.386 50.9084 106.991C47.8948 102.596 46.2293 97.4169 46.1162 92.0891C46.003 86.7613 47.4471 81.5163 50.2714 76.9972C53.0957 72.4782 57.1773 68.8815 62.0158 66.6484C66.8544 64.4152 72.2394 63.6426 77.5106 64.4253C82.7819 65.2079 87.7101 67.5119 91.691 71.0546C95.6719 74.5973 98.5325 79.2247 99.9219 84.3694C101.311 89.5141 101.169 94.9524 99.5128 100.017C108.5 91.1669 114.387 79.6491 116.296 67.1805C118.205 54.712 116.034 41.9604 110.106 30.8264Z" fill="url(#paint2_radial_3155_69336)"/>
</g>
</g>
</g>
<defs>
<radialGradient id="paint0_radial_3155_69336" cx="0" cy="0" r="1" gradientUnits="userSpaceOnUse" gradientTransform="translate(57.0004 58.0376) scale(58.514)">
<stop stop-color="white"/>
<stop offset="1" stop-color="#C6A600"/>
</radialGradient>
<radialGradient id="paint1_radial_3155_69336" cx="0" cy="0" r="1" gradientUnits="userSpaceOnUse" gradientTransform="translate(58.4056 58.5382) scale(40.0462)">
<stop stop-color="#FFD600"/>
<stop offset="1" stop-color="#C2A300"/>
</radialGradient>
<radialGradient id="paint2_radial_3155_69336" cx="0" cy="0" r="1" gradientUnits="userSpaceOnUse" gradientTransform="translate(55.4031 51.48) scale(68.0422)">
<stop stop-color="#FFD600"/>
<stop offset="1" stop-color="#D0AF00"/>
</radialGradient>
<clipPath id="clip0_3155_69336">
<rect width="117" height="117" fill="white"/>
</clipPath>
</defs>
</svg>
