<svg width="127" height="117" viewBox="0 0 127 117" fill="none" xmlns="http://www.w3.org/2000/svg">
<g id="Asset 34 1" clip-path="url(#clip0_3155_69349)">
<g id="Layer 2">
<g id="Layer 1">
<path id="Vector" d="M123.503 83.4716L119.245 90.8317L115.946 96.4716L111.688 103.832C109.435 107.738 106.21 110.995 102.327 113.287C98.4435 115.58 94.0338 116.83 89.5254 116.916H37.8118C33.2355 116.901 28.7435 115.684 24.7848 113.388C20.8262 111.092 17.5397 107.797 15.2541 103.832C13.9538 101.532 13.0035 99.0514 12.4344 96.4716C12.1266 95.0697 11.9286 93.6461 11.8422 92.2134C11.575 87.3122 12.6679 82.4325 15.0003 78.1137L15.5643 77.1831L33.836 45.4586L39.4754 35.4477L39.6164 35.1939C40.6119 33.5032 41.9615 32.048 43.5726 30.9285C45.1837 29.8089 47.0181 29.0514 48.9497 28.708C49.7495 28.5592 50.5611 28.4837 51.3746 28.4824C53.7659 28.4824 56.1148 29.1134 58.1842 30.3116C60.2537 31.5098 61.9704 33.2328 63.1611 35.3067L57.2678 45.5432L53.574 52.3111L51.6284 55.6668L49.711 58.9944L45.7634 65.8468L39.8984 76.1397C38.7003 78.2093 38.0694 80.5584 38.0694 82.9499C38.0694 85.3413 38.7003 87.6905 39.8984 89.7601C40.303 90.4712 40.7751 91.1417 41.3083 91.7622C42.5567 93.2385 44.1051 94.432 45.8504 95.2635C47.5958 96.0949 49.4982 96.5452 51.431 96.5844H101.509C106.394 96.4751 111.151 95 115.241 92.3262C116.446 91.5329 117.587 90.6466 118.653 89.6755C120.561 87.8525 122.194 85.7629 123.503 83.4716Z" fill="url(#paint0_linear_3155_69349)"/>
<path id="Vector_2" d="M51.6849 8.38331e-06H75.3142C79.8256 -0.00360449 84.2611 1.16059 88.1893 3.37935C92.1175 5.59811 95.4046 8.79589 97.7309 12.6616L123.588 57.4425C125.853 61.4058 127.044 65.8917 127.044 70.4566C127.044 75.0216 125.853 79.5075 123.588 83.4707C122.251 85.7576 120.589 87.838 118.653 89.6464C117.592 90.6242 116.451 91.5109 115.241 92.2972C111.142 94.952 106.391 96.4254 101.509 96.5553H51.6285C49.6673 96.5384 47.7328 96.0988 45.9568 95.2667C44.1807 94.4346 42.6049 93.2294 41.3366 91.7332C40.8035 91.1126 40.3313 90.4421 39.9267 89.731C38.7341 87.6595 38.1064 85.3111 38.1064 82.9208C38.1064 80.5305 38.7341 78.1821 39.9267 76.1106H87.1288C89.5248 76.1156 91.8795 75.487 93.9544 74.2886C96.0292 73.0901 97.7503 71.3644 98.9434 69.2863C99.3611 68.5925 99.7015 67.8549 99.9585 67.0868C100.628 65.2534 100.896 63.2979 100.745 61.352C100.594 59.4062 100.028 57.5153 99.0844 55.807L98.6896 55.3558L74.6938 13.6486L74.0735 12.577C71.532 8.39854 67.8683 5.01783 63.4996 2.81996C62.2247 2.15947 60.8943 1.61217 59.5238 1.18439C56.9845 0.400899 54.3423 0.00168757 51.6849 8.38331e-06Z" fill="url(#paint1_linear_3155_69349)"/>
<path id="Vector_3" d="M15.311 103.915L11.0814 96.5553L7.75417 90.9154L3.5246 83.4707C1.26156 79.5669 0.0486741 75.1433 0.00419852 70.6311C-0.0402771 66.1189 1.08518 61.6722 3.27082 57.7245L29.1276 12.9436C31.4289 9.00297 34.7225 5.73426 38.6805 3.46322C42.6384 1.19219 47.1223 -0.00188609 51.6853 2.23619e-06C54.3427 0.00168143 56.9849 0.400893 59.5242 1.18438C60.8947 1.61217 62.2251 2.15946 63.5 2.81996C67.8449 5.01544 71.4956 8.37355 74.0457 12.5206L74.6096 13.4794L93.0506 45.3731L98.69 55.3839L98.831 55.6095C99.7902 57.311 100.372 59.1989 100.538 61.1451C100.703 63.0914 100.448 65.0504 99.7897 66.8894C99.5327 67.6574 99.1923 68.395 98.7746 69.0889C97.6179 71.1846 95.9303 72.9392 93.8814 74.1766C91.8324 75.414 89.4941 76.0907 87.101 76.1388L81.2078 65.846L77.232 58.9935L75.2864 55.6095L73.3126 52.3102L69.3368 45.4577L63.4154 35.1931C62.2291 33.1153 60.5134 31.3891 58.443 30.1903C56.3725 28.9915 54.0213 28.363 51.6289 28.3688C50.8062 28.3714 49.9852 28.4469 49.1758 28.5944C47.2778 28.9401 45.4746 29.6844 43.8853 30.778C42.2959 31.8717 40.9565 33.29 39.9553 34.9393L39.6452 35.4469L15.6494 77.1822C15.4238 77.5206 15.2264 77.8872 15.029 78.2538C12.6771 82.5662 11.5737 87.4488 11.8428 92.3536C11.9292 93.7862 12.1271 95.2099 12.4349 96.6117C13.027 99.1752 13.9963 101.637 15.311 103.915Z" fill="url(#paint2_linear_3155_69349)"/>
</g>
</g>
</g>
<defs>
<linearGradient id="paint0_linear_3155_69349" x1="28.3376" y1="34.5453" x2="136.486" y2="190.537" gradientUnits="userSpaceOnUse">
<stop stop-color="#E3BF00"/>
<stop offset="1" stop-color="#FFD600"/>
</linearGradient>
<linearGradient id="paint1_linear_3155_69349" x1="56.8934" y1="106.884" x2="109.505" y2="22.5035" gradientUnits="userSpaceOnUse">
<stop stop-color="#D7B400"/>
<stop offset="1" stop-color="#FFD600"/>
</linearGradient>
<linearGradient id="paint2_linear_3155_69349" x1="105.266" y1="45.982" x2="21.0003" y2="27.9988" gradientUnits="userSpaceOnUse">
<stop stop-color="#B89A00"/>
<stop offset="1" stop-color="#FFD600"/>
</linearGradient>
<clipPath id="clip0_3155_69349">
<rect width="127" height="117" fill="white"/>
</clipPath>
</defs>
</svg>
