<svg width="121" height="117" viewBox="0 0 121 117" fill="none" xmlns="http://www.w3.org/2000/svg">
<g id="Asset 18 1" clip-path="url(#clip0_3155_69184)">
<g id="Layer 2">
<g id="Layer 1">
<g id="Group">
<g id="Group_2">
<g id="Clip path group">
<mask id="mask0_3155_69184" style="mask-type:luminance" maskUnits="userSpaceOnUse" x="0" y="-2" width="122" height="120">
<g id="clip-path">
<path id="Vector" d="M0 57.759C0 56.1751 0 54.0185 0.235933 52.4347C0.471866 50.8508 0.674095 49.0648 0.876323 47.6832C1.07855 46.3016 1.61783 44.0775 1.98858 42.5611C2.35933 41.0447 2.96602 39.4272 3.40418 38.0792C3.84234 36.7313 4.71866 34.7094 5.35905 33.2604C6.08805 31.5874 6.90947 29.9561 7.8195 28.3742C9.37193 25.7933 11.0595 23.2962 12.8752 20.8932C13.9201 19.5453 15.4031 17.894 16.549 16.6809C17.695 15.4678 18.7061 14.5242 19.6836 13.6481C20.661 12.7719 23.054 10.8174 24.4696 9.70539L27.8401 7.41392C28.885 6.73995 30.368 5.9312 31.4465 5.29094C32.5251 4.65067 33.6036 4.1789 34.5474 3.74082C35.9967 3.06686 37.9178 2.2244 39.4345 1.68523L41.659 0.910174C42.9735 0.505796 44.7599 0.000324011 46.1081 -0.336658C47.4563 -0.673639 49.0741 -0.976923 50.3549 -1.21281L53.9276 -1.61719H55.4443H56.8936H58.2755H63.6008H64.9827H66.3646H67.8813L69.398 -1.415L71.1507 -1.11172L73.0382 -0.741035C74.2852 -0.47145 75.9368 -0.0670723 77.1501 0.269909C78.3635 0.606891 79.2735 0.910174 80.1836 1.21346C81.0936 1.51674 83.1159 2.2581 84.363 2.79727C86.2504 3.63972 88.7109 4.92025 90.5646 5.8638C105.192 14.1872 114.798 30.4972 114.765 50.4802C114.765 92.1648 91.1713 111.137 60.3652 115.181C90.3624 111.137 114.731 82.1564 114.765 50.4802C114.765 30.4972 105.192 14.1872 90.5646 5.8638C91.9128 6.67256 93.6655 7.7509 94.9462 8.62705C96.227 9.5032 97.3056 10.312 98.3167 11.087C99.3279 11.8621 101.148 13.4122 102.26 14.4568C103.372 15.5015 104.485 16.6135 105.395 17.5908C106.305 18.568 107.788 20.3203 108.765 21.5334C109.743 22.7466 110.653 24.0945 111.394 25.2402C112.336 26.6538 113.202 28.1161 113.989 29.621C114.63 30.8678 115.472 32.519 116.045 33.7659C116.618 35.0127 117.427 37.1357 117.899 38.551C118.844 41.5607 119.621 44.6208 120.225 47.7169C120.538 49.433 120.751 51.1657 120.865 52.9064C120.865 54.3891 120.865 56.2762 121.067 57.7927C121.095 59.7059 121.005 61.6191 120.798 63.5213C120.596 64.9704 120.36 66.8912 120.124 68.2728C119.888 69.6544 119.382 71.8785 118.978 73.3949C118.573 74.9113 118 76.5288 117.528 77.8431C116.95 79.4829 116.286 81.0913 115.54 82.6619C114.967 83.9087 114.124 85.5599 113.45 86.7731C112.776 87.9862 111.529 89.9407 110.653 91.2549C109.776 92.5692 108.293 94.6247 107.282 95.8042C105.344 98.0704 103.285 100.23 101.114 102.274C99.7323 103.521 97.7437 105.071 96.2607 106.183C95.2833 106.891 93.9351 107.767 92.8902 108.441C91.8454 109.115 90.3287 109.991 89.1827 110.598L86.0819 112.114C84.7674 112.721 82.9473 113.496 81.5992 113.967C80.251 114.439 78.4983 115.012 77.1501 115.383C75.0424 115.978 72.9048 116.461 70.7462 116.832C69.1621 117.101 68.151 117.236 67.1398 117.337H65.6231C65.1406 117.371 64.6563 117.371 64.1738 117.337C62.8256 117.337 61.8482 117.337 61.4774 117.337H58.8148H57.4666L54.7028 117.135L53.1861 116.967L51.6357 116.764L49.9167 116.495C49.2089 116.495 47.7596 116.09 46.007 115.652L43.4117 114.945L40.8838 114.17C39.6368 113.732 37.9515 113.091 36.7382 112.552C34.817 111.743 32.3228 110.497 30.5028 109.486C28.6645 108.465 26.8865 107.34 25.1774 106.116C23.8967 105.139 22.1777 103.892 20.9643 102.746C19.751 101.6 18.6724 100.724 17.5939 99.7806C16.5153 98.837 15.066 97.1858 14.2234 95.9727C12.2999 93.7506 10.4889 91.4338 8.79694 89.0309C7.98802 87.7166 6.97688 85.8969 6.30279 84.5153C5.504 83.0132 4.8059 81.4596 4.21309 79.865C3.1158 76.9081 2.18189 73.8932 1.4156 70.8338C0.841756 68.1321 0.436517 65.3973 0.202228 62.6452C0 61.1962 0 59.2417 0 57.759Z" fill="white"/>
</g>
</mask>
<g mask="url(#mask0_3155_69184)">
<g id="Group_3">
<path id="Vector_2" d="M93.1597 7.54868L94.3731 8.15525C93.2271 7.44759 91.7778 6.50404 90.6318 5.83008C91.5082 6.33555 92.3508 6.87472 93.1934 7.41389" fill="#231F20"/>
<path id="Vector_3" d="M85.475 109.25C89.2939 108.468 92.9377 106.995 96.2268 104.903C84.2616 82.4598 7.44851 78.652 7.68444 86.8406C7.66508 86.9747 7.66508 87.1109 7.68444 87.245L8.69558 88.9636C10.1786 91.1203 12.0661 93.9509 13.8187 96.0402C11.3246 91.2214 44.7259 89.705 67.3081 96.6468C76.3747 99.4437 82.2393 101.769 83.8234 105.678" fill="url(#paint0_linear_3155_69184)"/>
<path id="Vector_4" d="M65.3199 114.371C68.7632 113.869 72.1496 113.034 75.4313 111.877C75.9706 98.6674 26.4921 96.7466 20.6612 101.262C19.8185 101.936 20.223 102.374 20.6612 102.779L21.9082 103.823C24.2091 105.824 26.6662 107.639 29.2559 109.249C27.6717 108.069 28.8514 107.159 32.6263 106.519C46.9846 104.261 69.7016 109.215 66.1288 113.798C65.8702 114.109 65.5485 114.361 65.1851 114.539" fill="url(#paint1_linear_3155_69184)"/>
<path id="Vector_5" d="M60.3989 115.281C62.8256 114.202 60.3989 113.023 59.4888 112.551C52.4108 109.518 35.3563 110.293 36.7044 112.551C37.01 112.9 37.4069 113.157 37.8504 113.293H38.2212C41.5916 114.506 41.5916 114.573 43.8161 115.18L48.0966 116.224H48.4C45.5688 115.55 45.8047 114.944 46.5125 114.539C51.0866 113.324 55.9179 113.488 60.3989 115.011" fill="url(#paint2_linear_3155_69184)"/>
<path id="Vector_6" d="M105.664 19.8144C107.887 21.3692 109.826 23.2958 111.394 25.5094C110.45 24.1952 109.237 22.4092 108.226 21.1286C107.215 19.8481 105.024 17.3881 103.574 15.8717C102.357 14.614 101.013 13.4848 99.5636 12.5019L99.7659 12.6704L99.5299 12.4682C79.6778 0.539064 46.5124 -0.606674 38.3895 2.19027L37.6817 2.45986C34.6112 3.7367 31.6374 5.23459 28.7837 6.94171C38.0525 2.42616 84.5987 4.78503 105.664 19.8144Z" fill="url(#paint3_linear_3155_69184)"/>
<path id="Vector_7" d="M113.181 36.6637C116.222 38.9737 118.5 42.1433 119.719 45.7622C119.146 43.336 118.371 40.4379 117.697 38.2475L116.45 35.1136C114.994 31.9885 112.738 29.3033 109.911 27.3293V27.5652V27.2956C82.9137 8.15509 28.2783 7.34634 21.0992 12.4685L19.6836 13.749C17.7961 15.5687 15.3694 18.2645 13.4819 20.0505C20.2229 14.4566 85.1382 14.8947 113.181 36.6637Z" fill="url(#paint4_linear_3155_69184)"/>
<path id="Vector_8" d="M121 57.6582C120.596 53.2774 119.618 50.6827 114.63 45.8975V46.1671C114.63 46.1671 114.63 45.9649 114.63 45.8638C85.0371 21.6348 13.1112 21.6348 8.1903 27.8353L7.41509 29.1495C5.90906 31.8495 4.62408 34.6668 3.57275 37.5741C8.96551 29.8572 87.8346 32.3846 114.495 56.8157C118.068 60.5899 120.697 63.9597 119.753 69.958L120.056 68.4079C120.68 64.9493 120.996 61.4422 121 57.9278V57.6582Z" fill="url(#paint5_linear_3155_69184)"/>
<path id="Vector_9" d="M112.709 66.6208C112.693 66.5203 112.693 66.418 112.709 66.3175C85.2055 41.0439 2.62892 39.359 1.01109 46.9411V47.6824C0.435178 51.0216 0.142031 54.4034 0.134766 57.7919V58.1289C6.40385 49.3337 86.0818 53.1416 109.372 76.5955C111.26 78.3251 112.48 80.6631 112.819 83.2009C113.158 85.7387 112.594 88.3149 111.226 90.4791C111.933 89.3671 112.81 88.0191 113.416 86.9408C114.428 84.9863 115.742 82.3242 116.787 80.2012C117.731 77.202 119.18 72.6865 112.978 66.2164C112.858 66.3282 112.765 66.4667 112.709 66.6208Z" fill="url(#paint6_linear_3155_69184)"/>
<path id="Vector_10" d="M111.226 90.4785C111.226 90.6807 110.99 90.8829 110.855 91.0514C110.99 90.8683 111.114 90.677 111.226 90.4785Z" fill="url(#paint7_linear_3155_69184)"/>
<path id="Vector_11" d="M94.8453 107.059L93.4297 108.036C93.9353 107.699 94.3734 107.396 94.8453 107.059Z" fill="url(#paint8_linear_3155_69184)"/>
<path id="Vector_12" d="M104.485 85.3227C104.554 85.2291 104.61 85.1272 104.653 85.0194C81.3634 60.0491 1.8539 62.2732 0.876465 67.8334C0.876465 67.8334 0.876465 67.8334 0.876465 68.0355L1.41574 70.8325C2.05613 73.1577 2.96616 76.2916 3.74137 78.5831C3.37062 71.001 74.7235 72.1804 95.7553 90.7144C96.7857 91.5952 97.7129 92.5901 98.5191 93.6798C99.901 95.9376 103.036 101.026 94.879 107.159C97.0821 105.696 99.1669 104.062 101.114 102.273L103.912 99.6444C106.069 97.2181 110.653 92.1634 104.889 85.0531C104.743 85.1252 104.607 85.2158 104.485 85.3227Z" fill="url(#paint9_linear_3155_69184)"/>
</g>
</g>
</g>
</g>
<g id="Group_4">
<g id="Clip path group_2">
<mask id="mask1_3155_69184" style="mask-type:luminance" maskUnits="userSpaceOnUse" x="0" y="-2" width="121" height="120">
<g id="clip-path-2">
<path id="Vector_13" d="M30.3343 109.756C29.2894 109.15 27.9075 108.307 26.9638 107.633C25.1798 106.454 23.4586 105.183 21.807 103.825C19.5734 101.946 17.4572 99.9317 15.4705 97.7933C14.2908 96.5465 12.8415 94.7605 11.7967 93.3788C10.7518 91.9972 9.63955 90.346 8.79694 88.9644C7.95432 87.5828 7.1454 86.2011 6.53872 84.9543C5.93203 83.7075 4.9546 81.5845 4.38162 80.2366C3.80863 78.8886 3.37047 77.17 2.79749 75.8558C2.22451 74.5416 1.75265 72.486 1.4156 70.8348C1.07855 69.1836 0.775209 67.465 0.57298 66.117C0.212165 63.3456 0.0208162 60.5547 0 57.7599C0.100681 54.5354 0.370691 51.3184 0.808914 48.1222C1.06793 46.4063 1.42808 44.7072 1.88747 43.0338C2.22451 41.6522 2.79749 39.8662 3.23565 38.5182C3.67382 37.1703 4.48273 35.1484 5.12312 33.7668C5.76351 32.3852 6.53872 30.8688 7.1454 29.6219C7.75209 28.3751 8.93176 26.5217 9.77437 25.2412C10.617 23.9606 11.5944 22.6464 12.4033 21.6355C13.2123 20.6245 14.729 18.8385 15.7738 17.6928C16.8187 16.5471 17.8972 15.4687 18.8747 14.5926C19.8521 13.7164 21.6384 12.0989 22.8855 11.2227C24.1326 10.3466 26.256 8.66168 27.8738 7.85293L30.9409 6.03323C32.761 5.02228 35.2551 3.84285 37.1763 3.03409C37.9852 2.66341 39.0975 2.25904 39.9401 1.95575C40.7827 1.65247 43.0409 0.944808 44.3891 0.574129L46.5799 0.00125992C47.8607 -0.302024 49.546 -0.639005 50.793 -0.841194L52.3772 -1.07708C53.8265 -1.27927 55.1746 -1.38036 55.5117 -1.41406H56.9273H58.3429H62.3201H65.0164L67.915 -1.14448C68.5891 -1.14448 69.6677 -0.90859 71.2855 -0.639005C71.8867 -0.559285 72.483 -0.44679 73.0719 -0.302023L77.1838 0.675223L79.8802 1.51768C80.7903 1.82096 82.0373 2.25904 82.9473 2.62972C83.8574 3.0004 85.1382 3.50587 86.0482 3.94394C87.4975 4.61791 89.4187 5.59515 90.7668 6.33651C81.6559 1.11546 71.0736 -0.946089 60.6685 0.473034C70.9995 -1.03537 81.54 0.894699 90.6657 5.96583C92.7554 7.28006 95.5529 8.99867 97.4067 10.5151C98.6538 11.4586 100.305 12.8066 101.451 13.8849C102.597 14.9632 103.709 16.0416 104.619 16.9851C105.53 17.9287 107.215 19.8495 108.226 21.1637C109.237 22.4779 110.147 23.6911 110.889 24.8368C111.885 26.2829 112.808 27.7788 113.652 29.3187C114.293 30.5655 115.102 32.2167 115.708 33.4635C116.449 35.0321 117.102 36.6409 117.663 38.2824C118.101 39.6303 118.674 41.4163 119.011 42.7642C119.348 44.1121 119.888 46.3362 120.124 47.8863C120.36 49.4365 120.596 51.2562 120.73 52.6378C120.865 54.0194 121 56.3783 120.966 57.9621C120.882 61.1987 120.612 64.4278 120.157 67.6335C119.865 69.4734 119.471 71.2959 118.978 73.0926C118.641 74.4405 118.034 76.2265 117.596 77.5744C117.158 78.9223 116.315 80.9442 115.675 82.3259C115.034 83.7075 114.259 85.2239 113.619 86.437C112.808 87.9428 111.919 89.405 110.956 90.8178C110.214 91.9298 109.136 93.3788 108.327 94.4572C107.518 95.5355 106.035 97.2541 104.957 98.3999C103.878 99.5456 102.799 100.59 101.856 101.5C100.912 102.41 99.0582 103.926 97.8111 104.87C96.5641 105.813 95.5192 106.589 94.4407 107.296C93.3621 108.004 91.0702 109.385 89.6546 110.194C88.7446 110.7 87.4975 111.306 86.5875 111.778C85.6774 112.25 83.9585 112.957 82.7788 113.396C81.5992 113.834 79.7117 114.541 78.3635 114.946C77.0153 115.35 75.2964 115.822 73.9819 116.125C71.69 116.631 69.7688 116.934 68.5554 117.102C67.3421 117.271 66.3646 117.372 65.4209 117.439L62.5897 117.608H58.7136H57.3655L54.6017 117.406L51.6019 117.035C48.1091 116.538 44.6685 115.726 41.322 114.609C40.3783 114.305 39.1312 113.867 38.2212 113.497L35.1203 112.182C33.7047 111.508 31.7836 110.565 30.3343 109.756Z" fill="white"/>
</g>
</mask>
<g mask="url(#mask1_3155_69184)">
<g id="Group_5">
<path id="Vector_14" d="M28.7835 6.9427C31.6291 5.22105 34.6041 3.72261 37.6815 2.46085L38.3893 2.19126C37.7489 2.46085 36.2659 3.13481 38.1871 3.94357C44.0517 6.36983 62.3534 4.24685 61.5445 1.21402C61.5445 0.94443 61.14 0.708543 60.6007 0.472656C65.6901 0.472656 68.7236 2.29236 66.9372 4.38164C61.4771 11.1213 29.6261 12.1322 28.1431 7.95365C28.1431 7.54927 28.4127 7.17859 28.7835 6.9427Z" fill="url(#paint10_linear_3155_69184)"/>
<path id="Vector_15" d="M76.779 0.877027C89.3509 5.99915 84.8008 12.8062 75.2623 16.951C51.096 27.4312 11.0885 25.0049 13.4815 20.1861C15.369 18.2653 17.7958 15.5694 19.6832 13.7497L21.0988 12.4692C18.8406 15.1313 30.671 17.0184 43.8158 16.1086C64.679 14.6259 79.6439 8.02104 74.1501 2.62933C72.067 1.04402 69.5521 0.127543 66.9373 0.000875223C70.2388 -0.0343282 73.5357 0.25917 76.779 0.877027Z" fill="url(#paint11_linear_3155_69184)"/>
<path id="Vector_16" d="M90.5981 5.96588C91.7104 6.67354 93.2271 7.54969 94.3393 8.29105C110.484 19.8495 95.0134 33.2951 58.309 39.5966C28.9184 44.6177 3.37025 41.8544 3.57248 37.5747C4.62704 34.6688 5.9119 31.8517 7.41482 29.1502L8.19003 27.836C6.30257 34.8115 61.4772 34.5756 84.565 21.6018C95.1482 15.6709 95.2494 8.62803 84.8683 3.23633C86.8284 4.03685 88.7415 4.94817 90.5981 5.96588Z" fill="url(#paint12_linear_3155_69184)"/>
<path id="Vector_17" d="M108.259 21.1641C109.237 22.4784 110.518 24.197 111.428 25.5449C127.336 54.1546 30.9408 67.6339 4.44886 60.591C0.438 59.5126 0.168362 58.7039 -0.000161498 58.0973V57.7603C-0.0185667 54.3708 0.274776 50.9867 0.876162 47.6509V46.9095C5.93187 57.019 100.339 50.2793 106.911 26.0841C107.284 24.2514 107.168 22.3532 106.577 20.5791C105.985 18.8051 104.938 17.2173 103.541 15.9746C104.956 17.5247 106.911 19.5466 108.192 21.2315" fill="url(#paint13_linear_3155_69184)"/>
<path id="Vector_18" d="M117.697 38.2814C118.438 40.7751 119.382 44.1449 119.955 46.7059C123.393 81.0107 13.2793 89.0308 4.04422 78.9214C4.04422 78.9214 3.84199 78.5844 3.74088 78.4496C2.96567 76.2929 2.02194 73.1927 1.41525 70.8338L0.875977 68.0369C5.12277 76.2255 105.833 71.6763 116.584 43.4035C117.68 40.7372 117.68 37.7464 116.584 35.0801L117.831 38.2814" fill="url(#paint14_linear_3155_69184)"/>
<path id="Vector_19" d="M121 57.9615C121.015 61.4767 120.699 64.9856 120.056 68.4416L119.753 69.9917C111.225 99.1406 21.6383 102.881 13.9199 96.0404C12.3021 93.9511 10.2798 91.1542 8.79679 88.9638L7.78564 87.2452C17.6948 98.1634 117.966 87.1778 120.966 58.7028C120.966 58.3996 120.966 57.9615 120.966 57.6582V57.9615" fill="url(#paint15_linear_3155_69184)"/>
<path id="Vector_20" d="M113.382 86.9422C112.607 88.1553 111.63 89.8403 110.821 91.0534C94.9122 111.643 37.0749 113.294 29.2554 109.25C26.6441 107.687 24.1542 105.93 21.8066 103.993L20.5596 102.949C30.9743 109.857 106.675 104.196 116.584 80.5059C115.674 82.4941 114.495 85.1899 113.214 87.2455" fill="url(#paint16_linear_3155_69184)"/>
<path id="Vector_21" d="M101.114 102.275C98.7377 104.388 96.2024 106.315 93.5303 108.038C78.1946 117.204 55.1069 117.777 48.5008 116.496H48.1974C45.5684 115.889 45.4336 115.856 43.9169 115.451C40.7487 114.474 40.5464 114.373 38.3219 113.564H37.9512C48.467 117.136 89.8902 113.564 103.911 99.8828L101.114 102.511" fill="url(#paint17_linear_3155_69184)"/>
</g>
</g>
</g>
</g>
</g>
</g>
</g>
</g>
<defs>
<linearGradient id="paint0_linear_3155_69184" x1="7.66992" y1="96.0414" x2="96.1149" y2="96.0414" gradientUnits="userSpaceOnUse">
<stop stop-color="#B99B00"/>
<stop offset="0.316931" stop-color="#FFD600"/>
<stop offset="1" stop-color="#7D6900"/>
</linearGradient>
<linearGradient id="paint1_linear_3155_69184" x1="20.1694" y1="106.787" x2="75.3659" y2="106.787" gradientUnits="userSpaceOnUse">
<stop stop-color="#B99B00"/>
<stop offset="0.316931" stop-color="#FFD600"/>
<stop offset="1" stop-color="#7D6900"/>
</linearGradient>
<linearGradient id="paint2_linear_3155_69184" x1="36.6289" y1="113.385" x2="61.4151" y2="113.385" gradientUnits="userSpaceOnUse">
<stop stop-color="#B99B00"/>
<stop offset="0.316931" stop-color="#FFD600"/>
<stop offset="1" stop-color="#7D6900"/>
</linearGradient>
<linearGradient id="paint3_linear_3155_69184" x1="28.7837" y1="13.1913" x2="111.29" y2="13.1913" gradientUnits="userSpaceOnUse">
<stop stop-color="#B99B00"/>
<stop offset="0.316931" stop-color="#FFD600"/>
<stop offset="1" stop-color="#7D6900"/>
</linearGradient>
<linearGradient id="paint4_linear_3155_69184" x1="13.4819" y1="27.7381" x2="119.585" y2="27.7381" gradientUnits="userSpaceOnUse">
<stop stop-color="#B99B00"/>
<stop offset="0.316931" stop-color="#FFD600"/>
<stop offset="1" stop-color="#7D6900"/>
</linearGradient>
<linearGradient id="paint5_linear_3155_69184" x1="3.57275" y1="47.1221" x2="120.852" y2="47.1221" gradientUnits="userSpaceOnUse">
<stop stop-color="#B99B00"/>
<stop offset="0.316931" stop-color="#FFD600"/>
<stop offset="1" stop-color="#7D6900"/>
</linearGradient>
<linearGradient id="paint6_linear_3155_69184" x1="0.134766" y1="66.6847" x2="117.492" y2="66.6847" gradientUnits="userSpaceOnUse">
<stop stop-color="#B99B00"/>
<stop offset="0.316931" stop-color="#FFD600"/>
<stop offset="1" stop-color="#7D6900"/>
</linearGradient>
<linearGradient id="paint7_linear_3155_69184" x1="110.821" y1="90.7818" x2="111.192" y2="90.7818" gradientUnits="userSpaceOnUse">
<stop stop-color="#525252"/>
<stop offset="0.1" stop-color="#A7ADB4"/>
<stop offset="0.22" stop-color="#AAB0B7"/>
<stop offset="0.31" stop-color="#CBCBCB"/>
<stop offset="0.46" stop-color="#979EA4"/>
<stop offset="1" stop-color="#0A0A0A"/>
</linearGradient>
<linearGradient id="paint8_linear_3155_69184" x1="93.4297" y1="107.564" x2="94.8453" y2="107.564" gradientUnits="userSpaceOnUse">
<stop stop-color="#525252"/>
<stop offset="0.1" stop-color="#A7ADB4"/>
<stop offset="0.22" stop-color="#AAB0B7"/>
<stop offset="0.31" stop-color="#CBCBCB"/>
<stop offset="0.46" stop-color="#979EA4"/>
<stop offset="1" stop-color="#0A0A0A"/>
</linearGradient>
<linearGradient id="paint9_linear_3155_69184" x1="0.876465" y1="85.6597" x2="107.552" y2="85.6597" gradientUnits="userSpaceOnUse">
<stop stop-color="#B99B00"/>
<stop offset="0.316931" stop-color="#FFD600"/>
<stop offset="1" stop-color="#7D6900"/>
</linearGradient>
<linearGradient id="paint10_linear_3155_69184" x1="28.1431" y1="5.45198" x2="67.4492" y2="5.45198" gradientUnits="userSpaceOnUse">
<stop stop-color="#8F7800"/>
<stop offset="0.54" stop-color="#FFD600"/>
<stop offset="1" stop-color="#C2A300"/>
</linearGradient>
<linearGradient id="paint11_linear_3155_69184" x1="13.3789" y1="12.1397" x2="84.4576" y2="12.1397" gradientUnits="userSpaceOnUse">
<stop stop-color="#8F7800"/>
<stop offset="0.54" stop-color="#FFD600"/>
<stop offset="1" stop-color="#C2A300"/>
</linearGradient>
<linearGradient id="paint12_linear_3155_69184" x1="3.57129" y1="22.7416" x2="100.698" y2="22.7416" gradientUnits="userSpaceOnUse">
<stop stop-color="#8F7800"/>
<stop offset="0.54" stop-color="#FFD600"/>
<stop offset="1" stop-color="#C2A300"/>
</linearGradient>
<linearGradient id="paint13_linear_3155_69184" x1="-0.000976562" y1="39.1762" x2="113.178" y2="39.1762" gradientUnits="userSpaceOnUse">
<stop stop-color="#8F7800"/>
<stop offset="0.54" stop-color="#FFD600"/>
<stop offset="1" stop-color="#C2A300"/>
</linearGradient>
<linearGradient id="paint14_linear_3155_69184" x1="0.875977" y1="59.0058" x2="120.022" y2="59.0058" gradientUnits="userSpaceOnUse">
<stop stop-color="#8F7800"/>
<stop offset="0.54" stop-color="#FFD600"/>
<stop offset="1" stop-color="#C2A300"/>
</linearGradient>
<linearGradient id="paint15_linear_3155_69184" x1="7.78564" y1="78.2928" x2="120.99" y2="78.2928" gradientUnits="userSpaceOnUse">
<stop stop-color="#8F7800"/>
<stop offset="0.54" stop-color="#FFD600"/>
<stop offset="1" stop-color="#C2A300"/>
</linearGradient>
<linearGradient id="paint16_linear_3155_69184" x1="20.5596" y1="95.745" x2="116.575" y2="95.745" gradientUnits="userSpaceOnUse">
<stop stop-color="#8F7800"/>
<stop offset="0.54" stop-color="#FFD600"/>
<stop offset="1" stop-color="#C2A300"/>
</linearGradient>
<linearGradient id="paint17_linear_3155_69184" x1="37.9512" y1="108.434" x2="103.905" y2="108.434" gradientUnits="userSpaceOnUse">
<stop stop-color="#8F7800"/>
<stop offset="0.54" stop-color="#FFD600"/>
<stop offset="1" stop-color="#C2A300"/>
</linearGradient>
<clipPath id="clip0_3155_69184">
<rect width="121" height="117" fill="white"/>
</clipPath>
</defs>
</svg>
