<svg width="134" height="116" viewBox="0 0 134 116" fill="none" xmlns="http://www.w3.org/2000/svg">
<g id="Asset 42 1" clip-path="url(#clip0_3155_69314)">
<g id="Layer 2">
<g id="Layer 1">
<path id="Vector" d="M86.3862 91.5469L33.5073 116H100.493L86.3862 91.5469Z" fill="url(#paint0_linear_3155_69314)"/>
<path id="Vector_2" d="M100.493 116L134 58L86.3862 91.5473L100.493 116Z" fill="url(#paint1_linear_3155_69314)"/>
<path id="Vector_3" d="M0 58L33.5072 116L28.2422 58H0Z" fill="url(#paint2_linear_3155_69314)"/>
<path id="Vector_4" d="M33.5072 0L0 58H28.2422L33.5072 0Z" fill="url(#paint3_linear_3155_69314)"/>
<path id="Vector_5" d="M100.493 0H33.5073L86.3862 24.4527L100.493 0Z" fill="url(#paint4_linear_3155_69314)"/>
<path id="Vector_6" d="M134 58L100.493 0L86.3862 24.4527L134 58Z" fill="url(#paint5_linear_3155_69314)"/>
<path id="Vector_7" d="M105.758 58.0005H134L86.3862 24.4531L105.758 58.0005Z" fill="url(#paint6_linear_3155_69314)"/>
<path id="Vector_8" d="M86.3862 91.5473L134 58H105.758L86.3862 91.5473Z" fill="url(#paint7_linear_3155_69314)"/>
<path id="Vector_9" d="M47.6141 91.5469L33.5073 116L86.3862 91.5469H47.6141Z" fill="url(#paint8_linear_3155_69314)"/>
<path id="Vector_10" d="M28.2422 58L33.5072 116L47.614 91.5473L28.2422 58Z" fill="url(#paint9_linear_3155_69314)"/>
<path id="Vector_11" d="M47.614 24.4527L33.5072 0L28.2422 58L47.614 24.4527Z" fill="url(#paint10_linear_3155_69314)"/>
<path id="Vector_12" d="M86.3862 24.4527L33.5073 0L47.6141 24.4527H86.3862Z" fill="url(#paint11_linear_3155_69314)"/>
</g>
</g>
</g>
<defs>
<linearGradient id="paint0_linear_3155_69314" x1="114.886" y1="193.333" x2="58.8722" y2="101.932" gradientUnits="userSpaceOnUse">
<stop stop-color="#A3A3A3"/>
<stop offset="1" stop-color="#FFD600"/>
</linearGradient>
<linearGradient id="paint1_linear_3155_69314" x1="133.113" y1="105.075" x2="68.8826" y2="31.8562" gradientUnits="userSpaceOnUse">
<stop stop-color="#FFD600"/>
<stop offset="1" stop-color="#A3A3A3"/>
</linearGradient>
<linearGradient id="paint2_linear_3155_69314" x1="-26.9545" y1="94.8363" x2="120.175" y2="68.3842" gradientUnits="userSpaceOnUse">
<stop stop-color="#FFD600"/>
<stop offset="1" stop-color="#A3A3A3"/>
</linearGradient>
<linearGradient id="paint3_linear_3155_69314" x1="6.58125" y1="22.7367" x2="132.248" y2="100.241" gradientUnits="userSpaceOnUse">
<stop stop-color="#FFD600"/>
<stop offset="1" stop-color="#A3A3A3"/>
</linearGradient>
<linearGradient id="paint4_linear_3155_69314" x1="75.3698" y1="-22.7939" x2="33.2589" y2="92.1617" gradientUnits="userSpaceOnUse">
<stop stop-color="#FFD600"/>
<stop offset="1" stop-color="#A3A3A3"/>
</linearGradient>
<linearGradient id="paint5_linear_3155_69314" x1="79.2041" y1="44.1864" x2="318.814" y2="-51.5631" gradientUnits="userSpaceOnUse">
<stop stop-color="#FFD600"/>
<stop offset="1" stop-color="#A3A3A3"/>
</linearGradient>
<linearGradient id="paint6_linear_3155_69314" x1="81.0068" y1="45.7598" x2="140.637" y2="36.4844" gradientUnits="userSpaceOnUse">
<stop stop-color="#FFD600"/>
<stop offset="1" stop-color="#0A0A0A"/>
</linearGradient>
<linearGradient id="paint7_linear_3155_69314" x1="51.6201" y1="55.4546" x2="259.452" y2="124.071" gradientUnits="userSpaceOnUse">
<stop stop-color="#FFD600"/>
<stop offset="1" stop-color="#0A0A0A"/>
</linearGradient>
<linearGradient id="paint8_linear_3155_69314" x1="68.7599" y1="54.5676" x2="59.4981" y2="106.306" gradientUnits="userSpaceOnUse">
<stop stop-color="#0A0A0A"/>
<stop offset="1" stop-color="#A08700"/>
</linearGradient>
<linearGradient id="paint9_linear_3155_69314" x1="54.1094" y1="58.6292" x2="-25.1322" y2="155.421" gradientUnits="userSpaceOnUse">
<stop stop-color="#FFD600"/>
<stop offset="1" stop-color="#0A0A0A"/>
</linearGradient>
<linearGradient id="paint10_linear_3155_69314" x1="66.7854" y1="59.8876" x2="-12.4701" y2="-8.33368" gradientUnits="userSpaceOnUse">
<stop stop-color="#FFD600"/>
<stop offset="1" stop-color="#0A0A0A"/>
</linearGradient>
<linearGradient id="paint11_linear_3155_69314" x1="66.0988" y1="56.856" x2="40.0573" y2="-131.619" gradientUnits="userSpaceOnUse">
<stop stop-color="#FFD600"/>
<stop offset="1" stop-color="#0A0A0A"/>
</linearGradient>
<clipPath id="clip0_3155_69314">
<rect width="134" height="116" fill="white"/>
</clipPath>
</defs>
</svg>
