<svg width="117" height="117" viewBox="0 0 117 117" fill="none" xmlns="http://www.w3.org/2000/svg">
<g id="Asset 39 1" clip-path="url(#clip0_3155_69223)">
<g id="Layer 2">
<g id="Layer 1">
<path id="Vector" d="M66.7201 58.9533C66.7201 56.8933 65.9018 54.9176 64.4452 53.461C62.9885 52.0044 61.0129 51.1861 58.9529 51.1861H58.7458C56.1658 51.1915 53.6395 51.9228 51.4556 53.2963C49.2716 54.6699 47.5183 56.6302 46.3959 58.9533C45.4925 60.8083 45.0232 62.8447 45.0237 64.9081C45.0198 67.1615 45.5617 69.3824 46.603 71.3808C47.7374 73.6087 49.4579 75.4851 51.5792 76.808C53.7005 78.131 56.1424 78.8505 58.6422 78.8891C53.463 78.8286 48.5129 76.7442 44.8504 73.0817C41.1878 69.4192 39.1035 64.4691 39.043 59.2898V58.7979C39.1068 55.7097 40.201 52.7314 42.1517 50.3364C44.1024 47.9414 46.7976 46.2672 49.8091 45.5798C52.8205 44.8924 55.9753 45.2313 58.772 46.5426C61.5687 47.854 63.8469 50.0625 65.2443 52.8172C66.2109 54.7184 66.7164 56.8204 66.7201 58.9533Z" fill="url(#paint0_linear_3155_69223)"/>
<path id="Vector_2" d="M72.7267 53.0495C72.7341 55.1497 72.2556 57.2232 71.3286 59.1079C70.1985 61.4194 68.4469 63.3705 66.2702 64.7424C64.0934 66.1143 61.5776 66.8528 59.0047 66.8751C61.038 66.8755 62.9905 66.0785 64.4427 64.6553C65.895 63.2321 66.7312 61.2962 66.7719 59.2632V59.0302C66.7682 56.8974 66.2626 54.7954 65.2961 52.8941C63.9141 50.1179 61.639 47.887 58.8362 46.5598C56.0334 45.2326 52.8658 44.8862 49.8425 45.5763C46.8191 46.2664 44.1155 47.953 42.1663 50.3649C40.217 52.7768 39.1352 55.774 39.0947 58.8749C39.1558 53.6734 41.258 48.7041 44.9483 45.038C48.6387 41.3719 53.6217 39.3024 58.8234 39.2756C60.6412 39.2654 62.4432 39.6137 64.1262 40.3007C65.8092 40.9877 67.3402 41.9998 68.6316 43.2792C69.9229 44.5586 70.9494 46.08 71.6521 47.7565C72.3548 49.433 72.7199 51.2317 72.7267 53.0495Z" fill="url(#paint1_linear_3155_69223)"/>
<path id="Vector_3" d="M78.7341 59.0315C78.7375 61.6403 78.2261 64.2241 77.2294 66.6349C76.2326 69.0458 74.77 71.2363 72.9253 73.0809C71.0807 74.9256 68.8902 76.3882 66.4793 77.385C64.0685 78.3818 61.4847 78.8931 58.8759 78.8897H58.6429C56.1431 78.8511 53.7012 78.1316 51.5799 76.8086C49.4585 75.4856 47.7381 73.6093 46.6037 71.3814C45.6044 69.4252 45.0811 67.2607 45.0762 65.064C45.0757 63.0007 45.5449 60.9643 46.4484 59.1092C47.5707 56.7861 49.3241 54.8258 51.508 53.4523C53.6919 52.0787 56.2183 51.3474 58.7982 51.342C56.7382 51.342 54.7626 52.1603 53.306 53.6169C51.8494 55.0736 51.031 57.0492 51.031 59.1092C51.031 61.1692 51.8494 63.1448 53.306 64.6014C54.7626 66.0581 56.7382 66.8764 58.7982 66.8764H59.0054C61.5783 66.8541 64.0941 66.1156 66.2709 64.7437C68.4476 63.3718 70.1992 61.4207 71.3293 59.1092C72.2563 57.2245 72.7348 55.151 72.7274 53.0508C72.7308 51.2308 72.3749 49.4281 71.68 47.746C70.9851 46.0639 69.9649 44.5356 68.678 43.2487C67.3911 41.9617 65.8628 40.9416 64.1807 40.2467C62.4986 39.5518 60.6959 39.1958 58.8759 39.1992C61.4825 39.1958 64.0642 39.7063 66.4733 40.7014C68.8825 41.6966 71.0718 43.1569 72.9162 44.9988C74.7605 46.8408 76.2237 49.0282 77.2219 51.436C78.2202 53.8439 78.7341 56.4249 78.7341 59.0315Z" fill="url(#paint2_linear_3155_69223)"/>
<path id="Vector_4" d="M96.3397 20.7125C90.0268 15.3059 82.1857 12.0015 73.9072 11.2591C65.6288 10.5166 57.3248 12.373 50.1507 16.57C48.927 17.3101 47.7431 18.1138 46.6037 18.9779C43.0307 21.8258 36.584 26.4862 35.5742 35.6774C35.9736 27.7691 38.711 20.1572 43.4399 13.806C48.1688 7.45475 54.6763 2.64988 62.1381 0C68.8694 0.140598 75.456 1.98017 81.286 5.34782C87.116 8.71548 92.0004 13.502 95.4853 19.2627L95.8477 19.8582L96.3397 20.7125Z" fill="url(#paint3_linear_3155_69223)"/>
<path id="Vector_5" d="M21.4893 44.0149C21.4893 43.8337 21.4893 43.6265 21.4893 43.4453C21.5 43.635 21.5 43.8252 21.4893 44.0149Z" fill="url(#paint4_linear_3155_69223)"/>
<path id="Vector_6" d="M62.2931 0C54.778 2.60392 48.2098 7.38898 43.4275 13.7439C38.6451 20.0989 35.8658 27.7352 35.4444 35.6774C35.4444 36.3764 35.4444 37.1014 35.4444 37.8004C35.4473 39.5318 35.5598 41.2613 35.781 42.9785C35.781 42.9785 35.781 43.1339 35.781 43.2116C35.781 43.2892 35.781 43.3669 35.781 43.4446C35.7927 44.3947 35.6099 45.3372 35.2437 46.214C34.8776 47.0909 34.3359 47.8835 33.652 48.5432C32.9681 49.2029 32.1564 49.7156 31.2669 50.0499C30.3774 50.3841 29.4289 50.5328 28.4798 50.4868C26.731 50.4289 25.0617 49.7427 23.7778 48.5539C22.4939 47.3651 21.6814 45.7533 21.4894 44.0142C21.5022 43.8072 21.5022 43.5997 21.4894 43.3928C21.4894 42.3054 21.4894 41.1921 21.4894 40.0529C21.4665 29.5881 25.5481 19.5317 32.8577 12.0429C40.1673 4.55422 50.122 0.230417 60.5843 0H62.2931Z" fill="url(#paint5_linear_3155_69223)"/>
<path id="Vector_7" d="M96.3397 20.7125C90.0268 15.3059 82.1857 12.0015 73.9072 11.2591C65.6288 10.5166 57.3248 12.373 50.1507 16.57C48.927 17.3101 47.7431 18.1138 46.6037 18.9779C43.0307 21.8258 36.584 26.4862 35.5742 35.6774C35.9736 27.7691 38.711 20.1572 43.4399 13.806C48.1688 7.45475 54.6763 2.64988 62.1381 0C68.8694 0.140598 75.456 1.98017 81.286 5.34782C87.116 8.71548 92.0004 13.502 95.4853 19.2627L95.8477 19.8582L96.3397 20.7125Z" fill="url(#paint6_linear_3155_69223)"/>
<path id="Vector_8" d="M21.4893 44.0149C21.4893 43.8337 21.4893 43.6265 21.4893 43.4453C21.5 43.635 21.5 43.8252 21.4893 44.0149Z" fill="url(#paint7_linear_3155_69223)"/>
<path id="Vector_9" d="M62.2931 0C54.778 2.60392 48.2098 7.38898 43.4275 13.7439C38.6451 20.0989 35.8658 27.7352 35.4444 35.6774C35.4444 36.3764 35.4444 37.1014 35.4444 37.8004C35.4473 39.5318 35.5598 41.2613 35.781 42.9785C35.781 42.9785 35.781 43.1339 35.781 43.2116C35.781 43.2892 35.781 43.3669 35.781 43.4446C35.7927 44.3947 35.6099 45.3372 35.2437 46.214C34.8776 47.0909 34.3359 47.8835 33.652 48.5432C32.9681 49.2029 32.1564 49.7156 31.2669 50.0499C30.3774 50.3841 29.4289 50.5328 28.4798 50.4868C26.731 50.4289 25.0617 49.7427 23.7778 48.5539C22.4939 47.3651 21.6814 45.7533 21.4894 44.0142C21.5022 43.8072 21.5022 43.5997 21.4894 43.3928C21.4894 42.3054 21.4894 41.1921 21.4894 40.0529C21.4665 29.5881 25.5481 19.5317 32.8577 12.0429C40.1673 4.55422 50.122 0.230417 60.5843 0H62.2931Z" fill="url(#paint8_linear_3155_69223)"/>
<path id="Vector_10" d="M96.3397 20.7125C90.0268 15.3059 82.1857 12.0015 73.9072 11.2591C65.6288 10.5166 57.3248 12.373 50.1507 16.57C48.927 17.3101 47.7431 18.1138 46.6037 18.9779C43.0307 21.8258 36.584 26.4862 35.5742 35.6774C35.9736 27.7691 38.711 20.1572 43.4399 13.806C48.1688 7.45475 54.6763 2.64988 62.1381 0C68.8694 0.140598 75.456 1.98017 81.286 5.34782C87.116 8.71548 92.0004 13.502 95.4853 19.2627L95.8477 19.8582L96.3397 20.7125Z" fill="url(#paint9_linear_3155_69223)"/>
<path id="Vector_11" d="M21.4893 44.0149C21.4893 43.8337 21.4893 43.6265 21.4893 43.4453C21.5 43.635 21.5 43.8252 21.4893 44.0149Z" fill="url(#paint10_linear_3155_69223)"/>
<path id="Vector_12" d="M62.2931 0C54.778 2.60392 48.2098 7.38898 43.4275 13.7439C38.6451 20.0989 35.8658 27.7352 35.4444 35.6774C35.4444 36.3764 35.4444 37.1014 35.4444 37.8004C35.4473 39.5318 35.5598 41.2613 35.781 42.9785C35.781 42.9785 35.781 43.1339 35.781 43.2116C35.781 43.2892 35.781 43.3669 35.781 43.4446C35.7927 44.3947 35.6099 45.3372 35.2437 46.214C34.8776 47.0909 34.3359 47.8835 33.652 48.5432C32.9681 49.2029 32.1564 49.7156 31.2669 50.0499C30.3774 50.3841 29.4289 50.5328 28.4798 50.4868C26.731 50.4289 25.0617 49.7427 23.7778 48.5539C22.4939 47.3651 21.6814 45.7533 21.4894 44.0142C21.5022 43.8072 21.5022 43.5997 21.4894 43.3928C21.4894 42.3054 21.4894 41.1921 21.4894 40.0529C21.4665 29.5881 25.5481 19.5317 32.8577 12.0429C40.1673 4.55422 50.122 0.230417 60.5843 0H62.2931Z" fill="url(#paint11_linear_3155_69223)"/>
<path id="Vector_13" d="M20.7125 20.7129C15.3173 27.0213 12.0197 34.8527 11.2774 43.1203C10.5351 51.3879 12.3849 59.6815 16.57 66.8501C17.3062 68.1179 18.1099 69.3451 18.9779 70.5266C21.8258 74.0995 26.4862 80.5463 35.6774 81.556C27.7475 81.1426 20.1201 78.3785 13.7666 73.6156C7.41296 68.8527 2.62068 62.3066 0 54.8109C0.149247 48.0885 1.99291 41.5124 5.36015 35.6922C8.7274 29.8719 13.5093 24.9957 19.2627 21.5155L19.8582 21.153L20.7125 20.7129Z" fill="url(#paint12_linear_3155_69223)"/>
<path id="Vector_14" d="M0 54.707C2.60392 62.2221 7.38898 68.7903 13.7439 73.5726C20.0989 78.355 27.7352 81.1343 35.6774 81.5557C36.3764 81.5557 37.1014 81.5557 37.8004 81.5557C39.5313 81.5632 41.2609 81.4595 42.9785 81.245H43.4705C44.4179 81.2199 45.3605 81.3884 46.2405 81.7403C47.1205 82.0922 47.9195 82.62 48.5885 83.2913C49.2574 83.9627 49.7823 84.7636 50.131 85.6449C50.4797 86.5262 50.6448 87.4694 50.6163 88.4167C50.5794 90.2037 49.886 91.9146 48.6683 93.223C47.4506 94.5314 45.7939 95.3458 44.0142 95.5107H43.3928C42.3054 95.5107 41.1662 95.6402 40.0529 95.6402C29.5662 95.6624 19.4907 91.563 11.9984 84.2257C4.50603 76.8883 0.196942 66.9007 0 56.4158V55.7168C0 55.3802 0 55.0436 0 54.707Z" fill="url(#paint13_linear_3155_69223)"/>
<path id="Vector_15" d="M20.7125 20.7129C15.3173 27.0213 12.0197 34.8527 11.2774 43.1203C10.5351 51.3879 12.3849 59.6815 16.57 66.8501C17.3062 68.1179 18.1099 69.3451 18.9779 70.5266C21.8258 74.0995 26.4862 80.5463 35.6774 81.556C27.7475 81.1426 20.1201 78.3785 13.7666 73.6156C7.41296 68.8527 2.62068 62.3066 0 54.8109C0.149247 48.0885 1.99291 41.5124 5.36015 35.6922C8.7274 29.8719 13.5093 24.9957 19.2627 21.5155L19.8582 21.153L20.7125 20.7129Z" fill="url(#paint14_linear_3155_69223)"/>
<path id="Vector_16" d="M0 54.707C2.60392 62.2221 7.38898 68.7903 13.7439 73.5726C20.0989 78.355 27.7352 81.1343 35.6774 81.5557C36.3764 81.5557 37.1014 81.5557 37.8004 81.5557C39.5313 81.5632 41.2609 81.4595 42.9785 81.245H43.4705C44.4179 81.2199 45.3605 81.3884 46.2405 81.7403C47.1205 82.0922 47.9195 82.62 48.5885 83.2913C49.2574 83.9627 49.7823 84.7636 50.131 85.6449C50.4797 86.5262 50.6448 87.4694 50.6163 88.4167C50.5794 90.2037 49.886 91.9146 48.6683 93.223C47.4506 94.5314 45.7939 95.3458 44.0142 95.5107H43.3928C42.3054 95.5107 41.1662 95.6402 40.0529 95.6402C29.5662 95.6624 19.4907 91.563 11.9984 84.2257C4.50603 76.8883 0.196942 66.9007 0 56.4158V55.7168C0 55.3802 0 55.0436 0 54.707Z" fill="url(#paint15_linear_3155_69223)"/>
<path id="Vector_17" d="M20.7125 20.7129C15.3173 27.0213 12.0197 34.8527 11.2774 43.1203C10.5351 51.3879 12.3849 59.6815 16.57 66.8501C17.3062 68.1179 18.1099 69.3451 18.9779 70.5266C21.8258 74.0995 26.4862 80.5463 35.6774 81.556C27.7475 81.1426 20.1201 78.3785 13.7666 73.6156C7.41296 68.8527 2.62068 62.3066 0 54.8109C0.149247 48.0885 1.99291 41.5124 5.36015 35.6922C8.7274 29.8719 13.5093 24.9957 19.2627 21.5155L19.8582 21.153L20.7125 20.7129Z" fill="url(#paint16_linear_3155_69223)"/>
<path id="Vector_18" d="M0 54.707C2.60392 62.2221 7.38898 68.7903 13.7439 73.5726C20.0989 78.355 27.7352 81.1343 35.6774 81.5557C36.3764 81.5557 37.1014 81.5557 37.8004 81.5557C39.5313 81.5632 41.2609 81.4595 42.9785 81.245H43.4705C44.4179 81.2199 45.3605 81.3884 46.2405 81.7403C47.1205 82.0922 47.9195 82.62 48.5885 83.2913C49.2574 83.9627 49.7823 84.7636 50.131 85.6449C50.4797 86.5262 50.6448 87.4694 50.6163 88.4167C50.5794 90.2037 49.886 91.9146 48.6683 93.223C47.4506 94.5314 45.7939 95.3458 44.0142 95.5107H43.3928C42.3054 95.5107 41.1662 95.6402 40.0529 95.6402C29.5662 95.6624 19.4907 91.563 11.9984 84.2257C4.50603 76.8883 0.196942 66.9007 0 56.4158V55.7168C0 55.3802 0 55.0436 0 54.707Z" fill="url(#paint17_linear_3155_69223)"/>
<path id="Vector_19" d="M20.7129 96.2612C27.0229 101.672 34.8626 104.981 43.1411 105.728C51.4196 106.475 59.7251 104.623 66.9019 100.43C68.1697 99.6935 69.3969 98.8897 70.5784 98.0218C74.1513 95.1738 80.598 90.5135 81.6078 81.3223C81.1804 89.2492 78.404 96.8698 73.6321 103.214C68.8601 109.558 62.3084 114.339 54.8109 116.948C48.0933 116.804 41.5206 114.968 35.7007 111.61C29.8809 108.252 25.002 103.481 21.5155 97.737L21.153 97.1415L20.7129 96.2612Z" fill="url(#paint18_linear_3155_69223)"/>
<path id="Vector_20" d="M95.5105 73.0645C95.5105 73.2457 95.5105 73.4528 95.5105 73.6341C95.4997 73.4443 95.4997 73.2542 95.5105 73.0645Z" fill="url(#paint19_linear_3155_69223)"/>
<path id="Vector_21" d="M54.707 116.974C62.2181 114.372 68.7836 109.591 73.5656 103.241C78.3476 96.8908 81.1293 89.2601 81.5557 81.3224C81.5557 80.6234 81.5557 79.8985 81.5557 79.1994C81.5613 77.4685 81.4575 75.739 81.245 74.0213C81.245 74.0213 81.245 73.8659 81.245 73.7882V73.5552C81.2199 72.6078 81.3884 71.6652 81.7403 70.7852C82.0922 69.9051 82.62 69.1062 83.2913 68.4372C83.9627 67.7683 84.7636 67.2434 85.6449 66.8947C86.5262 66.546 87.4694 66.3809 88.4167 66.4094C90.1956 66.4449 91.8998 67.1311 93.207 68.3381C94.5142 69.5451 95.3338 71.1893 95.5107 72.9597C95.4979 73.1667 95.4979 73.3742 95.5107 73.5811C95.5107 74.6685 95.6402 75.7818 95.6402 76.921C95.6625 87.4102 91.564 97.4885 84.2273 104.985C76.8907 112.481 66.903 116.796 56.4158 117H54.707V116.974Z" fill="url(#paint20_linear_3155_69223)"/>
<path id="Vector_22" d="M20.7129 96.2612C27.0229 101.672 34.8626 104.981 43.1411 105.728C51.4196 106.475 59.7251 104.623 66.9019 100.43C68.1697 99.6935 69.3969 98.8897 70.5784 98.0218C74.1513 95.1738 80.598 90.5135 81.6078 81.3223C81.1804 89.2492 78.404 96.8698 73.6321 103.214C68.8601 109.558 62.3084 114.339 54.8109 116.948C48.0933 116.804 41.5206 114.968 35.7007 111.61C29.8809 108.252 25.002 103.481 21.5155 97.737L21.153 97.1415L20.7129 96.2612Z" fill="url(#paint21_linear_3155_69223)"/>
<path id="Vector_23" d="M95.5105 73.0645C95.5105 73.2457 95.5105 73.4528 95.5105 73.6341C95.4997 73.4443 95.4997 73.2542 95.5105 73.0645Z" fill="url(#paint22_linear_3155_69223)"/>
<path id="Vector_24" d="M54.707 116.974C62.2181 114.372 68.7836 109.591 73.5656 103.241C78.3476 96.8908 81.1293 89.2601 81.5557 81.3224C81.5557 80.6234 81.5557 79.8985 81.5557 79.1994C81.5613 77.4685 81.4575 75.739 81.245 74.0213C81.245 74.0213 81.245 73.8659 81.245 73.7882V73.5552C81.2199 72.6078 81.3884 71.6652 81.7403 70.7852C82.0922 69.9051 82.62 69.1062 83.2913 68.4372C83.9627 67.7683 84.7636 67.2434 85.6449 66.8947C86.5262 66.546 87.4694 66.3809 88.4167 66.4094C90.1956 66.4449 91.8998 67.1311 93.207 68.3381C94.5142 69.5451 95.3338 71.1893 95.5107 72.9597C95.4979 73.1667 95.4979 73.3742 95.5107 73.5811C95.5107 74.6685 95.6402 75.7818 95.6402 76.921C95.6625 87.4102 91.564 97.4885 84.2273 104.985C76.8907 112.481 66.903 116.796 56.4158 117H54.707V116.974Z" fill="url(#paint23_linear_3155_69223)"/>
<path id="Vector_25" d="M20.7129 96.2612C27.0229 101.672 34.8626 104.981 43.1411 105.728C51.4196 106.475 59.7251 104.623 66.9019 100.43C68.1697 99.6935 69.3969 98.8897 70.5784 98.0218C74.1513 95.1738 80.598 90.5135 81.6078 81.3223C81.1804 89.2492 78.404 96.8698 73.6321 103.214C68.8601 109.558 62.3084 114.339 54.8109 116.948C48.0933 116.804 41.5206 114.968 35.7007 111.61C29.8809 108.252 25.002 103.481 21.5155 97.737L21.153 97.1415L20.7129 96.2612Z" fill="url(#paint24_linear_3155_69223)"/>
<path id="Vector_26" d="M95.5105 73.0645C95.5105 73.2457 95.5105 73.4528 95.5105 73.6341C95.4997 73.4443 95.4997 73.2542 95.5105 73.0645Z" fill="url(#paint25_linear_3155_69223)"/>
<path id="Vector_27" d="M54.707 116.974C62.2181 114.372 68.7836 109.591 73.5656 103.241C78.3476 96.8908 81.1293 89.2601 81.5557 81.3224C81.5557 80.6234 81.5557 79.8985 81.5557 79.1994C81.5613 77.4685 81.4575 75.739 81.245 74.0213C81.245 74.0213 81.245 73.8659 81.245 73.7882V73.5552C81.2199 72.6078 81.3884 71.6652 81.7403 70.7852C82.0922 69.9051 82.62 69.1062 83.2913 68.4372C83.9627 67.7683 84.7636 67.2434 85.6449 66.8947C86.5262 66.546 87.4694 66.3809 88.4167 66.4094C90.1956 66.4449 91.8998 67.1311 93.207 68.3381C94.5142 69.5451 95.3338 71.1893 95.5107 72.9597C95.4979 73.1667 95.4979 73.3742 95.5107 73.5811C95.5107 74.6685 95.6402 75.7818 95.6402 76.921C95.6625 87.4102 91.564 97.4885 84.2273 104.985C76.8907 112.481 66.903 116.796 56.4158 117H54.707V116.974Z" fill="url(#paint26_linear_3155_69223)"/>
<path id="Vector_28" d="M96.2617 96.3397C101.672 90.0296 104.981 82.1899 105.729 73.9114C106.476 65.6329 104.624 57.3274 100.43 50.1507C99.6901 48.927 98.8863 47.7431 98.0222 46.6037C95.1743 43.0307 90.5139 36.584 81.3228 35.5742C89.222 35.9836 96.8226 38.7256 103.164 43.4538C109.505 48.182 114.302 54.6841 116.948 62.1381C116.805 68.8556 114.969 75.4284 111.611 81.2483C108.253 87.0681 103.481 91.947 97.7374 95.4335L97.142 95.796L96.2617 96.3397Z" fill="url(#paint27_linear_3155_69223)"/>
<path id="Vector_29" d="M116.974 62.294C114.372 54.7828 109.59 48.2174 103.241 43.4354C96.8906 38.6533 89.26 35.8717 81.3223 35.4453C80.6232 35.4453 79.8983 35.4453 79.1993 35.4453C77.4684 35.4397 75.7389 35.5435 74.0211 35.756H73.5551C72.6072 35.7675 71.667 35.5854 70.792 35.2209C69.9169 34.8563 69.1255 34.317 68.4663 33.6358C67.807 32.9547 67.2937 32.1462 66.9578 31.2598C66.6219 30.3734 66.4705 29.4277 66.5128 28.4807C66.5731 26.7199 67.2703 25.0408 68.475 23.7552C69.6797 22.4696 71.31 21.6648 73.0632 21.4902H73.6845C74.7719 21.4902 75.8852 21.4902 77.0244 21.4902C87.4738 21.4943 97.5067 25.5871 104.977 32.8932C112.448 40.1992 116.763 50.1385 117 60.5852V61.2842C117 61.6208 117 61.9574 116.974 62.294Z" fill="url(#paint28_linear_3155_69223)"/>
<path id="Vector_30" d="M96.2617 96.3397C101.672 90.0296 104.981 82.1899 105.729 73.9114C106.476 65.6329 104.624 57.3274 100.43 50.1507C99.6901 48.927 98.8863 47.7431 98.0222 46.6037C95.1743 43.0307 90.5139 36.584 81.3228 35.5742C89.222 35.9836 96.8226 38.7256 103.164 43.4538C109.505 48.182 114.302 54.6841 116.948 62.1381C116.805 68.8556 114.969 75.4284 111.611 81.2483C108.253 87.0681 103.481 91.947 97.7374 95.4335L97.142 95.796L96.2617 96.3397Z" fill="url(#paint29_linear_3155_69223)"/>
<path id="Vector_31" d="M116.974 62.294C114.372 54.7828 109.59 48.2174 103.241 43.4354C96.8906 38.6533 89.26 35.8717 81.3223 35.4453C80.6232 35.4453 79.8983 35.4453 79.1993 35.4453C77.4684 35.4397 75.7389 35.5435 74.0211 35.756H73.5551C72.6072 35.7675 71.667 35.5854 70.792 35.2209C69.9169 34.8563 69.1255 34.317 68.4663 33.6358C67.807 32.9547 67.2937 32.1462 66.9578 31.2598C66.6219 30.3734 66.4705 29.4277 66.5128 28.4807C66.5731 26.7199 67.2703 25.0408 68.475 23.7552C69.6797 22.4696 71.31 21.6648 73.0632 21.4902H73.6845C74.7719 21.4902 75.8852 21.4902 77.0244 21.4902C87.4738 21.4943 97.5067 25.5871 104.977 32.8932C112.448 40.1992 116.763 50.1385 117 60.5852V61.2842C117 61.6208 117 61.9574 116.974 62.294Z" fill="url(#paint30_linear_3155_69223)"/>
<path id="Vector_32" d="M96.2617 96.3397C101.672 90.0296 104.981 82.1899 105.729 73.9114C106.476 65.6329 104.624 57.3274 100.43 50.1507C99.6901 48.927 98.8863 47.7431 98.0222 46.6037C95.1743 43.0307 90.5139 36.584 81.3228 35.5742C89.222 35.9836 96.8226 38.7256 103.164 43.4538C109.505 48.182 114.302 54.6841 116.948 62.1381C116.805 68.8556 114.969 75.4284 111.611 81.2483C108.253 87.0681 103.481 91.947 97.7374 95.4335L97.142 95.796L96.2617 96.3397Z" fill="url(#paint31_linear_3155_69223)"/>
<path id="Vector_33" d="M116.974 62.294C114.372 54.7828 109.59 48.2174 103.241 43.4354C96.8906 38.6533 89.26 35.8717 81.3223 35.4453C80.6232 35.4453 79.8983 35.4453 79.1993 35.4453C77.4684 35.4397 75.7389 35.5435 74.0211 35.756H73.5551C72.6072 35.7675 71.667 35.5854 70.792 35.2209C69.9169 34.8563 69.1255 34.317 68.4663 33.6358C67.807 32.9547 67.2937 32.1462 66.9578 31.2598C66.6219 30.3734 66.4705 29.4277 66.5128 28.4807C66.5731 26.7199 67.2703 25.0408 68.475 23.7552C69.6797 22.4696 71.31 21.6648 73.0632 21.4902H73.6845C74.7719 21.4902 75.8852 21.4902 77.0244 21.4902C87.4738 21.4943 97.5067 25.5871 104.977 32.8932C112.448 40.1992 116.763 50.1385 117 60.5852V61.2842C117 61.6208 117 61.9574 116.974 62.294Z" fill="url(#paint32_linear_3155_69223)"/>
</g>
</g>
</g>
<defs>
<linearGradient id="paint0_linear_3155_69223" x1="39.043" y1="62.0342" x2="66.7201" y2="62.0342" gradientUnits="userSpaceOnUse">
<stop stop-color="#FFD600"/>
<stop offset="1" stop-color="#776400"/>
</linearGradient>
<linearGradient id="paint1_linear_3155_69223" x1="39.0429" y1="53.0495" x2="72.7267" y2="53.0495" gradientUnits="userSpaceOnUse">
<stop stop-color="#FFD600"/>
<stop offset="1" stop-color="#AF9300"/>
</linearGradient>
<linearGradient id="paint2_linear_3155_69223" x1="45.0762" y1="59.0315" x2="78.7341" y2="59.0315" gradientUnits="userSpaceOnUse">
<stop stop-color="#FFD600"/>
<stop offset="1" stop-color="#BA9C00"/>
</linearGradient>
<linearGradient id="paint3_linear_3155_69223" x1="35.4448" y1="17.8646" x2="96.3397" y2="17.8646" gradientUnits="userSpaceOnUse">
<stop stop-color="#231F20"/>
<stop offset="1" stop-color="white"/>
</linearGradient>
<linearGradient id="paint4_linear_3155_69223" x1="17.8646" y1="50.0474" x2="54.3444" y2="-14.6015" gradientUnits="userSpaceOnUse">
<stop stop-color="#231F20"/>
<stop offset="1" stop-color="white"/>
</linearGradient>
<linearGradient id="paint5_linear_3155_69223" x1="20.8939" y1="51.7555" x2="57.3997" y2="-12.8936" gradientUnits="userSpaceOnUse">
<stop stop-color="#231F20"/>
<stop offset="1" stop-color="white"/>
</linearGradient>
<linearGradient id="paint6_linear_3155_69223" x1="35.4448" y1="17.8646" x2="96.3397" y2="17.8646" gradientUnits="userSpaceOnUse">
<stop stop-color="#231F20"/>
<stop offset="1" stop-color="white"/>
</linearGradient>
<linearGradient id="paint7_linear_3155_69223" x1="17.8646" y1="50.0474" x2="54.3444" y2="-14.6015" gradientUnits="userSpaceOnUse">
<stop stop-color="#231F20"/>
<stop offset="1" stop-color="white"/>
</linearGradient>
<linearGradient id="paint8_linear_3155_69223" x1="20.8939" y1="51.7555" x2="57.3997" y2="-12.8936" gradientUnits="userSpaceOnUse">
<stop stop-color="#231F20"/>
<stop offset="1" stop-color="white"/>
</linearGradient>
<linearGradient id="paint9_linear_3155_69223" x1="35.4448" y1="17.8646" x2="96.3397" y2="17.8646" gradientUnits="userSpaceOnUse">
<stop stop-color="#CFAE02"/>
<stop offset="1" stop-color="#FFD600"/>
</linearGradient>
<linearGradient id="paint10_linear_3155_69223" x1="17.8646" y1="50.0474" x2="54.3444" y2="-14.6015" gradientUnits="userSpaceOnUse">
<stop stop-color="#231F20"/>
<stop offset="1" stop-color="white"/>
</linearGradient>
<linearGradient id="paint11_linear_3155_69223" x1="20.8939" y1="51.7555" x2="57.3997" y2="-12.8936" gradientUnits="userSpaceOnUse">
<stop stop-color="#CFAE02"/>
<stop offset="1" stop-color="#FFD600"/>
</linearGradient>
<linearGradient id="paint12_linear_3155_69223" x1="17.8646" y1="81.556" x2="17.8646" y2="20.6611" gradientUnits="userSpaceOnUse">
<stop stop-color="#231F20"/>
<stop offset="1" stop-color="white"/>
</linearGradient>
<linearGradient id="paint13_linear_3155_69223" x1="51.7555" y1="96.1062" x2="-12.9194" y2="59.6004" gradientUnits="userSpaceOnUse">
<stop stop-color="#231F20"/>
<stop offset="1" stop-color="white"/>
</linearGradient>
<linearGradient id="paint14_linear_3155_69223" x1="17.8646" y1="81.556" x2="17.8646" y2="20.6611" gradientUnits="userSpaceOnUse">
<stop stop-color="#231F20"/>
<stop offset="1" stop-color="white"/>
</linearGradient>
<linearGradient id="paint15_linear_3155_69223" x1="51.7555" y1="96.1062" x2="-12.9194" y2="59.6004" gradientUnits="userSpaceOnUse">
<stop stop-color="#231F20"/>
<stop offset="1" stop-color="white"/>
</linearGradient>
<linearGradient id="paint16_linear_3155_69223" x1="17.8646" y1="81.556" x2="17.8646" y2="20.6611" gradientUnits="userSpaceOnUse">
<stop stop-color="#CFAE02"/>
<stop offset="0.854167" stop-color="#FFD600"/>
</linearGradient>
<linearGradient id="paint17_linear_3155_69223" x1="51.7555" y1="96.1062" x2="-12.9194" y2="59.6004" gradientUnits="userSpaceOnUse">
<stop stop-color="#CFAE02"/>
<stop offset="0.833333" stop-color="#FFD600"/>
</linearGradient>
<linearGradient id="paint18_linear_3155_69223" x1="81.556" y1="99.1351" x2="20.6352" y2="99.1351" gradientUnits="userSpaceOnUse">
<stop stop-color="#231F20"/>
<stop offset="1" stop-color="white"/>
</linearGradient>
<linearGradient id="paint19_linear_3155_69223" x1="99.1352" y1="66.9801" x2="62.6549" y2="131.578" gradientUnits="userSpaceOnUse">
<stop stop-color="#231F20"/>
<stop offset="1" stop-color="white"/>
</linearGradient>
<linearGradient id="paint20_linear_3155_69223" x1="96.0803" y1="65.2443" x2="59.6004" y2="129.893" gradientUnits="userSpaceOnUse">
<stop stop-color="#231F20"/>
<stop offset="1" stop-color="white"/>
</linearGradient>
<linearGradient id="paint21_linear_3155_69223" x1="81.556" y1="99.1351" x2="20.6352" y2="99.1351" gradientUnits="userSpaceOnUse">
<stop stop-color="#231F20"/>
<stop offset="1" stop-color="white"/>
</linearGradient>
<linearGradient id="paint22_linear_3155_69223" x1="99.1352" y1="66.9801" x2="62.6549" y2="131.578" gradientUnits="userSpaceOnUse">
<stop stop-color="#231F20"/>
<stop offset="1" stop-color="white"/>
</linearGradient>
<linearGradient id="paint23_linear_3155_69223" x1="96.0803" y1="65.2443" x2="59.6004" y2="129.893" gradientUnits="userSpaceOnUse">
<stop stop-color="#231F20"/>
<stop offset="1" stop-color="white"/>
</linearGradient>
<linearGradient id="paint24_linear_3155_69223" x1="81.556" y1="99.1351" x2="20.6352" y2="99.1351" gradientUnits="userSpaceOnUse">
<stop stop-color="#CFAE02"/>
<stop offset="0.755208" stop-color="#FFD600"/>
</linearGradient>
<linearGradient id="paint25_linear_3155_69223" x1="99.1352" y1="66.9801" x2="62.6549" y2="131.578" gradientUnits="userSpaceOnUse">
<stop stop-color="#231F20"/>
<stop offset="1" stop-color="white"/>
</linearGradient>
<linearGradient id="paint26_linear_3155_69223" x1="96.0803" y1="65.2443" x2="59.6004" y2="129.893" gradientUnits="userSpaceOnUse">
<stop stop-color="#CFAE02"/>
<stop offset="1" stop-color="#FFD600"/>
</linearGradient>
<linearGradient id="paint27_linear_3155_69223" x1="99.1355" y1="35.4448" x2="99.1355" y2="96.3397" gradientUnits="userSpaceOnUse">
<stop stop-color="#231F20"/>
<stop offset="1" stop-color="white"/>
</linearGradient>
<linearGradient id="paint28_linear_3155_69223" x1="65.2442" y1="20.9206" x2="129.893" y2="57.4006" gradientUnits="userSpaceOnUse">
<stop stop-color="#231F20"/>
<stop offset="1" stop-color="white"/>
</linearGradient>
<linearGradient id="paint29_linear_3155_69223" x1="99.1355" y1="35.4448" x2="99.1355" y2="96.3397" gradientUnits="userSpaceOnUse">
<stop stop-color="#231F20"/>
<stop offset="1" stop-color="white"/>
</linearGradient>
<linearGradient id="paint30_linear_3155_69223" x1="65.2442" y1="20.9206" x2="129.893" y2="57.4006" gradientUnits="userSpaceOnUse">
<stop stop-color="#231F20"/>
<stop offset="1" stop-color="white"/>
</linearGradient>
<linearGradient id="paint31_linear_3155_69223" x1="99.1355" y1="35.4448" x2="99.1355" y2="96.3397" gradientUnits="userSpaceOnUse">
<stop stop-color="#CFAE02"/>
<stop offset="1" stop-color="#FFD600"/>
</linearGradient>
<linearGradient id="paint32_linear_3155_69223" x1="65.2442" y1="20.9206" x2="129.893" y2="57.4006" gradientUnits="userSpaceOnUse">
<stop stop-color="#CFAE02"/>
<stop offset="1" stop-color="#FFD600"/>
</linearGradient>
<clipPath id="clip0_3155_69223">
<rect width="117" height="117" fill="white"/>
</clipPath>
</defs>
</svg>
