<svg width="25" height="25" viewBox="0 0 25 25" fill="none" xmlns="http://www.w3.org/2000/svg">
<g clip-path="url(#clip0_135_3009)">
<path d="M15.5694 11.9545L6.08105 10.3181V22.4092C6.08105 22.9614 6.5391 23.409 7.10412 23.409H23.4766C24.0416 23.409 24.4996 22.9614 24.4996 22.4092V17.9545L15.5694 11.9545Z" fill="#185C37"/>
<path d="M15.5694 1.59082H7.10412C6.5391 1.59082 6.08105 2.03845 6.08105 2.59064V7.04536L15.5694 12.4999L20.5927 14.1363L24.4996 12.4999V7.04536L15.5694 1.59082Z" fill="#21A366"/>
<path d="M6.08105 7.04541H15.5694V12.5H6.08105V7.04541Z" fill="#107C41"/>
<path opacity="0.1" d="M12.8718 5.95459H6.08105V19.5909H12.8718C13.4361 19.5892 13.893 19.1426 13.8949 18.5911V6.9544C13.893 6.40297 13.4361 5.95638 12.8718 5.95459Z" fill="black"/>
<path opacity="0.2" d="M12.3138 6.5H6.08105V20.1364H12.3138C12.8781 20.1346 13.335 19.688 13.3369 19.1365V7.49982C13.335 6.94838 12.8781 6.50179 12.3138 6.5Z" fill="black"/>
<path opacity="0.2" d="M12.3138 6.5H6.08105V19.0454H12.3138C12.8781 19.0437 13.335 18.5971 13.3369 18.0456V7.49982C13.335 6.94838 12.8781 6.50179 12.3138 6.5Z" fill="black"/>
<path opacity="0.2" d="M11.7557 6.5H6.08105V19.0454H11.7557C12.3199 19.0437 12.7769 18.5971 12.7787 18.0456V7.49982C12.7769 6.94838 12.3199 6.50179 11.7557 6.5Z" fill="black"/>
<path d="M1.52307 6.5H11.756C12.321 6.5 12.7791 6.94763 12.7791 7.49982V17.5002C12.7791 18.0524 12.321 18.5 11.756 18.5H1.52307C0.958041 18.5 0.5 18.0524 0.5 17.5002V7.49982C0.5 6.94763 0.958041 6.5 1.52307 6.5Z" fill="url(#paint0_linear_135_3009)"/>
<path d="M3.66797 15.7497L5.82015 12.4906L3.84825 9.24951H5.43448L6.51057 11.3222C6.60992 11.5191 6.67801 11.6653 6.71485 11.7619H6.7288C6.7995 11.6048 6.87392 11.4522 6.95206 11.3042L8.10238 9.25061H9.55857L7.53642 12.4726L9.60992 15.7497H8.06053L6.81755 13.4746C6.759 13.3778 6.70932 13.2761 6.66909 13.1708H6.65068C6.61426 13.274 6.56595 13.3728 6.50667 13.4653L5.22686 15.7497H3.66797Z" fill="white"/>
<path d="M23.4765 1.59082H15.5693V7.04536H24.4996V2.59064C24.4996 2.03845 24.0415 1.59082 23.4765 1.59082Z" fill="#33C481"/>
<path d="M15.5693 12.5H24.4996V17.9545H15.5693V12.5Z" fill="#107C41"/>
</g>
<defs>
<linearGradient id="paint0_linear_135_3009" x1="2.63312" y1="5.71876" x2="10.3728" y2="19.4353" gradientUnits="userSpaceOnUse">
<stop stop-color="#18884F"/>
<stop offset="0.5" stop-color="#117E43"/>
<stop offset="1" stop-color="#0B6631"/>
</linearGradient>
<clipPath id="clip0_135_3009">
<rect width="24" height="24" fill="white" transform="translate(0.5 0.5)"/>
</clipPath>
</defs>
</svg>
