<svg xmlns="http://www.w3.org/2000/svg" width="36" height="36" fill="none"><g clip-path="url(#a)"><path fill="#0B69C7" d="M18 36c9.941 0 18-8.059 18-18S27.941 0 18 0 0 8.059 0 18s8.059 18 18 18Z"/><g fill="#fff"><path d="M13.973 11.456a2.459 2.459 0 1 1-4.917.005 2.459 2.459 0 0 1 4.918-.005ZM12.81 14.938h-2.586a.609.609 0 0 0-.609.608v10.845c0 .336.273.609.609.609h2.586a.609.609 0 0 0 .609-.609V15.546a.609.609 0 0 0-.609-.608ZM26.94 21.19v5.25a.56.56 0 0 1-.56.56h-2.775a.56.56 0 0 1-.559-.56v-5.087c0-.76.22-3.315-1.985-3.315-1.71 0-2.058 1.757-2.131 2.546v5.869a.56.56 0 0 1-.554.547H15.69a.559.559 0 0 1-.56-.56V15.5a.56.56 0 0 1 .56-.562h2.686a.56.56 0 0 1 .57.562v.947c.635-.947 1.578-1.686 3.584-1.686 4.436-.003 4.41 4.15 4.41 6.43Z"/></g></g><defs><clipPath id="a"><path fill="#fff" d="M0 0h36v36H0z"/></clipPath></defs></svg>