<svg xmlns="http://www.w3.org/2000/svg" width="36" height="36" fill="none"><g clip-path="url(#a)"><path fill="url(#b)" d="M18 36c9.941 0 18-8.059 18-18S27.941 0 18 0 0 8.059 0 18s8.059 18 18 18Z"/><g fill="#fff"><path d="M21.638 9h-7.276A5.37 5.37 0 0 0 9 14.362v7.276A5.37 5.37 0 0 0 14.362 27h7.276A5.367 5.367 0 0 0 27 21.638v-7.276A5.37 5.37 0 0 0 21.638 9Zm3.552 12.638a3.553 3.553 0 0 1-3.552 3.552h-7.276a3.553 3.553 0 0 1-3.553-3.552v-7.276a3.553 3.553 0 0 1 3.553-3.553h7.276a3.553 3.553 0 0 1 3.552 3.553v7.276Z"/><path d="M18 13.346a4.656 4.656 0 1 0-.004 9.312A4.656 4.656 0 0 0 18 13.346Zm0 7.496a2.842 2.842 0 1 1 0-5.685 2.842 2.842 0 0 1 0 5.685ZM22.682 14.497a1.151 1.151 0 1 0 0-2.302 1.151 1.151 0 0 0 0 2.302Z"/></g></g><defs><linearGradient id="b" x1="18" x2="18" y1="35.834" y2="2.439" gradientUnits="userSpaceOnUse"><stop stop-color="#E09B3D"/><stop offset=".24" stop-color="#C74C4D"/><stop offset=".65" stop-color="#C21975"/><stop offset="1" stop-color="#7024C4"/></linearGradient><clipPath id="a"><path fill="#fff" d="M0 0h36v36H0z"/></clipPath></defs></svg>