<svg width="224" height="57" viewBox="0 0 224 57" fill="none" xmlns="http://www.w3.org/2000/svg">
<path d="M6.1353 41.9611C5.63374 41.0611 5.13217 40.1611 4.56596 39.1073C4.27502 38.5728 4.04872 38.192 3.82243 37.8113C3.3072 36.5624 2.80979 35.3057 2.26574 34.0696C2.10589 33.7064 1.81384 33.4017 1.5312 32.9938C1.21135 30.8947 0.942681 28.8719 0.625163 26.759C0.452978 25.1321 0.329642 23.5953 0.187014 21.9427C0.171589 21.5517 0.175457 21.2765 0.178013 20.8172C0.13087 20.4192 0.0850396 20.2052 0.0392097 19.9912C0.0392097 19.9912 0.0489261 19.874 0.0381305 19.7206C0.0182233 19.3723 0.00911227 19.1775 0 18.9826C0.0485704 17.6857 0.0971404 16.3888 0.118502 14.9779C0.106249 14.6699 0.121203 14.4757 0.140395 14.1033C0.128883 13.8085 0.113133 13.6919 0.0973827 13.5753C0.0950233 13.2854 0.0926645 12.9955 0.103887 12.5466C0.130185 12.1809 0.142902 11.9743 0.155618 11.7676C0.171104 11.2412 0.186589 10.7149 0.204453 9.96324C0.21797 9.12885 0.229111 8.51969 0.358423 7.90619C1.84758 7.80887 3.21857 7.71589 4.70252 7.63621C8.61668 7.38807 12.2878 6.55637 15.7315 4.91249C17.1404 4.23999 18.4288 3.31378 19.8535 2.49799C20.9182 1.90619 22.0372 1.46378 22.8492 0.695137C23.8121 -0.216431 24.528 -0.270342 25.4197 0.765282C25.8838 1.11941 26.3004 1.40257 26.7663 1.75246C27.2047 2.08046 27.5937 2.34172 28.0637 2.65603C28.8574 3.08084 29.5702 3.45259 30.3368 3.89882C31.6499 4.50392 32.909 5.03454 34.246 5.62054C35.8837 6.12481 37.4436 6.57371 39.0036 7.0226C40.4888 7.23694 41.9739 7.45129 43.5715 7.64772C45.0736 7.76575 46.4634 7.90168 48.0797 8.05977C48.0797 9.94425 48.0797 11.9002 48.1038 13.9751C48.1215 14.5357 48.1151 14.9774 48.1067 15.6293C48.1185 16.1179 48.1324 16.3964 48.1463 16.6748C48.1316 16.9491 48.1169 17.2235 48.1013 17.7079C48.1143 18.3632 48.1282 18.8084 48.142 19.2537C47.6833 23.2413 47.3148 27.2425 46.7228 31.2101C46.4757 32.8665 45.7532 34.4516 45.2243 36.1411C44.0537 35.0171 43.017 34.0216 41.8667 32.8957C41.6393 32.4249 41.3516 32.0302 41.4379 31.7523C42.5556 28.153 42.9283 24.4451 43.0377 20.7091C43.1188 17.9409 43.0537 15.1684 43.0537 12.4477C40.9599 12.1203 39.1073 11.8307 37.1631 11.5016C35.1115 10.8593 33.1516 10.2564 31.1275 9.58405C29.539 8.77045 28.0147 8.02624 26.4443 7.22312C26.177 7.05568 25.9558 6.94714 25.6838 6.76397C23.9846 5.61921 23.9846 5.61921 22.9827 6.83437C21.067 7.77855 19.2516 8.72367 17.3344 9.67962C17.0241 9.72337 16.8033 9.72278 16.6088 9.79413C13.1733 11.0539 9.66882 12.0004 6.00723 12.3331C5.6952 12.3614 5.22447 12.9659 5.19273 13.3344C5.09027 14.5239 5.15852 15.7282 5.14414 17.0129C5.13748 17.215 5.14766 17.3311 5.14335 17.5537C5.14323 18.0174 5.15761 18.3746 5.15538 18.818C5.14935 19.0205 5.15993 19.1367 5.15319 19.3425C5.1912 19.9863 5.24653 20.5405 5.30426 21.2112C5.41629 22.7868 5.52592 24.2459 5.62032 25.7677C5.61207 25.8729 5.61904 25.9154 5.61924 26.0655C6.20873 28.5086 6.80499 30.844 7.41147 33.2746C7.81918 34.1743 8.21668 34.9788 8.65466 35.8698C9.20936 36.8366 9.72358 37.7169 10.2557 38.6779C10.5081 39.0537 10.7426 39.349 11.0123 39.7271C11.4803 40.2342 11.679 40.6043 11.1583 41.1819C10.3653 42.0617 9.68384 43.0427 8.85753 44.0028C8.32086 43.7948 7.8817 43.5647 7.4351 43.2522C6.99688 42.7669 6.56609 42.364 6.1353 41.9611Z" fill="white"/>
<path d="M125.558 25.052C129.118 26.9342 130.694 30.738 129.633 34.7281C128.68 38.3163 125.808 40.5706 122.211 40.3576C120.976 40.2845 119.766 39.7892 118.451 39.4636C118.451 41.7095 118.451 44.0479 118.451 46.4779C116.825 46.4779 115.314 46.4779 113.719 46.4779C113.719 39.2729 113.719 32.05 113.719 24.6721C115.384 24.9946 117.169 24.1149 118.927 25.4039C120.8 24.1998 123.092 24.0469 125.558 25.052ZM119.289 35.1311C120.533 36.1898 121.897 36.3235 123.316 35.5667C124.619 34.8716 125.21 33.4286 124.97 31.7065C124.765 30.2396 123.917 29.3118 122.521 28.8998C121.13 28.4893 119.6 29.0545 118.803 30.2297C117.886 31.5819 118.03 33.5571 119.289 35.1311Z" fill="white"/>
<path d="M77.6215 18.2073C78.957 18.952 80.1959 19.6689 81.5882 20.4747C80.2486 21.6915 79.1461 22.6929 77.9634 23.7671C76.3481 22.2552 74.2 21.5518 71.8818 22.1354C70.5802 22.4631 69.1679 23.1228 68.2526 24.0683C65.8436 26.5566 65.9795 31.3313 68.2839 33.8886C70.6172 36.4781 74.4792 36.5208 78.2954 33.9941C79.3502 35.0535 80.4064 36.1143 81.539 37.2518C79.7625 38.9073 77.6854 39.8655 75.3159 40.2827C70.2863 41.1684 65.3535 38.9362 62.9353 34.6429C60.529 30.3706 61.0496 25.0146 64.2317 21.3053C67.2944 17.7352 72.5815 16.4921 77.6215 18.2073Z" fill="white"/>
<path d="M21.8148 48.6542C22.4429 49.2297 23.071 49.8052 23.7742 50.4495C26.2327 48.0597 28.6586 45.7045 31.0811 43.3459C33.4488 41.0407 35.809 38.7277 38.1848 36.431C38.4405 36.1838 38.7787 36.0224 39.1617 35.8535C40.2814 36.9989 41.3179 38.1119 42.2367 39.0986C40.4972 40.926 38.7668 42.7438 37.0027 44.6386C32.9717 48.5801 28.9795 52.4499 24.9676 56.299C24.6391 56.6142 24.1761 56.7883 23.6977 57.0004C20.7108 54.5363 17.8018 52.0998 14.8067 49.6488C13.7775 48.6543 12.8345 47.6743 11.8223 46.6224C12.8199 45.4493 13.8633 44.2225 14.9764 42.9137C15.6942 43.5258 16.3651 44.0978 17.1667 44.7703C18.8031 46.1319 20.3089 47.3931 21.8148 48.6542Z" fill="white"/>
<path d="M146.014 38.3735C143.332 35.6705 142.608 32.1005 144.057 28.9988C145.507 25.8932 148.817 24.1334 152.675 24.4163C155.99 24.6594 158.826 26.913 159.768 30.0529C160.743 33.3035 159.615 36.7743 156.933 38.7757C154.165 40.8408 149.879 40.9935 147.012 39.1222C146.69 38.912 146.392 38.6651 146.014 38.3735ZM153.247 35.7352C154.773 34.9444 155.256 33.6044 155.148 31.9936C155.054 30.5967 154.37 29.5693 153.056 29.0339C151.606 28.4431 149.951 28.8752 149.005 30.0549C148.115 31.1637 148.044 33.3075 148.855 34.5353C149.738 35.8709 151.156 36.295 153.247 35.7352Z" fill="white"/>
<path d="M95.8836 24.7614C97.209 24.7402 98.5363 24.755 99.8589 24.6837C100.584 24.6446 100.9 24.8892 101.116 25.6003C101.811 27.8939 102.594 30.1609 103.347 32.4365C103.474 32.8189 103.625 33.1932 103.889 33.9063C104.499 32.0904 104.992 30.6107 105.493 29.1334C105.987 27.6747 106.488 26.2184 106.992 24.7438C108.695 24.7438 110.349 24.7438 112.173 24.7438C111.45 26.4456 110.768 28.0478 110.089 29.6513C107.836 34.9725 105.573 40.2897 103.344 45.6211C103.062 46.2956 102.747 46.6431 101.95 46.5931C100.715 46.5156 99.4714 46.5727 97.9981 46.5727C98.7357 44.9417 99.2645 43.3456 100.129 41.9604C101.402 39.9211 101.268 38.0898 100.266 35.9697C98.7499 32.7624 97.5258 29.4164 96.1552 25.9544C95.9725 25.6683 95.8124 25.5571 95.6523 25.4459C95.6646 25.3259 95.6769 25.206 95.746 24.9819C95.8413 24.8471 95.8682 24.8082 95.8836 24.7614Z" fill="white"/>
<path d="M167.262 37.296C168.758 37.3148 170.174 37.4659 171.537 37.2623C172.731 37.084 173.615 36.2357 173.808 34.9384C174.012 33.5567 173.627 32.3411 172.381 31.6095C171.468 31.0734 170.464 30.6872 169.488 30.2661C168.586 29.8775 167.64 29.5865 166.76 29.1563C163.962 27.7881 162.925 25.8538 163.286 22.8079C163.561 20.4856 165.38 18.673 168.057 18.053C171.325 17.2963 174.698 18.3945 176.556 20.7766C175.929 21.4134 175.307 22.0458 174.605 22.7597C173.091 21.1297 171.159 20.2424 168.759 20.7723C167.504 21.0495 166.534 21.6384 166.264 23.0206C166.008 24.3349 166.435 25.3855 167.754 26.1427C168.71 26.6918 169.768 27.0623 170.785 27.5044C171.801 27.9466 172.862 28.305 173.834 28.83C176.226 30.1229 177.094 32.2809 176.845 34.8741C176.594 37.4905 175.082 39.1565 172.583 39.9366C168.427 41.2339 164.155 39.9428 161.9 36.6561C162.537 36.0609 163.182 35.4576 163.691 34.9819C164.851 35.7491 166.005 36.5116 167.262 37.296Z" fill="white"/>
<path d="M142.515 27.2384C142.515 27.7902 142.515 28.2162 142.515 28.7473C141.407 28.7473 140.355 28.7473 139.139 28.7473C139.139 32.5498 139.139 36.2531 139.139 40.0278C137.455 40.0278 135.935 40.0278 134.293 40.0278C134.293 36.3547 134.293 32.6826 134.293 28.8581C133.096 28.8581 132.013 28.8581 130.866 28.8581C130.866 27.4356 130.866 26.1646 130.866 24.7376C131.946 24.7376 133.029 24.7376 134.206 24.7376C134.206 22.5849 134.206 20.5836 134.206 18.4863C135.854 18.4863 137.404 18.4863 139.05 18.4863C139.05 20.513 139.05 22.5161 139.05 24.6739C140.221 24.6739 141.305 24.6739 142.515 24.6739C142.515 25.5895 142.515 26.351 142.515 27.2384Z" fill="white"/>
<path d="M190.452 26.0719C190.785 26.3375 191.046 26.537 191.402 26.809C191.462 26.1849 191.51 25.6885 191.564 25.1325C192.485 25.1325 193.363 25.1325 194.309 25.1325C194.309 30.1023 194.309 35.0189 194.309 40.0209C193.404 40.0209 192.524 40.0209 191.585 40.0209C191.526 39.5506 191.463 39.0528 191.373 38.3418C189.477 40.1563 187.351 40.7491 184.931 40.2277C183.224 39.8598 181.858 38.9587 180.804 37.5836C178.481 34.5535 178.664 29.912 181.202 27.121C183.664 24.4124 187.214 23.981 190.452 26.0719ZM185.923 37.5714C188.85 37.9812 190.975 36.6252 191.527 33.995C192.142 31.0693 190.858 28.4424 188.453 27.7057C185.841 26.9054 183.257 28.1611 182.437 30.6294C181.409 33.7243 182.736 36.527 185.923 37.5714Z" fill="white"/>
<path d="M222.849 33.6612C219.225 33.6613 215.721 33.6613 212.125 33.6613C212.392 35.4476 213.304 36.6661 214.828 37.2478C217.121 38.1229 219.289 37.7954 221.1 36.0758C221.684 36.6712 222.242 37.2404 222.904 37.9149C221.099 39.937 218.691 40.6461 215.979 40.331C211.359 39.7944 208.503 35.717 209.303 30.9421C210.009 26.7263 214.338 23.9636 218.693 24.9503C222.038 25.7082 224.588 29.5808 223.881 32.923C223.818 33.2204 223.284 33.4175 222.849 33.6612ZM217.894 27.5044C214.726 27.0812 212.51 28.5036 212.222 31.1948C215.171 31.1948 218.114 31.1948 221.131 31.1948C220.833 29.2777 219.884 28.0568 217.894 27.5044Z" fill="white"/>
<path d="M95.5601 25.4222C95.8092 25.557 95.9693 25.6682 96.1413 25.8592C95.1645 27.0295 94.1758 28.12 93.153 29.2481C92.82 29.1087 92.4506 28.8958 92.0531 28.7975C90.1093 28.3167 88.7269 29.4311 88.701 31.5471C88.6669 34.3346 88.6926 37.1228 88.6926 40.0085C87.0943 40.0085 85.5429 40.0085 83.9121 40.0085C83.9121 34.9527 83.9121 29.9124 83.9121 24.7848C85.4496 24.7848 86.9712 24.7848 88.601 24.7848C88.6452 25.0163 88.702 25.313 88.7644 25.6391C91.0046 24.3444 93.2024 23.6629 95.5601 25.4222Z" fill="white"/>
<path d="M200.558 29.5829C200.558 28.9076 200.558 28.3595 200.558 27.7036C199.303 27.7036 198.164 27.7036 196.95 27.7036C196.95 26.8014 196.95 26.0077 196.95 25.1018C198.124 25.1018 199.266 25.1018 200.564 25.1018C200.564 24.147 200.54 23.2991 200.569 22.4531C200.644 20.2408 201.988 18.3546 203.995 17.6054C206.318 16.7381 208.485 17.1989 210.146 18.9617C209.566 19.5075 208.984 20.0555 208.399 20.6069C207.884 20.3934 207.361 20.0846 206.798 19.9601C204.954 19.5525 203.541 20.6162 203.414 22.4888C203.359 23.2951 203.405 24.1083 203.405 25.0634C205 25.0634 206.516 25.0634 208.075 25.0634C208.075 26 208.075 26.7893 208.075 27.6754C206.508 27.6754 205.023 27.6754 203.395 27.6754C203.395 29.8199 203.395 31.87 203.395 33.9201C203.395 35.9324 203.395 37.9446 203.395 40.031C202.43 40.031 201.559 40.031 200.558 40.031C200.558 36.562 200.558 33.136 200.558 29.5829Z" fill="white"/>
</svg>
