<svg width="60" height="71" viewBox="0 0 60 71" fill="none" xmlns="http://www.w3.org/2000/svg">
<path d="M7.61434 51.5311C6.99187 50.4259 6.36939 49.3206 5.66669 48.0266C5.3056 47.3701 5.02475 46.9025 4.7439 46.4349C4.10448 44.9012 3.48715 43.3579 2.81195 41.8398C2.61355 41.3938 2.2511 41.0196 1.90032 40.5187C1.50337 37.9408 1.16993 35.4567 0.775872 32.862C0.562178 30.864 0.409109 28.9767 0.232098 26.9472C0.212955 26.467 0.217755 26.129 0.220926 25.565C0.162419 25.0762 0.10554 24.8134 0.0486621 24.5505C0.0486621 24.5505 0.0607208 24.4066 0.0473227 24.2182C0.0226164 23.7905 0.011309 23.5513 0 23.312C0.0602793 21.7193 0.120558 20.1265 0.14707 18.394C0.131862 18.0157 0.150422 17.7772 0.17424 17.3199C0.159953 16.9578 0.140406 16.8146 0.120859 16.6714C0.117931 16.3154 0.115003 15.9594 0.128931 15.4081C0.161569 14.959 0.177351 14.7052 0.193134 14.4515C0.212352 13.805 0.23157 13.1586 0.25374 12.2356C0.270516 11.2109 0.284343 10.4628 0.444828 9.70935C2.29298 9.58984 3.99447 9.47565 5.83617 9.3778C10.6939 9.07306 15.25 8.05168 19.524 6.03289C21.2724 5.207 22.8714 4.06955 24.6396 3.06771C25.9609 2.34093 27.3497 1.79762 28.3575 0.853677C29.5525 -0.265792 30.441 -0.331999 31.5477 0.93982C32.1236 1.37472 32.6407 1.72245 33.2189 2.15214C33.763 2.55495 34.2458 2.87579 34.8291 3.26179C35.8141 3.78349 36.6987 4.24003 37.6501 4.78803C39.2797 5.53113 40.8425 6.18277 42.5017 6.90242C44.5342 7.5217 46.4702 8.07298 48.4062 8.62425C50.2494 8.88747 52.0927 9.1507 54.0753 9.39194C55.9396 9.53688 57.6644 9.70382 59.6703 9.89796C59.6703 12.2122 59.6703 14.6143 59.7002 17.1624C59.7222 17.8508 59.7143 18.3933 59.7038 19.1939C59.7185 19.7939 59.7357 20.1359 59.753 20.4779C59.7347 20.8147 59.7165 21.1516 59.6972 21.7465C59.7133 22.5513 59.7305 23.0981 59.7477 23.6449C59.1784 28.542 58.7211 33.4557 57.9864 38.3282C57.6796 40.3624 56.783 42.309 56.1266 44.3838C54.6738 43.0034 53.3872 41.7809 51.9596 40.3982C51.6773 39.82 51.3203 39.3353 51.4274 38.994C52.8146 34.5739 53.2771 30.0203 53.4129 25.4322C53.5135 22.0327 53.4327 18.6279 53.4327 15.2866C50.8341 14.8846 48.535 14.5289 46.122 14.1248C43.5759 13.336 41.1435 12.5955 38.6315 11.7699C36.6601 10.7707 34.7682 9.85678 32.8193 8.8705C32.4876 8.66487 32.2129 8.53158 31.8754 8.30663C29.7666 6.90078 29.7666 6.90078 28.5232 8.39309C26.1456 9.55261 23.8926 10.7133 21.5133 11.8873C21.1282 11.941 20.8541 11.9403 20.6127 12.0279C16.349 13.575 11.9997 14.7374 7.4554 15.1459C7.06815 15.1807 6.48394 15.923 6.44455 16.3756C6.31739 17.8363 6.4021 19.3153 6.38424 20.893C6.37597 21.1413 6.38862 21.2838 6.38327 21.5572C6.38312 22.1267 6.40096 22.5653 6.3982 23.1098C6.39072 23.3585 6.40384 23.5012 6.39547 23.7539C6.44265 24.5445 6.51131 25.2251 6.58297 26.0488C6.72201 27.9838 6.85806 29.7756 6.97522 31.6445C6.96498 31.7738 6.97363 31.8259 6.97388 32.0102C7.70547 35.0105 8.44548 37.8786 9.19816 40.8636C9.70416 41.9684 10.1975 42.9564 10.741 44.0506C11.4295 45.2379 12.0677 46.319 12.7281 47.4991C13.0413 47.9607 13.3324 48.3233 13.6671 48.7877C14.2479 49.4104 14.4944 49.8649 13.8482 50.5743C12.864 51.6547 12.0183 52.8595 10.9928 54.0385C10.3268 53.7831 9.78175 53.5005 9.22749 53.1167C8.68362 52.5207 8.14898 52.0259 7.61434 51.5311Z" fill="white"/>
<path d="M27.0733 59.7514C27.8528 60.4582 28.6324 61.165 29.5051 61.9562C32.5563 59.0213 35.567 56.129 38.5735 53.2325C41.5119 50.4015 44.4411 47.561 47.3897 44.7405C47.7071 44.4369 48.1268 44.2387 48.6021 44.0312C49.9916 45.4378 51.2781 46.8047 52.4184 48.0164C50.2595 50.2606 48.112 52.493 45.9226 54.82C40.9198 59.6604 35.9652 64.4128 30.9862 69.1398C30.5785 69.5268 30.0039 69.7406 29.4101 70.0011C25.7032 66.975 22.0929 63.9828 18.3758 60.9728C17.0985 59.7515 15.9281 58.548 14.6719 57.2562C15.91 55.8156 17.205 54.3089 18.5863 52.7016C19.4772 53.4533 20.3099 54.1558 21.3046 54.9817C23.3356 56.6538 25.2044 58.2026 27.0733 59.7514Z" fill="white"/>
</svg>
