<svg xmlns="http://www.w3.org/2000/svg" width="80" height="80" fill="none"><g filter="url(#a)"><rect width="80" height="80" fill="url(#b)" rx="40"/><path stroke="#FFD600" stroke-linecap="round" stroke-linejoin="round" stroke-width="2" d="M43.668 37.677a4.48 4.48 0 1 1-6.334 6.335 4.48 4.48 0 0 1 6.334-6.335"/><path stroke="#FFD600" stroke-linecap="round" stroke-linejoin="round" stroke-width="2" d="M43.668 37.677a4.48 4.48 0 1 1-6.334 6.335 4.48 4.48 0 0 1 6.334-6.335M53.498 26.927a4.48 4.48 0 1 1-6.334 6.335 4.48 4.48 0 0 1 6.334-6.335"/><path stroke="#FFD600" stroke-linecap="round" stroke-linejoin="round" stroke-width="2" d="M53.498 26.927a4.48 4.48 0 1 1-6.334 6.335 4.48 4.48 0 0 1 6.334-6.335M51.25 39.95c2.747 0 5.375.954 7.167 2.387"/><path stroke="#FFD600" stroke-linecap="round" stroke-linejoin="round" stroke-width="2" d="M51.25 39.95c2.747 0 5.375.954 7.167 2.387M33.84 26.927a4.48 4.48 0 1 1-6.335 6.335 4.48 4.48 0 0 1 6.335-6.335"/><path stroke="#FFD600" stroke-linecap="round" stroke-linejoin="round" stroke-width="2" d="M33.84 26.927a4.48 4.48 0 1 1-6.335 6.335 4.48 4.48 0 0 1 6.335-6.335M22.584 42.337c1.792-1.433 4.42-2.388 7.167-2.388"/><path stroke="#FFD600" stroke-linecap="round" stroke-linejoin="round" stroke-width="2" d="M22.584 42.337c1.792-1.433 4.42-2.388 7.167-2.388M48.727 53.387c-2.088-1.615-5.087-2.688-8.226-2.688-3.14 0-6.138 1.073-8.226 2.688"/><path stroke="#FFD600" stroke-linecap="round" stroke-linejoin="round" stroke-width="2" d="M48.727 53.387c-2.088-1.615-5.087-2.688-8.226-2.688-3.14 0-6.138 1.073-8.226 2.688"/><rect width="77" height="77" x="1.5" y="1.5" stroke="#FFD600" stroke-width="3" rx="38.5"/><rect width="77" height="77" x="1.5" y="1.5" stroke="#FFD600" stroke-width="3" rx="38.5"/></g><defs><linearGradient id="b" x1="0" x2="86.869" y1="0" y2="8.326" gradientUnits="userSpaceOnUse"><stop stop-color="#2B2B2B" stop-opacity=".2"/><stop offset=".516" stop-color="#3C3C3C" stop-opacity=".4"/><stop offset="1" stop-opacity=".2"/></linearGradient><filter id="a" width="148" height="148" x="-34" y="-34" color-interpolation-filters="sRGB" filterUnits="userSpaceOnUse"><feFlood flood-opacity="0" result="BackgroundImageFix"/><feGaussianBlur in="BackgroundImageFix" stdDeviation="17"/><feComposite in2="SourceAlpha" operator="in" result="effect1_backgroundBlur_108_2165"/><feBlend in="SourceGraphic" in2="effect1_backgroundBlur_108_2165" result="shape"/></filter></defs></svg>