<svg width="80" height="80" viewBox="0 0 80 80" fill="none" xmlns="http://www.w3.org/2000/svg">
<g filter="url(#filter0_b_108_2165)">
<rect width="80" height="80" rx="40" fill="url(#paint0_linear_108_2165)"/>
<path d="M43.6679 37.6772C45.4171 39.4264 45.4171 42.2624 43.6679 44.0116C41.9187 45.7609 39.0826 45.7609 37.3334 44.0116C35.5842 42.2624 35.5842 39.4264 37.3334 37.6772C39.0826 35.9279 41.9187 35.9279 43.6679 37.6772" stroke="#FFD600" stroke-width="2" stroke-linecap="round" stroke-linejoin="round"/>
<path d="M43.6679 37.6772C45.4171 39.4264 45.4171 42.2624 43.6679 44.0116C41.9187 45.7609 39.0826 45.7609 37.3334 44.0116C35.5842 42.2624 35.5842 39.4264 37.3334 37.6772C39.0826 35.9279 41.9187 35.9279 43.6679 37.6772" stroke="#FFD600" stroke-width="2" stroke-linecap="round" stroke-linejoin="round"/>
<path d="M53.498 26.9272C55.2472 28.6764 55.2472 31.5124 53.498 33.2616C51.7487 35.0109 48.9127 35.0109 47.1635 33.2616C45.4143 31.5124 45.4143 28.6764 47.1635 26.9272C48.9127 25.1779 51.7487 25.1779 53.498 26.9272" stroke="#FFD600" stroke-width="2" stroke-linecap="round" stroke-linejoin="round"/>
<path d="M53.498 26.9272C55.2472 28.6764 55.2472 31.5124 53.498 33.2616C51.7487 35.0109 48.9127 35.0109 47.1635 33.2616C45.4143 31.5124 45.4143 28.6764 47.1635 26.9272C48.9127 25.1779 51.7487 25.1779 53.498 26.9272" stroke="#FFD600" stroke-width="2" stroke-linecap="round" stroke-linejoin="round"/>
<path d="M51.25 39.9492C53.9966 39.9492 56.625 40.9042 58.4167 42.3375" stroke="#FFD600" stroke-width="2" stroke-linecap="round" stroke-linejoin="round"/>
<path d="M51.25 39.9492C53.9966 39.9492 56.625 40.9042 58.4167 42.3375" stroke="#FFD600" stroke-width="2" stroke-linecap="round" stroke-linejoin="round"/>
<path d="M33.8398 26.9272C35.589 28.6764 35.589 31.5124 33.8398 33.2616C32.0905 35.0109 29.2545 35.0109 27.5053 33.2616C25.7561 31.5124 25.7561 28.6764 27.5053 26.9272C29.2545 25.1779 32.0905 25.1779 33.8398 26.9272" stroke="#FFD600" stroke-width="2" stroke-linecap="round" stroke-linejoin="round"/>
<path d="M33.8398 26.9272C35.589 28.6764 35.589 31.5124 33.8398 33.2616C32.0905 35.0109 29.2545 35.0109 27.5053 33.2616C25.7561 31.5124 25.7561 28.6764 27.5053 26.9272C29.2545 25.1779 32.0905 25.1779 33.8398 26.9272" stroke="#FFD600" stroke-width="2" stroke-linecap="round" stroke-linejoin="round"/>
<path d="M22.584 42.3375C24.3757 40.9042 27.004 39.9492 29.7507 39.9492" stroke="#FFD600" stroke-width="2" stroke-linecap="round" stroke-linejoin="round"/>
<path d="M22.584 42.3375C24.3757 40.9042 27.004 39.9492 29.7507 39.9492" stroke="#FFD600" stroke-width="2" stroke-linecap="round" stroke-linejoin="round"/>
<path d="M48.7265 53.3867C46.6392 51.7724 43.6399 50.6992 40.5009 50.6992C37.3619 50.6992 34.3627 51.7724 32.2754 53.3867" stroke="#FFD600" stroke-width="2" stroke-linecap="round" stroke-linejoin="round"/>
<path d="M48.7265 53.3867C46.6392 51.7724 43.6399 50.6992 40.5009 50.6992C37.3619 50.6992 34.3627 51.7724 32.2754 53.3867" stroke="#FFD600" stroke-width="2" stroke-linecap="round" stroke-linejoin="round"/>
<rect x="1.5" y="1.5" width="77" height="77" rx="38.5" stroke="#FFD600" stroke-width="3"/>
<rect x="1.5" y="1.5" width="77" height="77" rx="38.5" stroke="#FFD600" stroke-width="3"/>
</g>
<defs>
<filter id="filter0_b_108_2165" x="-34" y="-34" width="148" height="148" filterUnits="userSpaceOnUse" color-interpolation-filters="sRGB">
<feFlood flood-opacity="0" result="BackgroundImageFix"/>
<feGaussianBlur in="BackgroundImageFix" stdDeviation="17"/>
<feComposite in2="SourceAlpha" operator="in" result="effect1_backgroundBlur_108_2165"/>
<feBlend mode="normal" in="SourceGraphic" in2="effect1_backgroundBlur_108_2165" result="shape"/>
</filter>
<linearGradient id="paint0_linear_108_2165" x1="0" y1="0" x2="86.8694" y2="8.32567" gradientUnits="userSpaceOnUse">
<stop stop-color="#2B2B2B" stop-opacity="0.2"/>
<stop offset="0.515625" stop-color="#3C3C3C" stop-opacity="0.4"/>
<stop offset="1" stop-opacity="0.2"/>
</linearGradient>
</defs>
</svg>
