<svg width="20" height="12" viewBox="0 0 20 12" fill="none" xmlns="http://www.w3.org/2000/svg">
<path fill-rule="evenodd" clip-rule="evenodd" d="M0.21967 0.73013C-0.0732233 1.03697 -0.0732233 1.53446 0.21967 1.8413L4.18934 6L0.21967 10.1587C-0.0732233 10.4655 -0.0732233 10.963 0.21967 11.2699C0.512563 11.5767 0.987437 11.5767 1.28033 11.2699L5.78033 6.55558C6.07322 6.24874 6.07322 5.75126 5.78033 5.44442L1.28033 0.73013C0.987437 0.42329 0.512563 0.42329 0.21967 0.73013Z" fill="white"/>
<g opacity="0.6">
<path fill-rule="evenodd" clip-rule="evenodd" d="M7.21967 0.73013C6.92678 1.03697 6.92678 1.53446 7.21967 1.8413L11.1893 6L7.21967 10.1587C6.92678 10.4655 6.92678 10.963 7.21967 11.2699C7.51256 11.5767 7.98744 11.5767 8.28033 11.2699L12.7803 6.55558C13.0732 6.24874 13.0732 5.75126 12.7803 5.44442L8.28033 0.73013C7.98744 0.42329 7.51256 0.42329 7.21967 0.73013Z" fill="white"/>
</g>
<g opacity="0.3">
<path fill-rule="evenodd" clip-rule="evenodd" d="M14.2197 0.73013C13.9268 1.03697 13.9268 1.53446 14.2197 1.8413L18.1893 6L14.2197 10.1587C13.9268 10.4655 13.9268 10.963 14.2197 11.2699C14.5126 11.5767 14.9874 11.5767 15.2803 11.2699L19.7803 6.55558C20.0732 6.24874 20.0732 5.75126 19.7803 5.44442L15.2803 0.73013C14.9874 0.42329 14.5126 0.42329 14.2197 0.73013Z" fill="white"/>
</g>
</svg>
