<svg width="55" height="48" viewBox="0 0 55 48" fill="none" xmlns="http://www.w3.org/2000/svg">
<path fill-rule="evenodd" clip-rule="evenodd" d="M31.3736 46.0431C31.192 46.1158 31.0223 46.1537 30.8687 46.1726C31.0223 46.158 31.1979 46.1566 31.3913 46.1857C31.9301 46.2206 33.4771 47.6858 33.5377 47.9885C33.2232 47.7993 33.1347 47.5243 32.5855 47.4938C32.218 47.4749 31.7264 47.4734 31.3574 47.4516C30.2886 47.3905 30.544 46.4781 29.7793 46.4127L29.7587 46.3181L30.141 46.3414C30.2487 46.3312 30.482 46.2191 30.82 46.1769C30.4805 46.2119 30.2296 46.1551 30.1218 46.1682L29.7542 46.2759V46.1798C30.4805 45.9456 30.0229 45.1133 31.0503 44.8135C31.4061 44.7117 31.8843 44.6011 32.2372 44.4992C32.7656 44.3494 32.7878 44.0598 33.052 43.8037C33.0623 44.1137 31.8917 45.8859 31.3751 46.0387L31.3736 46.0431ZM27.8027 47.0311C28.129 47.0311 28.3932 46.7692 28.3932 46.4476C28.3932 46.126 28.1275 45.8656 27.8027 45.8656C27.478 45.8656 27.2108 46.1275 27.2108 46.4476C27.2108 46.7677 27.4765 47.0311 27.8027 47.0311ZM35.8804 2.71253C36.5048 2.92497 36.9772 2.76784 37.1381 2.77802L37.5101 2.86824L37.5071 2.77074C36.7675 2.57285 37.1838 1.72019 36.1431 1.47137C35.7844 1.38552 35.2987 1.29822 34.9415 1.21382C34.4071 1.08869 34.3688 0.802036 34.0942 0.559039C34.1001 0.868969 35.3563 2.58303 35.8804 2.71108V2.71253ZM19.7044 2.72273C19.08 2.93517 18.6091 2.77656 18.4467 2.7882L18.0747 2.87987L18.0777 2.78383C18.8172 2.58449 18.4009 1.73182 19.4417 1.48301C19.8004 1.39716 20.2845 1.30985 20.6433 1.22546C21.1776 1.10032 21.216 0.81367 21.4906 0.570674C21.4862 0.879149 20.2285 2.59468 19.7059 2.72273H19.7044ZM21.3577 45.5935C22.0176 45.5745 22.4206 45.8641 22.5771 45.9019L22.9594 45.9252L22.9269 46.0169C22.1622 45.9878 22.2995 46.9248 21.2308 46.8535C20.8617 46.8288 20.3731 46.7691 20.007 46.7444C19.4594 46.7066 19.3354 46.9685 18.9988 47.1198C19.0977 46.8259 20.8189 45.5615 21.3577 45.5949V45.5935ZM21.3917 45.4523C21.9689 45.7666 22.4619 45.6924 22.6199 45.7317L22.9712 45.8845L22.986 45.7899C22.2922 45.4683 22.8516 44.6986 21.8714 44.2766C21.5319 44.1311 21.0714 43.9623 20.7333 43.8197C20.2285 43.6044 20.2417 43.3163 20.0129 43.0296C19.9642 43.3337 20.9016 45.2384 21.3932 45.4538L21.3917 45.4523ZM18.6017 44.6215C18.0718 44.5225 16.2029 45.5644 16.0671 45.8437C16.4199 45.7361 16.5764 45.4902 17.1152 45.5964C17.4769 45.6677 17.9522 45.787 18.3153 45.8568C19.3649 46.0591 19.3487 45.1133 20.1045 45.2355L20.1487 45.1497L19.7723 45.0784C19.6705 45.0405 19.4727 44.8761 19.1568 44.7524C19.4756 44.8703 19.7339 44.8761 19.8358 44.9154L20.165 45.1089L20.1901 45.0172C19.5435 44.6127 20.196 43.9187 19.2778 43.3788C18.9604 43.1911 18.5235 42.9685 18.2076 42.7837C17.7337 42.5087 17.7839 42.2235 17.595 41.9121C17.5079 42.2075 18.1943 44.2126 18.6563 44.4862C18.8143 44.5997 18.9693 44.6797 19.1125 44.7364C18.9663 44.684 18.798 44.6418 18.6032 44.6229L18.6017 44.6215ZM15.9903 43.3163C16.1823 43.3599 16.3432 43.4225 16.4804 43.4923C16.3446 43.4196 16.2014 43.3221 16.0583 43.1897C15.6361 42.8594 15.2109 40.7859 15.3349 40.5022C15.484 40.8354 15.3984 41.1118 15.8324 41.4436C16.1232 41.6662 16.5262 41.9427 16.8185 42.1668C17.6614 42.8186 16.9248 43.4254 17.5152 43.907L17.4783 43.9958L17.1772 43.7615C17.0798 43.7091 16.8141 43.6699 16.5026 43.5054C16.8155 43.6699 16.9956 43.8648 17.0931 43.9158L17.4577 44.0336L17.4031 44.1137C16.6694 43.8968 16.5646 44.8383 15.549 44.508C15.1976 44.3945 14.74 44.217 14.3917 44.102C13.8691 43.9303 13.6846 44.1544 13.3199 44.217C13.4897 43.958 15.4766 43.1548 15.9889 43.3192L15.9903 43.3163ZM13.5665 41.6982C13.0793 41.4727 11.0053 42.0213 10.8031 42.2584C11.1721 42.241 11.3862 42.0416 11.8807 42.2774C12.2113 42.4345 12.6424 42.6688 12.9775 42.8245C13.9429 43.277 14.1658 42.3574 14.867 42.6629L14.9305 42.5902L14.5836 42.4287C14.495 42.369 14.3444 42.1595 14.0684 41.9631C14.3488 42.1537 14.5968 42.2235 14.6854 42.2861L14.9541 42.5553L15.0028 42.4709C14.4787 41.9209 15.2862 41.4087 14.5334 40.6593C14.2736 40.4018 13.9075 40.0758 13.6477 39.8197C13.2594 39.4371 13.3805 39.1722 13.2742 38.8245C13.1148 39.0908 13.2742 41.2006 13.6491 41.5804C13.7864 41.7462 13.9311 41.8685 14.0684 41.9616C13.934 41.8641 13.7687 41.771 13.565 41.6982H13.5665ZM11.3684 39.7921C11.5515 39.8852 11.6976 39.9929 11.8157 40.1006C11.6976 39.9929 11.5766 39.859 11.4659 39.6859C11.1396 39.2625 11.2518 37.1497 11.4452 36.9067C11.5057 37.2661 11.3522 37.512 11.6888 37.9412C11.9146 38.2279 12.235 38.5946 12.4608 38.8841C13.1133 39.7208 12.2468 40.1282 12.6955 40.7393L12.6365 40.8165L12.4032 40.5153C12.3235 40.4425 12.0859 40.3407 11.8334 40.1166C12.0829 40.3479 12.204 40.572 12.2837 40.6433L12.6084 40.8456L12.5346 40.9096C11.8792 40.5196 11.5397 41.4043 10.6392 40.8339C10.3277 40.6389 9.92917 40.3523 9.62065 40.1559C9.16008 39.8605 8.92241 40.0336 8.55485 40.0031C8.78513 39.795 10.9123 39.5069 11.367 39.7906L11.3684 39.7921ZM9.4317 37.6299C9.5926 37.739 9.71955 37.8569 9.82141 37.9718C9.7225 37.8539 9.62655 37.7113 9.54389 37.5353C9.27522 37.0755 9.65607 34.9933 9.8775 34.775C9.89079 35.1402 9.70774 35.3658 9.98674 35.8314C10.1727 36.1442 10.4458 36.5473 10.6318 36.8616C11.1706 37.7739 10.2598 38.0707 10.6274 38.7328L10.5595 38.8026L10.3676 38.4753C10.2982 38.3923 10.0753 38.2643 9.85241 38.0082C10.0694 38.2657 10.1609 38.5058 10.2318 38.5873L10.527 38.8288L10.4458 38.8841C9.84502 38.4171 9.39627 39.2523 8.57551 38.5742C8.29209 38.3399 7.93338 38.0082 7.65143 37.7754C7.23072 37.4247 6.97534 37.5658 6.61367 37.4916C6.86905 37.3126 9.01541 37.2894 9.4317 37.6284V37.6299ZM7.78576 35.2435C7.41671 34.855 5.28511 34.612 5.00759 34.7575C5.35745 34.8754 5.62906 34.7677 6.00106 35.1664C6.25053 35.4342 6.56348 35.8081 6.81591 36.0744C7.54366 36.847 8.09723 36.0729 8.63308 36.6128L8.7187 36.5677L8.45742 36.2912C8.39837 36.201 8.33637 35.9536 8.15333 35.6699C8.3408 35.9507 8.54599 36.1035 8.60504 36.1966L8.75413 36.5444L8.83089 36.4847C8.55042 35.7819 9.49369 35.6015 9.07298 34.6295C8.92832 34.2934 8.70984 33.8583 8.5637 33.5266C8.34523 33.0304 8.55632 32.8296 8.5888 32.4658C8.3408 32.655 7.69866 34.6746 7.9068 35.1635C7.96585 35.3469 8.04409 35.5011 8.12675 35.6306C8.04114 35.504 7.93042 35.3701 7.78428 35.2435H7.78576ZM6.4572 32.6724C6.58563 32.8179 6.67862 32.9635 6.748 33.1002C6.68158 32.962 6.62548 32.799 6.59005 32.6099C6.44539 32.0977 7.34143 30.1755 7.61157 30.0184C7.53333 30.3749 7.29862 30.548 7.45067 31.0689C7.55252 31.4167 7.7149 31.8751 7.81528 32.2257C8.10756 33.2414 7.14953 33.3039 7.33848 34.0358L7.25433 34.0868L7.151 33.723C7.10524 33.6255 6.92219 33.4465 6.77015 33.1439C6.91481 33.448 6.94434 33.7012 6.99157 33.7972L7.21595 34.1042L7.12443 34.1377C6.66091 33.5368 6.01434 34.2352 5.38992 33.3781C5.1744 33.0813 4.91016 32.6724 4.69759 32.377C4.37874 31.9362 4.09531 32.0089 3.76465 31.8474C4.05693 31.7354 6.14277 32.2417 6.45867 32.6724H6.4572ZM5.46668 29.9573C5.20688 29.4916 3.2037 28.7321 2.89961 28.8049C3.20813 29.0042 3.49894 28.9693 3.75875 29.4451C3.93146 29.7652 4.14108 30.2046 4.31674 30.5247C4.82602 31.4516 5.55673 30.839 5.94054 31.4924L6.03649 31.4705L5.85197 31.1388C5.81654 31.0369 5.81949 30.7823 5.71616 30.4622C5.82687 30.7794 5.9863 30.9816 6.02025 31.0835L6.07634 31.4575L6.16639 31.4182C6.07192 30.6688 7.02996 30.7241 6.87053 29.6808C6.81443 29.3214 6.71405 28.8471 6.65796 28.4891C6.57234 27.9536 6.82772 27.811 6.95172 27.4662C6.66386 27.5884 5.53016 29.3854 5.6084 29.9107C5.61873 30.1042 5.65563 30.2716 5.70287 30.4171C5.65121 30.273 5.57887 30.1173 5.46964 29.9573H5.46668ZM4.83045 27.1403C4.91755 27.3134 4.97069 27.4778 5.00316 27.6263C4.97512 27.4778 4.96035 27.3032 4.97364 27.1126C4.96331 26.5815 6.31844 24.9402 6.61958 24.8543C6.45277 25.1788 6.18115 25.2894 6.19739 25.8307C6.20772 26.193 6.24758 26.6761 6.25791 27.0399C6.28449 28.0933 5.33973 27.9202 5.33678 28.6754L5.24378 28.703L5.23492 28.3261C5.21426 28.217 5.07697 27.9915 5.00759 27.6495C5.07697 27.9915 5.03859 28.2534 5.06221 28.3611L5.20097 28.7132L5.10354 28.7219C4.80683 28.0264 4.00379 28.5444 3.61703 27.5622C3.48418 27.2217 3.33213 26.7605 3.19927 26.4215C3.00294 25.9151 2.70918 25.9165 2.42871 25.6794C2.74018 25.6445 4.63117 26.647 4.82897 27.1403H4.83045ZM4.55883 24.2679C4.42598 23.7528 2.67818 22.5233 2.36523 22.5204C2.61323 22.791 2.90404 22.826 3.03394 23.3513C3.12104 23.7048 3.21256 24.1792 3.30261 24.5342C3.56094 25.5586 4.42303 25.1424 4.62969 25.87L4.72712 25.8729L4.63412 25.5048C4.62526 25.3971 4.69317 25.1526 4.6725 24.8165C4.70055 25.1526 4.8024 25.3854 4.80978 25.4931L4.76993 25.8685L4.86736 25.8525C4.96626 25.1032 5.88001 25.3913 5.98777 24.3436C6.02615 23.9798 6.04682 23.4968 6.08225 23.1345C6.13539 22.5961 6.41882 22.519 6.62548 22.2178C6.31548 22.2643 4.76255 23.7267 4.70498 24.2549C4.66659 24.444 4.65921 24.6157 4.66807 24.7685C4.65479 24.6172 4.62231 24.4469 4.55883 24.265V24.2679ZM4.65479 21.384C4.69612 21.5717 4.70645 21.7434 4.69907 21.8962C4.7094 21.7449 4.73893 21.5746 4.79945 21.3913C4.92345 20.8747 6.65058 19.6161 6.96353 19.6074C6.71996 19.8824 6.42915 19.9217 6.3081 20.4498C6.22691 20.8034 6.14277 21.2807 6.06011 21.6357C5.81801 22.6645 4.94854 22.2629 4.75517 22.9933L4.65774 22.9962L4.74483 22.6295C4.75221 22.5219 4.6784 22.2774 4.69464 21.9413C4.6725 22.2774 4.5736 22.5131 4.56917 22.6194L4.6164 22.9948L4.51898 22.9802C4.40826 22.2338 3.49894 22.5379 3.37346 21.4902C3.32918 21.1279 3.29966 20.6448 3.25832 20.284C3.19632 19.7456 2.91142 19.6743 2.70033 19.376C3.01032 19.4182 4.58836 20.8544 4.65479 21.3811V21.384ZM5.11831 18.535C5.11831 18.0039 3.73808 16.3844 3.43399 16.3043C3.6067 16.6274 3.87979 16.7321 3.87241 17.2734C3.86798 17.6357 3.83551 18.1203 3.83255 18.484C3.82517 19.539 4.76402 19.3498 4.78026 20.1035L4.87474 20.1312L4.87769 19.7529C4.8954 19.6466 5.02383 19.4255 5.08878 19.0952C5.03121 19.4269 5.07254 19.6772 5.0504 19.7834L4.91607 20.137L5.0135 20.1457C5.2984 19.4444 6.1103 19.9493 6.48082 18.9599C6.60924 18.6179 6.75243 18.1552 6.87791 17.8133C7.06538 17.304 7.35914 17.2996 7.63666 17.0581C7.32519 17.0275 5.45045 18.0606 5.26149 18.5583C5.17292 18.7401 5.12126 18.9147 5.09173 19.0704C5.12126 18.9147 5.13602 18.7358 5.11831 18.5321V18.535ZM5.94054 15.766C5.93316 15.9595 5.8992 16.1283 5.85492 16.2753C5.90363 16.1297 5.97449 15.9726 6.08077 15.8111C6.33172 15.3411 8.32309 14.5481 8.62865 14.6165C8.32309 14.8231 8.03228 14.7896 7.77985 15.2713C7.61157 15.5943 7.40933 16.0366 7.23957 16.3596C6.74653 17.2953 6.00549 16.6943 5.63349 17.3534L5.53754 17.3331L5.71616 16.9984C5.75011 16.8966 5.74125 16.6419 5.84016 16.3204C5.73387 16.6405 5.57887 16.8427 5.5464 16.946L5.49621 17.3214L5.40616 17.2836C5.48735 16.5342 4.53079 16.6055 4.6725 15.5594C4.72121 15.197 4.81569 14.7198 4.86588 14.3618C4.94116 13.8249 4.68431 13.6867 4.55441 13.3447C4.84374 13.4611 6.00844 15.2407 5.93906 15.766H5.94054ZM7.10967 13.1221C7.24548 12.607 6.31696 10.6994 6.04387 10.5481C6.12949 10.9017 6.36715 11.0719 6.22249 11.5957C6.12653 11.945 5.97301 12.4048 5.87706 12.7583C5.60249 13.7769 6.56053 13.8249 6.38487 14.5597L6.46901 14.6077L6.56643 14.2425C6.61072 14.145 6.79081 13.9602 6.93696 13.6576C6.79672 13.9646 6.7731 14.2178 6.72586 14.3153L6.50591 14.6252L6.59891 14.6572C7.0521 14.049 7.71047 14.7372 8.31866 13.87C8.52975 13.5703 8.78661 13.1556 8.99475 12.8573C9.30622 12.4106 9.58965 12.479 9.91883 12.3131C9.62507 12.2069 7.54809 12.7482 7.23957 13.1818C7.1141 13.3302 7.02257 13.4771 6.95615 13.6154C7.01962 13.4757 7.07424 13.3127 7.10672 13.1221H7.10967ZM8.60799 10.6427C8.55189 10.8275 8.47661 10.9817 8.39542 11.1141C8.47956 10.9861 8.58732 10.8493 8.73199 10.7198C9.09365 10.3255 11.2223 10.049 11.5013 10.1901C11.1544 10.3138 10.8798 10.2105 10.5152 10.615C10.2702 10.8857 9.96312 11.264 9.7166 11.5361C9.00213 12.3204 8.43675 11.5565 7.90976 12.1036L7.82266 12.0614L8.07952 11.7805C8.13709 11.6903 8.19466 11.4415 8.3718 11.1549C8.18875 11.4386 7.98652 11.5972 7.92895 11.6889L7.78576 12.0395L7.70752 11.9799C7.97618 11.2742 7.03143 11.1068 7.43443 10.129C7.57319 9.79146 7.78428 9.35494 7.92452 9.01882C8.13414 8.51682 7.92009 8.31893 7.88023 7.95807C8.13118 8.14286 8.81023 10.1509 8.60946 10.6441L8.60799 10.6427ZM10.4104 8.36839C10.6717 7.90422 10.2554 5.82785 10.0295 5.6125C10.0222 5.97626 10.2096 6.19889 9.93802 6.67033C9.75645 6.98608 9.49222 7.39495 9.31065 7.71215C8.78661 8.63176 9.70331 8.91405 9.34608 9.58193L9.41546 9.64886L9.60146 9.31855C9.66936 9.23416 9.89079 9.10175 10.1093 8.8442C9.89521 9.10611 9.80812 9.3462 9.73874 9.42914L9.44941 9.6765L9.5306 9.7289C10.124 9.25163 10.5875 10.081 11.3965 9.38985C11.6755 9.15122 12.0283 8.81365 12.3058 8.57647C12.7206 8.21998 12.9789 8.35529 13.3391 8.27672C13.0808 8.10066 10.9344 8.11521 10.5241 8.46006C10.3646 8.5721 10.2406 8.69142 10.1403 8.80928C10.2362 8.68997 10.3307 8.54445 10.4104 8.36839ZM12.4874 6.33566C12.8062 5.90787 12.6586 3.79657 12.4623 3.55648C12.4077 3.91734 12.5656 4.16034 12.2364 4.59395C12.0165 4.88351 11.7006 5.256 11.4806 5.54992C10.8429 6.39823 11.7168 6.7911 11.2769 7.40805L11.3374 7.48517L11.5648 7.18107C11.6415 7.1054 11.8792 7.00208 12.1287 6.77218C11.8836 7.0079 11.7655 7.23345 11.6858 7.3062L11.367 7.51426L11.4408 7.5783C12.0903 7.1767 12.4431 8.05702 13.3347 7.47208C13.6432 7.26982 14.0359 6.97735 14.3415 6.77655C14.7976 6.4739 15.0367 6.64268 15.4058 6.60776C15.1711 6.40259 13.0395 6.14941 12.5892 6.44042C12.4165 6.53209 12.2763 6.63541 12.1641 6.73872C12.2748 6.6325 12.387 6.50008 12.4889 6.3342L12.4874 6.33566ZM14.8079 4.57649C14.6869 4.72781 14.5585 4.84421 14.4359 4.93588C14.5614 4.84713 14.7135 4.76127 14.895 4.69288C15.3792 4.45861 17.4606 4.97517 17.6673 5.20798C17.2982 5.19634 17.0812 5.00136 16.5912 5.24436C16.2634 5.40587 15.8354 5.64741 15.5032 5.80893C14.5452 6.27891 14.306 5.36222 13.6122 5.67797L13.5458 5.60667L13.8898 5.43933C13.9783 5.37676 14.123 5.16725 14.3961 4.96354C14.1186 5.15997 13.872 5.23417 13.7849 5.29965L13.5207 5.57321L13.4705 5.49027C13.9842 4.93153 13.1679 4.4339 13.9089 3.67289C14.1643 3.40953 14.526 3.07775 14.7814 2.81875C15.1637 2.42879 15.0382 2.16689 15.1371 1.81622C15.301 2.07959 15.1799 4.19235 14.8079 4.57794V4.57649ZM17.3351 3.1185C17.7514 2.78093 18.1426 0.698714 18.0127 0.419341C17.8695 0.754007 17.961 1.03047 17.5315 1.36951C17.2451 1.59504 16.8451 1.87879 16.5572 2.10869C15.7261 2.7722 16.4716 3.36877 15.89 3.85913L15.9298 3.94789L16.228 3.70927C16.3225 3.65543 16.5764 3.61323 16.8775 3.45318C16.5808 3.62051 16.4096 3.80966 16.3136 3.86204L15.952 3.98572L16.0066 4.06576C16.7373 3.83731 16.8569 4.77583 17.868 4.42807C18.2179 4.30875 18.6726 4.12249 19.0195 4.00172C19.5376 3.81984 19.7266 4.04247 20.0926 4.09922C19.9185 3.84313 17.9182 3.0734 17.4075 3.24509C17.2082 3.29311 17.0399 3.36441 16.8997 3.44152C17.0399 3.36441 17.1905 3.2611 17.3366 3.1185H17.3351ZM24.1964 46.1973C23.6591 46.2308 22.1106 47.6975 22.0501 48.0001C22.3645 47.8095 22.4531 47.5345 23.0022 47.5054C23.3698 47.4851 23.8613 47.4851 24.2304 47.4632C25.2976 47.4007 25.0437 46.4883 25.8069 46.4243L25.8276 46.3297L25.4453 46.353C25.336 46.3428 25.1043 46.2308 24.7662 46.1886C25.1057 46.2235 25.3567 46.1667 25.4645 46.1798L25.832 46.2875V46.19C25.1057 45.9572 25.5634 45.1249 24.5359 44.8266C24.1817 44.7233 23.7019 44.6127 23.3491 44.5123C22.8206 44.3625 22.7985 44.0744 22.5342 43.8168C22.5239 44.1253 23.696 45.9005 24.2112 46.0533C24.3942 46.1245 24.564 46.1624 24.716 46.1828C24.5625 46.1668 24.3868 46.1668 24.1935 46.1959L24.1964 46.1973ZM34.2285 45.5833C34.0337 45.5774 33.8595 45.6007 33.7089 45.6342C33.858 45.5964 34.0233 45.5367 34.1946 45.4436C34.6861 45.2282 35.6235 43.325 35.5748 43.0194C35.346 43.3061 35.3593 43.5942 34.8559 43.8095C34.5179 43.9521 34.0558 44.1209 33.7178 44.2664C32.7376 44.6899 33.2956 45.4581 32.6032 45.7797L32.6165 45.8757L32.9679 45.723C33.0742 45.6982 33.331 45.723 33.6631 45.6473C33.3325 45.7302 33.1155 45.8685 33.0092 45.8932L32.6269 45.9179L32.6593 46.0082C33.424 45.9791 33.2867 46.9147 34.3555 46.8463C34.7245 46.8215 35.2131 46.7619 35.5792 46.7371C36.1284 46.6993 36.2509 46.9612 36.5875 47.1111C36.4885 46.8186 34.7673 45.5527 34.2285 45.5847V45.5833ZM36.9845 44.6113C37.5145 44.5123 39.3833 45.5542 39.5191 45.8321C39.1663 45.7244 39.0099 45.48 38.4711 45.5862C38.1109 45.6575 37.6341 45.7768 37.2709 45.8466C36.2214 46.0489 36.2376 45.1031 35.4818 45.2253L35.439 45.1395L35.8154 45.0682C35.9173 45.0304 36.1136 44.8659 36.4325 44.7423C36.1121 44.8587 35.8538 44.8659 35.7534 44.9052L35.4242 45.1002L35.3977 45.0071C36.0442 44.6026 35.3917 43.9085 36.3114 43.3672C36.6288 43.1795 37.0657 42.9554 37.3816 42.7706C37.8555 42.4956 37.8053 42.2104 37.9957 41.899C38.0828 42.1959 37.3964 44.1995 36.9358 44.476C36.7779 44.5895 36.6214 44.6695 36.4782 44.7248C36.6229 44.6724 36.7926 44.6302 36.9875 44.6113H36.9845ZM39.5959 43.3061C39.4055 43.3483 39.2416 43.4123 39.1043 43.4822C39.2401 43.4079 39.3833 43.3105 39.525 43.1781C39.9487 42.8477 40.3738 40.7728 40.2498 40.4891C40.1007 40.8237 40.1864 41.1002 39.7524 41.432C39.4616 41.6546 39.0571 41.9311 38.7663 42.1566C37.9234 42.807 38.66 43.4138 38.0695 43.8954L38.1079 43.9841L38.4091 43.7499C38.5065 43.6975 38.7722 43.6582 39.0837 43.4938C38.7722 43.6582 38.5906 43.8532 38.4932 43.9056L38.1286 44.0234L38.1832 44.1035C38.9169 43.8867 39.0202 44.8281 40.0373 44.4978C40.3886 44.3828 40.8477 44.2068 41.1946 44.0904C41.7172 43.9187 41.9032 44.1428 42.2663 44.2053C42.0965 43.9449 40.1096 43.1446 39.5974 43.3075L39.5959 43.3061ZM42.0198 41.6866C42.5069 41.4611 44.581 42.0096 44.7832 42.2468C44.4141 42.2293 44.2016 42.03 43.7056 42.2657C43.3749 42.4229 42.9439 42.6557 42.6088 42.8128C41.6434 43.2668 41.419 42.3457 40.7193 42.6513L40.6558 42.5785L41.0027 42.417C41.0927 42.3559 41.2418 42.1479 41.5179 41.95C41.2374 42.142 40.9894 42.2119 40.9008 42.273L40.6322 42.5422L40.5835 42.4578C41.1075 41.9078 40.3 41.3956 41.0529 40.6462C41.3142 40.3872 41.6788 40.0627 41.9386 39.8066C42.3268 39.4225 42.2073 39.1591 42.3121 38.8099C42.4715 39.0762 42.3135 41.186 41.9371 41.5658C41.8057 41.723 41.6685 41.8423 41.5386 41.934C41.6699 41.8408 41.8294 41.7535 42.0227 41.6837L42.0198 41.6866ZM44.2178 39.7819C44.0436 39.8707 43.9034 39.9725 43.7882 40.0729C43.9004 39.9682 44.0141 39.8372 44.1189 39.6742C44.4451 39.2508 44.333 37.138 44.1396 36.8921C44.0805 37.253 44.2341 37.5004 43.896 37.9281C43.6702 38.2148 43.3498 38.5815 43.124 38.8725C42.4715 39.7091 43.338 40.1166 42.8893 40.7277L42.9483 40.8048L43.1815 40.5036C43.2612 40.4309 43.4974 40.3305 43.7513 40.1049C43.5019 40.3348 43.3808 40.5589 43.3011 40.6317L42.9778 40.8339L43.0502 40.8994C43.7056 40.5094 44.0451 41.3941 44.9456 40.8252C45.257 40.6288 45.6541 40.3436 45.9641 40.1471C46.4247 39.8517 46.6624 40.0235 47.0299 39.9944C46.7996 39.7834 44.6725 39.4967 44.2178 39.7819ZM46.1546 37.6182C45.9937 37.7273 45.8667 37.8452 45.7663 37.9602C45.8637 37.8423 45.9612 37.6997 46.0438 37.5251C46.314 37.0638 45.9331 34.9816 45.7102 34.7634C45.6969 35.1286 45.88 35.3541 45.5995 35.8198C45.4135 36.1311 45.1404 36.5356 44.9544 36.8514C44.4156 37.7623 45.3264 38.0591 44.9589 38.7212L45.0268 38.791L45.2187 38.4636C45.288 38.3821 45.5109 38.2526 45.7338 37.998C45.5168 38.257 45.4253 38.4956 45.3545 38.5757L45.0592 38.8172L45.1404 38.8725C45.7412 38.404 46.19 39.2406 47.0107 38.564C47.2942 38.3312 47.6544 37.998 47.9348 37.7652C48.3555 37.416 48.6109 37.5557 48.9726 37.4814C48.7172 37.3025 46.5694 37.2806 46.1546 37.6182ZM47.802 35.2319C48.171 34.8448 50.3026 34.6004 50.5787 34.7474C50.2288 34.8638 49.9572 34.7576 49.5852 35.1562C49.3357 35.4225 49.0228 35.7965 48.7703 36.0642C48.0426 36.8369 47.4905 36.0642 46.9532 36.6026L46.8661 36.5589L47.1274 36.2825C47.1879 36.1923 47.2484 35.9449 47.4314 35.6612C47.2425 35.942 47.0388 36.0962 46.9797 36.1879L46.8306 36.5357L46.7539 36.476C47.0344 35.7732 46.0926 35.5913 46.5118 34.6208C46.6565 34.2847 46.8749 33.8496 47.0196 33.5178C47.2381 33.0202 47.027 32.8194 46.993 32.4556C47.241 32.6448 47.8846 34.6644 47.6765 35.1533C47.6145 35.3469 47.5304 35.5084 47.4433 35.6408C47.5304 35.5084 47.6455 35.3672 47.799 35.2319H47.802ZM49.1305 32.6608C49.0021 32.8063 48.9091 32.9518 48.8397 33.0886C48.9047 32.9503 48.9622 32.7874 48.9977 32.5982C49.1423 32.086 48.2463 30.1639 47.9762 30.0068C48.0544 30.3632 48.2906 30.5349 48.1371 31.0573C48.0352 31.4036 47.8743 31.8634 47.7724 32.2141C47.4802 33.2283 48.4382 33.2923 48.2493 34.0242L48.3334 34.0737L48.4367 33.7099C48.4825 33.6124 48.667 33.4334 48.8176 33.1322C48.6729 33.4363 48.6434 33.6895 48.5962 33.7856L48.3718 34.0911L48.4648 34.1246C48.9268 33.5222 49.5749 34.2221 50.1978 33.3665C50.4133 33.0697 50.6776 32.6608 50.8901 32.364C51.2075 31.9231 51.4924 31.9958 51.8246 31.8358C51.5308 31.7252 49.4464 32.2316 49.1305 32.6608ZM50.121 29.9442C50.3808 29.4786 52.384 28.719 52.6881 28.7932C52.3796 28.9926 52.0888 28.9562 51.829 29.4334C51.6548 29.7536 51.4467 30.193 51.2695 30.5131C50.7602 31.44 50.0295 30.826 49.6472 31.4807L49.5512 31.4589L49.7358 31.1271C49.7712 31.0253 49.7668 30.7707 49.8716 30.4505C49.7594 30.7692 49.6014 30.97 49.5675 31.0719L49.5114 31.4458L49.4213 31.4065C49.5158 30.6572 48.5578 30.7125 48.7187 29.6706C48.7748 29.3098 48.8751 28.8354 48.9327 28.4775C49.0183 27.9435 48.763 27.7994 48.639 27.456C48.9268 27.5782 50.062 29.3753 49.9838 29.9005C49.972 30.0941 49.9365 30.2628 49.8893 30.4069C49.941 30.2643 50.0133 30.1071 50.1225 29.9456L50.121 29.9442ZM50.7588 27.1286C50.6658 27.3105 50.6126 27.4822 50.5801 27.6379C50.6111 27.4822 50.6289 27.3032 50.6141 27.0995C50.6244 26.5699 49.2693 24.9271 48.9681 24.8413C49.135 25.1643 49.4066 25.2763 49.3903 25.8176C49.38 26.1799 49.3401 26.663 49.3298 27.0282C49.3047 28.0831 50.2465 27.9071 50.2495 28.6637L50.3425 28.6928L50.3513 28.316C50.372 28.2097 50.5034 27.99 50.5742 27.6626C50.5108 27.9915 50.5477 28.2447 50.5255 28.3494L50.3853 28.703L50.4827 28.7117C50.7809 28.0162 51.5825 28.5342 51.9692 27.552C52.1035 27.213 52.2556 26.7503 52.387 26.4113C52.5833 25.9064 52.8771 25.9064 53.1575 25.6706C52.8461 25.6357 50.9551 26.6383 50.7573 27.1315L50.7588 27.1286ZM51.0304 24.2563C51.1647 23.7412 52.911 22.5117 53.2254 22.5088C52.9775 22.778 52.6866 22.8143 52.5567 23.3411C52.4696 23.6917 52.3781 24.169 52.2881 24.5226C52.0297 25.5455 51.1662 25.1308 50.961 25.8583H50.8636L50.958 25.4946C50.9669 25.384 50.896 25.1308 50.9211 24.7816C50.896 25.1294 50.7883 25.3723 50.7824 25.4815L50.8222 25.8569L50.7248 25.8409C50.6259 25.0915 49.7121 25.3825 49.6044 24.332C49.566 23.9682 49.5453 23.4851 49.5084 23.1243C49.4553 22.5859 49.1719 22.5088 48.9667 22.2076C49.2767 22.2556 50.8296 23.7165 50.8857 24.2447C50.9256 24.4425 50.9315 24.623 50.9197 24.7816C50.9315 24.623 50.9625 24.4469 51.0304 24.2549V24.2563ZM50.9344 21.3724C51.0008 20.8456 52.5789 19.4095 52.8889 19.3673C52.6763 19.6656 52.3929 19.7369 52.3294 20.2767C52.2881 20.6361 52.2585 21.1192 52.2143 21.4829C52.0888 22.5306 51.1795 22.2265 51.0673 22.9729L50.9698 22.9875L51.0156 22.6121C51.0112 22.5029 50.9064 22.2585 50.8887 21.9107C50.8798 21.7521 50.8517 21.5746 50.7853 21.3811C50.6613 20.8645 48.9342 19.6074 48.6198 19.5986C48.8633 19.8722 49.1541 19.9129 49.2752 20.4411C49.3564 20.7932 49.4405 21.272 49.5232 21.627C49.7638 22.6543 50.6348 22.2541 50.8281 22.9846L50.9256 22.989L50.8385 22.6208C50.8311 22.5117 50.9078 22.2585 50.8872 21.9093C50.8783 21.7507 50.8872 21.5717 50.93 21.3724H50.9344ZM50.4709 18.5233C50.4709 17.9922 51.8511 16.3727 52.1537 16.2913C51.9825 16.6143 51.7094 16.7205 51.7168 17.2618C51.7212 17.6241 51.7537 18.1086 51.7566 18.4739C51.7655 19.5273 50.8237 19.3382 50.8089 20.0948L50.7145 20.121V19.7427C50.6938 19.6379 50.5654 19.4167 50.5004 19.0864C50.558 19.4182 50.5167 19.6699 50.5388 19.7732L50.6731 20.1283L50.5742 20.1355C50.2893 19.4342 49.4774 19.9391 49.1084 18.9497C48.98 18.6077 48.8368 18.1436 48.7098 17.8031C48.5223 17.2953 48.2286 17.2909 47.9525 17.0479C48.264 17.0173 50.1388 18.0504 50.3262 18.5481C50.4163 18.7314 50.4665 18.9046 50.496 19.0603C50.4679 18.9046 50.4532 18.7256 50.4709 18.5219V18.5233ZM49.6487 15.7543C49.656 15.9479 49.69 16.1166 49.7343 16.2621C49.6856 16.1181 49.6147 15.9595 49.5084 15.798C49.2575 15.3295 47.2661 14.535 46.9606 14.6034C47.2661 14.8085 47.5584 14.7765 47.8094 15.2582C47.9776 15.5812 48.1799 16.0235 48.3496 16.3466C48.8427 17.2822 49.5837 16.6798 49.9557 17.3404L50.0517 17.32L49.8745 16.9868C49.8406 16.8849 49.8494 16.6303 49.749 16.3087C49.8553 16.6274 50.0103 16.8325 50.0428 16.9344L50.093 17.3084L50.183 17.2705C50.1019 16.5212 51.0584 16.5925 50.9167 15.5448C50.8665 15.1854 50.7735 14.7081 50.7233 14.3502C50.648 13.8147 50.9049 13.6736 51.0348 13.3331C50.7455 13.4509 49.5808 15.229 49.6501 15.7543H49.6487ZM48.4781 13.109C48.3423 12.5954 49.2708 10.6863 49.5424 10.535C49.4582 10.8886 49.2206 11.0588 49.3638 11.5812C49.4597 11.9304 49.6132 12.3917 49.7092 12.7438C49.9838 13.7638 49.0242 13.8118 49.2014 14.5466L49.1172 14.5946L49.0198 14.2294C48.9755 14.1319 48.7954 13.9486 48.6493 13.6459C48.7881 13.9515 48.8132 14.2061 48.8604 14.3022L49.0789 14.6136L48.9873 14.6456C48.5342 14.0373 47.8743 14.7256 47.2661 13.8584C47.055 13.5586 46.7982 13.1454 46.59 12.8456C46.2786 12.3989 45.9937 12.4673 45.6659 12.3014C45.9612 12.1952 48.0367 12.7351 48.3452 13.1701C48.4781 13.3258 48.5711 13.4801 48.639 13.6241C48.5725 13.4801 48.5135 13.3098 48.4781 13.109ZM46.9797 10.6296C47.0417 10.8347 47.1274 11.0021 47.2174 11.1403C47.1303 10.9992 47.0152 10.8507 46.8557 10.7052C46.4941 10.3124 44.3654 10.0345 44.0864 10.1756C44.4333 10.2993 44.7079 10.196 45.0725 10.6019C45.3176 10.8726 45.6246 11.2509 45.8726 11.5215C46.5871 12.3073 47.1525 11.5419 47.6794 12.0905L47.7665 12.0483L47.5097 11.7674C47.4506 11.6772 47.3945 11.4284 47.2174 11.1418C47.4019 11.424 47.6027 11.5841 47.6603 11.6758L47.8034 12.0264L47.8817 11.9668C47.613 11.2611 48.5578 11.0937 48.1548 10.1174C48.016 9.77981 47.8049 9.34038 47.6647 9.00571C47.4551 8.50517 47.6691 8.30729 47.709 7.94498C47.458 8.12977 46.7805 10.1363 46.9797 10.631V10.6296ZM45.1773 8.3553C44.916 7.89113 45.3323 5.81476 45.5567 5.5994C45.5641 5.96317 45.3781 6.18578 45.6482 6.65723C45.8298 6.97152 46.094 7.3804 46.2756 7.69906C46.7996 8.61721 45.8829 8.90094 46.2402 9.56737L46.1708 9.63577L45.9848 9.30692C45.9169 9.22253 45.6955 9.09011 45.477 8.83257C45.6896 9.09448 45.7781 9.33457 45.8475 9.41751L46.1383 9.66341L46.0571 9.71724C45.4652 9.23852 45.0017 10.0679 44.1912 9.37822C43.9108 9.14104 43.558 8.80201 43.2819 8.56338C42.8686 8.20689 42.6103 8.34366 42.2486 8.26363C42.5069 8.08902 44.6548 8.10212 45.0637 8.44697C45.2319 8.56483 45.3618 8.69143 45.4622 8.81511C45.3604 8.69143 45.2615 8.54155 45.1758 8.35676L45.1773 8.3553ZM43.1003 6.32111C43.2066 6.49572 43.3262 6.6325 43.4428 6.74163C43.6982 6.98172 43.8207 7.21888 43.9019 7.29309L44.2222 7.50117L44.147 7.56375C43.4989 7.16215 43.1432 8.04391 42.253 7.45751C41.946 7.25526 41.5518 6.96426 41.2463 6.762C40.7901 6.4608 40.5495 6.62668 40.1834 6.59175C40.4167 6.38514 42.5483 6.13341 42.9985 6.42587C43.1801 6.52191 43.3247 6.63104 43.4413 6.74017C43.6967 6.98172 43.9432 7.0894 44.0215 7.16506L44.2488 7.46917L44.3093 7.3935C43.8694 6.77364 44.7433 6.38222 44.1056 5.53392C43.8857 5.24145 43.5698 4.8675 43.3498 4.57794C43.0206 4.14433 43.1771 3.89988 43.124 3.53902C42.9276 3.77911 42.7785 5.89041 43.0974 6.3182L43.1003 6.32111ZM40.7813 4.5634C40.9023 4.71327 41.0307 4.82967 41.1533 4.92279C41.0278 4.83403 40.8757 4.74818 40.6942 4.67979C40.21 4.44698 38.1286 4.96208 37.9219 5.19489C38.291 5.18325 38.508 4.98682 38.9981 5.23127C39.3258 5.39424 39.7538 5.63432 40.0845 5.79729C41.044 6.26582 41.2817 5.35058 41.977 5.66633L42.0419 5.59504L41.6995 5.4277C41.6109 5.36513 41.4647 5.15414 41.1931 4.95334C41.4706 5.14978 41.7172 5.22254 41.8043 5.28802L42.0685 5.56012L42.1187 5.47717C41.605 4.91842 42.4213 4.42224 41.6803 3.65833C41.4249 3.39642 41.0632 3.06466 40.8093 2.8042C40.427 2.41424 40.5525 2.15233 40.4536 1.80166C40.2897 2.06503 40.4108 4.17779 40.7827 4.56483L40.7813 4.5634ZM38.2541 3.10541C37.8363 2.76784 37.4466 0.688534 37.575 0.40625C37.7182 0.742371 37.6282 1.01738 38.0562 1.35642C38.3426 1.58341 38.7427 1.86568 39.0305 2.09558C39.8616 2.7591 39.1161 3.35568 39.6978 3.84604L39.6594 3.9348L39.3612 3.69616C39.2667 3.64232 39.0113 3.60013 38.7117 3.44007C39.0084 3.6074 39.1796 3.79657 39.2756 3.84895L39.6387 3.97117L39.5826 4.04975C38.8519 3.82131 38.7323 4.75983 37.7212 4.41352C37.3728 4.2942 36.9166 4.10795 36.5712 3.98718C36.0531 3.80675 35.8641 4.02792 35.4995 4.08467C35.6737 3.82858 37.6739 3.05885 38.1847 3.23055C38.3751 3.27711 38.536 3.34259 38.6718 3.41534C38.5375 3.33968 38.3958 3.23928 38.2555 3.10396L38.2541 3.10541Z" fill="url(#paint0_linear_789_11434)"/>
<path fill-rule="evenodd" clip-rule="evenodd" d="M8.70686 31.7483C9.49218 30.5318 10.0767 29.1713 10.4945 27.725C10.989 26.0124 11.2562 24.1703 11.3581 22.2976C11.4703 20.2212 11.3787 18.1011 11.1721 16.0815C10.9388 13.7898 10.558 11.6232 10.1609 9.78542C11.7301 10.0953 13.41 10.2059 15.0987 10.1172C17.0015 10.0182 18.9205 9.66466 20.7037 9.05499C22.3143 8.50352 23.8185 7.74542 25.1131 6.7778C26.1405 6.01098 27.038 5.11028 27.754 4.07718C28.4699 5.14666 29.4014 6.08373 30.4879 6.8811C31.8356 7.8691 33.424 8.64465 35.1408 9.1903C36.8708 9.74032 38.7397 10.0604 40.6233 10.1317C42.253 10.1957 43.8945 10.0735 45.4696 9.75924C45.1861 11.1285 44.8924 12.6548 44.6473 14.251C44.361 16.1135 44.1381 18.0953 44.0657 20.08V20.083C43.986 22.3179 44.1056 24.5398 44.5514 26.5842C44.978 28.5442 45.7072 30.3456 46.8498 31.8458C45.3766 34.0182 43.8842 35.9098 42.3785 37.5278C40.7901 39.2346 39.1899 40.6358 37.5838 41.7417C36.0427 42.8024 34.4957 43.5925 32.9486 44.1193C31.3868 44.6518 29.8236 44.9166 28.2662 44.9225C26.7266 44.9283 25.1795 44.6824 23.6369 44.1906C22.0707 43.6929 20.5089 42.9436 18.9574 41.9556C17.1875 40.8279 15.4308 39.3874 13.6963 37.6515C12.0076 35.9607 10.341 33.9891 8.70686 31.7483ZM9.66047 27.4907C9.2368 28.9545 8.64043 30.3179 7.82853 31.514C7.7252 31.658 7.71929 31.8559 7.82853 32.0073C9.54532 34.3834 11.299 36.4685 13.0778 38.251C14.8551 40.032 16.662 41.5103 18.4851 42.6729C20.1029 43.7046 21.7341 44.4845 23.3697 45.0054C24.9965 45.5219 26.6321 45.7839 28.2662 45.7766C29.918 45.7693 31.5743 45.4899 33.2262 44.9268C34.8485 44.3739 36.4664 43.5489 38.0739 42.4416C39.7361 41.2979 41.3835 39.8559 43.0103 38.1069C44.606 36.3928 46.184 34.3819 47.7385 32.0655C47.8388 31.9156 47.8359 31.7119 47.7163 31.5635C46.5546 30.1317 45.8209 28.3594 45.3958 26.4082C44.9647 24.4351 44.8511 22.283 44.9278 20.115V20.1106C44.9972 18.1768 45.2186 16.2256 45.5021 14.3776C45.787 12.518 46.1324 10.7865 46.4483 9.2878C46.4616 9.22814 46.4601 9.16411 46.4453 9.10009C46.3892 8.87164 46.1545 8.73195 45.9228 8.78579C44.2281 9.18884 42.4331 9.3489 40.6528 9.28051C38.8474 9.21067 37.0583 8.90511 35.402 8.37838C33.7738 7.86037 32.2711 7.12847 31.0001 6.19577C29.8132 5.32418 28.8286 4.27653 28.1378 3.06155C28.1024 2.99898 28.0492 2.94223 27.9813 2.90295C27.7761 2.78218 27.5104 2.84911 27.3879 3.05282C26.6793 4.2358 25.7198 5.24997 24.589 6.09536C23.3653 7.0106 21.9423 7.72796 20.4203 8.24742C18.7153 8.82945 16.879 9.16848 15.0529 9.26451C13.2033 9.362 11.3684 9.20922 9.69589 8.81053C9.6339 8.79598 9.56747 8.79452 9.50104 8.80907C9.2678 8.86 9.12018 9.08699 9.17185 9.31689C9.61175 11.255 10.0517 13.6326 10.31 16.1645C10.5122 18.1463 10.6023 20.2226 10.4916 22.2539C10.3941 24.0611 10.1358 25.8378 9.65899 27.4907H9.66047ZM8.76443 22.1666C8.66847 23.9389 8.4131 25.6704 7.93039 27.2506C7.50672 28.6417 6.9074 29.9134 6.08959 30.9873C5.92279 31.2041 5.83421 31.4674 5.82831 31.7366C5.82388 31.9956 5.89917 32.2604 6.06155 32.4889C7.89791 35.0804 9.78151 37.3532 11.6976 39.2928C13.6122 41.2295 15.5637 42.8373 17.5447 44.0989C19.3043 45.2208 21.0861 46.0705 22.8841 46.638C24.6702 47.2011 26.4697 47.4848 28.2765 47.4776C30.11 47.4703 31.9375 47.1647 33.7517 46.5521C35.5334 45.9497 37.3078 45.0476 39.0674 43.837C40.8757 42.5914 42.6634 41.02 44.4215 39.1109C46.1398 37.247 47.8344 35.0542 49.4981 32.5253C49.6826 32.2837 49.7697 31.9927 49.7564 31.7031C49.7446 31.4107 49.6309 31.1211 49.4154 30.8898C48.264 29.6559 47.5407 28.0335 47.1214 26.2044C46.6963 24.3449 46.5841 22.2699 46.6594 20.1688C46.7361 17.9993 47.0166 15.792 47.3591 13.7432C47.7016 11.6988 48.1105 9.79853 48.4426 8.2547L48.4455 8.23578C48.4662 8.13393 48.4736 8.02916 48.4677 7.92294C48.4618 7.81235 48.4411 7.70031 48.4057 7.59409C48.295 7.25797 48.0558 6.99751 47.7606 6.8491C47.4654 6.70068 47.1111 6.66284 46.7701 6.77197L46.6136 6.8229L46.5811 6.83601C44.9278 7.35692 43.1313 7.60428 41.3348 7.59264C39.4852 7.581 37.634 7.29434 35.9335 6.75451C34.2506 6.21905 32.7257 5.43476 31.5197 4.42349C30.4155 3.49806 29.5785 2.38058 29.1327 1.08848L29.1283 1.07537V1.07102L29.1017 0.992439C29.0988 0.980799 29.0943 0.970616 29.0899 0.958976L29.0855 0.945867C28.9777 0.649033 28.8272 0.420591 28.619 0.259078C28.3946 0.0830148 28.126 -0.00283859 27.7953 7.1551e-05H27.7658H27.7584C27.4646 0.00880197 27.2225 0.0859335 27.0188 0.23144C26.821 0.372582 26.6705 0.567563 26.5553 0.814925L26.5509 0.825103L26.5302 0.871675C26.5214 0.890591 26.511 0.915312 26.4992 0.947324C26.0106 2.25689 25.1736 3.37292 24.1063 4.29253C22.9254 5.30962 21.461 6.09245 19.8638 6.6381C18.0747 7.24923 16.1306 7.56644 14.2307 7.58972C12.3235 7.61446 10.462 7.34383 8.84709 6.78217L8.82052 6.77343C8.71276 6.73851 8.59762 6.71668 8.47805 6.71086C8.357 6.70503 8.23153 6.71669 8.10753 6.74579C7.75767 6.83019 7.47572 7.04554 7.30449 7.32636C7.13325 7.60574 7.06978 7.95058 7.15539 8.29397C7.64106 10.2147 8.19167 12.8163 8.52086 15.6508C8.7659 17.7592 8.88843 19.9927 8.77181 22.1637L8.76443 22.1666ZM8.76 27.4951C8.30829 28.9764 7.66467 30.3368 6.77897 31.4994V31.5023C6.72287 31.5751 6.69335 31.6624 6.69187 31.7497C6.6904 31.837 6.71549 31.9258 6.76863 32.0014C8.57695 34.5507 10.4296 36.7901 12.3161 38.6977C14.1894 40.5922 16.0922 42.1607 18.0127 43.3844C19.7088 44.4656 21.4226 45.2833 23.1439 45.8261H23.1453C24.8459 46.363 26.5568 46.6322 28.2692 46.6249C30.0022 46.6176 31.7367 46.3266 33.4668 45.7431C35.1791 45.164 36.8827 44.2982 38.5684 43.1371C40.3192 41.9323 42.0581 40.4016 43.7764 38.5362C45.4696 36.6984 47.1391 34.5376 48.7777 32.0466L48.7984 32.0174C48.8618 31.936 48.8928 31.8356 48.8884 31.7352C48.884 31.6391 48.8456 31.5431 48.7733 31.466C47.5111 30.1127 46.7229 28.3579 46.2726 26.3907C45.8298 24.454 45.7131 22.3078 45.7899 20.1397C45.8696 17.9236 46.153 15.6814 46.4999 13.6064C46.8483 11.5257 47.2572 9.62391 47.5908 8.07862L47.5938 8.06699C47.5997 8.03498 47.6026 8.0015 47.5997 7.96804C47.5982 7.93312 47.5908 7.89674 47.579 7.85891C47.5421 7.74832 47.4624 7.66103 47.3635 7.61155C47.2646 7.56208 47.1465 7.54898 47.0328 7.58535L46.8764 7.63484C45.1271 8.19213 43.2258 8.45549 41.3274 8.44239C39.3877 8.43075 37.4466 8.13102 35.6648 7.56354C33.8757 6.99461 32.2489 6.15649 30.9558 5.07101C29.735 4.04809 28.8065 2.804 28.309 1.35912L28.3002 1.33001L28.281 1.27326L28.2751 1.25725L28.2692 1.23979L28.2647 1.22816C28.2116 1.0812 28.1496 0.979345 28.0758 0.921142C28.0123 0.87167 27.9208 0.846932 27.7983 0.846932H27.7791C27.6669 0.851298 27.5827 0.874577 27.5207 0.918229C27.4528 0.966247 27.3923 1.05064 27.3377 1.16704L27.3215 1.19761L27.3155 1.20924H27.317L27.3067 1.23399C26.7649 2.68469 25.8438 3.91566 24.6688 4.92839C23.4022 6.0197 21.8389 6.85636 20.1384 7.43839C18.2622 8.08008 16.225 8.4133 14.2337 8.43804C12.2246 8.46423 10.2598 8.17902 8.55186 7.5839C8.512 7.5708 8.47067 7.56208 8.42933 7.55917C8.388 7.55917 8.34519 7.56208 8.30238 7.57226C8.18872 7.59991 8.09572 7.67266 8.03815 7.76578C7.98058 7.85891 7.95843 7.97532 7.98648 8.08882C8.47952 10.0386 9.03752 12.6781 9.37261 15.5519C9.62209 17.6981 9.74756 19.9782 9.62651 22.2045C9.52761 24.0451 9.26042 25.845 8.75852 27.4893L8.76 27.4951Z" fill="url(#paint1_linear_789_11434)"/>
<path fill-rule="evenodd" clip-rule="evenodd" d="M8.18243 31.7607C9.96565 29.1416 10.7377 25.7659 10.9252 22.2766C11.1776 17.6029 10.3864 12.711 9.59513 9.22607C13.0007 10.038 17.0513 9.85322 20.5631 8.65278C23.5893 7.61677 26.2331 5.82849 27.7624 3.27194C29.249 5.88088 32.0227 7.75208 35.2732 8.78518C38.6374 9.85466 42.5346 10.0322 46.0287 9.20135C45.3895 12.2293 44.6396 16.1784 44.4993 20.0955C44.3414 24.5014 44.9658 28.8492 47.3823 31.8291C44.272 36.4665 41.0702 39.8611 37.8314 42.0917C34.6606 44.2758 31.4558 45.3365 28.2688 45.3482C25.0788 45.3613 21.8784 44.3238 18.7238 42.3129C15.1219 40.0183 11.5835 36.4635 8.18391 31.7593L8.18243 31.7607ZM9.19804 22.1893C9.01352 25.6044 8.24443 28.871 6.43464 31.2457C6.21469 31.5323 6.1955 31.9368 6.41545 32.2467C10.0513 37.3773 13.8687 41.2522 17.7791 43.7447C21.22 45.9375 24.7363 47.0681 28.2732 47.0535C31.8146 47.039 35.3485 45.8793 38.819 43.4886C42.3456 41.0601 45.8072 37.354 49.1434 32.2817C49.3973 31.9586 49.3855 31.4916 49.0962 31.1816C46.6826 28.596 46.0744 24.4272 46.2265 20.1566C46.3829 15.7724 47.3513 11.2603 48.0186 8.16969C48.0495 8.02855 48.0436 7.87723 47.9949 7.72882C47.8473 7.28065 47.3587 7.03474 46.904 7.18025L46.749 7.22972C43.2977 8.32975 39.2471 8.257 35.8017 7.16134C32.4523 6.09622 29.7021 4.06785 28.7234 1.2261L28.7161 1.20281L28.6895 1.12425L28.6836 1.10679C28.5197 0.645533 28.2511 0.422899 27.7979 0.425809H27.7713C27.3654 0.43745 27.1188 0.629523 26.9491 0.99329C26.9328 1.0253 26.9166 1.05876 26.9048 1.09368C25.8257 3.98054 23.1612 5.96089 20.0037 7.04055C16.328 8.29773 12.0146 8.33848 8.70205 7.18606C8.54852 7.13222 8.37729 7.12059 8.20753 7.16279C7.74401 7.27483 7.46058 7.73754 7.57425 8.19443C8.42748 11.5716 9.47999 17.0384 9.20247 22.1878L9.19804 22.1893Z" fill="url(#paint2_linear_789_11434)"/>
<path fill-rule="evenodd" clip-rule="evenodd" d="M7.12402 31.7572C11.8906 25.5019 9.86676 13.7493 8.40977 7.99014C14.9625 10.2717 25.1969 8.12255 27.7152 1.38703C27.7757 1.24297 27.8127 1.23861 27.8658 1.38703C29.9575 7.7646 39.8834 10.3954 47.1727 7.99014C45.8279 14.2251 43.2638 26.1901 48.4599 31.7572C35.198 51.9754 20.0745 50.0271 7.12402 31.7572Z" stroke="#8F6137" stroke-width="0.71" stroke-miterlimit="2.61"/>
<path fill-rule="evenodd" clip-rule="evenodd" d="M7.12402 31.7572C11.8906 25.5019 9.86676 13.7493 8.40978 7.99014C14.9625 10.2717 25.1969 8.12255 27.7152 1.38703C27.7757 1.24297 27.8127 1.23861 27.8658 1.38703C29.9575 7.7646 39.8834 10.3954 47.1727 7.99014C45.8279 14.2251 43.2638 26.1901 48.4599 31.7572C35.198 51.9754 20.0745 50.0271 7.12402 31.7572Z" fill="url(#paint3_radial_789_11434)"/>
<path fill-rule="evenodd" clip-rule="evenodd" d="M7.12402 31.7589C11.8906 25.5035 9.86676 13.7509 8.40977 7.99178C14.9625 10.2733 25.1969 8.12419 27.7152 1.38867C27.7713 1.25481 27.8067 1.24172 27.8555 1.36103V46.1947C20.7373 46.0317 13.6546 40.9724 7.12402 31.7589Z" fill="url(#paint4_radial_789_11434)"/>
<g clip-path="url(#clip0_789_11434)">
<path d="M18.6719 31.3232C18.4024 30.8397 18.133 30.3563 17.8288 29.7902C17.6725 29.503 17.551 29.2985 17.4294 29.0939C17.1526 28.423 16.8854 27.7479 16.5931 27.0838C16.5073 26.8887 16.1744 25.6771 16.0226 25.458C15.8508 24.3303 15.8824 24.2916 15.7118 23.1565C15.6193 22.2825 15.5531 21.4569 15.4764 20.5691C15.4682 20.3591 15.4702 20.2112 15.4716 19.9645C15.4463 19.7507 15.4217 19.6357 15.397 19.5207C15.397 19.5207 15.4023 19.4578 15.3965 19.3754C15.3858 19.1883 15.3809 19.0836 15.376 18.9789C15.4021 18.2822 15.4282 17.5855 15.4396 16.8276C15.4331 16.6621 15.4411 16.5578 15.4514 16.3577C15.4452 16.1993 15.4368 16.1367 15.4283 16.0741C15.427 15.9183 15.4258 15.7626 15.4318 15.5214C15.4459 15.325 15.4527 15.214 15.4596 15.103C15.4679 14.8202 15.4762 14.5374 15.4858 14.1336C15.4931 13.6854 15.4991 13.3581 15.5685 13.0285C16.3685 12.9763 17.105 12.9263 17.9022 12.8835C20.0049 12.7502 21.977 12.3034 23.827 11.4203C24.5838 11.059 25.276 10.5615 26.0413 10.1232C26.6133 9.80528 27.2144 9.56761 27.6506 9.15469C28.1679 8.66498 28.5525 8.63602 29.0315 9.19237C29.2808 9.38261 29.5046 9.53473 29.7549 9.72269C29.9904 9.8989 30.1994 10.0392 30.4519 10.2081C30.8783 10.4363 31.2612 10.636 31.673 10.8757C32.3784 11.2008 33.0548 11.4859 33.773 11.8007C34.6528 12.0716 35.4908 12.3127 36.3288 12.5539C37.1267 12.669 37.9245 12.7842 38.7827 12.8897C39.5897 12.9531 40.3363 13.0261 41.2045 13.1111C41.2045 14.1234 41.2045 15.1742 41.2175 16.2888C41.227 16.59 41.2236 16.8273 41.219 17.1775C41.2254 17.44 41.2328 17.5896 41.2403 17.7392C41.2324 17.8865 41.2245 18.0339 41.2162 18.2941C41.2231 18.6462 41.2306 18.8854 41.238 19.1245C40.9916 21.2668 40.7937 23.4162 40.4756 25.5477C40.3429 26.4375 39.9547 27.2891 39.6706 28.1966C39.0418 27.5928 38.4848 27.058 37.8669 26.4532C37.7447 26.2003 37.5902 25.9882 37.6365 25.8389C38.237 23.9054 38.4372 21.9134 38.496 19.9064C38.5395 18.4193 38.5045 16.9299 38.5045 15.4683C37.3798 15.2924 36.3845 15.1368 35.3401 14.9601C34.238 14.615 33.1851 14.2911 32.0978 13.9299C31.2444 13.4928 30.4256 13.093 29.5819 12.6616C29.4384 12.5716 29.3195 12.5133 29.1734 12.4149C28.2606 11.8 28.2606 11.8 27.7224 12.4528C26.6932 12.96 25.718 13.4677 24.6881 13.9813C24.5214 14.0048 24.4028 14.0044 24.2983 14.0428C22.4527 14.7195 20.5701 15.228 18.6031 15.4067C18.4355 15.422 18.1826 15.7467 18.1655 15.9446C18.1105 16.5836 18.1472 17.2306 18.1394 17.9208C18.1358 18.0294 18.1413 18.0917 18.139 18.2113C18.1389 18.4604 18.1467 18.6523 18.1455 18.8905C18.1422 18.9993 18.1479 19.0617 18.1443 19.1722C18.1647 19.5181 18.1944 19.8158 18.2254 20.1761C18.2856 21.0226 18.3445 21.8064 18.3952 22.624C18.3908 22.6805 18.3945 22.7033 18.3946 22.7839C18.7113 24.0964 19.0316 25.351 19.3574 26.6568C19.5765 27.1401 19.79 27.5723 20.0253 28.0509C20.3233 28.5703 20.5995 29.0432 20.8854 29.5594C21.021 29.7614 21.147 29.92 21.2918 30.1231C21.5432 30.3955 21.65 30.5943 21.3703 30.9047C20.9442 31.3773 20.5782 31.9043 20.1343 32.4201C19.846 32.3083 19.61 32.1847 19.3701 32.0168C19.1347 31.7561 18.9033 31.5397 18.6719 31.3232Z" fill="url(#paint5_linear_789_11434)"/>
<path d="M26.936 34.7472C27.2765 35.0556 27.617 35.364 27.9982 35.7093C29.3311 34.4285 30.6462 33.1663 31.9595 31.9022C33.2431 30.6667 34.5226 29.427 35.8106 28.1961C35.9492 28.0636 36.1326 27.9771 36.3402 27.8866C36.9472 28.5004 37.5091 29.097 38.0073 29.6258C37.0642 30.6052 36.1261 31.5794 35.1698 32.595C32.9844 34.7074 30.8202 36.7815 28.6452 38.8444C28.4671 39.0133 28.2161 39.1066 27.9567 39.2203C26.3375 37.8997 24.7604 36.5938 23.1367 35.2802C22.5788 34.7472 22.0675 34.222 21.5188 33.6582C22.0596 33.0295 22.6253 32.3719 23.2287 31.6705C23.6178 31.9985 23.9815 32.3051 24.4161 32.6656C25.3033 33.3953 26.1196 34.0712 26.936 34.7472Z" fill="url(#paint6_linear_789_11434)"/>
</g>
<g opacity="0.5" clip-path="url(#clip1_789_11434)">
<path d="M18.6719 31.3232C18.4024 30.8397 18.133 30.3563 17.8288 29.7902C17.6725 29.503 17.551 29.2985 17.4294 29.0939C17.1526 28.423 16.8854 27.7479 16.5931 27.0838C16.5073 26.8887 16.1744 25.6771 16.0226 25.458C15.8508 24.3303 15.8824 24.2916 15.7118 23.1565C15.6193 22.2825 15.5531 21.4569 15.4764 20.5691C15.4682 20.3591 15.4702 20.2112 15.4716 19.9645C15.4463 19.7507 15.4217 19.6357 15.397 19.5207C15.397 19.5207 15.4023 19.4578 15.3965 19.3754C15.3858 19.1883 15.3809 19.0836 15.376 18.9789C15.4021 18.2822 15.4282 17.5855 15.4396 16.8276C15.4331 16.6621 15.4411 16.5578 15.4514 16.3577C15.4452 16.1993 15.4368 16.1367 15.4283 16.0741C15.427 15.9183 15.4258 15.7626 15.4318 15.5214C15.4459 15.325 15.4527 15.214 15.4596 15.103C15.4679 14.8202 15.4762 14.5374 15.4858 14.1336C15.4931 13.6854 15.4991 13.3581 15.5685 13.0285C16.3685 12.9763 17.105 12.9263 17.9022 12.8835C20.0049 12.7502 21.977 12.3034 23.827 11.4203C24.5838 11.059 25.276 10.5615 26.0413 10.1232C26.6133 9.80528 27.2144 9.56761 27.6506 9.15469C28.1679 8.66498 28.5525 8.63602 29.0315 9.19237C29.2808 9.38261 29.5046 9.53473 29.7549 9.72269C29.9904 9.8989 30.1994 10.0392 30.4519 10.2081C30.8783 10.4363 31.2612 10.636 31.673 10.8757C32.3784 11.2008 33.0548 11.4859 33.773 11.8007C34.6528 12.0716 35.4908 12.3127 36.3288 12.5539C37.1267 12.669 37.9245 12.7842 38.7827 12.8897C39.5897 12.9531 40.3363 13.0261 41.2045 13.1111C41.2045 14.1234 41.2045 15.1742 41.2175 16.2888C41.227 16.59 41.2236 16.8273 41.219 17.1775C41.2254 17.44 41.2328 17.5896 41.2403 17.7392C41.2324 17.8865 41.2245 18.0339 41.2162 18.2941C41.2231 18.6462 41.2306 18.8854 41.238 19.1245C40.9916 21.2668 40.7937 23.4162 40.4756 25.5477C40.3429 26.4375 39.9547 27.2891 39.6706 28.1966C39.0418 27.5928 38.4848 27.058 37.8669 26.4532C37.7447 26.2003 37.5902 25.9882 37.6365 25.8389C38.237 23.9054 38.4372 21.9134 38.496 19.9064C38.5395 18.4193 38.5045 16.9299 38.5045 15.4683C37.3797 15.2924 36.3845 15.1368 35.3401 14.9601C34.238 14.615 33.1851 14.2911 32.0978 13.9299C31.2444 13.4928 30.4256 13.093 29.5819 12.6616C29.4384 12.5716 29.3195 12.5133 29.1734 12.4149C28.2606 11.8 28.2606 11.8 27.7224 12.4528C26.6932 12.96 25.718 13.4677 24.6881 13.9813C24.5214 14.0048 24.4028 14.0044 24.2983 14.0428C22.4527 14.7195 20.5701 15.228 18.6031 15.4067C18.4355 15.422 18.1826 15.7467 18.1655 15.9446C18.1105 16.5836 18.1472 17.2306 18.1394 17.9208C18.1358 18.0294 18.1413 18.0917 18.139 18.2113C18.1389 18.4604 18.1467 18.6523 18.1455 18.8905C18.1422 18.9993 18.1479 19.0617 18.1443 19.1722C18.1647 19.5181 18.1944 19.8158 18.2254 20.1761C18.2856 21.0226 18.3445 21.8064 18.3952 22.624C18.3908 22.6805 18.3945 22.7033 18.3946 22.7839C18.7113 24.0964 19.0316 25.351 19.3574 26.6568C19.5765 27.1401 19.79 27.5723 20.0253 28.0509C20.3233 28.5703 20.5995 29.0432 20.8854 29.5594C21.021 29.7614 21.147 29.92 21.2918 30.1231C21.5432 30.3955 21.65 30.5943 21.3703 30.9047C20.9442 31.3773 20.5782 31.9043 20.1343 32.4201C19.846 32.3083 19.61 32.1847 19.3701 32.0168C19.1347 31.7561 18.9033 31.5397 18.6719 31.3232Z" fill="url(#paint7_linear_789_11434)"/>
<path d="M26.936 34.7472C27.2765 35.0556 27.617 35.364 27.9982 35.7093C29.3311 34.4285 30.6462 33.1663 31.9595 31.9022C33.2431 30.6667 34.5226 29.427 35.8106 28.1961C35.9492 28.0636 36.1326 27.9771 36.3402 27.8866C36.9472 28.5004 37.5091 29.097 38.0073 29.6258C37.0642 30.6052 36.1261 31.5794 35.1698 32.595C32.9844 34.7074 30.8202 36.7815 28.6452 38.8444C28.4671 39.0133 28.2161 39.1066 27.9567 39.2203C26.3375 37.8997 24.7604 36.5938 23.1367 35.2802C22.5788 34.7472 22.0675 34.222 21.5188 33.6582C22.0596 33.0295 22.6253 32.3719 23.2287 31.6705C23.6178 31.9985 23.9815 32.3051 24.4161 32.6656C25.3033 33.3953 26.1196 34.0712 26.936 34.7472Z" fill="url(#paint8_linear_789_11434)"/>
</g>
<path d="M24.9941 19.7628L27.6058 18.8496H29.309V28.6838H27.3503V20.9007L25.4767 21.4205L24.9941 19.7628Z" fill="url(#paint9_linear_789_11434)"/>
<defs>
<linearGradient id="paint0_linear_789_11434" x1="27.7939" y1="48.0016" x2="27.7939" y2="0.407702" gradientUnits="userSpaceOnUse">
<stop stop-color="#DBA73E"/>
<stop offset="0.16" stop-color="#D89D3A"/>
<stop offset="0.3" stop-color="#A46B28"/>
<stop offset="0.46" stop-color="#8E5723"/>
<stop offset="0.49" stop-color="#F4F3B8"/>
<stop offset="0.56" stop-color="#F7ED9A"/>
<stop offset="0.69" stop-color="#D5B767"/>
<stop offset="0.75" stop-color="#A76F29"/>
<stop offset="0.85" stop-color="#D0AB5B"/>
<stop offset="1" stop-color="#E0C77D"/>
</linearGradient>
<linearGradient id="paint1_linear_789_11434" x1="27.7938" y1="46.8985" x2="27.7938" y2="0.55591" gradientUnits="userSpaceOnUse">
<stop stop-color="#DBA73E"/>
<stop offset="0.16" stop-color="#D89D3A"/>
<stop offset="0.3" stop-color="#A46B28"/>
<stop offset="0.49" stop-color="#8E5723"/>
<stop offset="0.54" stop-color="#F4F3B8"/>
<stop offset="0.56" stop-color="#F7ED9A"/>
<stop offset="0.69" stop-color="#D5B767"/>
<stop offset="0.75" stop-color="#A76F29"/>
<stop offset="0.85" stop-color="#D0AB5B"/>
<stop offset="1" stop-color="#E0C77D"/>
</linearGradient>
<linearGradient id="paint2_linear_789_11434" x1="41.7625" y1="43.8495" x2="16.8409" y2="1.77059" gradientUnits="userSpaceOnUse">
<stop stop-color="#482A0F"/>
<stop offset="0.1" stop-color="#A77129"/>
<stop offset="0.15" stop-color="white"/>
<stop offset="0.22" stop-color="#DA9E41"/>
<stop offset="0.34" stop-color="#8E5923"/>
<stop offset="0.5" stop-color="#D8A64D"/>
<stop offset="0.66" stop-color="#F5E380"/>
<stop offset="0.72" stop-color="#DAC164"/>
<stop offset="0.77" stop-color="white"/>
<stop offset="0.83" stop-color="#A0752B"/>
<stop offset="1" stop-color="#664219"/>
</linearGradient>
<radialGradient id="paint3_radial_789_11434" cx="0" cy="0" r="1" gradientUnits="userSpaceOnUse" gradientTransform="translate(27.792 25.4335) scale(33.7927 33.3095)">
<stop stop-color="#493211"/>
<stop offset="0.4" stop-color="#241909"/>
<stop offset="0.78" stop-color="#0A0604"/>
<stop offset="1" stop-color="#000002"/>
</radialGradient>
<radialGradient id="paint4_radial_789_11434" cx="0" cy="0" r="1" gradientUnits="userSpaceOnUse" gradientTransform="translate(28.2053 30.5177) scale(39.6546 39.0876)">
<stop stop-color="#937551"/>
<stop offset="1" stop-color="#393939"/>
</radialGradient>
<linearGradient id="paint5_linear_789_11434" x1="59.7148" y1="41.8443" x2="-5.11924" y2="14.0833" gradientUnits="userSpaceOnUse">
<stop stop-color="#482A0F"/>
<stop offset="0.1" stop-color="#A77129"/>
<stop offset="0.15" stop-color="white"/>
<stop offset="0.22" stop-color="#DA9E41"/>
<stop offset="0.34" stop-color="#8E5923"/>
<stop offset="0.5" stop-color="#D8A64D"/>
<stop offset="0.66" stop-color="#F5E380"/>
<stop offset="0.72" stop-color="#DAC164"/>
<stop offset="0.77" stop-color="white"/>
<stop offset="0.83" stop-color="#A0752B"/>
<stop offset="1" stop-color="#664219"/>
</linearGradient>
<linearGradient id="paint6_linear_789_11434" x1="59.7148" y1="41.8443" x2="-5.11924" y2="14.0833" gradientUnits="userSpaceOnUse">
<stop stop-color="#482A0F"/>
<stop offset="0.1" stop-color="#A77129"/>
<stop offset="0.15" stop-color="white"/>
<stop offset="0.22" stop-color="#DA9E41"/>
<stop offset="0.34" stop-color="#8E5923"/>
<stop offset="0.5" stop-color="#D8A64D"/>
<stop offset="0.66" stop-color="#F5E380"/>
<stop offset="0.72" stop-color="#DAC164"/>
<stop offset="0.77" stop-color="white"/>
<stop offset="0.83" stop-color="#A0752B"/>
<stop offset="1" stop-color="#664219"/>
</linearGradient>
<linearGradient id="paint7_linear_789_11434" x1="59.7148" y1="41.8443" x2="-5.11924" y2="14.0833" gradientUnits="userSpaceOnUse">
<stop stop-color="#482A0F"/>
<stop offset="0.1" stop-color="#A77129"/>
<stop offset="0.15" stop-color="white"/>
<stop offset="0.22" stop-color="#DA9E41"/>
<stop offset="0.34" stop-color="#8E5923"/>
<stop offset="0.5" stop-color="#D8A64D"/>
<stop offset="0.66" stop-color="#F5E380"/>
<stop offset="0.72" stop-color="#DAC164"/>
<stop offset="0.77" stop-color="white"/>
<stop offset="0.83" stop-color="#A0752B"/>
<stop offset="1" stop-color="#664219"/>
</linearGradient>
<linearGradient id="paint8_linear_789_11434" x1="59.7148" y1="41.8443" x2="-5.11924" y2="14.0833" gradientUnits="userSpaceOnUse">
<stop stop-color="#482A0F"/>
<stop offset="0.1" stop-color="#A77129"/>
<stop offset="0.15" stop-color="white"/>
<stop offset="0.22" stop-color="#DA9E41"/>
<stop offset="0.34" stop-color="#8E5923"/>
<stop offset="0.5" stop-color="#D8A64D"/>
<stop offset="0.66" stop-color="#F5E380"/>
<stop offset="0.72" stop-color="#DAC164"/>
<stop offset="0.77" stop-color="white"/>
<stop offset="0.83" stop-color="#A0752B"/>
<stop offset="1" stop-color="#664219"/>
</linearGradient>
<linearGradient id="paint9_linear_789_11434" x1="36.3701" y1="43.9079" x2="16.2199" y2="41.583" gradientUnits="userSpaceOnUse">
<stop stop-color="#482A0F"/>
<stop offset="0.1" stop-color="#A77129"/>
<stop offset="0.15" stop-color="white"/>
<stop offset="0.22" stop-color="#DA9E41"/>
<stop offset="0.34" stop-color="#8E5923"/>
<stop offset="0.5" stop-color="#D8A64D"/>
<stop offset="0.66" stop-color="#F5E380"/>
<stop offset="0.72" stop-color="#DAC164"/>
<stop offset="0.77" stop-color="white"/>
<stop offset="0.83" stop-color="#A0752B"/>
<stop offset="1" stop-color="#664219"/>
</linearGradient>
<clipPath id="clip0_789_11434">
<rect width="12.4601" height="30.439" fill="white" transform="translate(15.376 8.78125)"/>
</clipPath>
<clipPath id="clip1_789_11434">
<rect width="13.5206" height="30.439" fill="white" transform="matrix(-1 0 0 1 41.3574 8.78125)"/>
</clipPath>
</defs>
</svg>
