<svg width="23" height="22" viewBox="0 0 23 22" fill="none" xmlns="http://www.w3.org/2000/svg">
<path fill-rule="evenodd" clip-rule="evenodd" d="M11.6605 20.3973C10.0639 20.3973 4.06009 15.4167 4.63426 8.66649C4.97393 5.25356 5.2067 4.06607 5.2067 4.06607L11.5174 3.06598L17.9005 4.06607C17.9005 4.06607 18.197 5.10941 18.5833 8.41421C19.3471 14.9409 13.2571 20.3973 11.6588 20.3973H11.6605Z" fill="black"/>
<path fill-rule="evenodd" clip-rule="evenodd" d="M14.1656 18.9167C13.6922 19.2708 13.2517 19.2546 13.1186 19.3069L12.8267 19.4858L12.8042 19.3991C13.3795 19.0269 12.8094 18.3694 13.6266 17.8726C13.9081 17.701 14.2969 17.4951 14.5767 17.3253C14.9965 17.0723 14.9568 16.805 15.1278 16.5141C15.2021 16.7923 14.575 18.6638 14.1656 18.9167ZM15.9571 4.28256C15.8759 4.1254 15.8776 3.91043 15.5649 3.8201C15.4111 3.77494 15.2021 3.72797 15.0484 3.68462C14.8186 3.61959 14.8065 3.48771 14.6907 3.3721C14.689 3.51481 15.2073 4.3205 15.4319 4.38553C15.6979 4.49211 15.9052 4.42708 15.9743 4.4343L15.9899 4.43791C16.3872 4.73237 16.7587 5.06476 17.0973 5.43147C18.5001 6.94529 19.3673 9.03718 19.3673 11.3476C19.3673 13.6581 18.5001 15.75 17.0973 17.2638C15.6962 18.7776 13.7579 19.7134 11.6191 19.7134C9.48035 19.7134 7.54373 18.7776 6.14094 17.2638C4.73814 15.75 3.87089 13.6581 3.87089 11.3476C3.87089 9.03718 4.73814 6.94529 6.14094 5.43147C6.47954 5.06476 6.84924 4.73417 7.24659 4.43972L7.26732 4.4343C7.33642 4.42708 7.54373 4.49211 7.80978 4.38553C8.03437 4.31869 8.55437 3.513 8.55092 3.3721C8.43517 3.48771 8.42307 3.61959 8.19331 3.68462C8.03955 3.72797 7.83224 3.77675 7.67676 3.8201C7.36752 3.91043 7.36407 4.12359 7.28632 4.27895C6.84579 4.59327 6.43808 4.95457 6.06492 5.3556C4.64485 6.88929 3.76551 9.00647 3.76551 11.3458C3.76551 13.6852 4.64485 15.8024 6.06492 17.3361C7.485 18.8698 9.44753 19.8182 11.6156 19.8182C13.7838 19.8182 15.7463 18.8698 17.1664 17.3361C18.5864 15.8024 19.4658 13.6852 19.4658 11.3458C19.4658 9.00647 18.5864 6.88748 17.1664 5.3556C16.7967 4.95637 16.389 4.59688 15.9519 4.28256H15.9571ZM12.7593 21.379C12.9217 21.379 13.053 21.2417 13.053 21.0719C13.053 20.9021 12.9217 20.7648 12.7593 20.7648C12.5969 20.7648 12.4656 20.9021 12.4656 21.0719C12.4656 21.2417 12.5969 21.379 12.7593 21.379ZM10.4944 21.379C10.6568 21.379 10.7881 21.2417 10.7881 21.0719C10.7881 20.9021 10.6568 20.7648 10.4944 20.7648C10.3321 20.7648 10.2008 20.9021 10.2008 21.0719C10.2008 21.2417 10.3321 21.379 10.4944 21.379ZM11.645 21.5C11.9283 21.5 12.1598 21.2579 12.1598 20.9617C12.1598 20.6654 11.9283 20.4233 11.645 20.4233C11.3617 20.4233 11.1302 20.6654 11.1302 20.9617C11.1302 21.2579 11.3617 21.5 11.645 21.5ZM7.24659 4.87147C7.45044 4.75044 8.36952 4.92927 8.46626 5.03043C8.3056 5.03585 8.2054 4.95095 7.99982 5.0774C7.86161 5.16231 7.68194 5.28515 7.54201 5.36825C7.13775 5.61212 7.00991 5.19663 6.71622 5.36283L6.68512 5.33212L6.83024 5.2454C6.88552 5.19844 6.98572 4.99792 7.24659 4.87147ZM7.08419 4.08204C6.92698 4.33133 6.72313 4.40359 6.6713 4.45237L6.56765 4.58785L6.54346 4.55172C6.74386 4.27533 6.37243 4.08024 6.66266 3.70268C6.76286 3.57262 6.90626 3.40642 7.00646 3.27816C7.15676 3.08487 7.09283 2.96926 7.1222 2.80487C7.2034 2.91868 7.23104 3.89056 7.08592 4.08024L7.08419 4.08204ZM5.99237 4.95456C5.81615 5.23276 5.58984 5.31405 5.5311 5.36825L5.41535 5.51999L5.38771 5.48025C5.61057 5.17134 5.19768 4.95276 5.52073 4.53185C5.63303 4.38553 5.79196 4.20127 5.90426 4.05675C6.07183 3.84178 6.001 3.71352 6.0321 3.52926C6.12193 3.65571 6.15476 4.73959 5.99237 4.95276V4.95456ZM6.02 5.9427C6.2204 5.72954 7.35888 5.61934 7.504 5.70425C7.31742 5.76567 7.1723 5.70244 6.97017 5.92283C6.83369 6.06915 6.66267 6.2769 6.52619 6.42503C6.12884 6.85135 5.84552 6.40877 5.55356 6.70503L5.50691 6.67974L5.6503 6.528C5.7004 6.45393 5.75396 6.18296 6.02173 5.94451L6.02 5.9427ZM5.05947 5.80722C4.95927 6.17935 4.73641 6.35277 4.68977 6.43406L4.61375 6.64361L4.57056 6.60929C4.71395 6.18658 4.18186 6.09806 4.3978 5.51457C4.47209 5.31225 4.58611 5.0503 4.6604 4.84979C4.77269 4.54991 4.65003 4.4343 4.62412 4.22114C4.76578 4.32772 5.16658 5.51276 5.0612 5.80722H5.05947ZM4.39089 6.94529C4.39608 7.38426 4.20432 7.64801 4.1784 7.75278L4.15767 8.00749L4.09893 7.98582C4.12657 7.47639 3.52019 7.55769 3.5772 6.84774C3.59621 6.60206 3.64112 6.27871 3.66185 6.03483C3.69295 5.66993 3.52537 5.58502 3.43036 5.36102C3.61866 5.42967 4.41681 6.58942 4.38917 6.9471L4.39089 6.94529ZM4.93163 7.5631C5.09747 7.256 6.35343 6.76826 6.54174 6.82064C6.34825 6.95071 6.16685 6.92361 6.001 7.23794C5.89044 7.44749 5.75741 7.73653 5.64339 7.94788C5.3186 8.55847 4.86771 8.14659 4.62412 8.57653L4.56538 8.56208L4.68285 8.3435C4.71741 8.24414 4.70013 7.91897 4.93336 7.56491L4.93163 7.5631ZM3.69295 8.25859C3.79487 8.67769 3.67049 8.97756 3.66876 9.08415L3.70677 9.33344L3.6463 9.32621C3.55993 8.83124 2.99674 9.05705 2.89308 8.36156C2.8568 8.1213 2.82743 7.79975 2.79288 7.5613C2.74105 7.20542 2.56138 7.16387 2.42145 6.97058C2.61666 6.99226 3.63939 7.90814 3.69295 8.25859ZM4.3287 9.63512C4.41163 9.2937 5.50173 8.47898 5.69695 8.47718C5.54146 8.65602 5.36007 8.6795 5.27887 9.02815C5.22532 9.26118 5.16831 9.57731 5.1113 9.81035C4.95063 10.4878 4.41162 10.2132 4.28378 10.6955H4.22332L4.28205 10.4553C4.29069 10.3505 4.19222 10.0416 4.3287 9.63512ZM3.33707 9.70196C3.21268 9.37318 2.02583 8.7084 1.82889 8.73189C2.0051 8.88905 2.18995 8.88905 2.31261 9.22505C2.39553 9.45086 2.49055 9.75796 2.57521 9.98377C2.81879 10.6377 3.32324 10.2927 3.50982 10.7551L3.57029 10.7479L3.48219 10.5149C3.46146 10.4101 3.52019 10.0903 3.33534 9.70196H3.33707ZM3.08139 11.214C3.38371 11.5608 3.40962 11.9149 3.46145 12.0179L3.61866 12.2364L3.55647 12.2617C3.23169 11.8354 2.80152 12.3502 2.36444 11.7397C2.21414 11.5283 2.02756 11.2375 1.87898 11.0279C1.65613 10.7136 1.46437 10.7714 1.23633 10.6594C1.43327 10.5745 2.86026 10.9087 3.08139 11.214ZM4.19913 11.8029C4.19395 11.4235 5.11129 10.2511 5.31342 10.1897C5.20113 10.4227 5.018 10.5004 5.02664 10.8888C5.03355 11.1471 5.05947 11.494 5.06465 11.7559C5.0802 12.511 4.44445 12.3846 4.44099 12.9247L4.37707 12.9446L4.37189 12.6736C4.35116 12.5616 4.16631 12.2689 4.1974 11.8047L4.19913 11.8029ZM3.39753 12.9572C3.74478 13.3564 3.77415 13.7629 3.83289 13.8803L4.01255 14.1296L3.94172 14.1585C3.57029 13.669 3.0762 14.2597 2.57348 13.5588C2.40072 13.3167 2.1865 12.9825 2.01546 12.7404C1.75978 12.3791 1.53865 12.446 1.27606 12.3177C1.50237 12.2202 3.14012 12.605 3.39408 12.9554L3.39753 12.9572ZM4.6293 14.2814C4.54465 13.8984 5.23395 12.5038 5.42744 12.3972C5.36007 12.6573 5.19076 12.7784 5.2806 13.1686C5.34106 13.4305 5.43781 13.7737 5.49654 14.0375C5.66758 14.798 4.99728 14.8125 5.10439 15.3616L5.04392 15.3959L4.98345 15.1232C4.94026 15.013 4.69149 14.7583 4.6293 14.2814ZM3.86398 14.6354C4.2786 14.9552 4.38571 15.3472 4.46518 15.4501L4.68977 15.6579L4.62585 15.7012C4.16804 15.2984 3.7966 15.9794 3.17122 15.3959C2.95527 15.1954 2.68404 14.91 2.46982 14.7095C2.15022 14.4096 1.94636 14.518 1.66649 14.4475C1.87035 14.3048 3.54783 14.3428 3.86398 14.6336V14.6354ZM4.48591 16.1709C4.94891 16.4076 5.12166 16.7725 5.21841 16.8592L5.47409 17.0218L5.41881 17.076C4.8988 16.7652 4.65003 17.5041 3.93654 17.0489C3.68949 16.8917 3.37335 16.6623 3.12803 16.5051C2.76178 16.2685 2.58039 16.4148 2.29188 16.3985C2.46809 16.2197 4.12485 15.9433 4.48591 16.1709ZM5.63821 17.5637C6.19276 17.7498 6.44326 18.1291 6.56247 18.2086L6.87516 18.3459L6.8216 18.4164C6.19276 18.1562 6.03037 19.0269 5.15967 18.6385C4.85907 18.5049 4.47036 18.3025 4.17149 18.1689C3.72577 17.9684 3.54611 18.1616 3.22132 18.1924C3.39062 17.9629 5.1994 17.3704 5.63821 17.5637ZM5.48964 15.6741C5.39635 15.246 6.16167 13.6961 6.37761 13.5768C6.30333 13.8677 6.11502 14.0013 6.2135 14.4367C6.27914 14.7275 6.38798 15.1105 6.45363 15.4032C6.64366 16.2504 5.89735 16.2667 6.01655 16.8772L5.94918 16.9152L5.8818 16.6117C5.83343 16.4907 5.55701 16.2052 5.48618 15.6741H5.48964ZM7.16539 18.7813C7.7424 18.8644 8.05164 19.1931 8.18294 19.2491L8.51291 19.3286L8.47144 19.4081C7.80978 19.2654 7.79078 20.1524 6.87171 19.9266C6.55383 19.8489 6.13748 19.7206 5.82133 19.6411C5.3497 19.5237 5.20286 19.7477 4.88844 19.8362C5.01801 19.5797 6.70067 18.6693 7.16539 18.7813ZM6.96154 17.7046C6.66612 17.3939 6.53655 15.6525 6.65921 15.4321C6.74213 15.7193 6.64885 15.9379 6.9529 16.2522C7.15503 16.4636 7.44181 16.7291 7.64394 16.9423C8.23131 17.5583 7.60593 17.9828 8.01536 18.4344L7.97736 18.5031L7.76659 18.2827C7.66466 18.2068 7.28632 18.1165 6.95981 17.7028L6.96154 17.7046ZM9.02946 19.6068C9.61165 19.5797 9.97099 19.8453 10.1109 19.8778L10.4495 19.894L10.4219 19.979C9.7464 19.9627 9.88115 20.8388 8.93616 20.7882C8.60965 20.7702 8.17776 20.7232 7.8547 20.7033C7.36925 20.6762 7.26559 20.9237 6.97017 21.0682C7.0531 20.7919 8.55437 19.5815 9.02946 19.6032V19.6068ZM9.08128 18.9222C8.67184 18.6693 8.04473 16.7996 8.11902 16.5196C8.29005 16.8104 8.24859 17.0778 8.67012 17.3307C8.95172 17.5005 9.3387 17.7064 9.62029 17.878C10.4374 18.3748 9.86733 19.0324 10.4426 19.4045L10.4202 19.4912L10.1282 19.3124C9.99517 19.26 9.55464 19.2762 9.08128 18.9222ZM15.9985 4.87689C16.2594 5.00153 16.3596 5.20385 16.4149 5.25082L16.56 5.33753L16.5289 5.36825C16.2352 5.20205 16.1056 5.61754 15.7031 5.37367C15.5632 5.28876 15.3852 5.16592 15.2453 5.08282C15.038 4.95637 14.9395 5.04127 14.7789 5.03585C14.8756 4.93469 15.7947 4.75585 15.9985 4.87689ZM16.1609 4.08746C16.0158 3.89597 16.0434 2.9259 16.1246 2.81209C16.154 2.97648 16.0901 3.09029 16.2404 3.28539C16.3406 3.41365 16.484 3.57984 16.5842 3.70991C16.8744 4.08746 16.503 4.28256 16.7034 4.55895L16.6792 4.59508L16.5755 4.45959C16.5237 4.41082 16.3181 4.33856 16.1627 4.08927L16.1609 4.08746ZM17.2528 4.95998C17.0904 4.74682 17.1232 3.66294 17.213 3.53649C17.2458 3.72075 17.175 3.8472 17.3426 4.06398C17.4549 4.2085 17.6138 4.39275 17.7261 4.53907C18.0492 4.95998 17.6363 5.17856 17.8591 5.48747L17.8315 5.52721L17.7157 5.37547C17.657 5.32128 17.429 5.23999 17.2545 4.96179L17.2528 4.95998ZM17.2251 5.94812C17.4929 6.18658 17.5464 6.45755 17.5965 6.53161L17.7399 6.68335L17.695 6.70864C17.4031 6.41058 17.118 6.85497 16.7224 6.42864C16.5842 6.28051 16.4131 6.07458 16.2784 5.92644C16.0763 5.70606 15.9312 5.77108 15.7446 5.70786C15.8897 5.62115 17.0282 5.73134 17.2286 5.94631L17.2251 5.94812ZM18.1856 5.81264C18.0785 5.51818 18.4793 4.33314 18.6227 4.22656C18.5968 4.44153 18.4759 4.55714 18.5865 4.85521C18.6607 5.05572 18.7748 5.31767 18.849 5.51999C19.0633 6.10348 18.5329 6.192 18.6763 6.61471L18.6314 6.64903L18.5554 6.43948C18.5104 6.35819 18.2858 6.18296 18.1856 5.81264ZM18.8542 6.95071C18.8266 6.59303 19.6247 5.43508 19.813 5.36463C19.7197 5.59044 19.5522 5.67535 19.5833 6.03844C19.604 6.28232 19.6472 6.60568 19.6679 6.85135C19.7249 7.5613 19.1185 7.48 19.1462 7.98943L19.0874 8.0111L19.0684 7.7564C19.0425 7.65162 18.8525 7.38788 18.856 6.94891L18.8542 6.95071ZM18.3135 7.56852C18.5467 7.9244 18.5294 8.24775 18.5623 8.34711L18.6797 8.56569L18.621 8.58014C18.3774 8.15021 17.9248 8.56208 17.6 7.95149C17.4877 7.74014 17.353 7.4511 17.2424 7.24155C17.0765 6.92723 16.8951 6.95432 16.7017 6.82426C16.8917 6.77368 18.1476 7.26142 18.3118 7.56671L18.3135 7.56852ZM19.5522 8.26401C19.6057 7.91537 20.6285 6.99768 20.8237 6.976C20.6837 7.16929 20.5041 7.21084 20.4522 7.56671C20.4177 7.80517 20.3883 8.12672 20.352 8.36698C20.2484 9.06066 19.6852 8.83666 19.5988 9.33164L19.5383 9.33886L19.5764 9.08956C19.5764 8.98298 19.4502 8.68311 19.5522 8.26401ZM18.9181 9.64054C19.0546 10.047 18.9562 10.3559 18.9648 10.4607L19.0235 10.7027H18.9631C18.8352 10.2204 18.2962 10.4932 18.1355 9.81577C18.0803 9.58093 18.0233 9.2666 17.968 9.03356C17.8868 8.68492 17.7054 8.66143 17.5499 8.48259C17.7451 8.4844 18.8352 9.29912 18.9181 9.64054ZM19.9098 9.70738C19.7232 10.094 19.7837 10.4155 19.7629 10.5203L19.6748 10.7533L19.7353 10.7605C19.9219 10.2981 20.4263 10.6431 20.6699 9.98919C20.7546 9.76338 20.8496 9.45628 20.9325 9.23047C21.0569 8.89447 21.24 8.89447 21.4162 8.73731C21.221 8.71382 20.0342 9.3786 19.9098 9.70738ZM20.1655 11.2194C20.3866 10.9141 21.8136 10.5799 22.0105 10.6648C21.7825 10.7768 21.5907 10.719 21.3679 11.0333C21.2193 11.2429 21.0327 11.5355 20.8824 11.7451C20.4453 12.3539 20.0152 11.839 19.6921 12.2671L19.6299 12.2419L19.7871 12.0233C19.8372 11.9203 19.8649 11.5662 20.1672 11.2194H20.1655ZM19.0477 11.8083C19.0805 12.2726 18.894 12.5652 18.8732 12.6772L18.868 12.9482L18.8041 12.9283C18.8007 12.3882 18.1649 12.5146 18.1805 11.7595C18.1856 11.4994 18.2116 11.1526 18.2185 10.8924C18.2288 10.504 18.0457 10.4264 17.9317 10.1933C18.1355 10.2529 19.0529 11.4253 19.0477 11.8065V11.8083ZM19.8493 12.9626C20.1033 12.6122 21.741 12.2292 21.9673 12.3249C21.7047 12.4532 21.4853 12.3864 21.2297 12.7477C21.0586 12.9879 20.8461 13.3239 20.6716 13.566C20.1706 14.2669 19.6766 13.6744 19.3034 14.1657L19.2326 14.1368L19.4122 13.8875C19.471 13.7701 19.5021 13.3637 19.8476 12.9644L19.8493 12.9626ZM18.6175 14.2868C18.5554 14.7637 18.3066 15.0184 18.2634 15.1286L18.2029 15.4014L18.1425 15.367C18.2496 14.8197 17.5793 14.8052 17.7503 14.0429C17.809 13.7792 17.9075 13.4341 17.9662 13.174C18.0561 12.7838 17.8868 12.6628 17.8194 12.4026C18.0129 12.5092 18.7022 13.9038 18.6175 14.2868ZM19.3829 14.6408C19.699 14.35 21.3765 14.3121 21.5804 14.4548C21.2988 14.5252 21.0949 14.415 20.777 14.7167C20.5628 14.9172 20.2916 15.2026 20.0756 15.4032C19.452 15.9849 19.0788 15.3038 18.6227 15.7085L18.5588 15.6651L18.7834 15.4574C18.8629 15.3544 18.97 14.9624 19.3846 14.6426L19.3829 14.6408ZM18.7609 16.1763C19.122 15.9487 20.7788 16.2269 20.955 16.4039C20.6665 16.4202 20.4851 16.2739 20.1188 16.5105C19.8735 16.6677 19.5573 16.8971 19.312 17.0543C18.5985 17.5095 18.348 16.7689 17.8298 17.0814L17.7745 17.0272L18.0302 16.8646C18.1252 16.7779 18.2979 16.413 18.7627 16.1763H18.7609ZM17.6086 17.5691C18.0474 17.3758 19.8562 17.9702 20.0255 18.1978C19.7007 18.1671 19.5193 17.9738 19.0754 18.1743C18.7782 18.3098 18.3878 18.5103 18.0872 18.644C17.2182 19.0324 17.0558 18.1616 16.4252 18.4218L16.3717 18.3513L16.6826 18.214C16.8036 18.1345 17.0524 17.7534 17.6086 17.5691ZM17.7572 15.6796C17.6864 16.2107 17.41 16.4943 17.3616 16.6171L17.2942 16.9206L17.2268 16.8827C17.346 16.2721 16.5997 16.2558 16.7898 15.4086C16.8554 15.1159 16.9642 14.733 17.0299 14.4421C17.1301 14.0068 16.9401 13.8731 16.8658 13.5823C17.0817 13.7015 17.847 15.2514 17.7538 15.6796H17.7572ZM16.0815 18.7867C15.5044 18.8698 15.1952 19.1986 15.0639 19.2546L14.7339 19.334L14.7754 19.4135C15.4371 19.2708 15.4543 20.1578 16.3751 19.932C16.693 19.8543 17.1094 19.726 17.4255 19.6466C17.8971 19.5291 18.044 19.7531 18.3584 19.8417C18.2288 19.5851 16.5444 18.6747 16.0815 18.7867ZM16.2853 17.71C16.5807 17.3993 16.7103 15.6579 16.5859 15.4375C16.503 15.7247 16.5963 15.9433 16.2922 16.2576C16.0901 16.469 15.8033 16.7345 15.6012 16.9477C15.0121 17.5637 15.6392 17.9882 15.2298 18.4398L15.2678 18.5085L15.4785 18.2881C15.5805 18.2122 15.9588 18.1219 16.2853 17.7082V17.71ZM14.2174 19.6122C14.6925 19.5906 16.1937 20.8009 16.2767 21.0773C15.9813 20.931 15.8776 20.6835 15.3921 20.7124C15.0674 20.7304 14.6355 20.7792 14.3107 20.7973C13.3674 20.846 13.5022 19.9717 12.825 19.988L12.7973 19.9031L13.1359 19.8868C13.2759 19.8561 13.6352 19.5906 14.2174 19.6158V19.6122Z" fill="url(#paint0_linear_77_2385)"/>
<path fill-rule="evenodd" clip-rule="evenodd" d="M11.6464 19.6999H11.6311C11.2745 19.6692 10.6632 19.3168 9.95009 18.6916C9.31505 18.1368 8.60698 17.3706 7.92949 16.4309C7.12973 15.3214 6.38772 13.9752 5.87493 12.4464C5.44194 11.1562 5.17366 9.73763 5.17366 8.22694C5.17366 8.21971 5.17366 8.21248 5.17366 8.20525C5.17366 8.04804 5.17705 7.89805 5.18214 7.75168C5.18894 7.59808 5.19743 7.43545 5.21101 7.26198C5.21101 7.25655 5.21101 7.25113 5.21101 7.24752V7.23848C5.33666 5.83441 5.44873 4.76463 5.53872 3.97496C5.61683 3.29731 5.67626 2.84555 5.71531 2.57088L11.5224 1.53725L17.4212 2.57449C17.4705 2.83109 17.5435 3.24671 17.6335 3.86653C17.7388 4.59296 17.8695 5.61033 18.0138 6.99634C18.0342 7.19692 18.0495 7.39569 18.0597 7.59266C18.0699 7.78963 18.075 7.99021 18.075 8.19803C18.075 9.64005 17.8101 11.0188 17.3839 12.291C16.8796 13.7963 16.1494 15.1515 15.3633 16.2809C14.6892 17.2513 13.9811 18.0519 13.3478 18.6355C12.6482 19.2807 12.0488 19.6565 11.6939 19.6999H11.682H11.6634H11.6515H11.6464ZM11.6345 20.0432H11.6396C11.6396 20.0432 11.6515 20.0432 11.6566 20.0432H11.6905C11.7041 20.0414 11.716 20.0396 11.7245 20.0396C12.1405 19.9908 12.8044 19.5842 13.5549 18.8939C14.2052 18.294 14.9286 17.4736 15.618 16.4833C16.4228 15.3268 17.1699 13.9426 17.6844 12.4048C18.1225 11.0983 18.3942 9.6798 18.3942 8.19622C18.3942 7.99383 18.3891 7.78602 18.3772 7.57279C18.367 7.36678 18.35 7.16078 18.3297 6.95839C18.1853 5.57781 18.0546 4.55321 17.9476 3.81413C17.8389 3.06962 17.7574 2.62328 17.7099 2.38837C17.6963 2.32151 17.6454 2.2673 17.5774 2.25465L11.5496 1.19391C11.5309 1.19029 11.5105 1.19029 11.4919 1.19391L5.54382 2.25284C5.47759 2.26549 5.42156 2.32151 5.41137 2.3956C5.37062 2.66485 5.3027 3.16359 5.21441 3.93339C5.12611 4.70319 5.01574 5.76935 4.88839 7.20596C4.88839 7.21138 4.88839 7.21499 4.88839 7.22041V7.22945V7.23487C4.8765 7.39931 4.86632 7.56556 4.85953 7.73723C4.85274 7.91251 4.84934 8.07515 4.84934 8.22694C4.84934 8.23417 4.84934 8.24139 4.84934 8.24862C4.85274 9.79365 5.12781 11.2447 5.57098 12.562C6.09566 14.1251 6.85636 15.5039 7.67309 16.6387C8.36587 17.6001 9.09261 18.3862 9.74633 18.9572C10.5121 19.6258 11.1896 20.0071 11.6073 20.0432H11.6124H11.6311H11.6362H11.6345ZM11.5547 20.7281C11.5666 20.7281 11.5836 20.7299 11.6073 20.7317C11.6311 20.7317 11.6481 20.7317 11.6583 20.7317C11.6752 20.7317 11.6973 20.7317 11.7228 20.7299C11.7466 20.7299 11.7703 20.7263 11.7941 20.7227C12.2831 20.6648 13.0387 20.2257 13.8724 19.4849C14.5992 18.8379 15.3955 17.9561 16.1359 16.8935C16.9781 15.6846 17.7591 14.2336 18.2991 12.6181C18.7575 11.2465 19.0428 9.7557 19.0428 8.19622C19.0428 7.98479 19.0377 7.76614 19.0258 7.54026C19.0139 7.32161 18.997 7.10295 18.9749 6.88249C18.7949 5.15134 18.6319 3.97134 18.5113 3.20696C18.3891 2.43716 18.3093 2.08298 18.2906 2.01069C18.2702 1.91131 18.221 1.81915 18.1514 1.75048C18.0834 1.68181 17.9952 1.63302 17.895 1.61495L11.609 0.509039C11.5836 0.503617 11.5564 0.5 11.5275 0.5C11.497 0.5 11.4681 0.500002 11.4392 0.50723L5.23139 1.61133C5.12781 1.62579 5.03272 1.67458 4.95801 1.74867C4.8833 1.82276 4.83066 1.92215 4.81198 2.03599V2.04864C4.78651 2.19321 4.56407 3.56475 4.24655 7.1409V7.15536C4.24655 7.15536 4.24316 7.16801 4.24316 7.17343V7.17885V7.18066C4.23127 7.3451 4.22109 7.51858 4.21429 7.69747C4.2092 7.86372 4.2058 8.02997 4.2058 8.19983C4.2058 8.20887 4.2041 8.2179 4.2041 8.22694C4.2041 9.86051 4.49276 11.3911 4.95971 12.7825C5.50986 14.4233 6.30621 15.8671 7.162 17.058C7.90741 18.0934 8.70886 18.9391 9.44239 19.5571C10.2965 20.2763 11.0674 20.6883 11.5581 20.7317L11.5547 20.7281ZM11.6209 20.3884C11.626 20.3884 11.6396 20.3884 11.6566 20.3884C11.6752 20.3884 11.6905 20.3884 11.7024 20.3884C11.7194 20.3884 11.7381 20.3848 11.7584 20.3829C12.188 20.3324 12.8791 19.9222 13.6653 19.2228C14.375 18.5922 15.1527 17.7302 15.8761 16.6893C16.6996 15.5057 17.4654 14.0854 17.9935 12.5042C18.44 11.167 18.7185 9.71595 18.7185 8.19803C18.7185 7.98299 18.7134 7.76975 18.7015 7.56014C18.6913 7.35052 18.6744 7.13729 18.6523 6.92044C18.4723 5.19652 18.311 4.02374 18.1921 3.26298C18.0733 2.50763 17.9935 2.16429 17.9765 2.09201V2.08298C17.968 2.05045 17.951 2.01973 17.9289 1.99804C17.9069 1.97455 17.8763 1.95829 17.844 1.95287L11.5581 0.846956H11.5462C11.5462 0.846956 11.5292 0.841535 11.5224 0.841535C11.5139 0.841535 11.5037 0.841531 11.4919 0.843338L5.28063 1.94926H5.27214C5.23648 1.95468 5.20422 1.97094 5.17875 1.99624C5.15498 2.01973 5.1363 2.05406 5.13121 2.09201C5.13121 2.09743 5.1295 2.10105 5.12781 2.10647C5.10234 2.25465 4.8833 3.61535 4.56577 7.17885V7.18608V7.20054L4.56408 7.20415C4.5505 7.37763 4.542 7.54568 4.53521 7.70832V7.71374C4.52842 7.88541 4.52502 8.05527 4.52502 8.22513C4.52502 8.23055 4.52502 8.23598 4.52502 8.23959C4.52672 9.82618 4.80859 11.3134 5.26195 12.6632C5.80021 14.2679 6.57789 15.6828 7.4167 16.8447C8.14683 17.8585 8.9279 18.6825 9.63936 19.2825C10.4425 19.9601 11.1489 20.345 11.5819 20.3829C11.6039 20.3848 11.6158 20.3866 11.6226 20.3866L11.6209 20.3884Z" fill="url(#paint1_linear_77_2385)"/>
<path fill-rule="evenodd" clip-rule="evenodd" d="M11.659 19.793C11.6452 19.793 11.6313 19.793 11.6191 19.793C10.8762 19.7303 9.22035 18.5121 7.71547 16.4858C6.18977 14.4327 4.86367 11.5644 4.86367 8.24821C4.86367 7.93827 4.87583 7.614 4.90186 7.27718V7.25927C5.16222 4.43756 5.35836 3.01326 5.4382 2.49371L11.5184 1.44386L17.6872 2.4955C17.7844 2.96489 18.0239 4.26557 18.319 7.00845C18.3624 7.41155 18.3832 7.81644 18.3832 8.21775C18.3832 11.3763 17.0797 14.2374 15.5766 16.3317C14.0925 18.401 12.4557 19.7035 11.7111 19.7895C11.6972 19.7895 11.6799 19.7912 11.6608 19.7912L11.659 19.793ZM11.567 20.472C11.6 20.4756 11.6313 20.4756 11.659 20.4756C11.6955 20.4756 11.7354 20.4738 11.7805 20.4685C12.6658 20.3663 14.5126 18.9582 16.1042 16.7384C17.6768 14.5455 19.0428 11.5447 19.0428 8.21775C19.0428 7.79853 19.0202 7.37035 18.9734 6.93321C18.6054 3.50774 18.3138 2.26797 18.2791 2.12465C18.2513 1.99207 18.1472 1.88279 18.0101 1.8595L11.5827 0.763065C11.5445 0.754108 11.5028 0.754106 11.4612 0.761272L5.11189 1.85771C4.96956 1.87383 4.84806 1.98491 4.82376 2.13898C4.82376 2.14257 4.58943 3.43966 4.24576 7.19477C4.24576 7.20373 4.24229 7.21448 4.24229 7.22344C4.21625 7.56025 4.2041 7.90244 4.2041 8.24642C4.2041 11.7364 5.59442 14.7444 7.19302 16.8979C8.81245 19.0782 10.687 20.3986 11.5705 20.472H11.567Z" fill="url(#paint2_linear_77_2385)"/>
<path d="M11.6605 20.1607C10.0587 20.1607 4.04289 14.6575 4.61878 7.20096C4.96018 3.43125 5.19295 2.11761 5.19295 2.11761" stroke="#906137" stroke-width="0.71" stroke-miterlimit="2.61"/>
<path d="M5.19287 2.11779L11.5173 1.01318L17.916 2.11779" stroke="#906137" stroke-width="0.71" stroke-miterlimit="2.61"/>
<path d="M17.9157 2.11761C17.9157 2.11761 18.2122 3.27087 18.6002 6.91985C19.3657 14.1313 13.262 20.1589 11.6602 20.1589" stroke="#906137" stroke-width="0.71" stroke-miterlimit="2.61"/>
<path fill-rule="evenodd" clip-rule="evenodd" d="M11.6605 20.1609C10.0587 20.1609 4.04289 14.6577 4.61878 7.20114C4.96018 3.43142 5.19295 2.11779 5.19295 2.11779L11.5174 1.01318L17.9143 2.11779C17.9143 2.11779 18.2109 3.27105 18.5988 6.92003C19.3644 14.1315 13.2606 20.1591 11.6588 20.1591L11.6605 20.1609Z" fill="url(#paint3_linear_77_2385)"/>
<g style="mix-blend-mode:difference">
<path fill-rule="evenodd" clip-rule="evenodd" d="M10.3085 2.15105C10.4634 2.45028 10.5745 2.74358 10.5833 3.0228C10.7198 2.99597 10.8642 2.97551 11.0142 2.96232L10.9473 2.4148H11.0046L11.0711 2.95732C11.1827 2.94868 11.2973 2.94458 11.4141 2.94458C11.4334 2.94458 11.4522 2.94458 11.4714 2.94458V2.27883H11.5287V2.94549C11.6657 2.94868 11.7987 2.95822 11.9269 2.97278L11.9951 2.41435H12.0524L11.9833 2.9796C12.1373 2.99915 12.2843 3.02689 12.4217 3.061C12.4204 2.77087 12.5337 2.46528 12.6947 2.15332C12.7122 2.16833 12.7345 2.17743 12.7594 2.17743C12.815 2.17743 12.8601 2.13059 12.8601 2.07284C12.8601 2.01509 12.815 1.96825 12.7594 1.96825C12.7039 1.96825 12.6588 2.01509 12.6588 2.07284C12.6588 2.10194 12.6702 2.12832 12.6886 2.14696C12.3902 2.47256 12.1741 2.53213 12.1115 2.09467C12.1167 2.09558 12.122 2.09603 12.1273 2.09603C12.1828 2.09603 12.2279 2.04919 12.2279 1.99144C12.2279 1.93369 12.1828 1.88684 12.1273 1.88684C12.0717 1.88684 12.0266 1.93369 12.0266 1.99144C12.0266 2.03464 12.052 2.07238 12.0883 2.08784C11.8739 2.42936 11.6946 2.3707 11.5532 1.88366C11.6197 1.85683 11.667 1.78907 11.667 1.7104C11.667 1.60763 11.5869 1.52441 11.488 1.52441C11.3892 1.52441 11.3087 1.60763 11.3087 1.7104C11.3087 1.79999 11.369 1.87457 11.45 1.89276C11.3087 2.37251 11.1302 2.42799 10.9162 2.08602C10.9499 2.0692 10.9731 2.03328 10.9731 1.99189C10.9731 1.93414 10.928 1.8873 10.8725 1.8873C10.8169 1.8873 10.7718 1.93414 10.7718 1.99189C10.7718 2.04965 10.8169 2.09648 10.8725 2.09648C10.8799 2.09648 10.8874 2.09558 10.8944 2.09421C10.8318 2.5344 10.6143 2.47301 10.3142 2.14469C10.3308 2.12604 10.3409 2.10103 10.3409 2.07374C10.3409 2.01599 10.2958 1.96916 10.2403 1.96916C10.1847 1.96916 10.1396 2.01599 10.1396 2.07374C10.1396 2.1315 10.1847 2.17834 10.2403 2.17834C10.267 2.17834 10.291 2.16788 10.309 2.15014L10.3085 2.15105Z" fill="url(#paint4_linear_77_2385)"/>
</g>
<g clip-path="url(#clip0_77_2385)">
<g opacity="0.2">
<path d="M7.5609 14.2036C7.44823 13.9921 7.33555 13.7806 7.20835 13.5329C7.14299 13.4073 7.09216 13.3178 7.04132 13.2283C6.92558 12.9348 6.81383 12.6394 6.69161 12.3489C6.6557 12.2635 6.51651 11.7334 6.45302 11.6375C6.38116 11.1442 6.39439 11.1273 6.32306 10.6307C6.28438 10.2483 6.25667 9.88709 6.22463 9.49869C6.22116 9.40679 6.22203 9.3421 6.22261 9.23416C6.21202 9.14061 6.20172 9.09031 6.19143 9.04002C6.19143 9.04002 6.19361 9.01247 6.19118 8.97641C6.18671 8.89456 6.18466 8.84877 6.18262 8.80298C6.19353 8.49816 6.20444 8.19334 6.20924 7.86176C6.20649 7.78936 6.20985 7.74373 6.21416 7.6562C6.21157 7.5869 6.20803 7.5595 6.20449 7.5321C6.20396 7.46397 6.20343 7.39583 6.20596 7.29032C6.21186 7.20437 6.21472 7.1558 6.21758 7.10724C6.22106 6.98352 6.22453 6.8598 6.22855 6.68315C6.23158 6.48705 6.23409 6.34387 6.26314 6.19968C6.59767 6.17681 6.90566 6.15496 7.23903 6.13623C8.11834 6.07791 8.94305 5.88244 9.71668 5.49608C10.0332 5.33802 10.3226 5.12033 10.6427 4.9286C10.8819 4.7895 11.1332 4.68552 11.3157 4.50487C11.532 4.29062 11.6928 4.27795 11.8931 4.52136C11.9974 4.60459 12.091 4.67114 12.1956 4.75337C12.2941 4.83046 12.3815 4.89187 12.4871 4.96574C12.6654 5.06558 12.8255 5.15296 12.9977 5.25783C13.2927 5.40005 13.5756 5.52476 13.8759 5.66249C14.2438 5.78101 14.5943 5.88651 14.9447 5.99201C15.2784 6.04239 15.612 6.09277 15.9709 6.13894C16.3083 6.16668 16.6206 6.19862 16.9837 6.23578C16.9837 6.67869 16.9837 7.1384 16.9891 7.62605C16.993 7.75781 16.9916 7.86164 16.9897 8.01485C16.9924 8.12968 16.9955 8.19513 16.9986 8.26058C16.9953 8.32505 16.992 8.38952 16.9885 8.50338C16.9914 8.6574 16.9945 8.76204 16.9976 8.86668C16.8946 9.8039 16.8118 10.7443 16.6788 11.6768C16.6233 12.0661 16.461 12.4387 16.3422 12.8357C16.0792 12.5716 15.8463 12.3376 15.5879 12.073C15.5368 11.9623 15.4722 11.8695 15.4916 11.8042C15.7427 10.9583 15.8264 10.0868 15.851 9.20875C15.8692 8.55815 15.8546 7.90653 15.8546 7.26707C15.3842 7.19013 14.968 7.12205 14.5312 7.04472C14.0704 6.89376 13.6301 6.75205 13.1754 6.59403C12.8185 6.40281 12.4761 6.2279 12.1233 6.03914C12.0632 5.99979 12.0135 5.97428 11.9524 5.93123C11.5707 5.66217 11.5707 5.66217 11.3457 5.94777C10.9153 6.16969 10.5075 6.39182 10.0768 6.61649C10.0071 6.62677 9.95746 6.62664 9.91375 6.64341C9.14197 6.93949 8.3547 7.16195 7.53213 7.24014C7.46204 7.2468 7.35629 7.38887 7.34916 7.47547C7.32614 7.75504 7.34147 8.03808 7.33824 8.34003C7.33674 8.38754 7.33903 8.41482 7.33806 8.46714C7.33804 8.57613 7.34127 8.66007 7.34077 8.76429C7.33941 8.81188 7.34179 8.83919 7.34027 8.88755C7.34881 9.03887 7.36124 9.16912 7.37421 9.32676C7.39938 9.69707 7.42401 10.04 7.44521 10.3977C7.44336 10.4224 7.44493 10.4324 7.44497 10.4677C7.5774 11.0419 7.71135 11.5908 7.84759 12.162C7.93918 12.3735 8.02848 12.5626 8.12687 12.772C8.25149 12.9992 8.36701 13.2061 8.48655 13.432C8.54326 13.5203 8.59593 13.5897 8.65652 13.6786C8.76165 13.7977 8.80628 13.8847 8.68931 14.0205C8.51116 14.2273 8.35808 14.4578 8.17245 14.6835C8.05189 14.6346 7.95323 14.5805 7.8529 14.5071C7.75446 14.393 7.65768 14.2983 7.5609 14.2036Z" fill="#222222"/>
<path d="M11.0168 15.7016C11.1592 15.8365 11.3016 15.9715 11.461 16.1225C12.0184 15.5622 12.5683 15.0099 13.1175 14.4569C13.6543 13.9164 14.1894 13.374 14.728 12.8355C14.786 12.7775 14.8627 12.7397 14.9495 12.7001C15.2033 12.9686 15.4383 13.2296 15.6466 13.461C15.2522 13.8895 14.86 14.3157 14.46 14.76C13.5461 15.6842 12.6411 16.5916 11.7316 17.4941C11.6571 17.568 11.5521 17.6088 11.4437 17.6586C10.7665 17.0808 10.107 16.5095 9.42801 15.9348C9.19469 15.7016 8.98089 15.4718 8.75142 15.2252C8.97759 14.9501 9.21414 14.6624 9.46647 14.3555C9.62921 14.4991 9.78131 14.6332 9.96303 14.7909C10.334 15.1101 10.6754 15.4059 11.0168 15.7016Z" fill="#222222"/>
</g>
</g>
<g opacity="0.5" clip-path="url(#clip1_77_2385)">
<path d="M7.5609 14.2036C7.44823 13.9921 7.33555 13.7806 7.20835 13.5329C7.14299 13.4073 7.09216 13.3178 7.04132 13.2283C6.92558 12.9348 6.81383 12.6394 6.69161 12.3489C6.6557 12.2635 6.51651 11.7334 6.45302 11.6375C6.38116 11.1442 6.39439 11.1273 6.32306 10.6307C6.28438 10.2483 6.25667 9.88709 6.22463 9.49869C6.22116 9.40679 6.22203 9.3421 6.22261 9.23416C6.21202 9.14061 6.20172 9.09031 6.19143 9.04002C6.19143 9.04002 6.19361 9.01247 6.19118 8.97641C6.18671 8.89456 6.18466 8.84877 6.18262 8.80298C6.19353 8.49816 6.20444 8.19334 6.20924 7.86176C6.20649 7.78936 6.20985 7.74373 6.21416 7.6562C6.21157 7.5869 6.20803 7.5595 6.20449 7.5321C6.20396 7.46397 6.20343 7.39583 6.20596 7.29032C6.21186 7.20437 6.21472 7.1558 6.21758 7.10724C6.22106 6.98352 6.22453 6.8598 6.22855 6.68315C6.23158 6.48705 6.23409 6.34387 6.26314 6.19968C6.59767 6.17681 6.90566 6.15496 7.23903 6.13623C8.11834 6.07791 8.94305 5.88244 9.71668 5.49608C10.0332 5.33802 10.3226 5.12033 10.6427 4.9286C10.8819 4.7895 11.1332 4.68552 11.3157 4.50487C11.532 4.29062 11.6928 4.27795 11.8931 4.52136C11.9974 4.60459 12.091 4.67114 12.1956 4.75337C12.2941 4.83046 12.3815 4.89187 12.4871 4.96574C12.6654 5.06558 12.8255 5.15296 12.9977 5.25783C13.2927 5.40005 13.5756 5.52476 13.8759 5.66249C14.2438 5.78101 14.5943 5.88651 14.9447 5.99201C15.2784 6.04239 15.612 6.09277 15.9709 6.13894C16.3083 6.16668 16.6206 6.19862 16.9837 6.23578C16.9837 6.67869 16.9837 7.1384 16.9891 7.62605C16.993 7.75781 16.9916 7.86164 16.9897 8.01485C16.9924 8.12968 16.9955 8.19513 16.9986 8.26058C16.9953 8.32505 16.992 8.38952 16.9885 8.50338C16.9914 8.6574 16.9945 8.76204 16.9976 8.86668C16.8946 9.8039 16.8118 10.7443 16.6788 11.6768C16.6233 12.0661 16.461 12.4387 16.3422 12.8357C16.0792 12.5716 15.8463 12.3376 15.5879 12.073C15.5368 11.9623 15.4722 11.8695 15.4916 11.8042C15.7427 10.9583 15.8264 10.0868 15.851 9.20875C15.8692 8.55815 15.8546 7.90653 15.8546 7.26707C15.3842 7.19013 14.968 7.12205 14.5312 7.04472C14.0704 6.89376 13.6301 6.75205 13.1754 6.59403C12.8185 6.40281 12.4761 6.2279 12.1233 6.03914C12.0632 5.99979 12.0135 5.97428 11.9524 5.93123C11.5707 5.66217 11.5707 5.66217 11.3457 5.94777C10.9153 6.16969 10.5075 6.39182 10.0768 6.61649C10.0071 6.62677 9.95746 6.62664 9.91375 6.64341C9.14197 6.93949 8.3547 7.16195 7.53213 7.24014C7.46204 7.2468 7.35629 7.38887 7.34916 7.47547C7.32614 7.75504 7.34147 8.03808 7.33824 8.34003C7.33674 8.38754 7.33903 8.41482 7.33806 8.46714C7.33804 8.57613 7.34127 8.66007 7.34077 8.76429C7.33941 8.81188 7.34179 8.83919 7.34027 8.88755C7.34881 9.03887 7.36124 9.16912 7.37421 9.32676C7.39938 9.69707 7.42401 10.04 7.44521 10.3977C7.44336 10.4224 7.44493 10.4324 7.44497 10.4677C7.5774 11.0419 7.71135 11.5908 7.84759 12.162C7.93918 12.3735 8.02848 12.5626 8.12687 12.772C8.25149 12.9992 8.36701 13.2061 8.48655 13.432C8.54326 13.5203 8.59593 13.5897 8.65652 13.6786C8.76165 13.7977 8.80628 13.8847 8.68931 14.0205C8.51116 14.2273 8.35808 14.4578 8.17245 14.6835C8.05189 14.6346 7.95323 14.5805 7.8529 14.5071C7.75446 14.393 7.65768 14.2983 7.5609 14.2036Z" fill="#222222"/>
<path d="M11.0168 15.7016C11.1592 15.8365 11.3016 15.9715 11.461 16.1225C12.0184 15.5622 12.5683 15.0099 13.1175 14.4569C13.6543 13.9164 14.1894 13.374 14.728 12.8355C14.786 12.7775 14.8627 12.7397 14.9495 12.7001C15.2033 12.9686 15.4383 13.2296 15.6466 13.461C15.2522 13.8895 14.86 14.3157 14.46 14.76C13.5461 15.6842 12.6411 16.5916 11.7316 17.4941C11.6571 17.568 11.5521 17.6088 11.4437 17.6586C10.7665 17.0808 10.107 16.5095 9.42801 15.9348C9.19469 15.7016 8.98089 15.4718 8.75142 15.2252C8.97759 14.9501 9.21414 14.6624 9.46647 14.3555C9.62921 14.4991 9.78131 14.6332 9.96303 14.7909C10.334 15.1101 10.6754 15.4059 11.0168 15.7016Z" fill="#222222"/>
</g>
<path d="M8.96777 9.19064L10.0473 8.79572H10.7514V13.0487H9.94174V9.68277L9.16726 9.90757L8.96777 9.19064Z" fill="#222222"/>
<path d="M14.053 11.548H14.4931V12.3257H14.053V13.0487H13.2375V12.3257H11.2954V11.548L12.6625 8.79572H13.5309L12.1696 11.548H13.2375V10.5394H14.053V11.548Z" fill="#222222"/>
<defs>
<linearGradient id="paint0_linear_77_2385" x1="11.6243" y1="21.3121" x2="11.6243" y2="2.99274" gradientUnits="userSpaceOnUse">
<stop stop-color="#DBA73E"/>
<stop offset="0.16" stop-color="#D89D3A"/>
<stop offset="0.3" stop-color="#A46B28"/>
<stop offset="0.46" stop-color="#8E5723"/>
<stop offset="0.49" stop-color="#F4F3B8"/>
<stop offset="0.56" stop-color="#F7ED9A"/>
<stop offset="0.69" stop-color="#D5B767"/>
<stop offset="0.75" stop-color="#A76F29"/>
<stop offset="0.85" stop-color="#D0AB5B"/>
<stop offset="1" stop-color="#E0C77D"/>
</linearGradient>
<linearGradient id="paint1_linear_77_2385" x1="11.8128" y1="19.8481" x2="11.4686" y2="1.38259" gradientUnits="userSpaceOnUse">
<stop stop-color="#DBA73E"/>
<stop offset="0.16" stop-color="#D89D3A"/>
<stop offset="0.3" stop-color="#A46B28"/>
<stop offset="0.49" stop-color="#8E5723"/>
<stop offset="0.54" stop-color="#F4F3B8"/>
<stop offset="0.56" stop-color="#F7ED9A"/>
<stop offset="0.69" stop-color="#D5B767"/>
<stop offset="0.75" stop-color="#A76F29"/>
<stop offset="0.85" stop-color="#D0AB5B"/>
<stop offset="1" stop-color="#E0C77D"/>
</linearGradient>
<linearGradient id="paint2_linear_77_2385" x1="17.5657" y1="17.8904" x2="7.73389" y2="2.03586" gradientUnits="userSpaceOnUse">
<stop stop-color="#482A0F"/>
<stop offset="0.1" stop-color="#A77129"/>
<stop offset="0.15" stop-color="white"/>
<stop offset="0.22" stop-color="#DA9E41"/>
<stop offset="0.34" stop-color="#8E5923"/>
<stop offset="0.5" stop-color="#D8A64D"/>
<stop offset="0.66" stop-color="#F5E380"/>
<stop offset="0.72" stop-color="#DAC164"/>
<stop offset="0.77" stop-color="white"/>
<stop offset="0.83" stop-color="#A0752B"/>
<stop offset="1" stop-color="#664219"/>
</linearGradient>
<linearGradient id="paint3_linear_77_2385" x1="18.9006" y1="10.587" x2="4.34636" y2="10.587" gradientUnits="userSpaceOnUse">
<stop stop-color="#BA9555"/>
<stop offset="0.4" stop-color="#FCF6AC"/>
<stop offset="0.67" stop-color="#D3AC53"/>
<stop offset="0.85" stop-color="#BD882C"/>
<stop offset="1" stop-color="#A25D25"/>
</linearGradient>
<linearGradient id="paint4_linear_77_2385" x1="11.4994" y1="2.80088" x2="11.4994" y2="1.7868" gradientUnits="userSpaceOnUse">
<stop stop-color="#DBA73E"/>
<stop offset="0.16" stop-color="#D89D3A"/>
<stop offset="0.54" stop-color="#F4F3B8"/>
<stop offset="0.56" stop-color="#F7ED9A"/>
<stop offset="0.69" stop-color="#D5B767"/>
<stop offset="0.85" stop-color="#D0AB5B"/>
<stop offset="1" stop-color="#E0C77D"/>
</linearGradient>
<clipPath id="clip0_77_2385">
<rect width="5.2106" height="13.3171" fill="white" transform="translate(6.18262 4.34149)"/>
</clipPath>
<clipPath id="clip1_77_2385">
<rect width="5.65406" height="13.3171" fill="white" transform="matrix(-1 0 0 1 17.0474 4.34149)"/>
</clipPath>
</defs>
</svg>
