<svg width="85" height="85" viewBox="0 0 85 85" fill="none" xmlns="http://www.w3.org/2000/svg">
<path fill-rule="evenodd" clip-rule="evenodd" d="M48.501 79.2966C48.2044 79.4083 47.9296 79.4711 47.6837 79.499C47.9296 79.4711 48.2117 79.4711 48.5299 79.513C49.3618 79.5618 51.7487 81.7816 51.8499 82.2423C51.3653 81.9561 51.2279 81.5373 50.3744 81.4954C49.8102 81.4675 49.0507 81.4675 48.4793 81.4326C46.8302 81.3348 47.2208 79.9597 46.0418 79.862L46.0128 79.7154L46.6059 79.7503C46.7795 79.7363 47.1484 79.5549 47.6909 79.499C47.1484 79.5618 46.7434 79.4711 46.5698 79.492L45.9984 79.6526V79.506C47.1195 79.15 46.4179 77.8935 48.0019 77.4398C48.5517 77.2862 49.2894 77.1187 49.8391 76.9651C50.6565 76.7348 50.6927 76.302 51.0977 75.9111C51.1122 76.3788 49.3039 79.0592 48.5082 79.2966H48.501ZM42.9822 79.0243C43.4885 79.0243 43.8935 79.4222 43.8935 79.9039C43.8935 80.3855 43.4813 80.7834 42.9822 80.7834C42.4831 80.7834 42.0708 80.3855 42.0708 79.9039C42.0708 79.4222 42.4831 79.0243 42.9822 79.0243ZM55.4593 13.7509C56.4213 14.072 57.1518 13.8346 57.405 13.8486L57.9836 13.9882V13.8416C56.8336 13.5415 57.4773 12.2501 55.8715 11.8732C55.3146 11.7405 54.5696 11.6079 54.0126 11.4823C53.1881 11.2938 53.1302 10.861 52.7035 10.491C52.7107 10.9587 54.6564 13.5554 55.4593 13.7439V13.7509ZM30.4689 13.7648C29.5069 14.0859 28.7763 13.8486 28.5232 13.8626L27.9445 14.0022V13.8556C29.0946 13.5554 28.4508 12.2641 30.0566 11.8871C30.6135 11.7545 31.3586 11.6219 31.9155 11.4962C32.7401 11.3078 32.7979 10.875 33.2247 10.505C33.2175 10.9727 31.2718 13.5694 30.4689 13.7648ZM33.0222 78.6125C33.3404 78.6055 33.6225 78.6404 33.8612 78.6963C33.6225 78.6404 33.3549 78.5497 33.0728 78.3961C32.3133 78.068 30.8667 75.1921 30.939 74.7314C31.2935 75.1642 31.2718 75.604 32.0529 75.9251C32.5737 76.1415 33.2898 76.3997 33.8106 76.6161C35.3295 77.2583 34.4616 78.4171 35.5321 78.9057L35.5104 79.0523L34.9679 78.8219C34.8015 78.78 34.3892 78.8219 33.8612 78.6963C34.3892 78.8219 34.7364 79.0383 34.9028 79.0802L35.4959 79.1151L35.4453 79.2547C34.2663 79.2128 34.476 80.6298 32.8269 80.5181C32.2555 80.4832 31.5032 80.3925 30.939 80.3506C30.0928 80.2948 29.9047 80.6857 29.3839 80.916C29.5358 80.4763 32.1976 78.5567 33.0294 78.6055L33.0222 78.6125ZM28.7619 77.1466C27.9445 76.9931 25.0585 78.5706 24.8488 78.9894C25.3913 78.8289 25.6372 78.4589 26.469 78.6195C27.0259 78.7242 27.7637 78.9057 28.3207 79.0104C29.9409 79.3175 29.9192 77.8865 31.0837 78.068L31.1488 77.9354L30.5702 77.8307C30.411 77.7749 30.1072 77.5236 29.6154 77.3421C30.1072 77.5166 30.5123 77.5305 30.6642 77.5864L31.1705 77.8796L31.2139 77.74C30.2157 77.1257 31.2211 76.0786 29.8035 75.2619C29.3116 74.9827 28.6389 74.6407 28.1471 74.3615C27.4165 73.9496 27.4889 73.5168 27.1995 73.0422C27.0621 73.4889 28.1254 76.5254 28.8342 76.9372C29.0946 77.1187 29.3405 77.2443 29.5792 77.3281C29.3478 77.2443 29.0729 77.1746 28.7546 77.1396L28.7619 77.1466ZM24.7258 75.1712C25.0368 75.241 25.2972 75.3457 25.5142 75.4574C24.2484 74.8012 23.3515 71.7159 23.7132 70.9131C23.9446 71.4157 23.8144 71.8346 24.4799 72.3372C24.9283 72.6722 25.5504 73.091 26.0061 73.4331C27.308 74.4173 26.1724 75.3317 27.0838 76.0647L27.0259 76.1973L26.563 75.8413C26.4111 75.7645 26.0061 75.7017 25.5214 75.4504C26.0061 75.7017 26.2809 75.9949 26.4328 76.0717L26.997 76.2462L26.9102 76.3648C25.7746 76.0367 25.6155 77.4607 24.0459 76.9582C23.5034 76.7836 22.7946 76.5184 22.2593 76.3439C21.4564 76.0856 21.1671 76.4207 20.6029 76.5184C20.8633 76.1275 23.9374 74.9129 24.7258 75.1572V75.1712ZM20.9791 72.7211C20.2268 72.379 17.0226 73.2097 16.7115 73.5657C17.2829 73.5378 17.6084 73.2376 18.3751 73.5936C18.8887 73.8309 19.5541 74.1869 20.0677 74.4243C21.5577 75.1084 21.9049 73.7193 22.9899 74.18L23.0911 74.0683L22.5559 73.824C22.4184 73.7262 22.1797 73.4051 21.7385 73.098C22.1797 73.3982 22.5776 73.5099 22.715 73.6076L23.1273 74.0124L23.1996 73.8868C22.3895 73.0561 23.6408 72.2813 22.4763 71.1505C22.0713 70.7596 21.5071 70.271 21.1092 69.8801C20.5089 69.3007 20.697 68.9028 20.5306 68.3723C20.2847 68.7772 20.5306 71.9672 21.1092 72.5396C21.3118 72.7769 21.5215 72.9514 21.7168 73.091C21.5143 72.9514 21.2684 72.8188 20.9718 72.7141L20.9791 72.7211ZM17.5795 69.8382C17.8616 69.9778 18.0858 70.1383 18.2739 70.3059C18.0931 70.1453 17.905 69.9359 17.7314 69.6776C17.2251 69.0354 17.3987 65.8384 17.7025 65.4685C17.7965 66.0129 17.5578 66.3829 18.0786 67.0321C18.4258 67.4648 18.9249 68.0233 19.2721 68.4561C20.2775 69.7195 18.9393 70.3408 19.6337 71.2622L19.5397 71.3808L19.178 70.9271C19.0551 70.8154 18.6717 70.6549 18.2666 70.2989C18.6717 70.6549 18.8598 71.0109 18.99 71.1226L19.489 71.4297L19.3733 71.5274C18.3607 70.9411 17.8399 72.2743 16.4439 71.4157C15.9665 71.1156 15.3445 70.6828 14.8743 70.3896C14.1655 69.9429 13.7966 70.2012 13.2252 70.1593C13.5796 69.8452 16.8707 69.4054 17.5723 69.8382H17.5795ZM14.585 66.5644C14.8454 66.7389 15.0479 66.9274 15.207 67.1089C15.0479 66.9274 14.8888 66.697 14.7514 66.4248C14.3318 65.7267 14.925 62.5786 15.2649 62.2505C15.2866 62.802 15.0045 63.144 15.4313 63.849C15.7206 64.3237 16.1401 64.931 16.4294 65.4056C17.2612 66.7808 15.858 67.2345 16.4294 68.2327L16.3209 68.3374L16.0244 67.8418C15.9159 67.7161 15.5542 67.5137 15.207 67.1089C15.5615 67.5137 15.7061 67.8837 15.8218 68.0093L16.2775 68.3723L16.1546 68.4561C15.2287 67.751 14.5344 69.0145 13.2613 67.9884C12.8201 67.6324 12.2704 67.1298 11.8364 66.7808C11.1854 66.2503 10.7949 66.4667 10.2307 66.355C10.6285 66.0827 13.9412 66.0478 14.585 66.5644ZM12.0389 62.9555C12.2776 63.158 12.4512 63.3744 12.5886 63.5698C12.8852 64.0165 13.2107 64.2539 13.3047 64.3935L13.5362 64.917L13.6519 64.8263C13.2179 63.7652 14.6718 63.493 14.0281 62.0202C13.8038 61.5106 13.4639 60.8544 13.2396 60.3518C12.9069 59.598 13.2324 59.2978 13.283 58.7464C12.8997 59.0326 11.9015 62.083 12.227 62.8229C12.321 63.1161 12.4512 63.3604 12.5886 63.5628C12.8852 64.0026 12.9793 64.3935 13.0805 64.5331L13.4856 64.9519L13.3481 65.0217C12.5163 64.205 11.6628 65.3777 10.5417 64.212C10.1511 63.8071 9.66649 63.2417 9.28314 62.8369C8.71172 62.2366 8.28495 62.3971 7.7497 62.2156C8.17645 61.9922 11.4675 62.3622 12.0389 62.9485V62.9555ZM9.98473 59.0675C10.6502 59.8074 10.7008 60.5543 10.8093 60.7707L11.1565 61.2314L11.0118 61.2802C10.2958 60.3728 9.29758 61.4268 8.33558 60.1355C8.00286 59.6887 7.59782 59.0675 7.2651 58.6207C6.77324 57.9506 6.33201 58.0623 5.82569 57.818C6.28138 57.6505 9.50011 58.4183 9.98473 59.0675ZM10.1873 58.9697C9.96305 58.1949 11.3446 55.2841 11.7641 55.0468C11.6411 55.5843 11.2795 55.8495 11.5182 56.6383C11.6773 57.1688 11.9232 57.8598 12.0823 58.3904C12.5308 59.926 11.0552 60.0238 11.3446 61.1267L11.2144 61.2034L11.0552 60.652C10.9467 60.4356 10.3753 59.94 10.1873 58.9697ZM8.45131 54.956C8.05349 54.251 4.95774 53.0992 4.48759 53.2109C4.96497 53.5111 5.41341 53.4552 5.81123 54.1812C6.07886 54.6628 6.40435 55.326 6.67198 55.8146C7.46038 57.2177 8.58875 56.2893 9.18186 57.2805L9.32653 57.2456L9.04443 56.743C8.98657 56.5894 8.9938 56.1915 8.82021 55.689C8.9938 56.1915 9.24697 56.5057 9.30484 56.6592L9.39163 57.2246L9.52906 57.1618C9.3844 56.031 10.8672 56.1148 10.614 54.5372C10.5272 53.9927 10.3681 53.2738 10.2813 52.7363C10.1511 51.9266 10.5417 51.7101 10.737 51.1936C10.2958 51.3751 8.53812 54.0974 8.66108 54.8932C8.67555 55.2003 8.74064 55.4656 8.82021 55.6959C8.74064 55.4656 8.62492 55.2213 8.4441 54.963L8.45131 54.956ZM7.46762 50.698C7.61228 50.9772 7.69185 51.2355 7.74248 51.4658C7.69185 51.2285 7.67015 50.9563 7.69185 50.6561C7.67738 49.8534 9.76775 47.3684 10.2307 47.2427C9.97028 47.7313 9.55798 47.8989 9.57968 48.7226C9.59414 49.267 9.65924 50 9.67371 50.5514C9.71711 52.1429 8.25603 51.8847 8.25603 53.0224L8.11136 53.0644L8.0969 52.492C8.06797 52.3314 7.85098 51.9894 7.74248 51.4658C7.85098 51.9824 7.79311 52.3803 7.82928 52.5408L8.04626 53.0713L7.89437 53.0853C7.43869 52.0313 6.1946 52.82 5.59425 51.3262C5.38449 50.8097 5.15302 50.1116 4.95049 49.6021C4.6467 48.8342 4.19102 48.8412 3.75704 48.4782C4.24165 48.4224 7.1566 49.9441 7.46762 50.691V50.698ZM7.04809 46.3562C6.84556 45.5744 4.14038 43.7176 3.65576 43.7106C4.03912 44.1225 4.48759 44.1714 4.69011 44.9671C4.82754 45.4976 4.96495 46.2236 5.10238 46.7541C5.5002 48.3037 6.83111 47.6755 7.14936 48.7784H7.30125L7.1566 48.2269C7.14214 48.0594 7.25062 47.6755 7.21446 47.152C7.19999 46.9146 7.20723 46.6424 7.2651 46.3423C7.35189 45.5465 9.75329 43.3337 10.2307 43.2569C9.91242 43.7176 9.47843 43.8293 9.39163 44.646C9.33377 45.1905 9.30482 45.9234 9.24696 46.4749C9.0806 48.0664 7.67015 47.6266 7.51826 48.7575L7.36635 48.7784L7.43144 48.213C7.42421 48.0455 7.25786 47.6825 7.21446 47.152C7.19276 46.9146 7.14937 46.6424 7.04087 46.3562H7.04809ZM7.2 41.9935C7.09874 41.1977 4.66117 39.0268 4.18379 38.957C4.50928 39.4107 4.9505 39.5154 5.04453 40.3321C5.10963 40.8766 5.15302 41.6096 5.22536 42.154C5.42065 43.7386 6.82388 43.2779 6.99747 44.4087L7.14936 44.4296L7.07703 43.8642C7.08426 43.6967 7.24338 43.3267 7.27231 42.8032C7.28678 42.5659 7.33018 42.2936 7.43144 42.0005C7.62674 41.2187 10.2885 39.32 10.7732 39.306C10.397 39.7179 9.94856 39.7807 9.7605 40.5765C9.63754 41.1139 9.50735 41.8329 9.37715 42.3704C9.00826 43.927 7.66292 43.3197 7.35913 44.4226H7.20722L7.34465 43.8712C7.35912 43.7037 7.23615 43.3197 7.27231 42.7962C7.28678 42.5589 7.27232 42.2866 7.20722 41.9865L7.2 41.9935ZM7.91607 37.6866C7.91607 36.8838 5.7823 34.4337 5.31215 34.3081C5.57977 34.7967 5.9993 34.9573 5.99206 35.774C5.99206 36.3184 5.93421 37.0514 5.93421 37.6028C5.91974 39.2013 7.37359 38.9081 7.39529 40.0529L7.53996 40.0948V39.5224C7.56889 39.3549 7.77865 39.0128 7.87991 38.4963C7.92331 38.259 8.00287 38.0007 8.1403 37.7215C8.42962 36.9676 11.3301 35.404 11.8075 35.4529C11.3807 35.8158 10.925 35.8228 10.6357 36.5907C10.4404 37.1072 10.2162 37.8052 10.0209 38.3288C9.44949 39.8226 8.19093 39.0617 7.75694 40.1227L7.60505 40.1088L7.8148 39.5713C7.85096 39.4107 7.77865 39.0128 7.87991 38.4963C7.92331 38.259 7.945 37.9867 7.91607 37.6796V37.6866ZM9.1891 33.4983C9.17464 33.8055 9.11676 34.0708 9.04443 34.3011C8.87807 34.8037 8.89254 35.2016 8.84191 35.3621L8.56705 35.8647L8.71893 35.8926C9.29035 34.8944 10.4404 35.8019 11.1999 34.3919C11.4675 33.9032 11.7786 33.2331 12.0317 32.7445C12.4223 32.0185 12.8707 32.0674 13.3409 31.7533C12.8707 31.6486 9.79668 32.8492 9.40609 33.5612C9.23249 33.8195 9.124 34.0708 9.04443 34.3011C8.87807 34.8037 8.63216 35.1248 8.58153 35.2784L8.50195 35.8438L8.36452 35.7879C8.48748 34.6501 7.01192 34.7618 7.22892 33.1773C7.30848 32.6328 7.44591 31.9068 7.52548 31.3693C7.64121 30.5596 7.24338 30.3502 7.04809 29.8337C7.49654 30.0082 9.2976 32.7026 9.1891 33.4983ZM10.9974 29.4986C10.9467 29.7988 10.8527 30.057 10.7515 30.2804C10.52 30.7551 10.4838 31.1599 10.4115 31.3065L10.0715 31.7742L10.2162 31.8231C10.9178 30.9017 11.9304 31.9417 12.878 30.6364C13.2035 30.1827 13.6013 29.5544 13.9195 29.1007C14.3969 28.4236 14.8382 28.5283 15.3517 28.277C14.896 28.1165 11.6917 28.9332 11.2144 29.5894C11.0118 29.8267 10.8672 30.057 10.7587 30.2804C10.5272 30.7621 10.2379 31.0413 10.1728 31.1948L10.0209 31.7463L9.89072 31.6695C10.1656 30.5596 8.68278 30.4828 9.10953 28.9472C9.25419 28.4166 9.4929 27.7186 9.64479 27.1881C9.86902 26.3993 9.50013 26.141 9.36993 25.6035C9.78945 25.8339 11.2288 28.7238 11.0118 29.4986H10.9974ZM13.312 25.7502C13.623 25.0033 12.5742 21.9668 12.1836 21.6876C12.2415 22.239 12.5742 22.5322 12.2487 23.293C12.0317 23.8026 11.7062 24.4588 11.4892 24.9753C10.8672 26.4552 12.3283 26.7065 11.9087 27.7745L12.0317 27.8652L12.2559 27.3347C12.3427 27.1951 12.6682 26.9438 12.9575 26.497C13.0877 26.2946 13.2613 26.0782 13.5 25.8688C14.057 25.2755 17.348 24.8497 17.782 25.0661C17.2468 25.2545 16.82 25.101 16.2558 25.7083C15.8797 26.1201 15.4023 26.6925 15.0262 27.1043C13.9195 28.291 13.0516 27.1392 12.2342 27.9629L12.0968 27.9001L12.4946 27.4743C12.5886 27.3347 12.6755 26.9438 12.9648 26.497C13.095 26.2946 13.2179 26.0503 13.312 25.7571V25.7502ZM16.0967 22.3088C16.5018 21.6038 15.858 18.4696 15.5108 18.1415C15.4964 18.693 15.7857 19.028 15.3662 19.74C15.0841 20.2147 14.679 20.836 14.3969 21.3176C13.5868 22.7067 15.0045 23.1325 14.4548 24.1447L14.5633 24.2494L14.8526 23.7468C14.9611 23.6142 15.3155 23.4117 15.6627 22.9999C15.3155 23.4117 15.1781 23.7887 15.0696 23.9143L14.6212 24.2843L14.7441 24.368C15.6627 23.6421 16.3788 24.8985 17.6229 23.8515C18.0569 23.4885 18.5994 22.9789 19.0261 22.616C19.6626 22.0785 20.0677 22.2809 20.6246 22.1622C20.2268 21.897 16.9068 21.9179 16.2775 22.4414C16.0171 22.6229 15.8146 22.8114 15.6627 22.9999C15.8218 22.8114 15.9738 22.588 16.1039 22.3018L16.0967 22.3088ZM19.3082 19.2375C19.8001 18.5883 19.5686 15.3983 19.2648 15.0353C19.1852 15.5797 19.4239 15.9497 18.9176 16.6059C18.5777 17.0456 18.0931 17.611 17.7531 18.0508C16.7694 19.3352 18.1148 19.9285 17.4421 20.8639L17.5361 20.9756L17.8905 20.5149C18.0135 20.3962 18.3896 20.2356 18.7874 19.8727C18.3896 20.2356 18.2015 20.5917 18.0786 20.7033L17.5867 21.0175L17.7025 21.1152C18.7079 20.5079 19.2503 21.8411 20.6246 20.9546C21.102 20.6475 21.7096 20.2077 22.1798 19.9006C22.8814 19.4469 23.2575 19.6982 23.8217 19.6423C23.46 19.3282 20.169 18.9513 19.4746 19.391C19.1925 19.5376 18.9683 19.7051 18.7874 19.8727C18.9683 19.7051 19.1491 19.5027 19.3154 19.2375H19.3082ZM22.8886 16.5779C23.46 15.9986 23.6481 12.8016 23.3949 12.4037C23.243 12.9342 23.4311 13.3321 22.8452 13.9184C22.4474 14.3093 21.8977 14.8119 21.4998 15.2098C20.357 16.3615 21.6156 17.1154 20.8199 17.9601L20.8995 18.0857L21.3046 17.6739C21.442 17.5761 21.8398 17.4575 22.281 17.1433C22.4835 17.0037 22.7222 16.8641 23.0188 16.7524C23.7638 16.3964 26.9825 17.1782 27.3008 17.5342C26.7294 17.5203 26.3967 17.2201 25.6372 17.5901C25.1309 17.8344 24.4726 18.1974 23.9591 18.4417C22.4763 19.1537 22.1074 17.7646 21.0369 18.2463L20.9357 18.1346L21.4637 17.8833C21.6011 17.7855 21.8326 17.4575 22.2738 17.1433C22.4763 17.0037 22.6861 16.8222 22.8814 16.5779H22.8886ZM26.7945 14.3721C27.4382 13.8626 28.0458 10.7144 27.8433 10.2886C27.619 10.7982 27.7637 11.21 27.0983 11.7266C26.657 12.0686 26.035 12.4944 25.5938 12.8434C24.3063 13.8486 25.4636 14.7491 24.5595 15.489L24.6173 15.6216L25.073 15.2587C25.2249 15.1749 25.6299 15.1121 26.1073 14.8538C25.6299 15.1121 25.3551 15.4122 25.2032 15.489L24.6462 15.6775L24.733 15.7961C25.8614 15.4541 26.0495 16.8711 27.6046 16.3476C28.1471 16.1661 28.8487 15.8869 29.3839 15.7054C30.1868 15.4332 30.4761 15.7682 31.0403 15.852C30.7727 15.4611 27.6841 14.3023 26.8957 14.5606C26.5847 14.6304 26.3243 14.7421 26.1073 14.8608C26.3243 14.7421 26.5558 14.5885 26.78 14.3721H26.7945ZM37.3982 79.5339C36.5664 79.5828 34.1795 81.8025 34.0854 82.2632C34.5701 81.977 34.7075 81.5582 35.5538 81.5163C36.1179 81.4884 36.8846 81.4884 37.4488 81.4535C39.098 81.3628 38.7074 79.9807 39.8864 79.8829L39.9153 79.7433L39.3222 79.7782C39.1486 79.7643 38.7797 79.5828 38.2373 79.5269C38.7797 79.5897 39.1848 79.499 39.3511 79.52L39.9153 79.6805V79.5339C38.7942 79.1779 39.503 77.9214 37.9118 77.4677C37.362 77.3142 36.6243 77.1466 36.0745 76.9931C35.2572 76.7627 35.221 76.3299 34.816 75.946C34.8015 76.4137 36.6098 79.0942 37.4054 79.3245C37.702 79.4362 37.9768 79.499 38.2228 79.5269C37.9768 79.499 37.6948 79.499 37.3765 79.5479L37.3982 79.5339ZM52.8987 78.6055C52.5877 78.5985 52.3056 78.6334 52.0669 78.6893C52.3056 78.6334 52.5733 78.5427 52.8481 78.3961C53.6076 78.068 55.0542 75.1921 54.9819 74.7314C54.6275 75.1642 54.6492 75.604 53.868 75.9251C53.3472 76.1415 52.6311 76.3997 52.1103 76.6161C50.5986 77.2583 51.4594 78.4171 50.3889 78.9057L50.4106 79.0523L50.953 78.8219C51.1194 78.78 51.5244 78.8219 52.0525 78.6963C51.5244 78.8219 51.1845 79.0383 51.0181 79.0732L50.425 79.1081L50.4757 79.2477C51.6546 79.2058 51.4449 80.6228 53.094 80.5112C53.6654 80.4763 54.4177 80.3855 54.9891 80.3436C55.8354 80.2878 56.0235 80.6787 56.5442 80.909C56.3923 80.4623 53.7306 78.5497 52.8987 78.5985V78.6055ZM57.159 77.1327C57.9764 76.9861 60.8624 78.5567 61.0721 78.9825C60.5297 78.8219 60.2837 78.452 59.4519 78.6125C58.895 78.7172 58.1572 78.8987 57.6003 79.0104C55.98 79.3175 56.0017 77.8865 54.8372 78.075L54.7721 77.9424L55.3508 77.8377C55.5099 77.7818 55.8137 77.5305 56.3055 77.3491C55.8137 77.5236 55.4086 77.5375 55.2567 77.5934L54.7504 77.8866L54.7143 77.7469C55.7124 77.1327 54.707 76.0856 56.1247 75.2689C56.6166 74.9827 57.2892 74.6477 57.7811 74.3684C58.5116 73.9496 58.4321 73.5168 58.7286 73.0491C58.8661 73.4959 57.8028 76.5324 57.0867 76.9442C56.8263 77.1257 56.5804 77.2513 56.3489 77.3351C56.5804 77.2513 56.8553 77.1815 57.1735 77.1466L57.159 77.1327ZM61.1951 75.1572C60.8841 75.227 60.6237 75.3317 60.4067 75.4434C60.6237 75.3317 60.8624 75.1782 61.0938 74.9618C61.7448 74.4662 62.403 71.325 62.215 70.8992C61.9835 71.4018 62.121 71.8206 61.4483 72.3232C60.9998 72.6583 60.3778 73.0771 59.9221 73.4191C58.6201 74.4033 59.7557 75.3248 58.8444 76.0507L58.9022 76.1833L59.3651 75.8273C59.517 75.7505 59.9221 75.6877 60.4067 75.4434C59.9221 75.6947 59.6472 75.9879 59.4953 76.0647L58.9312 76.2392L59.0179 76.3578C60.1535 76.0298 60.3127 77.4538 61.8822 76.9512C62.4247 76.7767 63.1336 76.5114 63.6688 76.3369C64.4717 76.0786 64.761 76.4137 65.3252 76.5114C65.0648 76.1205 61.9908 74.9059 61.2024 75.1502L61.1951 75.1572ZM64.9419 72.7071C65.6941 72.3651 68.8984 73.1957 69.2094 73.5517C68.638 73.5238 68.3125 73.2237 67.5458 73.5797C67.0322 73.817 66.3668 74.173 65.8532 74.4103C64.3632 75.0944 64.016 73.7053 62.9311 74.166L62.8298 74.0543L63.3651 73.81C63.5097 73.7123 63.7412 73.3842 64.1896 73.0841C63.7412 73.3912 63.3433 73.4959 63.2059 73.5936L62.7936 73.9985L62.7213 73.8728C63.5314 73.0422 62.2801 72.2673 63.4446 71.1295C63.8497 70.7386 64.4138 70.25 64.8117 69.8591C65.412 69.2798 65.2239 68.8819 65.3903 68.3514C65.6362 68.7562 65.3903 71.9463 64.8117 72.5186C64.6091 72.756 64.3994 72.9375 64.1969 73.0771C64.3994 72.9375 64.6453 72.8048 64.9419 72.7001V72.7071ZM68.3414 69.8242C68.0593 69.9638 67.8279 70.1244 67.647 70.2919C67.8279 70.1314 68.0159 69.922 68.1895 69.6637C68.6958 69.0215 68.5223 65.8245 68.2257 65.4545C68.1317 65.999 68.3703 66.3689 67.8496 67.0181C67.5024 67.4509 67.0033 68.0093 66.6561 68.4421C65.6507 69.7056 66.9888 70.3268 66.2944 71.2482L66.3885 71.3669L66.7501 70.9131C66.8731 70.8015 67.2565 70.6409 67.6615 70.2849C67.2565 70.6409 67.0684 70.9969 66.9382 71.1086L66.4391 71.4157L66.5549 71.5135C67.5675 70.9201 68.0883 72.2604 69.4843 71.4018C69.9616 71.1016 70.5837 70.6758 71.0538 70.3757C71.7627 69.9289 72.1316 70.1872 72.703 70.1453C72.3486 69.8312 69.0575 69.3914 68.3559 69.8242H68.3414ZM71.3359 66.5504C71.9797 66.0408 75.2924 66.0758 75.6903 66.341C75.1333 66.4527 74.7355 66.2433 74.0845 66.7668C73.6505 67.1228 73.0936 67.6184 72.6596 67.9744C71.3938 69.0005 70.6994 67.7301 69.7663 68.4421L69.6434 68.3583L70.0991 67.9954C70.2148 67.8697 70.3595 67.4928 70.7139 67.0949C70.873 66.9134 71.0321 66.6831 71.1696 66.4108C71.5819 65.7128 70.996 62.5646 70.656 62.2365C70.6343 62.788 70.9164 63.13 70.4897 63.8351C70.2003 64.3027 69.7808 64.917 69.4915 65.3917C68.6597 66.7668 70.0629 67.2205 69.4915 68.2187L69.6 68.3234L69.8965 67.8278C70.005 67.7022 70.3667 67.4997 70.7139 67.0949C70.873 66.9134 71.0755 66.7249 71.3432 66.5504H71.3359ZM73.882 62.9416C73.6433 63.144 73.4697 63.3604 73.3323 63.5559C73.0357 64.0026 72.7102 64.2399 72.6162 64.3795L72.3847 64.91L72.269 64.8193C72.703 63.7583 71.2491 63.479 71.8929 62.0132C72.1171 61.5036 72.4571 60.8475 72.6813 60.3449C73.0212 59.591 72.6885 59.2908 72.6451 58.7394C73.0285 59.0256 74.0194 62.076 73.7012 62.8229C73.6071 63.1161 73.4769 63.3604 73.3395 63.5559C73.0429 63.9956 72.9489 64.3865 72.8476 64.5261L72.4426 64.9449L72.58 65.0147C73.4118 64.198 74.2581 65.3707 75.3865 64.198C75.7771 63.7932 76.2617 63.2278 76.645 62.8229C77.2164 62.2226 77.6432 62.3831 78.1785 62.2017C77.7517 61.9783 74.4606 62.3482 73.8892 62.9346L73.882 62.9416ZM75.9362 59.0535C75.7264 59.2839 75.5818 59.5142 75.4733 59.7306C75.2346 60.2053 74.9452 60.4845 74.8657 60.638L74.7066 61.1895L74.5764 61.1127C74.8657 60.0098 73.3901 59.9121 73.8386 58.3764C73.9905 57.8459 74.2436 57.1548 74.4028 56.6243C74.6415 55.8355 74.2726 55.5773 74.1568 55.0398C74.5763 55.2771 75.9579 58.1879 75.7337 58.9628C75.6758 59.2629 75.5818 59.5212 75.4733 59.7376C75.2346 60.2122 75.1912 60.6101 75.1116 60.7567L74.7644 61.2244L74.9091 61.2733C75.6252 60.3658 76.6233 61.4199 77.5853 60.1285C77.9181 59.6817 78.3231 59.0605 78.6558 58.6137C79.1477 57.9436 79.5889 58.0553 80.0952 57.811C79.6468 57.6435 76.4208 58.4043 75.9362 59.0605V59.0535ZM77.4624 54.949C77.2888 55.2073 77.1658 55.4516 77.0863 55.682C76.9127 56.1846 76.6595 56.4987 76.6016 56.6523L76.5148 57.2177L76.3774 57.1548C76.5221 56.024 75.0393 56.1078 75.2924 54.5302C75.3792 53.9857 75.5384 53.2668 75.6251 52.7223C75.7553 51.9126 75.3648 51.6962 75.1695 51.1796C75.6107 51.3681 77.3683 54.0835 77.2454 54.8792C77.2309 55.1864 77.1658 55.4516 77.0863 55.682C76.9127 56.1846 76.9199 56.5824 76.862 56.736L76.5799 57.2386L76.7246 57.2735C77.3177 56.2823 78.4461 57.2107 79.2345 55.8076C79.5093 55.319 79.8276 54.6559 80.0952 54.1742C80.493 53.4552 80.9415 53.5041 81.4189 53.2039C80.9487 53.0923 77.853 54.244 77.4551 54.949H77.4624ZM78.4461 50.691C78.3014 50.9632 78.2218 51.2215 78.1712 51.4589C78.2218 51.2215 78.2436 50.9493 78.2219 50.6491C78.2363 49.8464 76.1459 47.3614 75.683 47.2357C75.9434 47.7244 76.3557 47.8919 76.334 48.7156C76.3195 49.26 76.2544 49.993 76.24 50.5444C76.1966 52.136 77.6577 51.8777 77.6577 53.0155L77.8023 53.0574L77.8168 52.485C77.8457 52.3244 78.0627 51.9754 78.164 51.4589C78.0555 51.9754 78.1133 52.3733 78.0772 52.5338L77.8602 53.0644L78.0121 53.0783C78.4678 52.0243 79.7119 52.8131 80.3122 51.3193C80.522 50.8027 80.7534 50.1047 80.956 49.5951C81.2598 48.8273 81.7154 48.8273 82.1494 48.4713C81.6648 48.4154 78.7499 49.9371 78.4388 50.684L78.4461 50.691ZM78.8656 46.3423C79.0681 45.5604 81.7733 43.7037 82.2579 43.7037C81.8746 44.1155 81.4261 44.1644 81.2236 44.9601C81.0862 45.4906 80.9487 46.2166 80.8113 46.7471C80.4135 48.2967 79.0754 47.6685 78.7643 48.7714H78.6124L78.7571 48.22C78.7788 47.9826 78.5329 47.2776 78.8728 46.3423H78.8656ZM78.6414 46.3283C78.8367 47.2916 78.4967 47.9617 78.4822 48.199L78.5401 48.7714L78.3954 48.7435C78.2435 47.6127 76.8331 48.0524 76.6667 46.4609C76.6088 45.9095 76.5727 45.1765 76.5221 44.632C76.4425 43.8153 76.0013 43.7037 75.683 43.243C76.1604 43.3128 78.5618 45.5255 78.6486 46.3213L78.6414 46.3283ZM78.7209 41.9795C78.6558 42.2797 78.6414 42.5519 78.6558 42.7892C78.6414 42.5519 78.598 42.2797 78.4967 41.9865C78.3014 41.2047 75.6396 39.2991 75.155 39.2921C75.5311 39.7039 75.9796 39.7667 76.1676 40.5625C76.2906 41.1 76.4208 41.819 76.551 42.3564C76.9271 43.9131 78.2652 43.3058 78.569 44.4087H78.7209L78.5835 43.8572C78.569 43.6897 78.692 43.3058 78.6558 42.7823C78.6848 43.3058 78.8439 43.6757 78.8511 43.8433L78.7788 44.4087L78.9307 44.3877C79.1043 43.2569 80.5075 43.7176 80.7028 42.1331C80.7679 41.5886 80.8185 40.8557 80.8836 40.3112C80.9777 39.4945 81.4189 39.3898 81.7444 38.9361C81.267 38.9989 78.8294 41.1698 78.7282 41.9655L78.7209 41.9795ZM78.0048 37.6726C77.9759 37.9798 78.0049 38.252 78.041 38.4893C78.1423 39.0059 78.0772 39.4037 78.1061 39.5643L78.3159 40.1018L78.164 40.1157C77.7228 39.0547 76.4714 39.8226 75.9 38.3218C75.7047 37.8052 75.4805 37.1002 75.2852 36.5837C74.9959 35.8158 74.5402 35.8089 74.1134 35.4459C74.5981 35.397 77.4913 36.9606 77.7806 37.7145C77.9181 37.9937 77.9976 38.252 78.041 38.4893C78.1423 39.0059 78.3448 39.3549 78.3737 39.5154V40.0878L78.5184 40.0459C78.5401 38.9012 79.994 39.1874 79.9795 37.5958C79.9795 37.0444 79.9288 36.3114 79.9216 35.767C79.9144 34.9503 80.3339 34.7897 80.6015 34.3011C80.1314 34.4198 77.9976 36.8699 78.0048 37.6726ZM76.7318 33.4844C76.7463 33.7915 76.8042 34.0568 76.8765 34.2871C77.0428 34.7897 77.0284 35.1876 77.079 35.3482L77.3539 35.8577L77.2092 35.8856C76.6378 34.8875 75.4877 35.7949 74.7282 34.3779C74.4606 33.8893 74.1496 33.2192 73.8964 32.7305C73.5059 32.0046 73.0574 32.0534 72.5873 31.7393C73.0574 31.6346 76.1315 32.8352 76.5221 33.5472C76.6957 33.8055 76.8042 34.0568 76.8837 34.2871C77.0501 34.7897 77.296 35.1108 77.3466 35.2644L77.4262 35.8298L77.5636 35.774C77.4407 34.6362 78.9162 34.7478 78.6992 33.1633C78.6197 32.6188 78.475 31.8929 78.4027 31.3554C78.2869 30.5457 78.6848 30.3362 78.88 29.8197C78.4316 29.9942 76.6306 32.6886 76.7391 33.4844H76.7318ZM74.9236 29.4846C74.7138 28.7098 76.1459 25.8199 76.5655 25.5896C76.4353 26.1271 76.0664 26.3854 76.2906 27.1741C76.4425 27.7046 76.674 28.4027 76.8258 28.9332C77.2526 30.4759 75.7698 30.5457 76.0447 31.6625L75.9145 31.7393L75.7626 31.1878C75.6902 31.0343 75.4009 30.7551 75.1767 30.2734C75.0754 30.057 74.9308 29.8197 74.721 29.5894C74.2436 28.9262 71.0394 28.1165 70.5837 28.277C71.09 28.5283 71.5312 28.4236 72.0158 29.1007C72.3341 29.5544 72.7319 30.1827 73.0574 30.6294C73.9977 31.9417 75.0176 30.9017 75.7192 31.8231L75.8639 31.7742L75.5239 31.3065C75.4516 31.1599 75.4154 30.7551 75.1839 30.2804C75.0827 30.064 74.9886 29.8057 74.938 29.4986L74.9236 29.4846ZM72.609 25.7362C72.703 26.0294 72.826 26.2737 72.9562 26.4831C73.2455 26.9298 73.3395 27.3207 73.4263 27.4603L73.8241 27.8861L73.6867 27.949C72.8693 27.1183 72.0014 28.277 70.8947 27.0904C70.5114 26.6785 70.0412 26.1061 69.6651 25.6943C69.1009 25.08 68.6741 25.2406 68.1389 25.0521C68.5729 24.8357 71.8567 25.2615 72.4137 25.8549C72.6451 26.0643 72.8187 26.2807 72.9562 26.4831C73.2455 26.9298 73.571 27.1811 73.6578 27.3207L73.882 27.8512L73.9977 27.7605C73.5854 26.6925 75.0465 26.4412 74.4172 24.9614C74.2002 24.4518 73.8748 23.7887 73.6578 23.2791C73.3323 22.5252 73.6578 22.2251 73.7229 21.6736C73.3323 21.9528 72.2907 24.9893 72.5945 25.7362H72.609ZM69.8242 22.2949C69.4192 21.5898 70.0629 18.4557 70.4101 18.1276C70.4246 18.679 70.1352 19.0141 70.5548 19.7261C70.8368 20.2008 71.2419 20.822 71.524 21.3037C72.3341 22.6928 70.9164 23.1185 71.4661 24.1307L71.3576 24.2354L71.0683 23.7328C70.9598 23.6072 70.6054 23.3978 70.2582 22.9859C70.6054 23.3908 70.7428 23.7677 70.8513 23.9003L71.2998 24.2703L71.1768 24.3541C70.2582 23.6351 69.5494 24.8846 68.298 23.8375C67.864 23.4745 67.3216 22.965 66.8948 22.609C66.2583 22.0715 65.8532 22.2739 65.2963 22.1552C65.6941 21.89 69.0141 21.9109 69.6434 22.4345C69.9038 22.616 70.0991 22.8044 70.2582 22.9929C70.0991 22.8114 69.9472 22.5811 69.817 22.3018L69.8242 22.2949ZM66.6127 19.2235C66.1209 18.5743 66.3523 15.3843 66.6489 15.0143C66.7285 15.5588 66.4897 15.9288 66.9961 16.5849C67.336 17.0247 67.8206 17.5901 68.1678 18.0299C69.1515 19.3143 67.799 19.9076 68.4789 20.843L68.3848 20.9616L68.0304 20.5009C67.9074 20.3822 67.5313 20.2217 67.1335 19.8587C67.5313 20.2217 67.7194 20.5777 67.8423 20.6894L68.3342 21.0035L68.2185 21.1012C67.2131 20.4939 66.6706 21.8272 65.2891 20.9407C64.8117 20.6335 64.2041 20.1938 63.7339 19.8866C63.0323 19.4329 62.6562 19.6842 62.092 19.6284C62.4537 19.3142 65.7447 18.9373 66.4391 19.3771C66.7212 19.5237 66.9454 19.6912 67.1263 19.8517C66.9454 19.6842 66.7646 19.4818 66.5982 19.2165L66.6127 19.2235ZM63.0251 16.564C62.4537 15.9776 62.2656 12.7876 62.5188 12.3897C62.6707 12.9202 62.4826 13.3181 63.0685 13.9045C63.4663 14.2954 64.016 14.798 64.4138 15.1958C65.5567 16.3476 64.2981 17.1015 65.0938 17.9461L65.0142 18.0717L64.6091 17.6599C64.4717 17.5622 64.0739 17.4435 63.6327 17.1294C63.4301 16.9898 63.1915 16.8502 62.8949 16.7385C62.1499 16.3825 58.9312 17.1643 58.6129 17.5203C59.1843 17.5063 59.517 17.2062 60.2765 17.5761C60.7828 17.8204 61.441 18.1834 61.9546 18.4347C63.4374 19.1467 63.8063 17.7576 64.8768 18.2393L64.978 18.1276L64.45 17.8763C64.3126 17.7786 64.0811 17.4505 63.6399 17.1364C63.4374 16.9968 63.2276 16.8083 63.0323 16.5709L63.0251 16.564ZM59.1192 14.3582C58.4755 13.8486 57.8679 10.7005 58.0704 10.2747C58.2946 10.7842 58.15 11.1961 58.8154 11.7126C59.2566 12.0547 59.8715 12.4874 60.3199 12.8295C61.6074 13.8347 60.4501 14.7351 61.3542 15.475L61.2964 15.6077L60.8407 15.2447C60.6888 15.1609 60.2837 15.0981 59.8064 14.8398C59.5894 14.7212 59.329 14.6164 59.0179 14.5466C58.2295 14.2884 55.141 15.4471 54.8734 15.838C55.4376 15.7543 55.7269 15.4192 56.5298 15.6914C57.065 15.8729 57.7666 16.1521 58.3091 16.3406C59.8715 16.8641 60.0595 15.4471 61.1807 15.7891L61.2675 15.6705L60.7105 15.489C60.5586 15.4122 60.2837 15.1051 59.8064 14.8538C59.5894 14.7351 59.3579 14.5816 59.1337 14.3652L59.1192 14.3582Z" fill="url(#paint0_linear_108_2101)"/>
<path fill-rule="evenodd" clip-rule="evenodd" d="M44.8985 1.68872C47.2854 2.72879 49.6144 3.71302 51.8929 4.63443C54.1641 5.54886 56.3991 6.40744 58.6197 7.19622C60.8402 7.97802 62.9595 8.66909 64.9776 9.2345C66.9956 9.80689 69.0426 10.2955 71.1185 10.6934L73.0859 11.0703L75.7043 11.5729L75.7621 14.1556L75.8055 16.0962C75.9646 23.1533 75.5958 29.8615 74.6121 36.1578C73.6211 42.5309 71.9937 48.541 69.6646 54.1323C67.2849 59.8282 64.1819 65.0565 60.2688 69.7543C56.3629 74.4451 51.647 78.6124 46.0341 82.1794L44.5947 83.0938L42.6779 84.3154L40.8262 83.017L39.4375 82.0467C33.9041 78.1657 29.1809 73.8378 25.2317 69.0563C21.2896 64.2887 18.136 59.0604 15.7274 53.3853C13.3549 47.7801 11.7492 41.7909 10.8812 35.4179C10.0132 29.0657 9.87577 22.3576 10.44 15.2935L10.6063 13.2273L10.8233 10.477L13.6732 10.2676L15.8142 10.107C17.1885 10.0023 18.6857 9.74407 20.2842 9.34618C21.9551 8.93434 23.814 8.35496 25.8392 7.63598C27.973 6.8821 30.1936 6.00956 32.5009 5.04627C34.7215 4.11788 37.2603 2.99404 40.0378 1.7306L41.0794 1.25594L42.4681 0.627686L43.8641 1.235L44.9057 1.68872H44.8985ZM54.6125 17.7366C52.4354 16.9687 50.222 16.1241 47.9581 15.2167C46.2583 14.5326 44.45 13.7787 42.555 12.969C40.3633 13.9532 38.3525 14.8258 36.5876 15.5587C34.2948 16.508 32.0308 17.3876 29.7885 18.1833C27.8717 18.8604 26.0273 19.4398 24.2552 19.9214C23.4161 20.1448 22.5916 20.3472 21.7815 20.5287C21.6079 25.5127 21.8466 30.2384 22.5048 34.7198C23.2643 39.8923 24.5807 44.7157 26.4685 49.1762C28.3347 53.5808 30.7939 57.6922 33.8752 61.5245C36.4791 64.7564 39.517 67.7579 42.9889 70.5291C46.3162 68.0371 49.2022 65.238 51.6831 62.1597C54.6559 58.474 57.0356 54.3975 58.8801 49.9789C60.7824 45.4138 62.1422 40.4786 63.0102 35.2015C63.7696 30.6084 64.1602 25.757 64.2253 20.6893C63.0753 20.3961 61.9107 20.075 60.739 19.733C58.6124 19.1047 56.5799 18.4486 54.6125 17.7505V17.7366Z" fill="url(#paint1_linear_108_2101)"/>
<path fill-rule="evenodd" clip-rule="evenodd" d="M45.1387 1.1727C45.8041 1.45889 46.3972 1.71718 46.9325 1.94753C47.5111 2.19882 48.0898 2.44313 48.6684 2.68745C49.2326 2.92478 49.804 3.16211 50.3899 3.40642C50.9469 3.63678 51.5255 3.87412 52.1114 4.11145C52.6611 4.33482 53.2253 4.55819 53.7967 4.78156C54.3464 4.99795 54.9106 5.21434 55.482 5.43772C56.0534 5.65411 56.6104 5.86351 57.1601 6.06594C57.7243 6.27536 58.274 6.47082 58.8165 6.66627C59.3951 6.8687 59.9448 7.06413 60.4656 7.23864C61.0226 7.42711 61.5506 7.60162 62.0569 7.76217C62.556 7.92272 63.0768 8.08327 63.612 8.2508C64.14 8.41135 64.6536 8.55793 65.1382 8.69754C65.6156 8.83016 66.1219 8.96979 66.6427 9.1094C67.1563 9.24202 67.6626 9.36766 68.1617 9.48632C68.6824 9.61197 69.1888 9.72365 69.6806 9.83534C70.1652 9.94005 70.6788 10.0448 71.2212 10.1495L73.1814 10.5264L75.7998 11.029L76.0313 11.0709L76.2627 11.1128V11.3361L76.27 11.5665L76.3278 14.1492L76.3712 16.0898C76.4146 17.8628 76.4219 19.6079 76.3929 21.339C76.364 23.0701 76.3061 24.7733 76.2049 26.4486C76.1036 28.1309 75.9734 29.7853 75.7998 31.4256C75.6262 33.066 75.4165 34.6785 75.1778 36.2491C75.1488 36.4166 75.1271 36.5911 75.0982 36.7586C74.1073 43.2364 73.6371 43.5296 73.0078 46.245C72.6462 47.5363 72.2484 48.7998 71.8216 50.0423C71.3225 51.5012 70.78 52.9322 70.1869 54.3422C69.5866 55.7802 68.9428 57.1902 68.2485 58.5653C67.5541 59.9404 66.8163 61.2877 66.0279 62.607C65.2395 63.9262 64.4004 65.2036 63.518 66.4601C62.6283 67.7096 61.6953 68.9312 60.7043 70.1178C59.7206 71.3045 58.679 72.4493 57.5941 73.5661C56.5091 74.676 55.3663 75.765 54.1656 76.812C52.9649 77.8591 51.7208 78.8712 50.4189 79.8415C49.1169 80.8118 47.7571 81.7471 46.3394 82.6546L44.9 83.569L42.9832 84.7906L42.8169 84.8953L42.6505 85L42.4914 84.8883L42.3322 84.7766L40.4806 83.4783L39.0918 82.508C37.6958 81.5307 36.3577 80.5256 35.063 79.4925C33.7755 78.4594 32.5314 77.3984 31.3307 76.3024C30.1372 75.2135 28.9944 74.0897 27.9022 72.9449C26.81 71.8001 25.7612 70.6204 24.7703 69.4128C23.7793 68.2122 22.8318 66.9767 21.9349 65.7132C21.038 64.4498 20.1917 63.1584 19.3961 61.8461C18.6004 60.5268 17.8482 59.1796 17.1466 57.8114C16.445 56.4433 15.794 55.0332 15.1864 53.5953C14.586 52.1783 14.0363 50.7403 13.5372 49.2814C13.0309 47.8155 12.5825 46.3357 12.1774 44.8279C11.7724 43.3132 11.4107 41.7845 11.0997 40.2279C10.7887 38.6782 10.521 37.0937 10.304 35.4882C10.0871 33.8827 9.91346 32.2633 9.7905 30.6229C9.66754 28.9895 9.58074 27.3212 9.54458 25.6249C9.50841 23.9357 9.51564 22.2255 9.56627 20.4944C9.61691 18.7563 9.71817 17.0042 9.85559 15.2451L10.022 13.1859L10.2389 10.4357L10.2606 10.1983L10.2823 9.961L10.5355 9.94004L10.7814 9.9191L13.6313 9.7097L15.765 9.54914C16.105 9.52122 16.4522 9.48632 16.7921 9.44444C17.1249 9.40256 17.4865 9.34673 17.8626 9.28391C18.2315 9.22108 18.6076 9.15126 18.9838 9.0675C19.3816 8.98373 19.7649 8.893 20.1411 8.80226C20.5461 8.70453 20.9729 8.58586 21.4141 8.46719C21.8553 8.34155 22.3038 8.20891 22.7594 8.06931C23.1862 7.93668 23.6491 7.7901 24.1627 7.61559C24.669 7.44806 25.1609 7.28052 25.6455 7.10601C26.1952 6.91056 26.7304 6.71511 27.2512 6.51966C27.7865 6.32421 28.3362 6.11481 28.8931 5.89144C29.4139 5.689 29.9781 5.46564 30.5784 5.22133C31.2077 4.96305 31.7719 4.7327 32.2782 4.52329C32.8062 4.29992 33.3777 4.06258 33.9852 3.79732C34.5856 3.53905 35.2004 3.2738 35.8224 2.99459C36.3938 2.74329 37.0376 2.45709 37.7464 2.13599C38.4191 1.83584 39.1063 1.52171 39.7934 1.21458L40.835 0.739918L42.2237 0.111689L42.3467 0.0558549L42.4697 0L42.5926 0.0558549L42.7156 0.111689L44.1043 0.718977L45.1459 1.1727H45.1387ZM46.6938 2.4571C46.2453 2.26165 45.8186 2.08016 45.4135 1.90565C45.862 2.1011 46.2815 2.28258 46.6649 2.44313C47.0265 2.5967 47.3882 2.75028 47.7571 2.91082C47.4099 2.76424 47.0554 2.61067 46.6938 2.4571ZM51.323 4.39765C50.9686 4.25106 50.6069 4.10446 50.238 3.95089C50.5924 4.09748 50.9541 4.24408 51.323 4.39765ZM53.5797 5.2981L53.6665 5.33301L53.5942 5.30509L53.5218 5.27716L53.5797 5.2981ZM53.1674 5.13058L52.6032 4.9072C52.7913 4.98398 52.9794 5.06077 53.1674 5.13058ZM54.3971 5.61222C54.1945 5.53544 53.992 5.45866 53.7895 5.37489C53.992 5.45168 54.1945 5.53544 54.3971 5.61222ZM60.2776 7.7552C59.7713 7.58069 59.2722 7.41315 58.7875 7.23864C59.2939 7.42013 59.7857 7.58767 60.2559 7.74822L60.4367 7.81104L60.2776 7.7552ZM69.5576 10.3659C69.0296 10.2542 68.5161 10.1355 68.0242 10.0168C68.5522 10.1425 69.0658 10.2612 69.5649 10.3659C69.9627 10.4496 70.375 10.5334 70.8017 10.6171C70.3967 10.5404 69.9844 10.4496 69.5576 10.3589V10.3659ZM75.6985 11.5595L75.4671 11.5176L73.0802 11.0569L75.6985 11.5595ZM75.7564 14.1422L75.6985 11.5595V11.7829L75.7564 14.1422ZM75.8215 21.3111C75.836 20.1663 75.8432 19.0145 75.8288 17.8488C75.8432 19.0076 75.836 20.1593 75.8215 21.3041C75.7926 23.0283 75.7347 24.7315 75.6334 26.3998C75.7275 24.7245 75.7926 23.0282 75.8215 21.3111ZM75.2356 31.3489C75.3586 30.1552 75.4671 28.9476 75.5539 27.726C75.4671 28.9406 75.3658 30.1482 75.2356 31.3419C75.091 32.703 74.9246 34.0433 74.7293 35.3626C74.9246 34.0363 75.091 32.703 75.2356 31.3558V31.3489ZM75.6045 26.9163C75.619 26.7488 75.6262 26.5743 75.6334 26.3998C75.6262 26.5743 75.6117 26.7418 75.6045 26.9163ZM74.4978 36.8913C74.0277 39.7602 73.4129 42.6152 72.6462 45.4283C73.4201 42.6152 74.0277 39.7672 74.4978 36.8913ZM69.8397 53.7C69.8904 53.5674 69.9482 53.4347 69.9989 53.3091C69.9482 53.4417 69.8904 53.5743 69.8397 53.7ZM69.0369 55.5777C69.0947 55.4451 69.1526 55.3195 69.2032 55.1938C69.1454 55.3195 69.0875 55.4521 69.0369 55.5777ZM65.5433 62.3068C65.5939 62.223 65.6445 62.1323 65.7024 62.0415C65.6518 62.1323 65.6011 62.2161 65.5433 62.3068ZM66.1364 61.2946C66.3172 60.9805 66.4908 60.6664 66.6716 60.3453C66.498 60.6594 66.3172 60.9805 66.1364 61.2946ZM53.7895 76.3792C53.8618 76.3164 53.9341 76.2466 54.0137 76.1838C53.9414 76.2466 53.869 76.3164 53.7895 76.3792ZM53.1023 76.9726C53.2542 76.8469 53.4061 76.7143 53.558 76.5816C53.4061 76.7143 53.2542 76.8399 53.1023 76.9726ZM42.6722 84.302L40.8205 83.0036L42.5058 84.1903L42.665 84.302L42.8313 84.1972L44.5817 83.0804L42.665 84.302H42.6722ZM39.1497 81.8309C39.2437 81.9007 39.3377 81.9635 39.439 82.0333C39.345 81.9635 39.2509 81.9007 39.1497 81.8309ZM25.8046 69.7269C25.8625 69.7898 25.9203 69.8596 25.9709 69.9224L25.8046 69.7269ZM22.4195 65.3782C23.1717 66.4322 23.9602 67.4723 24.7775 68.4914C23.9602 67.4723 23.1717 66.4392 22.4195 65.3851C21.6311 64.2753 20.8861 63.1514 20.1772 62.0067C20.8861 63.1584 21.6311 64.2822 22.4195 65.3851V65.3782ZM19.9024 61.539C19.1284 60.2616 18.4051 58.9702 17.7325 57.6439C18.4124 58.9702 19.1357 60.2685 19.9024 61.539ZM14.087 49.086C14.4269 50.0702 14.7886 51.0475 15.1719 52.0038C14.7886 51.0405 14.4269 50.0702 14.0942 49.086C13.6168 47.6899 13.1756 46.2729 12.785 44.8349C13.1756 46.2799 13.6096 47.6969 14.0942 49.086H14.087ZM10.8321 35.0764C10.8465 35.1811 10.861 35.2858 10.8755 35.3905L10.8321 35.0764ZM10.1449 20.4944C10.116 21.4647 10.1015 22.4279 10.1015 23.3842C10.1015 22.4279 10.116 21.4716 10.1449 20.5013C10.1883 19.0774 10.2607 17.6464 10.3619 16.2014C10.2607 17.6534 10.1883 19.0843 10.1449 20.4874V20.4944ZM10.4198 15.4825C10.4053 15.7058 10.3836 15.9292 10.3692 16.1456C10.3836 15.9222 10.3981 15.6989 10.4198 15.4825ZM10.8176 10.4566L11.0708 10.4357L13.6675 10.2472L10.8176 10.4566ZM16.8572 9.98194C16.5317 10.0238 16.2135 10.0587 15.9169 10.0797C16.2352 10.0517 16.5462 10.0238 16.8572 9.98194C17.2044 9.94006 17.5661 9.88421 17.9567 9.82139C17.595 9.88421 17.2334 9.94006 16.8572 9.98194ZM27.4465 7.03623C27.9239 6.85474 28.4157 6.67323 28.9076 6.47778C28.423 6.66625 27.9311 6.85474 27.4393 7.03623H27.4465ZM27.3091 7.08507C27.1572 7.14092 26.9981 7.19677 26.8534 7.25262C27.0053 7.19677 27.1572 7.14092 27.3091 7.08507ZM48.1983 3.69961C47.6124 3.44832 47.0193 3.197 46.4189 2.93873C45.768 2.65952 45.1893 2.40822 44.6541 2.17787L43.6125 1.72415L42.4624 1.22855L41.3124 1.74509L40.2708 2.21975C39.5764 2.53387 38.8965 2.841 38.2455 3.13418C37.6235 3.41339 36.9725 3.69959 36.2854 4.00673C35.6488 4.28594 35.034 4.55819 34.4481 4.80949C33.8767 5.0538 33.2981 5.30509 32.7122 5.5494C32.0612 5.82164 31.4826 6.05896 30.9835 6.26139C30.4483 6.47779 29.8841 6.70115 29.3054 6.9315C28.7557 7.1479 28.206 7.35732 27.649 7.55975C27.0993 7.76219 26.5568 7.9646 26.0216 8.15307C25.4936 8.34154 24.9945 8.50908 24.5316 8.66264C24.0759 8.81621 23.5913 8.96978 23.0922 9.12335C22.6148 9.26994 22.1591 9.40256 21.7179 9.5282C21.2767 9.65385 20.8427 9.76555 20.4087 9.87026C19.9819 9.97496 19.5769 10.0727 19.2008 10.1495C18.803 10.2332 18.4196 10.31 18.0435 10.3728C17.6746 10.4357 17.2985 10.4915 16.9224 10.5404C16.5462 10.5892 16.1846 10.6241 15.8374 10.6521L13.7036 10.8126L11.3529 10.9871L11.172 13.2557L11.0057 15.3219C10.8682 17.088 10.767 18.8261 10.7163 20.5293C10.6657 22.2395 10.6585 23.9357 10.6946 25.597C10.7308 27.2514 10.8104 28.8987 10.9406 30.5321C11.0635 32.1586 11.2371 33.7641 11.4469 35.3346C11.6639 36.9122 11.9243 38.4688 12.2281 40.0115C12.5391 41.5472 12.8863 43.0619 13.2913 44.5417C13.6891 46.0286 14.1376 47.4944 14.6294 48.9254C15.1213 50.3634 15.6638 51.7804 16.2497 53.1625C16.8428 54.5586 17.4865 55.9407 18.1737 57.2949C18.868 58.6491 19.6058 59.9754 20.387 61.2667C21.1754 62.5651 22.0072 63.8355 22.8824 65.071C23.7649 66.3065 24.6907 67.5211 25.6672 68.7008C26.6436 69.8875 27.6707 71.0393 28.7485 72.1701C29.8262 73.3009 30.9473 74.4038 32.1191 75.4718C33.2909 76.5398 34.5133 77.5868 35.7863 78.606C37.0593 79.6251 38.383 80.6163 39.7572 81.5796L41.146 82.5499L42.6722 83.6179L44.2562 82.6127L45.6956 81.6983C47.0844 80.8187 48.4153 79.8973 49.7028 78.9341C50.983 77.9777 52.2126 76.9865 53.3844 75.9604C54.5562 74.9413 55.6701 73.8803 56.7478 72.7774C57.8183 71.6814 58.8382 70.5506 59.8002 69.3919C60.7694 68.2262 61.688 67.0325 62.556 65.804C63.424 64.5754 64.2486 63.312 65.0225 62.0276C65.7964 60.7362 66.5197 59.4169 67.1996 58.0627C67.8796 56.7085 68.5161 55.3264 69.102 53.9164C69.6806 52.5343 70.2159 51.1242 70.7077 49.6793C71.1996 48.2344 71.648 46.7755 72.0603 45.2887C72.4726 43.7949 72.8342 42.2871 73.1597 40.7514C73.4852 39.2227 73.7673 37.6591 74.0205 36.0676C74.2664 34.49 74.4762 32.8985 74.6425 31.293C74.8089 29.6806 74.9463 28.0402 75.0403 26.3788C75.1344 24.7035 75.1995 23.0143 75.2284 21.3111C75.2573 19.6009 75.2501 17.8628 75.2067 16.1037L75.1633 14.1632L75.1127 12.0272L72.95 11.6153L70.9826 11.2384C70.4835 11.1407 69.9627 11.036 69.4202 10.9173C68.885 10.7986 68.3642 10.687 67.8651 10.5613C67.3443 10.4357 66.8308 10.31 66.3317 10.1774C65.8398 10.0517 65.3263 9.91214 64.7983 9.75857C64.2775 9.61198 63.7639 9.45842 63.2576 9.30485C62.7658 9.15826 62.2377 8.99072 61.6736 8.80923C61.1166 8.62774 60.5741 8.45323 60.0389 8.27174C59.4747 8.08327 58.925 7.89481 58.397 7.70634C57.8256 7.50391 57.2686 7.30148 56.7189 7.09905C56.1547 6.88964 55.5905 6.68023 55.0408 6.47082C54.4983 6.26141 53.9341 6.045 53.3555 5.82163C52.7985 5.60524 52.2271 5.3749 51.6485 5.13756C51.0988 4.91419 50.5273 4.68384 49.9342 4.43953C49.37 4.20219 48.7842 3.95787 48.1838 3.70658L48.1983 3.69961ZM16.0905 54.2235L15.7867 53.5255C15.888 53.7628 15.9893 53.9932 16.0905 54.2235ZM59.4241 70.7181L57.1746 73.1543C57.9485 72.3585 58.7007 71.5488 59.4241 70.7181ZM69.0224 55.5707L67.7277 58.2931C68.1761 57.3996 68.6101 56.4922 69.0224 55.5707ZM54.3971 18.2467C53.8401 18.0513 53.2976 17.8558 52.7551 17.6534C52.1982 17.4509 51.6412 17.2415 51.0915 17.0321C50.5201 16.8157 49.9632 16.5993 49.4134 16.3829C48.8637 16.1665 48.2995 15.9432 47.7209 15.7128C47.3448 15.5593 46.9036 15.3847 46.4117 15.1823C45.8837 14.9659 45.4425 14.7844 45.0808 14.6378C44.7264 14.4913 44.2924 14.3098 43.7716 14.0864C43.3159 13.8909 42.9036 13.7234 42.542 13.5629L42.2165 13.7095L41.7825 13.9049C40.9941 14.2539 40.278 14.568 39.6343 14.8473C39.128 15.0706 38.6361 15.28 38.1732 15.4755C37.6886 15.6779 37.2329 15.8734 36.8061 16.0479C36.2492 16.2782 35.6778 16.5086 35.0919 16.7459C34.535 16.9693 33.9635 17.1926 33.3704 17.423C32.8279 17.6324 32.2638 17.8488 31.6706 18.0652C31.0848 18.2816 30.5206 18.491 29.9709 18.6795C29.5007 18.847 29.0233 19.0076 28.5387 19.1751C28.0469 19.3426 27.5767 19.4962 27.1355 19.6288C26.6943 19.7684 26.2313 19.908 25.754 20.0476C25.291 20.1803 24.8354 20.3129 24.3941 20.4316C24.1482 20.4944 23.9312 20.5572 23.7504 20.5991C23.5406 20.6549 23.3309 20.7038 23.1283 20.7527C22.9909 20.7876 22.8245 20.8224 22.622 20.8713C22.5208 20.8922 22.4195 20.9202 22.3255 20.9411C22.2893 22.0719 22.2821 23.1818 22.2893 24.2847C22.2965 25.4504 22.3327 26.6092 22.3906 27.754C22.4484 28.9267 22.5352 30.0854 22.6437 31.2302C22.7522 32.368 22.8896 33.4918 23.056 34.6087C23.2441 35.8861 23.4683 37.1426 23.7215 38.392C23.9819 39.6345 24.2712 40.8491 24.5967 42.0428C24.6907 42.3778 24.7847 42.7059 24.8788 43.041C24.9728 43.3481 25.0668 43.6832 25.1753 44.0252C25.7033 45.7145 26.3037 47.3479 26.9691 48.9324C27.0849 49.2046 27.2151 49.5048 27.367 49.8398C27.5044 50.147 27.6418 50.4471 27.7792 50.7403C28.5025 52.276 29.3054 53.7838 30.1806 55.2496C30.347 55.5219 30.5206 55.8081 30.7014 56.1012C30.8895 56.4014 31.0703 56.6806 31.2366 56.9459C32.1697 58.3769 33.1896 59.7799 34.289 61.1481C34.4843 61.3854 34.6651 61.6088 34.8387 61.8182C35.0123 62.0276 35.2004 62.251 35.4029 62.4813C36.3794 63.6121 37.3993 64.715 38.4842 65.776C39.2075 66.495 39.9598 67.1931 40.741 67.8841C41.4643 68.5263 42.2093 69.1545 42.9687 69.7688C43.6921 69.2174 44.3937 68.652 45.0736 68.0656C45.8114 67.4374 46.5202 66.7882 47.2146 66.1251C47.4099 65.9366 47.6124 65.7411 47.8077 65.5457C48.003 65.3502 48.1911 65.1548 48.3864 64.9524C49.3701 63.9332 50.3031 62.8722 51.1928 61.7763C51.9306 60.8619 52.6249 59.9265 53.2832 58.9702C53.9486 58.0069 54.5707 57.0296 55.1638 56.0245C55.7569 55.0193 56.3138 53.9862 56.8346 52.9391C57.3554 51.8921 57.8472 50.8171 58.3029 49.7212C58.7731 48.5904 59.2143 47.4316 59.6194 46.2659C60.0244 45.1002 60.3933 43.8996 60.7332 42.664C61.0732 41.4355 61.3842 40.193 61.6591 38.9295C61.9339 37.6591 62.1799 36.3747 62.3969 35.0694C62.5849 33.9455 62.7513 32.7868 62.896 31.6002C63.0406 30.4275 63.1636 29.2408 63.2576 28.0332C63.3589 26.8465 63.4312 25.6668 63.4891 24.4802C63.5397 23.3493 63.5759 22.2185 63.5976 21.0737C63.4312 21.0319 63.2504 20.983 63.0478 20.9272C62.7224 20.8434 62.4692 20.7736 62.2884 20.7247C62.0352 20.6549 61.7531 20.5781 61.4349 20.4874C61.1745 20.4106 60.8707 20.3268 60.5307 20.2221C59.981 20.0616 59.453 19.901 58.9394 19.7405C58.4114 19.5799 57.8979 19.4124 57.3916 19.2519C56.8708 19.0843 56.3645 18.9168 55.8654 18.7423C55.3591 18.5748 54.8672 18.4003 54.3826 18.2258L54.3971 18.2467ZM54.5996 17.7232C55.0842 17.8977 55.5833 18.0652 56.0751 18.2327C56.3572 18.3305 56.6393 18.4212 56.9214 18.5189C56.6465 18.4282 56.3645 18.3374 56.0896 18.2397C55.5688 18.0652 55.0697 17.8907 54.5923 17.7232H54.5996ZM51.7931 16.6971C52.1837 16.8436 52.5743 16.9902 52.9577 17.1298L51.7931 16.6971ZM46.6432 14.6728C47.0265 14.8263 47.4605 15.0078 47.9451 15.2032C47.5762 15.0567 47.1495 14.8822 46.6576 14.6797C46.2236 14.5052 45.8475 14.3447 45.522 14.212C45.9632 14.3935 46.3321 14.5471 46.6359 14.6728H46.6432ZM44.0176 13.5768C44.3864 13.7304 44.8277 13.9189 45.3195 14.1213C44.9361 13.9608 44.4732 13.7653 43.9452 13.5419C43.5185 13.3604 43.1279 13.1929 42.7735 13.0463C43.2436 13.2487 43.6631 13.4233 44.0176 13.5768ZM42.4263 13.0044L42.5492 12.9486L42.5926 12.9695L42.542 12.9486L42.3395 13.0393L42.419 13.0044H42.4263ZM41.9851 13.1999H41.9634L42.0863 13.158L41.9851 13.1999ZM41.5511 13.3953L41.8983 13.2418C41.5945 13.3744 41.2762 13.514 40.9435 13.6676C40.4733 13.87 40.0538 14.0585 39.6849 14.219C40.3214 13.9398 40.9435 13.6676 41.5511 13.3953ZM37.949 14.9659L38.3396 14.7984L37.9634 14.9589L37.8622 15.0008L37.949 14.9659ZM38.7952 14.6029C38.9544 14.5331 39.1207 14.4633 39.2799 14.3935C39.1135 14.4633 38.9544 14.5331 38.7952 14.6029ZM37.0231 15.3568C37.2908 15.2451 37.5656 15.1265 37.8405 15.0148C37.5584 15.1335 37.2908 15.2521 37.0231 15.3568ZM35.3378 16.0549C35.5838 15.9571 35.8297 15.8524 36.0756 15.7547C35.8297 15.8594 35.5838 15.9571 35.3378 16.0549ZM34.846 16.2503H34.8677H34.8532H34.846ZM31.4754 17.5556C32.0106 17.3532 32.5748 17.1438 33.1679 16.9134C32.6254 17.1229 32.0612 17.3392 31.4754 17.5556C30.9401 17.7511 30.4265 17.9396 29.9275 18.1141C30.4627 17.9256 30.9763 17.7371 31.4754 17.5556ZM28.3579 18.6585C28.6834 18.5538 29.0161 18.4352 29.3561 18.3165C29.0306 18.4282 28.6978 18.5399 28.3579 18.6585C27.9962 18.7772 27.649 18.8959 27.3163 19.0006C27.6707 18.8889 28.0179 18.7772 28.3506 18.6585H28.3579ZM25.5948 19.5241C25.971 19.4124 26.3615 19.2937 26.7738 19.1681C26.3905 19.2868 25.9927 19.4054 25.5948 19.5241C25.2621 19.6218 24.9294 19.7126 24.6111 19.8033C24.9438 19.7126 25.2766 19.6148 25.6021 19.5241H25.5948ZM22.4991 20.3478C22.6003 20.3199 22.7305 20.292 22.8752 20.2571C22.7305 20.292 22.5642 20.3338 22.3761 20.3757C22.2604 20.4036 22.1446 20.4316 22.0361 20.4525L22.4991 20.3478ZM21.7179 24.2987C21.7106 23.2726 21.7179 22.2325 21.7468 21.1784C21.7107 22.5396 21.7034 23.8729 21.7251 25.1922C21.7324 25.6947 21.7468 26.2043 21.7685 26.7209V26.9163C21.7396 26.0507 21.7179 25.1782 21.7107 24.2917L21.7179 24.2987ZM21.7468 21.1715C21.7468 21.0249 21.7541 20.8783 21.7613 20.7317C21.7613 20.8783 21.7541 21.0249 21.7468 21.1715ZM21.8192 27.7889L21.8047 27.4538C21.8047 27.5655 21.8119 27.6772 21.8192 27.7889ZM21.9927 30.3856C21.9783 30.239 21.9711 30.0924 21.9566 29.9388C21.9711 30.0854 21.9783 30.232 21.9927 30.3856ZM21.8626 28.5986C21.8553 28.4729 21.8481 28.3543 21.8409 28.2286C21.8409 28.3543 21.8553 28.4729 21.8626 28.5986ZM22.4557 34.4691C22.3978 34.0572 22.3399 33.6384 22.2893 33.2196C22.311 33.4081 22.3327 33.5826 22.3544 33.7431C22.3833 33.9735 22.4195 34.2178 22.4557 34.4691ZM22.2387 32.7938L22.2097 32.5355C22.217 32.6193 22.2314 32.71 22.2387 32.7938ZM22.528 34.9647C22.5135 34.8739 22.4991 34.7832 22.4918 34.6994C22.5063 34.7902 22.5208 34.8809 22.528 34.9647ZM30.7737 57.246C30.6869 57.1134 30.6074 56.9877 30.5278 56.8621C31.1788 57.8812 31.8732 58.8864 32.6037 59.8637C32.7918 60.115 32.9943 60.3872 33.2258 60.6804C33.2836 60.7571 33.3415 60.827 33.3994 60.9037L30.7737 57.239V57.246ZM34.4192 62.1672L33.9997 61.6506C34.1299 61.8112 34.2746 61.9857 34.4192 62.1672ZM34.7086 62.5092L34.4192 62.1672C34.5133 62.2859 34.6145 62.3976 34.7086 62.5092ZM37.4861 65.5527L37.4644 65.5317L37.4065 65.4689L37.4861 65.5527ZM36.8495 64.8965L36.7194 64.7569L36.8568 64.8965H36.8495ZM42.2671 69.9154L42.2527 69.9015H42.2599L42.2671 69.9154ZM41.5583 69.3221H41.5511C41.4643 69.2453 41.3847 69.1755 41.2979 69.0987C41.3847 69.1755 41.4715 69.2453 41.5583 69.3221ZM43.1713 70.3552L42.9904 70.4948C44.1911 69.5943 45.3267 68.6589 46.4117 67.6817C46.5347 67.57 46.6576 67.4583 46.7806 67.3466C46.3611 67.7306 45.9343 68.1145 45.4931 68.4844C44.7481 69.1197 43.9741 69.7409 43.1713 70.3482V70.3552ZM51.5617 62.2649C50.9035 63.0746 50.2163 63.8704 49.5002 64.6452C49.8764 64.2334 50.2525 63.8215 50.6141 63.4027C50.8022 63.1863 50.983 62.9769 51.1494 62.7675C51.2796 62.6139 51.417 62.4464 51.5617 62.2649ZM49.4858 64.6592C49.3917 64.7569 49.2977 64.8546 49.2109 64.9524C49.3049 64.8546 49.399 64.7569 49.4858 64.6592ZM53.7967 59.2843C53.2615 60.0591 52.7045 60.813 52.1259 61.5599C52.7045 60.82 53.2615 60.0591 53.7895 59.2913C53.9848 59.0051 54.1801 58.7189 54.3754 58.4257C54.1873 58.7119 53.992 59.0051 53.7967 59.2843ZM55.2144 57.1134C55.0553 57.3717 54.8889 57.6369 54.7298 57.8952C54.8961 57.6369 55.0553 57.3787 55.2144 57.1134ZM57.3916 53.1904C56.8635 54.2584 56.2994 55.2915 55.699 56.3107C56.2994 55.2915 56.8635 54.2514 57.3916 53.1974C57.8689 52.2341 58.3246 51.2569 58.7441 50.2517L57.3916 53.1904ZM60.2052 46.4474C59.8508 47.4665 59.4819 48.4647 59.0841 49.442C59.4819 48.4578 59.8581 47.4526 60.2052 46.4404C60.5669 45.3934 60.8996 44.3254 61.2106 43.2294C60.8996 44.3114 60.5669 45.3794 60.198 46.4404L60.2052 46.4474ZM59.019 49.5956C58.9756 49.7072 58.925 49.8259 58.8744 49.9376C58.925 49.8259 58.9684 49.7072 59.019 49.5956ZM62.1943 39.3763C61.9629 40.3954 61.717 41.4006 61.4493 42.3848C61.717 41.3936 61.9629 40.3884 62.1943 39.3763ZM64.1111 24.5081C64.0677 25.3737 64.0171 26.2253 63.9592 27.0629C64.0243 26.1834 64.075 25.2969 64.1184 24.4104C64.1256 24.2428 64.1328 24.0683 64.1401 23.9008C64.1328 24.1032 64.1256 24.2987 64.1111 24.5011V24.5081ZM64.0098 20.5921L64.2268 20.648C63.9809 20.5851 63.6916 20.5083 63.3733 20.4246C63.084 20.3478 62.8381 20.285 62.6283 20.2221C62.8815 20.2919 63.0912 20.3478 63.2504 20.3897C63.4601 20.4455 63.7205 20.5153 64.0171 20.5921H64.0098ZM51.5327 15.9781C50.9975 15.7757 50.4405 15.5592 49.8691 15.3359C49.305 15.1125 48.7408 14.8891 48.1838 14.6728C47.7137 14.4843 47.2869 14.3098 46.9036 14.1562C46.5564 14.0096 46.1079 13.8281 45.5654 13.6047C45.0374 13.3883 44.5817 13.1929 44.1911 13.0324C43.7861 12.8648 43.3232 12.6624 42.7952 12.439L42.6722 12.3902L42.5565 12.3413L42.4335 12.3971L42.3178 12.453C41.7174 12.7252 41.1822 12.9626 40.7193 13.165C40.2563 13.3674 39.7428 13.5908 39.1786 13.8351C38.6868 14.0515 38.2094 14.2539 37.732 14.4563C37.2763 14.6518 36.8206 14.8403 36.3649 15.0357C35.7718 15.28 35.2004 15.5174 34.6435 15.7408C34.0648 15.9711 33.5006 16.1945 32.9581 16.4039C32.3722 16.6342 31.8081 16.8436 31.2728 17.0461C30.7303 17.2485 30.1734 17.4509 29.5947 17.6534C29.1101 17.8279 28.64 17.9884 28.1843 18.142C27.7431 18.2886 27.2729 18.4422 26.7955 18.5957C26.3181 18.7423 25.8625 18.8819 25.4357 19.0076C24.9945 19.1402 24.5533 19.2589 24.1048 19.3845C23.9168 19.4334 23.7142 19.4892 23.4972 19.545C23.3092 19.5939 23.0994 19.6428 22.8752 19.6986C22.622 19.7614 22.4123 19.8103 22.2531 19.8452C22.0651 19.8871 21.8626 19.9359 21.66 19.9778L21.443 20.0267L21.226 20.0756V20.2919L21.2116 20.5083C21.1537 22.1068 21.1465 23.6774 21.1754 25.2201C21.1826 25.7436 21.1971 26.2532 21.2188 26.7558C21.2333 27.0978 21.2477 27.4329 21.2622 27.754V27.8238C21.349 29.5409 21.4937 31.2232 21.689 32.8636C21.7251 33.1498 21.7613 33.4709 21.8119 33.8199C21.8553 34.1619 21.8987 34.4761 21.9421 34.7692C22.1374 36.0885 22.3616 37.3729 22.622 38.6224C22.8824 39.8789 23.179 41.1144 23.5117 42.3359C23.8444 43.5436 24.2133 44.7372 24.6184 45.9169C25.0234 47.0896 25.4646 48.2344 25.942 49.3652C26.4122 50.482 26.9257 51.578 27.4682 52.6529C28.0179 53.7349 28.6038 54.7889 29.2258 55.829C30.1228 57.3228 31.0992 58.7887 32.1625 60.2057C32.3867 60.5059 32.5965 60.7781 32.7845 61.0294C32.9943 61.3016 33.2113 61.5739 33.4283 61.8461C34.3686 63.0188 35.374 64.1636 36.4373 65.2804C36.6398 65.4899 36.8495 65.7062 37.0665 65.9296C37.2763 66.146 37.4861 66.3554 37.703 66.5718C38.8025 67.6607 39.967 68.7218 41.1822 69.7479C41.4281 69.9573 41.674 70.1597 41.8983 70.3482C42.1225 70.5297 42.3684 70.7251 42.6216 70.9345L42.8024 71.0742L42.9832 71.2138L43.1641 71.0742L43.3449 70.9345C44.5528 70.0341 45.7029 69.0847 46.8095 68.0935C47.0193 67.9051 47.229 67.7096 47.446 67.5142C47.6558 67.3187 47.8583 67.1233 48.0681 66.9278C49.1241 65.9087 50.1295 64.8476 51.0698 63.7587C51.2507 63.5493 51.4315 63.3399 51.6123 63.1165C51.8076 62.8862 51.9812 62.6698 52.1476 62.4673C52.8926 61.5389 53.6086 60.5826 54.2885 59.5984C54.9612 58.6212 55.605 57.616 56.2126 56.5829C56.8129 55.5568 57.3843 54.5097 57.9196 53.4348C58.4548 52.3598 58.9539 51.2638 59.4168 50.147C59.8942 49.0022 60.3427 47.8225 60.7549 46.6219C61.1672 45.4143 61.5506 44.1927 61.8905 42.9642C62.2377 41.7287 62.5488 40.4652 62.8309 39.1738C63.113 37.8895 63.3589 36.5841 63.5831 35.2509C63.7784 34.0782 63.9448 32.9055 64.0894 31.7328C64.2341 30.5461 64.357 29.3455 64.4583 28.1309C64.5596 26.9303 64.6391 25.7017 64.697 24.4453C64.7549 23.2028 64.791 21.9463 64.8055 20.6619V20.4455V20.2291L64.5885 20.1733L64.3715 20.1174C64.0605 20.0407 63.7712 19.9639 63.518 19.8941C63.2938 19.8382 63.0045 19.7545 62.6428 19.6567C62.2016 19.5381 61.7748 19.4194 61.3698 19.3007L61.1311 19.2309L60.8996 19.1611C60.3861 19.0076 59.8653 18.854 59.3373 18.6934C58.8237 18.5329 58.3102 18.3723 57.7966 18.2048C57.2975 18.0443 56.7985 17.8767 56.2994 17.7092C55.822 17.5487 55.3301 17.3741 54.8166 17.1927C54.2813 17.0042 53.7388 16.8087 53.1819 16.6063C52.6466 16.4109 52.0969 16.2014 51.5327 15.992V15.9781ZM52.9721 17.1159L51.8076 16.6831C52.191 16.8297 52.5816 16.9693 52.9721 17.1159ZM57.3626 18.6446C57.2686 18.6097 57.1746 18.5818 57.0733 18.5469L57.3626 18.6446ZM62.2667 39.0552C62.2884 38.9644 62.3101 38.8667 62.3245 38.776L62.2667 39.0552Z" fill="url(#paint2_linear_108_2101)"/>
<path fill-rule="evenodd" clip-rule="evenodd" d="M44.8986 1.68979C47.2855 2.72986 49.6145 3.71409 51.893 4.6355C54.1642 5.54993 56.3992 6.40851 58.6198 7.19729C59.495 7.50442 60.3557 7.79761 61.202 8.07682C57.043 10.0662 53.2022 12.7258 49.7954 15.9367C49.1878 15.6994 48.5802 15.4551 47.9654 15.2108C46.2656 14.5267 44.4573 13.7728 42.5623 12.9631C40.3706 13.9473 38.3598 14.8199 36.595 15.5528C34.3021 16.5021 32.0381 17.3817 29.7958 18.1774C27.8791 18.8545 26.0346 19.4339 24.2625 19.9155C23.4235 20.1389 22.5989 20.3413 21.7888 20.5228C21.6152 25.5068 21.8539 30.2325 22.5121 34.7139C23.2716 39.8864 24.588 44.7098 26.4758 49.1703C28.342 53.5749 30.8012 57.6933 33.8825 61.5185C34.0272 61.7 34.1719 61.8745 34.3238 62.056C35.4666 70.3068 38.4105 77.8945 42.6925 84.3164H42.6852L40.8336 83.0251L39.4448 82.0548C33.9115 78.1737 29.1883 73.8459 25.239 69.0643C21.297 64.2967 18.1433 59.0684 15.7347 53.3934C13.3622 47.7881 11.7565 41.799 10.8885 35.4259C10.0205 29.0738 9.88311 22.3656 10.4473 15.3015L10.6137 13.2353L10.8306 10.4851L13.6805 10.2756L15.8215 10.1151C17.1958 10.0104 18.693 9.7521 20.2915 9.35422C21.9624 8.94238 23.8213 8.36302 25.8466 7.64404C27.9803 6.89016 30.2009 6.0176 32.5083 5.05431C34.7216 4.12592 37.2676 3.00208 40.0379 1.73863L41.0795 1.26397L42.4682 0.635742L43.8642 1.24303L44.9058 1.69675L44.8986 1.68979Z" fill="url(#paint3_linear_108_2101)"/>
<path fill-rule="evenodd" clip-rule="evenodd" d="M45.0216 1.43079C46.2295 1.9613 47.4157 2.46387 48.5586 2.94552C49.7086 3.43415 50.8587 3.90882 52.0088 4.36952C53.1299 4.82325 54.2583 5.26301 55.3866 5.69579C56.515 6.12159 57.6289 6.53344 58.7211 6.92434C59.8422 7.32222 60.9272 7.69217 61.9688 8.02723C63.0248 8.36927 64.0519 8.6764 65.0573 8.9626C66.0554 9.24879 67.0681 9.50707 68.0952 9.75138C69.1078 9.9957 70.1349 10.2121 71.1765 10.4145L73.1367 10.7915L75.755 11.294L75.9865 11.3359V11.5593L76.0516 14.142L76.095 16.0826C76.1746 19.6216 76.1239 23.0699 75.9286 26.4205C75.7333 29.7781 75.3934 33.0379 74.9015 36.193C74.7786 36.9958 74.6411 37.7915 74.4965 38.5873C74.1999 40.479 73.7804 42.3986 73.2379 44.3322C73.1367 44.7231 73.0354 45.1139 72.9269 45.5048C72.1023 48.5134 71.1114 51.4242 69.9396 54.2303C68.7462 57.0923 67.3719 59.8356 65.8023 62.4532C64.2327 65.0708 62.4678 67.5628 60.5077 69.9292C58.5475 72.2815 56.3776 74.5083 53.9979 76.5954C51.6182 78.6756 49.0215 80.6161 46.2078 82.4101L44.7684 83.3245L42.8516 84.5461L42.6853 84.6508L42.5262 84.5391L40.6745 83.2407L39.2857 82.2705C36.5082 80.323 33.9332 78.2637 31.5608 76.0928C29.1811 73.922 27.0039 71.6324 25.022 69.2311C23.0402 66.8369 21.2608 64.3239 19.6696 61.6993C18.0855 59.0817 16.6895 56.3454 15.4744 53.4834C14.2809 50.6703 13.2827 47.7595 12.4726 44.751C11.6625 41.7424 11.0405 38.6431 10.6065 35.4461C10.1725 32.2631 9.91934 28.9823 9.84701 25.6178C9.77468 22.2532 9.88317 18.7979 10.158 15.2659L10.3244 13.2067L10.5414 10.4564L10.5631 10.2191L10.809 10.1981L13.6588 9.98871L15.7926 9.82818C16.4725 9.77932 17.1814 9.68857 17.9119 9.56292C18.6569 9.43727 19.4236 9.27672 20.212 9.08127C21.0438 8.87186 21.9191 8.62754 22.8449 8.34832C23.7635 8.06213 24.7255 7.74105 25.7454 7.38505C26.8086 7.00811 27.8936 6.60323 29.0003 6.17045C30.1214 5.73069 31.2498 5.27696 32.3926 4.79531C33.492 4.33461 34.6782 3.82504 35.944 3.26661C37.1809 2.72214 38.5118 2.12184 39.915 1.48663L40.9566 1.01196L42.3453 0.383736L42.4683 0.327881L42.5913 0.383736L43.98 0.991025L45.0216 1.44474V1.43079ZM48.3199 3.46206C47.1336 2.95947 45.9547 2.45689 44.7829 1.94035L43.7413 1.48663L42.4683 0.93517L41.2025 1.51455L40.1609 1.98921C38.7939 2.61047 37.463 3.20379 36.1827 3.7692C34.9314 4.32065 33.7379 4.8372 32.6168 5.30489C31.445 5.79352 30.3095 6.25423 29.21 6.68701C28.0961 7.11979 27.0039 7.53164 25.9334 7.90858C24.9208 8.26458 23.9516 8.59264 23.0112 8.87884C22.0782 9.16503 21.1885 9.41633 20.3495 9.62574C19.5321 9.82817 18.751 9.9957 18.006 10.1213C17.2537 10.247 16.5232 10.3447 15.8288 10.3936L13.695 10.5541L11.0911 10.7496L10.8886 13.2625L10.7222 15.3217C10.4401 18.8468 10.3389 22.2811 10.4112 25.6247C10.4835 28.9683 10.7367 32.2212 11.1634 35.3903C11.5974 38.5664 12.2122 41.6447 13.0151 44.6323C13.818 47.6199 14.8089 50.5028 15.9879 53.2949C17.1814 56.115 18.5701 58.8304 20.1469 61.4341C21.7238 64.0377 23.4886 66.5228 25.4488 68.8961C27.4162 71.2764 29.5717 73.545 31.9297 75.7019C34.2877 77.8589 36.8409 79.9041 39.5967 81.8377L40.9855 82.808L42.6708 83.9946L44.4212 82.8778L45.8606 81.9633C48.6526 80.1903 51.2276 78.2637 53.5856 76.1975C55.9436 74.1383 58.0846 71.9325 60.0303 69.5941C61.976 67.2557 63.7191 64.7846 65.2743 62.1949C66.8294 59.5982 68.1964 56.8829 69.3754 54.0488C70.54 51.2636 71.5237 48.3738 72.341 45.3932C73.1584 42.4056 73.8093 39.3202 74.3084 36.1442C74.8003 33.003 75.133 29.7571 75.3283 26.4275C75.5236 23.0839 75.5742 19.6496 75.4946 16.1315L75.4512 14.1909L75.3934 11.8315L73.0065 11.3708L71.039 10.9939C69.9975 10.7984 68.9632 10.5751 67.9288 10.3238C66.909 10.0795 65.8891 9.8142 64.8692 9.52801C63.8638 9.24181 62.8223 8.92771 61.759 8.58567C60.6813 8.23665 59.589 7.86668 58.4968 7.48276C57.3757 7.08488 56.2618 6.67303 55.1479 6.25421C54.034 5.82841 52.9057 5.38866 51.7628 4.92098C50.6345 4.46725 49.4844 3.98559 48.3054 3.48999L48.3199 3.46206ZM54.5114 17.9952C53.4265 17.6113 52.3198 17.2064 51.2131 16.7876C50.0992 16.3688 48.9781 15.929 47.8497 15.4753C46.989 15.1263 46.1066 14.7703 45.2169 14.4003C44.3634 14.0443 43.4737 13.6674 42.5623 13.2765C41.4991 13.7511 40.4864 14.1979 39.5317 14.6097C38.5263 15.0495 37.5787 15.4474 36.7035 15.8103C35.5679 16.285 34.4251 16.7387 33.275 17.1855C32.1394 17.6252 31.0111 18.0441 29.8827 18.442C28.9207 18.784 27.9732 19.0981 27.0546 19.3913C26.1359 19.6845 25.2246 19.9497 24.3277 20.194C23.8937 20.3127 23.4742 20.4174 23.0763 20.5151C22.7436 20.5989 22.4037 20.6757 22.0637 20.7525C21.9841 23.1607 22.0059 25.5061 22.1216 27.7956C22.2373 30.148 22.4615 32.4446 22.787 34.6713C23.1631 37.2471 23.6767 39.7321 24.3349 42.1333C24.9931 44.5346 25.7888 46.8381 26.7291 49.0579C27.6549 51.2427 28.7326 53.3647 29.9623 55.41C31.1847 57.4552 32.5662 59.4307 34.0996 61.3363C35.3943 62.9488 36.7975 64.4984 38.3093 65.9922C39.7703 67.4372 41.3327 68.8193 42.9891 70.1525C44.5804 68.9519 46.0631 67.6815 47.4447 66.3483C48.8841 64.9661 50.2149 63.5002 51.4446 61.9715C52.9201 60.1357 54.251 58.2091 55.4373 56.1918C56.6307 54.1675 57.6795 52.0594 58.5981 49.8606C59.5457 47.592 60.3558 45.2256 61.0429 42.7686C61.7301 40.3115 62.2798 37.7636 62.7138 35.146C63.0899 32.8634 63.3792 30.504 63.5745 28.0888C63.7698 25.7364 63.8855 23.3352 63.9217 20.8921C63.4081 20.7594 62.9018 20.6268 62.3955 20.4872C61.8458 20.3336 61.2527 20.1661 60.6379 19.9846C59.5674 19.6705 58.5258 19.3494 57.5059 19.0213C56.4716 18.6863 55.4734 18.3442 54.4969 18.0022L54.5114 17.9952ZM51.4229 16.2641C50.3162 15.8453 49.2023 15.4055 48.0739 14.9518C47.2349 14.6167 46.3597 14.2537 45.4483 13.8768C44.537 13.4998 43.6111 13.1089 42.6781 12.7041L42.5551 12.6552L42.4394 12.7111C41.3472 13.1997 40.2984 13.6604 39.3002 14.1002C38.3165 14.526 37.369 14.9308 36.4793 15.3008C35.322 15.7824 34.1864 16.2362 33.0653 16.6689C31.9369 17.1087 30.8085 17.5205 29.6946 17.9184C28.7471 18.2535 27.8068 18.5676 26.8882 18.8608C25.9624 19.154 25.0654 19.4192 24.183 19.6565C23.778 19.7682 23.3657 19.8729 22.9462 19.9776C22.5266 20.0823 22.1143 20.1731 21.7238 20.2569L21.5068 20.3057V20.5221C21.4127 23.0211 21.4272 25.4572 21.5502 27.8305C21.6659 30.2039 21.8974 32.5144 22.2228 34.7621C22.6062 37.3588 23.127 39.8717 23.7852 42.2869C24.4434 44.7021 25.2535 47.0336 26.201 49.2812C27.1414 51.501 28.2263 53.637 29.4632 55.7032C30.7073 57.7764 32.096 59.7727 33.6439 61.6923C34.9531 63.3118 36.3708 64.8824 37.897 66.3901C39.4232 67.8979 41.0578 69.3498 42.8082 70.7389L42.9891 70.8785L43.1699 70.7389C44.8408 69.4894 46.4031 68.1562 47.8642 66.7461C49.3253 65.3431 50.6706 63.8632 51.9147 62.3136C53.4047 60.4638 54.7501 58.5093 55.958 56.464C57.1587 54.4188 58.222 52.2828 59.1478 50.063C60.1026 47.7735 60.9272 45.3862 61.6143 42.9081C62.3015 40.4371 62.8584 37.8753 63.2996 35.2228C63.683 32.9123 63.9723 30.5459 64.1676 28.1237C64.3701 25.7085 64.4859 23.2235 64.5148 20.6757V20.4593L64.2978 20.4034C63.7336 20.2638 63.1622 20.1103 62.5691 19.9427C61.9615 19.7752 61.3756 19.6077 60.8187 19.4471C59.7627 19.14 58.7283 18.8189 57.7012 18.4838C56.6958 18.1558 55.6976 17.8207 54.7067 17.4717C53.6217 17.0878 52.5223 16.6829 51.4157 16.2641H51.4229Z" fill="url(#paint4_linear_108_2101)"/>
<path d="M43.5317 4.60791C48.3345 6.70202 52.971 8.61465 57.4699 10.1992C61.9111 11.7698 66.2365 13.0262 70.4751 13.836" stroke="#1A1A1A" stroke-width="0.606098" stroke-miterlimit="2.61"/>
<path d="M70.4834 13.842L72.4436 14.219L72.487 16.1595" stroke="#1A1A1A" stroke-width="0.606098" stroke-miterlimit="2.61"/>
<path d="M72.486 16.1602C72.8043 29.8487 71.0394 42.2598 66.5766 52.9397C62.0631 63.7523 54.8156 72.757 44.2046 79.507" stroke="#1A1A1A" stroke-width="0.606098" stroke-miterlimit="2.61"/>
<path d="M41.3833 79.4426C30.8086 72.0294 23.344 62.92 18.7944 52.1703C14.2737 41.4903 12.6607 29.2537 13.7529 15.5164" stroke="#1A1A1A" stroke-width="0.606098" stroke-miterlimit="2.61"/>
<path d="M13.7544 15.5254L13.9135 13.4592L16.0545 13.3057" stroke="#1A1A1A" stroke-width="0.606098" stroke-miterlimit="2.61"/>
<path d="M16.0532 13.3058C19.1345 13.0755 22.7872 12.1262 26.968 10.6533C31.2572 9.13857 36.1034 7.05842 41.4486 4.63623" stroke="#1A1A1A" stroke-width="0.606098" stroke-miterlimit="2.61"/>
<path d="M41.4487 4.62896L42.4903 4.1543L43.5319 4.60802" stroke="#1A1A1A" stroke-width="0.606098" stroke-miterlimit="2.61"/>
<path d="M55.7547 14.7209C51.4582 13.2061 47.0677 11.4122 42.5326 9.45068C37.4839 11.7263 32.8619 13.6878 28.6667 15.1676C24.9778 16.4729 21.6144 17.4013 18.591 17.8551C17.8532 30.0707 19.4011 40.9182 23.401 50.3626C27.3865 59.7722 33.8384 67.8485 42.9232 74.5426C51.8488 68.4907 58.0331 60.568 61.9679 51.1445C65.9606 41.5813 67.6531 30.4616 67.5519 18.1552C63.6822 17.3036 59.7618 16.1309 55.7619 14.7139" stroke="#1A1A1A" stroke-width="0.606098" stroke-miterlimit="2.61"/>
<path fill-rule="evenodd" clip-rule="evenodd" d="M43.5316 4.60627C48.3344 6.70038 52.9708 8.61301 57.4698 10.1976C61.9109 11.7681 66.2363 13.0246 70.4749 13.8343L72.4423 14.2113L72.4857 16.1518C72.804 29.8403 71.0391 42.2514 66.5763 52.9314C62.0628 63.744 54.8152 72.7487 44.2043 79.4987L42.9674 80.2805V74.5007C51.8569 68.4488 58.0267 60.54 61.9471 51.1444C65.9398 41.5813 67.6323 30.4616 67.531 18.1552C63.6613 17.3036 59.741 16.1309 55.7411 14.7139C51.5893 13.248 47.3434 11.5168 42.9602 9.63215V4.36195L43.5171 4.60627H43.5316ZM42.9746 80.2805V74.5007L42.9168 74.5426C33.832 67.8484 27.3801 59.7791 23.3946 50.3626C19.3947 40.9182 17.8468 30.0637 18.5846 17.855C21.6081 17.4013 24.9714 16.4659 28.6603 15.1676C32.8555 13.6877 37.4847 11.7263 42.5262 9.45065L42.9746 9.6461V4.37593L42.49 4.1665L41.4484 4.64116C36.1032 7.07033 31.257 9.14352 26.9678 10.6583C22.787 12.1381 19.1343 13.0804 16.053 13.3108L13.9193 13.4714L13.7529 15.5305C12.6607 29.2679 14.2737 41.5045 18.7944 52.1845C23.344 62.9273 30.8086 72.0367 41.3834 79.4568L42.7721 80.4271L42.9746 80.2944V80.2805Z" fill="url(#paint5_linear_108_2101)"/>
<path fill-rule="evenodd" clip-rule="evenodd" d="M57.0428 13.1565C54.41 12.2281 51.7337 11.202 48.9996 10.1131C46.9454 9.28937 44.761 8.37496 42.4681 7.39771C39.8136 8.58437 37.3905 9.63841 35.2567 10.5249C32.4792 11.6767 29.7523 12.7377 27.0399 13.694C24.7253 14.5107 22.4975 15.2157 20.3493 15.7951C19.3367 16.0673 18.3385 16.3116 17.362 16.528C17.1523 22.5521 17.4416 28.269 18.23 33.6788C19.1486 39.9332 20.7326 45.7548 23.0183 51.1507C25.275 56.4767 28.2478 61.4467 31.9729 66.0747C35.1193 69.9837 38.7937 73.6135 42.9961 76.9571C47.0177 73.9416 50.5113 70.5561 53.5058 66.8356C57.0935 62.3751 59.9722 57.4539 62.2 52.107C64.5002 46.5925 66.1421 40.6173 67.1981 34.2442C68.1167 28.6878 68.5869 22.8313 68.6664 16.7025C67.2777 16.3465 65.8672 15.9626 64.4495 15.5438C61.8818 14.7899 59.4225 13.9872 57.0501 13.1495L57.0428 13.1565Z" fill="black"/>
<path fill-rule="evenodd" clip-rule="evenodd" d="M56.8546 13.6408C55.5454 13.1801 54.2146 12.6845 52.862 12.1749C51.5166 11.6654 50.1568 11.1349 48.797 10.5834C47.7481 10.1646 46.6849 9.72484 45.6144 9.28508C44.609 8.86626 43.5602 8.42648 42.4752 7.95879C41.2311 8.51722 40.0304 9.04076 38.8876 9.53636C37.658 10.0669 36.5151 10.5555 35.4663 10.9953C34.0993 11.5607 32.7178 12.1191 31.3218 12.6566C29.9475 13.1871 28.5804 13.6967 27.2206 14.1783C26.0561 14.5901 24.9132 14.9741 23.7993 15.3231C22.6854 15.6721 21.586 16.0002 20.4938 16.2934C19.9586 16.4399 19.4523 16.5656 18.9749 16.6843C18.6205 16.768 18.2588 16.8588 17.8827 16.9425C17.7959 19.7975 17.8176 22.5897 17.955 25.305C18.0997 28.146 18.3673 30.9103 18.7651 33.6047C19.2208 36.711 19.8428 39.7125 20.6312 42.6024C21.4269 45.4992 22.3817 48.2844 23.5173 50.9509C24.6312 53.5825 25.9259 56.1373 27.4087 58.6084C28.8842 61.0724 30.5478 63.4528 32.3995 65.7493C33.9691 67.6968 35.6544 69.5676 37.4771 71.3615C39.2059 73.0647 41.0431 74.7121 43.0033 76.2827C44.8766 74.8587 46.627 73.3579 48.2545 71.7873C49.9832 70.119 51.5889 68.3599 53.079 66.5102C54.8583 64.2974 56.4641 61.9729 57.8962 59.5438C59.3284 57.1076 60.5941 54.5598 61.7008 51.9072C62.8436 49.1709 63.8201 46.3229 64.6447 43.3563C65.4693 40.3896 66.1419 37.3182 66.6627 34.1561C67.1184 31.3989 67.4656 28.5649 67.7043 25.6401C67.9358 22.841 68.0732 19.9929 68.1166 17.0961C67.5379 16.9495 66.9665 16.7959 66.4096 16.6424C65.7586 16.4609 65.0497 16.2585 64.283 16.0351C62.9811 15.6512 61.7225 15.2603 60.4929 14.8624C59.2488 14.4575 58.0336 14.0457 56.8546 13.6269V13.6408ZM53.2525 11.2116C54.5834 11.7142 55.9071 12.2029 57.2235 12.6705C58.4098 13.0894 59.6177 13.5012 60.8328 13.8921C62.0697 14.29 63.321 14.6809 64.594 15.0578C65.245 15.2463 65.9466 15.4487 66.7061 15.6581C67.4294 15.8536 68.1238 16.0421 68.7965 16.2096L69.2016 16.3143V16.7192C69.1582 19.8045 69.0207 22.813 68.782 25.7378C68.5361 28.6626 68.1889 31.5315 67.726 34.3376C67.198 37.5486 66.5181 40.6549 65.6863 43.6425C64.8544 46.637 63.8563 49.5269 62.699 52.3121C61.5778 55.0065 60.2904 57.5962 58.8293 60.0742C57.3682 62.5593 55.7335 64.9256 53.9325 67.1663C52.428 69.037 50.7861 70.831 49.014 72.5412C47.2491 74.2444 45.354 75.8639 43.3287 77.3786L42.9888 77.6299L42.6561 77.3646C40.5368 75.6754 38.5549 73.9233 36.7104 72.0944C34.8588 70.2586 33.1373 68.3599 31.5532 66.3985C29.6799 64.074 27.9946 61.6518 26.4828 59.1389C24.9856 56.6329 23.6619 54.0362 22.5263 51.3488C21.3763 48.6264 20.3998 45.8064 19.5969 42.8746C18.794 39.9429 18.1648 36.8994 17.7018 33.7583C17.304 31.0429 17.0292 28.2438 16.8845 25.3678C16.7398 22.4989 16.7182 19.5462 16.8266 16.5237L16.8411 16.1258L17.2462 16.0351C17.7091 15.9304 18.2009 15.8187 18.7145 15.6931C19.2353 15.5674 19.7343 15.4348 20.2117 15.3091C21.2678 15.0229 22.3527 14.7018 23.4739 14.3528C24.5878 14.0038 25.7161 13.6199 26.8662 13.215C28.2188 12.7403 29.5714 12.2378 30.9384 11.7073C32.2765 11.1907 33.6508 10.6393 35.0613 10.0529C36.1463 9.59918 37.2819 9.11755 38.4609 8.60798C39.6616 8.08445 40.9346 7.52601 42.2582 6.93268L42.4752 6.83496L42.6994 6.93268C43.8278 7.41432 44.9417 7.88899 46.0484 8.34969C47.155 8.81039 48.2183 9.24319 49.2165 9.64805C50.5835 10.1925 51.9361 10.723 53.267 11.2256L53.2525 11.2116Z" fill="url(#paint6_linear_108_2101)"/>
<path fill-rule="evenodd" clip-rule="evenodd" d="M57.0427 13.1565C54.4098 12.2281 51.7336 11.202 48.9995 10.1131C46.9453 9.28937 44.7609 8.37496 42.468 7.39771C39.8134 8.58437 37.3903 9.63841 35.2566 10.5249C32.479 11.6767 29.7522 12.7377 27.0398 13.694C24.7252 14.5107 22.4974 15.2157 20.3491 15.7951C19.3365 16.0673 18.3383 16.3116 17.3546 16.528C17.1449 22.5521 17.4342 28.269 18.2298 33.6788C19.1485 39.9332 20.7325 45.7548 23.0182 51.1507C25.2749 56.4767 28.2477 61.4467 31.9727 66.0747C35.1191 69.9837 38.7936 73.6135 42.996 76.9571C47.0176 73.9416 50.5112 70.5561 53.5057 66.8356C57.0933 62.3751 59.9721 57.4539 62.1999 52.107C64.5 46.5925 66.1419 40.6173 67.1979 34.2442C68.1165 28.6878 68.5867 22.8313 68.6663 16.7025C67.2775 16.3465 65.8671 15.9626 64.4494 15.5438C61.8816 14.7899 59.4224 13.9872 57.0499 13.1495L57.0427 13.1565Z" fill="url(#paint7_radial_108_2101)"/>
<g clip-path="url(#clip0_108_2101)">
<path d="M27.9428 55.4667C27.5264 54.6105 27.11 53.7543 26.6399 52.7519C26.3983 52.2434 26.2105 51.8811 26.0226 51.5189C25.5948 50.3308 25.1819 49.1353 24.7302 47.9594C24.5975 47.6139 24.0831 45.4683 23.8484 45.0802C23.5829 43.0833 23.6318 43.0148 23.3681 41.0048C23.2252 39.457 23.1228 37.9951 23.0044 36.4229C22.9916 36.051 22.9948 35.7891 22.9969 35.3522C22.9578 34.9736 22.9197 34.77 22.8817 34.5664C22.8817 34.5664 22.8897 34.4549 22.8808 34.309C22.8643 33.9777 22.8567 33.7923 22.8491 33.607C22.8894 32.3732 22.9298 31.1394 22.9475 29.7973C22.9373 29.5042 22.9497 29.3195 22.9657 28.9653C22.9561 28.6848 22.943 28.5739 22.93 28.4629C22.928 28.1872 22.9261 27.9114 22.9354 27.4843C22.9572 27.1364 22.9678 26.9398 22.9783 26.7433C22.9912 26.2425 23.004 25.7418 23.0189 25.0267C23.0301 24.233 23.0393 23.6535 23.1467 23.0698C24.383 22.9773 25.5212 22.8888 26.7533 22.813C30.0029 22.5769 33.0507 21.7857 35.9098 20.2219C37.0794 19.5821 38.1491 18.701 39.332 17.925C40.2159 17.362 41.1449 16.9411 41.819 16.2099C42.6185 15.3427 43.2129 15.2914 43.9532 16.2766C44.3384 16.6135 44.6843 16.8829 45.0712 17.2157C45.4351 17.5277 45.7581 17.7763 46.1483 18.0753C46.8072 18.4794 47.3989 18.8331 48.0354 19.2576C49.1256 19.8332 50.171 20.338 51.2809 20.8955C52.6406 21.3752 53.9357 21.8022 55.2308 22.2293C56.4638 22.4332 57.6968 22.6371 59.0232 22.824C60.2703 22.9362 61.4241 23.0656 62.766 23.2159C62.766 25.0087 62.766 26.8694 62.786 28.8432C62.8007 29.3765 62.7954 29.7968 62.7884 30.4169C62.7982 30.8817 62.8097 31.1466 62.8213 31.4115C62.8091 31.6725 62.7969 31.9335 62.784 32.3943C62.7947 33.0177 62.8062 33.4413 62.8177 33.8648C62.4369 37.6583 62.131 41.4647 61.6395 45.2392C61.4343 46.8149 60.8345 48.3228 60.3954 49.93C59.4235 48.8607 58.5628 47.9137 57.6078 46.8427C57.419 46.3947 57.1802 46.0193 57.2518 45.7549C58.1798 42.3309 58.4892 38.8035 58.58 35.2494C58.6473 32.616 58.5933 29.9785 58.5933 27.3902C56.855 27.0788 55.3169 26.8032 53.7028 26.4902C51.9995 25.8792 50.3723 25.3056 48.6919 24.666C47.3731 23.892 46.1076 23.184 44.8038 22.42C44.5819 22.2607 44.3982 22.1575 44.1724 21.9832C42.7617 20.8942 42.7617 20.8942 41.9299 22.0502C40.3394 22.9484 38.8322 23.8475 37.2406 24.7569C36.983 24.7985 36.7996 24.798 36.6381 24.8659C33.7859 26.0643 30.8764 26.9647 27.8365 27.2812C27.5774 27.3082 27.1866 27.8832 27.1602 28.2337C27.0752 29.3653 27.1318 30.511 27.1199 31.7331C27.1144 31.9255 27.1228 32.0358 27.1193 32.2476C27.1191 32.6888 27.1311 33.0285 27.1292 33.4504C27.1242 33.643 27.133 33.7535 27.1274 33.9493C27.159 34.5618 27.2049 35.089 27.2528 35.727C27.3459 37.2259 27.4369 38.614 27.5152 40.0617C27.5084 40.1618 27.5142 40.2022 27.5143 40.345C28.0037 42.6691 28.4988 44.8909 29.0023 47.2032C29.3408 48.059 29.6708 48.8244 30.0344 49.6719C30.4949 50.5917 30.9219 51.4292 31.3637 52.3433C31.5732 52.7009 31.7679 52.9818 31.9918 53.3414C32.3803 53.8238 32.5453 54.1759 32.113 54.7254C31.4546 55.5624 30.8889 56.4956 30.2028 57.409C29.7573 57.2111 29.3927 56.9922 29.0219 56.6949C28.6581 56.2332 28.3004 55.85 27.9428 55.4667Z" fill="url(#paint8_linear_108_2101)"/>
<path d="M40.7145 61.5299C41.2408 62.0761 41.7671 62.6223 42.3562 63.2338C44.4161 60.9656 46.4485 58.7304 48.4782 56.4919C50.4619 54.3041 52.4393 52.1088 54.4299 49.9291C54.6442 49.6945 54.9275 49.5413 55.2484 49.381C56.1865 50.468 57.0549 51.5244 57.8247 52.4608C56.3673 54.1952 54.9175 55.9204 53.4395 57.7187C50.0622 61.4595 46.7174 65.1323 43.3561 68.7854C43.0809 69.0845 42.6929 69.2497 42.2921 69.451C39.7896 67.1124 37.3524 64.8 34.843 62.4738C33.9807 61.5299 33.1906 60.5998 32.3425 59.6015C33.1784 58.4882 34.0526 57.3238 34.9851 56.0816C35.5865 56.6625 36.1486 57.2055 36.8202 57.8437C38.1913 59.136 39.4529 60.3329 40.7145 61.5299Z" fill="url(#paint9_linear_108_2101)"/>
</g>
<g opacity="0.5" clip-path="url(#clip1_108_2101)">
<path d="M27.9428 55.4667C27.5264 54.6105 27.11 53.7543 26.6399 52.7519C26.3983 52.2434 26.2105 51.8811 26.0226 51.5189C25.5948 50.3308 25.1819 49.1353 24.7302 47.9594C24.5975 47.6139 24.0831 45.4683 23.8484 45.0802C23.5829 43.0833 23.6318 43.0148 23.3681 41.0048C23.2252 39.457 23.1228 37.9951 23.0044 36.4229C22.9916 36.051 22.9948 35.7891 22.9969 35.3522C22.9578 34.9736 22.9197 34.77 22.8817 34.5664C22.8817 34.5664 22.8897 34.4549 22.8808 34.309C22.8643 33.9777 22.8567 33.7923 22.8491 33.607C22.8894 32.3732 22.9298 31.1394 22.9475 29.7973C22.9373 29.5042 22.9497 29.3195 22.9657 28.9653C22.9561 28.6848 22.943 28.5739 22.93 28.4629C22.928 28.1872 22.9261 27.9114 22.9354 27.4843C22.9572 27.1364 22.9678 26.9398 22.9783 26.7433C22.9912 26.2425 23.004 25.7418 23.0189 25.0267C23.0301 24.233 23.0393 23.6535 23.1467 23.0698C24.383 22.9773 25.5212 22.8888 26.7533 22.813C30.0029 22.5769 33.0507 21.7857 35.9098 20.2219C37.0794 19.5821 38.1491 18.701 39.332 17.925C40.2159 17.362 41.1449 16.9411 41.819 16.2099C42.6185 15.3427 43.2129 15.2914 43.9532 16.2766C44.3384 16.6135 44.6843 16.8829 45.0712 17.2157C45.4351 17.5277 45.7581 17.7763 46.1483 18.0753C46.8072 18.4794 47.3989 18.8331 48.0354 19.2576C49.1256 19.8332 50.171 20.338 51.2809 20.8955C52.6406 21.3752 53.9357 21.8022 55.2308 22.2293C56.4638 22.4332 57.6968 22.6371 59.0232 22.824C60.2703 22.9362 61.4241 23.0656 62.766 23.2159C62.766 25.0087 62.766 26.8694 62.786 28.8432C62.8007 29.3765 62.7954 29.7968 62.7884 30.4169C62.7982 30.8817 62.8097 31.1466 62.8213 31.4115C62.8091 31.6725 62.7969 31.9335 62.784 32.3943C62.7947 33.0177 62.8062 33.4413 62.8177 33.8648C62.4369 37.6583 62.131 41.4647 61.6395 45.2392C61.4343 46.8149 60.8345 48.3228 60.3954 49.93C59.4235 48.8607 58.5628 47.9137 57.6078 46.8427C57.419 46.3947 57.1802 46.0193 57.2518 45.7549C58.1798 42.3309 58.4892 38.8035 58.58 35.2494C58.6473 32.616 58.5933 29.9785 58.5933 27.3902C56.855 27.0788 55.3169 26.8032 53.7028 26.4902C51.9995 25.8792 50.3723 25.3056 48.6919 24.666C47.3731 23.892 46.1076 23.184 44.8038 22.42C44.5819 22.2607 44.3982 22.1575 44.1724 21.9832C42.7617 20.8942 42.7617 20.8942 41.9299 22.0502C40.3394 22.9484 38.8322 23.8475 37.2406 24.7569C36.983 24.7985 36.7996 24.798 36.6381 24.8659C33.7859 26.0643 30.8764 26.9647 27.8365 27.2812C27.5774 27.3082 27.1866 27.8832 27.1602 28.2337C27.0752 29.3653 27.1318 30.511 27.1199 31.7331C27.1144 31.9255 27.1228 32.0358 27.1193 32.2476C27.1191 32.6888 27.1311 33.0285 27.1292 33.4504C27.1242 33.643 27.133 33.7535 27.1274 33.9493C27.159 34.5618 27.2049 35.089 27.2528 35.727C27.3459 37.2259 27.4369 38.614 27.5152 40.0617C27.5084 40.1618 27.5142 40.2022 27.5143 40.345C28.0037 42.6691 28.4988 44.8909 29.0023 47.2032C29.3408 48.059 29.6708 48.8244 30.0344 49.6719C30.4949 50.5917 30.9219 51.4292 31.3637 52.3433C31.5732 52.7009 31.7679 52.9818 31.9918 53.3414C32.3803 53.8238 32.5453 54.1759 32.113 54.7254C31.4546 55.5624 30.8889 56.4956 30.2028 57.409C29.7573 57.2111 29.3927 56.9922 29.0219 56.6949C28.6581 56.2332 28.3004 55.85 27.9428 55.4667Z" fill="url(#paint10_linear_108_2101)"/>
<path d="M40.7145 61.5299C41.2408 62.0761 41.7671 62.6223 42.3562 63.2338C44.4161 60.9656 46.4485 58.7304 48.4782 56.4919C50.4619 54.3041 52.4393 52.1088 54.4299 49.9291C54.6442 49.6945 54.9275 49.5413 55.2484 49.381C56.1865 50.468 57.0549 51.5244 57.8247 52.4608C56.3673 54.1952 54.9175 55.9204 53.4395 57.7187C50.0622 61.4595 46.7174 65.1323 43.3561 68.7854C43.0809 69.0845 42.6929 69.2497 42.2921 69.451C39.7896 67.1124 37.3524 64.8 34.843 62.4738C33.9807 61.5299 33.1906 60.5998 32.3425 59.6015C33.1784 58.4882 34.0526 57.3238 34.9851 56.0816C35.5865 56.6625 36.1486 57.2055 36.8202 57.8437C38.1913 59.136 39.4529 60.3329 40.7145 61.5299Z" fill="url(#paint11_linear_108_2101)"/>
</g>
<path d="M32.228 35.1762L36.2178 33.5777H38.8198V50.7922H35.8275V37.1681L32.9653 38.078L32.228 35.1762Z" fill="url(#paint12_linear_108_2101)"/>
<path d="M49.8722 41.8406C51.2744 42.7915 51.9755 44.1769 51.9755 45.9967C51.9755 47.587 51.484 48.8412 50.501 49.7593C49.5325 50.6774 48.2098 51.1364 46.5329 51.1364C44.8416 51.1364 43.5117 50.6774 42.5432 49.7593C41.5747 48.8412 41.0904 47.587 41.0904 45.9967C41.0904 44.1933 41.7843 42.8079 43.172 41.8406C42.1168 40.9881 41.5891 39.7995 41.5891 38.2748C41.5891 36.6845 42.0589 35.4467 42.9986 34.5614C43.9526 33.6761 45.1308 33.2334 46.5329 33.2334C47.9496 33.2334 49.1205 33.6761 50.0456 34.5614C50.9853 35.4467 51.4551 36.6845 51.4551 38.2748C51.4551 39.7995 50.9274 40.9881 49.8722 41.8406ZM48.4844 38.4469C48.4844 37.8239 48.3037 37.3321 47.9424 36.9714C47.581 36.6107 47.1112 36.4304 46.5329 36.4304C45.9547 36.4304 45.4849 36.6107 45.1235 36.9714C44.7621 37.3321 44.5814 37.8239 44.5814 38.4469C44.5814 39.0863 44.7621 39.5864 45.1235 39.947C45.4849 40.3077 45.9547 40.4881 46.5329 40.4881C47.1112 40.4881 47.581 40.3077 47.9424 39.947C48.3037 39.5864 48.4844 39.0863 48.4844 38.4469ZM48.3327 47.3001C48.7808 46.8738 49.0048 46.2918 49.0048 45.554C49.0048 44.8163 48.7808 44.2425 48.3327 43.8326C47.8845 43.4063 47.2846 43.1932 46.5329 43.1932C45.7813 43.1932 45.1813 43.4063 44.7332 43.8326C44.2851 44.2425 44.061 44.8163 44.061 45.554C44.061 46.2918 44.2851 46.8738 44.7332 47.3001C45.1813 47.7263 45.7813 47.9395 46.5329 47.9395C47.2846 47.9395 47.8845 47.7263 48.3327 47.3001Z" fill="url(#paint13_linear_108_2101)"/>
<path d="M33.6875 19.0645L34.1266 19.4953L34.1338 19.4995L34.144 18.8434L34.5453 18.4951L34.0556 18.1903L33.8641 17.5424L33.5528 18.0084L33.0303 17.9603L33.3212 18.5507L33.1902 19.1665L33.6875 19.0645Z" fill="url(#paint14_linear_108_2101)"/>
<path d="M30.8547 20.0502L31.1987 20.6062L31.2008 20.5974L31.3558 20.0006L31.8346 19.8226L31.4136 19.3672L31.3648 18.702L30.9508 19.0179L30.4396 18.7859L30.6055 19.439L30.3406 19.9669L30.8547 20.0502Z" fill="url(#paint15_linear_108_2101)"/>
<path d="M28.0738 20.5296L28.3858 21.1171L28.5837 20.5452L29.0781 20.4214L28.6865 19.928L28.6824 19.2637L28.2436 19.5301L27.745 19.2453L27.8641 19.9062L27.5605 20.3916L28.0738 20.5296Z" fill="url(#paint16_linear_108_2101)"/>
<path d="M25.6682 21.332L25.6705 21.3388L25.668 21.3323L25.6682 21.332L25.4533 20.696L24.9598 20.4242L25.3439 20.0457L25.3305 19.386L25.7831 19.7946L26.2678 19.6602L26.1654 20.2926L26.477 20.8649L25.9599 20.8451L25.6682 21.332Z" fill="url(#paint17_linear_108_2101)"/>
<path d="M36.6286 17.1488L36.7595 17.8116L36.7569 17.8051L36.2635 17.5333L35.8251 17.815L35.8117 17.1553L35.4108 16.6665L35.8955 16.5321L36.0884 15.9472L36.4025 16.5259L36.9251 16.6593L36.6286 17.1488Z" fill="url(#paint18_linear_108_2101)"/>
<path d="M38.8134 15.1395L38.9864 15.7967L38.4803 15.5777L38.0667 15.9089L38.0087 15.2483L37.5784 14.7976L38.0475 14.609L38.1974 13.9991L38.5481 14.544L39.069 14.6162L38.8134 15.1395Z" fill="url(#paint19_linear_108_2101)"/>
<path d="M40.959 13.669L40.9561 13.6624L40.4423 13.5792L40.1071 14.0262L39.9438 13.3796L39.4625 13.0397L39.8765 12.7237L39.9148 12.0691L40.3359 12.5245L40.8412 12.4572L40.6862 13.0541L40.9561 13.6624L40.9565 13.6625L40.959 13.669Z" fill="url(#paint20_linear_108_2101)"/>
<path d="M51.312 19.0645L50.8729 19.4953L50.8657 19.4995L50.8555 18.8434L50.4542 18.4951L50.9439 18.1903L51.1354 17.5424L51.4467 18.0084L51.9692 17.9603L51.6783 18.5507L51.8093 19.1665L51.312 19.0645Z" fill="url(#paint21_linear_108_2101)"/>
<path d="M54.1448 20.0502L53.8008 20.6062L53.7987 20.5974L53.6437 20.0006L53.1649 19.8226L53.586 19.3672L53.6347 18.702L54.0487 19.0179L54.5599 18.7859L54.394 19.439L54.6589 19.9669L54.1448 20.0502Z" fill="url(#paint22_linear_108_2101)"/>
<path d="M56.9257 20.5296L56.6138 21.1171L56.4158 20.5452L55.9214 20.4214L56.313 19.928L56.3171 19.2637L56.7559 19.5301L57.2545 19.2453L57.1354 19.9062L57.439 20.3916L56.9257 20.5296Z" fill="url(#paint23_linear_108_2101)"/>
<path d="M59.3313 21.332L59.329 21.3388L59.3315 21.3323L59.3313 21.332L59.5462 20.696L60.0397 20.4242L59.6556 20.0457L59.669 19.386L59.2164 19.7946L58.7317 19.6602L58.8341 20.2926L58.5225 20.8649L59.0396 20.8451L59.3313 21.332Z" fill="url(#paint24_linear_108_2101)"/>
<path d="M48.3709 17.1488L48.24 17.8116L48.2426 17.8051L48.7361 17.5333L49.1745 17.815L49.1879 17.1553L49.5887 16.6665L49.104 16.5321L48.9111 15.9472L48.597 16.5259L48.0744 16.6593L48.3709 17.1488Z" fill="url(#paint25_linear_108_2101)"/>
<path d="M46.1861 15.1395L46.0131 15.7967L46.5193 15.5777L46.9328 15.9089L46.9908 15.2483L47.4212 14.7976L46.952 14.609L46.8021 13.9991L46.4514 14.544L45.9305 14.6162L46.1861 15.1395Z" fill="url(#paint26_linear_108_2101)"/>
<path d="M44.0405 13.669L44.0434 13.6624L44.5572 13.5792L44.8924 14.0262L45.0558 13.3796L45.537 13.0397L45.1231 12.7237L45.0847 12.0691L44.6636 12.5245L44.1583 12.4572L44.3133 13.0541L44.0434 13.6624L44.0431 13.6625L44.0405 13.669Z" fill="url(#paint27_linear_108_2101)"/>
<defs>
<linearGradient id="paint0_linear_108_2101" x1="82.2579" y1="46.2585" x2="3.6847" y2="46.2585" gradientUnits="userSpaceOnUse">
<stop stop-color="#DBA73E"/>
<stop offset="0.16" stop-color="#D89D3A"/>
<stop offset="0.54" stop-color="#F4F3B8"/>
<stop offset="0.56" stop-color="#F7ED9A"/>
<stop offset="0.69" stop-color="#D5B767"/>
<stop offset="0.85" stop-color="#D0AB5B"/>
<stop offset="1" stop-color="#E0C77D"/>
</linearGradient>
<linearGradient id="paint1_linear_108_2101" x1="3.97356" y1="42.468" x2="76.2178" y2="42.468" gradientUnits="userSpaceOnUse">
<stop stop-color="#5E5F5F"/>
<stop offset="0.05" stop-color="#000002"/>
<stop offset="0.13" stop-color="#424242"/>
<stop offset="0.21" stop-color="#1B1B1B"/>
<stop offset="0.49" stop-color="#000002"/>
<stop offset="0.79" stop-color="#1B1B1B"/>
<stop offset="0.87" stop-color="#5E5F5F"/>
<stop offset="0.94" stop-color="#000002"/>
<stop offset="1" stop-color="#5E5F5F"/>
</linearGradient>
<linearGradient id="paint2_linear_108_2101" x1="16.6113" y1="83.4155" x2="54.5101" y2="-4.78529" gradientUnits="userSpaceOnUse">
<stop stop-color="#482A0F"/>
<stop offset="0.1" stop-color="#A77129"/>
<stop offset="0.15" stop-color="white"/>
<stop offset="0.22" stop-color="#DA9E41"/>
<stop offset="0.34" stop-color="#8E5923"/>
<stop offset="0.5" stop-color="#D8A64D"/>
<stop offset="0.66" stop-color="#F5E380"/>
<stop offset="0.72" stop-color="#DAC164"/>
<stop offset="0.77" stop-color="white"/>
<stop offset="0.83" stop-color="#A0752B"/>
<stop offset="1" stop-color="#664219"/>
</linearGradient>
<linearGradient id="paint3_linear_108_2101" x1="-2.97736" y1="42.4691" x2="76.0443" y2="42.4691" gradientUnits="userSpaceOnUse">
<stop stop-color="#868786"/>
<stop offset="0.05" stop-color="#3B3B3C"/>
<stop offset="0.13" stop-color="#706F70"/>
<stop offset="0.21" stop-color="#4F5050"/>
<stop offset="0.49" stop-color="#3B3B3C"/>
<stop offset="0.79" stop-color="#4F5050"/>
<stop offset="0.87" stop-color="#868786"/>
<stop offset="0.94" stop-color="#3B3B3C"/>
<stop offset="1" stop-color="#868786"/>
</linearGradient>
<linearGradient id="paint4_linear_108_2101" x1="42.9674" y1="79.59" x2="42.9674" y2="5.37469" gradientUnits="userSpaceOnUse">
<stop stop-color="#BA9555"/>
<stop offset="0.12" stop-color="#965824"/>
<stop offset="0.4" stop-color="#FCF6AC"/>
<stop offset="0.67" stop-color="#D3AC53"/>
<stop offset="0.85" stop-color="#BD882C"/>
<stop offset="1" stop-color="#A25D25"/>
</linearGradient>
<linearGradient id="paint5_linear_108_2101" x1="3.4602" y1="42.2863" x2="82.4819" y2="42.2863" gradientUnits="userSpaceOnUse">
<stop stop-color="#B2AC9F"/>
<stop offset="0.05" stop-color="#B8B4A7"/>
<stop offset="0.13" stop-color="white"/>
<stop offset="0.49" stop-color="#B5AA93"/>
<stop offset="0.84" stop-color="white"/>
<stop offset="0.9" stop-color="#D0CDC8"/>
<stop offset="1" stop-color="#9D9482"/>
</linearGradient>
<linearGradient id="paint6_linear_108_2101" x1="20.1249" y1="76.8202" x2="52.4227" y2="1.66021" gradientUnits="userSpaceOnUse">
<stop stop-color="#482A0F"/>
<stop offset="0.1" stop-color="#A77129"/>
<stop offset="0.15" stop-color="white"/>
<stop offset="0.22" stop-color="#DA9E41"/>
<stop offset="0.34" stop-color="#8E5923"/>
<stop offset="0.5" stop-color="#D8A64D"/>
<stop offset="0.66" stop-color="#F5E380"/>
<stop offset="0.72" stop-color="#DAC164"/>
<stop offset="0.77" stop-color="white"/>
<stop offset="0.83" stop-color="#A0752B"/>
<stop offset="1" stop-color="#664219"/>
</linearGradient>
<radialGradient id="paint7_radial_108_2101" cx="0" cy="0" r="1" gradientUnits="userSpaceOnUse" gradientTransform="translate(41.4395 42.1844) scale(40.3342 42.3078)">
<stop offset="0.385417" stop-color="#1C4AED"/>
<stop offset="1" stop-color="#000002"/>
</radialGradient>
<linearGradient id="paint8_linear_108_2101" x1="91.3728" y1="74.0978" x2="-12.6674" y2="35.2191" gradientUnits="userSpaceOnUse">
<stop stop-color="#482A0F"/>
<stop offset="0.1" stop-color="#A77129"/>
<stop offset="0.15" stop-color="white"/>
<stop offset="0.22" stop-color="#DA9E41"/>
<stop offset="0.34" stop-color="#8E5923"/>
<stop offset="0.5" stop-color="#D8A64D"/>
<stop offset="0.66" stop-color="#F5E380"/>
<stop offset="0.72" stop-color="#DAC164"/>
<stop offset="0.77" stop-color="white"/>
<stop offset="0.83" stop-color="#A0752B"/>
<stop offset="1" stop-color="#664219"/>
</linearGradient>
<linearGradient id="paint9_linear_108_2101" x1="91.3728" y1="74.0978" x2="-12.6674" y2="35.2191" gradientUnits="userSpaceOnUse">
<stop stop-color="#482A0F"/>
<stop offset="0.1" stop-color="#A77129"/>
<stop offset="0.15" stop-color="white"/>
<stop offset="0.22" stop-color="#DA9E41"/>
<stop offset="0.34" stop-color="#8E5923"/>
<stop offset="0.5" stop-color="#D8A64D"/>
<stop offset="0.66" stop-color="#F5E380"/>
<stop offset="0.72" stop-color="#DAC164"/>
<stop offset="0.77" stop-color="white"/>
<stop offset="0.83" stop-color="#A0752B"/>
<stop offset="1" stop-color="#664219"/>
</linearGradient>
<linearGradient id="paint10_linear_108_2101" x1="91.3728" y1="74.0978" x2="-12.6674" y2="35.2191" gradientUnits="userSpaceOnUse">
<stop stop-color="#482A0F"/>
<stop offset="0.1" stop-color="#A77129"/>
<stop offset="0.15" stop-color="white"/>
<stop offset="0.22" stop-color="#DA9E41"/>
<stop offset="0.34" stop-color="#8E5923"/>
<stop offset="0.5" stop-color="#D8A64D"/>
<stop offset="0.66" stop-color="#F5E380"/>
<stop offset="0.72" stop-color="#DAC164"/>
<stop offset="0.77" stop-color="white"/>
<stop offset="0.83" stop-color="#A0752B"/>
<stop offset="1" stop-color="#664219"/>
</linearGradient>
<linearGradient id="paint11_linear_108_2101" x1="91.3728" y1="74.0978" x2="-12.6674" y2="35.2191" gradientUnits="userSpaceOnUse">
<stop stop-color="#482A0F"/>
<stop offset="0.1" stop-color="#A77129"/>
<stop offset="0.15" stop-color="white"/>
<stop offset="0.22" stop-color="#DA9E41"/>
<stop offset="0.34" stop-color="#8E5923"/>
<stop offset="0.5" stop-color="#D8A64D"/>
<stop offset="0.66" stop-color="#F5E380"/>
<stop offset="0.72" stop-color="#DAC164"/>
<stop offset="0.77" stop-color="white"/>
<stop offset="0.83" stop-color="#A0752B"/>
<stop offset="1" stop-color="#664219"/>
</linearGradient>
<linearGradient id="paint12_linear_108_2101" x1="68.0257" y1="61.6767" x2="12.5578" y2="42.1305" gradientUnits="userSpaceOnUse">
<stop stop-color="#482A0F"/>
<stop offset="0.1" stop-color="#A77129"/>
<stop offset="0.15" stop-color="white"/>
<stop offset="0.22" stop-color="#DA9E41"/>
<stop offset="0.34" stop-color="#8E5923"/>
<stop offset="0.5" stop-color="#D8A64D"/>
<stop offset="0.66" stop-color="#F5E380"/>
<stop offset="0.72" stop-color="#DAC164"/>
<stop offset="0.77" stop-color="white"/>
<stop offset="0.83" stop-color="#A0752B"/>
<stop offset="1" stop-color="#664219"/>
</linearGradient>
<linearGradient id="paint13_linear_108_2101" x1="68.0257" y1="61.6767" x2="12.5578" y2="42.1305" gradientUnits="userSpaceOnUse">
<stop stop-color="#482A0F"/>
<stop offset="0.1" stop-color="#A77129"/>
<stop offset="0.15" stop-color="white"/>
<stop offset="0.22" stop-color="#DA9E41"/>
<stop offset="0.34" stop-color="#8E5923"/>
<stop offset="0.5" stop-color="#D8A64D"/>
<stop offset="0.66" stop-color="#F5E380"/>
<stop offset="0.72" stop-color="#DAC164"/>
<stop offset="0.77" stop-color="white"/>
<stop offset="0.83" stop-color="#A0752B"/>
<stop offset="1" stop-color="#664219"/>
</linearGradient>
<linearGradient id="paint14_linear_108_2101" x1="2.86012" y1="-19.3718" x2="31.1369" y2="-26.7692" gradientUnits="userSpaceOnUse">
<stop stop-color="#BA9555"/>
<stop offset="0.12" stop-color="#965824"/>
<stop offset="0.4" stop-color="#FCF6AC"/>
<stop offset="0.67" stop-color="#D3AC53"/>
<stop offset="0.85" stop-color="#BD882C"/>
<stop offset="1" stop-color="#A25D25"/>
</linearGradient>
<linearGradient id="paint15_linear_108_2101" x1="2.86012" y1="-19.3718" x2="31.1369" y2="-26.7692" gradientUnits="userSpaceOnUse">
<stop stop-color="#BA9555"/>
<stop offset="0.12" stop-color="#965824"/>
<stop offset="0.4" stop-color="#FCF6AC"/>
<stop offset="0.67" stop-color="#D3AC53"/>
<stop offset="0.85" stop-color="#BD882C"/>
<stop offset="1" stop-color="#A25D25"/>
</linearGradient>
<linearGradient id="paint16_linear_108_2101" x1="2.86012" y1="-19.3718" x2="31.1369" y2="-26.7692" gradientUnits="userSpaceOnUse">
<stop stop-color="#BA9555"/>
<stop offset="0.12" stop-color="#965824"/>
<stop offset="0.4" stop-color="#FCF6AC"/>
<stop offset="0.67" stop-color="#D3AC53"/>
<stop offset="0.85" stop-color="#BD882C"/>
<stop offset="1" stop-color="#A25D25"/>
</linearGradient>
<linearGradient id="paint17_linear_108_2101" x1="2.86012" y1="-19.3718" x2="31.1369" y2="-26.7692" gradientUnits="userSpaceOnUse">
<stop stop-color="#BA9555"/>
<stop offset="0.12" stop-color="#965824"/>
<stop offset="0.4" stop-color="#FCF6AC"/>
<stop offset="0.67" stop-color="#D3AC53"/>
<stop offset="0.85" stop-color="#BD882C"/>
<stop offset="1" stop-color="#A25D25"/>
</linearGradient>
<linearGradient id="paint18_linear_108_2101" x1="2.86012" y1="-19.3718" x2="31.1369" y2="-26.7692" gradientUnits="userSpaceOnUse">
<stop stop-color="#BA9555"/>
<stop offset="0.12" stop-color="#965824"/>
<stop offset="0.4" stop-color="#FCF6AC"/>
<stop offset="0.67" stop-color="#D3AC53"/>
<stop offset="0.85" stop-color="#BD882C"/>
<stop offset="1" stop-color="#A25D25"/>
</linearGradient>
<linearGradient id="paint19_linear_108_2101" x1="2.86012" y1="-19.3718" x2="31.1369" y2="-26.7692" gradientUnits="userSpaceOnUse">
<stop stop-color="#BA9555"/>
<stop offset="0.12" stop-color="#965824"/>
<stop offset="0.4" stop-color="#FCF6AC"/>
<stop offset="0.67" stop-color="#D3AC53"/>
<stop offset="0.85" stop-color="#BD882C"/>
<stop offset="1" stop-color="#A25D25"/>
</linearGradient>
<linearGradient id="paint20_linear_108_2101" x1="2.86012" y1="-19.3718" x2="31.1369" y2="-26.7692" gradientUnits="userSpaceOnUse">
<stop stop-color="#BA9555"/>
<stop offset="0.12" stop-color="#965824"/>
<stop offset="0.4" stop-color="#FCF6AC"/>
<stop offset="0.67" stop-color="#D3AC53"/>
<stop offset="0.85" stop-color="#BD882C"/>
<stop offset="1" stop-color="#A25D25"/>
</linearGradient>
<linearGradient id="paint21_linear_108_2101" x1="82.1394" y1="-19.3718" x2="53.8626" y2="-26.7692" gradientUnits="userSpaceOnUse">
<stop stop-color="#BA9555"/>
<stop offset="0.12" stop-color="#965824"/>
<stop offset="0.4" stop-color="#FCF6AC"/>
<stop offset="0.67" stop-color="#D3AC53"/>
<stop offset="0.85" stop-color="#BD882C"/>
<stop offset="1" stop-color="#A25D25"/>
</linearGradient>
<linearGradient id="paint22_linear_108_2101" x1="82.1394" y1="-19.3718" x2="53.8626" y2="-26.7692" gradientUnits="userSpaceOnUse">
<stop stop-color="#BA9555"/>
<stop offset="0.12" stop-color="#965824"/>
<stop offset="0.4" stop-color="#FCF6AC"/>
<stop offset="0.67" stop-color="#D3AC53"/>
<stop offset="0.85" stop-color="#BD882C"/>
<stop offset="1" stop-color="#A25D25"/>
</linearGradient>
<linearGradient id="paint23_linear_108_2101" x1="82.1394" y1="-19.3718" x2="53.8626" y2="-26.7692" gradientUnits="userSpaceOnUse">
<stop stop-color="#BA9555"/>
<stop offset="0.12" stop-color="#965824"/>
<stop offset="0.4" stop-color="#FCF6AC"/>
<stop offset="0.67" stop-color="#D3AC53"/>
<stop offset="0.85" stop-color="#BD882C"/>
<stop offset="1" stop-color="#A25D25"/>
</linearGradient>
<linearGradient id="paint24_linear_108_2101" x1="82.1394" y1="-19.3718" x2="53.8626" y2="-26.7692" gradientUnits="userSpaceOnUse">
<stop stop-color="#BA9555"/>
<stop offset="0.12" stop-color="#965824"/>
<stop offset="0.4" stop-color="#FCF6AC"/>
<stop offset="0.67" stop-color="#D3AC53"/>
<stop offset="0.85" stop-color="#BD882C"/>
<stop offset="1" stop-color="#A25D25"/>
</linearGradient>
<linearGradient id="paint25_linear_108_2101" x1="82.1394" y1="-19.3718" x2="53.8626" y2="-26.7692" gradientUnits="userSpaceOnUse">
<stop stop-color="#BA9555"/>
<stop offset="0.12" stop-color="#965824"/>
<stop offset="0.4" stop-color="#FCF6AC"/>
<stop offset="0.67" stop-color="#D3AC53"/>
<stop offset="0.85" stop-color="#BD882C"/>
<stop offset="1" stop-color="#A25D25"/>
</linearGradient>
<linearGradient id="paint26_linear_108_2101" x1="82.1394" y1="-19.3718" x2="53.8626" y2="-26.7692" gradientUnits="userSpaceOnUse">
<stop stop-color="#BA9555"/>
<stop offset="0.12" stop-color="#965824"/>
<stop offset="0.4" stop-color="#FCF6AC"/>
<stop offset="0.67" stop-color="#D3AC53"/>
<stop offset="0.85" stop-color="#BD882C"/>
<stop offset="1" stop-color="#A25D25"/>
</linearGradient>
<linearGradient id="paint27_linear_108_2101" x1="82.1394" y1="-19.3718" x2="53.8626" y2="-26.7692" gradientUnits="userSpaceOnUse">
<stop stop-color="#BA9555"/>
<stop offset="0.12" stop-color="#965824"/>
<stop offset="0.4" stop-color="#FCF6AC"/>
<stop offset="0.67" stop-color="#D3AC53"/>
<stop offset="0.85" stop-color="#BD882C"/>
<stop offset="1" stop-color="#A25D25"/>
</linearGradient>
<clipPath id="clip0_108_2101">
<rect width="19.2566" height="53.9024" fill="white" transform="translate(22.8491 15.5486)"/>
</clipPath>
<clipPath id="clip1_108_2101">
<rect width="20.8954" height="53.9024" fill="white" transform="matrix(-1 0 0 1 63.002 15.5486)"/>
</clipPath>
</defs>
</svg>
