<svg width="143" height="143" viewBox="0 0 143 143" fill="none" xmlns="http://www.w3.org/2000/svg">
<g filter="url(#filter0_b_114_6095)">
<rect width="143" height="143" rx="71.5" fill="url(#paint0_linear_114_6095)"/>
<path fill-rule="evenodd" clip-rule="evenodd" d="M76.5497 81.375H68.2317C66.4015 81.375 64.917 79.8904 64.917 78.057V71.6514H76.5497C79.2127 71.6514 81.3753 73.8107 81.3753 76.477V76.5494C81.3753 79.2156 79.216 81.375 76.5497 81.375V81.375Z" stroke="#FFD600" stroke-width="3" stroke-linecap="round" stroke-linejoin="round"/>
<path fill-rule="evenodd" clip-rule="evenodd" d="M76.5497 81.375H68.2317C66.4015 81.375 64.917 79.8904 64.917 78.057V71.6514H76.5497C79.2127 71.6514 81.3753 73.8107 81.3753 76.477V76.5494C81.3753 79.2156 79.216 81.375 76.5497 81.375V81.375Z" stroke="#FFD600" stroke-width="3" stroke-linecap="round" stroke-linejoin="round"/>
<path fill-rule="evenodd" clip-rule="evenodd" d="M75.3812 71.6514H64.917V64.9924C64.917 63.1326 66.4246 61.625 68.2844 61.625H75.3812C78.0869 61.625 80.2792 63.8173 80.2792 66.523V66.7501C80.2825 69.4592 78.0869 71.6514 75.3812 71.6514V71.6514Z" stroke="#FFD600" stroke-width="3" stroke-linecap="round" stroke-linejoin="round"/>
<path fill-rule="evenodd" clip-rule="evenodd" d="M75.3812 71.6514H64.917V64.9924C64.917 63.1326 66.4246 61.625 68.2844 61.625H75.3812C78.0869 61.625 80.2792 63.8173 80.2792 66.523V66.7501C80.2825 69.4592 78.0869 71.6514 75.3812 71.6514V71.6514Z" stroke="#FFD600" stroke-width="3" stroke-linecap="round" stroke-linejoin="round"/>
<path d="M71.5 61.6248H61.625" stroke="#FFD600" stroke-width="3" stroke-linecap="round" stroke-linejoin="round"/>
<path d="M71.5 61.6248H61.625" stroke="#FFD600" stroke-width="3" stroke-linecap="round" stroke-linejoin="round"/>
<path d="M71.5 81.3748H61.625" stroke="#FFD600" stroke-width="3" stroke-linecap="round" stroke-linejoin="round"/>
<path d="M71.5 81.3748H61.625" stroke="#FFD600" stroke-width="3" stroke-linecap="round" stroke-linejoin="round"/>
<path d="M84.4689 102.804L83.0864 99.5122" stroke="#FFD600" stroke-width="3" stroke-linecap="round" stroke-linejoin="round"/>
<path d="M84.4689 102.804L83.0864 99.5122" stroke="#FFD600" stroke-width="3" stroke-linecap="round" stroke-linejoin="round"/>
<path d="M58.5308 40.1963L59.9133 43.488" stroke="#FFD600" stroke-width="3" stroke-linecap="round" stroke-linejoin="round"/>
<path d="M58.5308 40.1963L59.9133 43.488" stroke="#FFD600" stroke-width="3" stroke-linecap="round" stroke-linejoin="round"/>
<path d="M102.803 84.4694L99.5117 83.0869" stroke="#FFD600" stroke-width="3" stroke-linecap="round" stroke-linejoin="round"/>
<path d="M102.803 84.4694L99.5117 83.0869" stroke="#FFD600" stroke-width="3" stroke-linecap="round" stroke-linejoin="round"/>
<path d="M40.1963 58.5308L43.488 59.9133" stroke="#FFD600" stroke-width="3" stroke-linecap="round" stroke-linejoin="round"/>
<path d="M40.1963 58.5308L43.488 59.9133" stroke="#FFD600" stroke-width="3" stroke-linecap="round" stroke-linejoin="round"/>
<path d="M102.803 58.5308L99.5117 59.9133" stroke="#FFD600" stroke-width="3" stroke-linecap="round" stroke-linejoin="round"/>
<path d="M102.803 58.5308L99.5117 59.9133" stroke="#FFD600" stroke-width="3" stroke-linecap="round" stroke-linejoin="round"/>
<path d="M40.1963 84.4694L43.488 83.0869" stroke="#FFD600" stroke-width="3" stroke-linecap="round" stroke-linejoin="round"/>
<path d="M40.1963 84.4694L43.488 83.0869" stroke="#FFD600" stroke-width="3" stroke-linecap="round" stroke-linejoin="round"/>
<path d="M84.4689 40.1963L83.0864 43.488" stroke="#FFD600" stroke-width="3" stroke-linecap="round" stroke-linejoin="round"/>
<path d="M84.4689 40.1963L83.0864 43.488" stroke="#FFD600" stroke-width="3" stroke-linecap="round" stroke-linejoin="round"/>
<path d="M58.5308 102.804L59.9133 99.5122" stroke="#FFD600" stroke-width="3" stroke-linecap="round" stroke-linejoin="round"/>
<path d="M58.5308 102.804L59.9133 99.5122" stroke="#FFD600" stroke-width="3" stroke-linecap="round" stroke-linejoin="round"/>
<path fill-rule="evenodd" clip-rule="evenodd" d="M71.5003 105.378V96.4639V105.378Z" stroke="#FFD600" stroke-width="3" stroke-linecap="round" stroke-linejoin="round"/>
<path fill-rule="evenodd" clip-rule="evenodd" d="M71.5003 105.378V96.4639V105.378Z" stroke="#FFD600" stroke-width="3" stroke-linecap="round" stroke-linejoin="round"/>
<path d="M71.5003 37.6289V46.5493" stroke="#FFD600" stroke-width="3" stroke-linecap="round" stroke-linejoin="round"/>
<path d="M71.5003 37.6289V46.5493" stroke="#FFD600" stroke-width="3" stroke-linecap="round" stroke-linejoin="round"/>
<path fill-rule="evenodd" clip-rule="evenodd" d="M47.5469 95.4534L53.8504 89.1499L47.5469 95.4534Z" stroke="#FFD600" stroke-width="3" stroke-linecap="round" stroke-linejoin="round"/>
<path fill-rule="evenodd" clip-rule="evenodd" d="M47.5469 95.4534L53.8504 89.1499L47.5469 95.4534Z" stroke="#FFD600" stroke-width="3" stroke-linecap="round" stroke-linejoin="round"/>
<path d="M95.4636 47.5366L89.1436 53.8566" stroke="#FFD600" stroke-width="3" stroke-linecap="round" stroke-linejoin="round"/>
<path d="M95.4636 47.5366L89.1436 53.8566" stroke="#FFD600" stroke-width="3" stroke-linecap="round" stroke-linejoin="round"/>
<path fill-rule="evenodd" clip-rule="evenodd" d="M37.6221 71.4998H46.5359H37.6221Z" stroke="#FFD600" stroke-width="3" stroke-linecap="round" stroke-linejoin="round"/>
<path fill-rule="evenodd" clip-rule="evenodd" d="M37.6221 71.4998H46.5359H37.6221Z" stroke="#FFD600" stroke-width="3" stroke-linecap="round" stroke-linejoin="round"/>
<path d="M105.372 71.4998H96.4512" stroke="#FFD600" stroke-width="3" stroke-linecap="round" stroke-linejoin="round"/>
<path d="M105.372 71.4998H96.4512" stroke="#FFD600" stroke-width="3" stroke-linecap="round" stroke-linejoin="round"/>
<path fill-rule="evenodd" clip-rule="evenodd" d="M47.5469 47.5464L53.8504 53.8499L47.5469 47.5464Z" stroke="#FFD600" stroke-width="3" stroke-linecap="round" stroke-linejoin="round"/>
<path fill-rule="evenodd" clip-rule="evenodd" d="M47.5469 47.5464L53.8504 53.8499L47.5469 47.5464Z" stroke="#FFD600" stroke-width="3" stroke-linecap="round" stroke-linejoin="round"/>
<path d="M95.4636 95.4636L89.1436 89.1436" stroke="#FFD600" stroke-width="3" stroke-linecap="round" stroke-linejoin="round"/>
<path d="M95.4636 95.4636L89.1436 89.1436" stroke="#FFD600" stroke-width="3" stroke-linecap="round" stroke-linejoin="round"/>
<rect x="1" y="1" width="141" height="141" rx="70.5" stroke="url(#paint1_linear_114_6095)" stroke-width="2"/>
</g>
<defs>
<filter id="filter0_b_114_6095" x="-34" y="-34" width="211" height="211" filterUnits="userSpaceOnUse" color-interpolation-filters="sRGB">
<feFlood flood-opacity="0" result="BackgroundImageFix"/>
<feGaussianBlur in="BackgroundImageFix" stdDeviation="17"/>
<feComposite in2="SourceAlpha" operator="in" result="effect1_backgroundBlur_114_6095"/>
<feBlend mode="normal" in="SourceGraphic" in2="effect1_backgroundBlur_114_6095" result="shape"/>
</filter>
<linearGradient id="paint0_linear_114_6095" x1="0" y1="0" x2="155.279" y2="14.8821" gradientUnits="userSpaceOnUse">
<stop stop-color="#2B2B2B" stop-opacity="0.2"/>
<stop offset="0.515625" stop-color="#3C3C3C" stop-opacity="0.4"/>
<stop offset="1" stop-opacity="0.2"/>
</linearGradient>
<linearGradient id="paint1_linear_114_6095" x1="0" y1="0" x2="155.279" y2="14.8821" gradientUnits="userSpaceOnUse">
<stop stop-color="#FFD600" stop-opacity="0.6"/>
<stop offset="1" stop-color="#FFD600" stop-opacity="0.2"/>
</linearGradient>
</defs>
</svg>
