<svg width="143" height="143" viewBox="0 0 143 143" fill="none" xmlns="http://www.w3.org/2000/svg">
<g filter="url(#filter0_b_114_6166)">
<rect width="143" height="143" rx="71.5" fill="url(#paint0_linear_114_6166)"/>
<path d="M92.5897 78.136C93.8405 75.0715 94.5417 71.7238 94.5417 68.2083C94.5417 53.6657 82.7509 41.875 68.2083 41.875C53.6657 41.875 41.875 53.6657 41.875 68.2083C41.875 82.7509 53.6657 94.5417 68.2083 94.5417C71.7238 94.5417 75.0747 93.8405 78.1426 92.5897" stroke="#FFD600" stroke-width="3" stroke-linecap="round" stroke-linejoin="round"/>
<path d="M92.5897 78.136C93.8405 75.0715 94.5417 71.7238 94.5417 68.2083C94.5417 53.6657 82.7509 41.875 68.2083 41.875C53.6657 41.875 41.875 53.6657 41.875 68.2083C41.875 82.7509 53.6657 94.5417 68.2083 94.5417C71.7238 94.5417 75.0747 93.8405 78.1426 92.5897" stroke="#FFD600" stroke-width="3" stroke-linecap="round" stroke-linejoin="round"/>
<path d="M68.2083 58.7684V56.6717" stroke="#FFD600" stroke-width="3" stroke-linecap="round" stroke-linejoin="round"/>
<path d="M68.2083 58.7684V56.6717" stroke="#FFD600" stroke-width="3" stroke-linecap="round" stroke-linejoin="round"/>
<path d="M68.2083 77.6186V79.7121" stroke="#FFD600" stroke-width="3" stroke-linecap="round" stroke-linejoin="round"/>
<path d="M68.2083 77.6186V79.7121" stroke="#FFD600" stroke-width="3" stroke-linecap="round" stroke-linejoin="round"/>
<path d="M62.7547 75.3715C63.5677 76.7046 64.9568 77.623 66.6388 77.623H68.209H70.0819C72.521 77.623 74.4928 75.648 74.4928 73.2121C74.4928 71.1878 73.1135 69.4267 71.1517 68.9297L65.2596 67.4484C63.3011 66.958 61.9219 65.1969 61.9219 63.1726C61.9219 60.7334 63.8969 58.7617 66.3327 58.7617H68.209H69.7791C71.4545 58.7617 72.8436 59.6801 73.6534 61.0099" stroke="#FFD600" stroke-width="3" stroke-linecap="round" stroke-linejoin="round"/>
<path d="M62.7547 75.3715C63.5677 76.7046 64.9568 77.623 66.6388 77.623H68.209H70.0819C72.521 77.623 74.4928 75.648 74.4928 73.2121C74.4928 71.1878 73.1135 69.4267 71.1517 68.9297L65.2596 67.4484C63.3011 66.958 61.9219 65.1969 61.9219 63.1726C61.9219 60.7334 63.8969 58.7617 66.3327 58.7617H68.209H69.7791C71.4545 58.7617 72.8436 59.6801 73.6534 61.0099" stroke="#FFD600" stroke-width="3" stroke-linecap="round" stroke-linejoin="round"/>
<path d="M91.2507 78.084C98.5219 78.084 104.417 83.9794 104.417 91.2507C104.417 98.5219 98.5219 104.417 91.2507 104.417C83.9794 104.417 78.084 98.5219 78.084 91.2507C78.084 83.9794 83.9794 78.084 91.2507 78.084" stroke="#FFD600" stroke-width="3" stroke-linecap="round" stroke-linejoin="round"/>
<path d="M91.2507 78.084C98.5219 78.084 104.417 83.9794 104.417 91.2507C104.417 98.5219 98.5219 104.417 91.2507 104.417C83.9794 104.417 78.084 98.5219 78.084 91.2507C78.084 83.9794 83.9794 78.084 91.2507 78.084" stroke="#FFD600" stroke-width="3" stroke-linecap="round" stroke-linejoin="round"/>
<path d="M86.9043 91.681H95.726" stroke="#FFD600" stroke-width="3" stroke-linecap="round" stroke-linejoin="round"/>
<path d="M86.9043 91.681H95.726" stroke="#FFD600" stroke-width="3" stroke-linecap="round" stroke-linejoin="round"/>
<path d="M91.3118 96.0912V87.2695" stroke="#FFD600" stroke-width="3" stroke-linecap="round" stroke-linejoin="round"/>
<path d="M91.3118 96.0912V87.2695" stroke="#FFD600" stroke-width="3" stroke-linecap="round" stroke-linejoin="round"/>
<rect x="1" y="1" width="141" height="141" rx="70.5" stroke="url(#paint1_linear_114_6166)" stroke-width="2"/>
</g>
<defs>
<filter id="filter0_b_114_6166" x="-34" y="-34" width="211" height="211" filterUnits="userSpaceOnUse" color-interpolation-filters="sRGB">
<feFlood flood-opacity="0" result="BackgroundImageFix"/>
<feGaussianBlur in="BackgroundImageFix" stdDeviation="17"/>
<feComposite in2="SourceAlpha" operator="in" result="effect1_backgroundBlur_114_6166"/>
<feBlend mode="normal" in="SourceGraphic" in2="effect1_backgroundBlur_114_6166" result="shape"/>
</filter>
<linearGradient id="paint0_linear_114_6166" x1="0" y1="0" x2="155.279" y2="14.8821" gradientUnits="userSpaceOnUse">
<stop stop-color="#2B2B2B" stop-opacity="0.2"/>
<stop offset="0.515625" stop-color="#3C3C3C" stop-opacity="0.4"/>
<stop offset="1" stop-opacity="0.2"/>
</linearGradient>
<linearGradient id="paint1_linear_114_6166" x1="0" y1="0" x2="155.279" y2="14.8821" gradientUnits="userSpaceOnUse">
<stop stop-color="#FFD600" stop-opacity="0.6"/>
<stop offset="1" stop-color="#FFD600" stop-opacity="0.2"/>
</linearGradient>
</defs>
</svg>
