<svg width="143" height="143" viewBox="0 0 143 143" fill="none" xmlns="http://www.w3.org/2000/svg">
<g filter="url(#filter0_b_114_6127)">
<rect width="143" height="143" rx="71.5" fill="url(#paint0_linear_114_6127)"/>
<path d="M71.496 78.16L77.2729 81.1949C78.3986 81.7874 79.712 80.8295 79.498 79.5787L78.3953 73.1468L83.0695 68.5944C83.9813 67.709 83.4777 66.1619 82.2203 65.9808L75.762 65.0427L72.8752 59.1901C72.3123 58.0512 70.6863 58.0512 70.1267 59.1901L67.2399 65.046L60.7816 65.9841C59.5242 66.1685 59.0206 67.7123 59.9324 68.5977L64.6065 73.1501L63.5005 79.582C63.2866 80.8328 64.6 81.7874 65.7257 81.1982L71.5026 78.1633" stroke="#FFD600" stroke-width="3" stroke-linecap="round" stroke-linejoin="round"/>
<path d="M71.496 78.16L77.2729 81.1949C78.3986 81.7874 79.712 80.8295 79.498 79.5787L78.3953 73.1468L83.0695 68.5944C83.9813 67.709 83.4777 66.1619 82.2203 65.9808L75.762 65.0427L72.8752 59.1901C72.3123 58.0512 70.6863 58.0512 70.1267 59.1901L67.2399 65.046L60.7816 65.9841C59.5242 66.1685 59.0206 67.7123 59.9324 68.5977L64.6065 73.1501L63.5005 79.582C63.2866 80.8328 64.6 81.7874 65.7257 81.1982L71.5026 78.1633" stroke="#FFD600" stroke-width="3" stroke-linecap="round" stroke-linejoin="round"/>
<path fill-rule="evenodd" clip-rule="evenodd" d="M61.4768 90.3673C61.5788 90.3607 61.6809 90.3574 61.7829 90.3574C63.0963 90.3574 64.3603 90.8808 65.2885 91.8189C66.2892 92.8295 66.806 94.2251 66.7073 95.6438C66.2662 101.845 61.8027 106.273 55.5979 106.658C55.4958 106.664 55.3938 106.668 55.2918 106.668C53.9784 106.668 52.7144 106.144 51.7861 105.206C50.7855 104.196 50.2687 102.8 50.3674 101.381C50.8085 95.1797 55.272 90.7524 61.4768 90.3673ZM61.7829 95.2949C61.5229 98.9849 58.9883 101.5 55.295 101.73C55.5551 98.0369 58.0897 95.5253 61.7829 95.2949Z" fill="#FFD600"/>
<path fill-rule="evenodd" clip-rule="evenodd" d="M61.4768 90.3673C61.5788 90.3607 61.6809 90.3574 61.7829 90.3574C63.0963 90.3574 64.3603 90.8808 65.2885 91.8189C66.2892 92.8295 66.806 94.2251 66.7073 95.6438C66.2662 101.845 61.8027 106.273 55.5979 106.658C55.4958 106.664 55.3938 106.668 55.2918 106.668C53.9784 106.668 52.7144 106.144 51.7861 105.206C50.7855 104.196 50.2687 102.8 50.3674 101.381C50.8085 95.1797 55.272 90.7524 61.4768 90.3673ZM61.7829 95.2949C61.5229 98.9849 58.9883 101.5 55.295 101.73C55.5551 98.0369 58.0897 95.5253 61.7829 95.2949Z" fill="#FFD600"/>
<path fill-rule="evenodd" clip-rule="evenodd" d="M36.3623 80.4925C38.6467 78.4747 41.3656 77.4082 44.2195 77.4082C47.0405 77.4082 49.733 78.4517 52.0043 80.4267C53.0807 81.3615 53.6995 82.7144 53.7061 84.1364C53.7127 85.5617 53.1037 86.9178 52.0372 87.8592C49.7528 89.877 47.0372 90.9435 44.1833 90.9435C41.3623 90.9435 38.6697 89.9001 36.3952 87.9251C35.3188 86.9902 34.7 85.6374 34.6934 84.2154C34.6868 82.7901 35.2958 81.4339 36.3623 80.4925ZM48.7719 84.1561C47.3828 82.9481 45.7995 82.3457 44.2195 82.3457C42.6231 82.3457 41.0266 82.9612 39.6309 84.1923C41.02 85.4004 42.6033 86.0027 44.1833 86.0027C45.7798 86.0027 47.3762 85.3872 48.7719 84.1561Z" fill="#FFD600"/>
<path fill-rule="evenodd" clip-rule="evenodd" d="M36.3623 80.4925C38.6467 78.4747 41.3656 77.4082 44.2195 77.4082C47.0405 77.4082 49.733 78.4517 52.0043 80.4267C53.0807 81.3615 53.6995 82.7144 53.7061 84.1364C53.7127 85.5617 53.1037 86.9178 52.0372 87.8592C49.7528 89.877 47.0372 90.9435 44.1833 90.9435C41.3623 90.9435 38.6697 89.9001 36.3952 87.9251C35.3188 86.9902 34.7 85.6374 34.6934 84.2154C34.6868 82.7901 35.2958 81.4339 36.3623 80.4925ZM48.7719 84.1561C47.3828 82.9481 45.7995 82.3457 44.2195 82.3457C42.6231 82.3457 41.0266 82.9612 39.6309 84.1923C41.02 85.4004 42.6033 86.0027 44.1833 86.0027C45.7798 86.0027 47.3762 85.3872 48.7719 84.1561Z" fill="#FFD600"/>
<path fill-rule="evenodd" clip-rule="evenodd" d="M35.174 56.399C36.0989 55.5003 37.3366 55 38.6171 55C38.7487 55 38.8804 55.0033 39.0121 55.0165C45.2596 55.5135 49.6803 60.056 50.0128 66.3167C50.0852 67.7387 49.5454 69.1212 48.525 70.1153C47.6 71.014 46.3623 71.5143 45.0819 71.5143C44.9502 71.5143 44.8186 71.5077 44.6869 71.4978C38.4393 70.9975 34.0186 66.4583 33.6861 60.1975C33.6137 58.7755 34.1536 57.393 35.174 56.399ZM38.6171 59.9375C42.3564 60.237 44.8811 62.8309 45.0819 66.5768C41.3426 66.2773 38.8178 63.6834 38.6171 59.9375Z" fill="#FFD600"/>
<path fill-rule="evenodd" clip-rule="evenodd" d="M35.174 56.399C36.0989 55.5003 37.3366 55 38.6171 55C38.7487 55 38.8804 55.0033 39.0121 55.0165C45.2596 55.5135 49.6803 60.056 50.0128 66.3167C50.0852 67.7387 49.5454 69.1212 48.525 70.1153C47.6 71.014 46.3623 71.5143 45.0819 71.5143C44.9502 71.5143 44.8186 71.5077 44.6869 71.4978C38.4393 70.9975 34.0186 66.4583 33.6861 60.1975C33.6137 58.7755 34.1536 57.393 35.174 56.399ZM38.6171 59.9375C42.3564 60.237 44.8811 62.8309 45.0819 66.5768C41.3426 66.2773 38.8178 63.6834 38.6171 59.9375Z" fill="#FFD600"/>
<path fill-rule="evenodd" clip-rule="evenodd" d="M49.0512 38.0009C49.9894 36.941 51.339 36.332 52.7544 36.332H52.7741C54.1961 36.3386 55.549 36.9574 56.4838 38.0371C60.6577 42.8429 60.6313 49.2814 56.418 54.0544C55.4799 55.1143 54.1303 55.7232 52.7149 55.7232H52.6951C51.2698 55.7167 49.9202 55.0978 48.9854 54.0214C44.8116 49.2156 44.8379 42.7771 49.0512 38.0009ZM52.7552 41.2695C55.2799 44.1794 55.2635 47.8957 52.7157 50.7857C50.191 47.8759 50.2042 44.1596 52.7552 41.2695Z" fill="#FFD600"/>
<path fill-rule="evenodd" clip-rule="evenodd" d="M49.0512 38.0009C49.9894 36.941 51.339 36.332 52.7544 36.332H52.7741C54.1961 36.3386 55.549 36.9574 56.4838 38.0371C60.6577 42.8429 60.6313 49.2814 56.418 54.0544C55.4799 55.1143 54.1303 55.7232 52.7149 55.7232H52.6951C51.2698 55.7167 49.9202 55.0978 48.9854 54.0214C44.8116 49.2156 44.8379 42.7771 49.0512 38.0009ZM52.7552 41.2695C55.2799 44.1794 55.2635 47.8957 52.7157 50.7857C50.191 47.8759 50.2042 44.1596 52.7552 41.2695Z" fill="#FFD600"/>
<path fill-rule="evenodd" clip-rule="evenodd" d="M77.7127 91.8189C78.6442 90.8808 79.9049 90.3574 81.2183 90.3574C81.3203 90.3574 81.4224 90.3607 81.5244 90.3673C87.7325 90.7524 92.196 95.1797 92.6338 101.381C92.7358 102.8 92.219 104.196 91.2151 105.206C90.2835 106.144 89.0228 106.668 87.7094 106.668C87.6074 106.668 87.5054 106.664 87.4033 106.658C81.1952 106.273 76.7317 101.845 76.2939 95.6438C76.1919 94.2251 76.7087 92.8295 77.7127 91.8189ZM81.2188 95.2949C84.912 95.5253 87.4466 98.0402 87.7066 101.73C84.0134 101.5 81.4788 98.9849 81.2188 95.2949Z" fill="#FFD600"/>
<path fill-rule="evenodd" clip-rule="evenodd" d="M77.7127 91.8189C78.6442 90.8808 79.9049 90.3574 81.2183 90.3574C81.3203 90.3574 81.4224 90.3607 81.5244 90.3673C87.7325 90.7524 92.196 95.1797 92.6338 101.381C92.7358 102.8 92.219 104.196 91.2151 105.206C90.2835 106.144 89.0228 106.668 87.7094 106.668C87.6074 106.668 87.5054 106.664 87.4033 106.658C81.1952 106.273 76.7317 101.845 76.2939 95.6438C76.1919 94.2251 76.7087 92.8295 77.7127 91.8189ZM81.2188 95.2949C84.912 95.5253 87.4466 98.0402 87.7066 101.73C84.0134 101.5 81.4788 98.9849 81.2188 95.2949Z" fill="#FFD600"/>
<path fill-rule="evenodd" clip-rule="evenodd" d="M90.9948 80.4267C93.2694 78.4517 95.9619 77.4082 98.7829 77.4082C101.637 77.4082 104.352 78.4747 106.637 80.4925C107.703 81.4339 108.312 82.7934 108.306 84.2154C108.299 85.6407 107.68 86.9935 106.604 87.9251C104.329 89.9001 101.637 90.9435 98.8158 90.9435C95.9619 90.9435 93.2463 89.877 90.9619 87.8592C89.8954 86.9178 89.2864 85.5584 89.293 84.1364C89.2996 82.7111 89.9184 81.3582 90.9948 80.4267ZM103.372 84.1923C101.976 82.9612 100.379 82.3457 98.7829 82.3457C97.2029 82.3457 95.6196 82.9481 94.2306 84.1561C95.6262 85.3872 97.2227 86.0027 98.8191 86.0027C100.399 86.0027 101.982 85.3971 103.372 84.1923Z" fill="#FFD600"/>
<path fill-rule="evenodd" clip-rule="evenodd" d="M90.9948 80.4267C93.2694 78.4517 95.9619 77.4082 98.7829 77.4082C101.637 77.4082 104.352 78.4747 106.637 80.4925C107.703 81.4339 108.312 82.7934 108.306 84.2154C108.299 85.6407 107.68 86.9935 106.604 87.9251C104.329 89.9001 101.637 90.9435 98.8158 90.9435C95.9619 90.9435 93.2463 89.877 90.9619 87.8592C89.8954 86.9178 89.2864 85.5584 89.293 84.1364C89.2996 82.7111 89.9184 81.3582 90.9948 80.4267ZM103.372 84.1923C101.976 82.9612 100.379 82.3457 98.7829 82.3457C97.2029 82.3457 95.6196 82.9481 94.2306 84.1561C95.6262 85.3872 97.2227 86.0027 98.8191 86.0027C100.399 86.0027 101.982 85.3971 103.372 84.1923Z" fill="#FFD600"/>
<path fill-rule="evenodd" clip-rule="evenodd" d="M103.99 55.0165C104.122 55.0066 104.253 55 104.385 55C105.666 55 106.903 55.497 107.828 56.399C108.849 57.3898 109.392 58.7755 109.316 60.1975C108.984 66.4583 104.563 70.9975 98.3153 71.4978C98.1837 71.5077 98.052 71.5143 97.9203 71.5143C96.6399 71.5143 95.4022 71.0173 94.4772 70.1153C93.4568 69.1245 92.9137 67.7387 92.9894 66.3167C93.3219 60.056 97.7426 55.5168 103.99 55.0165ZM104.385 59.9375C104.187 63.6834 101.659 66.2773 97.9199 66.5768C98.1174 62.8309 100.645 60.237 104.385 59.9375Z" fill="#FFD600"/>
<path fill-rule="evenodd" clip-rule="evenodd" d="M103.99 55.0165C104.122 55.0066 104.253 55 104.385 55C105.666 55 106.903 55.497 107.828 56.399C108.849 57.3898 109.392 58.7755 109.316 60.1975C108.984 66.4583 104.563 70.9975 98.3153 71.4978C98.1837 71.5077 98.052 71.5143 97.9203 71.5143C96.6399 71.5143 95.4022 71.0173 94.4772 70.1153C93.4568 69.1245 92.9137 67.7387 92.9894 66.3167C93.3219 60.056 97.7426 55.5168 103.99 55.0165ZM104.385 59.9375C104.187 63.6834 101.659 66.2773 97.9199 66.5768C98.1174 62.8309 100.645 60.237 104.385 59.9375Z" fill="#FFD600"/>
<path fill-rule="evenodd" clip-rule="evenodd" d="M90.2264 36.332H90.2461C91.6615 36.332 93.0111 36.941 93.9492 38.0009C98.1626 42.7738 98.1889 49.209 94.0151 54.0182C93.0802 55.0945 91.7274 55.7134 90.3054 55.7199H90.2856C88.8669 55.7199 87.5206 55.1143 86.5825 54.0511C82.3692 49.2782 82.3428 42.8429 86.5167 38.0338C87.4515 36.9574 88.8044 36.3386 90.2264 36.332ZM90.2458 41.2695C92.7935 44.1563 92.81 47.8759 90.2853 50.7824C87.7375 47.8957 87.7211 44.1794 90.2458 41.2695Z" fill="#FFD600"/>
<path fill-rule="evenodd" clip-rule="evenodd" d="M90.2264 36.332H90.2461C91.6615 36.332 93.0111 36.941 93.9492 38.0009C98.1626 42.7738 98.1889 49.209 94.0151 54.0182C93.0802 55.0945 91.7274 55.7134 90.3054 55.7199H90.2856C88.8669 55.7199 87.5206 55.1143 86.5825 54.0511C82.3692 49.2782 82.3428 42.8429 86.5167 38.0338C87.4515 36.9574 88.8044 36.3386 90.2264 36.332ZM90.2458 41.2695C92.7935 44.1563 92.81 47.8759 90.2853 50.7824C87.7375 47.8957 87.7211 44.1794 90.2458 41.2695Z" fill="#FFD600"/>
<rect x="1" y="1" width="141" height="141" rx="70.5" stroke="url(#paint1_linear_114_6127)" stroke-width="2"/>
</g>
<defs>
<filter id="filter0_b_114_6127" x="-34" y="-34" width="211" height="211" filterUnits="userSpaceOnUse" color-interpolation-filters="sRGB">
<feFlood flood-opacity="0" result="BackgroundImageFix"/>
<feGaussianBlur in="BackgroundImageFix" stdDeviation="17"/>
<feComposite in2="SourceAlpha" operator="in" result="effect1_backgroundBlur_114_6127"/>
<feBlend mode="normal" in="SourceGraphic" in2="effect1_backgroundBlur_114_6127" result="shape"/>
</filter>
<linearGradient id="paint0_linear_114_6127" x1="0" y1="0" x2="155.279" y2="14.8821" gradientUnits="userSpaceOnUse">
<stop stop-color="#2B2B2B" stop-opacity="0.2"/>
<stop offset="0.515625" stop-color="#3C3C3C" stop-opacity="0.4"/>
<stop offset="1" stop-opacity="0.2"/>
</linearGradient>
<linearGradient id="paint1_linear_114_6127" x1="0" y1="0" x2="155.279" y2="14.8821" gradientUnits="userSpaceOnUse">
<stop stop-color="#FFD600" stop-opacity="0.6"/>
<stop offset="1" stop-color="#FFD600" stop-opacity="0.2"/>
</linearGradient>
</defs>
</svg>
