<svg width="143" height="143" viewBox="0 0 143 143" fill="none" xmlns="http://www.w3.org/2000/svg">
<g filter="url(#filter0_b_114_6080)">
<rect width="143" height="143" rx="71.5" fill="url(#paint0_linear_114_6080)"/>
<path d="M44.5645 83.8436H49.5579C50.7232 83.8436 51.839 83.3828 52.662 82.5598V82.5598C53.4849 81.7369 53.9457 80.621 53.9457 79.4558V61.898C53.9457 60.7328 53.4849 59.6169 52.662 58.794V58.794C51.839 57.9711 50.7232 57.5103 49.5579 57.5103H45.3808" stroke="#FFD600" stroke-width="3" stroke-linecap="round" stroke-linejoin="round"/>
<path d="M44.5645 83.8436H49.5579C50.7232 83.8436 51.839 83.3828 52.662 82.5598V82.5598C53.4849 81.7369 53.9457 80.621 53.9457 79.4558V61.898C53.9457 60.7328 53.4849 59.6169 52.662 58.794V58.794C51.839 57.9711 50.7232 57.5103 49.5579 57.5103H45.3808" stroke="#FFD600" stroke-width="3" stroke-linecap="round" stroke-linejoin="round"/>
<path d="M97.6192 57.5103H93.4454C92.2802 57.5103 91.1643 57.9711 90.3414 58.794V58.794C89.5185 59.6169 89.0576 60.7328 89.0576 61.898V79.4558C89.0576 80.621 89.5185 81.7369 90.3414 82.5598V82.5598C91.1643 83.3828 92.2802 83.8436 93.4454 83.8436H98.4389" stroke="#FFD600" stroke-width="3" stroke-linecap="round" stroke-linejoin="round"/>
<path d="M97.6192 57.5103H93.4454C92.2802 57.5103 91.1643 57.9711 90.3414 58.794V58.794C89.5185 59.6169 89.0576 60.7328 89.0576 61.898V79.4558C89.0576 80.621 89.5185 81.7369 90.3414 82.5598V82.5598C91.1643 83.3828 92.2802 83.8436 93.4454 83.8436H98.4389" stroke="#FFD600" stroke-width="3" stroke-linecap="round" stroke-linejoin="round"/>
<path d="M89.1235 80.2129H86.2927C85.3512 80.2129 84.4197 80.4137 83.5639 80.8054L69.7158 87.1122" stroke="#FFD600" stroke-width="3" stroke-linecap="round" stroke-linejoin="round"/>
<path d="M89.1235 80.2129H86.2927C85.3512 80.2129 84.4197 80.4137 83.5639 80.8054L69.7158 87.1122" stroke="#FFD600" stroke-width="3" stroke-linecap="round" stroke-linejoin="round"/>
<path d="M67.0396 60.5321C65.3806 59.5677 63.3759 59.3274 61.526 59.9923L53.9453 62.7211" stroke="#FFD600" stroke-width="3" stroke-linecap="round" stroke-linejoin="round"/>
<path d="M67.0396 60.5321C65.3806 59.5677 63.3759 59.3274 61.526 59.9923L53.9453 62.7211" stroke="#FFD600" stroke-width="3" stroke-linecap="round" stroke-linejoin="round"/>
<path d="M89.5845 59.7685L80.1177 55.6012C78.09 54.7092 75.7463 54.8968 73.8866 56.1015L65.2953 61.6677C62.5632 63.4354 62.2505 67.313 64.66 69.4986V69.4986C66.138 70.8383 68.2776 71.1609 70.0847 70.3182L75.2065 67.9285" stroke="#FFD600" stroke-width="3" stroke-linecap="round" stroke-linejoin="round"/>
<path d="M89.5845 59.7685L80.1177 55.6012C78.09 54.7092 75.7463 54.8968 73.8866 56.1015L65.2953 61.6677C62.5632 63.4354 62.2505 67.313 64.66 69.4986V69.4986C66.138 70.8383 68.2776 71.1609 70.0847 70.3182L75.2065 67.9285" stroke="#FFD600" stroke-width="3" stroke-linecap="round" stroke-linejoin="round"/>
<path fill-rule="evenodd" clip-rule="evenodd" d="M71.5 101.125C87.8614 101.125 101.125 87.8614 101.125 71.5C101.125 55.1386 87.8614 41.875 71.5 41.875C55.1386 41.875 41.875 55.1386 41.875 71.5C41.875 87.8614 55.1386 101.125 71.5 101.125Z" stroke="#FFD600" stroke-width="3" stroke-linecap="round" stroke-linejoin="round"/>
<path fill-rule="evenodd" clip-rule="evenodd" d="M71.5 101.125C87.8614 101.125 101.125 87.8614 101.125 71.5C101.125 55.1386 87.8614 41.875 71.5 41.875C55.1386 41.875 41.875 55.1386 41.875 71.5C41.875 87.8614 55.1386 101.125 71.5 101.125Z" stroke="#FFD600" stroke-width="3" stroke-linecap="round" stroke-linejoin="round"/>
<path d="M75.2061 67.9253L77.8065 70.2854C80.6801 72.8891 80.69 77.3987 77.8328 80.0189L71.1935 86.0953C68.6886 88.3929 64.8439 88.3995 62.3291 86.1183L57.7668 81.9807C56.6872 81.0031 55.3113 80.4534 53.8662 80.3349" stroke="#FFD600" stroke-width="3" stroke-linecap="round" stroke-linejoin="round"/>
<path d="M75.2061 67.9253L77.8065 70.2854C80.6801 72.8891 80.69 77.3987 77.8328 80.0189L71.1935 86.0953C68.6886 88.3929 64.8439 88.3995 62.3291 86.1183L57.7668 81.9807C56.6872 81.0031 55.3113 80.4534 53.8662 80.3349" stroke="#FFD600" stroke-width="3" stroke-linecap="round" stroke-linejoin="round"/>
<rect x="1" y="1" width="141" height="141" rx="70.5" stroke="url(#paint1_linear_114_6080)" stroke-width="2"/>
</g>
<defs>
<filter id="filter0_b_114_6080" x="-34" y="-34" width="211" height="211" filterUnits="userSpaceOnUse" color-interpolation-filters="sRGB">
<feFlood flood-opacity="0" result="BackgroundImageFix"/>
<feGaussianBlur in="BackgroundImageFix" stdDeviation="17"/>
<feComposite in2="SourceAlpha" operator="in" result="effect1_backgroundBlur_114_6080"/>
<feBlend mode="normal" in="SourceGraphic" in2="effect1_backgroundBlur_114_6080" result="shape"/>
</filter>
<linearGradient id="paint0_linear_114_6080" x1="0" y1="0" x2="155.279" y2="14.8821" gradientUnits="userSpaceOnUse">
<stop stop-color="#2B2B2B" stop-opacity="0.2"/>
<stop offset="0.515625" stop-color="#3C3C3C" stop-opacity="0.4"/>
<stop offset="1" stop-opacity="0.2"/>
</linearGradient>
<linearGradient id="paint1_linear_114_6080" x1="0" y1="0" x2="155.279" y2="14.8821" gradientUnits="userSpaceOnUse">
<stop stop-color="#FFD600" stop-opacity="0.6"/>
<stop offset="1" stop-color="#FFD600" stop-opacity="0.2"/>
</linearGradient>
</defs>
</svg>
