<svg width="70" height="70" viewBox="0 0 70 70" fill="none" xmlns="http://www.w3.org/2000/svg">
<g filter="url(#filter0_b_108_3000)">
<rect width="70" height="70" rx="35" fill="url(#paint0_linear_108_3000)"/>
<rect x="0.5" y="0.5" width="69" height="69" rx="34.5" stroke="url(#paint1_linear_108_3000)"/>
</g>
<path d="M35.8208 19.2899C38.2073 21.6764 38.2073 25.5456 35.8208 27.9321C33.4343 30.3186 29.565 30.3186 27.1785 27.9321C24.792 25.5456 24.792 21.6764 27.1785 19.2899C29.565 16.9034 33.4343 16.9034 35.8208 19.2899" stroke="#FFD600" stroke-width="1.5" stroke-linecap="round" stroke-linejoin="round"/>
<path d="M35.8208 19.2899C38.2073 21.6764 38.2073 25.5456 35.8208 27.9321C33.4343 30.3186 29.565 30.3186 27.1785 27.9321C24.792 25.5456 24.792 21.6764 27.1785 19.2899C29.565 16.9034 33.4343 16.9034 35.8208 19.2899" stroke="#FFD600" stroke-width="1.5" stroke-linecap="round" stroke-linejoin="round"/>
<path d="M39.1352 36.393C36.862 35.4848 34.195 34.9843 31.5 34.9843C24.416 34.9843 17.5 38.4265 17.5 43.7203V45.4703C17.5 46.4363 18.284 47.2203 19.25 47.2203H35.7228" stroke="#FFD600" stroke-width="1.5" stroke-linecap="round" stroke-linejoin="round"/>
<path d="M39.1352 36.393C36.862 35.4848 34.195 34.9843 31.5 34.9843C24.416 34.9843 17.5 38.4265 17.5 43.7203V45.4703C17.5 46.4363 18.284 47.2203 19.25 47.2203H35.7228" stroke="#FFD600" stroke-width="1.5" stroke-linecap="round" stroke-linejoin="round"/>
<path d="M43.75 52.5C38.9183 52.5 35 48.5835 35 43.75C35 39.018 39.025 34.9948 43.757 35C48.587 35.0035 52.5 38.92 52.5 43.75C52.5 48.5818 48.5835 52.5 43.75 52.5" stroke="#FFD600" stroke-width="1.5" stroke-linecap="round" stroke-linejoin="round"/>
<path d="M43.75 52.5C38.9183 52.5 35 48.5835 35 43.75C35 39.018 39.025 34.9948 43.757 35C48.587 35.0035 52.5 38.92 52.5 43.75C52.5 48.5818 48.5835 52.5 43.75 52.5" stroke="#FFD600" stroke-width="1.5" stroke-linecap="round" stroke-linejoin="round"/>
<path d="M40.6875 46.8125L46.8125 40.6875" stroke="#FFD600" stroke-width="1.5" stroke-linecap="round" stroke-linejoin="round"/>
<path d="M40.6875 46.8125L46.8125 40.6875" stroke="#FFD600" stroke-width="1.5" stroke-linecap="round" stroke-linejoin="round"/>
<path d="M47.0893 46.5982C47.226 46.7349 47.226 46.9565 47.0893 47.0932C46.9526 47.2299 46.731 47.2299 46.5943 47.0932C46.4576 46.9565 46.4576 46.7349 46.5943 46.5982C46.731 46.4615 46.9526 46.4615 47.0893 46.5982" stroke="#FFD600" stroke-width="1.5" stroke-linecap="round" stroke-linejoin="round"/>
<path d="M47.0893 46.5982C47.226 46.7349 47.226 46.9565 47.0893 47.0932C46.9526 47.2299 46.731 47.2299 46.5943 47.0932C46.4576 46.9565 46.4576 46.7349 46.5943 46.5982C46.731 46.4615 46.9526 46.4615 47.0893 46.5982" stroke="#FFD600" stroke-width="1.5" stroke-linecap="round" stroke-linejoin="round"/>
<path d="M40.9067 40.4068C41.0434 40.5435 41.0434 40.7651 40.9067 40.9018C40.77 41.0385 40.5484 41.0385 40.4117 40.9018C40.275 40.7651 40.275 40.5435 40.4117 40.4068C40.5484 40.2701 40.77 40.2701 40.9067 40.4068" stroke="#FFD600" stroke-width="1.5" stroke-linecap="round" stroke-linejoin="round"/>
<path d="M40.9067 40.4068C41.0434 40.5435 41.0434 40.7651 40.9067 40.9018C40.77 41.0385 40.5484 41.0385 40.4117 40.9018C40.275 40.7651 40.275 40.5435 40.4117 40.4068C40.5484 40.2701 40.77 40.2701 40.9067 40.4068" stroke="#FFD600" stroke-width="1.5" stroke-linecap="round" stroke-linejoin="round"/>
<defs>
<filter id="filter0_b_108_3000" x="-34" y="-34" width="138" height="138" filterUnits="userSpaceOnUse" color-interpolation-filters="sRGB">
<feFlood flood-opacity="0" result="BackgroundImageFix"/>
<feGaussianBlur in="BackgroundImageFix" stdDeviation="17"/>
<feComposite in2="SourceAlpha" operator="in" result="effect1_backgroundBlur_108_3000"/>
<feBlend mode="normal" in="SourceGraphic" in2="effect1_backgroundBlur_108_3000" result="shape"/>
</filter>
<linearGradient id="paint0_linear_108_3000" x1="0" y1="0" x2="76.0107" y2="7.28496" gradientUnits="userSpaceOnUse">
<stop stop-color="#2B2B2B" stop-opacity="0.2"/>
<stop offset="0.515625" stop-color="#3C3C3C" stop-opacity="0.4"/>
<stop offset="1" stop-opacity="0.2"/>
</linearGradient>
<linearGradient id="paint1_linear_108_3000" x1="0" y1="0" x2="76.0107" y2="7.28496" gradientUnits="userSpaceOnUse">
<stop stop-color="#FFD600" stop-opacity="0.6"/>
<stop offset="1" stop-color="#FFD600" stop-opacity="0.2"/>
</linearGradient>
</defs>
</svg>
