<svg width="36" height="36" viewBox="0 0 36 36" fill="none" xmlns="http://www.w3.org/2000/svg">
<g id="Telegram">
<rect width="36" height="36" rx="18" fill="url(#paint0_linear_549_26671)"/>
<path id="Vector" fill-rule="evenodd" clip-rule="evenodd" d="M8.14851 17.8099C13.3959 15.5237 16.8949 14.0165 18.6457 13.2883C23.6445 11.2092 24.6832 10.848 25.3602 10.8361C25.5091 10.8334 25.8421 10.8703 26.0577 11.0453C26.2398 11.1931 26.2899 11.3927 26.3139 11.5328C26.3379 11.6729 26.3677 11.992 26.344 12.2414C26.0731 15.0876 24.901 21.9947 24.3047 25.1825C24.0524 26.5314 23.5555 26.9836 23.0746 27.0279C22.0293 27.1241 21.2355 26.3371 20.2231 25.6734C18.6389 24.635 17.7439 23.9885 16.2061 22.9751C14.4289 21.804 15.581 21.1603 16.5938 20.1084C16.8588 19.8331 21.4644 15.644 21.5536 15.2639C21.5647 15.2164 21.5751 15.0393 21.4698 14.9457C21.3646 14.8522 21.2092 14.8842 21.0971 14.9096C20.9382 14.9457 18.4074 16.6184 13.5046 19.928C12.7863 20.4212 12.1356 20.6616 11.5526 20.649C10.9099 20.6351 9.67363 20.2856 8.75458 19.9869C7.62733 19.6204 6.73141 19.4267 6.80942 18.8044C6.85006 18.4803 7.29642 18.1488 8.14851 17.8099Z" fill="white"/>
</g>
<defs>
<linearGradient id="paint0_linear_549_26671" x1="18" y1="0" x2="18" y2="35.733" gradientUnits="userSpaceOnUse">
<stop stop-color="#2AABEE"/>
<stop offset="1" stop-color="#229ED9"/>
</linearGradient>
</defs>
</svg>
