<svg width="55" height="48" viewBox="0 0 55 48" fill="none" xmlns="http://www.w3.org/2000/svg">
<g style="mix-blend-mode:luminosity">
<path fill-rule="evenodd" clip-rule="evenodd" d="M45.8372 34.984L51.226 33.1171L45.8313 34.984H45.8372ZM16.5967 41.6474C16.5967 41.6474 16.5967 41.6357 16.5967 41.6298V41.6474ZM12.5254 44.6356L12.4424 44.6474L12.478 44.6122L12.5254 44.6356ZM12.5195 44.5769C14.5967 42.622 17.297 41.8118 20.567 43.2912L12.5195 44.5769ZM19.0715 43.6493L12.5195 44.5769L12.4364 44.5887L12.4839 44.6122H12.4898L12.5254 44.6356C12.8103 44.7824 13.1011 44.9057 13.3919 45.0172C13.5166 45.0642 13.6412 45.1112 13.7658 45.1523C13.932 45.2051 14.0982 45.2579 14.2643 45.299H14.2762C14.3593 45.3225 14.4424 45.3401 14.5255 45.3577C14.6085 45.3754 14.6976 45.393 14.7807 45.4047C15.0358 45.4517 15.297 45.481 15.5522 45.4928C15.6353 45.4928 15.7243 45.4986 15.8074 45.5045H15.8192H15.9379H16.0685H16.0804C16.1635 45.5045 16.2465 45.4986 16.3296 45.4928H16.3474C16.4721 45.481 16.5967 45.4693 16.7213 45.4517H16.7451L16.8578 45.4341C16.9884 45.4106 17.1189 45.3871 17.2495 45.3577C17.4216 45.3167 17.5997 45.2756 17.7718 45.2168C17.9439 45.164 18.1219 45.0994 18.294 45.029H18.3118C18.9647 44.7531 19.6115 44.3773 20.2584 43.8607L20.3712 43.7609L20.389 43.7491C20.4483 43.7022 20.5077 43.6493 20.567 43.6024L19.0359 43.6493H19.0715ZM23.0122 43.5378L20.573 43.2912L18.7035 43.6611L19.0299 43.6493H19.0715L20.6026 43.6024L23.0062 43.5319L23.0122 43.5378ZM18.7035 43.6611L21.6175 43.0799L20.573 43.2854L18.7035 43.6552V43.6611ZM22.8578 42.8333L23.0181 42.8039L22.4068 42.6924L22.8578 42.8333ZM19.5937 42.1816L15.9261 41.5182V41.5417C15.9023 41.7178 16.021 41.8881 16.1991 41.9233C16.389 41.9585 16.567 41.8353 16.6026 41.6533V41.6357H16.6442L19.0537 41.9057L19.5819 42.1934L19.5937 42.1816ZM18.7035 41.6826L15.9261 41.5124C15.9617 41.3245 16.1456 41.2012 16.3296 41.2423C16.4839 41.2717 16.5967 41.4008 16.6086 41.5535C16.6086 41.5652 16.6086 41.577 16.6086 41.5887C16.9587 41.6063 17.5522 41.6357 18.1219 41.6591C18.3237 41.665 18.5195 41.6767 18.6976 41.6826H18.7035ZM14.6264 40.2501C11.6649 41.7355 9.13671 41.0955 7.1367 39.3695H7.05955L7.10109 39.3402L7.06548 39.3108H7.14263C9.45718 38.0251 12.0744 37.9018 14.6738 39.9625L16.3771 40.0447C15.8905 39.6396 15.4275 39.2169 14.9884 38.7648C14.7985 38.5711 14.6085 38.3656 14.4246 38.1601L12.6145 37.4204L12.1872 37.2443C12.1872 37.2443 12.1872 37.256 12.1812 37.2619L12.1694 37.2854C12.0744 37.438 11.8786 37.4909 11.7183 37.4146C11.564 37.3382 11.4928 37.1621 11.5462 37.0036C11.5462 36.986 11.5581 36.9684 11.57 36.9508C11.659 36.7805 11.8667 36.7159 12.0329 36.7981C12.1753 36.8686 12.2465 37.0329 12.2168 37.1797V37.2091C12.5729 37.3324 13.2198 37.5554 13.8074 37.7492L14.1812 37.8725C13.8667 37.5026 13.564 37.121 13.2732 36.7277L10.834 35.5535C7.86667 36.2639 5.7361 35.1543 4.31769 33.1876L4.25241 33.1641L4.29395 33.1523L4.27021 33.1171L4.3355 33.1406C6.68566 32.4655 9.05956 32.9058 10.9468 35.2952L12.6323 35.7766C12.2881 35.2365 11.9676 34.6729 11.6768 34.0975L11.6174 34.0271L9.90823 33.0056L9.36816 32.6827C9.36816 32.6827 9.36223 32.6944 9.35629 32.7003C9.34442 32.712 9.33256 32.7296 9.32069 32.7414C9.20199 32.8588 9.01208 32.8823 8.86964 32.7825C8.73314 32.6886 8.6916 32.5124 8.75095 32.3715C8.76282 32.3481 8.77469 32.3246 8.78656 32.307C8.89932 32.1543 9.11297 32.1191 9.27321 32.2248C9.40971 32.3187 9.45125 32.4889 9.3919 32.6357L9.38003 32.6592C9.61742 32.7825 9.99131 32.9762 10.383 33.1817C10.7688 33.3813 11.1783 33.5868 11.4928 33.7394C11.3385 33.4107 11.1901 33.076 11.0477 32.7355C10.9943 32.6064 10.9409 32.4713 10.8934 32.3422L9.10703 30.9625C6.55509 31.033 5.00612 29.759 4.19306 27.9039L4.14558 27.8745H4.18119L4.16932 27.8393L4.2168 27.8686C6.25835 27.7219 8.11593 28.4909 9.24353 30.7747L10.6026 31.4909C10.4542 31.0271 10.3177 30.5575 10.205 30.076L9.21979 28.9195L8.63819 28.2385C8.63819 28.2385 8.62632 28.2444 8.62039 28.2502C8.59071 28.2678 8.56104 28.2855 8.53136 28.2972C8.38893 28.3442 8.22869 28.2972 8.13373 28.1739C8.04471 28.0506 8.05065 27.8921 8.13373 27.7747C8.15747 27.7453 8.18121 27.716 8.21682 27.6925C8.37113 27.581 8.59071 27.6162 8.70347 27.7688C8.79843 27.9038 8.78656 28.0858 8.67973 28.1974L8.66786 28.2091L9.02395 28.579C9.35629 28.9254 9.77766 29.3598 10.1219 29.7062C10.0269 29.26 9.94383 28.8138 9.87855 28.3559L8.77469 26.7473C6.49574 26.0839 5.49871 24.5223 5.30879 22.6495L5.27319 22.6084H5.30879V22.5849L5.3444 22.626C7.19604 23.0781 8.62038 24.2816 8.95273 26.6181L9.77766 27.4635C9.71831 26.8589 9.68864 26.2483 9.68864 25.6318V25.5614L9.01208 24.2874L8.5373 23.3892C8.5373 23.3892 8.52543 23.3892 8.51949 23.3951C8.47795 23.4127 8.43641 23.4186 8.39486 23.4244C8.25243 23.4244 8.12187 23.3481 8.06252 23.2189C8.00317 23.0898 8.03878 22.9371 8.13373 22.8432C8.16341 22.8139 8.19902 22.7845 8.2465 22.7669C8.42454 22.6906 8.62632 22.7728 8.70347 22.9489C8.76875 23.1015 8.71534 23.2777 8.57884 23.3657H8.56697L8.73908 23.6534C9.00614 24.0937 9.38597 24.716 9.68864 25.1915C9.70051 24.6925 9.73018 24.1935 9.77766 23.7004L9.29101 22.626L9.2554 22.5438C7.31474 21.5986 6.66785 20.0428 6.79248 18.3344L6.76874 18.2933L6.79842 18.3051V18.2757L6.82809 18.3168C8.4186 19.0096 9.50466 20.307 9.43345 22.4557L9.85481 23.0781C9.94977 22.3501 10.0922 21.6397 10.2702 20.9411L9.55807 19.5908L9.08329 18.6926C9.08329 18.6926 9.07143 18.6926 9.06549 18.6984C9.02395 18.716 8.9824 18.7219 8.94086 18.7278C8.80436 18.7278 8.66786 18.6573 8.60852 18.5223C8.54917 18.3931 8.58478 18.2464 8.67973 18.1466C8.70941 18.1172 8.74501 18.0879 8.79249 18.0703C8.97053 17.9939 9.17232 18.0703 9.24947 18.2523C9.31475 18.4049 9.26134 18.581 9.12484 18.6691H9.11297L9.28508 18.9626C9.58775 19.4558 10.0269 20.1779 10.3415 20.671C10.4542 20.2542 10.5789 19.8432 10.7213 19.4381L10.0803 18.0292C8.38893 17.2014 7.82513 15.8452 7.93789 14.3599L7.91415 14.3247L7.93789 14.3364V14.3129L7.96163 14.3482C9.34442 14.947 10.294 16.0859 10.2346 17.9587L10.9053 18.945C10.9587 18.81 11.0062 18.675 11.0655 18.5458C11.1367 18.3697 11.2139 18.1877 11.291 18.0115L11.0002 17.1251L10.7035 16.2268H10.6916C10.6441 16.2386 10.5967 16.2386 10.5551 16.2268C10.472 16.2033 10.4008 16.1329 10.383 16.0448C10.3593 15.9568 10.3889 15.8687 10.4483 15.81C10.478 15.7748 10.5254 15.7513 10.5729 15.7396C10.7094 15.7043 10.8518 15.7865 10.8815 15.9274C10.9112 16.0507 10.8459 16.174 10.7332 16.221C10.8756 16.5849 11.1783 17.3364 11.386 17.8178C11.4928 17.5888 11.5996 17.3599 11.7124 17.1368V15.7219C10.5136 14.2836 10.567 12.8159 11.2851 11.5008V11.4597L11.297 11.4773L11.3088 11.4539V11.495C12.3237 12.6045 12.7154 14.0253 11.8786 15.7102L12.021 16.5321C12.3059 16.0155 12.6145 15.5165 12.9468 15.0292V15.0174L13.0774 14.8354L13.0299 13.9431L12.9765 12.945C12.9765 12.945 12.9646 12.945 12.9587 12.945C12.8163 12.945 12.7035 12.8276 12.7094 12.6867C12.7094 12.6045 12.7569 12.5282 12.8222 12.4813C12.8637 12.4519 12.9112 12.4402 12.9587 12.4343H12.9706C13.113 12.4343 13.2258 12.5517 13.2198 12.6926C13.2198 12.8218 13.1189 12.9216 13.0002 12.9392C13.0418 13.3266 13.1367 14.1251 13.2079 14.6417C13.3326 14.4715 13.4572 14.3012 13.5878 14.1368L13.9854 12.9627C13.3682 11.3775 13.837 10.1271 14.8459 9.19948V9.15838L14.8637 9.18186L14.8815 9.16424V9.20534C15.4216 10.4558 15.3504 11.7885 14.1397 13.0038L14.0507 13.5673C14.3593 13.2034 14.6798 12.8452 15.0121 12.5106C15.3563 12.1584 15.659 11.947 16.0032 11.677H15.9676L15.8964 11.6535L15.9379 11.5008L15.8845 10.5732L15.8311 9.57521H15.8192H15.8074C15.6709 9.56934 15.564 9.45192 15.564 9.31689C15.564 9.2347 15.6115 9.15838 15.6768 9.11141C15.7183 9.08206 15.7658 9.07031 15.8133 9.06444H15.8252C15.9676 9.06444 16.0804 9.18186 16.0744 9.32276C16.0744 9.45192 15.9735 9.55172 15.8548 9.56933C15.9083 10.0449 16.0388 11.1662 16.11 11.5889C16.1635 11.5478 16.2169 11.5008 16.2762 11.4539L16.3771 11.3717L16.84 10.0096L16.8875 9.86875C16.2703 8.28363 16.7391 7.03315 17.748 6.10556V6.06446L17.7658 6.08795L17.7836 6.07034V6.11143C18.3237 7.35604 18.2525 8.69458 17.0418 9.90984L16.8816 10.9372C17.0121 10.8257 17.1427 10.7083 17.2614 10.6202C17.3148 10.5732 17.3682 10.538 17.4157 10.5028C17.6887 10.3149 17.843 10.1975 17.9439 10.1212L17.9557 10.1036L17.9854 10.0801C18.116 9.96855 18.11 9.95681 18.2287 9.89223H18.2347L18.7985 8.60065L19.2495 7.56739C19.2495 7.56739 19.2377 7.56739 19.2317 7.56152C19.0596 7.47346 18.9943 7.26798 19.0893 7.09773C19.1783 6.92748 19.386 6.8629 19.5581 6.95096C19.7302 7.03902 19.7955 7.25037 19.7065 7.41475C19.6293 7.56152 19.4513 7.63197 19.297 7.58501H19.2851L19.1902 7.84331C18.9943 8.37756 18.6976 9.1936 18.5017 9.76307L19.1724 9.44605L19.6115 9.17599C20.2169 7.55565 21.4157 6.9216 22.8044 6.89225L22.8341 6.86877V6.89225H22.8519L22.8222 6.91573C22.389 8.22492 21.4157 9.17599 19.659 9.26406L18.7629 9.94506C18.6264 10.0625 18.5374 10.1271 18.4127 10.2327L20.4543 10.9255C20.4543 10.9255 20.4543 10.9137 20.4602 10.9079C20.5255 10.7552 20.7035 10.6848 20.8578 10.7494C21.0121 10.8139 21.0834 10.9901 21.0181 11.1427C20.9528 11.2954 20.7748 11.3658 20.6204 11.3012C20.4958 11.2484 20.4246 11.1192 20.4365 10.9959C20.4365 10.9842 20.4365 10.9666 20.4424 10.9548L20.3415 10.9255C19.8015 10.7787 18.7866 10.4969 18.2465 10.3736C18.1219 10.4852 17.9676 10.6319 17.7362 10.855C17.6946 10.8844 17.659 10.9138 17.6234 10.9431C17.5225 11.0253 17.4276 11.1075 17.3445 11.1897C17.1486 11.3834 16.9706 11.583 16.7332 11.7826C16.3 12.1466 15.8845 12.5341 15.481 12.945C15.3385 13.0859 15.202 13.2327 15.0715 13.3795L15.748 13.127C16.5848 11.7004 17.8252 11.2895 19.1427 11.4773L19.1783 11.4597L19.1664 11.4773H19.1902L19.1546 11.5008C18.5314 12.675 17.4572 13.4323 15.7777 13.2503L14.6442 13.8609C13.7658 14.8941 12.9943 16.039 12.3652 17.2601L13.291 16.6202C13.7421 15.0351 14.8459 14.3364 16.1694 14.1955L16.1991 14.172V14.1955H16.2169L16.1872 14.219C15.8786 15.5106 15.024 16.5086 13.3504 16.7376L12.0507 17.9352L12.11 17.7885C11.9557 18.1113 11.8133 18.4342 11.6768 18.7689C11.386 19.491 11.1367 20.2366 10.9349 21.0057L11.3504 20.718L11.5462 20.583C11.9973 18.9978 13.1011 18.2933 14.4246 18.1583L14.4542 18.1348V18.1583H14.472L14.4424 18.1818C14.1338 19.4734 13.2792 20.4714 11.6056 20.7062L10.84 21.4107C10.561 22.5849 10.4008 23.806 10.3593 25.0624L10.9468 24.5105L11.0952 24.3755C11.3088 22.7434 12.294 21.8863 13.5818 21.5575L13.6056 21.5282V21.5516H13.6234L13.5996 21.581C13.4809 22.9019 12.7866 24.0115 11.1664 24.487L10.3474 25.4968V25.6377C10.3474 26.8823 10.472 28.0976 10.7094 29.2717L11.0477 28.5672L11.1189 28.4205C10.6857 26.6534 11.3563 25.3853 12.5492 24.5399L12.5611 24.4988V24.5223L12.5907 24.5047L12.5789 24.5458C12.9884 25.9547 12.7154 27.3696 11.2376 28.4968L10.8222 29.7942C11.0358 30.7218 11.3266 31.6259 11.6768 32.4948C12.0625 33.4518 12.5314 34.3676 13.0714 35.2306L13.0893 33.7277V33.5633C11.4869 31.5731 11.5878 29.577 12.6026 27.8158V27.7571L12.6204 27.7864L12.6382 27.7571V27.8158C14.0032 29.3598 14.4958 31.3148 13.291 33.6044L13.6115 36.0525C14.1753 36.8627 14.8103 37.6259 15.4988 38.3245C16.1041 38.9468 16.7569 39.5222 17.4513 40.0447L16.9468 38.1719L16.9231 38.0897C14.4186 36.2991 13.8845 33.9508 14.478 31.579L14.4542 31.5144L14.4899 31.5379L14.5017 31.4968L14.5255 31.5614C16.6026 32.9175 17.8192 35.031 17.1605 38.0662L18.2525 40.62C18.567 40.8314 18.8934 41.0368 19.2198 41.2306C19.024 40.5496 18.7213 39.5809 18.573 39.1053C18.5492 39.1112 18.5255 39.1171 18.5017 39.1171C18.4839 39.1171 18.4661 39.1171 18.4483 39.1171C18.3296 39.1053 18.2169 39.0349 18.1635 38.9175C18.1041 38.7883 18.1279 38.6415 18.2228 38.5417C18.2525 38.5065 18.2881 38.483 18.3356 38.4596C18.5077 38.3774 18.7154 38.4596 18.7985 38.6239C18.8816 38.7942 18.7985 38.9997 18.6323 39.0819C18.6264 39.0819 18.6204 39.0819 18.6145 39.0877L19.481 41.3656C20.021 41.6709 20.5848 41.9468 21.1605 42.1934L21.2021 42.211C21.4394 42.3108 21.6768 42.4047 21.9142 42.4928L21.6234 40.7374C19.6946 39.0525 19.4394 37.0682 20.1279 35.1543L20.1101 35.0956L20.1397 35.1191L20.1516 35.0838L20.1694 35.1425C21.7837 36.4341 22.6145 38.2776 21.8252 40.7374L22.4365 42.6807L22.4662 42.6924C22.5967 42.7335 22.7273 42.7746 22.8519 42.8157L22.9172 42.8333L23.0893 42.8861C24.6205 43.3323 26.2407 43.573 27.9143 43.573C29.3445 43.573 30.7392 43.3969 32.0686 43.0681C32.2169 43.0329 32.3653 42.9918 32.5137 42.9507L32.5374 42.8039L32.8282 42.8627C32.9351 42.8274 33.0478 42.7981 33.1546 42.7629L33.7897 40.7433C33.0003 38.2776 33.8312 36.4341 35.4455 35.1484L35.4633 35.0897L35.4751 35.1249L35.5048 35.1015L35.487 35.1543C36.1754 37.074 35.9202 39.0584 33.9914 40.7374L33.6888 42.575C34.0092 42.4634 34.3178 42.3402 34.6265 42.211C35.125 41.9996 35.6057 41.7707 36.0805 41.5124L36.5968 40.1445L37.0004 39.0819C37.0004 39.0819 36.9885 39.0819 36.9826 39.076C36.8104 38.9938 36.7333 38.7942 36.8164 38.6181C36.8995 38.4478 37.1012 38.3715 37.2793 38.4537C37.4514 38.5359 37.5285 38.7355 37.4455 38.9116C37.3742 39.0642 37.2021 39.1406 37.0478 39.0995H37.036L36.9588 39.3402C36.7808 39.9038 36.5137 40.7844 36.3475 41.3715C36.6621 41.1953 36.9707 41.0075 37.2734 40.8137L38.4484 38.0662C37.7897 35.031 39.0063 32.9175 41.0835 31.5614L41.1072 31.4968L41.1191 31.5379L41.1547 31.5144L41.1309 31.579C41.7304 33.9508 41.1962 36.2932 38.6858 38.0897L38.1102 40.2384C38.8995 39.6631 39.6413 39.0173 40.3298 38.3186C41.9499 36.6631 43.2556 34.6905 44.1458 32.4948C44.4307 31.7844 44.6799 31.0506 44.8758 30.2991L44.858 30.2815L44.8817 30.258L44.9054 30.17L44.3713 28.4909C42.8876 27.3637 42.6146 25.9489 43.0301 24.5399L43.0182 24.4988L43.0419 24.5164V24.4929L43.0657 24.534C44.2586 25.3794 44.9351 26.6475 44.4959 28.4146L45.0538 29.5712C45.3149 28.3676 45.4633 27.123 45.4752 25.8432H45.4633L45.4752 25.8256V25.7493L44.4663 24.5047L44.4425 24.4753C42.8223 23.9998 42.122 22.8902 42.0093 21.5693L41.9855 21.5399H42.0093V21.5223L42.033 21.5516C43.3209 21.8804 44.306 22.7317 44.5197 24.3696L45.404 25.1974L45.4752 25.5086C45.4752 25.1681 45.4633 24.8334 45.4396 24.4988L45.3684 24.6514L45.3031 23.7004L45.3624 23.6182C45.2912 22.9548 45.1784 22.2972 45.0419 21.6573L44.0093 20.7062C42.3357 20.4714 41.4811 19.4734 41.1725 18.1818L41.1428 18.1583H41.1666V18.1407L41.1962 18.1642C42.5197 18.3051 43.6176 19.0037 44.0746 20.5888L44.9411 21.1877L44.9292 21.1524C44.7215 20.3364 44.4603 19.5438 44.1517 18.7748C43.4574 17.0605 42.5078 15.4812 41.3565 14.084L39.8372 13.2621C38.1576 13.4441 37.0775 12.6867 36.4603 11.5126L36.4247 11.495H36.4484L36.4366 11.4715L36.4722 11.4891C37.7897 11.3012 39.03 11.7122 39.8668 13.1388L40.8639 13.5086C40.6918 13.3208 40.5197 13.1329 40.3416 12.9509C39.9381 12.54 39.5167 12.1466 39.0716 11.7768C38.7036 11.4656 38.0567 10.9783 37.3861 10.3736C37.2734 10.3971 37.1428 10.4323 37.0004 10.4676C36.8935 10.4969 36.7748 10.5263 36.6561 10.5556C36.1161 10.6965 35.4989 10.8668 35.1606 10.9607V10.9842C35.1903 11.1192 35.119 11.2543 34.9885 11.3071C34.8342 11.3717 34.6561 11.3071 34.5908 11.1486C34.5849 11.131 34.579 11.1192 34.573 11.1016C34.5374 10.9607 34.6087 10.8139 34.7452 10.7552C34.8935 10.6907 35.0597 10.7552 35.1368 10.8961V10.9137C35.1368 10.9137 35.1487 10.9255 35.1546 10.9314L35.5048 10.8139L37.2318 10.2269L37.1962 10.1916L37.1843 10.1799L37.1547 10.1505L37.1012 10.1388L35.9499 9.26406C34.1932 9.17599 33.2199 8.21905 32.7867 6.91573L32.757 6.89225H32.7807L32.7748 6.86877L32.8045 6.89225C34.1873 6.9216 35.392 7.55565 35.9974 9.17599L36.5018 9.48127C36.4366 9.41082 36.3713 9.34038 36.3119 9.26406C36.5968 9.44018 36.8579 9.60456 37.1072 9.7572C36.8817 9.08793 36.5078 8.06641 36.3238 7.57326C36.3001 7.57913 36.2763 7.585 36.2526 7.59087C36.2348 7.59087 36.217 7.59087 36.1992 7.59087C36.0805 7.59087 35.9618 7.52043 35.9024 7.40888C35.8371 7.27972 35.8549 7.13295 35.944 7.02727C35.9736 6.99205 36.0093 6.96856 36.0449 6.94508C36.217 6.85702 36.4247 6.9216 36.5137 7.09185C36.6027 7.2621 36.5374 7.46759 36.3713 7.55565C36.3713 7.55565 36.3594 7.56152 36.3535 7.56152L37.3921 9.93919C37.8312 10.2093 38.2407 10.4734 38.6977 10.7611L38.579 10.0096L38.5612 9.90984C37.3505 8.69458 37.2734 7.36191 37.8253 6.11143V6.07621L37.8372 6.09382L37.849 6.07034V6.11143C38.8639 7.03902 39.3327 8.2895 38.7155 9.87462L39.1072 11.0312L39.4277 11.2425L39.5286 11.3306C39.5998 10.8198 39.7007 9.98029 39.7422 9.58108C39.7422 9.58108 39.7007 9.56933 39.6829 9.56346C39.5879 9.52824 39.5226 9.44018 39.5226 9.3345C39.5226 9.25231 39.5582 9.17599 39.6235 9.12902C39.6651 9.09967 39.7185 9.07619 39.7719 9.07619C39.9143 9.07619 40.033 9.18186 40.033 9.32276C40.033 9.46366 39.9262 9.58108 39.7838 9.58108C39.7838 9.58108 39.7719 9.58108 39.7659 9.58108L39.6651 11.448C40.0568 11.7885 40.4366 12.1407 40.7986 12.5106C41.036 12.7572 41.2734 13.0096 41.4989 13.2679L41.4574 13.0096C40.2467 11.7944 40.1754 10.4617 40.7214 9.21121V9.17599L40.7333 9.1936L40.7452 9.17012V9.20534C41.76 10.1329 42.2289 11.3834 41.6117 12.9685L41.855 13.6848C42.0508 13.9196 42.2407 14.1603 42.4247 14.4069C42.49 13.9079 42.5612 13.2797 42.6028 12.9509C42.6028 12.9509 42.5612 12.9392 42.5434 12.9333C42.4485 12.8981 42.3832 12.81 42.3832 12.7043C42.3832 12.6222 42.4188 12.5458 42.4841 12.4989C42.5256 12.4695 42.579 12.446 42.6324 12.446C42.7749 12.446 42.8936 12.5517 42.8936 12.6926C42.8936 12.8335 42.7867 12.9509 42.6443 12.9509C42.6443 12.9509 42.6324 12.9509 42.6265 12.9509L42.5375 14.5595C42.9292 15.0996 43.2971 15.6632 43.6295 16.2444L43.7244 15.7102C42.8876 14.0311 43.2793 12.6104 44.2942 11.495V11.4539L44.312 11.4773L44.3298 11.4597V11.5008C45.0479 12.81 45.0954 14.2777 43.8965 15.7219V16.7258C44.0449 17.0018 44.1873 17.2894 44.3238 17.5771C44.5138 17.1192 44.7452 16.538 44.8698 16.2268C44.8698 16.2268 44.8342 16.2033 44.8164 16.1916C44.7333 16.1329 44.6918 16.0272 44.7155 15.9274C44.7333 15.8452 44.7927 15.7865 44.858 15.7572C44.8698 15.7572 44.8876 15.7454 44.8995 15.7454C44.9351 15.7337 44.9826 15.7337 45.0241 15.7454C45.1606 15.7806 45.2437 15.9157 45.2141 16.0507C45.1784 16.1857 45.0419 16.2679 44.9054 16.2386H44.8936L44.3951 17.7474C44.5197 18.0115 44.6324 18.2816 44.7452 18.5575L44.8283 18.7571L45.3684 17.9704C45.309 16.0977 46.2526 14.9646 47.6414 14.3599L47.6651 14.3247V14.3482L47.6888 14.3364L47.6651 14.3717C47.7779 15.8628 47.2141 17.219 45.5227 18.0409L45.0004 19.1916C45.1488 19.6084 45.2853 20.0252 45.4099 20.4538C45.7779 19.8785 46.2408 19.1153 46.4841 18.7102L46.496 18.6926C46.496 18.6926 46.4604 18.6691 46.4425 18.6515C46.3417 18.5575 46.3001 18.4049 46.3595 18.264C46.4366 18.0879 46.6384 18.0115 46.8164 18.082C46.9945 18.1583 47.0716 18.3579 47.0004 18.534C46.9233 18.7102 46.7215 18.7865 46.5434 18.716C46.5375 18.716 46.5316 18.716 46.5256 18.7102L45.4811 20.6886C45.671 21.3873 45.8194 22.1035 45.9322 22.8315L46.1814 22.4675C46.1102 20.3188 47.1963 19.0213 48.7868 18.3286L48.8105 18.2875V18.3168L48.8402 18.3051L48.8164 18.3462C48.947 20.0546 48.3001 21.6104 46.3535 22.5556L45.9974 23.3364C46.0568 23.8471 46.0983 24.3579 46.1221 24.8804C46.4544 24.352 46.8224 23.7414 47.0301 23.4009L47.042 23.3833C47.042 23.3833 47.0063 23.3598 46.9885 23.3422C46.8876 23.2483 46.852 23.0957 46.9055 22.9606C46.9826 22.7845 47.1844 22.7082 47.3624 22.7786C47.5405 22.855 47.6176 23.0546 47.5464 23.2307C47.4693 23.4068 47.2675 23.4831 47.0894 23.4127C47.0835 23.4127 47.0776 23.4127 47.0716 23.4068L46.1339 25.1857C46.1339 25.3383 46.1339 25.4909 46.1339 25.6436C46.1339 26.1778 46.1102 26.7121 46.0687 27.2346L46.6562 26.6299C46.9885 24.2933 48.4129 23.0898 50.2645 22.6377L50.3001 22.5966V22.6319L50.3298 22.626L50.2942 22.6671C50.1102 24.5399 49.1072 26.1015 46.8283 26.7649L45.9915 27.9919C45.9322 28.4851 45.8491 28.9723 45.7541 29.4537C46.1755 29.0193 46.6443 28.5379 46.9173 28.2502L46.9411 28.2267C46.9411 28.2267 46.9114 28.1974 46.8995 28.1798C46.8164 28.0624 46.8164 27.9038 46.8995 27.7864C47.0123 27.6338 47.2259 27.5986 47.3862 27.7101C47.5405 27.8217 47.5761 28.033 47.4633 28.1915C47.3506 28.3442 47.1369 28.3794 46.9767 28.2678C46.9767 28.2678 46.9648 28.262 46.9589 28.2561L45.6888 29.7532C45.5701 30.305 45.4218 30.8451 45.2556 31.3735L46.3595 30.7923C47.4811 28.5085 49.3387 27.7453 51.3803 27.8862L51.4277 27.8569L51.4159 27.8921H51.4515L51.3981 27.9273C50.585 29.7825 49.036 31.0565 46.4841 30.986L44.9945 32.1367C44.9173 32.348 44.8402 32.5594 44.7511 32.7649C44.6324 33.0584 44.5078 33.3461 44.3713 33.6338C44.9648 33.3343 45.7244 32.941 46.1517 32.7179L46.2111 32.6886C46.2111 32.6886 46.1992 32.6533 46.1933 32.6357C46.1517 32.5007 46.1933 32.3422 46.3239 32.2541C46.4782 32.1426 46.6977 32.1778 46.8105 32.3363C46.9233 32.4889 46.8876 32.7062 46.7274 32.8177C46.5731 32.9293 46.3535 32.894 46.2408 32.7355C46.2408 32.7355 46.2348 32.7238 46.2289 32.7179L44.2467 33.9038C43.9381 34.5379 43.5998 35.1484 43.2259 35.7355L44.6502 35.3304C46.5375 32.941 48.9055 32.5007 51.2556 33.1758L51.3209 33.1523L51.2972 33.1876L51.3387 33.1993L51.2734 33.2228C49.855 35.1895 47.7244 36.2991 44.7571 35.5887L42.6443 36.6044C42.3476 37.0212 42.033 37.4204 41.7066 37.8079C42.2704 37.6259 42.8995 37.4087 43.2912 37.2736L43.3861 37.2443C43.3861 37.2443 43.3743 37.2149 43.3743 37.1973C43.3505 37.0564 43.4218 36.9038 43.5583 36.8333C43.7304 36.7453 43.9381 36.8157 44.0212 36.986C44.1102 37.1562 44.039 37.3617 43.8669 37.4498C43.6948 37.5378 43.487 37.4674 43.398 37.2971C43.398 37.2913 43.3921 37.2854 43.3921 37.2795L41.487 38.0603C41.2615 38.3128 41.036 38.5594 40.7986 38.8001C40.3594 39.2462 39.9025 39.6689 39.4217 40.0681L40.8995 39.9977C43.4989 37.937 46.1161 38.0603 48.4307 39.3578H48.5078L48.4722 39.3813L48.5138 39.4048H48.4366C46.4366 41.1366 43.9084 41.7824 40.947 40.2971L38.4069 40.8548C37.9796 41.1601 37.5464 41.4478 37.0953 41.7178C37.2793 41.712 37.4692 41.7002 37.6591 41.6944C38.1576 41.6709 38.6502 41.6474 38.9588 41.6298C38.9588 41.618 38.9588 41.6004 38.9588 41.5887C38.9707 41.4419 39.0835 41.3128 39.2378 41.2834C39.4277 41.2482 39.6057 41.3715 39.6413 41.5535C39.6769 41.7413 39.5523 41.9175 39.3624 41.9527C39.1725 41.9879 38.9944 41.8646 38.9588 41.6826C38.9588 41.6767 38.9588 41.6709 38.9588 41.665L36.7689 41.9057C36.1636 42.2521 35.5345 42.5632 34.8876 42.8333C34.6265 42.9448 34.3594 43.0505 34.0923 43.1503L35.0003 43.3323C38.2645 41.8529 40.9707 42.663 43.0479 44.618L43.131 44.6298L43.0835 44.6533L43.1191 44.6885L43.036 44.6767C40.4841 45.9624 37.665 45.9742 34.9647 43.6493L32.7511 43.5848C32.6146 43.62 32.484 43.6611 32.3475 43.6904C31.4217 43.9253 30.4603 44.0896 29.487 44.1777C30.6798 44.6356 32.4543 45.528 33.4751 46.1973C33.9618 46.5202 34.2822 46.7902 34.2822 46.937C34.2822 47.0779 34.1695 47.1072 34.0864 47.1777H33.6413C33.2081 46.8783 32.8579 46.5084 32.4187 46.1973C32.0626 45.9448 31.4454 45.5691 31.0597 45.346C30.7629 45.1758 29.5048 44.5534 28.6739 44.2247C28.4306 44.2364 28.1813 44.2423 27.9321 44.2423C27.6828 44.2423 27.4454 44.2423 27.2021 44.2306C26.3653 44.5652 25.0893 45.1875 24.7985 45.3519C24.4365 45.5573 23.7599 45.9624 23.4395 46.1973C23.0834 46.4615 22.7807 46.755 22.4424 47.0192C22.3712 47.0779 22.3 47.1307 22.2228 47.1836H21.7777C21.6946 47.1072 21.5819 47.0779 21.5819 46.9429C21.5819 46.8959 21.6353 46.8254 21.7243 46.7374C22.2228 46.256 23.8846 45.3167 24.2525 45.1581C24.7451 44.9527 25.2318 44.665 25.7837 44.4771C25.9677 44.4184 26.2229 44.301 26.4899 44.1895C25.3208 44.0955 24.1872 43.89 23.0893 43.5789C22.6145 43.4439 22.1516 43.2971 21.6946 43.1268H21.6828L21.665 43.1151C21.5285 43.0623 21.392 43.0153 21.2614 42.9566C21.1605 42.9155 21.0656 42.8744 20.9706 42.8333C20.5255 42.6454 20.0923 42.44 19.6709 42.2227C19.4928 42.1288 19.3148 42.0349 19.1427 41.9351C19.0181 41.8646 18.8994 41.7942 18.7807 41.7237L18.7629 41.712C18.3474 41.4654 17.9439 41.2012 17.5522 40.9194L14.7035 40.2912L14.6264 40.2501ZM42.1992 16.7376L43.4989 17.9352L43.2556 17.3129L42.2585 16.6202C41.8075 15.0351 40.7036 14.3364 39.3802 14.1955L39.3505 14.172V14.1955H39.3327L39.3624 14.219C39.671 15.5106 40.5256 16.5086 42.1992 16.7376ZM41.9084 36.2874L42.4781 35.4244L42.4544 33.5633C44.0568 31.5731 43.9559 29.577 42.941 27.8158V27.7571L42.9232 27.7864L42.9054 27.7571V27.8158C41.5404 29.3598 41.0479 31.3148 42.2526 33.6044L41.9025 36.2932L41.9084 36.2874Z" fill="url(#paint0_linear_789_11415)"/>
<path fill-rule="evenodd" clip-rule="evenodd" d="M11.5464 7.20967C11.8728 6.74 12.1992 6.32317 12.5256 5.94157C12.9114 5.48952 13.2971 5.08443 13.6947 4.7087C14.0746 4.34471 14.4841 3.99833 14.9173 3.65195C15.2734 3.37016 15.6473 3.08836 16.039 2.80069C18.5375 4.39168 21.1903 5.19598 23.3387 5.5952C25.5168 6.00028 27.1904 5.9944 27.6652 5.98266H27.7067C27.7067 5.98266 27.7304 5.98266 27.7482 5.98266H27.7898C27.9916 5.98266 28.5019 5.99441 29.2201 5.95332C29.95 5.91222 30.9055 5.81828 31.9975 5.62454C33.2319 5.40145 34.6444 5.04921 36.0984 4.48562C37.2023 4.05705 38.3299 3.50519 39.4338 2.80069C39.8136 3.07662 40.1875 3.35841 40.5495 3.65195C40.9768 3.99246 41.3863 4.34472 41.778 4.71458C42.1816 5.09031 42.5673 5.50126 42.9471 5.94744C43.2735 6.32904 43.6 6.75175 43.9264 7.20967C43.4694 7.97287 42.9234 8.94742 42.413 10.1744C41.8492 11.5247 41.3329 13.1744 41.0302 15.1529C40.7038 17.2664 40.6207 19.7556 40.9887 22.6616C41.3447 25.5031 42.1341 28.7496 43.5465 32.4365C42.9709 33.1762 42.1934 34.0334 41.2379 34.9727C40.2053 35.9825 38.9768 37.0803 37.5762 38.2369C36.1756 39.3934 34.591 40.6087 32.864 41.8533C31.2913 42.9863 29.6058 44.1311 27.8254 45.2701C25.9916 44.1664 24.3298 43.0861 22.8402 42.0529C21.1013 40.8494 19.5761 39.6928 18.2408 38.6067C16.7452 37.3856 15.4989 36.2584 14.4841 35.2545C13.3505 34.1332 12.5078 33.1762 11.9381 32.4306C13.3505 28.7438 14.1339 25.4972 14.4959 22.6557C14.8639 19.7497 14.7808 17.2605 14.4544 15.147C14.1517 13.1685 13.6354 11.5247 13.0716 10.1685C12.5612 8.94155 12.0152 7.96112 11.5582 7.20379L11.5464 7.20967ZM11.8787 5.40146C11.4752 5.87699 11.0835 6.38188 10.6977 6.94547L11.8787 5.40146ZM13.1072 4.10988C12.6799 4.51496 12.2704 4.93767 11.8787 5.40146L13.1072 4.10988ZM14.3832 3.00617C13.944 3.35842 13.5226 3.71653 13.1072 4.10988L14.3832 3.00617ZM15.7778 1.95529C15.2912 2.30167 14.8342 2.64805 14.3832 3.00617L15.7778 1.95529ZM16.2823 1.95529H15.7778C15.9321 1.83788 16.1399 1.84375 16.2823 1.95529ZM23.493 4.77328L16.2823 1.95529C18.7334 3.56976 21.3684 4.37406 23.493 4.77328ZM27.6652 5.14314L23.493 4.77328C25.6295 5.17249 27.2438 5.16076 27.6652 5.14314ZM27.7008 5.14314C27.7008 5.14314 27.677 5.14314 27.6652 5.14314H27.7008ZM27.8016 5.14314C27.8016 5.14314 27.7779 5.14314 27.766 5.14314H27.8016ZM29.1607 5.11379L27.8016 5.14314C27.9916 5.14314 28.4663 5.15488 29.1607 5.11379ZM31.8373 4.79677L29.1607 5.11379C29.8669 5.07269 30.7928 4.98463 31.8373 4.79677ZM35.778 3.69892L31.8373 4.79677C33.0242 4.58542 34.3774 4.23904 35.778 3.69892ZM39.2023 1.94356L35.778 3.69892C36.9115 3.25861 38.0747 2.68328 39.2023 1.94356ZM39.7008 1.96704L39.2023 1.94356C39.3625 1.83788 39.5643 1.85549 39.7008 1.96704ZM41.0718 3.00029C40.6445 2.65979 40.1875 2.31928 39.7008 1.96704L41.0718 3.00029ZM42.3537 4.10988C41.9442 3.7224 41.5169 3.35841 41.0718 3.00029L42.3537 4.10988ZM43.5881 5.40733C43.1845 4.93766 42.775 4.50909 42.3537 4.10988L43.5881 5.40733ZM44.775 6.96309C44.3833 6.39362 43.9917 5.88286 43.5881 5.40733L44.775 6.96309ZM44.7869 7.41514L44.775 6.96309C44.87 7.10399 44.87 7.28011 44.7869 7.41514ZM43.1905 10.4973L44.7869 7.41514C44.3121 8.19009 43.7305 9.20573 43.1905 10.4973ZM41.8611 15.282L43.1905 10.4973C42.6504 11.7948 42.1578 13.374 41.8611 15.282ZM41.8255 22.5618L41.8611 15.282C41.5465 17.3251 41.4694 19.738 41.8255 22.5618ZM44.419 32.3543L41.8255 22.5618C42.1816 25.3974 42.9827 28.6498 44.419 32.3543ZM44.3477 32.777L44.419 32.3543C44.4783 32.5011 44.4427 32.6655 44.3477 32.777ZM41.8314 35.5656C42.8878 34.5324 43.7365 33.593 44.3477 32.777L41.8314 35.5656ZM38.1103 38.8768C39.5406 37.7026 40.7869 36.5872 41.8314 35.5656L38.1103 38.8768ZM33.3506 42.5343C35.0777 41.2897 36.6741 40.0627 38.1103 38.8768L33.3506 42.5343ZM28.045 46.1213C29.9204 44.9237 31.7008 43.7202 33.3506 42.5343L28.045 46.1213ZM27.5999 46.1272H28.045C27.9025 46.2094 27.7304 46.2094 27.5999 46.1272ZM22.3417 42.7456C23.9263 43.8435 25.677 44.9824 27.5999 46.1272L22.3417 42.7456ZM17.6948 39.2584C19.036 40.3562 20.585 41.5245 22.3417 42.7456L17.6948 39.2584ZM13.8787 35.8533C14.9054 36.869 16.1695 38.0138 17.6948 39.2584L13.8787 35.8533ZM11.1131 32.7477C11.7066 33.5461 12.6146 34.6028 13.8787 35.8533L11.1131 32.7477ZM11.0597 32.3484L11.1131 32.7477C11.0241 32.6302 11.0122 32.4776 11.0597 32.3484ZM13.6473 22.5559L11.0597 32.3484C12.4959 28.6381 13.2912 25.3915 13.6473 22.5559ZM13.6117 15.2761L13.6473 22.5559C14.0034 19.7321 13.9262 17.3192 13.6117 15.2761ZM12.2823 10.4914L13.6117 15.2761C13.3149 13.3681 12.8223 11.7889 12.2823 10.4914ZM10.6858 7.40927L12.2823 10.4914C11.7422 9.19987 11.1606 8.17835 10.6858 7.40927ZM11.9499 2.89462C11.4395 3.3819 10.941 3.90441 10.4544 4.48562C9.96773 5.06683 9.49888 5.70674 9.03004 6.42297C8.88167 6.62258 8.79265 6.86328 8.78078 7.10986C8.76891 7.35643 8.82825 7.60888 8.96475 7.83197L8.98256 7.86133C9.40986 8.54821 9.9974 9.4934 10.5493 10.7439C11.1072 12.0061 11.6354 13.5854 11.9321 15.5168C12.2348 17.4836 12.306 19.8143 11.9381 22.5618C11.5701 25.3211 10.763 28.5031 9.3149 32.1547C9.3149 32.1664 9.30897 32.1723 9.30303 32.1841C9.23775 32.3661 9.21401 32.5598 9.23775 32.7535C9.26149 32.9531 9.33271 33.1469 9.4514 33.323C10.0271 34.1625 10.9944 35.3308 12.401 36.7515C13.5167 37.8729 14.9173 39.1586 16.6206 40.5441C18.0568 41.7124 19.7007 42.957 21.5761 44.2486C23.2497 45.3992 25.1132 46.5969 27.1844 47.8239L27.2082 47.8356C27.404 47.9472 27.6295 48 27.8551 48C28.0806 48 28.312 47.9354 28.5198 47.8063C30.5198 46.544 32.407 45.2759 34.1459 44.0255C35.9857 42.7104 37.6771 41.4071 39.1964 40.1566C40.7928 38.8415 42.1816 37.5911 43.321 36.4521C44.4902 35.2838 45.4041 34.233 46.0273 33.3347V33.323C46.1519 33.1586 46.2231 32.9649 46.2469 32.7653C46.2706 32.5657 46.2469 32.3602 46.1697 32.1547C44.7216 28.5031 43.9145 25.3211 43.5465 22.5618C43.1786 19.8143 43.2498 17.4836 43.5465 15.5168C43.8433 13.5854 44.3715 12.0061 44.9293 10.7439C45.4872 9.48753 46.0866 8.51885 46.5139 7.82609C46.5258 7.80848 46.5377 7.785 46.5436 7.76152C46.6445 7.57365 46.6979 7.36817 46.6979 7.15682V7.14509C46.6979 6.922 46.6267 6.69891 46.502 6.49343C46.0213 5.74784 45.5347 5.0903 45.048 4.49735C44.5555 3.89853 44.051 3.37016 43.5347 2.88288C43.0243 2.40147 42.502 1.96116 41.956 1.53259C41.4041 1.09815 40.8344 0.687199 40.235 0.258631H40.229C40.0154 0.0942482 39.7542 0.00618477 39.4872 0.000313966C39.2201 -0.00555684 38.9471 0.0707658 38.7097 0.241019C37.6355 1.01009 36.5139 1.59718 35.4159 2.04336C34.045 2.60109 32.7097 2.94159 31.5524 3.15294C30.6029 3.32319 29.7661 3.40539 29.1251 3.44648C28.5079 3.48171 28.0865 3.48171 27.8966 3.47584C27.8669 3.47584 27.8373 3.47583 27.8076 3.46996H27.7898C27.7898 3.46996 27.7364 3.46996 27.7126 3.46996C27.6948 3.46996 27.677 3.46996 27.6592 3.46996C27.1844 3.48757 21.5049 3.63435 16.763 0.246896L16.7333 0.229284C16.5256 0.0883846 16.2764 0.0120581 16.0212 0.0120581C15.766 0.0120581 15.5048 0.0883782 15.2853 0.241019C14.6799 0.669588 14.1102 1.08055 13.5523 1.52086C13.0004 1.9553 12.4663 2.40148 11.9499 2.89462ZM11.1072 5.01985L45.778 7.43275L45.7958 7.4034C45.8374 7.33295 45.8611 7.25663 45.8611 7.18031C45.8611 7.10399 45.8374 7.02767 45.7958 6.96309C45.3329 6.24685 44.87 5.61868 44.4011 5.04921C43.9323 4.48561 43.4516 3.98072 42.9531 3.51106C42.4664 3.04727 41.962 2.62457 41.4278 2.20774C40.8996 1.79679 40.3418 1.38583 39.7424 0.963134C39.7305 0.957263 39.7186 0.945517 39.7068 0.939646C39.6355 0.886809 39.5525 0.863326 39.4694 0.857455C39.3804 0.857455 39.2913 0.880938 39.2082 0.939646C38.0806 1.74982 36.8996 2.36625 35.7364 2.83591C34.3061 3.41712 32.9115 3.77524 31.7008 3.99246C30.7037 4.16859 29.8373 4.25665 29.1785 4.29775C28.5198 4.33884 28.045 4.33297 27.8551 4.3271C27.8432 4.3271 27.8254 4.3271 27.8135 4.3271C27.8017 4.3271 27.7898 4.3271 27.772 4.3271H27.7186H27.7067C27.2022 4.34471 21.2438 4.49735 16.2764 0.945513C16.2051 0.892676 16.1161 0.863323 16.033 0.863323C15.95 0.863323 15.8609 0.886809 15.7838 0.939646C15.1784 1.36821 14.6146 1.77917 14.0805 2.19013C13.5464 2.61283 13.0301 3.0414 12.5315 3.51106C12.039 3.97485 11.5642 4.47387 11.1072 5.02573V5.01985ZM9.73627 6.89264C10.1932 6.19401 10.6443 5.57758 11.1072 5.01985L9.73627 6.89264ZM9.7066 6.93374L9.73627 6.89264C9.73627 6.89264 9.71847 6.922 9.7066 6.93374ZM9.62351 7.15682C9.62351 7.07463 9.65318 6.99832 9.7066 6.93374L9.62351 7.15682ZM9.68879 7.39753C9.64132 7.32121 9.62351 7.23902 9.62351 7.15682L9.68879 7.39753ZM11.3268 10.4151L9.7066 7.42688C10.1458 8.13725 10.7511 9.11767 11.3268 10.4151ZM12.7749 15.3936C12.4663 13.3799 11.9143 11.7361 11.3268 10.4151L12.7749 15.3936ZM12.7808 22.6675C13.1606 19.8319 13.0894 17.419 12.7749 15.3936V22.6675H12.7808ZM10.122 32.4248C11.5879 28.7203 12.4069 25.4855 12.7808 22.6675L10.122 32.4248ZM10.1042 32.4776L10.122 32.4248C10.122 32.4248 10.1102 32.46 10.1042 32.4776ZM10.0864 32.6596C10.0805 32.6009 10.0864 32.5363 10.1042 32.4776L10.0864 32.6596ZM10.1576 32.8475C10.1161 32.7888 10.0924 32.7242 10.0864 32.6596L10.1576 32.8475ZM13.0123 36.1586L10.1576 32.8475C10.7096 33.6518 11.6473 34.7848 13.0123 36.1586ZM17.1666 39.8924L13.0123 36.1586C14.1161 37.2682 15.493 38.5304 17.1666 39.8924ZM22.0687 43.5558L17.1666 39.8924C18.5731 41.0372 20.1992 42.2642 22.0687 43.5558ZM27.5939 47.0842L22.0687 43.5558C23.7304 44.7006 25.5702 45.8865 27.5939 47.0842ZM27.6474 47.1135L27.5939 47.0842C27.5939 47.0842 27.6295 47.1018 27.6474 47.1135ZM27.8491 47.1605C27.7779 47.1605 27.7067 47.1429 27.6474 47.1135L27.8491 47.1605ZM28.0687 47.0959C27.9975 47.137 27.9263 47.1605 27.8491 47.1605L28.0687 47.0959ZM33.6533 43.3444L28.0687 47.0959C30.0391 45.8572 31.9085 44.5949 33.6533 43.3444ZM38.6563 39.5108L33.6533 43.3444C35.4931 42.0294 37.1726 40.7378 38.6563 39.5108ZM42.7216 35.8592L38.6563 39.5108C40.2231 38.2192 41.594 36.9864 42.7216 35.8592ZM45.327 32.8592L42.7216 35.8592C43.8492 34.732 44.7335 33.7163 45.327 32.8592ZM45.4041 32.6596C45.3982 32.7242 45.3744 32.7887 45.3388 32.8416L45.4041 32.6596ZM45.3804 32.4541C45.4041 32.5187 45.416 32.5891 45.4041 32.6596L45.3804 32.4541ZM42.7038 22.6675C43.0777 25.4913 43.9026 28.7379 45.3744 32.4541L42.6979 22.6675H42.7038ZM42.7038 15.3936C42.3893 17.4249 42.3181 19.8319 42.7038 22.6675V15.3936ZM44.1519 10.4093C43.5644 11.7302 43.0124 13.3799 42.7038 15.3936L44.1519 10.4093Z" fill="url(#paint1_linear_789_11415)"/>
<path fill-rule="evenodd" clip-rule="evenodd" d="M11.0417 7.19674C11.8073 6.07542 12.5788 5.18892 13.3978 4.41397C14.1931 3.66251 15.0595 2.99325 16.021 2.30049C21.0477 5.62924 26.8163 5.59987 27.6709 5.57639C27.7065 5.57639 27.7421 5.57639 27.7777 5.57639C28.1516 5.58813 29.7718 5.61162 31.9142 5.22415C34.1101 4.8308 36.8697 4.00302 39.4395 2.30049C40.395 2.99325 41.2615 3.65665 42.0626 4.41985C42.8876 5.20067 43.6591 6.08128 44.4247 7.20261C43.4692 8.77011 42.0448 11.3415 41.4454 15.2221C40.8045 19.3787 41.125 25.0264 44.0211 32.5058C42.8342 34.0968 40.6858 36.2102 37.8371 38.5586C35.0715 40.8364 31.659 43.3257 27.8192 45.7679C23.7539 43.3374 20.5017 41.0008 17.9616 38.9343C14.6026 36.1926 12.5076 33.9265 11.4512 32.4999C14.3474 25.0146 14.6678 19.3669 14.0269 15.2104C13.4275 11.3239 12.0031 8.75837 11.0476 7.19086L11.0417 7.19674ZM12.2346 3.20459C11.2316 4.15566 10.2999 5.24763 9.36811 6.66836C9.16039 6.93842 9.12478 7.31416 9.31469 7.61944C10.1871 9.01669 11.7361 11.5176 12.3414 15.4628C12.9586 19.455 12.6203 24.9442 9.70045 32.312C9.59956 32.5586 9.6233 32.8521 9.78947 33.087C10.8043 34.5664 13.0773 37.1202 16.8815 40.22C19.5699 42.4157 23.0418 44.8873 27.3919 47.4646C27.659 47.6231 28.0032 47.6289 28.2822 47.4528C32.3653 44.8814 35.9914 42.2454 38.9172 39.8384C42.1042 37.2141 44.4603 34.8424 45.665 33.1046C45.8253 32.8815 45.8728 32.588 45.7659 32.312C42.8401 24.9442 42.5077 19.455 43.125 15.4628C43.7303 11.5176 45.2852 9.01669 46.1517 7.61944C46.3179 7.35525 46.3238 7.00887 46.1458 6.73294C45.2021 5.27111 44.2585 4.16154 43.2377 3.19872C42.2407 2.25352 41.1784 1.46096 39.9855 0.609697C39.6947 0.380736 39.2733 0.357248 38.9588 0.586209C36.4899 2.35332 33.7659 3.1811 31.6294 3.56858C29.6828 3.92083 28.2287 3.90322 27.8727 3.89735C27.8252 3.89148 27.7718 3.89147 27.7243 3.89147C27.7065 3.89147 21.5878 4.2085 16.5254 0.592086C16.2405 0.386608 15.8429 0.374866 15.5402 0.592086C14.3355 1.44335 13.2672 2.24178 12.2465 3.21046L12.2346 3.20459Z" fill="url(#paint2_linear_789_11415)"/>
<path d="M10.0391 7.17948C11.8432 4.39085 13.6474 2.94076 16.0154 1.26758C21.3151 5.06012 27.7424 4.72548 27.7424 4.72548" stroke="#8F6137" stroke-width="0.71" stroke-miterlimit="2.61"/>
<path d="M27.7432 4.72656V4.73242" stroke="#8F6137" stroke-width="0.71" stroke-miterlimit="2.61"/>
<path d="M27.7424 4.73134C28.0392 4.74308 34.2647 4.97791 39.4458 1.27344C41.8137 2.94662 43.6179 4.3967 45.422 7.18533C43.6179 10.0855 38.9947 17.559 44.971 32.6235C42.7395 35.8642 36.2529 41.4415 27.8255 46.7545C17.4634 40.6254 12.1756 35.0716 10.4901 32.6235C16.4664 17.559 11.8432 10.0855 10.0391 7.18533" stroke="#8F6137" stroke-width="0.71" stroke-miterlimit="2.61"/>
<path fill-rule="evenodd" clip-rule="evenodd" d="M10.0391 7.17948C11.8432 4.39085 13.6474 2.94076 16.0154 1.26758C21.3151 5.06012 27.7424 4.72548 27.7424 4.72548C28.0392 4.74309 34.2647 4.97205 39.4458 1.26758C41.8137 2.94076 43.6179 4.39085 45.422 7.17948C43.6179 10.0797 38.9947 17.5532 44.971 32.6177C42.7395 35.8584 36.2529 41.4356 27.8255 46.7487C17.4634 40.6196 12.1756 35.0658 10.4901 32.6177C16.4664 17.5532 11.8432 10.0797 10.0391 7.17948Z" fill="url(#paint3_radial_789_11415)"/>
<g clip-path="url(#clip0_789_11415)">
<g opacity="0.5">
<path d="M18.0946 31.4146C17.8242 30.9297 17.5538 30.4448 17.2486 29.8771C17.0917 29.5891 16.9697 29.3839 16.8477 29.1788C16.57 28.5059 16.3018 27.8288 16.0085 27.1628C15.9224 26.9671 15.5884 25.7519 15.436 25.5322C15.2636 24.4012 15.2953 24.3624 15.1241 23.224C15.0313 22.3474 14.9648 21.5194 14.8879 20.629C14.8796 20.4184 14.8817 20.2701 14.8831 20.0226C14.8577 19.8082 14.833 19.6929 14.8082 19.5776C14.8082 19.5776 14.8135 19.5144 14.8077 19.4318C14.7969 19.2441 14.792 19.1392 14.7871 19.0342C14.8133 18.3354 14.8395 17.6367 14.851 16.8765C14.8444 16.7106 14.8524 16.606 14.8628 16.4053C14.8566 16.2464 14.8481 16.1836 14.8396 16.1208C14.8383 15.9646 14.8371 15.8084 14.8431 15.5666C14.8573 15.3695 14.8641 15.2582 14.871 15.1469C14.8793 14.8633 14.8877 14.5796 14.8973 14.1747C14.9046 13.7251 14.9106 13.3969 14.9803 13.0664C15.7831 13.0139 16.5222 12.9638 17.3222 12.9209C19.4323 12.7872 21.4113 12.3391 23.2678 11.4534C24.0273 11.0911 24.7219 10.5921 25.4899 10.1525C26.0639 9.83367 26.6671 9.5953 27.1049 9.18117C27.624 8.69003 28.0099 8.66098 28.4906 9.21896C28.7408 9.40976 28.9654 9.56232 29.2166 9.75084C29.4529 9.92756 29.6626 10.0683 29.916 10.2377C30.3438 10.4666 30.7281 10.6668 31.1414 10.9073C31.8492 11.2333 32.528 11.5192 33.2488 11.8349C34.1316 12.1066 34.9726 12.3485 35.8136 12.5903C36.6142 12.7058 37.4148 12.8213 38.2761 12.9271C39.0859 12.9907 39.8351 13.0639 40.7064 13.1491C40.7064 14.1645 40.7064 15.2183 40.7194 16.3362C40.7289 16.6382 40.7255 16.8763 40.7209 17.2275C40.7273 17.4907 40.7348 17.6407 40.7423 17.7908C40.7344 17.9386 40.7264 18.0864 40.7181 18.3474C40.7251 18.7005 40.7325 18.9403 40.74 19.1802C40.4927 21.3287 40.2941 23.4845 39.9749 25.6222C39.8417 26.5146 39.4522 27.3686 39.1671 28.2789C38.536 27.6733 37.9771 27.137 37.357 26.5303C37.2344 26.2767 37.0793 26.064 37.1259 25.9143C37.7284 23.9751 37.9293 21.9773 37.9883 19.9644C38.032 18.4729 37.9969 16.9792 37.9969 15.5133C36.8682 15.3369 35.8695 15.1808 34.8213 15.0035C33.7154 14.6575 32.6588 14.3326 31.5677 13.9704C30.7113 13.532 29.8895 13.1311 29.043 12.6983C28.8989 12.6081 28.7796 12.5497 28.633 12.451C27.717 11.8342 27.717 11.8342 27.1769 12.4889C26.1441 12.9976 25.1654 13.5068 24.1319 14.0219C23.9647 14.0454 23.8456 14.0451 23.7407 14.0836C21.8887 14.7623 19.9995 15.2723 18.0255 15.4515C17.8573 15.4668 17.6036 15.7925 17.5865 15.991C17.5312 16.6319 17.568 17.2807 17.5603 17.9729C17.5567 18.0818 17.5622 18.1444 17.5598 18.2643C17.5598 18.5142 17.5675 18.7066 17.5663 18.9455C17.5631 19.0546 17.5688 19.1172 17.5651 19.2281C17.5856 19.5749 17.6155 19.8735 17.6466 20.2349C17.707 21.0838 17.7661 21.8699 17.817 22.6899C17.8125 22.7466 17.8163 22.7695 17.8164 22.8503C18.1342 24.1666 18.4556 25.4249 18.7826 26.7345C19.0023 27.2192 19.2166 27.6527 19.4527 28.1327C19.7518 28.6536 20.029 29.128 20.3159 29.6457C20.4519 29.8482 20.5784 30.0073 20.7237 30.211C20.976 30.4842 21.0831 30.6836 20.8024 30.9948C20.3749 31.4689 20.0076 31.9974 19.5621 32.5147C19.2728 32.4026 19.0361 32.2786 18.7953 32.1103C18.5591 31.8488 18.3268 31.6317 18.0946 31.4146Z" fill="#222222"/>
<path d="M26.3877 34.8486C26.7294 35.1579 27.0711 35.4673 27.4537 35.8136C28.7912 34.529 30.1109 33.2631 31.4289 31.9953C32.717 30.7562 34.001 29.5129 35.2935 28.2784C35.4326 28.1455 35.6166 28.0587 35.825 27.9679C36.4341 28.5836 36.998 29.1819 37.4979 29.7122C36.5515 30.6945 35.6101 31.6716 34.6504 32.6901C32.4574 34.8088 30.2855 36.8889 28.1029 38.9578C27.9242 39.1272 27.6723 39.2208 27.4121 39.3348C25.7871 38.0103 24.2045 36.7007 22.5751 35.3832C22.0152 34.8486 21.5021 34.3218 20.9515 33.7565C21.4942 33.1259 22.0619 32.4664 22.6674 31.7629C23.0579 32.0919 23.4229 32.3994 23.859 32.7609C24.7493 33.4928 25.5685 34.1707 26.3877 34.8486Z" fill="#222222"/>
</g>
</g>
<g opacity="0.3" clip-path="url(#clip1_789_11415)">
<path d="M18.0946 31.4146C17.8242 30.9297 17.5538 30.4448 17.2486 29.8771C17.0917 29.5891 16.9697 29.3839 16.8477 29.1788C16.57 28.5059 16.3018 27.8288 16.0085 27.1628C15.9224 26.9671 15.5884 25.7519 15.436 25.5322C15.2636 24.4012 15.2953 24.3624 15.1241 23.224C15.0313 22.3474 14.9648 21.5194 14.8879 20.629C14.8796 20.4184 14.8817 20.2701 14.8831 20.0226C14.8577 19.8082 14.833 19.6929 14.8082 19.5776C14.8082 19.5776 14.8135 19.5144 14.8077 19.4318C14.7969 19.2441 14.792 19.1392 14.7871 19.0342C14.8133 18.3354 14.8395 17.6367 14.851 16.8765C14.8444 16.7106 14.8524 16.606 14.8628 16.4053C14.8566 16.2464 14.8481 16.1836 14.8396 16.1208C14.8383 15.9646 14.8371 15.8084 14.8431 15.5666C14.8573 15.3695 14.8641 15.2582 14.871 15.1469C14.8793 14.8633 14.8877 14.5796 14.8973 14.1747C14.9046 13.7251 14.9106 13.3969 14.9803 13.0664C15.7831 13.0139 16.5222 12.9638 17.3222 12.9209C19.4323 12.7872 21.4113 12.3391 23.2678 11.4534C24.0273 11.0911 24.7219 10.5921 25.4899 10.1525C26.0639 9.83367 26.6671 9.5953 27.1049 9.18117C27.624 8.69003 28.0099 8.66098 28.4906 9.21896C28.7408 9.40976 28.9654 9.56232 29.2166 9.75084C29.4529 9.92756 29.6626 10.0683 29.916 10.2377C30.3438 10.4666 30.7281 10.6668 31.1414 10.9073C31.8492 11.2333 32.528 11.5192 33.2488 11.8349C34.1316 12.1066 34.9726 12.3485 35.8136 12.5903C36.6142 12.7058 37.4148 12.8213 38.2761 12.9271C39.0859 12.9907 39.8351 13.0639 40.7064 13.1491C40.7064 14.1645 40.7064 15.2183 40.7194 16.3362C40.7289 16.6382 40.7255 16.8763 40.7209 17.2275C40.7273 17.4907 40.7348 17.6407 40.7423 17.7908C40.7344 17.9386 40.7264 18.0864 40.7181 18.3474C40.7251 18.7005 40.7325 18.9403 40.74 19.1802C40.4927 21.3287 40.2941 23.4845 39.9749 25.6222C39.8417 26.5146 39.4522 27.3686 39.1671 28.2789C38.536 27.6733 37.9771 27.137 37.357 26.5303C37.2344 26.2767 37.0793 26.064 37.1259 25.9143C37.7284 23.9751 37.9293 21.9773 37.9883 19.9644C38.032 18.4729 37.9969 16.9792 37.9969 15.5133C36.8682 15.3369 35.8695 15.1808 34.8213 15.0035C33.7154 14.6575 32.6588 14.3326 31.5677 13.9704C30.7113 13.532 29.8895 13.1311 29.043 12.6983C28.8989 12.6081 28.7796 12.5497 28.633 12.451C27.717 11.8342 27.717 11.8342 27.1769 12.4889C26.1441 12.9976 25.1654 13.5068 24.1319 14.0219C23.9647 14.0454 23.8456 14.0451 23.7407 14.0836C21.8887 14.7623 19.9995 15.2723 18.0255 15.4515C17.8573 15.4668 17.6036 15.7925 17.5865 15.991C17.5312 16.6319 17.568 17.2807 17.5603 17.9729C17.5567 18.0818 17.5622 18.1444 17.5598 18.2643C17.5598 18.5142 17.5675 18.7066 17.5663 18.9455C17.5631 19.0546 17.5688 19.1172 17.5651 19.2281C17.5856 19.5749 17.6155 19.8735 17.6466 20.2349C17.707 21.0838 17.7661 21.8699 17.817 22.6899C17.8125 22.7466 17.8163 22.7695 17.8164 22.8503C18.1342 24.1666 18.4556 25.4249 18.7826 26.7345C19.0023 27.2192 19.2166 27.6527 19.4527 28.1327C19.7518 28.6536 20.029 29.128 20.3159 29.6457C20.4519 29.8482 20.5784 30.0073 20.7237 30.211C20.976 30.4842 21.0831 30.6836 20.8024 30.9948C20.3749 31.4689 20.0076 31.9974 19.5621 32.5147C19.2728 32.4026 19.0361 32.2786 18.7953 32.1103C18.5591 31.8488 18.3268 31.6317 18.0946 31.4146Z" fill="#222222"/>
<path d="M26.3877 34.8486C26.7294 35.1579 27.0711 35.4673 27.4537 35.8136C28.7912 34.529 30.1109 33.2631 31.4289 31.9953C32.717 30.7562 34.001 29.5129 35.2935 28.2784C35.4326 28.1455 35.6166 28.0587 35.825 27.9679C36.4341 28.5836 36.998 29.1819 37.4979 29.7122C36.5515 30.6945 35.6101 31.6716 34.6504 32.6901C32.4574 34.8088 30.2855 36.8889 28.1029 38.9578C27.9242 39.1272 27.6723 39.2208 27.4121 39.3348C25.7871 38.0103 24.2045 36.7007 22.5751 35.3832C22.0152 34.8486 21.5021 34.3218 20.9515 33.7565C21.4942 33.1259 22.0619 32.4664 22.6674 31.7629C23.0579 32.0919 23.4229 32.3994 23.859 32.7609C24.7493 33.4928 25.5685 34.1707 26.3877 34.8486Z" fill="#222222"/>
</g>
<path opacity="0.5" d="M28.5988 24.7958H26.6401C26.6401 24.4118 26.7584 24.0325 26.9949 23.6578C27.2315 23.2832 27.5106 22.9694 27.8324 22.7166C28.6272 22.0797 29.0246 21.499 29.0246 20.9745C29.0246 20.6467 28.9111 20.3938 28.684 20.2159C28.4569 20.0379 28.1399 19.9489 27.733 19.9489C26.9382 19.9489 26.3752 20.3657 26.044 21.1993L24.3691 20.244C24.653 19.5603 25.1025 19.0264 25.7175 18.6424C26.3326 18.2584 27.0281 18.0664 27.804 18.0664C28.6556 18.0664 29.3984 18.3146 30.0324 18.811C30.6663 19.298 30.9833 19.9724 30.9833 20.834C30.9833 21.218 30.8982 21.5833 30.7279 21.9298C30.567 22.267 30.3683 22.5573 30.1317 22.8008C29.9046 23.035 29.6728 23.2598 29.4362 23.4752C29.2091 23.6812 29.0104 23.8967 28.8401 24.1214C28.6792 24.3462 28.5988 24.571 28.5988 24.7958ZM28.8259 27.0857C28.8259 27.4135 28.7076 27.6945 28.4711 27.9287C28.2345 28.1628 27.9506 28.2799 27.6195 28.2799C27.2883 28.2799 27.0044 28.1628 26.7679 27.9287C26.5313 27.6945 26.413 27.4135 26.413 27.0857C26.413 26.7579 26.5313 26.4769 26.7679 26.2428C27.0044 26.0087 27.2883 25.8916 27.6195 25.8916C27.9506 25.8916 28.2345 26.0087 28.4711 26.2428C28.7076 26.4769 28.8259 26.7579 28.8259 27.0857Z" fill="#222222"/>
</g>
<defs>
<linearGradient id="paint0_linear_789_11415" x1="1.52242" y1="26.5947" x2="54.591" y2="26.5947" gradientUnits="userSpaceOnUse">
<stop stop-color="#C89749"/>
<stop offset="0.04" stop-color="#8E5523"/>
<stop offset="0.15" stop-color="#FFEE9D"/>
<stop offset="0.23" stop-color="#DEAC55"/>
<stop offset="0.51" stop-color="#E8C576"/>
<stop offset="0.81" stop-color="#DBAA4D"/>
<stop offset="0.86" stop-color="#FCF6B2"/>
<stop offset="0.95" stop-color="#8B5623"/>
<stop offset="1" stop-color="#CA983E"/>
</linearGradient>
<linearGradient id="paint1_linear_789_11415" x1="28.4129" y1="45.9041" x2="27.6579" y2="2.10178" gradientUnits="userSpaceOnUse">
<stop stop-color="#DBA73E"/>
<stop offset="0.16" stop-color="#D89D3A"/>
<stop offset="0.3" stop-color="#A46B28"/>
<stop offset="0.49" stop-color="#8E5723"/>
<stop offset="0.54" stop-color="#F4F3B8"/>
<stop offset="0.56" stop-color="#F7ED9A"/>
<stop offset="0.69" stop-color="#D5B767"/>
<stop offset="0.75" stop-color="#A76F29"/>
<stop offset="0.85" stop-color="#D0AB5B"/>
<stop offset="1" stop-color="#E0C77D"/>
</linearGradient>
<linearGradient id="paint2_linear_789_11415" x1="41.8905" y1="42.8442" x2="17.9201" y2="2.51737" gradientUnits="userSpaceOnUse">
<stop stop-color="#482A0F"/>
<stop offset="0.1" stop-color="#A77129"/>
<stop offset="0.15" stop-color="white"/>
<stop offset="0.22" stop-color="#DA9E41"/>
<stop offset="0.34" stop-color="#8E5923"/>
<stop offset="0.5" stop-color="#D8A64D"/>
<stop offset="0.66" stop-color="#F5E380"/>
<stop offset="0.72" stop-color="#DAC164"/>
<stop offset="0.77" stop-color="white"/>
<stop offset="0.83" stop-color="#A0752B"/>
<stop offset="1" stop-color="#664219"/>
</linearGradient>
<radialGradient id="paint3_radial_789_11415" cx="0" cy="0" r="1" gradientUnits="userSpaceOnUse" gradientTransform="translate(27.7306 24.0111) scale(29.0091 28.6965)">
<stop stop-color="white"/>
<stop offset="0.1" stop-color="white"/>
<stop offset="0.4" stop-color="#F1F1F1"/>
<stop offset="0.73" stop-color="#C8C0AF"/>
<stop offset="0.87" stop-color="#CBCACA"/>
<stop offset="1" stop-color="#B2AC9F"/>
</radialGradient>
<clipPath id="clip0_789_11415">
<rect width="12.5039" height="30.5282" fill="white" transform="translate(14.7871 8.80664)"/>
</clipPath>
<clipPath id="clip1_789_11415">
<rect width="13.5681" height="30.5282" fill="white" transform="matrix(-1 0 0 1 40.8594 8.80664)"/>
</clipPath>
</defs>
</svg>
