<svg width="39" height="27" viewBox="0 0 39 27" fill="none" xmlns="http://www.w3.org/2000/svg">
<path d="M13.0733 15.7514C13.8528 16.4582 14.6324 17.165 15.5051 17.9562C18.5563 15.0213 21.567 12.129 24.5735 9.23248C27.5119 6.40152 30.4411 3.56099 33.3897 0.74049C33.7071 0.43691 34.1268 0.238695 34.6021 0.03125C35.9916 1.43782 37.2781 2.80475 38.4184 4.01641C36.2595 6.26061 34.112 8.49295 31.9226 10.82C26.9198 15.6604 21.9652 20.4128 16.9862 25.1398C16.5785 25.5268 16.0039 25.7406 15.4101 26.0011C11.7032 22.975 8.09292 19.9828 4.37577 16.9728C3.0985 15.7515 1.9281 14.548 0.671875 13.2562C1.91004 11.8156 3.20496 10.3089 4.58634 8.70164C5.47721 9.45331 6.30985 10.1558 7.30464 10.9817C9.33561 12.6538 11.2044 14.2026 13.0733 15.7514Z" fill="white"/>
</svg>
