<svg width="70" height="75" viewBox="0 0 70 75" fill="none" xmlns="http://www.w3.org/2000/svg">
<g id="Asset 33 1" clip-path="url(#clip0_3150_68951)">
<g id="Layer 2">
<g id="Layer 1">
<path id="Vector" d="M70 40.4961V54.7276L35 74.9996L0 54.7908V40.5593L4.12602 42.9471L12.3464 47.6909L20.551 52.4347L35 60.7681L49.449 52.4347L65.874 42.9471L70 40.5593V40.4961Z" fill="url(#paint0_linear_3150_68951)"/>
<path id="Vector_2" d="M0 20.2402V34.535L35 54.7437L52.5 44.6393L40.1378 37.492L35 40.4648L0 20.2402Z" fill="url(#paint1_linear_3150_68951)"/>
<path id="Vector_3" d="M0 40.4966L5.13776 37.4922L17.5 44.6396L12.3464 47.6282L0 40.4966Z" fill="url(#paint2_linear_3150_68951)"/>
<path id="Vector_4" d="M57.6694 47.628L70 40.4964L35 20.2402L17.5 30.3604L29.878 37.492L35 34.535L57.6694 47.628Z" fill="url(#paint3_linear_3150_68951)"/>
<path id="Vector_5" d="M57.6694 27.3719L70 20.2404L35 0L0 20.2404L12.3464 27.3719L35 14.2948L57.6694 27.3719Z" fill="url(#paint4_linear_3150_68951)"/>
<path id="Vector_6" d="M52.5 30.3604L70 20.2402V34.535L64.8781 37.492L52.5 30.3604Z" fill="url(#paint5_linear_3150_68951)"/>
</g>
</g>
</g>
<defs>
<linearGradient id="paint0_linear_3150_68951" x1="101.064" y1="40.3538" x2="1.99809" y2="57.9893" gradientUnits="userSpaceOnUse">
<stop stop-color="#D6B300"/>
<stop offset="1" stop-color="#FFD600"/>
</linearGradient>
<linearGradient id="paint1_linear_3150_68951" x1="-15.4133" y1="37.5869" x2="111.545" y2="37.2708" gradientUnits="userSpaceOnUse">
<stop stop-color="#D7B400"/>
<stop offset="1" stop-color="#FFD600"/>
</linearGradient>
<linearGradient id="paint2_linear_3150_68951" x1="-6.82927" y1="54.4751" x2="54.4883" y2="7.65371" gradientUnits="userSpaceOnUse">
<stop stop-color="#D3B100"/>
<stop offset="1" stop-color="#FFD600"/>
</linearGradient>
<linearGradient id="paint3_linear_3150_68951" x1="27.0167" y1="52.7039" x2="70.7394" y2="7.58604" gradientUnits="userSpaceOnUse">
<stop stop-color="#C2A300"/>
<stop offset="1" stop-color="#FFD600"/>
</linearGradient>
<linearGradient id="paint4_linear_3150_68951" x1="22.1793" y1="-7.33713" x2="48.955" y2="50.2316" gradientUnits="userSpaceOnUse">
<stop stop-color="#FFD600"/>
<stop offset="1" stop-color="#FFD709"/>
</linearGradient>
<linearGradient id="paint5_linear_3150_68951" x1="-12.2832" y1="67.6153" x2="96.6328" y2="14.7131" gradientUnits="userSpaceOnUse">
<stop stop-color="#5E4E00"/>
<stop offset="1" stop-color="#FFD600"/>
</linearGradient>
<clipPath id="clip0_3150_68951">
<rect width="70" height="75" fill="white"/>
</clipPath>
</defs>
</svg>
