<svg width="160" height="34" viewBox="0 0 160 34" fill="none" xmlns="http://www.w3.org/2000/svg">
<g clip-path="url(#clip0_472_11831)">
<path d="M7.79265 17.5966L4.18383 21.1794L0.578125 17.5966L4.18383 14.0138L7.79265 17.5966ZM16.5418 8.89685L22.7208 15.0397L26.3265 11.4569L16.5418 1.73438L6.7571 11.4569L10.3628 15.0397L16.5418 8.89685ZM28.9028 14.0138L25.2971 17.5966L28.9028 21.1794L32.5054 17.5966L28.9028 14.0138ZM16.5418 26.2963L10.3628 20.1566L6.7571 23.7363L16.5418 33.4588L26.3265 23.7363L22.7208 20.1566L16.5418 26.2963ZM16.5418 21.1794L20.1475 17.5966L16.5418 14.0138L12.9361 17.5966L16.5418 21.1794ZM54.595 21.5234V21.4738C54.595 19.1369 53.3474 17.9685 51.3168 17.1999C52.5645 16.5025 53.6188 15.4085 53.6188 13.4466V13.397C53.6188 10.6635 51.4167 8.89685 47.839 8.89685H39.7168V26.2963H48.0449C51.9968 26.2963 54.6013 24.7064 54.6013 21.5234H54.595ZM49.7916 14.0851C49.7916 15.3775 48.7155 15.9261 47.0156 15.9261H43.4691V12.2534H47.2713C48.8964 12.2534 49.7978 12.898 49.7978 14.0417L49.7916 14.0851ZM50.7679 21.0461C50.7679 22.3385 49.7417 22.9336 48.0386 22.9336H43.4691V19.1121H47.9201C49.8976 19.1121 50.7741 19.8343 50.7741 21.0027L50.7679 21.0461ZM62.6892 26.2963V8.89685H58.8246V26.2963H62.6892ZM83.397 26.2963V8.89685H79.5823V19.6111L71.379 8.89685H67.8263V26.2963H71.6285V15.2349L80.1063 26.2963H83.397ZM104.735 26.2963L97.2178 8.77288H93.6651L86.1637 26.2963H90.0906L91.697 22.3943H99.1017L100.702 26.2963H104.735ZM97.7325 19.013H93.0663L95.3931 13.3722L97.7325 19.013ZM123.097 26.2963V8.89685H119.282V19.6111L111.076 8.89685H107.526V26.2963H111.326V15.2349L119.806 26.2963H123.097ZM142.982 23.4884L140.533 21.0275C139.157 22.2672 137.932 23.0637 135.929 23.0637C132.929 23.0637 130.851 20.5843 130.851 17.5966V17.547C130.851 14.5655 132.979 12.1294 135.929 12.1294C137.679 12.1294 139.048 12.8733 140.408 14.0913L142.851 11.2833C141.225 9.69338 139.251 8.59932 135.948 8.59932C130.571 8.59932 126.818 12.6501 126.818 17.5873V17.6369C126.818 22.6329 130.645 26.5846 135.798 26.5846C139.17 26.5939 141.169 25.4006 142.969 23.4884H142.982ZM159.419 26.2963V22.8871H149.9V19.2268H158.156V15.8176H149.9V12.303H159.282V8.89376H146.073V26.2932L159.419 26.2963Z" fill="white"/>
</g>
<defs>
<clipPath id="clip0_472_11831">
<rect width="159" height="33" fill="white" transform="translate(0.5 0.5)"/>
</clipPath>
</defs>
</svg>
