<svg width="218" height="70" viewBox="0 0 218 70" fill="none" xmlns="http://www.w3.org/2000/svg">
<rect width="218" height="70" rx="35" fill="#FFD600"/>
<rect width="218" height="70" rx="35" fill="#FFD600"/>
<path d="M59.2085 33.6586C59.1699 29.4687 62.7272 27.4303 62.8899 27.3354C60.8752 24.4715 57.7525 24.0802 56.6552 24.049C54.0325 23.7799 51.4885 25.5791 50.1525 25.5791C48.7899 25.5791 46.7325 24.075 44.5152 24.1192C41.6619 24.1621 38.9925 25.7728 37.5285 28.274C34.5072 33.3739 36.7605 40.8684 39.6552 44.9907C41.1032 47.0096 42.7952 49.2638 45.0099 49.1845C47.1765 49.0974 47.9859 47.8377 50.6005 47.8377C53.1912 47.8377 53.9512 49.1845 56.2099 49.1338C58.5352 49.0974 59.9992 47.1058 61.3965 45.0687C63.0699 42.7547 63.7419 40.4758 63.7685 40.3588C63.7139 40.3406 59.2525 38.6805 59.2085 33.6586Z" fill="black"/>
<path d="M54.9419 21.3372C56.1072 19.9163 56.9045 17.9832 56.6832 16.0215C54.9965 16.0943 52.8872 17.159 51.6725 18.5487C50.5979 19.7733 49.6379 21.7805 49.8859 23.6681C51.7805 23.8059 53.7259 22.736 54.9419 21.3372Z" fill="black"/>
<path d="M84.4388 20.9517C84.4388 22.4818 83.9681 23.6336 83.0281 24.4071C82.1574 25.1208 80.9201 25.4783 79.3174 25.4783C78.5228 25.4783 77.8428 25.4445 77.2734 25.3769V17.0166C78.0161 16.8996 78.8161 16.8398 79.6801 16.8398C81.2068 16.8398 82.3574 17.1635 83.1334 17.8109C84.0028 18.5428 84.4388 19.5893 84.4388 20.9517ZM82.9654 20.9894C82.9654 19.9975 82.6961 19.237 82.1574 18.7066C81.6188 18.1775 80.8321 17.9123 79.7961 17.9123C79.3561 17.9123 78.9814 17.9409 78.6708 18.0007V24.3564C78.8428 24.3824 79.1574 24.3941 79.6148 24.3941C80.6841 24.3941 81.5094 24.1042 82.0908 23.5244C82.6721 22.9446 82.9654 22.0996 82.9654 20.9894Z" fill="black"/>
<path d="M92.2498 22.2886C92.2498 23.2311 91.9738 24.0033 91.4218 24.6091C90.8431 25.2318 90.0764 25.5425 89.1191 25.5425C88.1964 25.5425 87.4618 25.2448 86.9138 24.6468C86.3671 24.0501 86.0938 23.2974 86.0938 22.39C86.0938 21.441 86.3751 20.6623 86.9404 20.0578C87.5057 19.4533 88.2658 19.1504 89.2231 19.1504C90.1458 19.1504 90.8871 19.4481 91.4484 20.0448C91.9818 20.6246 92.2498 21.3734 92.2498 22.2886ZM90.8004 22.3328C90.8004 21.7673 90.6751 21.2824 90.4258 20.8781C90.1324 20.3893 89.7151 20.1449 89.1724 20.1449C88.6111 20.1449 88.1844 20.3893 87.8911 20.8781C87.6404 21.2824 87.5164 21.7751 87.5164 22.3575C87.5164 22.923 87.6418 23.4079 87.8911 23.8122C88.1938 24.301 88.6151 24.5454 89.1591 24.5454C89.6924 24.5454 90.1111 24.2971 90.4124 23.7992C90.6711 23.3871 90.8004 22.8983 90.8004 22.3328Z" fill="black"/>
<path d="M102.724 19.2754L100.757 25.4036H99.4772L98.6625 22.7425C98.4559 22.0782 98.2878 21.4178 98.1572 20.7626H98.1318C98.0105 21.436 97.8425 22.0951 97.6265 22.7425L96.7612 25.4036H95.4665L93.6172 19.2754H95.0532L95.7638 22.1887C95.9358 22.8777 96.0772 23.5342 96.1905 24.1556H96.2158C96.3198 23.6434 96.4918 22.9908 96.7345 22.2017L97.6265 19.2767H98.7652L99.6198 22.1393C99.8265 22.8374 99.9945 23.5095 100.124 24.1569H100.163C100.257 23.5264 100.4 22.8543 100.589 22.1393L101.352 19.2767H102.724V19.2754Z" fill="black"/>
<path d="M109.97 25.4034H108.573V21.8934C108.573 20.8118 108.152 20.271 107.306 20.271C106.892 20.271 106.557 20.4192 106.297 20.7169C106.04 21.0146 105.909 21.3656 105.909 21.7673V25.4021H104.512V21.0263C104.512 20.4881 104.494 19.9044 104.461 19.2726H105.689L105.754 20.2307H105.793C105.956 19.933 106.198 19.6873 106.517 19.491C106.896 19.2622 107.32 19.1465 107.784 19.1465C108.37 19.1465 108.858 19.3311 109.246 19.7016C109.729 20.1553 109.97 20.8326 109.97 21.7322V25.4034V25.4034Z" fill="black"/>
<path d="M113.826 25.403H112.43V16.4629H113.826V25.403Z" fill="black"/>
<path d="M122.047 22.2886C122.047 23.2311 121.771 24.0033 121.219 24.6091C120.64 25.2318 119.872 25.5425 118.916 25.5425C117.992 25.5425 117.257 25.2448 116.711 24.6468C116.164 24.0501 115.891 23.2974 115.891 22.39C115.891 21.441 116.172 20.6623 116.737 20.0578C117.303 19.4533 118.063 19.1504 119.019 19.1504C119.943 19.1504 120.683 19.4481 121.245 20.0448C121.779 20.6246 122.047 21.3734 122.047 22.2886ZM120.596 22.3328C120.596 21.7673 120.471 21.2824 120.221 20.8781C119.929 20.3893 119.511 20.1449 118.969 20.1449C118.407 20.1449 117.98 20.3893 117.688 20.8781C117.437 21.2824 117.313 21.7751 117.313 22.3575C117.313 22.923 117.439 23.4079 117.688 23.8122C117.991 24.301 118.412 24.5454 118.956 24.5454C119.489 24.5454 119.907 24.2971 120.208 23.7992C120.468 23.3871 120.596 22.8983 120.596 22.3328Z" fill="black"/>
<path d="M128.808 25.4034H127.554L127.45 24.6975H127.411C126.982 25.2604 126.37 25.5425 125.575 25.5425C124.982 25.5425 124.502 25.3566 124.14 24.9874C123.812 24.652 123.648 24.2347 123.648 23.7394C123.648 22.9906 123.968 22.4199 124.612 22.0247C125.255 21.6295 126.159 21.4358 127.323 21.4449V21.3305C127.323 20.5232 126.888 20.1202 126.018 20.1202C125.398 20.1202 124.851 20.2723 124.379 20.5739L124.095 19.6795C124.679 19.3272 125.4 19.1504 126.251 19.1504C127.894 19.1504 128.718 19.9954 128.718 21.6854V23.9422C128.718 24.5545 128.748 25.042 128.808 25.4034ZM127.358 23.2974V22.3523C125.816 22.3263 125.046 22.7384 125.046 23.5873C125.046 23.9071 125.134 24.1463 125.314 24.3062C125.494 24.4661 125.723 24.5454 125.996 24.5454C126.303 24.5454 126.59 24.4505 126.851 24.262C127.114 24.0722 127.275 23.8317 127.335 23.5366C127.35 23.4703 127.358 23.3897 127.358 23.2974Z" fill="black"/>
<path d="M136.75 25.403H135.51L135.445 24.4189H135.406C135.01 25.1677 134.335 25.5421 133.387 25.5421C132.63 25.5421 131.999 25.2522 131.499 24.6724C130.999 24.0926 130.75 23.3399 130.75 22.4156C130.75 21.4237 131.021 20.6203 131.565 20.0067C132.091 19.4347 132.737 19.1487 133.505 19.1487C134.349 19.1487 134.939 19.4256 135.275 19.9807H135.302V16.4629H136.701V23.752C136.701 24.3487 136.717 24.8986 136.75 25.403ZM135.302 22.8186V21.7968C135.302 21.62 135.289 21.477 135.263 21.3678C135.185 21.0402 135.015 20.7646 134.758 20.5423C134.498 20.32 134.185 20.2082 133.823 20.2082C133.302 20.2082 132.894 20.4097 132.594 20.814C132.297 21.2183 132.146 21.7344 132.146 22.3649C132.146 22.9707 132.289 23.4621 132.575 23.8404C132.878 24.2434 133.286 24.4449 133.797 24.4449C134.255 24.4449 134.622 24.2772 134.901 23.9405C135.17 23.6298 135.302 23.2554 135.302 22.8186Z" fill="black"/>
<path d="M148.703 22.2886C148.703 23.2311 148.427 24.0033 147.875 24.6091C147.296 25.2318 146.531 25.5425 145.572 25.5425C144.651 25.5425 143.916 25.2448 143.367 24.6468C142.82 24.0501 142.547 23.2974 142.547 22.39C142.547 21.441 142.828 20.6623 143.394 20.0578C143.959 19.4533 144.719 19.1504 145.678 19.1504C146.599 19.1504 147.342 19.4481 147.902 20.0448C148.435 20.6246 148.703 21.3734 148.703 22.2886ZM147.255 22.3328C147.255 21.7673 147.13 21.2824 146.88 20.8781C146.586 20.3893 146.17 20.1449 145.626 20.1449C145.066 20.1449 144.639 20.3893 144.344 20.8781C144.094 21.2824 143.97 21.7751 143.97 22.3575C143.97 22.923 144.095 23.4079 144.344 23.8122C144.647 24.301 145.068 24.5454 145.612 24.5454C146.146 24.5454 146.566 24.2971 146.867 23.7992C147.124 23.3871 147.255 22.8983 147.255 22.3328Z" fill="black"/>
<path d="M156.219 25.4034H154.823V21.8934C154.823 20.8118 154.402 20.271 153.555 20.271C153.14 20.271 152.806 20.4192 152.547 20.7169C152.288 21.0146 152.159 21.3656 152.159 21.7673V25.4021H150.76V21.0263C150.76 20.4881 150.744 19.9044 150.711 19.2726H151.938L152.003 20.2307H152.042C152.206 19.933 152.448 19.6873 152.766 19.491C153.146 19.2622 153.568 19.1465 154.034 19.1465C154.619 19.1465 155.107 19.3311 155.495 19.7016C155.979 20.1553 156.219 20.8326 156.219 21.7322V25.4034V25.4034Z" fill="black"/>
<path d="M165.617 20.2947H164.078V23.2717C164.078 24.0283 164.352 24.4066 164.893 24.4066C165.144 24.4066 165.352 24.3858 165.516 24.3429L165.552 25.3764C165.276 25.4778 164.913 25.5285 164.466 25.5285C163.914 25.5285 163.485 25.3647 163.174 25.0371C162.862 24.7095 162.708 24.1583 162.708 23.3848V20.2947H161.789V19.2742H162.708V18.151L164.077 17.748V19.2729H165.616V20.2947H165.617Z" fill="black"/>
<path d="M173.021 25.403H171.623V21.919C171.623 20.8205 171.201 20.2706 170.357 20.2706C169.709 20.2706 169.267 20.5891 169.024 21.2261C168.983 21.36 168.959 21.5238 168.959 21.7162V25.4017H167.562V16.4629H168.959V20.1562H168.985C169.425 19.4841 170.056 19.1487 170.873 19.1487C171.452 19.1487 171.931 19.3333 172.311 19.7038C172.784 20.1653 173.021 20.8517 173.021 21.7591V25.403V25.403Z" fill="black"/>
<path d="M180.65 22.0494C180.65 22.2938 180.632 22.4992 180.598 22.6669H176.408C176.427 23.2727 176.627 23.7342 177.015 24.054C177.369 24.34 177.827 24.483 178.387 24.483C179.007 24.483 179.572 24.3868 180.081 24.1931L180.3 25.1395C179.704 25.3917 179.002 25.5178 178.19 25.5178C177.217 25.5178 176.45 25.2383 175.896 24.6793C175.338 24.1203 175.062 23.3702 175.062 22.429C175.062 21.5047 175.32 20.7351 175.839 20.1215C176.38 19.4663 177.112 19.1387 178.036 19.1387C178.94 19.1387 179.627 19.4663 180.091 20.1215C180.465 20.6415 180.65 21.285 180.65 22.0494ZM179.317 21.6971C179.328 21.2928 179.236 20.9444 179.046 20.6506C178.804 20.2723 178.434 20.0825 177.934 20.0825C177.478 20.0825 177.106 20.2671 176.822 20.6376C176.59 20.9327 176.453 21.285 176.408 21.6971H179.317Z" fill="black"/>
<path d="M90.5659 48.8942H87.5379L85.8793 43.8125H80.1139L78.5339 48.8942H75.5859L81.2979 31.5938H84.8259L90.5659 48.8942ZM85.3793 41.6805L83.8793 37.163C83.7206 36.7015 83.4233 35.6147 82.9846 33.9039H82.9313C82.7566 34.6397 82.4753 35.7265 82.0886 37.163L80.6153 41.6805H85.3793V41.6805Z" fill="black"/>
<path d="M105.259 42.5022C105.259 44.6238 104.671 46.3008 103.495 47.5319C102.441 48.6278 101.133 49.1751 99.5722 49.1751C97.8868 49.1751 96.6762 48.5849 95.9388 47.4045H95.8855V53.976H93.0428V40.5249C93.0428 39.1911 93.0068 37.8222 92.9375 36.4182H95.4375L95.5962 38.3955H95.6495C96.5975 36.9057 98.0362 36.1621 99.9668 36.1621C101.476 36.1621 102.736 36.7432 103.744 37.9067C104.755 39.0715 105.259 40.6029 105.259 42.5022ZM102.363 42.6036C102.363 41.3894 102.083 40.3884 101.52 39.6006C100.906 38.779 100.08 38.3682 99.0455 38.3682C98.3442 38.3682 97.7068 38.597 97.1375 39.0481C96.5668 39.5031 96.1935 40.0972 96.0188 40.833C95.9308 41.1762 95.8868 41.457 95.8868 41.678V43.758C95.8868 44.6654 96.1722 45.4311 96.7428 46.0564C97.3135 46.6817 98.0548 46.9937 98.9668 46.9937C100.037 46.9937 100.871 46.5907 101.467 45.7873C102.064 44.9826 102.363 43.9218 102.363 42.6036Z" fill="black"/>
<path d="M119.968 42.5022C119.968 44.6238 119.38 46.3008 118.203 47.5319C117.151 48.6278 115.843 49.1751 114.282 49.1751C112.596 49.1751 111.386 48.5849 110.65 47.4045H110.596V53.976H107.754V40.5249C107.754 39.1911 107.718 37.8222 107.648 36.4182H110.148L110.307 38.3955H110.36C111.307 36.9057 112.746 36.1621 114.678 36.1621C116.186 36.1621 117.446 36.7432 118.456 37.9067C119.463 39.0715 119.968 40.6029 119.968 42.5022ZM117.072 42.6036C117.072 41.3894 116.791 40.3884 116.228 39.6006C115.614 38.779 114.791 38.3682 113.755 38.3682C113.052 38.3682 112.416 38.597 111.846 39.0481C111.275 39.5031 110.903 40.0972 110.728 40.833C110.642 41.1762 110.596 41.457 110.596 41.678V43.758C110.596 44.6654 110.882 45.4311 111.45 46.0564C112.02 46.6804 112.762 46.9937 113.676 46.9937C114.747 46.9937 115.58 46.5907 116.176 45.7873C116.774 44.9826 117.072 43.9218 117.072 42.6036Z" fill="black"/>
<path d="M136.422 44.0421C136.422 45.5137 135.898 46.711 134.846 47.6353C133.69 48.6454 132.081 49.1498 130.013 49.1498C128.103 49.1498 126.573 48.791 125.414 48.0721L126.073 45.762C127.321 46.4978 128.69 46.867 130.182 46.867C131.253 46.867 132.086 46.6304 132.685 46.1598C133.281 45.6892 133.578 45.0574 133.578 44.2696C133.578 43.5676 133.333 42.9761 132.841 42.4964C132.351 42.0167 131.534 41.5708 130.393 41.1587C127.286 40.029 125.734 38.3741 125.734 36.1979C125.734 34.7757 126.278 33.6096 127.367 32.7022C128.453 31.7935 129.901 31.3398 131.711 31.3398C133.326 31.3398 134.667 31.6141 135.738 32.1614L135.027 34.4208C134.027 33.8904 132.897 33.6252 131.631 33.6252C130.631 33.6252 129.85 33.8657 129.29 34.3441C128.817 34.7718 128.579 35.2931 128.579 35.9106C128.579 36.5944 128.85 37.1599 129.394 37.6045C129.867 38.0153 130.727 38.4599 131.975 38.9396C133.502 39.5389 134.623 40.2396 135.345 41.043C136.063 41.8438 136.422 42.8461 136.422 44.0421Z" fill="black"/>
<path d="M145.823 38.4988H142.69V44.5555C142.69 46.096 143.242 46.8656 144.349 46.8656C144.857 46.8656 145.278 46.8227 145.611 46.7369L145.69 48.8416C145.13 49.0457 144.393 49.1484 143.479 49.1484C142.357 49.1484 141.479 48.8143 140.846 48.1474C140.215 47.4792 139.898 46.3586 139.898 44.7843V38.4962H138.031V36.4162H139.898V34.1321L142.69 33.3105V36.4162H145.823V38.4988Z" fill="black"/>
<path d="M159.962 42.5536C159.962 44.4711 159.399 46.0454 158.276 47.2765C157.099 48.544 155.536 49.1758 153.588 49.1758C151.711 49.1758 150.216 48.5687 149.102 47.3545C147.987 46.1403 147.43 44.6076 147.43 42.7603C147.43 40.8272 148.003 39.2438 149.154 38.0127C150.302 36.7803 151.851 36.1641 153.799 36.1641C155.676 36.1641 157.187 36.7712 158.327 37.9867C159.418 39.1658 159.962 40.6881 159.962 42.5536ZM157.012 42.6433C157.012 41.4928 156.76 40.5061 156.25 39.6832C155.654 38.6874 154.802 38.1908 153.698 38.1908C152.555 38.1908 151.687 38.6887 151.091 39.6832C150.58 40.5074 150.328 41.5097 150.328 42.6953C150.328 43.8458 150.58 44.8325 151.091 45.6541C151.706 46.6499 152.564 47.1465 153.672 47.1465C154.758 47.1465 155.61 46.6395 156.224 45.6281C156.748 44.7896 157.012 43.7925 157.012 42.6433Z" fill="black"/>
<path d="M169.197 38.8557C168.916 38.805 168.616 38.779 168.301 38.779C167.301 38.779 166.528 39.1469 165.984 39.884C165.51 40.534 165.273 41.3556 165.273 42.3475V48.893H162.432L162.458 40.3468C162.458 38.909 162.422 37.5999 162.352 36.4195H164.828L164.932 38.8063H165.01C165.31 37.986 165.784 37.3256 166.432 36.8303C167.065 36.3844 167.749 36.1621 168.486 36.1621C168.749 36.1621 168.986 36.1803 169.197 36.2128V38.8557Z" fill="black"/>
<path d="M181.918 42.0654C181.918 42.562 181.884 42.9806 181.814 43.3225H173.286C173.319 44.5549 173.731 45.4974 174.523 46.1474C175.242 46.7285 176.171 47.0197 177.312 47.0197C178.575 47.0197 179.727 46.8234 180.763 46.4295L181.208 48.3535C179.998 48.8683 178.568 49.1244 176.919 49.1244C174.935 49.1244 173.378 48.555 172.244 47.4175C171.114 46.28 170.547 44.7525 170.547 42.8363C170.547 40.9552 171.074 39.3887 172.128 38.1394C173.232 36.8056 174.724 36.1387 176.602 36.1387C178.446 36.1387 179.842 36.8056 180.79 38.1394C181.54 39.1989 181.918 40.5093 181.918 42.0654ZM179.207 41.3465C179.226 40.5249 179.04 39.8151 178.655 39.2158C178.163 38.4449 177.407 38.0601 176.39 38.0601C175.46 38.0601 174.704 38.4358 174.127 39.1898C173.654 39.7891 173.372 40.508 173.286 41.3452H179.207V41.3465Z" fill="black"/>
</svg>
