<svg width="218" height="70" viewBox="0 0 218 70" fill="none" xmlns="http://www.w3.org/2000/svg">
<rect width="218" height="70" rx="35" fill="#FFD600"/>
<rect width="218" height="70" rx="35" fill="#FFD600"/>
<path d="M31.884 18.5085C31.4923 18.9082 31.2656 19.5306 31.2656 20.3366V49.0861C31.2656 49.8921 31.4923 50.5145 31.884 50.9142L31.9806 51.002L48.5039 34.8982V34.518L31.9806 18.4142L31.884 18.5085Z" fill="black"/>
<path d="M56.0017 40.2695L50.5 34.8989V34.5187L56.0083 29.148L56.1317 29.2179L62.655 32.8368C64.5167 33.8638 64.5167 35.5538 62.655 36.5873L56.1317 40.1997L56.0017 40.2695Z" fill="black"/>
<path d="M55.1345 41.1992L49.5028 35.7083L32.8828 51.9145C33.5011 52.5482 34.5095 52.6246 35.6561 51.9908L55.1345 41.1992Z" fill="black"/>
<path d="M55.1345 28.2181L35.6561 17.4265C34.5095 16.7992 33.5011 16.8756 32.8828 17.5094L49.5028 33.709L55.1345 28.2181Z" fill="black"/>
<path d="M82.1882 22.0271C82.1882 23.1126 81.8549 23.982 81.1982 24.6304C80.4432 25.399 79.4599 25.7858 78.2549 25.7858C77.1032 25.7858 76.1199 25.3925 75.3132 24.6174C74.5049 23.8309 74.1016 22.8656 74.1016 21.7103C74.1016 20.5549 74.5049 19.5896 75.3132 18.8096C76.1199 18.028 77.1032 17.6348 78.2549 17.6348C78.8282 17.6348 79.3749 17.7501 79.8966 17.9646C80.4166 18.1808 80.8399 18.4733 81.1466 18.834L80.4499 19.5198C79.9149 18.9039 79.1866 18.6 78.2549 18.6C77.4149 18.6 76.6866 18.886 76.0682 19.4629C75.4566 20.0414 75.1499 20.7905 75.1499 21.7103C75.1499 22.63 75.4566 23.3856 76.0682 23.9641C76.6866 24.5345 77.4149 24.827 78.2549 24.827C79.1466 24.827 79.8966 24.5345 80.4882 23.9576C80.8782 23.5758 81.0999 23.0493 81.1582 22.3765H78.2549V21.4373H82.1282C82.1749 21.6404 82.1882 21.837 82.1882 22.0271Z" fill="black" stroke="black" stroke-width="0.16" stroke-miterlimit="10"/>
<path d="M88.3324 18.7696H84.6941V21.2396H87.9741V22.1789H84.6941V24.6489H88.3324V25.606H83.6641V17.8125H88.3324V18.7696Z" fill="black" stroke="black" stroke-width="0.16" stroke-miterlimit="10"/>
<path d="M92.6679 25.606H91.6379V18.7696H89.4062V17.8125H94.9012V18.7696H92.6679V25.606Z" fill="black" stroke="black" stroke-width="0.16" stroke-miterlimit="10"/>
<path d="M98.8828 25.606V17.8125H99.9111V25.606H98.8828Z" fill="black" stroke="black" stroke-width="0.16" stroke-miterlimit="10"/>
<path d="M104.465 25.606H103.443V18.7696H101.203V17.8125H106.705V18.7696H104.465V25.606Z" fill="black" stroke="black" stroke-width="0.16" stroke-miterlimit="10"/>
<path d="M117.108 24.6044C116.319 25.3925 115.342 25.7858 114.177 25.7858C113.006 25.7858 112.029 25.3925 111.241 24.6044C110.454 23.8179 110.062 22.8526 110.062 21.7103C110.062 20.5679 110.454 19.6026 111.241 18.8161C112.029 18.028 113.006 17.6348 114.177 17.6348C115.336 17.6348 116.313 18.028 117.101 18.8226C117.894 19.6156 118.286 20.5744 118.286 21.7103C118.286 22.8526 117.894 23.8179 117.108 24.6044ZM112.003 23.9511C112.596 24.5345 113.317 24.827 114.177 24.827C115.031 24.827 115.759 24.5345 116.346 23.9511C116.938 23.3678 117.237 22.6186 117.237 21.7103C117.237 20.8019 116.938 20.0528 116.346 19.4694C115.759 18.886 115.031 18.5935 114.177 18.5935C113.317 18.5935 112.596 18.886 112.003 19.4694C111.411 20.0528 111.111 20.8019 111.111 21.7103C111.111 22.6186 111.411 23.3678 112.003 23.9511Z" fill="black" stroke="black" stroke-width="0.16" stroke-miterlimit="10"/>
<path d="M119.734 25.606V17.8125H120.984L124.871 23.8737H124.916L124.871 22.3755V17.8125H125.899V25.606H124.826L120.756 19.2457H120.711L120.756 20.7505V25.606H119.734Z" fill="black" stroke="black" stroke-width="0.16" stroke-miterlimit="10"/>
<path d="M109.814 36.9873C106.682 36.9873 104.124 39.311 104.124 42.5171C104.124 45.6973 106.682 48.0454 109.814 48.0454C112.952 48.0454 115.511 45.6973 115.511 42.5171C115.511 39.311 112.952 36.9873 109.814 36.9873ZM109.814 45.8679C108.096 45.8679 106.617 44.485 106.617 42.5171C106.617 40.5233 108.096 39.1648 109.814 39.1648C111.532 39.1648 113.017 40.5233 113.017 42.5171C113.017 44.485 111.532 45.8679 109.814 45.8679ZM97.3992 36.9873C94.2608 36.9873 91.7092 39.311 91.7092 42.5171C91.7092 45.6973 94.2608 48.0454 97.3992 48.0454C100.536 48.0454 103.089 45.6973 103.089 42.5171C103.089 39.311 100.536 36.9873 97.3992 36.9873ZM97.3992 45.8679C95.6792 45.8679 94.1958 44.485 94.1958 42.5171C94.1958 40.5233 95.6792 39.1648 97.3992 39.1648C99.1175 39.1648 100.596 40.5233 100.596 42.5171C100.596 44.485 99.1175 45.8679 97.3992 45.8679ZM82.6258 38.6821V41.0319H88.3808C88.2125 42.3449 87.7625 43.3101 87.0725 43.9829C86.2325 44.7954 84.9242 45.6973 82.6258 45.6973C79.0842 45.6973 76.3108 42.9104 76.3108 39.4573C76.3108 36.0041 79.0842 33.2173 82.6258 33.2173C84.5408 33.2173 85.9342 33.9469 86.9625 34.8926L88.6608 33.2368C87.2225 31.8978 85.3092 30.8691 82.6258 30.8691C77.7692 30.8691 73.6875 34.722 73.6875 39.4573C73.6875 44.1925 77.7692 48.0454 82.6258 48.0454C85.2508 48.0454 87.2225 47.2069 88.7725 45.6339C90.3608 44.0853 90.8558 41.9078 90.8558 40.1495C90.8558 39.6035 90.8092 39.1014 90.7258 38.6821H82.6258ZM143.036 40.5038C142.567 39.2671 141.122 36.9873 138.179 36.9873C135.262 36.9873 132.834 39.2281 132.834 42.5171C132.834 45.6144 135.237 48.0454 138.459 48.0454C141.064 48.0454 142.567 46.4968 143.186 45.5949L141.252 44.3388C140.607 45.2585 139.729 45.8679 138.459 45.8679C137.197 45.8679 136.292 45.304 135.712 44.1925L143.297 41.1326L143.036 40.5038ZM135.302 42.3449C135.237 40.2129 137.001 39.1209 138.264 39.1209C139.254 39.1209 140.094 39.6035 140.374 40.2941L135.302 42.3449ZM129.137 47.709H131.631V31.459H129.137V47.709ZM125.054 38.219H124.971C124.411 37.5723 123.342 36.9873 121.989 36.9873C119.149 36.9873 116.552 39.4183 116.552 42.535C116.552 45.6339 119.149 48.0454 121.989 48.0454C123.342 48.0454 124.411 47.4555 124.971 46.7893H125.054V47.5823C125.054 49.6964 123.896 50.8323 122.027 50.8323C120.504 50.8323 119.559 49.7598 119.169 48.8579L117.001 49.7403C117.626 51.206 119.281 53.0098 122.027 53.0098C124.951 53.0098 127.417 51.3328 127.417 47.2524V37.3236H125.054V38.219ZM122.202 45.8679C120.484 45.8679 119.046 44.4655 119.046 42.535C119.046 40.5866 120.484 39.1648 122.202 39.1648C123.896 39.1648 125.231 40.5866 125.231 42.535C125.231 44.4655 123.896 45.8679 122.202 45.8679ZM154.709 31.459H148.746V47.709H151.232V41.5519H154.709C157.471 41.5519 160.179 39.6035 160.179 36.5046C160.179 33.4074 157.464 31.459 154.709 31.459ZM154.774 39.2915H151.232V33.7194H154.774C156.631 33.7194 157.691 35.2225 157.691 36.5046C157.691 37.7624 156.631 39.2915 154.774 39.2915ZM170.146 36.9564C168.349 36.9564 166.481 37.7299 165.712 39.4443L167.919 40.3461C168.394 39.4443 169.267 39.1518 170.191 39.1518C171.481 39.1518 172.789 39.9074 172.809 41.2415V41.4121C172.359 41.1586 171.396 40.7833 170.211 40.7833C167.834 40.7833 165.412 42.0589 165.412 44.4395C165.412 46.617 167.359 48.0194 169.547 48.0194C171.221 48.0194 172.144 47.2833 172.724 46.4269H172.809V47.683H175.211V41.4495C175.211 38.5684 173.004 36.9564 170.146 36.9564ZM169.846 45.8614C169.032 45.8614 167.899 45.4681 167.899 44.485C167.899 43.2273 169.312 42.7446 170.536 42.7446C171.631 42.7446 172.144 42.9803 172.809 43.2906C172.614 44.7954 171.286 45.8614 169.846 45.8614ZM183.961 37.3123L181.102 44.3566H181.017L178.062 37.3123H175.381L179.821 47.1565L177.287 52.6344H179.886L186.727 37.3123H183.961ZM161.546 47.709H164.039V31.459H161.546V47.709Z" fill="black"/>
</svg>
