<svg width="18" height="18" viewBox="0 0 18 18" fill="none" xmlns="http://www.w3.org/2000/svg">
<g id="Group">
<g id="Path">
<path fill-rule="evenodd" clip-rule="evenodd" d="M2.52344 11.0302V7.60011C2.52344 6.44619 3.13713 5.37943 4.13403 4.79887L7.37538 2.9124C8.38308 2.32608 9.62848 2.32608 10.6362 2.9124L13.8775 4.79887C14.8751 5.37943 15.4888 6.44619 15.4888 7.60011V11.0302C15.4888 12.1841 14.8751 13.2509 13.8782 13.8314L10.6369 15.7179C9.6292 16.3042 8.3838 16.3042 7.3761 15.7179L4.13475 13.8314C3.13713 13.2509 2.52344 12.1841 2.52344 11.0302Z" stroke="#FFD600" stroke-linecap="round" stroke-linejoin="round"/>
<path fill-rule="evenodd" clip-rule="evenodd" d="M2.52344 11.0302V7.60011C2.52344 6.44619 3.13713 5.37943 4.13403 4.79887L7.37538 2.9124C8.38308 2.32608 9.62848 2.32608 10.6362 2.9124L13.8775 4.79887C14.8751 5.37943 15.4888 6.44619 15.4888 7.60011V11.0302C15.4888 12.1841 14.8751 13.2509 13.8782 13.8314L10.6369 15.7179C9.6292 16.3042 8.3838 16.3042 7.3761 15.7179L4.13475 13.8314C3.13713 13.2509 2.52344 12.1841 2.52344 11.0302Z" stroke="#FFD600" stroke-linecap="round" stroke-linejoin="round"/>
</g>
<g id="Group_2">
<g id="Path_2">
<path d="M9.00676 6.43359C9.89056 6.43359 10.6073 7.15029 10.6073 8.0341C10.6073 8.91791 9.89056 9.63461 9.00676 9.63461C8.12295 9.63461 7.40625 8.91791 7.40625 8.0341C7.40625 7.15029 8.12295 6.43359 9.00676 6.43359" stroke="#FFD600" stroke-linecap="round" stroke-linejoin="round"/>
<path d="M9.00676 6.43359C9.89056 6.43359 10.6073 7.15029 10.6073 8.0341C10.6073 8.91791 9.89056 9.63461 9.00676 9.63461C8.12295 9.63461 7.40625 8.91791 7.40625 8.0341C7.40625 7.15029 8.12295 6.43359 9.00676 6.43359" stroke="#FFD600" stroke-linecap="round" stroke-linejoin="round"/>
</g>
<g id="Path_3">
<path d="M11.8874 12.1965C11.8038 11.9854 11.6735 11.7967 11.5071 11.6426V11.6426C11.2254 11.3818 10.8581 11.2363 10.4742 11.2363C9.83382 11.2363 8.1793 11.2363 7.53895 11.2363C7.15503 11.2363 6.78696 11.3818 6.50532 11.6426V11.6426C6.33893 11.796 6.20928 11.9854 6.125 12.1965" stroke="#FFD600" stroke-linecap="round" stroke-linejoin="round"/>
<path d="M11.8874 12.1965C11.8038 11.9854 11.6735 11.7967 11.5071 11.6426V11.6426C11.2254 11.3818 10.8581 11.2363 10.4742 11.2363C9.83382 11.2363 8.1793 11.2363 7.53895 11.2363C7.15503 11.2363 6.78696 11.3818 6.50532 11.6426V11.6426C6.33893 11.796 6.20928 11.9854 6.125 12.1965" stroke="#FFD600" stroke-linecap="round" stroke-linejoin="round"/>
</g>
</g>
</g>
</svg>
