<svg width="25" height="23" viewBox="0 0 25 23" fill="none" xmlns="http://www.w3.org/2000/svg">
<g id="Group 270">
<path id="Vector" d="M15.5704 10.9547L6.08203 9.31836V21.4094C6.08203 21.9616 6.54007 22.4093 7.1051 22.4093H23.4776C24.0426 22.4093 24.5006 21.9616 24.5006 21.4094V16.9547L15.5704 10.9547Z" fill="#185C37"/>
<path id="Vector_2" d="M15.5704 0.591797H7.1051C6.54007 0.591797 6.08203 1.03943 6.08203 1.59161V6.04634L15.5704 11.5009L20.5937 13.1372L24.5006 11.5009V6.04634L15.5704 0.591797Z" fill="#21A366"/>
<path id="Vector_3" d="M6.08203 6.04688H15.5704V11.5014H6.08203V6.04688Z" fill="#107C41"/>
<path id="Vector_4" opacity="0.1" d="M12.8728 4.95508H6.08203V18.5914H12.8728C13.437 18.5896 13.894 18.1431 13.8958 17.5916V5.95489C13.894 5.40346 13.437 4.95687 12.8728 4.95508Z" fill="black"/>
<path id="Vector_5" opacity="0.2" d="M12.3148 5.5H6.08203V19.1364H12.3148C12.879 19.1346 13.336 18.688 13.3378 18.1365V6.49982C13.336 5.94838 12.879 5.50179 12.3148 5.5Z" fill="black"/>
<path id="Vector_6" opacity="0.2" d="M12.3148 5.5H6.08203V18.0454H12.3148C12.879 18.0437 13.336 17.5971 13.3378 17.0456V6.49982C13.336 5.94838 12.879 5.50179 12.3148 5.5Z" fill="black"/>
<path id="Vector_7" opacity="0.2" d="M11.7566 5.5H6.08203V18.0454H11.7566C12.3209 18.0437 12.7779 17.5971 12.7797 17.0456V6.49982C12.7779 5.94838 12.3209 5.50179 11.7566 5.5Z" fill="black"/>
<path id="Vector_8" d="M1.52307 5.5H11.756C12.321 5.5 12.7791 5.94763 12.7791 6.49982V16.5002C12.7791 17.0524 12.321 17.5 11.756 17.5H1.52307C0.958041 17.5 0.5 17.0524 0.5 16.5002V6.49982C0.5 5.94763 0.958041 5.5 1.52307 5.5Z" fill="url(#paint0_linear_1675_8518)"/>
<path id="Vector_9" d="M3.66797 14.7502L5.82015 11.4911L3.84825 8.25H5.43448L6.51057 10.3227C6.60992 10.5196 6.67801 10.6658 6.71485 10.7624H6.7288C6.7995 10.6053 6.87392 10.4527 6.95206 10.3047L8.10238 8.2511H9.55857L7.53642 11.4731L9.60992 14.7502H8.06053L6.81755 12.4751C6.759 12.3783 6.70932 12.2766 6.66909 12.1713H6.65068C6.61426 12.2745 6.56595 12.3733 6.50667 12.4658L5.22686 14.7502H3.66797Z" fill="white"/>
<path id="Vector_10" d="M23.4775 0.591797H15.5703V6.04634H24.5005V1.59161C24.5005 1.03943 24.0425 0.591797 23.4775 0.591797Z" fill="#33C481"/>
<path id="Vector_11" d="M15.5703 11.5H24.5005V16.9545H15.5703V11.5Z" fill="#107C41"/>
</g>
<defs>
<linearGradient id="paint0_linear_1675_8518" x1="2.63312" y1="4.71876" x2="10.3728" y2="18.4353" gradientUnits="userSpaceOnUse">
<stop stop-color="#18884F"/>
<stop offset="0.5" stop-color="#117E43"/>
<stop offset="1" stop-color="#0B6631"/>
</linearGradient>
</defs>
</svg>
