<svg width="115" height="50" viewBox="0 0 115 50" fill="none" xmlns="http://www.w3.org/2000/svg">
<path d="M10.0938 12.464H16.8831V23.4236C14.616 23.8763 12.8799 24.1056 10.9768 24.1056C3.53128 24.1056 0.90625 19.9017 0.90625 12.9814C0.90625 5.54375 4.54549 1.33984 11.8001 1.33984C12.7189 1.33984 14.455 1.40452 16.6206 1.7279V8.74224H15.0456L14.1567 6.06115C13.3035 3.50941 12.2893 2.2453 10.6785 2.2453C7.8924 2.2453 6.41284 5.9612 6.41284 12.9167C6.41284 19.9017 7.00347 23.2001 10.6427 23.2001C11.1379 23.2001 11.7226 23.1355 12.2834 22.9767V14.8217L10.0879 13.3342V12.464H10.0938ZM16.7519 41.8855C16.7519 46.2834 13.7033 48.8057 8.32195 48.8057C6.84835 48.8057 4.68271 48.5823 2.64831 48.2531V39.6571H4.22333L4.87959 41.6914C6.35318 46.3775 7.40319 47.9297 9.2765 47.9297C11.2453 47.9297 12.6532 46.2187 12.6532 43.9551C12.6532 42.1148 11.7703 40.8213 9.86714 39.8159L6.58585 38.0696C4.05628 36.7467 2.67814 34.6771 2.67814 32.1548C2.67814 28.3389 5.858 26.0459 11.0782 26.0459C12.2595 26.0459 13.6376 26.1458 15.8331 26.4339V33.4483H14.2581L13.3751 30.7672C12.4862 27.9215 11.5376 26.8866 9.80151 26.8866C7.86257 26.8866 6.7171 28.1155 6.7171 29.8911C6.7171 31.4727 7.60603 32.6075 9.34213 33.5776L12.6532 35.4179C15.4393 36.9701 16.7519 39.0397 16.7519 41.8855ZM31.2551 46.9654L31.9114 47.9356V48.4236H26.894L26.6613 46.548C26.1363 47.9708 24.7582 48.8116 22.9863 48.8116C20.3613 48.8116 18.7206 47.1947 18.7206 44.543C18.7206 41.956 20.1942 40.2451 24.7224 38.4988L26.6554 37.758V35.3356C26.6554 33.2013 26.2616 32.3311 25.0505 32.3311C24.0661 32.3311 23.5113 32.8485 22.5567 35.2063L21.4769 37.8462H20.0033V32.5722C21.9363 31.9901 23.8752 31.6021 25.5457 31.6021C29.2506 31.6021 31.2551 33.3483 31.2551 36.5174V46.9654ZM33.1523 15.5038C33.1523 21.0012 30.1693 24.1056 26.3272 24.1056C22.4911 24.1056 19.5081 21.0012 19.5081 15.5038C19.5081 10.0064 22.4911 6.90193 26.3332 6.90193C30.1693 6.90193 33.1523 10.0064 33.1523 15.5038ZM26.6613 44.2491V38.6576L26.0409 38.9163C24.1019 39.6924 23.3801 41.4386 23.3801 43.9904C23.3801 45.9012 23.8394 46.9948 24.9193 46.9948C25.9991 46.9948 26.6613 45.96 26.6613 44.2491ZM28.3318 15.5038C28.3318 9.29492 27.8068 7.64864 26.3332 7.64864C24.8596 7.64864 24.3346 9.29492 24.3346 15.5038C24.3346 21.7126 24.8596 23.3589 26.3332 23.3589C27.8068 23.3589 28.3318 21.7126 28.3318 15.5038ZM44.8038 44.4078L45.3945 44.7018C44.3445 47.6769 43.0021 48.8057 40.4069 48.8057C36.1771 48.8057 33.8145 45.6719 33.8145 40.2039C33.8145 34.7418 36.5708 31.6021 41.0632 31.6021C42.2743 31.6021 43.8851 31.7961 45.2632 32.3429V37.8403H43.724L43.1035 35.7707C42.2802 33.0249 41.8268 32.3135 41.0035 32.3135C39.691 32.3135 38.641 33.9951 38.641 40.3979C38.641 45.5367 39.4285 47.4123 41.4271 47.4123C42.7695 47.4182 43.9149 46.5774 44.8038 44.4078ZM41.1586 23.7176H35.2523V23.2354L35.9086 22.2653V4.22084L35.2523 3.25071V2.7627L40.5024 2.37465V22.2594L41.1586 23.2295V23.7176ZM49.2306 24.1056C45.6212 24.1056 43.4555 20.8718 43.4555 15.345C43.4555 9.8476 45.7166 6.90781 49.1948 6.90781C50.9667 6.90781 51.9511 7.58396 52.3747 8.94215V4.22084L51.7184 3.25071V2.7627L56.9685 2.37465V22.2594L57.6247 23.2295V23.7117H52.9653L52.6073 21.254C52.0883 23.3589 51.1039 24.1056 49.2306 24.1056ZM60.7449 46.9654L61.4012 47.9356V48.4236H55.4949V47.9356L56.1511 46.9654V35.3239C56.1511 33.9363 55.7275 33.0955 54.7074 33.0955C53.4903 33.0955 52.6073 34.1009 52.6073 36.0706V46.9654L53.2636 47.9356V48.4236H47.3573V47.9356L48.0135 46.9654V28.921L47.3573 27.9509V27.4687L52.6073 27.0807V33.7716C53.198 32.3841 54.5403 31.608 56.4435 31.608C59.1341 31.608 60.7389 33.2895 60.7389 36.5527V46.9654H60.7449ZM48.282 15.4038C48.282 21.2246 48.807 23.0002 50.2508 23.0002C52.0525 23.0002 52.3806 20.4485 52.3806 15.3391C52.3806 10.3944 52.0227 7.93674 50.2806 7.93674C48.807 7.93674 48.282 9.68298 48.282 15.4038ZM81.2201 22.2594L81.8764 23.2295V23.7117H75.9701V23.2295L76.6263 22.2594V10.2651C76.6263 9.1009 76.2326 8.38947 75.3138 8.38947C74.1683 8.38947 73.2496 9.39488 73.2496 11.3293V22.2594L73.9058 23.2295V23.7117H67.9995V23.2295L68.6558 22.2594V10.2651C68.6558 9.1009 68.262 8.38947 67.3433 8.38947C66.1978 8.38947 65.2791 9.39488 65.2791 11.3293V22.2594L65.9353 23.2295V23.7117H60.029V23.2295L60.6853 22.2594V9.1009L60.029 8.32479V7.84267L64.754 7.28999H65.1478L65.2791 9.1009C65.8339 7.67804 67.212 6.90193 69.0853 6.90193C71.0839 6.90193 72.3964 7.87206 72.9871 9.6183C73.4763 7.93674 75.0215 6.90193 76.9902 6.90193C79.5795 6.90193 81.2201 8.58349 81.2201 11.8467V22.2594ZM75.0871 43.667C75.0871 46.4774 73.2496 48.8057 68.8228 48.8057C67.6774 48.8057 66.1322 48.6764 63.7398 48.2531V42.2441H65.0822L65.5058 43.5376C66.5558 46.8361 67.57 48.0649 69.1808 48.0649C70.6902 48.0649 71.6746 46.9948 71.6746 45.3485C71.6746 43.9904 70.9825 43.0555 69.3478 42.1795L66.5259 40.6919C64.7242 39.7218 63.7398 38.2049 63.7398 36.3293C63.7398 33.3895 66.0725 31.608 69.9385 31.608C71.0541 31.608 72.4979 31.7667 74.0729 32.0901V36.8114H72.7305L72.0385 35.0945C71.251 33.0249 70.4993 32.3488 69.2524 32.3488C67.91 32.3488 67.1225 33.1249 67.1225 34.4184C67.1225 35.5179 67.7788 36.2587 69.3836 37.1642L72.1697 38.7164C74.0669 39.7865 75.0871 41.3034 75.0871 43.667ZM96.314 22.2594L96.9703 23.2295V23.7117H91.9529L91.7262 21.8361C91.2012 23.2589 89.823 24.0997 88.0511 24.0997C85.4261 24.0997 83.7855 22.4828 83.7855 19.8311C83.7855 17.2441 85.2591 15.5332 89.7872 13.7869L91.7202 13.0461V10.6237C91.7202 8.48942 91.3265 7.61924 90.1154 7.61924C89.131 7.61924 88.5761 8.13665 87.6216 10.4944L86.5418 13.1461H85.0622V7.87794C87.0011 7.29586 88.9341 6.90781 90.6046 6.90781C94.3094 6.90781 96.314 8.65405 96.314 11.8231V22.2594ZM91.7202 19.543V13.9516L91.0998 14.2103C89.1668 14.9864 88.4449 16.7326 88.4449 19.2843C88.4449 21.1952 88.9043 22.2947 89.9841 22.2947C91.064 22.2947 91.7202 21.2599 91.7202 19.543ZM113.174 23.2295V23.7117H107.268V23.2295L107.924 22.2594V10.6178C107.924 9.22437 107.5 8.38947 106.48 8.38947C105.263 8.38947 104.38 9.39488 104.38 11.3645V22.2594L105.036 23.2295V23.7117H99.13V23.2295L99.7862 22.2594V9.1009L99.13 8.32479V7.84267L103.855 7.28999H104.249L104.38 9.1009C104.935 7.67804 106.283 6.90193 108.216 6.90193C110.907 6.90193 112.512 8.58349 112.512 11.8467V22.2594L113.174 23.2295Z" fill="white"/>
</svg>
