<svg width="96" height="95" viewBox="0 0 96 95" fill="none" xmlns="http://www.w3.org/2000/svg">
<g filter="url(#filter0_b_602_46363)">
<rect x="0.5" width="95" height="95" rx="20" fill="url(#paint0_linear_602_46363)"/>
<rect x="1.5" y="1" width="93" height="93" rx="19" stroke="url(#paint1_linear_602_46363)" stroke-width="2"/>
</g>
<path fill-rule="evenodd" clip-rule="evenodd" d="M48.5 67C59.5457 67 68.5 58.0457 68.5 47C68.5 35.9543 59.5457 27 48.5 27C37.4543 27 28.5 35.9543 28.5 47C28.5 58.0457 37.4543 67 48.5 67ZM49.6567 41.7249C47.7114 42.534 43.8235 44.2087 37.9931 46.7489C37.0464 47.1254 36.5504 47.4937 36.5053 47.8538C36.429 48.4625 37.1912 48.7022 38.2291 49.0285C38.3703 49.0729 38.5166 49.1189 38.6665 49.1677C39.6877 49.4996 41.0614 49.888 41.7755 49.9034C42.4232 49.9174 43.1462 49.6503 43.9444 49.1022C49.3919 45.425 52.204 43.5664 52.3805 43.5263C52.5051 43.498 52.6777 43.4625 52.7946 43.5664C52.9115 43.6704 52.9 43.8672 52.8877 43.92C52.8121 44.2419 49.8202 47.0235 48.2718 48.463C47.7892 48.9117 47.4468 49.23 47.3768 49.3027C47.22 49.4656 47.0602 49.6196 46.9066 49.7677C45.9579 50.6822 45.2465 51.368 46.946 52.488C47.7627 53.0262 48.4162 53.4712 49.0682 53.9152C49.7803 54.4001 50.4905 54.8838 51.4093 55.4861C51.6434 55.6396 51.867 55.799 52.0848 55.9542C52.9134 56.545 53.6579 57.0757 54.5776 56.9911C55.1121 56.9419 55.6641 56.4394 55.9444 54.9406C56.607 51.3986 57.9094 43.7241 58.2104 40.5616C58.2367 40.2846 58.2036 39.93 58.1769 39.7743C58.1503 39.6186 58.0946 39.3968 57.8923 39.2327C57.6526 39.0382 57.2827 38.9972 57.1173 39.0001C56.365 39.0134 55.2109 39.4147 49.6567 41.7249Z" fill="#FFD600"/>
<path fill-rule="evenodd" clip-rule="evenodd" d="M48.5 67C59.5457 67 68.5 58.0457 68.5 47C68.5 35.9543 59.5457 27 48.5 27C37.4543 27 28.5 35.9543 28.5 47C28.5 58.0457 37.4543 67 48.5 67ZM49.6567 41.7249C47.7114 42.534 43.8235 44.2087 37.9931 46.7489C37.0464 47.1254 36.5504 47.4937 36.5053 47.8538C36.429 48.4625 37.1912 48.7022 38.2291 49.0285C38.3703 49.0729 38.5166 49.1189 38.6665 49.1677C39.6877 49.4996 41.0614 49.888 41.7755 49.9034C42.4232 49.9174 43.1462 49.6503 43.9444 49.1022C49.3919 45.425 52.204 43.5664 52.3805 43.5263C52.5051 43.498 52.6777 43.4625 52.7946 43.5664C52.9115 43.6704 52.9 43.8672 52.8877 43.92C52.8121 44.2419 49.8202 47.0235 48.2718 48.463C47.7892 48.9117 47.4468 49.23 47.3768 49.3027C47.22 49.4656 47.0602 49.6196 46.9066 49.7677C45.9579 50.6822 45.2465 51.368 46.946 52.488C47.7627 53.0262 48.4162 53.4712 49.0682 53.9152C49.7803 54.4001 50.4905 54.8838 51.4093 55.4861C51.6434 55.6396 51.867 55.799 52.0848 55.9542C52.9134 56.545 53.6579 57.0757 54.5776 56.9911C55.1121 56.9419 55.6641 56.4394 55.9444 54.9406C56.607 51.3986 57.9094 43.7241 58.2104 40.5616C58.2367 40.2846 58.2036 39.93 58.1769 39.7743C58.1503 39.6186 58.0946 39.3968 57.8923 39.2327C57.6526 39.0382 57.2827 38.9972 57.1173 39.0001C56.365 39.0134 55.2109 39.4147 49.6567 41.7249Z" fill="#FFD600"/>
<defs>
<filter id="filter0_b_602_46363" x="-33.5" y="-34" width="163" height="163" filterUnits="userSpaceOnUse" color-interpolation-filters="sRGB">
<feFlood flood-opacity="0" result="BackgroundImageFix"/>
<feGaussianBlur in="BackgroundImageFix" stdDeviation="17"/>
<feComposite in2="SourceAlpha" operator="in" result="effect1_backgroundBlur_602_46363"/>
<feBlend mode="normal" in="SourceGraphic" in2="effect1_backgroundBlur_602_46363" result="shape"/>
</filter>
<linearGradient id="paint0_linear_602_46363" x1="0.5" y1="0" x2="103.657" y2="9.88673" gradientUnits="userSpaceOnUse">
<stop stop-color="#2B2B2B" stop-opacity="0.2"/>
<stop offset="0.515625" stop-color="#3C3C3C" stop-opacity="0.4"/>
<stop offset="1" stop-opacity="0.2"/>
</linearGradient>
<linearGradient id="paint1_linear_602_46363" x1="0.5" y1="0" x2="103.657" y2="9.88672" gradientUnits="userSpaceOnUse">
<stop stop-color="#FFD600" stop-opacity="0.6"/>
<stop offset="1" stop-color="#FFD600" stop-opacity="0.2"/>
</linearGradient>
</defs>
</svg>
