<svg width="50" height="50" viewBox="0 0 50 50" fill="none" xmlns="http://www.w3.org/2000/svg">
<circle opacity="0.5" cx="25" cy="25" r="25" fill="black" fill-opacity="0.1"/>
<g clip-path="url(#clip0_43_1326)">
<path d="M38.5 19.5323L32.0505 21.8306L32.4344 22.5985C32.9809 23.6928 32.4542 25.0443 31.0393 25.4377C31.0215 25.4436 29.0617 25.9697 28.4665 24.187L27.8928 22.4638L29.5253 20.8306L25.497 14.7891L21.4688 20.8306L23.1012 22.4638L22.5276 24.187C22.1563 25.2993 21.3594 25.6743 19.9472 25.4057C19.793 25.3306 18.9877 25.2957 18.5321 24.3038C18.2806 23.7577 18.291 23.1364 18.5596 22.5985L18.9428 21.8313L12.5 19.5315L15.3745 30.6385H22.134L25.497 27.2755L28.8601 30.6385H35.6211L38.5 19.5323Z" fill="#FFD600"/>
<path d="M23.5234 31.3984L25.4933 29.4285L27.4633 31.3984L25.4933 33.3683L23.5234 31.3984Z" fill="#FFD600"/>
<path d="M22.1353 32.1641H15.5938V35.2116H25.1829L22.1353 32.1641Z" fill="#FFD600"/>
<path d="M35.4016 32.1641H28.8601L25.8125 35.2116H35.4016V32.1641Z" fill="#FFD600"/>
</g>
<defs>
<clipPath id="clip0_43_1326">
<rect width="26" height="26" fill="white" transform="translate(12.5 12)"/>
</clipPath>
</defs>
</svg>
