<svg width="181" height="181" viewBox="0 0 181 181" fill="none" xmlns="http://www.w3.org/2000/svg">
<g filter="url(#filter0_b_47_1391)">
<rect width="180.189" height="180.189" rx="27.0283" fill="#0E389B"/>
<rect x="0.900943" y="0.900943" width="178.387" height="178.387" rx="26.1274" stroke="url(#paint0_linear_47_1391)" stroke-width="1.80189"/>
</g>
<path d="M65.0318 86.3439C64.356 85.149 63.6803 83.9541 62.9174 82.5551C62.5254 81.8454 62.2205 81.3398 61.9156 80.8343C61.2215 79.1762 60.5513 77.5077 59.8183 75.8665C59.6029 75.3843 59.2094 74.9798 58.8286 74.4382C58.3977 71.6512 58.0357 68.9656 57.6079 66.1604C57.3759 64.0003 57.2098 61.9599 57.0176 59.7658C56.9968 59.2467 57.002 58.8813 57.0055 58.2715C56.9419 57.7431 56.8802 57.4589 56.8185 57.1748C56.8185 57.1748 56.8315 57.0192 56.817 56.8155C56.7902 56.3531 56.7779 56.0945 56.7656 55.8358C56.8311 54.1139 56.8965 52.3919 56.9253 50.5188C56.9088 50.1098 56.9289 49.8521 56.9548 49.3576C56.9393 48.9661 56.9181 48.8114 56.8968 48.6566C56.8937 48.2717 56.8905 47.8868 56.9056 47.2907C56.941 46.8052 56.9582 46.5309 56.9753 46.2565C56.9962 45.5577 57.017 44.8588 57.0411 43.8609C57.0593 42.7531 57.0743 41.9443 57.2485 41.1297C59.2549 41.0005 61.102 40.8771 63.1014 40.7713C68.375 40.4418 73.321 39.3376 77.9609 37.1551C79.859 36.2622 81.5949 35.0325 83.5144 33.9494C84.9488 33.1636 86.4566 32.5762 87.5505 31.5557C88.8479 30.3455 89.8125 30.2739 91.0138 31.6489C91.6391 32.119 92.2004 32.495 92.8282 32.9595C93.4188 33.395 93.9429 33.7419 94.5761 34.1592C95.6455 34.7232 96.6058 35.2168 97.6387 35.8092C99.4078 36.6126 101.104 37.3171 102.906 38.0951C105.112 38.7646 107.214 39.3606 109.316 39.9566C111.317 40.2412 113.318 40.5258 115.47 40.7866C117.494 40.9433 119.366 41.1238 121.544 41.3337C121.544 43.8357 121.544 46.4326 121.576 49.1873C121.6 49.9316 121.592 50.5181 121.58 51.3836C121.596 52.0323 121.615 52.402 121.634 52.7717C121.614 53.1359 121.594 53.5002 121.573 54.1433C121.591 55.0134 121.609 55.6045 121.628 56.1956C121.01 61.49 120.513 66.8023 119.716 72.0701C119.383 74.2692 118.409 76.3737 117.697 78.6168C116.12 77.1245 114.723 75.8028 113.173 74.308C112.867 73.6828 112.479 73.1588 112.595 72.7899C114.101 68.0112 114.603 63.0882 114.751 58.128C114.86 54.4527 114.772 50.7717 114.772 47.1594C111.951 46.7248 109.455 46.3402 106.836 45.9034C104.072 45.0506 101.431 44.2501 98.7041 43.3574C96.5639 42.2772 94.5101 41.2891 92.3943 40.2228C92.0342 40.0005 91.7361 39.8564 91.3696 39.6132C89.0803 38.0934 89.0803 38.0934 87.7305 39.7067C85.1494 40.9603 82.7034 42.2151 80.1205 43.4843C79.7024 43.5424 79.4049 43.5416 79.1428 43.6363C74.5141 45.3089 69.7925 46.5656 64.8592 47.0073C64.4388 47.0449 63.8046 47.8475 63.7618 48.3367C63.6238 49.916 63.7158 51.5149 63.6964 53.2206C63.6874 53.489 63.7011 53.643 63.6953 53.9386C63.6951 54.5543 63.7145 55.0285 63.7115 55.6172C63.7034 55.8861 63.7176 56.0403 63.7086 56.3135C63.7598 57.1683 63.8343 57.9041 63.9121 58.7946C64.063 60.8865 64.2107 62.8237 64.3379 64.8442C64.3268 64.984 64.3362 65.0403 64.3365 65.2396C65.1307 68.4832 65.9341 71.584 66.7512 74.8111C67.3005 76.0055 67.836 77.0737 68.4261 78.2566C69.1735 79.5402 69.8663 80.7091 70.5833 81.9849C70.9233 82.4839 71.2393 82.8759 71.6026 83.3779C72.2332 84.0512 72.5008 84.5426 71.7993 85.3095C70.7308 86.4776 69.8128 87.78 68.6995 89.0547C67.9764 88.7785 67.3847 88.473 66.783 88.0581C66.1926 87.4138 65.6122 86.8789 65.0318 86.3439Z" fill="white"/>
<path d="M86.1505 95.2297C86.9968 95.9938 87.8431 96.7579 88.7905 97.6133C92.1029 94.4403 95.3712 91.3134 98.6351 88.182C101.825 85.1214 105.005 82.0504 108.206 79.0011C108.551 78.6729 109.006 78.4586 109.522 78.2344C111.031 79.755 112.427 81.2328 113.665 82.5428C111.321 84.969 108.99 87.3825 106.613 89.8982C101.182 95.1313 95.8036 100.269 90.3983 105.38C89.9558 105.798 89.3319 106.029 88.6874 106.311C84.6631 103.039 80.7438 99.8043 76.7085 96.5502C75.3219 95.2298 74.0513 93.9286 72.6875 92.5321C74.0317 90.9746 75.4374 89.3457 76.937 87.6081C77.9042 88.4207 78.8081 89.1802 79.888 90.0731C82.0929 91.8809 84.1217 93.5553 86.1505 95.2297Z" fill="white"/>
<path d="M58.6361 144.108C60.4162 144.13 62.1004 144.306 63.7218 144.069C65.1421 143.862 66.1946 142.876 66.4234 141.368C66.6671 139.762 66.2082 138.349 64.726 137.499C63.6397 136.876 62.446 136.427 61.284 135.937C60.2116 135.486 59.0856 135.147 58.039 134.647C54.7105 133.057 53.4764 130.809 53.9062 127.268C54.234 124.569 56.3979 122.462 59.5824 121.742C63.4698 120.862 67.4823 122.139 69.6926 124.907C68.9475 125.648 68.2076 126.383 67.3722 127.212C65.5704 125.318 63.2723 124.287 60.4171 124.903C58.9238 125.225 57.7702 125.909 57.4495 127.516C57.1446 129.043 57.6522 130.264 59.221 131.145C60.3585 131.783 61.618 132.213 62.8273 132.727C64.0367 133.241 65.2985 133.658 66.4543 134.268C69.3007 135.771 70.3325 138.279 70.0369 141.293C69.7387 144.334 67.9395 146.271 64.9664 147.178C60.0221 148.685 54.9401 147.185 52.2578 143.365C53.0151 142.673 53.7825 141.972 54.3877 141.419C55.7683 142.31 57.1406 143.197 58.6361 144.108Z" fill="white"/>
<path d="M86.2213 131.061C86.6179 131.37 86.9284 131.602 87.3519 131.918C87.4239 131.193 87.4811 130.616 87.5452 129.969C88.6405 129.969 89.685 129.969 90.811 129.969C90.811 135.746 90.811 141.46 90.811 147.274C89.7336 147.274 88.687 147.274 87.5701 147.274C87.4994 146.728 87.4245 146.149 87.3176 145.323C85.0614 147.432 82.533 148.121 79.654 147.515C77.6229 147.087 75.9982 146.04 74.7442 144.441C71.9808 140.92 72.1986 135.525 75.217 132.281C78.1463 129.132 82.3693 128.631 86.2213 131.061ZM80.8341 144.427C84.3161 144.904 86.844 143.328 87.5013 140.27C88.2323 136.87 86.7046 133.816 83.8437 132.96C80.7358 132.03 77.6619 133.49 76.6866 136.359C75.4637 139.956 77.0419 143.213 80.8341 144.427Z" fill="white"/>
<path d="M124.766 139.883C120.455 139.883 116.287 139.883 112.009 139.883C112.326 141.959 113.411 143.376 115.225 144.052C117.953 145.069 120.532 144.688 122.686 142.69C123.381 143.382 124.045 144.043 124.832 144.827C122.685 147.178 119.82 148.002 116.594 147.636C111.098 147.012 107.7 142.273 108.651 136.723C109.491 131.822 114.642 128.611 119.823 129.758C123.802 130.639 126.836 135.14 125.995 139.025C125.92 139.371 125.284 139.6 124.766 139.883ZM118.872 132.727C115.103 132.235 112.468 133.888 112.125 137.016C115.633 137.016 119.133 137.016 122.722 137.016C122.369 134.788 121.24 133.369 118.872 132.727Z" fill="white"/>
<path d="M98.2455 135.143C98.2454 134.358 98.2454 133.721 98.2454 132.959C96.7517 132.959 95.3966 132.959 93.9531 132.959C93.9531 131.91 93.9531 130.988 93.9531 129.935C95.3494 129.935 96.7082 129.935 98.2528 129.935C98.2528 128.825 98.2242 127.839 98.2583 126.856C98.3476 124.285 99.9467 122.092 102.334 121.221C105.097 120.213 107.675 120.749 109.652 122.798C108.962 123.432 108.27 124.069 107.573 124.71C106.961 124.462 106.339 124.103 105.669 123.958C103.475 123.484 101.794 124.721 101.643 126.897C101.578 127.835 101.632 128.78 101.632 129.89C103.53 129.89 105.333 129.89 107.188 129.89C107.188 130.979 107.188 131.896 107.188 132.926C105.324 132.926 103.557 132.926 101.621 132.926C101.621 135.419 101.621 137.801 101.621 140.184C101.621 142.523 101.621 144.862 101.621 147.287C100.473 147.287 99.4359 147.287 98.2455 147.287C98.2455 143.255 98.2455 139.273 98.2455 135.143Z" fill="white"/>
<defs>
<filter id="filter0_b_47_1391" x="-252.264" y="-252.264" width="684.716" height="684.718" filterUnits="userSpaceOnUse" color-interpolation-filters="sRGB">
<feFlood flood-opacity="0" result="BackgroundImageFix"/>
<feGaussianBlur in="BackgroundImageFix" stdDeviation="126.132"/>
<feComposite in2="SourceAlpha" operator="in" result="effect1_backgroundBlur_47_1391"/>
<feBlend mode="normal" in="SourceGraphic" in2="effect1_backgroundBlur_47_1391" result="shape"/>
</filter>
<linearGradient id="paint0_linear_47_1391" x1="14.4151" y1="-3.79125e-06" x2="162.17" y2="180.189" gradientUnits="userSpaceOnUse">
<stop stop-color="white" stop-opacity="0.03"/>
<stop offset="1" stop-color="white" stop-opacity="0.4"/>
</linearGradient>
</defs>
</svg>
