<svg width="117" height="117" viewBox="0 0 117 117" fill="none" xmlns="http://www.w3.org/2000/svg">
<path d="M77.7526 43.9946V34.3281H68.0859" stroke="#FFD600" stroke-width="4.8377" stroke-linecap="round" stroke-linejoin="round"/>
<path d="M77.7526 43.9946V34.3281H68.0859" stroke="#FFD600" stroke-width="4.8377" stroke-linecap="round" stroke-linejoin="round"/>
<path fill-rule="evenodd" clip-rule="evenodd" d="M28.3515 14.998H88.4975C93.2438 14.998 97.0911 19.3238 97.0911 24.6645V92.33C97.0911 97.6707 93.2438 101.996 88.4975 101.996H28.3515C23.6051 101.996 19.7578 97.6707 19.7578 92.33V24.6645C19.7578 19.3238 23.6051 14.998 28.3515 14.998Z" stroke="#FFD600" stroke-width="4.8377" stroke-linecap="round" stroke-linejoin="round"/>
<path fill-rule="evenodd" clip-rule="evenodd" d="M28.3515 14.998H88.4975C93.2438 14.998 97.0911 19.3238 97.0911 24.6645V92.33C97.0911 97.6707 93.2438 101.996 88.4975 101.996H28.3515C23.6051 101.996 19.7578 97.6707 19.7578 92.33V24.6645C19.7578 19.3238 23.6051 14.998 28.3515 14.998Z" stroke="#FFD600" stroke-width="4.8377" stroke-linecap="round" stroke-linejoin="round"/>
<path d="M39.0938 65.7447H77.7604" stroke="#FFD600" stroke-width="4.8377" stroke-linecap="round" stroke-linejoin="round"/>
<path d="M39.0938 65.7447H77.7604" stroke="#FFD600" stroke-width="4.8377" stroke-linecap="round" stroke-linejoin="round"/>
<path d="M39.0938 82.6608H58.4271" stroke="#FFD600" stroke-width="4.8377" stroke-linecap="round" stroke-linejoin="round"/>
<path d="M39.0938 82.6608H58.4271" stroke="#FFD600" stroke-width="4.8377" stroke-linecap="round" stroke-linejoin="round"/>
<path d="M77.7604 34.3281L63.2604 48.8279L50.1428 39.1614L39.0938 48.8279" stroke="#FFD600" stroke-width="4.8377" stroke-linecap="round" stroke-linejoin="round"/>
<path d="M77.7604 34.3281L63.2604 48.8279L50.1428 39.1614L39.0938 48.8279" stroke="#FFD600" stroke-width="4.8377" stroke-linecap="round" stroke-linejoin="round"/>
</svg>
