<svg width="96" height="95" viewBox="0 0 96 95" fill="none" xmlns="http://www.w3.org/2000/svg">
<g filter="url(#filter0_b_602_46356)">
<rect x="0.5" width="95" height="95" rx="20" fill="url(#paint0_linear_602_46356)"/>
<rect x="1.5" y="1" width="93" height="93" rx="19" stroke="url(#paint1_linear_602_46356)" stroke-width="2"/>
</g>
<path fill-rule="evenodd" clip-rule="evenodd" d="M28.5 47C28.5 37.5719 28.5 32.8579 31.4289 29.9289C34.3579 27 39.0719 27 48.5 27C57.9281 27 62.6421 27 65.5711 29.9289C68.5 32.8579 68.5 37.5719 68.5 47C68.5 56.4281 68.5 61.1421 65.5711 64.0711C62.6421 67 57.9281 67 48.5 67C39.0719 67 34.3579 67 31.4289 64.0711C28.5 61.1421 28.5 56.4281 28.5 47ZM58.4525 39.7956C59.7767 39.7956 60.8502 38.722 60.8502 37.3978C60.8502 36.0735 59.7767 35 58.4525 35C57.1282 35 56.0547 36.0735 56.0547 37.3978C56.0547 38.722 57.1282 39.7956 58.4525 39.7956ZM37.5 48.0845C37.5 42.4076 42.105 37.8105 47.7739 37.8105C53.4508 37.8105 58.0478 42.4076 58.0478 48.0845C58.0478 53.7613 53.4508 58.3584 47.7739 58.3584C42.0971 58.3584 37.5 53.7613 37.5 48.0845ZM41.1046 48.0765C41.1046 51.7605 44.0899 54.7458 47.7739 54.7458C51.4579 54.7458 54.4432 51.7605 54.4432 48.0765C54.4432 44.3925 51.4579 41.4072 47.7739 41.4072C44.0899 41.4072 41.1046 44.3925 41.1046 48.0765Z" fill="#FFD600"/>
<path fill-rule="evenodd" clip-rule="evenodd" d="M28.5 47C28.5 37.5719 28.5 32.8579 31.4289 29.9289C34.3579 27 39.0719 27 48.5 27C57.9281 27 62.6421 27 65.5711 29.9289C68.5 32.8579 68.5 37.5719 68.5 47C68.5 56.4281 68.5 61.1421 65.5711 64.0711C62.6421 67 57.9281 67 48.5 67C39.0719 67 34.3579 67 31.4289 64.0711C28.5 61.1421 28.5 56.4281 28.5 47ZM58.4525 39.7956C59.7767 39.7956 60.8502 38.722 60.8502 37.3978C60.8502 36.0735 59.7767 35 58.4525 35C57.1282 35 56.0547 36.0735 56.0547 37.3978C56.0547 38.722 57.1282 39.7956 58.4525 39.7956ZM37.5 48.0845C37.5 42.4076 42.105 37.8105 47.7739 37.8105C53.4508 37.8105 58.0478 42.4076 58.0478 48.0845C58.0478 53.7613 53.4508 58.3584 47.7739 58.3584C42.0971 58.3584 37.5 53.7613 37.5 48.0845ZM41.1046 48.0765C41.1046 51.7605 44.0899 54.7458 47.7739 54.7458C51.4579 54.7458 54.4432 51.7605 54.4432 48.0765C54.4432 44.3925 51.4579 41.4072 47.7739 41.4072C44.0899 41.4072 41.1046 44.3925 41.1046 48.0765Z" fill="#FFD600"/>
<defs>
<filter id="filter0_b_602_46356" x="-33.5" y="-34" width="163" height="163" filterUnits="userSpaceOnUse" color-interpolation-filters="sRGB">
<feFlood flood-opacity="0" result="BackgroundImageFix"/>
<feGaussianBlur in="BackgroundImageFix" stdDeviation="17"/>
<feComposite in2="SourceAlpha" operator="in" result="effect1_backgroundBlur_602_46356"/>
<feBlend mode="normal" in="SourceGraphic" in2="effect1_backgroundBlur_602_46356" result="shape"/>
</filter>
<linearGradient id="paint0_linear_602_46356" x1="0.5" y1="0" x2="103.657" y2="9.88673" gradientUnits="userSpaceOnUse">
<stop stop-color="#2B2B2B" stop-opacity="0.2"/>
<stop offset="0.515625" stop-color="#3C3C3C" stop-opacity="0.4"/>
<stop offset="1" stop-opacity="0.2"/>
</linearGradient>
<linearGradient id="paint1_linear_602_46356" x1="0.5" y1="0" x2="103.657" y2="9.88672" gradientUnits="userSpaceOnUse">
<stop stop-color="#FFD600" stop-opacity="0.6"/>
<stop offset="1" stop-color="#FFD600" stop-opacity="0.2"/>
</linearGradient>
</defs>
</svg>
