<svg width="116" height="117" viewBox="0 0 116 117" fill="none" xmlns="http://www.w3.org/2000/svg">
<path d="M98.4597 18.4514C103.062 23.0532 103.062 30.5141 98.4597 35.116C93.8579 39.7178 86.3969 39.7178 81.7951 35.116C77.1933 30.5142 77.1933 23.0532 81.7951 18.4514C86.3969 13.8495 93.8579 13.8495 98.4597 18.4514" stroke="#FFD600" stroke-width="4.83333" stroke-linecap="round" stroke-linejoin="round"/>
<path d="M98.4597 18.4514C103.062 23.0532 103.062 30.5141 98.4597 35.116C93.8579 39.7178 86.3969 39.7178 81.7951 35.116C77.1933 30.5142 77.1933 23.0532 81.7951 18.4514C86.3969 13.8495 93.8579 13.8495 98.4597 18.4514" stroke="#FFD600" stroke-width="4.83333" stroke-linecap="round" stroke-linejoin="round"/>
<path d="M101.499 49.7991C100.841 44.9464 99.261 40.4127 97.0376 36.2754" stroke="#FFD600" stroke-width="4.83333" stroke-linecap="round" stroke-linejoin="round"/>
<path d="M101.499 49.7991C100.841 44.9464 99.261 40.4127 97.0376 36.2754" stroke="#FFD600" stroke-width="4.83333" stroke-linecap="round" stroke-linejoin="round"/>
<path d="M80.6487 19.8738C76.5113 17.6505 71.9777 16.07 67.125 15.4126" stroke="#FFD600" stroke-width="4.83333" stroke-linecap="round" stroke-linejoin="round"/>
<path d="M80.6487 19.8738C76.5113 17.6505 71.9777 16.07 67.125 15.4126" stroke="#FFD600" stroke-width="4.83333" stroke-linecap="round" stroke-linejoin="round"/>
<path d="M35.0222 81.881C39.624 86.4828 39.624 93.9438 35.0222 98.5457C30.4204 103.147 22.9594 103.147 18.3576 98.5457C13.7558 93.9438 13.7558 86.4829 18.3576 81.881C22.9594 77.2792 30.4204 77.2792 35.0222 81.881" stroke="#FFD600" stroke-width="4.83333" stroke-linecap="round" stroke-linejoin="round"/>
<path d="M35.0222 81.881C39.624 86.4828 39.624 93.9438 35.0222 98.5457C30.4204 103.147 22.9594 103.147 18.3576 98.5457C13.7558 93.9438 13.7558 86.4829 18.3576 81.881C22.9594 77.2792 30.4204 77.2792 35.0222 81.881" stroke="#FFD600" stroke-width="4.83333" stroke-linecap="round" stroke-linejoin="round"/>
<path d="M15.3267 67.1953C15.984 72.048 17.5645 76.5816 19.7879 80.719" stroke="#FFD600" stroke-width="4.83333" stroke-linecap="round" stroke-linejoin="round"/>
<path d="M15.3267 67.1953C15.984 72.048 17.5645 76.5816 19.7879 80.719" stroke="#FFD600" stroke-width="4.83333" stroke-linecap="round" stroke-linejoin="round"/>
<path d="M49.7034 101.589C44.8507 100.931 40.317 99.3508 36.1797 97.1275" stroke="#FFD600" stroke-width="4.83333" stroke-linecap="round" stroke-linejoin="round"/>
<path d="M49.7034 101.589C44.8507 100.931 40.317 99.3508 36.1797 97.1275" stroke="#FFD600" stroke-width="4.83333" stroke-linecap="round" stroke-linejoin="round"/>
<path d="M35.0222 18.4514C39.624 23.0532 39.624 30.5141 35.0222 35.116C30.4204 39.7178 22.9594 39.7178 18.3576 35.116C13.7558 30.5142 13.7558 23.0532 18.3576 18.4514C22.9594 13.8495 30.4204 13.8495 35.0222 18.4514" stroke="#FFD600" stroke-width="4.83333" stroke-linecap="round" stroke-linejoin="round"/>
<path d="M35.0222 18.4514C39.624 23.0532 39.624 30.5141 35.0222 35.116C30.4204 39.7178 22.9594 39.7178 18.3576 35.116C13.7558 30.5142 13.7558 23.0532 18.3576 18.4514C22.9594 13.8495 30.4204 13.8495 35.0222 18.4514" stroke="#FFD600" stroke-width="4.83333" stroke-linecap="round" stroke-linejoin="round"/>
<path d="M36.1797 19.8684C40.317 17.6451 44.8507 16.0598 49.7034 15.4024" stroke="#FFD600" stroke-width="4.83333" stroke-linecap="round" stroke-linejoin="round"/>
<path d="M36.1797 19.8684C40.317 17.6451 44.8507 16.0598 49.7034 15.4024" stroke="#FFD600" stroke-width="4.83333" stroke-linecap="round" stroke-linejoin="round"/>
<path d="M19.7879 36.2754C17.5645 40.4127 15.984 44.9464 15.3267 49.7991" stroke="#FFD600" stroke-width="4.83333" stroke-linecap="round" stroke-linejoin="round"/>
<path d="M19.7879 36.2754C17.5645 40.4127 15.984 44.9464 15.3267 49.7991" stroke="#FFD600" stroke-width="4.83333" stroke-linecap="round" stroke-linejoin="round"/>
<path d="M98.4597 81.881C103.062 86.4828 103.062 93.9438 98.4597 98.5457C93.8579 103.147 86.3969 103.147 81.7951 98.5457C77.1933 93.9438 77.1933 86.4829 81.7951 81.881C86.3969 77.2792 93.8579 77.2792 98.4597 81.881" stroke="#FFD600" stroke-width="4.83333" stroke-linecap="round" stroke-linejoin="round"/>
<path d="M98.4597 81.881C103.062 86.4828 103.062 93.9438 98.4597 98.5457C93.8579 103.147 86.3969 103.147 81.7951 98.5457C77.1933 93.9438 77.1933 86.4829 81.7951 81.881C86.3969 77.2792 93.8579 77.2792 98.4597 81.881" stroke="#FFD600" stroke-width="4.83333" stroke-linecap="round" stroke-linejoin="round"/>
<path d="M97.0376 80.719C99.261 76.5816 100.841 72.048 101.499 67.1953" stroke="#FFD600" stroke-width="4.83333" stroke-linecap="round" stroke-linejoin="round"/>
<path d="M97.0376 80.719C99.261 76.5816 100.841 72.048 101.499 67.1953" stroke="#FFD600" stroke-width="4.83333" stroke-linecap="round" stroke-linejoin="round"/>
<path d="M80.6487 97.1275C76.5113 99.3508 71.9777 100.931 67.125 101.589" stroke="#FFD600" stroke-width="4.83333" stroke-linecap="round" stroke-linejoin="round"/>
<path d="M80.6487 97.1275C76.5113 99.3508 71.9777 100.931 67.125 101.589" stroke="#FFD600" stroke-width="4.83333" stroke-linecap="round" stroke-linejoin="round"/>
<path fill-rule="evenodd" clip-rule="evenodd" d="M58.4063 39.168L77.7399 58.5016L58.4062 77.8353L39.0726 58.5016L58.4063 39.168Z" stroke="#FFD600" stroke-width="4.83329" stroke-linecap="round" stroke-linejoin="round"/>
<path fill-rule="evenodd" clip-rule="evenodd" d="M58.4063 39.168L77.7399 58.5016L58.4062 77.8353L39.0726 58.5016L58.4063 39.168Z" stroke="#FFD600" stroke-width="4.83329" stroke-linecap="round" stroke-linejoin="round"/>
</svg>
