<svg width="50" height="50" viewBox="0 0 50 50" fill="none" xmlns="http://www.w3.org/2000/svg">
<circle opacity="0.5" cx="25" cy="25" r="25" fill="black" fill-opacity="0.2"/>
<path d="M23.0703 32.0076L23.1893 32.3526C23.6013 33.5496 24.9053 34.1856 26.1023 33.7736V33.7736C27.2993 33.3616 27.9353 32.0576 27.5233 30.8606L27.4043 30.5156" stroke="#FFD600" stroke-width="1.5" stroke-linecap="round" stroke-linejoin="round"/>
<path d="M24.4842 18.2022L24.1852 17.3342C23.8552 16.3772 22.8122 15.8682 21.8542 16.1982V16.1982C20.8972 16.5282 20.3882 17.5712 20.7172 18.5282L21.0162 19.3962" stroke="#FFD600" stroke-width="1.5" stroke-linecap="round" stroke-linejoin="round"/>
<path fill-rule="evenodd" clip-rule="evenodd" d="M19.0529 24.7623V24.7623C18.2379 22.3963 19.4959 19.8173 21.8619 19.0023L23.5759 18.4123C25.9419 17.5973 28.5209 18.8553 29.3359 21.2213V21.2213L30.2459 23.8653C30.4189 24.3673 30.7839 24.7793 31.2599 25.0113L32.0749 25.4083C32.5519 25.6413 32.9169 26.0533 33.0889 26.5543V26.5543C33.4289 27.5413 32.9039 28.6173 31.9169 28.9573L21.7819 32.4473C20.7949 32.7873 19.7189 32.2623 19.3789 31.2753V31.2753C19.2059 30.7733 19.2399 30.2243 19.4719 29.7473L19.8689 28.9323C20.1019 28.4553 20.1349 27.9063 19.9619 27.4043L19.0529 24.7623Z" stroke="#FFD600" stroke-width="1.5" stroke-linecap="round" stroke-linejoin="round"/>
</svg>
