<svg width="96" height="95" viewBox="0 0 96 95" fill="none" xmlns="http://www.w3.org/2000/svg">
<g filter="url(#filter0_b_602_46369)">
<rect x="0.5" width="95" height="95" rx="20" fill="url(#paint0_linear_602_46369)"/>
<rect x="1.5" y="1" width="93" height="93" rx="19" stroke="url(#paint1_linear_602_46369)" stroke-width="2"/>
</g>
<g clip-path="url(#clip0_602_46369)">
<g clip-path="url(#clip1_602_46369)">
<path d="M65.5472 27H31.4528C30.6697 27 29.9186 27.3111 29.3648 27.8648C28.8111 28.4186 28.5 29.1697 28.5 29.9528V64.0472C28.5 64.8303 28.8111 65.5814 29.3648 66.1352C29.9186 66.6889 30.6697 67 31.4528 67H65.5472C66.3303 67 67.0814 66.6889 67.6352 66.1352C68.1889 65.5814 68.5 64.8303 68.5 64.0472V29.9528C68.5 29.1697 68.1889 28.4186 67.6352 27.8648C67.0814 27.3111 66.3303 27 65.5472 27ZM40.4222 61.075H34.4083V41.9722H40.4222V61.075ZM37.4111 39.325C36.7289 39.3212 36.0632 39.1153 35.4979 38.7335C34.9326 38.3516 34.4931 37.8109 34.2348 37.1795C33.9765 36.5481 33.9111 35.8543 34.0467 35.1858C34.1824 34.5172 34.513 33.9038 34.9969 33.423C35.4808 32.9421 36.0964 32.6154 36.7658 32.4841C37.4352 32.3528 38.1285 32.4227 38.7583 32.685C39.388 32.9473 39.9259 33.3903 40.3041 33.958C40.6823 34.5258 40.8839 35.1928 40.8833 35.875C40.8898 36.3317 40.8042 36.7851 40.6317 37.208C40.4592 37.6309 40.2033 38.0148 39.8793 38.3368C39.5553 38.6587 39.1697 38.9121 38.7457 39.0819C38.3217 39.2517 37.8678 39.3344 37.4111 39.325ZM62.5889 61.0917H56.5778V50.6556C56.5778 47.5778 55.2694 46.6278 53.5806 46.6278C51.7972 46.6278 50.0472 47.9722 50.0472 50.7333V61.0917H44.0333V41.9861H49.8167V44.6333H49.8944C50.475 43.4583 52.5083 41.45 55.6111 41.45C58.9667 41.45 62.5917 43.4417 62.5917 49.275L62.5889 61.0917Z" fill="#FFD600"/>
<path d="M65.5472 27H31.4528C30.6697 27 29.9186 27.3111 29.3648 27.8648C28.8111 28.4186 28.5 29.1697 28.5 29.9528V64.0472C28.5 64.8303 28.8111 65.5814 29.3648 66.1352C29.9186 66.6889 30.6697 67 31.4528 67H65.5472C66.3303 67 67.0814 66.6889 67.6352 66.1352C68.1889 65.5814 68.5 64.8303 68.5 64.0472V29.9528C68.5 29.1697 68.1889 28.4186 67.6352 27.8648C67.0814 27.3111 66.3303 27 65.5472 27ZM40.4222 61.075H34.4083V41.9722H40.4222V61.075ZM37.4111 39.325C36.7289 39.3212 36.0632 39.1153 35.4979 38.7335C34.9326 38.3516 34.4931 37.8109 34.2348 37.1795C33.9765 36.5481 33.9111 35.8543 34.0467 35.1858C34.1824 34.5172 34.513 33.9038 34.9969 33.423C35.4808 32.9421 36.0964 32.6154 36.7658 32.4841C37.4352 32.3528 38.1285 32.4227 38.7583 32.685C39.388 32.9473 39.9259 33.3903 40.3041 33.958C40.6823 34.5258 40.8839 35.1928 40.8833 35.875C40.8898 36.3317 40.8042 36.7851 40.6317 37.208C40.4592 37.6309 40.2033 38.0148 39.8793 38.3368C39.5553 38.6587 39.1697 38.9121 38.7457 39.0819C38.3217 39.2517 37.8678 39.3344 37.4111 39.325ZM62.5889 61.0917H56.5778V50.6556C56.5778 47.5778 55.2694 46.6278 53.5806 46.6278C51.7972 46.6278 50.0472 47.9722 50.0472 50.7333V61.0917H44.0333V41.9861H49.8167V44.6333H49.8944C50.475 43.4583 52.5083 41.45 55.6111 41.45C58.9667 41.45 62.5917 43.4417 62.5917 49.275L62.5889 61.0917Z" fill="#FFD600"/>
</g>
</g>
<defs>
<filter id="filter0_b_602_46369" x="-33.5" y="-34" width="163" height="163" filterUnits="userSpaceOnUse" color-interpolation-filters="sRGB">
<feFlood flood-opacity="0" result="BackgroundImageFix"/>
<feGaussianBlur in="BackgroundImageFix" stdDeviation="17"/>
<feComposite in2="SourceAlpha" operator="in" result="effect1_backgroundBlur_602_46369"/>
<feBlend mode="normal" in="SourceGraphic" in2="effect1_backgroundBlur_602_46369" result="shape"/>
</filter>
<linearGradient id="paint0_linear_602_46369" x1="0.5" y1="0" x2="103.657" y2="9.88673" gradientUnits="userSpaceOnUse">
<stop stop-color="#2B2B2B" stop-opacity="0.2"/>
<stop offset="0.515625" stop-color="#3C3C3C" stop-opacity="0.4"/>
<stop offset="1" stop-opacity="0.2"/>
</linearGradient>
<linearGradient id="paint1_linear_602_46369" x1="0.5" y1="0" x2="103.657" y2="9.88672" gradientUnits="userSpaceOnUse">
<stop stop-color="#FFD600" stop-opacity="0.6"/>
<stop offset="1" stop-color="#FFD600" stop-opacity="0.2"/>
</linearGradient>
<clipPath id="clip0_602_46369">
<rect x="28.5" y="27" width="40" height="40" rx="10" fill="white"/>
</clipPath>
<clipPath id="clip1_602_46369">
<rect width="40" height="40" fill="white" transform="translate(28.5 27)"/>
</clipPath>
</defs>
</svg>
