<svg width="116" height="116" viewBox="0 0 116 116" fill="none" xmlns="http://www.w3.org/2000/svg">
<path d="M30.0153 66.6973L14.9062 82.1639L26.9896 89.4139L34.2396 101.497L53.0848 81.7048" stroke="#FFD600" stroke-width="4.83333" stroke-linecap="round" stroke-linejoin="round"/>
<path d="M30.0153 66.6973L14.9062 82.1639L26.9896 89.4139L34.2396 101.497L53.0848 81.7048" stroke="#FFD600" stroke-width="4.83333" stroke-linecap="round" stroke-linejoin="round"/>
<path d="M63.7188 81.7048L82.5639 101.497L89.8139 89.4139L101.897 82.1639L86.7883 66.6973" stroke="#FFD600" stroke-width="4.83333" stroke-linecap="round" stroke-linejoin="round"/>
<path d="M63.7188 81.7048L82.5639 101.497L89.8139 89.4139L101.897 82.1639L86.7883 66.6973" stroke="#FFD600" stroke-width="4.83333" stroke-linecap="round" stroke-linejoin="round"/>
<path d="M82.3274 24.4096C95.5401 37.6223 95.5401 59.0443 82.3274 72.2571C69.1147 85.4698 47.6926 85.4698 34.4799 72.2571C21.2671 59.0443 21.2671 37.6223 34.4799 24.4096C47.6926 11.1968 69.1147 11.1968 82.3274 24.4096" stroke="#FFD600" stroke-width="4.83333" stroke-linecap="round" stroke-linejoin="round"/>
<path d="M82.3274 24.4096C95.5401 37.6223 95.5401 59.0443 82.3274 72.2571C69.1147 85.4698 47.6926 85.4698 34.4799 72.2571C21.2671 59.0443 21.2671 37.6223 34.4799 24.4096C47.6926 11.1968 69.1147 11.1968 82.3274 24.4096" stroke="#FFD600" stroke-width="4.83333" stroke-linecap="round" stroke-linejoin="round"/>
<path fill-rule="evenodd" clip-rule="evenodd" d="M58.3938 60.8259L67.0793 65.3885C68.7709 66.2779 70.7477 64.8424 70.4239 62.9574L68.7661 53.2859L75.7937 46.4419C77.1616 45.1079 76.4076 42.783 74.5177 42.5075L64.8076 41.0962L60.4673 32.2947C59.6214 30.5789 57.1806 30.5789 56.3348 32.2947L51.9944 41.0962L42.2794 42.5124C40.3896 42.7879 39.6356 45.1127 41.0034 46.4467L48.0311 53.2907L46.3733 62.9622C46.0494 64.8472 48.0263 66.2827 49.7179 65.3934L58.4034 60.8307H58.3938V60.8259Z" stroke="#FFD600" stroke-width="4.83333" stroke-linecap="round" stroke-linejoin="round"/>
<path fill-rule="evenodd" clip-rule="evenodd" d="M58.3938 60.8259L67.0793 65.3885C68.7709 66.2779 70.7477 64.8424 70.4239 62.9574L68.7661 53.2859L75.7937 46.4419C77.1616 45.1079 76.4076 42.783 74.5177 42.5075L64.8076 41.0962L60.4673 32.2947C59.6214 30.5789 57.1806 30.5789 56.3348 32.2947L51.9944 41.0962L42.2794 42.5124C40.3896 42.7879 39.6356 45.1127 41.0034 46.4467L48.0311 53.2907L46.3733 62.9622C46.0494 64.8472 48.0263 66.2827 49.7179 65.3934L58.4034 60.8307H58.3938V60.8259Z" stroke="#FFD600" stroke-width="4.83333" stroke-linecap="round" stroke-linejoin="round"/>
</svg>
