<svg width="50" height="50" viewBox="0 0 50 50" fill="none" xmlns="http://www.w3.org/2000/svg">
<circle opacity="0.5" cx="25" cy="25" r="25" fill="#BCBCBC"/>
<g clip-path="url(#clip0_67_1478)">
<path d="M33.7438 30.9319C33.7624 28.4003 32.7616 26.3981 30.7654 24.9841C29.2237 23.8955 27.3527 23.3276 25.5431 22.7819C21.7734 21.6391 20.6798 21.0371 20.6798 19.2344C20.6798 17.2264 23.2894 16.5119 25.5234 16.5119C27.1504 16.5119 29.0223 17.0177 30.1847 17.7674L32.4894 14.1982C30.9701 13.2133 28.8908 12.5415 26.8375 12.333V9H22.5862V12.5667C18.8071 13.398 16.4265 15.8679 16.4265 19.2344C16.4265 21.5921 17.4062 23.4618 19.3329 24.7806C20.7983 25.7874 22.5854 26.328 24.3118 26.8514C28.0094 27.9691 29.5109 28.6501 29.4939 30.9056L29.4938 30.9222C29.4938 32.8153 26.985 33.4882 24.8358 33.4882C22.8056 33.4882 20.5978 32.5984 19.3463 31.2755L16.2578 34.1969C17.8427 35.8732 20.1453 37.0583 22.5861 37.5228V41.0001H26.8375V37.5977C31.0368 36.9966 33.7396 34.4684 33.7438 30.9319Z" fill="black"/>
</g>
<defs>
<clipPath id="clip0_67_1478">
<rect width="32" height="32" fill="white" transform="translate(9 9)"/>
</clipPath>
</defs>
</svg>
