<svg width="152" height="46" viewBox="0 0 152 46" fill="none" xmlns="http://www.w3.org/2000/svg">
<g clip-path="url(#clip0_472_11816)">
<path d="M3.72663 2.51537C3.72663 2.1507 2.70319 1.21522 2.38388 1.21522H1.50781V0.382812H6.60865L11.8732 13.1702H11.9797L17.5144 0.382812H22.0749V1.21522H21.2561C20.9368 1.21522 19.9134 2.1507 19.9134 2.51537V15.2552C19.9134 15.6199 20.9368 16.5554 21.2561 16.5554H22.0749V17.3957H15.3284V16.5554H16.1881C16.5074 16.5554 17.5308 15.6199 17.5308 15.2552V2.88005L11.1364 17.6415L4.78283 2.61843V15.1997C4.78283 15.5644 5.80627 16.4999 6.12558 16.4999H6.98527V17.3323H1.50781V16.4999H2.32657C2.64588 16.4999 3.66932 15.5644 3.66932 15.1997L3.72663 2.51537Z" fill="white"/>
<path d="M29.4524 10.1012C29.7717 8.3888 29.4524 6.88253 27.512 6.88253C25.2604 6.88253 24.1305 8.65041 24.1305 11.1952C24.1305 13.74 25.768 15.6665 28.3225 15.6665C29.0592 15.7401 29.8014 15.5896 30.4456 15.2358C31.0898 14.882 31.6041 14.3425 31.9169 13.6925H32.621C31.8677 16.0708 30.3612 17.5929 27.512 17.5929C24.3516 17.5929 22.3047 15.0164 22.3047 11.8453C22.3047 8.30952 24.72 5.97084 27.733 5.97084C28.4832 5.93522 29.2324 6.05865 29.9281 6.33251C30.6239 6.60638 31.2496 7.02407 31.7613 7.55639L30.1238 10.0536L29.4524 10.1012Z" fill="white"/>
<path d="M52.3733 3.75994C52.5666 3.76329 52.7586 3.72848 52.9377 3.65764C53.1167 3.5868 53.2789 3.48142 53.4145 3.34791C53.5501 3.2144 53.6562 3.05556 53.7263 2.88107C53.7964 2.70658 53.8292 2.52008 53.8225 2.33295C53.8331 2.14597 53.8029 1.95892 53.7339 1.784C53.6648 1.60908 53.5584 1.45023 53.4217 1.31782C53.2849 1.1854 53.1209 1.0824 52.9402 1.01553C52.7596 0.948659 52.5664 0.919429 52.3733 0.929745C52.1699 0.915081 51.9657 0.941199 51.7733 1.00647C51.5808 1.07173 51.4044 1.17474 51.255 1.30905C51.1055 1.44336 50.9863 1.60608 50.9048 1.78704C50.8233 1.96799 50.7812 2.16328 50.7812 2.3607C50.7812 2.55812 50.8233 2.75341 50.9048 2.93436C50.9863 3.11532 51.1055 3.27804 51.255 3.41235C51.4044 3.54666 51.5808 3.64967 51.7733 3.71494C51.9657 3.7802 52.1699 3.80632 52.3733 3.79166V3.75994Z" fill="white"/>
<path d="M68.4926 16.4999C68.1733 16.4999 67.2563 15.7071 67.2563 15.3583V9.22223C67.2756 8.81179 67.2073 8.4019 67.0557 8.01817C66.904 7.63444 66.6723 7.2851 66.3749 6.99198C66.0776 6.69886 65.721 6.46825 65.3275 6.31456C64.934 6.16086 64.5119 6.08738 64.0878 6.09871C62.0491 6.09871 60.9765 7.24823 59.6337 8.59594L59.1998 6.2969H55.6055V7.08967H56.3014C56.6207 7.08967 57.5377 7.92208 57.5377 8.23919V15.2552C57.5377 15.6199 56.6207 16.3968 56.3014 16.3968H54.9095C54.582 16.3968 53.6732 15.6041 53.6732 15.2552V6.2969H49.5794V7.08967H50.2754C50.6029 7.08967 51.5117 7.92208 51.5117 8.23919V15.2552C51.5117 15.6199 50.6029 16.3968 50.2754 16.3968H48.9981C48.2121 16.0757 47.4997 15.6069 46.9021 15.0174L40.8106 7.19273L45.0517 2.76906C45.7049 2.12183 46.4661 1.5858 47.3033 1.18351H48.1221V0.382812H41.7849V1.21522H42.6446C42.9639 1.21522 43.9874 2.35682 43.7172 2.666L37.4537 9.46799V2.51537C37.4537 2.1507 38.469 1.21522 38.7965 1.21522H39.6152V0.382812H32.8359V1.21522H33.6547C33.974 1.21522 34.9974 2.1507 34.9974 2.51537V15.2552C34.9974 15.6199 33.974 16.5554 33.6547 16.5554H32.8359V17.3957H39.6562V16.5554H38.8374C38.5099 16.5554 37.4946 15.6199 37.4946 15.2552V10.784L39.2632 8.90512L45.2892 17.3957H61.566V16.5554H60.9192C60.5999 16.5554 59.6829 15.7626 59.6829 15.4059V9.73753C59.6829 9.01611 61.7789 7.45435 63.3918 7.45435C63.6444 7.44138 63.8968 7.48176 64.1316 7.57267C64.3664 7.66358 64.578 7.80286 64.7517 7.98084C64.9254 8.15883 65.0571 8.37126 65.1375 8.60342C65.218 8.83557 65.2453 9.08189 65.2176 9.32529V15.3583C65.2176 15.723 64.3006 16.4999 63.9813 16.4999H63.3345V17.3323H69.1395V16.4999H68.4926Z" fill="white"/>
<path d="M70.5833 13.4839C70.5833 14.5224 72.1389 16.7026 74.5542 16.7026C75.9543 16.7026 76.7567 16.2348 76.7567 15.1963C76.7567 13.9516 75.6268 13.5315 74.6115 13.1192C73.7928 12.8021 73.1623 12.5484 72.2453 12.1283C70.8534 11.502 69.7891 10.622 69.7891 9.11571C69.7891 7.13378 71.0254 5.99219 73.2278 5.99219C74.4641 5.99219 75.1601 6.56298 76.0198 6.56298C76.3391 6.56298 76.552 6.51542 76.6584 6.2538H77.3052V9.63102H76.6093C76.4528 8.84937 76.0279 8.14196 75.4035 7.6238C74.7792 7.10564 73.9922 6.80721 73.1705 6.77703C71.8278 6.77703 71.2383 7.34783 71.2383 8.22781C71.2383 9.10779 71.9342 9.52796 73.0641 9.99569C73.9238 10.3604 74.5706 10.622 75.5203 10.9867C76.7567 11.4544 78.1485 12.3899 78.1485 14.1577C78.1485 16.2348 76.642 17.4874 74.4969 17.4874C73.0477 17.4874 72.188 16.8056 71.2219 16.8056C71.0582 16.7883 70.8926 16.8128 70.7418 16.8768C70.5909 16.9408 70.46 17.042 70.3622 17.1703H69.8218V13.3253H70.5259L70.5833 13.4839Z" fill="white"/>
<path d="M78.9062 11.8444C78.9062 8.57022 81.2151 6.01749 84.1217 6.07298C84.6543 6.0537 85.1854 6.13907 85.683 6.32395C86.1806 6.50882 86.6343 6.78937 87.0169 7.14868C87.3994 7.50798 87.7029 7.93859 87.9089 8.41454C88.1149 8.89048 88.2192 9.40189 88.2155 9.91793L88.2646 10.7107L80.6911 11.2894C80.6911 13.525 82.3286 15.7052 84.8258 15.7052C85.5553 15.7733 86.2886 15.6199 86.9239 15.2661C87.5592 14.9124 88.065 14.3759 88.371 13.7312H89.1161C88.3629 16.1095 86.9628 17.6316 84.2036 17.6316C81.0023 17.592 78.9062 14.9362 78.9062 11.8444ZM86.3733 10.0765C86.5862 8.49094 86.316 6.95296 84.0644 6.95296C81.8128 6.95296 80.7894 8.8239 80.6829 10.5442L86.3733 10.0765Z" fill="white"/>
<path d="M90.2916 8.3898C89.9352 7.85245 89.4341 7.41939 88.8424 7.13721H88.3594V6.29688H94.369V7.08965H93.6731C93.3538 7.08965 92.6496 7.88242 92.6496 8.28674L95.286 14.2246L97.8651 8.35016C97.8143 8.09048 97.7002 7.84632 97.5321 7.63808C97.364 7.42983 97.1469 7.26353 96.899 7.15307H96.1948V6.29688H100.763V7.08965H100.223C99.9529 7.08965 99.1505 7.92206 98.8804 8.28674L95.0158 16.7615L92.1666 22.85L91.1513 22.3822L94.1562 16.3492L90.2916 8.3898Z" fill="white"/>
<path d="M35.3503 26.1171C35.3881 26.8043 35.6444 27.4634 36.0842 28.0041C36.5239 28.5449 37.1255 28.9407 37.8065 29.1376C40.0581 31.4762 42.8009 33.9735 45.1753 36.0505C45.8382 34.9665 46.1571 33.7175 46.0923 32.4593C46.0923 30.8737 45.0198 29.962 43.3004 29.9066V29.1138H49.5311V29.9066H48.827C48.1094 30.3254 47.5607 30.9685 47.2713 31.7299C47.2565 33.4223 46.7361 35.0743 45.773 36.4866C46.8999 37.4647 48.0806 38.383 49.31 39.2375H50.3908V40.0303H48.4503C47.6411 40.0528 46.8357 39.9146 46.0837 39.6242C45.3318 39.3338 44.6492 38.8973 44.0782 38.3417C43.3159 39.0409 42.4148 39.5829 41.4296 39.9345C40.4443 40.2861 39.3955 40.4401 38.3469 40.387C36.9301 40.4341 35.552 39.9344 34.5156 38.9978C33.4792 38.0612 32.8694 36.7644 32.8203 35.3925C32.8182 34.3797 33.0713 33.3816 33.5579 32.485C34.0444 31.5884 34.7496 30.8203 35.6123 30.2474C34.7184 29.2687 34.2338 28.0022 34.2531 26.6958C34.2531 24.2462 35.8907 22.8984 38.4452 22.8984C40.0827 22.8984 40.9014 23.4137 41.6629 23.4137C42.0395 23.4137 42.3097 23.4137 42.4816 23.1046H43.2349V27.0684H42.4407C42.4407 25.9268 40.7213 23.6357 38.3469 23.6357C36.4802 23.6754 35.3503 24.5315 35.3503 26.1171ZM34.597 34.2351C34.597 36.6768 37.2825 38.9917 39.7552 38.9917C41.122 39.028 42.4631 38.6267 43.5706 37.8501C40.9007 35.6068 38.3717 33.211 35.9971 30.6755C35.5155 31.1382 35.1414 31.695 34.9 32.3089C34.6586 32.9228 34.5553 33.5795 34.597 34.2351Z" fill="white"/>
<path d="M68.3263 29.0802C68.3263 27.3124 66.2876 23.7766 63.0126 23.7766C60.0078 23.7766 58.1819 25.3621 57.8544 29.2388C57.7671 30.6758 57.7863 32.1171 57.9118 33.5515C57.9694 35.0312 58.6278 36.4291 59.7439 37.4415C60.86 38.4539 62.3435 38.9989 63.8723 38.9582C66.8771 38.9582 68.3836 37.7135 69.5135 35.4779H70.4223C69.9514 36.9251 69.0023 38.1823 67.7211 39.0561C66.44 39.9299 64.8978 40.3718 63.3319 40.3138C58.2884 40.3138 55.0625 36.35 55.0625 31.4744C55.0625 26.5989 58.0182 22.7539 62.9062 22.7539C64.7811 22.7539 65.9683 23.4833 67.311 23.4833C67.516 23.4984 67.7215 23.4635 67.9089 23.3818C68.0963 23.3001 68.2595 23.1742 68.3836 23.0155H69.0304V29.0485H68.3263V29.0802Z" fill="white"/>
<path d="M71.6018 34.5417C71.6018 30.9505 74.2382 28.7148 77.243 28.7148C80.2478 28.7148 82.8842 30.9505 82.8842 34.5417C82.8842 38.133 80.2478 40.3845 77.243 40.3845C76.4718 40.3738 75.7107 40.2125 75.0054 39.9102C74.3001 39.608 73.6651 39.171 73.1384 38.6254C72.6116 38.0799 72.204 37.437 71.94 36.7353C71.676 36.0336 71.5609 35.2875 71.6018 34.5417ZM80.6081 36.3651C80.7718 35.1202 80.7718 33.8602 80.6081 32.6153C80.3952 30.8474 79.3718 29.6503 77.2839 29.6503C75.1961 29.6503 74.2218 30.8474 73.9516 32.5677C73.7879 33.81 73.7879 35.0674 73.9516 36.3096C74.2218 38.022 75.1879 39.2746 77.2839 39.2746C79.38 39.2746 80.4116 38.0775 80.6245 36.3651H80.6081Z" fill="white"/>
<path d="M101.399 38.01C101.399 38.3747 102.258 39.1595 102.578 39.1595H103.118V39.9523H97.3867V39.1595H98.0253C98.3528 39.1595 99.2125 38.3667 99.2125 38.01V31.9453C99.2512 31.7062 99.2328 31.4618 99.1588 31.2306C99.0849 30.9995 98.9573 30.7879 98.7858 30.6119C98.6143 30.4359 98.4035 30.3002 98.1695 30.2153C97.9355 30.1304 97.6845 30.0984 97.4358 30.1219C95.9375 30.1219 94.1117 31.533 94.1117 32.2544V38.01C94.1117 38.3747 94.9304 39.1595 95.2907 39.1595H95.9375V39.9523H90.1325V39.1595H90.7548C91.0741 39.1595 91.9338 38.3667 91.9338 38.01V31.9453C91.9641 31.7036 91.9382 31.4584 91.858 31.2276C91.7778 30.9969 91.6454 30.7864 91.4704 30.6116C91.2953 30.4368 91.0822 30.3021 90.8464 30.2174C90.6107 30.1326 90.3584 30.1 90.108 30.1219C88.6015 30.1219 86.7756 31.5806 86.7756 32.3575V38.0813C86.7756 38.446 87.6353 39.2229 87.9628 39.2229H88.6015V40.0157H82.8047V39.2229H83.4515C83.7708 39.2229 84.6305 38.4301 84.6305 38.0813V31.0098C84.6305 30.6451 83.7708 29.8682 83.4515 29.8682H82.8047V29.0754H86.2926L86.7756 31.208C88.0693 29.8523 88.929 28.8297 90.9185 28.8297C91.6401 28.7714 92.3569 28.9869 92.9175 29.4306C93.4781 29.8744 93.8388 30.5117 93.9234 31.208C95.3152 29.8523 96.2322 28.9169 98.1072 28.9169C98.53 28.9026 98.9511 28.9744 99.3434 29.1278C99.7356 29.2811 100.09 29.5124 100.384 29.8069C100.678 30.1013 100.905 30.4523 101.05 30.837C101.196 31.2218 101.256 31.6318 101.227 32.0404V38.01H101.399Z" fill="white"/>
<path d="M106.456 29.0307L106.833 31.2663C107.174 30.4854 107.752 29.8232 108.49 29.3674C109.229 28.9115 110.093 28.6835 110.968 28.7136C113.76 28.7136 115.422 30.9492 115.422 34.3343C115.422 37.7195 113.489 40.2563 110.755 40.2563C109.957 40.3257 109.156 40.1532 108.464 39.7626C107.771 39.372 107.222 38.7827 106.89 38.0762V43.3244C106.89 43.689 107.799 44.4739 108.069 44.4739H108.823V45.2667H102.805V44.4739H103.558C103.877 44.4739 104.737 43.6811 104.737 43.3244V31.0047C104.737 30.64 103.877 29.8631 103.558 29.8631H102.805V29.0703L106.456 29.0307ZM106.833 32.9945V35.9437C106.833 36.7847 107.178 37.5913 107.792 38.186C108.406 38.7806 109.239 39.1147 110.108 39.1147C112.04 39.1147 112.957 37.9177 113.219 36.2053C113.383 35.1196 113.383 34.0167 113.219 32.9311C113.006 31.1632 111.991 30.0692 110.378 30.0692C108.446 30.0137 107.373 31.3139 106.833 33.0342V32.9945Z" fill="white"/>
<path d="M140.12 39.218C139.8 39.218 138.891 38.4252 138.891 38.0764V31.9403C138.909 31.5302 138.84 31.1208 138.688 30.7376C138.536 30.3544 138.304 30.0055 138.007 29.7127C137.71 29.4198 137.354 29.1891 136.961 29.035C136.568 28.8809 136.147 28.8066 135.723 28.8168C133.676 28.8168 132.603 29.9663 131.261 31.314L130.868 29.0784H127.265V29.8712H127.969C128.289 29.8712 129.197 30.7036 129.197 31.0207V38.005C129.197 38.3697 128.289 39.1546 127.969 39.1546H126.569C126.25 39.1546 125.333 38.3618 125.333 38.005V32.0434C125.333 29.8632 123.507 28.7692 121.092 28.7692C120.249 28.7172 119.404 28.8434 118.617 29.1391C117.829 29.4348 117.118 29.8929 116.531 30.4816L118.03 32.7172H118.848C117.989 30.8463 118.627 29.6016 120.56 29.6016C122.492 29.6016 123.245 30.4816 123.245 32.0434V33.399L120.298 33.9698C118.66 34.279 116.589 35.0638 116.589 37.244C116.57 37.6271 116.631 38.01 116.767 38.3702C116.903 38.7303 117.113 39.0605 117.383 39.3411C117.653 39.6218 117.978 39.8474 118.339 40.0046C118.701 40.1618 119.091 40.2474 119.487 40.2565C121.124 40.2565 122.385 38.9564 123.302 37.8148L123.573 40.0504H133.234V39.2576H132.595C132.268 39.2576 131.359 38.4648 131.359 38.116V32.4081C131.359 31.6787 133.455 30.1169 135.06 30.1169C135.313 30.1052 135.565 30.1466 135.8 30.2385C136.035 30.3303 136.246 30.4704 136.42 30.6489C136.593 30.8275 136.725 31.0404 136.805 31.2729C136.886 31.5054 136.913 31.7521 136.885 31.9958V38.005C136.885 38.3697 135.977 39.1546 135.657 39.1546H134.961V39.9473H140.758V39.1546H140.111L140.12 39.218ZM123.204 36.8397C122.721 37.6324 121.567 38.7582 120.412 38.7582C120.17 38.7636 119.93 38.7214 119.705 38.634C119.48 38.5466 119.276 38.4158 119.106 38.2497C118.935 38.0836 118.801 37.8856 118.711 37.6677C118.622 37.4498 118.58 37.2167 118.586 36.9824C118.586 35.8883 119.069 35.1669 120.469 34.8022L123.204 34.1204V36.8317V36.8397Z" fill="white"/>
<path d="M141.51 31.1077C141.154 30.5725 140.653 30.1421 140.061 29.8631H139.578V29.0703H145.604V29.8631H144.908C144.589 29.8631 143.893 30.6559 143.893 31.0602L146.521 36.9346L149.1 31.0602C149.056 30.7983 148.944 30.5514 148.775 30.3423C148.606 30.1331 148.386 29.9684 148.134 29.8631H147.43V29.0703H151.999V29.8631H151.458C151.196 29.8631 150.386 30.6955 150.115 31.0602L146.251 39.5349L143.41 45.6155L142.378 45.1398L145.383 39.1068L141.51 31.1077Z" fill="white"/>
</g>
<defs>
<clipPath id="clip0_472_11816">
<rect width="152" height="45" fill="white" transform="translate(0 0.5)"/>
</clipPath>
</defs>
</svg>
