<svg width="36" height="35" viewBox="0 0 36 35" fill="none" xmlns="http://www.w3.org/2000/svg">
<path fill-rule="evenodd" clip-rule="evenodd" d="M30.0029 25.1975L33.5274 23.8528L29.999 25.1975H30.0029ZM10.878 29.997C10.878 29.997 10.878 29.9885 10.878 29.9843V29.997ZM8.21523 32.1493L8.16089 32.1578L8.18418 32.1324L8.21523 32.1493ZM8.21135 32.107C9.56992 30.6989 11.3361 30.1154 13.4749 31.181L8.21135 32.107ZM12.4967 31.4389L8.21135 32.107L8.157 32.1155L8.18806 32.1324H8.19194L8.21523 32.1493C8.40155 32.2551 8.59175 32.3439 8.78195 32.4242C8.86346 32.458 8.94498 32.4918 9.02649 32.5215C9.13518 32.5595 9.24386 32.5976 9.35255 32.6272H9.36031C9.41466 32.6441 9.469 32.6568 9.52334 32.6695C9.57769 32.6821 9.63591 32.6948 9.69025 32.7033C9.85716 32.7371 10.028 32.7583 10.1949 32.7667C10.2492 32.7667 10.3074 32.7709 10.3618 32.7752H10.3695H10.4472H10.5326H10.5403C10.5947 32.7752 10.649 32.7709 10.7034 32.7667H10.715C10.7965 32.7583 10.878 32.7498 10.9595 32.7371H10.9751L11.0488 32.7244C11.1342 32.7075 11.2196 32.6906 11.305 32.6695C11.4176 32.6399 11.534 32.6103 11.6466 32.568C11.7592 32.5299 11.8756 32.4834 11.9882 32.4327H11.9998C12.4268 32.2339 12.8499 31.9633 13.273 31.5912L13.3468 31.5193L13.3584 31.5108C13.3972 31.477 13.436 31.4389 13.4749 31.4051L12.4734 31.4389H12.4967ZM15.0741 31.3586L13.4787 31.181L12.256 31.4474L12.4695 31.4389H12.4967L13.4981 31.4051L15.0702 31.3544L15.0741 31.3586ZM12.256 31.4474L14.1619 31.0288L13.4787 31.1768L12.256 31.4432V31.4474ZM14.9732 30.8512L15.078 30.83L14.6782 30.7497L14.9732 30.8512ZM12.8383 30.3818L10.4394 29.904V29.9209C10.4239 30.0477 10.5015 30.1704 10.618 30.1957C10.7422 30.2211 10.8586 30.1323 10.8819 30.0012V29.9885H10.9091L12.485 30.183L12.8305 30.3902L12.8383 30.3818ZM12.256 30.0224L10.4394 29.8997C10.4627 29.7644 10.583 29.6756 10.7034 29.7052C10.8043 29.7264 10.878 29.8194 10.8858 29.9293C10.8858 29.9378 10.8858 29.9462 10.8858 29.9547C11.1148 29.9674 11.503 29.9885 11.8756 30.0054C12.0076 30.0097 12.1357 30.0181 12.2521 30.0224H12.256ZM9.58933 28.9906C7.65239 30.0604 5.99881 29.5995 4.6907 28.3563H4.64024L4.66741 28.3351L4.64412 28.314H4.69458C6.20842 27.3879 7.92022 27.2991 9.62038 28.7834L10.7344 28.8426C10.4161 28.5508 10.1134 28.2464 9.82611 27.9207C9.7019 27.7812 9.57768 27.6332 9.45735 27.4852L8.27345 26.9524L7.99398 26.8255C7.99398 26.8255 7.99398 26.834 7.99009 26.8382L7.98233 26.8551C7.92022 26.9651 7.79213 27.0031 7.68733 26.9482C7.5864 26.8932 7.53982 26.7663 7.57476 26.6522C7.57476 26.6395 7.58252 26.6268 7.59028 26.6141C7.64851 26.4915 7.78437 26.445 7.89305 26.5042C7.98621 26.5549 8.03279 26.6733 8.01338 26.779V26.8002C8.24628 26.889 8.66938 27.0497 9.05366 27.1892L9.29821 27.278C9.09248 27.0116 8.89452 26.7367 8.70432 26.4534L7.10896 25.6077C5.16814 26.1194 3.77463 25.3202 2.84692 23.9036L2.80422 23.8867L2.83139 23.8782L2.81586 23.8528L2.85856 23.8698C4.39569 23.3835 5.94835 23.7006 7.18271 25.4217L8.2851 25.7684C8.05996 25.3794 7.85035 24.9734 7.66015 24.559L7.62134 24.5083L6.50342 23.7725L6.1502 23.5399C6.1502 23.5399 6.14631 23.5484 6.14243 23.5526C6.13467 23.5611 6.12691 23.5738 6.11914 23.5822C6.04151 23.6668 5.9173 23.6837 5.82414 23.6118C5.73486 23.5442 5.70769 23.4173 5.7465 23.3158C5.75427 23.2989 5.76203 23.282 5.76979 23.2693C5.84355 23.1594 5.98328 23.134 6.08809 23.2101C6.17737 23.2778 6.20454 23.4004 6.16572 23.5061L6.15796 23.523C6.31322 23.6118 6.55777 23.7514 6.81396 23.8994C7.06626 24.0431 7.3341 24.1911 7.53982 24.3011C7.4389 24.0643 7.34186 23.8232 7.2487 23.578C7.21377 23.485 7.17883 23.3877 7.14778 23.2947L5.9794 22.301C4.3103 22.3517 3.29719 21.4341 2.7654 20.0979L2.73435 20.0767H2.75764L2.74988 20.0513L2.78093 20.0725C4.11621 19.9668 5.33117 20.5207 6.06868 22.1656L6.95758 22.6815C6.86054 22.3475 6.77126 22.0092 6.69751 21.6624L6.05315 20.8294L5.67275 20.3389C5.67275 20.3389 5.66499 20.3431 5.66111 20.3473C5.6417 20.36 5.62229 20.3727 5.60288 20.3812C5.50972 20.415 5.40492 20.3812 5.34281 20.2924C5.28459 20.2036 5.28847 20.0894 5.34281 20.0048C5.35834 19.9837 5.37387 19.9625 5.39716 19.9456C5.49808 19.8653 5.6417 19.8907 5.71545 20.0006C5.77756 20.0979 5.76979 20.2289 5.69992 20.3093L5.69216 20.3177L5.92506 20.5841C6.14243 20.8336 6.41803 21.1465 6.64316 21.396C6.58106 21.0747 6.52671 20.7533 6.48402 20.4235L5.76203 19.2648C4.27148 18.787 3.61936 17.6622 3.49515 16.3133L3.47186 16.2837H3.49515V16.2668L3.51844 16.2964C4.72951 16.622 5.66111 17.4888 5.87848 19.1718L6.41803 19.7807C6.37921 19.3452 6.3598 18.9054 6.3598 18.4614V18.4107L5.9173 17.493L5.60677 16.8461C5.60677 16.8461 5.599 16.8461 5.59512 16.8503C5.56795 16.863 5.54078 16.8672 5.51361 16.8714C5.42045 16.8714 5.33505 16.8165 5.29623 16.7234C5.25742 16.6304 5.28071 16.5205 5.34281 16.4528C5.36222 16.4317 5.38551 16.4105 5.41656 16.3978C5.53301 16.3429 5.66499 16.4021 5.71545 16.5289C5.75815 16.6389 5.72322 16.7657 5.63394 16.8292H5.62617L5.73874 17.0364C5.91342 17.3535 6.16184 17.8017 6.3598 18.1442C6.36757 17.7848 6.38698 17.4254 6.41803 17.0702L6.09973 16.2964L6.07644 16.2372C4.80715 15.5564 4.38405 14.4358 4.46556 13.2053L4.45004 13.1757L4.46944 13.1841V13.163L4.48885 13.1926C5.52913 13.6915 6.23947 14.6261 6.19289 16.1737L6.46849 16.622C6.5306 16.0976 6.62376 15.586 6.7402 15.0828L6.27441 14.1102L5.96388 13.4632C5.96388 13.4632 5.95611 13.4632 5.95223 13.4674C5.92506 13.4801 5.89789 13.4843 5.87072 13.4886C5.78144 13.4886 5.69216 13.4378 5.65335 13.3406C5.61453 13.2475 5.63782 13.1418 5.69992 13.0699C5.71933 13.0488 5.74262 13.0277 5.77368 13.015C5.89012 12.96 6.0221 13.015 6.07256 13.1461C6.11526 13.256 6.08033 13.3829 5.99105 13.4463H5.98328L6.09585 13.6577C6.29382 14.0129 6.58106 14.533 6.78678 14.8882C6.86054 14.588 6.94205 14.292 7.03521 14.0002L6.61599 12.9854C5.50972 12.3891 5.14097 11.4123 5.21472 10.3425L5.19919 10.3171L5.21472 10.3256V10.3087L5.23025 10.334C6.13467 10.7654 6.75573 11.5857 6.71691 12.9346L7.15554 13.645C7.19047 13.5478 7.22153 13.4505 7.26034 13.3575C7.30692 13.2306 7.35739 13.0995 7.40785 12.9727L7.21765 12.3342L7.02356 11.6872H7.0158C6.98475 11.6957 6.95369 11.6957 6.92652 11.6872C6.87218 11.6703 6.8256 11.6195 6.81396 11.5561C6.79843 11.4927 6.81784 11.4293 6.85665 11.387C6.87606 11.3616 6.90711 11.3447 6.93817 11.3362C7.02745 11.3109 7.12061 11.3701 7.14001 11.4715C7.15942 11.5603 7.11672 11.6491 7.04297 11.683C7.13613 11.9451 7.3341 12.4864 7.46995 12.8331C7.53982 12.6682 7.60969 12.5033 7.68344 12.3426V11.3235C6.89935 10.2875 6.93429 9.23039 7.40397 8.28318V8.25358L7.41173 8.26627L7.41949 8.24936V8.27895C8.08325 9.07816 8.33944 10.1015 7.79213 11.3151L7.88529 11.9071C8.07161 11.535 8.27345 11.1755 8.49082 10.8246V10.8161L8.57622 10.685L8.54517 10.0423L8.51023 9.32341C8.51023 9.32341 8.50247 9.32341 8.49859 9.32341C8.40543 9.32341 8.33168 9.23884 8.33556 9.13735C8.33556 9.07815 8.36661 9.02319 8.40931 8.98936C8.43648 8.96821 8.46754 8.95976 8.49859 8.95553H8.50635C8.59951 8.95553 8.67326 9.0401 8.66938 9.14159C8.66938 9.23462 8.60339 9.3065 8.52576 9.31919C8.55293 9.59827 8.61504 10.1734 8.66162 10.5455C8.74313 10.4228 8.82465 10.3002 8.91004 10.1818L9.17011 9.3361C8.76642 8.19438 9.07307 7.2937 9.73295 6.62558V6.59598L9.7446 6.61289L9.75624 6.6002V6.6298C10.1095 7.53049 10.0629 8.49038 9.27104 9.3657L9.21281 9.77164C9.41466 9.50947 9.62427 9.25153 9.84164 9.0105C10.0668 8.75679 10.2647 8.60456 10.4899 8.41004H10.4666L10.42 8.39313L10.4472 8.28318L10.4122 7.61507L10.3773 6.89621H10.3695H10.3618C10.2725 6.89198 10.2026 6.80741 10.2026 6.71015C10.2026 6.65095 10.2337 6.59597 10.2764 6.56215C10.3036 6.541 10.3346 6.53255 10.3657 6.52832H10.3734C10.4666 6.52832 10.5403 6.61289 10.5365 6.71438C10.5365 6.8074 10.4705 6.87929 10.3928 6.89198C10.4278 7.23449 10.5132 8.04215 10.5597 8.34661C10.5947 8.31701 10.6296 8.28318 10.6684 8.24936L10.7344 8.19016L11.0372 7.20912L11.0682 7.10764C10.6645 5.96592 10.9712 5.06523 11.6311 4.39711V4.36751L11.6427 4.38443L11.6544 4.37174V4.40134C12.0076 5.2978 11.961 6.26192 11.1692 7.13723L11.0644 7.87724C11.1497 7.79689 11.2351 7.71233 11.3128 7.6489C11.3477 7.61507 11.3826 7.5897 11.4137 7.56433C11.5923 7.42901 11.6932 7.34444 11.7592 7.28946L11.7669 7.27678L11.7863 7.25987C11.8717 7.17952 11.8679 7.17106 11.9455 7.12455H11.9494L12.3181 6.19426L12.6131 5.45003C12.6131 5.45003 12.6054 5.45003 12.6015 5.4458C12.4889 5.38237 12.4462 5.23437 12.5083 5.11174C12.5665 4.98911 12.7024 4.9426 12.815 5.00603C12.9275 5.06946 12.9702 5.22168 12.912 5.34008C12.8616 5.4458 12.7451 5.49655 12.6442 5.46272H12.6364L12.5743 5.64877C12.4462 6.03357 12.2521 6.62135 12.124 7.03152L12.5627 6.80318L12.8499 6.60866C13.2458 5.44157 14.0299 4.98488 14.9382 4.96374L14.9576 4.94683V4.96374H14.9693L14.9499 4.98066C14.6665 5.92363 14.0299 6.60866 12.881 6.67209L12.2948 7.1626C12.2056 7.24718 12.1473 7.29369 12.0658 7.36981L13.4011 7.86878C13.4011 7.86878 13.4011 7.86032 13.405 7.85609C13.4477 7.74615 13.5641 7.69541 13.6651 7.74193C13.766 7.78844 13.8126 7.9153 13.7699 8.02524C13.7272 8.13518 13.6107 8.18592 13.5098 8.13941C13.4283 8.10135 13.3817 8.00833 13.3895 7.91953C13.3895 7.91107 13.3895 7.89838 13.3933 7.88992L13.3274 7.86878C12.9741 7.76306 12.3104 7.5601 11.9571 7.4713C11.8756 7.55164 11.7747 7.65735 11.6233 7.81804C11.5961 7.83918 11.5728 7.86033 11.5496 7.88147C11.4836 7.94067 11.4215 7.99987 11.3671 8.05907C11.239 8.19861 11.1226 8.34238 10.9673 8.48616C10.684 8.74833 10.4122 9.02741 10.1483 9.32341C10.0551 9.4249 9.96585 9.53062 9.88045 9.63633L10.323 9.4545C10.8703 8.42695 11.6815 8.13095 12.5433 8.26627L12.5665 8.25358L12.5588 8.26627H12.5743L12.551 8.28318C12.1435 9.1289 11.4409 9.67439 10.3424 9.5433L9.60097 9.98307C9.02649 10.7273 8.52188 11.5519 8.11042 12.4314L8.71596 11.9705C9.01097 10.8288 9.73295 10.3256 10.5986 10.2241L10.618 10.2072V10.2241H10.6296L10.6102 10.241C10.4084 11.1713 9.8494 11.8902 8.75478 12.0551L7.9047 12.9177L7.94351 12.812C7.84259 13.0446 7.74943 13.2771 7.66015 13.5182C7.46995 14.0383 7.30692 14.5753 7.17495 15.1293L7.44666 14.9221L7.57476 14.8248C7.86976 13.6831 8.59175 13.1757 9.45735 13.0784L9.47676 13.0615V13.0784H9.48841L9.469 13.0953C9.26715 14.0256 8.7082 14.7445 7.61357 14.9136L7.11284 15.421C6.93041 16.2668 6.8256 17.1463 6.79843 18.0512L7.18271 17.6537L7.27975 17.5565C7.41949 16.3809 8.06385 15.7636 8.90616 15.5268L8.92169 15.5056V15.5225H8.93333L8.91781 15.5437C8.84017 16.4951 8.38602 17.2943 7.32633 17.6368L6.79067 18.3641V18.4656C6.79067 19.3621 6.87218 20.2374 7.02745 21.0831L7.2487 20.5757L7.29528 20.47C7.01192 19.1972 7.45055 18.2838 8.23076 17.6749L8.23852 17.6453V17.6622L8.25793 17.6495L8.25016 17.6791C8.518 18.694 8.33944 19.7131 7.37291 20.5249L7.1012 21.4595C7.24094 22.1276 7.43114 22.7788 7.66015 23.4046C7.91246 24.0939 8.21911 24.7535 8.57234 25.3751L8.58398 24.2926V24.1742C7.53594 22.7407 7.60193 21.303 8.26569 20.0344V19.9921L8.27733 20.0133L8.28898 19.9921V20.0344C9.18176 21.1465 9.50393 22.5547 8.71596 24.2038L8.92557 25.9671C9.29433 26.5507 9.70966 27.1004 10.1599 27.6036C10.5559 28.0518 10.9828 28.4662 11.437 28.8426L11.1071 27.4937L11.0915 27.4345C9.45347 26.1447 9.10413 24.4533 9.49229 22.745L9.47676 22.6984L9.50005 22.7154L9.50782 22.6858L9.52334 22.7323C10.8819 23.7091 11.6777 25.2314 11.2468 27.4175L11.961 29.257C12.1667 29.4092 12.3802 29.5572 12.5937 29.6968C12.4656 29.2062 12.2677 28.5085 12.1706 28.166C12.1551 28.1702 12.1396 28.1745 12.124 28.1745C12.1124 28.1745 12.1008 28.1745 12.0891 28.1745C12.0115 28.166 11.9377 28.1153 11.9028 28.0307C11.864 27.9377 11.8795 27.8319 11.9416 27.7601C11.961 27.7347 11.9843 27.7178 12.0154 27.7009C12.1279 27.6417 12.2638 27.7009 12.3181 27.8193C12.3725 27.9419 12.3181 28.0899 12.2094 28.1491C12.2056 28.1491 12.2017 28.1491 12.1978 28.1533L12.7645 29.794C13.1177 30.0139 13.4865 30.2126 13.863 30.3902L13.8902 30.4029C14.0455 30.4748 14.2007 30.5425 14.356 30.6059L14.1658 29.3416C12.9043 28.128 12.7373 26.6987 13.1876 25.3202L13.176 25.2779L13.1954 25.2948L13.2031 25.2694L13.2148 25.3117C14.2706 26.242 14.814 27.5698 14.2978 29.3416L14.6976 30.7412L14.717 30.7497C14.8024 30.7793 14.8878 30.8089 14.9693 30.8385L15.012 30.8512L15.1246 30.8892C16.126 31.2106 17.1857 31.384 18.2803 31.384C19.2158 31.384 20.128 31.2571 20.9975 31.0203C21.0945 30.9949 21.1916 30.9653 21.2886 30.9357L21.3041 30.83L21.4943 30.8723C21.5642 30.8469 21.6379 30.8258 21.7078 30.8004L22.1232 29.3458C21.6069 27.5698 22.1503 26.242 23.2061 25.3159L23.2178 25.2736L23.2255 25.299L23.2449 25.2821L23.2333 25.3202C23.6836 26.7029 23.5167 28.1322 22.2551 29.3416L22.0572 30.6651C22.2668 30.5848 22.4686 30.496 22.6705 30.4029C22.9965 30.2507 23.3109 30.0858 23.6215 29.8997L23.9592 28.9145L24.2231 28.1491C24.2231 28.1491 24.2154 28.1491 24.2115 28.1449C24.0989 28.0857 24.0484 27.9419 24.1028 27.815C24.1571 27.6924 24.2891 27.6374 24.4056 27.6966C24.5181 27.7558 24.5686 27.8996 24.5142 28.0265C24.4677 28.1364 24.3551 28.1914 24.2542 28.1618H24.2464L24.1959 28.3351C24.0795 28.7411 23.9048 29.3754 23.7961 29.7982C24.0019 29.6714 24.2037 29.5361 24.4017 29.3965L25.1702 27.4175C24.7394 25.2314 25.5351 23.7091 26.8937 22.7323L26.9092 22.6858L26.917 22.7154L26.9403 22.6984L26.9247 22.745C27.3168 24.4533 26.9674 26.1405 25.3255 27.4345L24.949 28.9821C25.4652 28.5677 25.9504 28.1026 26.4007 27.5994C27.4604 26.4069 28.3144 24.9861 28.8966 23.4046C29.0829 22.893 29.246 22.3644 29.3741 21.8231L29.3624 21.8104L29.3779 21.7935L29.3935 21.7301L29.0441 20.5207C28.0737 19.7088 27.8952 18.6897 28.1669 17.6749L28.1591 17.6453L28.1746 17.658V17.641L28.1902 17.6706C28.9704 18.2796 29.4129 19.1929 29.1256 20.4657L29.4905 21.2988C29.6613 20.4319 29.7583 19.5355 29.7661 18.6136H29.7583L29.7661 18.6009V18.546L29.1062 17.6495L29.0907 17.6284C28.031 17.2858 27.573 16.4866 27.4992 15.5352L27.4837 15.5141H27.4992V15.5014L27.5148 15.5225C28.3571 15.7593 29.0014 16.3725 29.1412 17.5522L29.7195 18.1485L29.7661 18.3726C29.7661 18.1273 29.7583 17.8863 29.7428 17.6453L29.6962 17.7552L29.6535 17.0702L29.6924 17.011C29.6458 16.5332 29.572 16.0596 29.4827 15.5986L28.8073 14.9136C27.7127 14.7445 27.1538 14.0256 26.9519 13.0953L26.9325 13.0784H26.948V13.0657L26.9674 13.0826C27.833 13.1841 28.5512 13.6873 28.85 14.829L29.4168 15.2604L29.409 15.235C29.2731 14.6472 29.1023 14.0764 28.9005 13.5224C28.4463 12.2877 27.8253 11.1502 27.0722 10.1438L26.0785 9.55176C24.98 9.68285 24.2736 9.13735 23.8699 8.29164L23.8466 8.27895H23.8621L23.8544 8.26204L23.8777 8.27473C24.7394 8.13941 25.5506 8.43541 26.098 9.46296L26.7501 9.72936C26.6375 9.59405 26.5249 9.45873 26.4085 9.32765C26.1445 9.03165 25.8689 8.74833 25.5778 8.48193C25.3372 8.25781 24.9141 7.90684 24.4754 7.4713C24.4017 7.48821 24.3163 7.51358 24.2231 7.53895C24.1532 7.56009 24.0756 7.58124 23.998 7.60238C23.6448 7.70387 23.2411 7.8265 23.0198 7.89416V7.91107C23.0392 8.00832 22.9926 8.10558 22.9072 8.14364C22.8063 8.19015 22.6899 8.14364 22.6472 8.02947C22.6433 8.01678 22.6394 8.00832 22.6355 7.99564C22.6122 7.89415 22.6588 7.78844 22.7481 7.74615C22.8451 7.69964 22.9538 7.74615 23.0043 7.84764V7.86033C23.0043 7.86033 23.012 7.86878 23.0159 7.87301L23.2449 7.78844L24.3745 7.36558L24.3512 7.3402L24.3435 7.33175L24.324 7.31061L24.2891 7.30215L23.5361 6.67209C22.3871 6.60866 21.7505 5.9194 21.4672 4.98066L21.4477 4.96374H21.4633L21.4594 4.94683L21.4788 4.96374C22.3832 4.98488 23.1712 5.44157 23.5671 6.60866L23.8971 6.82855C23.8544 6.77781 23.8117 6.72707 23.7729 6.67209C23.9592 6.79895 24.13 6.91735 24.293 7.02729C24.1455 6.54523 23.9009 5.80946 23.7806 5.45426C23.7651 5.45849 23.7496 5.46271 23.734 5.46694C23.7224 5.46694 23.7107 5.46694 23.6991 5.46694C23.6215 5.46694 23.5438 5.4162 23.505 5.33586C23.4623 5.24283 23.474 5.13711 23.5322 5.061C23.5516 5.03562 23.5749 5.01871 23.5982 5.0018C23.7107 4.93837 23.8466 4.98488 23.9048 5.10751C23.963 5.23014 23.9204 5.37814 23.8117 5.44157C23.8117 5.44157 23.8039 5.4458 23.8 5.4458L24.4793 7.15838C24.7666 7.35289 25.0344 7.54318 25.3333 7.75038L25.2556 7.20912L25.244 7.13723C24.4521 6.26192 24.4017 5.30203 24.7627 4.40134V4.37597L24.7704 4.38865L24.7782 4.37174V4.40134C25.442 5.06945 25.7486 5.97014 25.3449 7.11186L25.6011 7.9449L25.8107 8.09713L25.8767 8.16055C25.9233 7.79266 25.9893 7.18798 26.0164 6.90043C26.0164 6.90043 25.9893 6.89198 25.9776 6.88775C25.9155 6.86238 25.8728 6.79895 25.8728 6.72283C25.8728 6.66363 25.8961 6.60866 25.9388 6.57483C25.966 6.55369 26.0009 6.53678 26.0358 6.53678C26.129 6.53678 26.2066 6.61289 26.2066 6.71438C26.2066 6.81586 26.1368 6.90043 26.0436 6.90043C26.0436 6.90043 26.0358 6.90043 26.032 6.90043L25.966 8.24512C26.2222 8.49038 26.4706 8.7441 26.7074 9.0105C26.8626 9.1881 27.0179 9.36993 27.1654 9.55599L27.1382 9.36993C26.3464 8.49461 26.2998 7.53472 26.6569 6.63403V6.60866L26.6647 6.62135L26.6724 6.60443V6.6298C27.3362 7.29792 27.6428 8.19861 27.2392 9.34033L27.3983 9.85622C27.5264 10.0254 27.6506 10.1987 27.7709 10.3763C27.8136 10.0169 27.8602 9.56445 27.8874 9.32765C27.8874 9.32765 27.8602 9.31919 27.8486 9.31496C27.7865 9.28959 27.7438 9.22616 27.7438 9.15005C27.7438 9.09085 27.7671 9.03587 27.8098 9.00204C27.8369 8.9809 27.8719 8.96399 27.9068 8.96399C28 8.96399 28.0776 9.0401 28.0776 9.14159C28.0776 9.24307 28.0077 9.32765 27.9146 9.32765C27.9146 9.32765 27.9068 9.32765 27.9029 9.32765L27.8447 10.4863C28.1009 10.8753 28.3415 11.2813 28.5589 11.6999L28.621 11.3151C28.0737 10.1057 28.3299 9.08238 28.9937 8.27895V8.24936L29.0053 8.26627L29.0169 8.25358V8.28318C29.4866 9.22616 29.5177 10.2833 28.7336 11.3235V12.0466C28.8306 12.2454 28.9238 12.4526 29.0131 12.6598C29.1373 12.3299 29.2887 11.9113 29.3702 11.6872C29.3702 11.6872 29.3469 11.6703 29.3352 11.6618C29.2809 11.6195 29.2537 11.5434 29.2693 11.4715C29.2809 11.4123 29.3197 11.3701 29.3624 11.3489C29.3702 11.3489 29.3818 11.3405 29.3896 11.3405C29.4129 11.332 29.4439 11.332 29.4711 11.3405C29.5604 11.3658 29.6147 11.4631 29.5953 11.5603C29.572 11.6576 29.4827 11.7168 29.3935 11.6957H29.3857L29.0596 12.7824C29.1412 12.9727 29.2149 13.1672 29.2887 13.3659L29.343 13.5097L29.6962 12.9431C29.6574 11.5942 30.2746 10.778 31.1829 10.3425L31.1984 10.3171V10.334L31.214 10.3256L31.1984 10.351C31.2722 11.425 30.9034 12.4018 29.7972 12.9938L29.4556 13.8226C29.5526 14.1229 29.6419 14.4231 29.7234 14.7318C29.9641 14.3174 30.2668 13.7677 30.426 13.4759L30.4337 13.4632C30.4337 13.4632 30.4105 13.4463 30.3988 13.4336C30.3328 13.3659 30.3057 13.256 30.3445 13.1545C30.3949 13.0277 30.5269 12.9727 30.6434 13.0234C30.7598 13.0784 30.8103 13.2222 30.7637 13.349C30.7132 13.4759 30.5812 13.5309 30.4648 13.4801C30.4609 13.4801 30.457 13.4801 30.4532 13.4759L29.77 14.9009C29.8942 15.4041 29.9912 15.92 30.065 16.4444L30.228 16.1822C30.1814 14.6345 30.8918 13.7 31.9321 13.201L31.9476 13.1714V13.1926L31.967 13.1841L31.9515 13.2137C32.0369 14.4442 31.6138 15.5648 30.3406 16.2456L30.1077 16.808C30.1465 17.1759 30.1737 17.5438 30.1892 17.9201C30.4066 17.5396 30.6472 17.0998 30.7831 16.8545L30.7909 16.8418C30.7909 16.8418 30.7676 16.8249 30.7559 16.8122C30.6899 16.7446 30.6666 16.6346 30.7016 16.5374C30.752 16.4105 30.884 16.3556 31.0005 16.4063C31.1169 16.4613 31.1674 16.605 31.1208 16.7319C31.0703 16.8588 30.9384 16.9137 30.8219 16.863C30.818 16.863 30.8141 16.863 30.8103 16.8588L30.197 18.14C30.197 18.25 30.197 18.3599 30.197 18.4699C30.197 18.8547 30.1814 19.2395 30.1543 19.6158L30.5386 19.1803C30.7559 17.4973 31.6875 16.6304 32.8986 16.3048L32.9219 16.2752V16.3006L32.9413 16.2964L32.918 16.326C32.7977 17.6749 32.1417 18.7997 30.6511 19.2775L30.1038 20.1613C30.065 20.5165 30.0106 20.8675 29.9485 21.2142C30.2241 20.9013 30.5308 20.5545 30.7093 20.3473L30.7249 20.3304C30.7249 20.3304 30.7055 20.3093 30.6977 20.2966C30.6434 20.212 30.6434 20.0979 30.6977 20.0133C30.7714 19.9033 30.9112 19.878 31.016 19.9583C31.1169 20.0387 31.1402 20.1909 31.0665 20.3051C30.9927 20.415 30.853 20.4404 30.7482 20.36C30.7482 20.36 30.7404 20.3558 30.7365 20.3516L29.9058 21.4299C29.8282 21.8274 29.7312 22.2164 29.6225 22.597L30.3445 22.1783C31.0781 20.5334 32.2931 19.9837 33.6283 20.0852L33.6594 20.064L33.6516 20.0894H33.6749L33.64 20.1148C33.1082 21.451 32.0951 22.3686 30.426 22.3179L29.4517 23.1467C29.4012 23.2989 29.3508 23.4511 29.2925 23.5991C29.2149 23.8106 29.1334 24.0178 29.0441 24.225C29.4323 24.0093 29.9291 23.726 30.2086 23.5653L30.2474 23.5442C30.2474 23.5442 30.2397 23.5188 30.2358 23.5061C30.2086 23.4088 30.2358 23.2947 30.3212 23.2312C30.4221 23.1509 30.5657 23.1763 30.6395 23.2904C30.7132 23.4004 30.6899 23.5568 30.5851 23.6372C30.4842 23.7175 30.3406 23.6922 30.2668 23.578C30.2668 23.578 30.263 23.5695 30.2591 23.5653L28.9626 24.4195C28.7608 24.8762 28.5395 25.3159 28.295 25.7388L29.2266 25.447C30.4609 23.726 32.0097 23.4088 33.5468 23.8951L33.5895 23.8782L33.574 23.9036L33.6012 23.912L33.5585 23.929C32.6308 25.3455 31.2372 26.1447 29.2964 25.6331L27.9146 26.3646C27.7205 26.6649 27.5148 26.9524 27.3013 27.2315C27.67 27.1004 28.0815 26.9439 28.3377 26.8467L28.3998 26.8255C28.3998 26.8255 28.392 26.8044 28.392 26.7917C28.3765 26.6902 28.4231 26.5803 28.5123 26.5295C28.6249 26.4661 28.7608 26.5169 28.8151 26.6395C28.8733 26.7621 28.8267 26.9101 28.7142 26.9735C28.6016 27.037 28.4658 26.9862 28.4075 26.8636C28.4075 26.8594 28.4036 26.8551 28.4036 26.8509L27.1576 27.4133C27.0101 27.5951 26.8626 27.7727 26.7074 27.9461C26.4201 28.2675 26.1212 28.5719 25.8068 28.8595L26.7734 28.8088C28.4735 27.3245 30.1853 27.4133 31.6992 28.3478H31.7496L31.7263 28.3647L31.7535 28.3817H31.703C30.3949 29.6291 28.7414 30.0942 26.8044 29.0244L25.1431 29.4261C24.8636 29.646 24.5802 29.8532 24.2852 30.0477C24.4056 30.0435 24.5298 30.035 24.654 30.0308C24.98 30.0139 25.3022 29.997 25.5041 29.9843C25.5041 29.9758 25.5041 29.9632 25.5041 29.9547C25.5118 29.849 25.5856 29.756 25.6865 29.7348C25.8107 29.7094 25.9272 29.7982 25.9505 29.9293C25.9737 30.0646 25.8922 30.1915 25.768 30.2169C25.6438 30.2422 25.5274 30.1534 25.5041 30.0224C25.5041 30.0181 25.5041 30.0139 25.5041 30.0097L24.0717 30.183C23.6758 30.4325 23.2644 30.6566 22.8413 30.8512C22.6705 30.9315 22.4958 31.0076 22.3211 31.0795L22.915 31.2106C25.0499 30.145 26.8199 30.7285 28.1785 32.1366L28.2329 32.1451L28.2018 32.162L28.2251 32.1874L28.1707 32.1789C26.5016 33.105 24.6579 33.1135 22.8917 31.4389L21.4439 31.3924C21.3546 31.4178 21.2692 31.4474 21.1799 31.4685C20.5744 31.6377 19.9456 31.7561 19.309 31.8195C20.0892 32.1493 21.2498 32.7921 21.9174 33.2741C22.2357 33.5067 22.4453 33.7012 22.4453 33.8069C22.4453 33.9084 22.3716 33.9296 22.3172 33.9803H22.0261C21.7428 33.7647 21.5137 33.4983 21.2265 33.2741C20.9936 33.0923 20.5899 32.8217 20.3376 32.661C20.1435 32.5384 19.3206 32.0901 18.7772 31.8533C18.618 31.8618 18.455 31.866 18.292 31.866C18.1289 31.866 17.9737 31.866 17.8145 31.8576C17.2672 32.0986 16.4327 32.5468 16.2425 32.6652C16.0057 32.8132 15.5632 33.105 15.3536 33.2741C15.1207 33.4644 14.9227 33.6759 14.7015 33.8661C14.6549 33.9084 14.6083 33.9465 14.5578 33.9845H14.2667C14.2124 33.9296 14.1386 33.9084 14.1386 33.8112C14.1386 33.7773 14.1735 33.7266 14.2318 33.6632C14.5578 33.3164 15.6447 32.6399 15.8854 32.5257C16.2075 32.3777 16.5258 32.1705 16.8868 32.0352C17.0071 31.9929 17.1741 31.9083 17.3487 31.828C16.5841 31.7603 15.8427 31.6123 15.1246 31.3882C14.814 31.2909 14.5113 31.1852 14.2124 31.0626H14.2046L14.193 31.0541C14.1037 31.0161 14.0144 30.9822 13.929 30.94C13.863 30.9104 13.8009 30.8808 13.7388 30.8512C13.4477 30.7158 13.1643 30.5678 12.8887 30.4114C12.7723 30.3437 12.6558 30.2761 12.5433 30.2042C12.4617 30.1534 12.3841 30.1027 12.3065 30.052L12.2948 30.0435C12.0231 29.8659 11.7592 29.6756 11.503 29.4726L9.63979 29.0202L9.58933 28.9906ZM27.6234 12.0551L28.4735 12.9177L28.3144 12.4695L27.6623 11.9705C27.3672 10.8288 26.6453 10.3256 25.7797 10.2241L25.7603 10.2072V10.2241H25.7486L25.768 10.241C25.9699 11.1713 26.5288 11.8902 27.6234 12.0551ZM27.4332 26.1363L27.8059 25.5147L27.7903 24.1742C28.8384 22.7407 28.7724 21.303 28.1086 20.0344V19.9921L28.097 20.0133L28.0854 19.9921V20.0344C27.1926 21.1465 26.8704 22.5547 27.6584 24.2038L27.4294 26.1405L27.4332 26.1363Z" fill="url(#paint0_linear_789_12807)"/>
<path fill-rule="evenodd" clip-rule="evenodd" d="M7.57544 5.19294C7.78893 4.85465 8.00242 4.55442 8.21591 4.27956C8.46822 3.95396 8.72052 3.66219 8.98059 3.39156C9.22902 3.12938 9.49685 2.8799 9.78021 2.63041C10.0131 2.42744 10.2577 2.22447 10.5138 2.01726C12.148 3.16321 13.8831 3.74253 15.2883 4.03008C16.7128 4.32185 17.8074 4.31762 18.118 4.30916H18.1452C18.1452 4.30916 18.1607 4.30916 18.1723 4.30916H18.1995C18.3315 4.30916 18.6653 4.31762 19.135 4.28802C19.6124 4.25842 20.2374 4.19076 20.9516 4.05121C21.759 3.89053 22.6828 3.63682 23.6338 3.23087C24.3558 2.92219 25.0933 2.5247 25.8153 2.01726C26.0637 2.21601 26.3082 2.41898 26.545 2.63041C26.8245 2.87567 27.0923 3.12939 27.3485 3.39579C27.6125 3.66642 27.8648 3.96242 28.1132 4.28379C28.3267 4.55865 28.5402 4.86311 28.7537 5.19294C28.4548 5.74266 28.0977 6.4446 27.7639 7.32837C27.3951 8.30095 27.0574 9.48918 26.8594 10.9142C26.6459 12.4365 26.5916 14.2294 26.8323 16.3226C27.0652 18.3692 27.5814 20.7076 28.5053 23.3632C28.1287 23.896 27.6202 24.5134 26.9953 25.1899C26.3199 25.9172 25.5164 26.708 24.6003 27.541C23.6843 28.3741 22.6479 29.2494 21.5183 30.1458C20.4897 30.962 19.3873 31.7865 18.2228 32.6069C17.0234 31.8119 15.9365 31.0338 14.9622 30.2896C13.8249 29.4227 12.8273 28.5897 11.9539 27.8074C10.9758 26.9279 10.1606 26.116 9.49685 25.3929C8.75546 24.5852 8.20426 23.896 7.83163 23.359C8.75546 20.7034 9.26783 18.365 9.50461 16.3184C9.74528 14.2252 9.69093 12.4323 9.47744 10.91C9.27948 9.48495 8.94178 8.30095 8.57302 7.32414C8.2392 6.44037 7.88209 5.73419 7.5832 5.18871L7.57544 5.19294ZM7.79281 3.89053C7.52886 4.23305 7.27267 4.5967 7.02036 5.00265L7.79281 3.89053ZM8.59631 2.96024C8.31683 3.25201 8.049 3.55647 7.79281 3.89053L8.59631 2.96024ZM9.43086 2.16527C9.14362 2.41898 8.86802 2.67692 8.59631 2.96024L9.43086 2.16527ZM10.343 1.40835C10.0248 1.65783 9.72587 1.90732 9.43086 2.16527L10.343 1.40835ZM10.673 1.40835H10.343C10.444 1.32378 10.5798 1.328 10.673 1.40835ZM15.3892 3.43807L10.673 1.40835C12.2761 2.57121 13.9996 3.15053 15.3892 3.43807ZM18.118 3.70447L15.3892 3.43807C16.7866 3.72561 17.8424 3.71716 18.118 3.70447ZM18.1413 3.70447C18.1413 3.70447 18.1257 3.70447 18.118 3.70447H18.1413ZM18.2073 3.70447C18.2073 3.70447 18.1917 3.70447 18.184 3.70447H18.2073ZM19.0962 3.68333L18.2073 3.70447C18.3315 3.70447 18.642 3.71293 19.0962 3.68333ZM20.8468 3.45499L19.0962 3.68333C19.5581 3.65373 20.1636 3.5903 20.8468 3.45499ZM23.4242 2.66424L20.8468 3.45499C21.6231 3.30276 22.5081 3.05327 23.4242 2.66424ZM25.6639 1.39989L23.4242 2.66424C24.1656 2.34709 24.9264 1.9327 25.6639 1.39989ZM25.99 1.41681L25.6639 1.39989C25.7687 1.32378 25.9007 1.33646 25.99 1.41681ZM26.8866 2.16104C26.6071 1.91578 26.3082 1.67052 25.99 1.41681L26.8866 2.16104ZM27.725 2.96024C27.4572 2.68115 27.1777 2.41898 26.8866 2.16104L27.725 2.96024ZM28.5324 3.89476C28.2685 3.55647 28.0006 3.24778 27.725 2.96024L28.5324 3.89476ZM29.3088 5.01533C29.0526 4.60516 28.7964 4.23728 28.5324 3.89476L29.3088 5.01533ZM29.3165 5.34094L29.3088 5.01533C29.3709 5.11682 29.3709 5.24368 29.3165 5.34094ZM28.2724 7.56094L29.3165 5.34094C29.006 5.89911 28.6256 6.63065 28.2724 7.56094ZM27.4029 11.0072L28.2724 7.56094C27.9191 8.49546 27.597 9.63296 27.4029 11.0072ZM27.3796 16.2507L27.4029 11.0072C27.1971 12.4788 27.1467 14.2167 27.3796 16.2507ZM29.0759 23.304L27.3796 16.2507C27.6125 18.2931 28.1365 20.6357 29.0759 23.304ZM29.0293 23.6084L29.0759 23.304C29.1147 23.4097 29.0914 23.5281 29.0293 23.6084ZM27.3835 25.617C28.0744 24.8728 28.6295 24.1962 29.0293 23.6084L27.3835 25.617ZM24.9497 28.0019C25.8851 27.1562 26.7003 26.3528 27.3835 25.617L24.9497 28.0019ZM21.8366 30.6364C22.9662 29.7399 24.0103 28.8561 24.9497 28.0019L21.8366 30.6364ZM18.3664 33.22C19.593 32.3574 20.7575 31.4905 21.8366 30.6364L18.3664 33.22ZM18.0753 33.2243H18.3664C18.2732 33.2835 18.1607 33.2835 18.0753 33.2243ZM14.6361 30.7886C15.6725 31.5793 16.8176 32.3997 18.0753 33.2243L14.6361 30.7886ZM11.5968 28.2768C12.4741 29.0675 13.4872 29.909 14.6361 30.7886L11.5968 28.2768ZM9.10092 25.8242C9.77245 26.5558 10.5992 27.3803 11.5968 28.2768L9.10092 25.8242ZM7.29208 23.5873C7.68024 24.1624 8.27413 24.9235 9.10092 25.8242L7.29208 23.5873ZM7.25714 23.2998L7.29208 23.5873C7.23385 23.5027 7.22609 23.3928 7.25714 23.2998ZM8.94954 16.2465L7.25714 23.2998C8.1965 20.6273 8.71664 18.2889 8.94954 16.2465ZM8.92625 11.003L8.94954 16.2465C9.18244 14.2125 9.13198 12.4746 8.92625 11.003ZM8.05676 7.55672L8.92625 11.003C8.73217 9.62872 8.40999 8.49124 8.05676 7.55672ZM7.0126 5.33671L8.05676 7.55672C7.70353 6.62643 7.32313 5.89065 7.0126 5.33671ZM7.83939 2.08492C7.50557 2.4359 7.17951 2.81224 6.86122 3.23087C6.54292 3.6495 6.23627 4.11042 5.92962 4.6263C5.83258 4.77008 5.77436 4.94345 5.76659 5.12105C5.75883 5.29865 5.79765 5.48048 5.88692 5.64117L5.89857 5.66231C6.17805 6.15706 6.56233 6.83785 6.92332 7.73854C7.2882 8.64769 7.63366 9.78518 7.82774 11.1764C8.02571 12.593 8.07229 14.2717 7.83163 16.2507C7.59097 18.2381 7.06306 20.53 6.11594 23.1602C6.11594 23.1687 6.11206 23.1729 6.10818 23.1814C6.06548 23.3124 6.04995 23.452 6.06548 23.5915C6.081 23.7353 6.12758 23.8748 6.20522 24.0017C6.58174 24.6064 7.21445 25.4479 8.13439 26.4712C8.86414 27.2789 9.78021 28.2049 10.8942 29.2029C11.8336 30.0444 12.9088 30.9408 14.1354 31.8711C15.23 32.6999 16.4489 33.5625 17.8036 34.4463L17.8191 34.4548C17.9472 34.5351 18.0947 34.5732 18.2422 34.5732C18.3897 34.5732 18.5411 34.5267 18.6769 34.4336C19.9851 33.5245 21.2194 32.6111 22.3567 31.7104C23.56 30.7632 24.6663 29.8245 25.66 28.9238C26.7042 27.9766 27.6125 27.0759 28.3578 26.2555C29.1224 25.414 29.7202 24.6571 30.1278 24.0102V24.0017C30.2093 23.8833 30.2559 23.7438 30.2714 23.6C30.2869 23.4562 30.2714 23.3082 30.2209 23.1602C29.2738 20.53 28.7459 18.2381 28.5053 16.2507C28.2646 14.2717 28.3112 12.593 28.5053 11.1764C28.6993 9.78518 29.0448 8.64769 29.4097 7.73854C29.7746 6.83363 30.1666 6.13591 30.4461 5.63694C30.4538 5.62425 30.4616 5.60734 30.4655 5.59042C30.5315 5.45511 30.5664 5.30711 30.5664 5.15488V5.14642C30.5664 4.98574 30.5198 4.82505 30.4383 4.67705C30.1239 4.14002 29.8056 3.66641 29.4873 3.23933C29.1651 2.80801 28.8352 2.42744 28.4975 2.07646C28.1637 1.72972 27.8221 1.41258 27.465 1.10389C27.104 0.790972 26.7313 0.494972 26.3393 0.186285H26.3354C26.1957 0.0678846 26.0249 0.00445473 25.8502 0.000226142C25.6755 -0.00400245 25.497 0.0509708 25.3417 0.1736C24.6391 0.727545 23.9055 1.15041 23.1874 1.47178C22.2907 1.8735 21.4174 2.11875 20.6605 2.27098C20.0394 2.39361 19.4921 2.45281 19.0729 2.48241C18.6692 2.50778 18.3936 2.50779 18.2694 2.50356C18.25 2.50356 18.2305 2.50355 18.2111 2.49932H18.1995C18.1995 2.49932 18.1646 2.49932 18.149 2.49932C18.1374 2.49932 18.1257 2.49932 18.1141 2.49932C17.8036 2.51201 14.0888 2.61773 10.9874 0.177833L10.968 0.165147C10.8321 0.0636612 10.6691 0.00868513 10.5022 0.00868513C10.3353 0.00868513 10.1645 0.0636565 10.0209 0.1736C9.62495 0.482287 9.25231 0.778291 8.88743 1.09544C8.52644 1.40835 8.17709 1.72972 7.83939 2.08492ZM7.2882 3.61567L29.9648 5.35362L29.9764 5.33248C30.0036 5.28173 30.0191 5.22677 30.0191 5.17179C30.0191 5.11682 30.0036 5.06185 29.9764 5.01533C29.6736 4.49944 29.3709 4.04699 29.0642 3.63682C28.7576 3.23087 28.4431 2.86721 28.1171 2.52893C27.7988 2.19487 27.4689 1.89041 27.1195 1.59018C26.774 1.29418 26.4092 0.998179 26.0171 0.693721C26.0094 0.689492 26.0016 0.681031 25.9938 0.676803C25.9473 0.638746 25.8929 0.621831 25.8386 0.617603C25.7803 0.617603 25.7221 0.634517 25.6678 0.676803C24.9303 1.26035 24.1578 1.70435 23.397 2.04264C22.4615 2.46127 21.5493 2.71921 20.7575 2.87567C20.1054 3.00253 19.5387 3.06596 19.1078 3.09556C18.6769 3.12516 18.3664 3.12093 18.2422 3.1167C18.2344 3.1167 18.2228 3.1167 18.215 3.1167C18.2073 3.1167 18.1995 3.1167 18.1878 3.1167H18.1529H18.1452C17.8152 3.12939 13.918 3.23933 10.6691 0.681029C10.6225 0.642972 10.5643 0.621829 10.51 0.621829C10.4556 0.621829 10.3974 0.638746 10.3469 0.676803C9.951 0.98549 9.58225 1.28149 9.2329 1.57749C8.88355 1.88195 8.54585 2.19064 8.21979 2.52893C7.89761 2.86299 7.58708 3.22242 7.2882 3.6199V3.61567ZM6.39154 4.96459C6.69042 4.46139 6.98543 4.01739 7.2882 3.61567L6.39154 4.96459ZM6.37213 4.99419L6.39154 4.96459C6.39154 4.96459 6.37989 4.98574 6.37213 4.99419ZM6.31779 5.15488C6.31779 5.09568 6.33719 5.04071 6.37213 4.99419L6.31779 5.15488ZM6.36048 5.32825C6.32943 5.27328 6.31779 5.21408 6.31779 5.15488L6.36048 5.32825ZM7.43182 7.50174L6.37213 5.34939C6.65937 5.86105 7.0553 6.56723 7.43182 7.50174ZM8.37894 11.0876C8.17709 9.63718 7.8161 8.45318 7.43182 7.50174L8.37894 11.0876ZM8.38282 16.3268C8.63124 14.2844 8.58467 12.5464 8.37894 11.0876V16.3268H8.38282ZM6.64384 23.3547C7.60261 20.6865 8.13828 18.3565 8.38282 16.3268L6.64384 23.3547ZM6.6322 23.3928L6.64384 23.3547C6.64384 23.3547 6.63608 23.3801 6.6322 23.3928ZM6.62055 23.5239C6.61667 23.4816 6.62055 23.4351 6.6322 23.3928L6.62055 23.5239ZM6.66713 23.6592C6.63996 23.6169 6.62444 23.5704 6.62055 23.5239L6.66713 23.6592ZM8.5342 26.0441L6.66713 23.6592C7.02813 24.2385 7.64143 25.0546 8.5342 26.0441ZM11.2514 28.7335L8.5342 26.0441C9.25619 26.8433 10.1567 27.7525 11.2514 28.7335ZM14.4576 31.3721L11.2514 28.7335C12.1713 29.5581 13.2349 30.4418 14.4576 31.3721ZM18.0714 33.9135L14.4576 31.3721C15.5445 32.1967 16.7478 33.0509 18.0714 33.9135ZM18.1063 33.9347L18.0714 33.9135C18.0714 33.9135 18.0947 33.9262 18.1063 33.9347ZM18.2383 33.9685C18.1917 33.9685 18.1452 33.9558 18.1063 33.9347L18.2383 33.9685ZM18.3819 33.922C18.3354 33.9516 18.2888 33.9685 18.2383 33.9685L18.3819 33.922ZM22.0346 31.2199L18.3819 33.922C19.6706 33.0297 20.8934 32.1206 22.0346 31.2199ZM25.3068 28.4586L22.0346 31.2199C23.2379 30.2727 24.3364 29.3424 25.3068 28.4586ZM27.9657 25.8284L25.3068 28.4586C26.3315 27.5283 27.2282 26.6403 27.9657 25.8284ZM29.6697 23.6676L27.9657 25.8284C28.7032 25.0166 29.2816 24.285 29.6697 23.6676ZM29.7202 23.5239C29.7163 23.5704 29.7008 23.6169 29.6775 23.655L29.7202 23.5239ZM29.7047 23.3759C29.7202 23.4224 29.728 23.4731 29.7202 23.5239L29.7047 23.3759ZM27.9541 16.3268C28.1986 18.3608 28.7382 20.6992 29.7008 23.3759L27.9502 16.3268H27.9541ZM27.9541 11.0876C27.7483 12.5507 27.7018 14.2844 27.9541 16.3268V11.0876ZM28.9012 7.49752C28.5169 8.44895 28.1559 9.63718 27.9541 11.0876L28.9012 7.49752Z" fill="url(#paint1_linear_789_12807)"/>
<path fill-rule="evenodd" clip-rule="evenodd" d="M7.24599 5.18554C7.74672 4.37788 8.25133 3.73936 8.787 3.18119C9.30714 2.63993 9.87386 2.15787 10.5027 1.6589C13.7904 4.05651 17.5634 4.03536 18.1224 4.01845C18.1456 4.01845 18.1689 4.01845 18.1922 4.01845C18.4368 4.0269 19.4965 4.04382 20.8977 3.76473C22.3339 3.48142 24.1389 2.88519 25.8196 1.6589C26.4446 2.15787 27.0113 2.6357 27.5353 3.18542C28.0749 3.74782 28.5795 4.38211 29.0802 5.18977C28.4553 6.3188 27.5237 8.17092 27.1316 10.966C26.7124 13.9599 26.922 18.0278 28.8163 23.415C28.0399 24.5609 26.6348 26.0832 24.7716 27.7747C22.9628 29.4154 20.7308 31.2083 18.2194 32.9674C15.5605 31.2167 13.4333 29.5338 11.772 28.0453C9.57497 26.0705 8.20476 24.4383 7.51382 23.4108C9.40806 18.0193 9.61767 13.9514 9.19846 10.9576C8.80641 8.15824 7.87482 6.31034 7.24987 5.18131L7.24599 5.18554ZM8.0262 2.3101C7.3702 2.99513 6.76078 3.78165 6.15137 4.80496C6.01551 4.99948 5.99222 5.27011 6.11643 5.49C6.68703 6.4964 7.70014 8.29778 8.09607 11.1394C8.49976 14.0148 8.27851 17.9686 6.36874 23.2754C6.30275 23.453 6.31828 23.6645 6.42696 23.8336C7.09072 24.8992 8.57739 26.7387 11.0655 28.9714C12.8239 30.5528 15.0947 32.3331 17.9399 34.1894C18.1146 34.3036 18.3397 34.3078 18.5222 34.181C21.1927 32.3288 23.5644 30.4302 25.4781 28.6965C27.5625 26.8063 29.1035 25.098 29.8915 23.8463C29.9963 23.6856 30.0273 23.4742 29.9575 23.2754C28.0438 17.9686 27.8265 14.0148 28.2301 11.1394C28.6261 8.29778 29.6431 6.4964 30.2098 5.49C30.3185 5.29971 30.3224 5.05022 30.2059 4.85148C29.5887 3.79856 28.9715 2.99936 28.3039 2.30587C27.6518 1.62507 26.957 1.05421 26.1768 0.441064C25.9866 0.276149 25.711 0.259231 25.5052 0.424146C23.8905 1.69695 22.1088 2.29318 20.7114 2.57227C19.4382 2.82598 18.4872 2.8133 18.2543 2.80908C18.2233 2.80485 18.1883 2.80484 18.1573 2.80484C18.1456 2.80484 14.1437 3.03319 10.8326 0.428379C10.6463 0.280378 10.3862 0.271921 10.1883 0.428379C9.4003 1.04152 8.70161 1.61661 8.03396 2.31433L8.0262 2.3101Z" fill="url(#paint2_linear_789_12807)"/>
<path d="M6.58984 5.17225C7.76986 3.16367 8.94988 2.11921 10.4987 0.914062C13.965 3.64573 18.1688 3.4047 18.1688 3.4047" stroke="#8F6137" stroke-width="0.303049" stroke-miterlimit="2.61"/>
<path d="M18.168 3.4043V3.40857" stroke="#8F6137" stroke-width="0.303049" stroke-miterlimit="2.61"/>
<path d="M18.1688 3.40861C18.3629 3.41706 22.4347 3.58621 25.8234 0.917969C27.3722 2.12312 28.5522 3.16757 29.7322 5.17615C28.5522 7.26508 25.5284 12.6481 29.4372 23.4986C27.9777 25.8328 23.7351 29.85 18.2231 33.6768C11.4458 29.2622 7.98723 25.2619 6.88485 23.4986C10.7937 12.6481 7.76986 7.26508 6.58984 5.17615" stroke="#8F6137" stroke-width="0.303049" stroke-miterlimit="2.61"/>
<path fill-rule="evenodd" clip-rule="evenodd" d="M6.58984 5.17225C7.76986 3.16367 8.94988 2.11921 10.4987 0.914062C13.965 3.64573 18.1688 3.4047 18.1688 3.4047C18.3629 3.41739 22.4347 3.5823 25.8234 0.914062C27.3722 2.11921 28.5522 3.16367 29.7322 5.17225C28.5522 7.26118 25.5284 12.6442 29.4372 23.4947C27.9777 25.8289 23.7351 29.8461 18.2231 33.6729C11.4458 29.2583 7.98723 25.258 6.88485 23.4947C10.7937 12.6442 7.76986 7.26118 6.58984 5.17225Z" fill="url(#paint3_radial_789_12807)"/>
<path fill-rule="evenodd" clip-rule="evenodd" d="M26.3837 25.8968C26.4031 25.846 26.4264 25.7995 26.4536 25.753C26.7641 25.2117 27.5599 24.9749 28.5807 24.9707C29.5783 24.9707 30.7971 25.1906 31.9772 25.5669C32.5206 25.7403 33.0601 25.9475 33.5648 26.1843C33.6075 26.2012 33.623 26.2477 33.6036 26.2816C33.5919 26.2985 33.5764 26.3112 33.557 26.3154L31.4997 26.9159L32.738 28.8018C32.7613 28.8356 32.7496 28.8822 32.7069 28.8991C32.6797 28.9118 32.6487 28.9118 32.6254 28.8991C31.5075 28.362 30.5759 28.0829 29.819 27.9941C28.9611 27.8927 28.3284 28.0364 27.917 28.3324C27.882 28.3578 27.8277 28.3536 27.8005 28.3197C27.8005 28.3197 27.7966 28.3155 27.7928 28.3113C27.6724 28.1464 27.521 27.9603 27.358 27.7616C26.8262 27.1146 26.209 26.3619 26.3837 25.8968ZM26.6011 25.8207C26.5778 25.8587 26.5584 25.901 26.5429 25.9475C26.3954 26.3408 26.9854 27.0596 27.49 27.677C27.6336 27.8504 27.7695 28.0153 27.8781 28.1633C28.3245 27.88 28.9689 27.7447 29.8306 27.8461C30.5487 27.9307 31.4221 28.1802 32.4468 28.6538L31.3018 26.9116C31.3018 26.9116 31.2979 26.9032 31.294 26.8989C31.2785 26.8609 31.3018 26.8186 31.3445 26.8059L33.3086 26.2308C32.8661 26.0321 32.3964 25.8545 31.9189 25.7023C30.7583 25.3301 29.5589 25.1103 28.5807 25.1145C27.622 25.1145 26.8767 25.3301 26.5972 25.8207H26.6011Z" fill="url(#paint4_linear_789_12807)"/>
<path fill-rule="evenodd" clip-rule="evenodd" d="M26.4664 25.9223C27.0099 24.4803 30.775 24.9709 33.531 26.2479L31.3806 26.8737L32.6693 28.8358C30.2394 27.6687 28.6673 27.7025 27.8677 28.2692C27.367 27.5799 26.2568 26.4847 26.4703 25.9223H26.4664Z" fill="url(#paint5_linear_789_12807)"/>
<path fill-rule="evenodd" clip-rule="evenodd" d="M29.734 27.6908C29.8194 26.5999 26.2405 27.1411 26.3686 26.0586C26.3104 26.5111 27.0828 28.1602 27.7 28.8833C28.2357 28.9129 29.2488 29.3907 29.7767 29.4161C29.8155 28.9087 29.6952 28.1983 29.734 27.6908Z" fill="url(#paint6_linear_789_12807)"/>
<path fill-rule="evenodd" clip-rule="evenodd" d="M23.8576 27.888C24.0167 27.6174 24.3272 27.3933 24.8319 27.2707C25.2588 27.1692 25.8333 27.1396 26.5786 27.2199C26.9473 27.258 27.3743 27.3468 27.7935 27.4314C28.5738 27.592 29.3113 27.7443 29.4821 27.5582C29.5092 27.5286 29.5636 27.5244 29.5985 27.5498C29.614 27.5624 29.6257 27.5794 29.6296 27.5963L30.2662 30.4675V30.4759C30.27 30.5309 30.2545 30.5816 30.2157 30.6282C30.107 30.7508 29.8159 30.8269 29.4238 30.8607C29.0473 30.8903 28.5699 30.8861 28.0691 30.8481C26.8658 30.755 25.5228 30.4717 25.1113 30.0531C25.1113 30.0531 25.1075 30.0488 25.1036 30.0446C24.991 29.8882 24.8668 29.7317 24.7426 29.5752C24.2962 29.0044 23.8343 28.4166 23.8459 27.9219C23.8459 27.9092 23.8498 27.8965 23.8576 27.888ZM24.8823 27.4144C24.432 27.5244 24.1565 27.7147 24.0128 27.9472C24.0128 28.387 24.4515 28.9536 24.8784 29.4949C25.0026 29.6556 25.1269 29.8163 25.2394 29.9643C25.6237 30.3491 26.9124 30.6155 28.0769 30.7043C28.5699 30.7423 29.0357 30.7466 29.4044 30.717C29.7538 30.6874 30.0061 30.6282 30.0837 30.5394C30.0954 30.5224 30.1031 30.5055 30.1031 30.4886L29.4937 27.7358C29.1715 27.8669 28.4845 27.7231 27.7625 27.5751C27.351 27.4905 26.9279 27.4017 26.5669 27.3637C25.845 27.2876 25.2938 27.3129 24.8862 27.4102L24.8823 27.4144Z" fill="url(#paint7_linear_789_12807)"/>
<path fill-rule="evenodd" clip-rule="evenodd" d="M23.9279 27.9272C24.2074 27.4536 24.9838 27.1238 26.5675 27.293C27.6388 27.4071 29.2342 27.9399 29.5408 27.6059L30.1774 30.4771C30.255 31.0902 25.9386 30.7985 25.1662 30.0035C24.6655 29.3142 23.9085 28.5235 23.9241 27.923L23.9279 27.9272Z" fill="url(#paint8_linear_789_12807)"/>
<path fill-rule="evenodd" clip-rule="evenodd" d="M28.8197 28.4846C28.9983 27.9899 24.1113 29.195 23.8473 27.918C23.7736 28.3662 23.9017 29.6813 24.9225 30.4424C25.7765 30.5016 27.729 30.5016 28.5752 30.5608C28.614 30.0534 28.777 28.992 28.8197 28.4846Z" fill="url(#paint9_linear_789_12807)"/>
<path fill-rule="evenodd" clip-rule="evenodd" d="M11.433 33.5499C11.4213 33.588 11.4097 33.626 11.3941 33.6599C11.169 34.1377 10.3306 34.3068 9.23983 34.2561C8.17238 34.2053 6.84874 33.9516 5.62991 33.5795C4.75266 33.3089 3.92199 32.9791 3.27763 32.6196C3.23882 32.5985 3.22717 32.5477 3.2427 32.5097C3.2427 32.5012 3.25046 32.497 3.25434 32.4885L4.39166 31.203L2.73032 29.3805C2.69927 29.3467 2.69927 29.296 2.73032 29.2621C2.75361 29.2368 2.78466 29.2325 2.81184 29.2452C3.97245 29.778 5.87445 30.4081 7.46592 30.7548C8.72358 31.0254 9.77162 31.1227 10.0822 30.8478C10.1132 30.8182 10.1637 30.8225 10.187 30.8605C10.187 30.8605 10.1908 30.8648 10.1908 30.869C10.2801 31.0212 10.3733 31.1734 10.4703 31.3384C10.9128 32.0699 11.4524 32.9579 11.433 33.5372C11.433 33.5415 11.433 33.5499 11.433 33.5541V33.5499ZM11.2583 33.5837C11.2699 33.5626 11.2777 33.5372 11.2855 33.5119C11.2971 32.9875 10.777 32.1249 10.3461 31.4187C10.2607 31.2749 10.1753 31.1396 10.1054 31.0212C9.69399 31.2665 8.65371 31.1734 7.43487 30.9113C5.98314 30.5984 4.27521 30.0444 3.0952 29.5454L4.54693 31.1354C4.57798 31.1692 4.57798 31.22 4.54693 31.2538L3.4329 32.5181C4.05396 32.8522 4.83805 33.1609 5.66484 33.4146C6.87591 33.7867 8.18403 34.0362 9.23983 34.0869C10.2724 34.1335 11.0603 33.9939 11.2544 33.5837H11.2583Z" fill="url(#paint10_linear_789_12807)"/>
<path fill-rule="evenodd" clip-rule="evenodd" d="M11.3597 33.5297C11.0103 34.8829 5.78952 33.9314 3.30915 32.5487L4.49694 31.204L2.78125 29.3223C4.87734 30.2864 9.3878 31.5676 10.1292 30.908C10.5717 31.6776 11.383 32.8489 11.3597 33.5297Z" fill="url(#paint11_linear_789_12807)"/>
<path fill-rule="evenodd" clip-rule="evenodd" d="M7.02368 31.6729C7.11683 32.062 11.5031 32.2438 11.4255 33.542C11.4992 33.0346 10.7811 31.1401 9.86504 30.3029C9.08871 30.2564 7.60592 29.6855 6.83736 29.6348C6.79078 30.2056 7.06637 31.0979 7.01979 31.6687L7.02368 31.6729Z" fill="url(#paint12_linear_789_12807)"/>
<path fill-rule="evenodd" clip-rule="evenodd" d="M12.2016 31.2251C12.1162 31.5465 11.5534 31.7367 10.68 31.8171C9.7523 31.9017 8.45971 31.8763 7.01574 31.7621C6.98081 31.7621 6.95363 31.7283 6.94587 31.6945L6.41797 28.227C6.41797 28.227 6.41797 28.2016 6.41797 28.189C6.41797 28.189 6.41797 28.1763 6.42185 28.1721V28.1636C6.52665 27.8507 7.13219 27.7915 7.88911 27.8634C8.62274 27.931 9.50387 28.1086 10.1832 28.2862C10.4743 28.3623 10.7266 28.4384 10.9207 28.5061C10.9401 28.5103 10.9517 28.523 10.9634 28.5399C11.0526 28.6922 11.1458 28.8444 11.2428 29.0093C11.6854 29.7409 12.2288 30.6289 12.2055 31.2082C12.2055 31.2166 12.2055 31.2209 12.2055 31.2251H12.2016ZM10.6684 31.6522C11.468 31.5761 11.9804 31.4281 12.0541 31.187C12.0658 30.6627 11.5456 29.8001 11.1148 29.0939C11.0177 28.9332 10.9246 28.781 10.8469 28.6499C10.6645 28.5864 10.4238 28.5146 10.1482 28.4427C9.47282 28.2651 8.59945 28.0875 7.87747 28.0198C7.19041 27.9564 6.6431 27.9902 6.56935 28.2101L7.08173 31.593C8.49465 31.7029 9.75618 31.7283 10.6645 31.6437L10.6684 31.6522Z" fill="url(#paint13_linear_789_12807)"/>
<path fill-rule="evenodd" clip-rule="evenodd" d="M12.1283 31.1999C11.9731 31.7919 9.77606 31.8976 7.02009 31.6735L6.49219 28.206C6.64357 27.521 9.81099 28.1976 10.8979 28.5781C11.3404 29.3477 12.1516 30.5191 12.1283 31.1956V31.1999Z" fill="url(#paint14_linear_789_12807)"/>
<path fill-rule="evenodd" clip-rule="evenodd" d="M7.69507 30.6708C7.54369 31.3262 12.1279 29.8631 12.2055 31.1909C12.2793 30.6835 11.5379 29.1358 10.4821 28.4296C9.70577 28.3831 8.71983 28.3746 7.95126 28.3281C7.90468 28.899 7.73777 30.0999 7.69507 30.675V30.6708Z" fill="url(#paint15_linear_789_12807)"/>
<g clip-path="url(#clip0_789_12807)">
<g opacity="0.5">
<path d="M11.8351 22.8392C11.6587 22.4867 11.4823 22.1341 11.2832 21.7213C11.1809 21.512 11.1014 21.3628 11.0218 21.2136C10.8406 20.7245 10.6657 20.2322 10.4744 19.748C10.4182 19.6057 10.2004 18.7222 10.101 18.5624C9.9885 17.7402 10.0092 17.712 9.89756 16.8843C9.83701 16.247 9.79364 15.645 9.74349 14.9977C9.73807 14.8445 9.73943 14.7367 9.74033 14.5568C9.72375 14.4009 9.70764 14.317 9.69152 14.2332C9.69152 14.2332 9.69494 14.1873 9.69114 14.1272C9.68414 13.9908 9.68094 13.9145 9.67773 13.8382C9.69481 13.3301 9.71189 12.8221 9.7194 12.2695C9.71509 12.1488 9.72035 12.0727 9.7271 11.9269C9.72305 11.8114 9.71751 11.7657 9.71198 11.72C9.71115 11.6065 9.71032 11.4929 9.71426 11.3171C9.72351 11.1738 9.72798 11.0929 9.73245 11.0119C9.7379 10.8057 9.74334 10.5995 9.74962 10.3051C9.75438 9.97827 9.7583 9.73965 9.80376 9.49933C10.3274 9.46121 10.8095 9.42479 11.3313 9.39358C12.7076 9.29637 13.9984 8.97058 15.2093 8.32665C15.7047 8.06322 16.1577 7.70041 16.6587 7.38085C17.0331 7.14903 17.4265 6.97573 17.712 6.67464C18.0506 6.31756 18.3024 6.29645 18.6159 6.70212C18.7791 6.84084 18.9256 6.95175 19.0894 7.08881C19.2436 7.21729 19.3804 7.31963 19.5456 7.44276C19.8247 7.60916 20.0753 7.75478 20.3449 7.92958C20.8066 8.1666 21.2493 8.37446 21.7194 8.604C22.2953 8.80154 22.8438 8.97738 23.3923 9.15321C23.9145 9.23718 24.4368 9.32114 24.9985 9.39808C25.5267 9.44432 26.0154 9.49757 26.5837 9.55949C26.5837 10.2977 26.5837 11.0639 26.5922 11.8766C26.5984 12.0962 26.5962 12.2693 26.5932 12.5246C26.5973 12.716 26.6022 12.8251 26.6071 12.9342C26.6019 13.0416 26.5968 13.1491 26.5913 13.3388C26.5959 13.5955 26.6007 13.7699 26.6056 13.9443C26.4443 15.5064 26.3148 17.0737 26.1066 18.6279C26.0197 19.2767 25.7657 19.8976 25.5797 20.5594C25.1681 20.1191 24.8035 19.7292 24.3991 19.2881C24.3191 19.1037 24.2179 18.9491 24.2483 18.8402C24.6413 17.4303 24.7724 15.9779 24.8108 14.5144C24.8393 13.4301 24.8164 12.3441 24.8164 11.2783C24.0802 11.1501 23.4288 11.0366 22.7452 10.9077C22.0238 10.6561 21.3346 10.4199 20.6229 10.1566C20.0644 9.83788 19.5284 9.54636 18.9762 9.23176C18.8822 9.16617 18.8044 9.12366 18.7088 9.0519C18.1113 8.60348 18.1113 8.60348 17.759 9.07948C17.0854 9.44933 16.447 9.81955 15.7729 10.194C15.6638 10.2111 15.5862 10.2109 15.5178 10.2389C14.3098 10.7323 13.0775 11.1031 11.79 11.2334C11.6803 11.2445 11.5148 11.4813 11.5036 11.6256C11.4676 12.0916 11.4916 12.5633 11.4865 13.0666C11.4842 13.1458 11.4878 13.1912 11.4863 13.2784C11.4862 13.4601 11.4913 13.6 11.4905 13.7737C11.4884 13.853 11.4921 13.8985 11.4897 13.9791C11.5031 14.2313 11.5225 14.4484 11.5428 14.7111C11.5822 15.3283 11.6208 15.8998 11.654 16.496C11.6511 16.5372 11.6535 16.5538 11.6536 16.6126C11.8609 17.5696 12.0705 18.4845 12.2838 19.4366C12.4271 19.789 12.5669 20.1041 12.7209 20.4531C12.916 20.8318 13.0968 21.1767 13.2839 21.5531C13.3726 21.7003 13.4551 21.816 13.5499 21.9641C13.7145 22.1627 13.7843 22.3077 13.6013 22.534C13.3224 22.8786 13.0828 23.2629 12.7923 23.639C12.6035 23.5575 12.4491 23.4674 12.2921 23.345C12.138 23.1549 11.9865 22.997 11.8351 22.8392Z" fill="#222222"/>
<path d="M17.2443 25.3358C17.4672 25.5607 17.6901 25.7856 17.9396 26.0374C18.812 25.1035 19.6728 24.1831 20.5324 23.2614C21.3726 22.3605 22.2101 21.4566 23.0531 20.559C23.1439 20.4624 23.2639 20.3993 23.3998 20.3333C23.7971 20.7809 24.1649 21.2159 24.4909 21.6015C23.8737 22.3156 23.2597 23.026 22.6337 23.7665C21.2033 25.3069 19.7867 26.8192 18.363 28.3234C18.2465 28.4465 18.0822 28.5146 17.9124 28.5975C16.8525 27.6345 15.8203 26.6823 14.7575 25.7245C14.3923 25.3358 14.0576 24.9529 13.6985 24.5418C14.0525 24.0834 14.4227 23.6039 14.8177 23.0924C15.0724 23.3316 15.3105 23.5552 15.5949 23.818C16.1756 24.3501 16.7099 24.843 17.2443 25.3358Z" fill="#222222"/>
</g>
</g>
<g opacity="0.3" clip-path="url(#clip1_789_12807)">
<path d="M11.8331 22.8392C11.6567 22.4867 11.4804 22.1341 11.2813 21.7213C11.179 21.512 11.0994 21.3628 11.0198 21.2136C10.8387 20.7245 10.6638 20.2322 10.4725 19.748C10.4163 19.6057 10.1984 18.7222 10.099 18.5624C9.98655 17.7402 10.0073 17.712 9.8956 16.8843C9.83506 16.247 9.79169 15.645 9.74154 14.9977C9.73612 14.8445 9.73748 14.7367 9.73837 14.5568C9.7218 14.4009 9.70568 14.317 9.68957 14.2332C9.68957 14.2332 9.69298 14.1873 9.68919 14.1272C9.68219 13.9908 9.67899 13.9145 9.67578 13.8382C9.69286 13.3301 9.70994 12.8221 9.71745 12.2695C9.71314 12.1488 9.7184 12.0727 9.72515 11.9269C9.7211 11.8114 9.71556 11.7657 9.71002 11.72C9.70919 11.6065 9.70836 11.4929 9.71231 11.3171C9.72156 11.1738 9.72603 11.0929 9.7305 11.0119C9.73595 10.8057 9.74139 10.5995 9.74767 10.3051C9.75242 9.97827 9.75634 9.73965 9.80181 9.49933C10.3254 9.46121 10.8075 9.42479 11.3293 9.39358C12.7056 9.29637 13.9965 8.97058 15.2074 8.32665C15.7027 8.06322 16.1558 7.70041 16.6567 7.38085C17.0311 7.14903 17.4246 6.97573 17.7101 6.67464C18.0487 6.31756 18.3004 6.29645 18.614 6.70212C18.7771 6.84084 18.9236 6.95175 19.0875 7.08881C19.2416 7.21729 19.3784 7.31963 19.5437 7.44276C19.8227 7.60916 20.0734 7.75478 20.3429 7.92958C20.8046 8.1666 21.2474 8.37446 21.7175 8.604C22.2933 8.80154 22.8419 8.97738 23.3904 9.15321C23.9126 9.23718 24.4348 9.32114 24.9965 9.39808C25.5247 9.44432 26.0134 9.49757 26.5817 9.55949C26.5817 10.2977 26.5818 11.0639 26.5902 11.8766C26.5965 12.0962 26.5942 12.2693 26.5912 12.5246C26.5954 12.716 26.6003 12.8251 26.6052 12.9342C26.6 13.0416 26.5948 13.1491 26.5894 13.3388C26.5939 13.5955 26.5988 13.7699 26.6037 13.9443C26.4424 15.5064 26.3128 17.0737 26.1046 18.6279C26.0177 19.2767 25.7637 19.8976 25.5777 20.5594C25.1661 20.1191 24.8016 19.7292 24.3971 19.2881C24.3171 19.1037 24.216 18.9491 24.2463 18.8402C24.6394 17.4303 24.7704 15.9779 24.8089 14.5144C24.8374 13.4301 24.8145 12.3441 24.8145 11.2783C24.0783 11.1501 23.4268 11.0366 22.7432 10.9077C22.0218 10.6561 21.3327 10.4199 20.621 10.1566C20.0624 9.83788 19.5264 9.54636 18.9742 9.23176C18.8802 9.16617 18.8024 9.12366 18.7068 9.0519C18.1093 8.60348 18.1094 8.60348 17.7571 9.07948C17.0834 9.44933 16.4451 9.81955 15.771 10.194C15.6619 10.2111 15.5842 10.2109 15.5158 10.2389C14.3078 10.7323 13.0756 11.1031 11.7881 11.2334C11.6783 11.2445 11.5128 11.4813 11.5017 11.6256C11.4656 12.0916 11.4896 12.5633 11.4846 13.0666C11.4822 13.1458 11.4858 13.1912 11.4843 13.2784C11.4843 13.4601 11.4893 13.6 11.4885 13.7737C11.4864 13.853 11.4901 13.8985 11.4878 13.9791C11.5011 14.2313 11.5206 14.4484 11.5409 14.7111C11.5803 15.3283 11.6188 15.8998 11.652 16.496C11.6491 16.5372 11.6516 16.5538 11.6516 16.6126C11.8589 17.5696 12.0686 18.4845 12.2818 19.4366C12.4252 19.789 12.565 20.1041 12.719 20.4531C12.914 20.8318 13.0948 21.1767 13.2819 21.5531C13.3707 21.7003 13.4531 21.816 13.548 21.9641C13.7125 22.1627 13.7824 22.3077 13.5993 22.534C13.3205 22.8786 13.0809 23.2629 12.7903 23.639C12.6016 23.5575 12.4472 23.4674 12.2901 23.345C12.136 23.1549 11.9846 22.997 11.8331 22.8392Z" fill="#222222"/>
<path d="M17.2423 25.3358C17.4652 25.5607 17.6881 25.7856 17.9376 26.0374C18.81 25.1035 19.6708 24.1831 20.5304 23.2614C21.3706 22.3605 22.2081 21.4566 23.0512 20.559C23.1419 20.4624 23.2619 20.3993 23.3978 20.3333C23.7951 20.7809 24.1629 21.2159 24.489 21.6015C23.8717 22.3156 23.2577 23.026 22.6317 23.7665C21.2013 25.3069 19.7847 26.8192 18.3611 28.3234C18.2445 28.4465 18.0802 28.5146 17.9105 28.5975C16.8506 27.6345 15.8183 26.6823 14.7555 25.7245C14.3903 25.3358 14.0557 24.9529 13.6965 24.5418C14.0505 24.0834 14.4208 23.6039 14.8157 23.0924C15.0704 23.3316 15.3085 23.5552 15.5929 23.818C16.1736 24.3501 16.708 24.843 17.2423 25.3358Z" fill="#222222"/>
</g>
<path fill-rule="evenodd" clip-rule="evenodd" d="M7.84106 30.7205C8.20593 30.1412 9.25009 29.879 10.5543 29.8917C11.9478 29.9044 13.6286 30.23 15.0958 30.8178C16.7145 31.4647 18.306 32.0525 19.8936 32.5346C21.485 33.0166 23.0726 33.3972 24.6796 33.6298C25.4948 33.7482 26.3487 33.6974 27.0552 33.486C27.7228 33.2873 28.2585 32.9447 28.5069 32.4669C28.5147 32.4542 28.5186 32.4373 28.5186 32.4246C28.5768 31.7523 28.6234 31.1011 28.67 30.4499C28.7165 29.7987 28.7631 29.1475 28.8213 28.4709C28.8252 28.4159 28.7903 28.3694 28.7398 28.3652C28.701 28.3652 28.6661 28.3863 28.6505 28.4202C28.4603 28.8219 27.9053 29.0925 27.1988 29.249C26.3681 29.4308 25.3356 29.4392 24.4351 29.3039C22.4787 29.0037 20.6699 28.3018 18.9231 27.621C17.7121 27.1516 16.5359 26.6907 15.3598 26.3862C13.9973 26.0352 12.7048 25.8576 11.5985 25.8196C10.5815 25.7858 9.71977 25.8745 9.08706 26.0564C8.43107 26.2467 8.01961 26.5427 7.9381 26.919C7.93034 26.9571 7.92257 26.9994 7.92257 27.0416C7.88764 27.6548 7.84882 28.2595 7.81 28.8557C7.77119 29.4562 7.72849 30.0524 7.67803 30.6486C7.67415 30.7036 7.70908 30.7501 7.75954 30.7543C7.79448 30.7543 7.82553 30.7417 7.84106 30.7121V30.7205ZM10.5543 29.693C9.36654 29.6845 8.38061 29.9002 7.87987 30.378C7.91869 29.879 7.95362 29.3758 7.98856 28.8726C8.02738 28.2722 8.06619 27.6717 8.10113 27.0586C8.10113 27.0586 8.10113 27.0543 8.10113 27.0501C8.10113 27.0205 8.10501 26.9951 8.11277 26.9655C8.17876 26.6653 8.54363 26.42 9.13364 26.2509C9.74694 26.0733 10.5931 25.9887 11.5907 26.0225C12.6892 26.0564 13.9663 26.234 15.3171 26.585C16.4855 26.8852 17.6577 27.3419 18.861 27.8112C20.6155 28.492 22.4322 29.1982 24.4079 29.5027C25.324 29.6422 26.3798 29.6338 27.2299 29.4477C27.8199 29.3209 28.3167 29.1052 28.6117 28.8007C28.5651 29.3547 28.5263 29.9002 28.4875 30.4414C28.4409 31.0842 28.3944 31.7311 28.3361 32.395C28.111 32.8137 27.618 33.1181 27.0047 33.2999C26.3216 33.5029 25.4909 33.5537 24.699 33.4395C23.1037 33.2069 21.5238 32.8306 19.9401 32.3485C18.3564 31.8665 16.7688 31.2829 15.158 30.6359C13.6713 30.0397 11.9672 29.7099 10.5543 29.6972V29.693Z" fill="url(#paint16_linear_789_12807)"/>
<path fill-rule="evenodd" clip-rule="evenodd" d="M7.76758 30.6665C8.55555 29.4191 12.2509 29.5755 15.1311 30.7299C18.3606 32.0239 21.4892 33.0726 24.6915 33.5377C26.2403 33.7618 27.9405 33.3644 28.4257 32.4256C28.5382 31.0767 28.6159 29.8166 28.7284 28.4719C28.2898 29.4022 26.12 29.6686 24.4198 29.4064C21.0971 28.8947 18.2053 27.2329 15.3368 26.4887C11.3814 25.4654 8.03929 25.9263 8.01212 27.0511C7.93837 28.2774 7.86462 29.4656 7.76758 30.6623V30.6665Z" fill="url(#paint17_linear_789_12807)"/>
<path fill-rule="evenodd" clip-rule="evenodd" d="M8.19846 30.0707C8.29938 29.9354 8.45853 29.8297 8.65649 29.7409C8.85834 29.6521 9.10676 29.5887 9.39012 29.5464C10.8574 29.3265 13.2368 29.7028 15.2048 30.4851C16.7497 31.0983 18.2713 31.6649 19.7929 32.1385C21.3145 32.6163 22.8361 33.0054 24.3733 33.2718C24.5829 33.3098 24.7964 33.3352 25.0099 33.3521C25.2233 33.369 25.4368 33.3733 25.6426 33.369C26.7178 33.3479 27.6882 33.0561 28.0453 32.4895L28.0569 32.4599C28.1229 31.9059 28.1773 31.3604 28.2316 30.8192C28.286 30.2779 28.3403 29.7367 28.4063 29.1785L28.2898 29.132C28.2355 29.2292 28.1462 29.3138 28.0337 29.3899C27.9172 29.4703 27.7775 29.5337 27.6144 29.5929C26.7605 29.8889 25.3592 29.8931 24.1947 29.6817C22.3121 29.3392 20.5809 28.6668 18.9118 28.0199C17.7551 27.5716 16.6294 27.1361 15.5037 26.8274C14.0908 26.4426 12.7594 26.2312 11.6376 26.1635C10.7254 26.1128 9.95296 26.1551 9.394 26.2819C8.81176 26.413 8.45076 26.6371 8.38089 26.9331C8.37313 26.9585 8.36925 26.9881 8.36925 27.0135C8.32655 27.5209 8.27997 28.0241 8.23339 28.5231C8.18681 29.022 8.13635 29.5125 8.07812 30.0115L8.19069 30.0665L8.19846 30.0707ZM8.60991 29.6098C8.46241 29.6732 8.33431 29.7494 8.23339 29.8382C8.27997 29.4068 8.32267 28.9755 8.36537 28.54C8.41195 28.041 8.45853 27.5378 8.50122 27.0304C8.50122 27.0092 8.50511 26.9881 8.50899 26.9712C8.56333 26.7301 8.89327 26.5399 9.42117 26.4215C9.97237 26.2988 10.7332 26.2523 11.6337 26.3073C12.7477 26.3707 14.0714 26.5821 15.4765 26.9669C16.5944 27.2714 17.7201 27.7069 18.873 28.1552C20.5498 28.8021 22.2888 29.4787 24.1792 29.8212C25.3631 30.0369 26.7876 30.0327 27.6571 29.7282C27.8318 29.669 27.9832 29.5971 28.1074 29.5126C28.1617 29.4745 28.2122 29.4322 28.2588 29.3899C28.2044 29.8678 28.1579 30.3371 28.1074 30.8065C28.0531 31.3393 27.9987 31.8721 27.9327 32.4261C27.5911 32.9419 26.6712 33.2126 25.6426 33.2337C25.4368 33.2337 25.2311 33.2337 25.0215 33.2168C24.8158 33.1999 24.6062 33.1745 24.3966 33.1407C22.8633 32.8743 21.3456 32.4852 19.8317 32.0074C18.314 31.5338 16.7963 30.9714 15.2514 30.3583C13.264 29.5675 10.8613 29.1869 9.37459 29.4111C9.08347 29.4534 8.8234 29.521 8.60991 29.614V29.6098Z" fill="url(#paint18_linear_789_12807)"/>
<path fill-rule="evenodd" clip-rule="evenodd" d="M23.2267 6.78587L23.3023 7.27608L23.7259 7.50588L23.312 7.70636L23.26 8.19261L22.9293 7.82626L22.47 7.89532L22.6792 7.46824L22.4491 7.02542L22.9091 7.12814L23.2267 6.78587Z" fill="#6F0000"/>
<path fill-rule="evenodd" clip-rule="evenodd" d="M22.9235 7.15639L23.2188 6.8457L23.0383 7.47979L22.9235 7.15639Z" fill="url(#paint19_linear_789_12807)"/>
<path fill-rule="evenodd" clip-rule="evenodd" d="M22.5099 7.07528L22.9248 7.16855L23.0346 7.47916L22.5099 7.07528Z" fill="url(#paint20_linear_789_12807)"/>
<path fill-rule="evenodd" clip-rule="evenodd" d="M22.7187 7.47217L22.5077 7.07908L23.0334 7.48459L22.7187 7.47217Z" fill="url(#paint21_linear_789_12807)"/>
<path fill-rule="evenodd" clip-rule="evenodd" d="M22.5186 7.8642L22.7069 7.47947L23.0273 7.49219L22.5186 7.8642Z" fill="url(#paint22_linear_789_12807)"/>
<path fill-rule="evenodd" clip-rule="evenodd" d="M22.9392 7.8054L22.5186 7.8642L23.0273 7.49219L22.9392 7.8054Z" fill="url(#paint23_linear_789_12807)"/>
<path fill-rule="evenodd" clip-rule="evenodd" d="M23.233 8.13069L22.9277 7.79441L23.0159 7.48113L23.233 8.13069Z" fill="url(#paint24_linear_789_12807)"/>
<path fill-rule="evenodd" clip-rule="evenodd" d="M23.2768 7.69068L23.233 8.13069L23.0159 7.48113L23.2768 7.69068Z" fill="url(#paint25_linear_789_12807)"/>
<path fill-rule="evenodd" clip-rule="evenodd" d="M23.6523 7.50391L23.2814 7.67586L23.0252 7.47133L23.6523 7.50391Z" fill="url(#paint26_linear_789_12807)"/>
<path fill-rule="evenodd" clip-rule="evenodd" d="M23.2714 7.29029L23.6535 7.49923L23.0275 7.46679L23.2714 7.29029Z" fill="url(#paint27_linear_789_12807)"/>
<path fill-rule="evenodd" clip-rule="evenodd" d="M23.2077 6.83909L23.2821 7.28953L23.0271 7.4733L23.2077 6.83909Z" fill="url(#paint28_linear_789_12807)"/>
<path fill-rule="evenodd" clip-rule="evenodd" d="M24.9013 7.86593L25.1576 7.6245L24.8015 7.54871L24.6471 7.2018L24.4896 7.52474L24.1347 7.54961L24.3923 7.82725L24.3294 8.18655L24.6449 8.03321L24.9619 8.23345L24.9013 7.86593Z" fill="#6F0000"/>
<path fill-rule="evenodd" clip-rule="evenodd" d="M24.5053 7.5374L24.6532 7.24048L24.654 7.75788L24.5053 7.5374Z" fill="url(#paint29_linear_789_12807)"/>
<path fill-rule="evenodd" clip-rule="evenodd" d="M24.1883 7.56962L24.5073 7.54809L24.6497 7.75725L24.1883 7.56962Z" fill="url(#paint30_linear_789_12807)"/>
<path fill-rule="evenodd" clip-rule="evenodd" d="M24.4154 7.8226L24.1837 7.57959L24.6452 7.76722L24.4154 7.8226Z" fill="url(#paint31_linear_789_12807)"/>
<path fill-rule="evenodd" clip-rule="evenodd" d="M24.3494 8.16015L24.4051 7.82394L24.6445 7.76562L24.3494 8.16015Z" fill="url(#paint32_linear_789_12807)"/>
<path fill-rule="evenodd" clip-rule="evenodd" d="M24.6424 8.01972L24.3476 8.15751L24.6415 7.76388L24.6424 8.01972Z" fill="url(#paint33_linear_789_12807)"/>
<path fill-rule="evenodd" clip-rule="evenodd" d="M24.9234 8.18866L24.6356 8.00879L24.6347 7.75818L24.9234 8.18866Z" fill="url(#paint34_linear_789_12807)"/>
<path fill-rule="evenodd" clip-rule="evenodd" d="M24.8672 7.85205L24.9234 8.18866L24.6347 7.75818L24.8672 7.85205Z" fill="url(#paint35_linear_789_12807)"/>
<path fill-rule="evenodd" clip-rule="evenodd" d="M25.1094 7.62891L24.8755 7.83996L24.6435 7.7464L25.1094 7.62891Z" fill="url(#paint36_linear_789_12807)"/>
<path fill-rule="evenodd" clip-rule="evenodd" d="M24.7844 7.55547L25.1094 7.62891L24.6436 7.74635L24.7844 7.55547Z" fill="url(#paint37_linear_789_12807)"/>
<path fill-rule="evenodd" clip-rule="evenodd" d="M24.6505 7.2387L24.7963 7.55932L24.6514 7.75522L24.6505 7.2387Z" fill="url(#paint38_linear_789_12807)"/>
<path fill-rule="evenodd" clip-rule="evenodd" d="M21.3114 6.55317L21.227 6.1809L21.5522 6.36684L21.852 6.19444L21.8156 6.56388L22.0928 6.83158L21.7448 6.87654L21.6101 7.20818L21.4334 6.86584L21.0768 6.80724L21.3114 6.55317Z" fill="#6F0000"/>
<path fill-rule="evenodd" clip-rule="evenodd" d="M21.5583 6.38243L21.8418 6.22656L21.5797 6.64206L21.5583 6.38243Z" fill="url(#paint39_linear_789_12807)"/>
<path fill-rule="evenodd" clip-rule="evenodd" d="M21.2693 6.23049L21.5644 6.39562L21.5853 6.64867L21.2693 6.23049Z" fill="url(#paint40_linear_789_12807)"/>
<path fill-rule="evenodd" clip-rule="evenodd" d="M21.3499 6.56694L21.2691 6.23036L21.5852 6.64889L21.3499 6.56694Z" fill="url(#paint41_linear_789_12807)"/>
<path fill-rule="evenodd" clip-rule="evenodd" d="M21.1252 6.81016L21.3403 6.57795L21.5762 6.66016L21.1252 6.81016Z" fill="url(#paint42_linear_789_12807)"/>
<path fill-rule="evenodd" clip-rule="evenodd" d="M21.449 6.8615L21.1252 6.81016L21.5762 6.66016L21.449 6.8615Z" fill="url(#paint43_linear_789_12807)"/>
<path fill-rule="evenodd" clip-rule="evenodd" d="M21.6052 7.17427L21.4383 6.85468L21.5685 6.64918L21.6052 7.17427Z" fill="url(#paint44_linear_789_12807)"/>
<path fill-rule="evenodd" clip-rule="evenodd" d="M21.7245 6.86222L21.6028 7.17332L21.566 6.6469L21.7245 6.86222Z" fill="url(#paint45_linear_789_12807)"/>
<path fill-rule="evenodd" clip-rule="evenodd" d="M22.0371 6.81055L21.7248 6.8515L21.5728 6.64686L22.0371 6.81055Z" fill="url(#paint46_linear_789_12807)"/>
<path fill-rule="evenodd" clip-rule="evenodd" d="M21.7974 6.57008L22.0408 6.80063L21.5767 6.63722L21.7974 6.57008Z" fill="url(#paint47_linear_789_12807)"/>
<path fill-rule="evenodd" clip-rule="evenodd" d="M21.8402 6.2238L21.8076 6.56931L21.5771 6.64012L21.8402 6.2238Z" fill="url(#paint48_linear_789_12807)"/>
<path fill-rule="evenodd" clip-rule="evenodd" d="M13.2147 6.78586L13.1392 7.27608L12.7155 7.50588L13.1295 7.70636L13.1814 8.19261L13.5121 7.82626L13.9714 7.89532L13.7622 7.46824L13.9923 7.02542L13.5323 7.12814L13.2147 6.78586Z" fill="#6F0000"/>
<path fill-rule="evenodd" clip-rule="evenodd" d="M13.5159 7.15639L13.2207 6.8457L13.4012 7.47979L13.5159 7.15639Z" fill="url(#paint49_linear_789_12807)"/>
<path fill-rule="evenodd" clip-rule="evenodd" d="M13.9296 7.07528L13.5147 7.16855L13.4048 7.47916L13.9296 7.07528Z" fill="url(#paint50_linear_789_12807)"/>
<path fill-rule="evenodd" clip-rule="evenodd" d="M13.7207 7.47217L13.9317 7.07908L13.4061 7.48459L13.7207 7.47217Z" fill="url(#paint51_linear_789_12807)"/>
<path fill-rule="evenodd" clip-rule="evenodd" d="M13.9208 7.8642L13.7326 7.47947L13.4121 7.49219L13.9208 7.8642Z" fill="url(#paint52_linear_789_12807)"/>
<path fill-rule="evenodd" clip-rule="evenodd" d="M13.5003 7.8054L13.9208 7.8642L13.4121 7.49219L13.5003 7.8054Z" fill="url(#paint53_linear_789_12807)"/>
<path fill-rule="evenodd" clip-rule="evenodd" d="M13.2065 8.13069L13.5117 7.79441L13.4236 7.48113L13.2065 8.13069Z" fill="url(#paint54_linear_789_12807)"/>
<path fill-rule="evenodd" clip-rule="evenodd" d="M13.1626 7.69068L13.2065 8.13069L13.4236 7.48113L13.1626 7.69068Z" fill="url(#paint55_linear_789_12807)"/>
<path fill-rule="evenodd" clip-rule="evenodd" d="M12.7871 7.50391L13.1581 7.67586L13.4142 7.47133L12.7871 7.50391Z" fill="url(#paint56_linear_789_12807)"/>
<path fill-rule="evenodd" clip-rule="evenodd" d="M13.168 7.29029L12.7859 7.49923L13.412 7.46679L13.168 7.29029Z" fill="url(#paint57_linear_789_12807)"/>
<path fill-rule="evenodd" clip-rule="evenodd" d="M13.2317 6.83909L13.1574 7.28953L13.4123 7.4733L13.2317 6.83909Z" fill="url(#paint58_linear_789_12807)"/>
<path fill-rule="evenodd" clip-rule="evenodd" d="M11.5382 7.86593L11.2819 7.6245L11.638 7.54871L11.7924 7.2018L11.9499 7.52474L12.3048 7.54961L12.0472 7.82725L12.11 8.18655L11.7946 8.03321L11.4776 8.23345L11.5382 7.86593Z" fill="#6F0000"/>
<path fill-rule="evenodd" clip-rule="evenodd" d="M11.9322 7.5374L11.7843 7.24048L11.7835 7.75788L11.9322 7.5374Z" fill="url(#paint59_linear_789_12807)"/>
<path fill-rule="evenodd" clip-rule="evenodd" d="M12.2492 7.56962L11.9302 7.54809L11.7878 7.75725L12.2492 7.56962Z" fill="url(#paint60_linear_789_12807)"/>
<path fill-rule="evenodd" clip-rule="evenodd" d="M12.0221 7.8226L12.2538 7.57959L11.7923 7.76722L12.0221 7.8226Z" fill="url(#paint61_linear_789_12807)"/>
<path fill-rule="evenodd" clip-rule="evenodd" d="M12.0881 8.16015L12.0324 7.82394L11.793 7.76562L12.0881 8.16015Z" fill="url(#paint62_linear_789_12807)"/>
<path fill-rule="evenodd" clip-rule="evenodd" d="M11.7951 8.01972L12.0899 8.15751L11.796 7.76388L11.7951 8.01972Z" fill="url(#paint63_linear_789_12807)"/>
<path fill-rule="evenodd" clip-rule="evenodd" d="M11.5141 8.18866L11.8019 8.00879L11.8028 7.75818L11.5141 8.18866Z" fill="url(#paint64_linear_789_12807)"/>
<path fill-rule="evenodd" clip-rule="evenodd" d="M11.5703 7.85205L11.5141 8.18866L11.8028 7.75818L11.5703 7.85205Z" fill="url(#paint65_linear_789_12807)"/>
<path fill-rule="evenodd" clip-rule="evenodd" d="M11.3281 7.62891L11.562 7.83996L11.794 7.7464L11.3281 7.62891Z" fill="url(#paint66_linear_789_12807)"/>
<path fill-rule="evenodd" clip-rule="evenodd" d="M11.6531 7.55547L11.3281 7.62891L11.7939 7.74635L11.6531 7.55547Z" fill="url(#paint67_linear_789_12807)"/>
<path fill-rule="evenodd" clip-rule="evenodd" d="M11.787 7.2387L11.6412 7.55932L11.7861 7.75522L11.787 7.2387Z" fill="url(#paint68_linear_789_12807)"/>
<path fill-rule="evenodd" clip-rule="evenodd" d="M15.13 6.55317L15.2144 6.1809L14.8892 6.36684L14.5894 6.19444L14.6258 6.56388L14.3486 6.83158L14.6966 6.87654L14.8314 7.20818L15.008 6.86584L15.3646 6.80724L15.13 6.55317Z" fill="#6F0000"/>
<path fill-rule="evenodd" clip-rule="evenodd" d="M14.8831 6.38243L14.5996 6.22656L14.8617 6.64206L14.8831 6.38243Z" fill="url(#paint69_linear_789_12807)"/>
<path fill-rule="evenodd" clip-rule="evenodd" d="M15.1721 6.23049L14.877 6.39562L14.8561 6.64867L15.1721 6.23049Z" fill="url(#paint70_linear_789_12807)"/>
<path fill-rule="evenodd" clip-rule="evenodd" d="M15.0915 6.56694L15.1723 6.23036L14.8562 6.64889L15.0915 6.56694Z" fill="url(#paint71_linear_789_12807)"/>
<path fill-rule="evenodd" clip-rule="evenodd" d="M15.3162 6.81016L15.1011 6.57795L14.8652 6.66016L15.3162 6.81016Z" fill="url(#paint72_linear_789_12807)"/>
<path fill-rule="evenodd" clip-rule="evenodd" d="M14.9924 6.8615L15.3162 6.81016L14.8652 6.66016L14.9924 6.8615Z" fill="url(#paint73_linear_789_12807)"/>
<path fill-rule="evenodd" clip-rule="evenodd" d="M14.8362 7.17427L15.0031 6.85468L14.8729 6.64918L14.8362 7.17427Z" fill="url(#paint74_linear_789_12807)"/>
<path fill-rule="evenodd" clip-rule="evenodd" d="M14.7169 6.86222L14.8386 7.17332L14.8754 6.6469L14.7169 6.86222Z" fill="url(#paint75_linear_789_12807)"/>
<path fill-rule="evenodd" clip-rule="evenodd" d="M14.4043 6.81055L14.7166 6.8515L14.8686 6.64686L14.4043 6.81055Z" fill="url(#paint76_linear_789_12807)"/>
<path fill-rule="evenodd" clip-rule="evenodd" d="M14.644 6.57008L14.4007 6.80063L14.8648 6.63722L14.644 6.57008Z" fill="url(#paint77_linear_789_12807)"/>
<path fill-rule="evenodd" clip-rule="evenodd" d="M14.6012 6.2238L14.6338 6.56931L14.8643 6.64012L14.6012 6.2238Z" fill="url(#paint78_linear_789_12807)"/>
<path d="M13.6504 13.9831L15.3598 13.3172H16.4746V20.488H15.1926V14.8129L13.9663 15.1919L13.6504 13.9831Z" fill="#222222"/>
<path d="M20.0674 20.6314C19.256 20.6314 18.6181 20.2933 18.1536 19.6172C17.6953 18.9275 17.4661 18.0226 17.4661 16.9026C17.4661 15.7826 17.6953 14.8811 18.1536 14.1982C18.6181 13.5153 19.256 13.1738 20.0674 13.1738C20.8911 13.1738 21.5291 13.5153 21.9812 14.1982C22.4395 14.8811 22.6687 15.7826 22.6687 16.9026C22.6687 18.0226 22.4395 18.9275 21.9812 19.6172C21.5291 20.2933 20.8911 20.6314 20.0674 20.6314ZM21.3959 16.9026C21.3959 16.1377 21.2813 15.5538 21.0522 15.1509C20.8292 14.748 20.5009 14.5465 20.0674 14.5465C19.6338 14.5465 19.3056 14.748 19.0826 15.1509C18.8596 15.5538 18.7482 16.1377 18.7482 16.9026C18.7482 17.6675 18.8596 18.2514 19.0826 18.6543C19.3056 19.0504 19.6338 19.2485 20.0674 19.2485C20.5009 19.2485 20.8292 19.047 21.0522 18.6441C21.2813 18.2411 21.3959 17.6607 21.3959 16.9026Z" fill="#222222"/>
<g style="mix-blend-mode:difference">
<path fill-rule="evenodd" clip-rule="evenodd" d="M16.1354 4.8862C16.3778 5.3849 16.5518 5.87375 16.5655 6.3391C16.7791 6.29438 17.0051 6.26028 17.24 6.2383L17.1352 5.32578H17.2249L17.329 6.22997C17.5036 6.21557 17.6831 6.20874 17.8659 6.20874C17.896 6.20874 17.9255 6.20874 17.9556 6.20874V5.09916H18.0453V6.21026C18.2597 6.21557 18.4678 6.23148 18.6685 6.25573L18.7753 5.32502H18.865L18.7568 6.2671C18.9979 6.29969 19.228 6.34593 19.443 6.40277C19.4409 5.91923 19.6183 5.40991 19.8703 4.88998C19.8977 4.91499 19.9326 4.93015 19.9717 4.93015C20.0586 4.93015 20.1292 4.85209 20.1292 4.75584C20.1292 4.65958 20.0586 4.58152 19.9717 4.58152C19.8847 4.58152 19.8141 4.65958 19.8141 4.75584C19.8141 4.80435 19.832 4.8483 19.8607 4.87938C19.3937 5.42204 19.0554 5.52132 18.9575 4.79222C18.9657 4.79373 18.9739 4.79448 18.9821 4.79448C19.0691 4.79448 19.1396 4.71642 19.1396 4.62017C19.1396 4.52392 19.0691 4.44585 18.9821 4.44585C18.8952 4.44585 18.8246 4.52392 18.8246 4.62017C18.8246 4.69217 18.8643 4.75508 18.9212 4.78085C18.5856 5.35004 18.3049 5.25227 18.0837 4.44055C18.1878 4.39583 18.2617 4.2829 18.2617 4.15178C18.2617 3.98049 18.1364 3.8418 17.9816 3.8418C17.8269 3.8418 17.7009 3.98049 17.7009 4.15178C17.7009 4.30109 17.7954 4.42538 17.9221 4.4557C17.7009 5.25529 17.4215 5.34776 17.0866 4.77781C17.1393 4.74977 17.1756 4.6899 17.1756 4.62093C17.1756 4.52467 17.1051 4.44661 17.0181 4.44661C16.9312 4.44661 16.8606 4.52467 16.8606 4.62093C16.8606 4.71718 16.9312 4.79524 17.0181 4.79524C17.0298 4.79524 17.0414 4.79373 17.0524 4.79146C16.9544 5.52511 16.6141 5.42279 16.1443 4.87559C16.1703 4.84451 16.1861 4.80282 16.1861 4.75735C16.1861 4.66109 16.1156 4.58303 16.0286 4.58303C15.9416 4.58303 15.8711 4.66109 15.8711 4.75735C15.8711 4.8536 15.9416 4.93167 16.0286 4.93167C16.0704 4.93167 16.108 4.91424 16.1361 4.88468L16.1354 4.8862Z" fill="url(#paint79_linear_789_12807)"/>
</g>
<defs>
<linearGradient id="paint0_linear_789_12807" x1="1.01866" y1="19.1549" x2="35.7283" y2="19.1549" gradientUnits="userSpaceOnUse">
<stop stop-color="#C89749"/>
<stop offset="0.04" stop-color="#8E5523"/>
<stop offset="0.15" stop-color="#FFEE9D"/>
<stop offset="0.23" stop-color="#DEAC55"/>
<stop offset="0.51" stop-color="#E8C576"/>
<stop offset="0.81" stop-color="#DBAA4D"/>
<stop offset="0.86" stop-color="#FCF6B2"/>
<stop offset="0.95" stop-color="#8B5623"/>
<stop offset="1" stop-color="#CA983E"/>
</linearGradient>
<linearGradient id="paint1_linear_789_12807" x1="18.6071" y1="33.0636" x2="18.0083" y2="1.51585" gradientUnits="userSpaceOnUse">
<stop stop-color="#DBA73E"/>
<stop offset="0.16" stop-color="#D89D3A"/>
<stop offset="0.3" stop-color="#A46B28"/>
<stop offset="0.49" stop-color="#8E5723"/>
<stop offset="0.54" stop-color="#F4F3B8"/>
<stop offset="0.56" stop-color="#F7ED9A"/>
<stop offset="0.69" stop-color="#D5B767"/>
<stop offset="0.75" stop-color="#A76F29"/>
<stop offset="0.85" stop-color="#D0AB5B"/>
<stop offset="1" stop-color="#E0C77D"/>
</linearGradient>
<linearGradient id="paint2_linear_789_12807" x1="27.4228" y1="30.8615" x2="9.40987" y2="3.34353" gradientUnits="userSpaceOnUse">
<stop stop-color="#482A0F"/>
<stop offset="0.1" stop-color="#A77129"/>
<stop offset="0.15" stop-color="white"/>
<stop offset="0.22" stop-color="#DA9E41"/>
<stop offset="0.34" stop-color="#8E5923"/>
<stop offset="0.5" stop-color="#D8A64D"/>
<stop offset="0.66" stop-color="#F5E380"/>
<stop offset="0.72" stop-color="#DAC164"/>
<stop offset="0.77" stop-color="white"/>
<stop offset="0.83" stop-color="#A0752B"/>
<stop offset="1" stop-color="#664219"/>
</linearGradient>
<radialGradient id="paint3_radial_789_12807" cx="0" cy="0" r="1" gradientUnits="userSpaceOnUse" gradientTransform="translate(18.161 17.2956) scale(18.9735 20.6693)">
<stop stop-color="white"/>
<stop offset="0.1" stop-color="white"/>
<stop offset="0.4" stop-color="#F1F1F1"/>
<stop offset="0.73" stop-color="#C8C0AF"/>
<stop offset="0.87" stop-color="#CBCACA"/>
<stop offset="1" stop-color="#B2AC9F"/>
</radialGradient>
<linearGradient id="paint4_linear_789_12807" x1="30.1256" y1="23.9262" x2="29.6792" y2="29.7817" gradientUnits="userSpaceOnUse">
<stop stop-color="#DBA73E"/>
<stop offset="0.16" stop-color="#D89D3A"/>
<stop offset="0.3" stop-color="#A46B28"/>
<stop offset="0.49" stop-color="#8E5723"/>
<stop offset="0.54" stop-color="#F4F3B8"/>
<stop offset="0.56" stop-color="#F7ED9A"/>
<stop offset="0.69" stop-color="#D5B767"/>
<stop offset="0.75" stop-color="#A76F29"/>
<stop offset="0.85" stop-color="#D0AB5B"/>
<stop offset="1" stop-color="#E0C77D"/>
</linearGradient>
<linearGradient id="paint5_linear_789_12807" x1="33.6824" y1="27.0513" x2="26.0652" y2="26.809" gradientUnits="userSpaceOnUse">
<stop stop-color="#C89749"/>
<stop offset="0.04" stop-color="#8E5523"/>
<stop offset="0.15" stop-color="#FFEE9D"/>
<stop offset="0.23" stop-color="#DEAC55"/>
<stop offset="0.51" stop-color="#E8C576"/>
<stop offset="0.79" stop-color="#DBAA4D"/>
<stop offset="0.86" stop-color="#FCF6B2"/>
<stop offset="0.95" stop-color="#8B5623"/>
<stop offset="1" stop-color="#6B3816"/>
</linearGradient>
<linearGradient id="paint6_linear_789_12807" x1="26.2754" y1="27.7712" x2="29.8312" y2="27.7142" gradientUnits="userSpaceOnUse">
<stop stop-color="#35200D"/>
<stop offset="0.04" stop-color="#2C170B"/>
<stop offset="0.15" stop-color="#493111"/>
<stop offset="0.23" stop-color="#3A2510"/>
<stop offset="0.51" stop-color="#402B11"/>
<stop offset="0.81" stop-color="#392510"/>
<stop offset="0.86" stop-color="#4A3011"/>
<stop offset="0.95" stop-color="#2C170B"/>
<stop offset="1" stop-color="#36220F"/>
</linearGradient>
<linearGradient id="paint7_linear_789_12807" x1="27.2385" y1="26.3404" x2="26.8335" y2="31.6763" gradientUnits="userSpaceOnUse">
<stop stop-color="#DBA73E"/>
<stop offset="0.16" stop-color="#D89D3A"/>
<stop offset="0.3" stop-color="#A46B28"/>
<stop offset="0.49" stop-color="#8E5723"/>
<stop offset="0.54" stop-color="#F4F3B8"/>
<stop offset="0.56" stop-color="#F7ED9A"/>
<stop offset="0.69" stop-color="#D5B767"/>
<stop offset="0.75" stop-color="#A76F29"/>
<stop offset="0.85" stop-color="#D0AB5B"/>
<stop offset="1" stop-color="#E0C77D"/>
</linearGradient>
<linearGradient id="paint8_linear_789_12807" x1="29.9367" y1="28.3839" x2="24.1927" y2="29.6015" gradientUnits="userSpaceOnUse">
<stop stop-color="#C89749"/>
<stop offset="0.04" stop-color="#8E5523"/>
<stop offset="0.15" stop-color="#FFEE9D"/>
<stop offset="0.23" stop-color="#DEAC55"/>
<stop offset="0.51" stop-color="#E8C576"/>
<stop offset="0.81" stop-color="#DBAA4D"/>
<stop offset="0.86" stop-color="#FCF6B2"/>
<stop offset="0.95" stop-color="#8B5623"/>
<stop offset="1" stop-color="#CA983E"/>
</linearGradient>
<linearGradient id="paint9_linear_789_12807" x1="28.7265" y1="29.2373" x2="23.89" y2="29.2373" gradientUnits="userSpaceOnUse">
<stop stop-color="#35200D"/>
<stop offset="0.04" stop-color="#2C170B"/>
<stop offset="0.15" stop-color="#493111"/>
<stop offset="0.23" stop-color="#3A2510"/>
<stop offset="0.51" stop-color="#402B11"/>
<stop offset="0.81" stop-color="#392510"/>
<stop offset="0.86" stop-color="#4A3011"/>
<stop offset="0.95" stop-color="#2C170B"/>
<stop offset="1" stop-color="#36220F"/>
</linearGradient>
<linearGradient id="paint10_linear_789_12807" x1="7.20197" y1="29.3805" x2="6.82458" y2="34.3108" gradientUnits="userSpaceOnUse">
<stop stop-color="#DBA73E"/>
<stop offset="0.16" stop-color="#D89D3A"/>
<stop offset="0.3" stop-color="#A46B28"/>
<stop offset="0.49" stop-color="#8E5723"/>
<stop offset="0.54" stop-color="#F4F3B8"/>
<stop offset="0.56" stop-color="#F7ED9A"/>
<stop offset="0.69" stop-color="#D5B767"/>
<stop offset="0.75" stop-color="#A76F29"/>
<stop offset="0.85" stop-color="#D0AB5B"/>
<stop offset="1" stop-color="#E0C77D"/>
</linearGradient>
<linearGradient id="paint11_linear_789_12807" x1="2.91711" y1="32.2146" x2="11.0293" y2="31.3003" gradientUnits="userSpaceOnUse">
<stop stop-color="#6B3816"/>
<stop offset="0.08" stop-color="#8E5523"/>
<stop offset="0.2" stop-color="#FFEE9D"/>
<stop offset="0.28" stop-color="#DEAC55"/>
<stop offset="0.51" stop-color="#E8C576"/>
<stop offset="0.81" stop-color="#DBAA4D"/>
<stop offset="0.86" stop-color="#FCF6B2"/>
<stop offset="0.95" stop-color="#8B5623"/>
<stop offset="1" stop-color="#CA983E"/>
</linearGradient>
<linearGradient id="paint12_linear_789_12807" x1="6.76361" y1="31.6391" x2="12.0041" y2="31.5536" gradientUnits="userSpaceOnUse">
<stop stop-color="#40270F"/>
<stop offset="0.04" stop-color="#301A0C"/>
<stop offset="0.15" stop-color="#553913"/>
<stop offset="0.23" stop-color="#472D11"/>
<stop offset="0.51" stop-color="#4C3211"/>
<stop offset="0.81" stop-color="#442B10"/>
<stop offset="0.86" stop-color="#563816"/>
<stop offset="0.95" stop-color="#301A0C"/>
<stop offset="1" stop-color="#412810"/>
</linearGradient>
<linearGradient id="paint13_linear_789_12807" x1="9.43012" y1="27.8211" x2="9.10335" y2="32.1388" gradientUnits="userSpaceOnUse">
<stop stop-color="#DBA73E"/>
<stop offset="0.16" stop-color="#D89D3A"/>
<stop offset="0.3" stop-color="#A46B28"/>
<stop offset="0.49" stop-color="#8E5723"/>
<stop offset="0.54" stop-color="#F4F3B8"/>
<stop offset="0.56" stop-color="#F7ED9A"/>
<stop offset="0.69" stop-color="#D5B767"/>
<stop offset="0.75" stop-color="#A76F29"/>
<stop offset="0.85" stop-color="#D0AB5B"/>
<stop offset="1" stop-color="#E0C77D"/>
</linearGradient>
<linearGradient id="paint14_linear_789_12807" x1="6.47666" y1="30.2019" x2="11.9354" y2="29.4978" gradientUnits="userSpaceOnUse">
<stop stop-color="#C89749"/>
<stop offset="0.04" stop-color="#8E5523"/>
<stop offset="0.15" stop-color="#FFEE9D"/>
<stop offset="0.23" stop-color="#DEAC55"/>
<stop offset="0.51" stop-color="#E8C576"/>
<stop offset="0.81" stop-color="#DBAA4D"/>
<stop offset="0.86" stop-color="#FCF6B2"/>
<stop offset="0.95" stop-color="#8B5623"/>
<stop offset="1" stop-color="#CA983E"/>
</linearGradient>
<linearGradient id="paint15_linear_789_12807" x1="7.6679" y1="29.8039" x2="12.3339" y2="29.7291" gradientUnits="userSpaceOnUse">
<stop stop-color="#40270F"/>
<stop offset="0.04" stop-color="#301A0C"/>
<stop offset="0.15" stop-color="#553913"/>
<stop offset="0.23" stop-color="#472D11"/>
<stop offset="0.51" stop-color="#4C3211"/>
<stop offset="0.81" stop-color="#442B10"/>
<stop offset="0.86" stop-color="#563816"/>
<stop offset="0.95" stop-color="#301A0C"/>
<stop offset="1" stop-color="#412810"/>
</linearGradient>
<linearGradient id="paint16_linear_789_12807" x1="18.4962" y1="25.6885" x2="17.884" y2="33.7705" gradientUnits="userSpaceOnUse">
<stop stop-color="#DBA73E"/>
<stop offset="0.16" stop-color="#D89D3A"/>
<stop offset="0.3" stop-color="#A46B28"/>
<stop offset="0.49" stop-color="#8E5723"/>
<stop offset="0.54" stop-color="#F4F3B8"/>
<stop offset="0.56" stop-color="#F7ED9A"/>
<stop offset="0.69" stop-color="#D5B767"/>
<stop offset="0.75" stop-color="#A76F29"/>
<stop offset="0.85" stop-color="#D0AB5B"/>
<stop offset="1" stop-color="#E0C77D"/>
</linearGradient>
<linearGradient id="paint17_linear_789_12807" x1="7.065" y1="28.4423" x2="29.4228" y2="30.5981" gradientUnits="userSpaceOnUse">
<stop stop-color="#C89749"/>
<stop offset="0.04" stop-color="#8E5523"/>
<stop offset="0.15" stop-color="#FFEE9D"/>
<stop offset="0.23" stop-color="#DEAC55"/>
<stop offset="0.51" stop-color="#E8C576"/>
<stop offset="0.81" stop-color="#DBAA4D"/>
<stop offset="0.86" stop-color="#FCF6B2"/>
<stop offset="0.95" stop-color="#8B5623"/>
<stop offset="1" stop-color="#CA983E"/>
</linearGradient>
<linearGradient id="paint18_linear_789_12807" x1="13.1126" y1="25.2248" x2="24.1547" y2="33.1442" gradientUnits="userSpaceOnUse">
<stop stop-color="#482A0F"/>
<stop offset="0.1" stop-color="#A77129"/>
<stop offset="0.15" stop-color="white"/>
<stop offset="0.22" stop-color="#DA9E41"/>
<stop offset="0.34" stop-color="#8E5923"/>
<stop offset="0.5" stop-color="#D8A64D"/>
<stop offset="0.66" stop-color="#F5E380"/>
<stop offset="0.72" stop-color="#DAC164"/>
<stop offset="0.77" stop-color="white"/>
<stop offset="0.83" stop-color="#A0752B"/>
<stop offset="1" stop-color="#664219"/>
</linearGradient>
<linearGradient id="paint19_linear_789_12807" x1="23.1285" y1="7.16275" x2="22.9372" y2="7.10831" gradientUnits="userSpaceOnUse">
<stop stop-color="#C48A2C"/>
<stop offset="1" stop-color="#F3DB91"/>
</linearGradient>
<linearGradient id="paint20_linear_789_12807" x1="22.4913" y1="7.1408" x2="23.083" y2="7.30867" gradientUnits="userSpaceOnUse">
<stop stop-color="#C48A2C"/>
<stop offset="1" stop-color="#FDFADB"/>
</linearGradient>
<linearGradient id="paint21_linear_789_12807" x1="23.0465" y1="7.43815" x2="22.4536" y2="7.27032" gradientUnits="userSpaceOnUse">
<stop stop-color="#C48A2C"/>
<stop offset="1" stop-color="#F3DB91"/>
</linearGradient>
<linearGradient id="paint22_linear_789_12807" x1="22.7032" y1="7.92599" x2="22.8863" y2="7.44706" gradientUnits="userSpaceOnUse">
<stop stop-color="#C48A2C"/>
<stop offset="1" stop-color="#FDFADB"/>
</linearGradient>
<linearGradient id="paint23_linear_789_12807" x1="22.826" y1="7.48987" x2="22.6868" y2="7.85386" gradientUnits="userSpaceOnUse">
<stop stop-color="#C48A2C"/>
<stop offset="1" stop-color="#F3DB91"/>
</linearGradient>
<linearGradient id="paint24_linear_789_12807" x1="23.3044" y1="7.8769" x2="22.9338" y2="7.7726" gradientUnits="userSpaceOnUse">
<stop stop-color="#C48A2C"/>
<stop offset="1" stop-color="#F3DB91"/>
</linearGradient>
<linearGradient id="paint25_linear_789_12807" x1="23.0528" y1="8.05303" x2="23.2359" y2="7.574" gradientUnits="userSpaceOnUse">
<stop stop-color="#C48A2C"/>
<stop offset="1" stop-color="#FDFADB"/>
</linearGradient>
<linearGradient id="paint26_linear_789_12807" x1="23.6129" y1="7.64325" x2="23.0238" y2="7.4765" gradientUnits="userSpaceOnUse">
<stop stop-color="#C48A2C"/>
<stop offset="1" stop-color="#F3DB91"/>
</linearGradient>
<linearGradient id="paint27_linear_789_12807" x1="23.0614" y1="7.34728" x2="23.6493" y2="7.51406" gradientUnits="userSpaceOnUse">
<stop stop-color="#C48A2C"/>
<stop offset="1" stop-color="#FDFADB"/>
</linearGradient>
<linearGradient id="paint28_linear_789_12807" x1="23.2926" y1="6.88897" x2="23.0722" y2="7.47253" gradientUnits="userSpaceOnUse">
<stop stop-color="#C48A2C"/>
<stop offset="1" stop-color="#FDFADB"/>
</linearGradient>
<linearGradient id="paint29_linear_789_12807" x1="24.6863" y1="7.50508" x2="24.5638" y2="7.48743" gradientUnits="userSpaceOnUse">
<stop stop-color="#C48A2C"/>
<stop offset="1" stop-color="#F3DB91"/>
</linearGradient>
<linearGradient id="paint30_linear_789_12807" x1="24.3256" y1="7.70976" x2="24.5877" y2="7.57637" gradientUnits="userSpaceOnUse">
<stop stop-color="#C48A2C"/>
<stop offset="1" stop-color="#FDFADB"/>
</linearGradient>
<linearGradient id="paint31_linear_789_12807" x1="24.5127" y1="7.62471" x2="24.2363" y2="7.76536" gradientUnits="userSpaceOnUse">
<stop stop-color="#C48A2C"/>
<stop offset="1" stop-color="#F3DB91"/>
</linearGradient>
<linearGradient id="paint32_linear_789_12807" x1="24.5439" y1="8.12435" x2="24.4542" y2="7.78176" gradientUnits="userSpaceOnUse">
<stop stop-color="#C48A2C"/>
<stop offset="1" stop-color="#FDFADB"/>
</linearGradient>
<linearGradient id="paint33_linear_789_12807" x1="24.4675" y1="7.85122" x2="24.5133" y2="8.10462" gradientUnits="userSpaceOnUse">
<stop stop-color="#C48A2C"/>
<stop offset="1" stop-color="#F3DB91"/>
</linearGradient>
<linearGradient id="paint34_linear_789_12807" x1="24.9175" y1="7.97067" x2="24.6422" y2="7.99508" gradientUnits="userSpaceOnUse">
<stop stop-color="#C48A2C"/>
<stop offset="1" stop-color="#F3DB91"/>
</linearGradient>
<linearGradient id="paint35_linear_789_12807" x1="24.7704" y1="8.16858" x2="24.8242" y2="7.7843" gradientUnits="userSpaceOnUse">
<stop stop-color="#C48A2C"/>
<stop offset="1" stop-color="#FDFADB"/>
</linearGradient>
<linearGradient id="paint36_linear_789_12807" x1="25.0774" y1="7.72842" x2="24.6902" y2="7.77886" gradientUnits="userSpaceOnUse">
<stop stop-color="#C48A2C"/>
<stop offset="1" stop-color="#F3DB91"/>
</linearGradient>
<linearGradient id="paint37_linear_789_12807" x1="24.6648" y1="7.65563" x2="25.069" y2="7.60226" gradientUnits="userSpaceOnUse">
<stop stop-color="#C48A2C"/>
<stop offset="1" stop-color="#FDFADB"/>
</linearGradient>
<linearGradient id="paint38_linear_789_12807" x1="24.6348" y1="7.32532" x2="24.72" y2="7.70281" gradientUnits="userSpaceOnUse">
<stop stop-color="#C48A2C"/>
<stop offset="1" stop-color="#FDFADB"/>
</linearGradient>
<linearGradient id="paint39_linear_789_12807" x1="21.7295" y1="6.44372" x2="21.6056" y2="6.39149" gradientUnits="userSpaceOnUse">
<stop stop-color="#C48A2C"/>
<stop offset="1" stop-color="#F3DB91"/>
</linearGradient>
<linearGradient id="paint40_linear_789_12807" x1="21.2902" y1="6.26001" x2="21.6327" y2="6.53784" gradientUnits="userSpaceOnUse">
<stop stop-color="#C48A2C"/>
<stop offset="1" stop-color="#FDFADB"/>
</linearGradient>
<linearGradient id="paint41_linear_789_12807" x1="21.5509" y1="6.62277" x2="21.2257" y2="6.3586" gradientUnits="userSpaceOnUse">
<stop stop-color="#C48A2C"/>
<stop offset="1" stop-color="#F3DB91"/>
</linearGradient>
<linearGradient id="paint42_linear_789_12807" x1="21.2635" y1="6.89795" x2="21.4615" y2="6.58842" gradientUnits="userSpaceOnUse">
<stop stop-color="#C48A2C"/>
<stop offset="1" stop-color="#FDFADB"/>
</linearGradient>
<linearGradient id="paint43_linear_789_12807" x1="21.4217" y1="6.60064" x2="21.2573" y2="6.8552" gradientUnits="userSpaceOnUse">
<stop stop-color="#C48A2C"/>
<stop offset="1" stop-color="#F3DB91"/>
</linearGradient>
<linearGradient id="paint44_linear_789_12807" x1="21.6741" y1="6.95848" x2="21.4275" y2="6.85011" gradientUnits="userSpaceOnUse">
<stop stop-color="#C48A2C"/>
<stop offset="1" stop-color="#F3DB91"/>
</linearGradient>
<linearGradient id="paint45_linear_789_12807" x1="21.468" y1="7.01125" x2="21.7247" y2="6.80726" gradientUnits="userSpaceOnUse">
<stop stop-color="#C48A2C"/>
<stop offset="1" stop-color="#FDFADB"/>
</linearGradient>
<linearGradient id="paint46_linear_789_12807" x1="21.9108" y1="6.92209" x2="21.7463" y2="6.61931" gradientUnits="userSpaceOnUse">
<stop stop-color="#C48A2C"/>
<stop offset="1" stop-color="#F3DB91"/>
</linearGradient>
<linearGradient id="paint47_linear_789_12807" x1="21.7119" y1="6.53767" x2="21.8599" y2="6.82202" gradientUnits="userSpaceOnUse">
<stop stop-color="#C48A2C"/>
<stop offset="1" stop-color="#FDFADB"/>
</linearGradient>
<linearGradient id="paint48_linear_789_12807" x1="21.8771" y1="6.35281" x2="21.6097" y2="6.55367" gradientUnits="userSpaceOnUse">
<stop stop-color="#C48A2C"/>
<stop offset="1" stop-color="#FDFADB"/>
</linearGradient>
<linearGradient id="paint49_linear_789_12807" x1="13.3109" y1="7.16275" x2="13.5022" y2="7.10831" gradientUnits="userSpaceOnUse">
<stop stop-color="#C48A2C"/>
<stop offset="1" stop-color="#F3DB91"/>
</linearGradient>
<linearGradient id="paint50_linear_789_12807" x1="13.9482" y1="7.1408" x2="13.3565" y2="7.30867" gradientUnits="userSpaceOnUse">
<stop stop-color="#C48A2C"/>
<stop offset="1" stop-color="#FDFADB"/>
</linearGradient>
<linearGradient id="paint51_linear_789_12807" x1="13.393" y1="7.43815" x2="13.9859" y2="7.27032" gradientUnits="userSpaceOnUse">
<stop stop-color="#C48A2C"/>
<stop offset="1" stop-color="#F3DB91"/>
</linearGradient>
<linearGradient id="paint52_linear_789_12807" x1="13.7362" y1="7.92599" x2="13.5531" y2="7.44706" gradientUnits="userSpaceOnUse">
<stop stop-color="#C48A2C"/>
<stop offset="1" stop-color="#FDFADB"/>
</linearGradient>
<linearGradient id="paint53_linear_789_12807" x1="13.6135" y1="7.48987" x2="13.7526" y2="7.85386" gradientUnits="userSpaceOnUse">
<stop stop-color="#C48A2C"/>
<stop offset="1" stop-color="#F3DB91"/>
</linearGradient>
<linearGradient id="paint54_linear_789_12807" x1="13.135" y1="7.8769" x2="13.5056" y2="7.7726" gradientUnits="userSpaceOnUse">
<stop stop-color="#C48A2C"/>
<stop offset="1" stop-color="#F3DB91"/>
</linearGradient>
<linearGradient id="paint55_linear_789_12807" x1="13.3867" y1="8.05303" x2="13.2036" y2="7.574" gradientUnits="userSpaceOnUse">
<stop stop-color="#C48A2C"/>
<stop offset="1" stop-color="#FDFADB"/>
</linearGradient>
<linearGradient id="paint56_linear_789_12807" x1="12.8265" y1="7.64325" x2="13.4157" y2="7.4765" gradientUnits="userSpaceOnUse">
<stop stop-color="#C48A2C"/>
<stop offset="1" stop-color="#F3DB91"/>
</linearGradient>
<linearGradient id="paint57_linear_789_12807" x1="13.3781" y1="7.34728" x2="12.7901" y2="7.51406" gradientUnits="userSpaceOnUse">
<stop stop-color="#C48A2C"/>
<stop offset="1" stop-color="#FDFADB"/>
</linearGradient>
<linearGradient id="paint58_linear_789_12807" x1="13.1468" y1="6.88897" x2="13.3673" y2="7.47253" gradientUnits="userSpaceOnUse">
<stop stop-color="#C48A2C"/>
<stop offset="1" stop-color="#FDFADB"/>
</linearGradient>
<linearGradient id="paint59_linear_789_12807" x1="11.7512" y1="7.50508" x2="11.8737" y2="7.48743" gradientUnits="userSpaceOnUse">
<stop stop-color="#C48A2C"/>
<stop offset="1" stop-color="#F3DB91"/>
</linearGradient>
<linearGradient id="paint60_linear_789_12807" x1="12.1119" y1="7.70976" x2="11.8498" y2="7.57637" gradientUnits="userSpaceOnUse">
<stop stop-color="#C48A2C"/>
<stop offset="1" stop-color="#FDFADB"/>
</linearGradient>
<linearGradient id="paint61_linear_789_12807" x1="11.9248" y1="7.62471" x2="12.2012" y2="7.76536" gradientUnits="userSpaceOnUse">
<stop stop-color="#C48A2C"/>
<stop offset="1" stop-color="#F3DB91"/>
</linearGradient>
<linearGradient id="paint62_linear_789_12807" x1="11.8936" y1="8.12435" x2="11.9833" y2="7.78176" gradientUnits="userSpaceOnUse">
<stop stop-color="#C48A2C"/>
<stop offset="1" stop-color="#FDFADB"/>
</linearGradient>
<linearGradient id="paint63_linear_789_12807" x1="11.97" y1="7.85122" x2="11.9242" y2="8.10462" gradientUnits="userSpaceOnUse">
<stop stop-color="#C48A2C"/>
<stop offset="1" stop-color="#F3DB91"/>
</linearGradient>
<linearGradient id="paint64_linear_789_12807" x1="11.52" y1="7.97067" x2="11.7953" y2="7.99508" gradientUnits="userSpaceOnUse">
<stop stop-color="#C48A2C"/>
<stop offset="1" stop-color="#F3DB91"/>
</linearGradient>
<linearGradient id="paint65_linear_789_12807" x1="11.6671" y1="8.16858" x2="11.6133" y2="7.7843" gradientUnits="userSpaceOnUse">
<stop stop-color="#C48A2C"/>
<stop offset="1" stop-color="#FDFADB"/>
</linearGradient>
<linearGradient id="paint66_linear_789_12807" x1="11.3601" y1="7.72842" x2="11.7473" y2="7.77886" gradientUnits="userSpaceOnUse">
<stop stop-color="#C48A2C"/>
<stop offset="1" stop-color="#F3DB91"/>
</linearGradient>
<linearGradient id="paint67_linear_789_12807" x1="11.7727" y1="7.65563" x2="11.3685" y2="7.60226" gradientUnits="userSpaceOnUse">
<stop stop-color="#C48A2C"/>
<stop offset="1" stop-color="#FDFADB"/>
</linearGradient>
<linearGradient id="paint68_linear_789_12807" x1="11.8027" y1="7.32532" x2="11.7175" y2="7.70281" gradientUnits="userSpaceOnUse">
<stop stop-color="#C48A2C"/>
<stop offset="1" stop-color="#FDFADB"/>
</linearGradient>
<linearGradient id="paint69_linear_789_12807" x1="14.7119" y1="6.44372" x2="14.8358" y2="6.39149" gradientUnits="userSpaceOnUse">
<stop stop-color="#C48A2C"/>
<stop offset="1" stop-color="#F3DB91"/>
</linearGradient>
<linearGradient id="paint70_linear_789_12807" x1="15.1513" y1="6.26001" x2="14.8088" y2="6.53784" gradientUnits="userSpaceOnUse">
<stop stop-color="#C48A2C"/>
<stop offset="1" stop-color="#FDFADB"/>
</linearGradient>
<linearGradient id="paint71_linear_789_12807" x1="14.8905" y1="6.62277" x2="15.2157" y2="6.3586" gradientUnits="userSpaceOnUse">
<stop stop-color="#C48A2C"/>
<stop offset="1" stop-color="#F3DB91"/>
</linearGradient>
<linearGradient id="paint72_linear_789_12807" x1="15.1779" y1="6.89796" x2="14.9799" y2="6.58842" gradientUnits="userSpaceOnUse">
<stop stop-color="#C48A2C"/>
<stop offset="1" stop-color="#FDFADB"/>
</linearGradient>
<linearGradient id="paint73_linear_789_12807" x1="15.0197" y1="6.60064" x2="15.1841" y2="6.8552" gradientUnits="userSpaceOnUse">
<stop stop-color="#C48A2C"/>
<stop offset="1" stop-color="#F3DB91"/>
</linearGradient>
<linearGradient id="paint74_linear_789_12807" x1="14.7673" y1="6.95848" x2="15.0139" y2="6.85011" gradientUnits="userSpaceOnUse">
<stop stop-color="#C48A2C"/>
<stop offset="1" stop-color="#F3DB91"/>
</linearGradient>
<linearGradient id="paint75_linear_789_12807" x1="14.9734" y1="7.01125" x2="14.7167" y2="6.80726" gradientUnits="userSpaceOnUse">
<stop stop-color="#C48A2C"/>
<stop offset="1" stop-color="#FDFADB"/>
</linearGradient>
<linearGradient id="paint76_linear_789_12807" x1="14.5306" y1="6.92209" x2="14.6951" y2="6.61931" gradientUnits="userSpaceOnUse">
<stop stop-color="#C48A2C"/>
<stop offset="1" stop-color="#F3DB91"/>
</linearGradient>
<linearGradient id="paint77_linear_789_12807" x1="14.7295" y1="6.53767" x2="14.5815" y2="6.82202" gradientUnits="userSpaceOnUse">
<stop stop-color="#C48A2C"/>
<stop offset="1" stop-color="#FDFADB"/>
</linearGradient>
<linearGradient id="paint78_linear_789_12807" x1="14.5644" y1="6.35281" x2="14.8317" y2="6.55367" gradientUnits="userSpaceOnUse">
<stop stop-color="#C48A2C"/>
<stop offset="1" stop-color="#FDFADB"/>
</linearGradient>
<linearGradient id="paint79_linear_789_12807" x1="17.9994" y1="5.96925" x2="17.9994" y2="4.27911" gradientUnits="userSpaceOnUse">
<stop stop-color="#DBA73E"/>
<stop offset="0.16" stop-color="#D89D3A"/>
<stop offset="0.54" stop-color="#F4F3B8"/>
<stop offset="0.56" stop-color="#F7ED9A"/>
<stop offset="0.69" stop-color="#D5B767"/>
<stop offset="0.85" stop-color="#D0AB5B"/>
<stop offset="1" stop-color="#E0C77D"/>
</linearGradient>
<clipPath id="clip0_789_12807">
<rect width="8.15573" height="22.1951" fill="white" transform="translate(9.67773 6.40234)"/>
</clipPath>
<clipPath id="clip1_789_12807">
<rect width="8.84983" height="22.1951" fill="white" transform="matrix(-1 0 0 1 26.6816 6.40234)"/>
</clipPath>
</defs>
</svg>
