<svg width="36" height="35" viewBox="0 0 36 35" fill="none" xmlns="http://www.w3.org/2000/svg">
<g style="mix-blend-mode:luminosity">
<g style="mix-blend-mode:luminosity">
<path fill-rule="evenodd" clip-rule="evenodd" d="M30 25.5094L33.5272 24.1481L29.9961 25.5094H30ZM10.8607 30.3681C10.8607 30.3681 10.8607 30.3596 10.8607 30.3553V30.3681ZM8.19592 32.5471L8.14154 32.5556L8.16484 32.5299L8.19592 32.5471ZM8.19204 32.5043C9.55163 31.0788 11.3191 30.488 13.4595 31.5668L8.19204 32.5043ZM12.4806 31.8279L8.19204 32.5043L8.13765 32.5128L8.16873 32.5299H8.17261L8.19592 32.5471C8.38238 32.6541 8.57272 32.744 8.76306 32.8253C8.84464 32.8596 8.92622 32.8938 9.00779 32.9238C9.11656 32.9623 9.22533 33.0008 9.3341 33.0308H9.34187C9.39625 33.0479 9.45063 33.0608 9.50502 33.0736C9.5594 33.0864 9.61767 33.0993 9.67205 33.1078C9.83909 33.1421 10.01 33.1635 10.177 33.1721C10.2314 33.1721 10.2897 33.1763 10.3441 33.1806H10.3519H10.4295H10.515H10.5228C10.5772 33.1806 10.6315 33.1763 10.6859 33.1721H10.6976C10.7792 33.1635 10.8607 33.1549 10.9423 33.1421H10.9578L11.0317 33.1293C11.1171 33.1121 11.2026 33.095 11.288 33.0736C11.4007 33.0436 11.5172 33.0137 11.6299 32.9709C11.7425 32.9323 11.8591 32.8852 11.9717 32.8339H11.9834C12.4107 32.6327 12.8341 32.3587 13.2575 31.982L13.3313 31.9092L13.343 31.9007C13.3818 31.8664 13.4207 31.8279 13.4595 31.7936L12.4573 31.8279H12.4806ZM15.0599 31.7466L13.4634 31.5668L12.2397 31.8365L12.4534 31.8279H12.4806L13.4828 31.7936L15.0561 31.7423L15.0599 31.7466ZM12.2397 31.8365L14.1471 31.4127L13.4634 31.5625L12.2397 31.8322V31.8365ZM14.9589 31.2329L15.0638 31.2115L14.6637 31.1301L14.9589 31.2329ZM12.8224 30.7577L10.4218 30.274V30.2911C10.4062 30.4195 10.4839 30.5436 10.6005 30.5693C10.7248 30.595 10.8413 30.5051 10.8646 30.3724V30.3596H10.8918L12.4689 30.5565L12.8147 30.7663L12.8224 30.7577ZM12.2397 30.3938L10.4218 30.2697C10.4451 30.1327 10.5655 30.0428 10.6859 30.0728C10.7869 30.0942 10.8607 30.1883 10.8685 30.2996C10.8685 30.3082 10.8685 30.3168 10.8685 30.3253C11.0977 30.3382 11.4861 30.3596 11.8591 30.3767C11.9911 30.381 12.1193 30.3895 12.2359 30.3938H12.2397ZM9.57105 29.3493C7.63266 30.4324 5.97783 29.9657 4.66874 28.7072H4.61824L4.64543 28.6858L4.62212 28.6644H4.67262C6.1876 27.7269 7.90069 27.637 9.60213 29.1396L10.717 29.1995C10.3985 28.9041 10.0955 28.5959 9.80801 28.2663C9.68371 28.125 9.5594 27.9752 9.43898 27.8253L8.25419 27.286L7.9745 27.1575C7.9745 27.1575 7.9745 27.1661 7.97062 27.1704L7.96285 27.1875C7.90069 27.2988 7.7725 27.3373 7.66762 27.2817C7.56662 27.226 7.52001 27.0976 7.55497 26.982C7.55497 26.9692 7.56274 26.9563 7.5705 26.9435C7.62877 26.8194 7.76473 26.7723 7.8735 26.8322C7.96673 26.8836 8.01334 27.0034 7.99392 27.1105V27.1319C8.227 27.2218 8.65041 27.3844 9.03498 27.5257L9.27971 27.6156C9.07383 27.3459 8.87572 27.0676 8.68537 26.7808L7.08882 25.9247C5.14654 26.4427 3.75198 25.6336 2.82357 24.1995L2.78084 24.1824L2.80803 24.1738L2.79249 24.1481L2.83522 24.1653C4.37351 23.673 5.92733 23.994 7.16263 25.7363L8.26584 26.0873C8.04054 25.6935 7.83077 25.2826 7.64043 24.863L7.60158 24.8117L6.48283 24.0668L6.12933 23.8314C6.12933 23.8314 6.12545 23.8399 6.12156 23.8442C6.11379 23.8528 6.10602 23.8656 6.09826 23.8742C6.02056 23.9598 5.89626 23.9769 5.80303 23.9041C5.71368 23.8356 5.68649 23.7072 5.72534 23.6045C5.73311 23.5874 5.74088 23.5702 5.74864 23.5574C5.82245 23.4461 5.9623 23.4204 6.06718 23.4975C6.15652 23.566 6.18372 23.6901 6.14487 23.7971L6.1371 23.8142C6.29248 23.9041 6.53721 24.0454 6.79359 24.1952C7.04609 24.3408 7.31412 24.4906 7.52001 24.6019C7.41901 24.3622 7.32189 24.1182 7.22866 23.8699C7.1937 23.7757 7.15874 23.6773 7.12766 23.5831L5.95841 22.5771C4.28805 22.6285 3.27418 21.6995 2.74199 20.3468L2.71092 20.3254H2.73422L2.72645 20.2997L2.75753 20.3211C4.09382 20.2141 5.30969 20.7749 6.04776 22.4401L6.93732 22.9624C6.84021 22.6242 6.75086 22.2817 6.67705 21.9307L6.03222 21.0874L5.65153 20.5908C5.65153 20.5908 5.64376 20.5951 5.63988 20.5994C5.62045 20.6122 5.60103 20.6251 5.58161 20.6336C5.48838 20.6679 5.3835 20.6336 5.32134 20.5437C5.26307 20.4538 5.26696 20.3382 5.32134 20.2526C5.33688 20.2312 5.35242 20.2098 5.37573 20.1927C5.47673 20.1114 5.62045 20.137 5.69426 20.2483C5.75641 20.3468 5.74864 20.4795 5.67872 20.5608L5.67095 20.5694L5.90403 20.8391C6.12156 21.0917 6.39737 21.4084 6.62267 21.661C6.56052 21.3357 6.50613 21.0103 6.4634 20.6764L5.74088 19.5035C4.2492 19.0198 3.5966 17.8811 3.47229 16.5155L3.44898 16.4855H3.47229V16.4684L3.4956 16.4984C4.70758 16.828 5.63988 17.7056 5.85741 19.4093L6.39737 20.0257C6.35852 19.5848 6.3391 19.1396 6.3391 18.6901V18.6388L5.89626 17.7098L5.58549 17.0549C5.58549 17.0549 5.57772 17.0549 5.57384 17.0592C5.54665 17.072 5.51946 17.0763 5.49226 17.0806C5.39903 17.0806 5.31357 17.0249 5.27473 16.9307C5.23588 16.8365 5.25919 16.7252 5.32134 16.6568C5.34076 16.6354 5.36407 16.614 5.39515 16.6011C5.51169 16.5455 5.64376 16.6054 5.69426 16.7338C5.73699 16.8451 5.70203 16.9735 5.61269 17.0377H5.60492L5.71757 17.2475C5.89237 17.5686 6.14099 18.0223 6.3391 18.3691C6.34687 18.0052 6.36629 17.6413 6.39737 17.2818L6.07883 16.4984L6.05553 16.4384C4.78527 15.7492 4.36186 14.6148 4.44343 13.3691L4.42789 13.3391L4.44732 13.3477V13.3263L4.46674 13.3563C5.5078 13.8614 6.21868 14.8075 6.17206 16.3742L6.44787 16.828C6.51002 16.2972 6.60325 15.7792 6.71979 15.2698L6.25364 14.2852L5.94287 13.6302C5.94287 13.6302 5.9351 13.6302 5.93122 13.6345C5.90403 13.6474 5.87683 13.6516 5.84964 13.6559C5.7603 13.6559 5.67095 13.6045 5.63211 13.5061C5.59326 13.4119 5.61657 13.3049 5.67872 13.2321C5.69814 13.2107 5.72145 13.1893 5.75253 13.1765C5.86907 13.1208 6.00114 13.1765 6.05164 13.3092C6.09437 13.4205 6.05941 13.5489 5.97006 13.6131H5.9623L6.07495 13.8272C6.27306 14.1867 6.56052 14.7133 6.7664 15.0729C6.84021 14.7689 6.92178 14.4693 7.01501 14.1739L6.59548 13.1465C5.48838 12.5429 5.11934 11.5541 5.19315 10.471L5.17761 10.4453L5.19315 10.4539V10.4368L5.20869 10.4624C6.11379 10.8991 6.73532 11.7296 6.69648 13.0951L7.13543 13.8143C7.17039 13.7159 7.20147 13.6174 7.24032 13.5232C7.28693 13.3948 7.33743 13.2621 7.38793 13.1337L7.19759 12.4873L7.00336 11.8323H6.99559C6.96451 11.8409 6.93344 11.8409 6.90624 11.8323C6.85186 11.8152 6.80524 11.7638 6.79359 11.6996C6.77805 11.6354 6.79748 11.5712 6.83632 11.5284C6.85574 11.5027 6.88682 11.4856 6.9179 11.477C7.00724 11.4513 7.10047 11.5112 7.11989 11.614C7.13932 11.7039 7.09659 11.7938 7.02278 11.828C7.11601 12.0934 7.31412 12.6414 7.45008 12.9924C7.52001 12.8254 7.58993 12.6585 7.66373 12.4958V11.4642C6.87905 10.4154 6.91401 9.34516 7.38405 8.38627V8.3563L7.39181 8.36914L7.39958 8.35202V8.38198C8.06384 9.19105 8.32023 10.227 7.7725 11.4556L7.86573 12.0549C8.05219 11.6782 8.25419 11.3143 8.47172 10.959V10.9505L8.55718 10.8178L8.52611 10.1671L8.49115 9.43934C8.49115 9.43934 8.48338 9.43934 8.47949 9.43934C8.38626 9.43934 8.31246 9.35372 8.31634 9.25098C8.31634 9.19105 8.34742 9.1354 8.39015 9.10116C8.41734 9.07975 8.44842 9.07119 8.47949 9.06691H8.48726C8.58049 9.06691 8.6543 9.15253 8.65041 9.25527C8.65041 9.34944 8.58437 9.42222 8.50668 9.43506C8.53388 9.71759 8.59603 10.2998 8.64264 10.6765C8.72422 10.5523 8.8058 10.4282 8.89126 10.3083L9.15152 9.45218C8.74753 8.29637 9.05441 7.38456 9.71478 6.7082V6.67823L9.72644 6.69535L9.73809 6.68251V6.71247C10.0916 7.62428 10.045 8.59602 9.25252 9.48215L9.19425 9.8931C9.39625 9.62769 9.60602 9.36657 9.82355 9.12256C10.0489 8.86572 10.247 8.71161 10.4723 8.51469H10.449L10.4024 8.49756L10.4295 8.38627L10.3946 7.7099L10.3596 6.98217H10.3519H10.3441C10.2547 6.97789 10.1848 6.89227 10.1848 6.79381C10.1848 6.73388 10.2159 6.67823 10.2586 6.64398C10.2858 6.62258 10.3169 6.61401 10.348 6.60973H10.3557C10.449 6.60973 10.5228 6.69535 10.5189 6.79809C10.5189 6.89227 10.4529 6.96504 10.3752 6.97788C10.4101 7.32463 10.4956 8.14226 10.5422 8.45048C10.5772 8.42051 10.6121 8.38627 10.651 8.35202L10.717 8.29209L11.02 7.29894L11.0511 7.19621C10.6471 6.04039 10.954 5.12858 11.6143 4.45222V4.42225L11.626 4.43937L11.6376 4.42653V4.45649C11.9911 5.36402 11.9445 6.34004 11.1521 7.22617L11.0472 7.97531C11.1326 7.89397 11.2181 7.80836 11.2958 7.74415C11.3308 7.7099 11.3657 7.68422 11.3968 7.65853C11.5755 7.52155 11.6765 7.43593 11.7425 7.38028L11.7503 7.36744L11.7697 7.35031C11.8552 7.26898 11.8513 7.26042 11.929 7.21333H11.9329L12.3019 6.27155L12.5971 5.51814C12.5971 5.51814 12.5894 5.51813 12.5855 5.51385C12.4728 5.44964 12.4301 5.29981 12.4922 5.17567C12.5505 5.05153 12.6865 5.00444 12.7991 5.06865C12.9118 5.13286 12.9545 5.28697 12.8962 5.40683C12.8457 5.51385 12.7292 5.56522 12.6282 5.53098H12.6204L12.5583 5.71933C12.4301 6.10888 12.2359 6.70391 12.1077 7.11915L12.5466 6.88799L12.8341 6.69107C13.2303 5.50957 14.015 5.04724 14.924 5.02584L14.9434 5.00872V5.02584H14.9551L14.9356 5.04297C14.6521 5.99758 14.015 6.69107 12.8652 6.75528L12.2786 7.25185C12.1893 7.33747 12.131 7.38456 12.0494 7.46161L13.3857 7.96674C13.3857 7.96674 13.3857 7.95818 13.3896 7.9539C13.4323 7.8426 13.5488 7.79124 13.6498 7.83833C13.7508 7.88541 13.7975 8.01384 13.7547 8.12514C13.712 8.23644 13.5955 8.2878 13.4945 8.24071C13.4129 8.20219 13.3663 8.10801 13.374 8.01812C13.374 8.00956 13.374 7.99671 13.3779 7.98815L13.3119 7.96674C12.9584 7.85972 12.2941 7.65425 11.9406 7.56435C11.8591 7.64569 11.7581 7.75271 11.6066 7.91538C11.5794 7.93678 11.5561 7.95819 11.5328 7.97959C11.4667 8.03952 11.4046 8.09945 11.3502 8.15938C11.222 8.30065 11.1055 8.4462 10.9501 8.59174C10.6665 8.85715 10.3946 9.13968 10.1304 9.43934C10.0372 9.54208 9.94786 9.6491 9.8624 9.75612L10.3052 9.57204C10.853 8.53181 11.6648 8.23215 12.5272 8.36914L12.5505 8.3563L12.5427 8.36914H12.5583L12.535 8.38627C12.1271 9.24242 11.424 9.79465 10.3247 9.66194L9.58271 10.1071C9.00779 10.8606 8.5028 11.6953 8.09104 12.5857L8.69703 12.1191C8.99225 10.9633 9.71478 10.4539 10.581 10.3511L10.6005 10.334V10.3511H10.6121L10.5927 10.3683C10.3907 11.31 9.83132 12.0378 8.73587 12.2047L7.88515 13.078L7.924 12.971C7.823 13.2064 7.72977 13.4419 7.64043 13.6859C7.45008 14.2124 7.28693 14.7561 7.15486 15.3169L7.42678 15.1071L7.55497 15.0087C7.85019 13.8528 8.57272 13.3391 9.43898 13.2407L9.4584 13.2236V13.2407H9.47006L9.45063 13.2578C9.24864 14.1996 8.68926 14.9273 7.59381 15.0985L7.0927 15.6122C6.91013 16.4684 6.80525 17.3588 6.77805 18.2749L7.16263 17.8725L7.25974 17.774C7.39958 16.584 8.04442 15.959 8.88737 15.7193L8.90291 15.6979V15.715H8.91456L8.89903 15.7364C8.82133 16.6996 8.36684 17.5086 7.30635 17.8554L6.77029 18.5917V18.6944C6.77029 19.6019 6.85186 20.4881 7.00724 21.3442L7.22866 20.8305L7.27528 20.7235C6.9917 19.435 7.43066 18.5103 8.21146 17.8939L8.21923 17.8639V17.8811L8.23865 17.8682L8.23088 17.8982C8.49892 18.9256 8.32023 19.9572 7.35297 20.7792L7.08105 21.7252C7.22089 22.4016 7.41124 23.0608 7.64043 23.6944C7.89292 24.3922 8.1998 25.06 8.5533 25.6892L8.56495 24.5933V24.4735C7.51612 23.0223 7.58216 21.5668 8.24642 20.2826V20.2398L8.25807 20.2612L8.26973 20.2398V20.2826C9.16318 21.4084 9.48559 22.8339 8.69703 24.5035L8.9068 26.2885C9.27583 26.8793 9.69148 27.4358 10.1421 27.9452C10.5383 28.399 10.9656 28.8185 11.4201 29.1995L11.0899 27.8339L11.0744 27.774C9.43509 26.4683 9.08548 24.756 9.47394 23.0266L9.4584 22.9795L9.48171 22.9966L9.48948 22.9666L9.50502 23.0137C10.8646 24.0026 11.661 25.5437 11.2298 27.7569L11.9445 29.619C12.1504 29.7731 12.3641 29.9229 12.5777 30.0642C12.4495 29.5676 12.2514 28.8613 12.1543 28.5146C12.1388 28.5188 12.1232 28.5231 12.1077 28.5231C12.096 28.5231 12.0844 28.5231 12.0727 28.5231C11.995 28.5146 11.9212 28.4632 11.8863 28.3776C11.8474 28.2834 11.8629 28.1764 11.9251 28.1036C11.9445 28.0779 11.9678 28.0608 11.9989 28.0437C12.1116 27.9837 12.2475 28.0437 12.3019 28.1635C12.3563 28.2877 12.3019 28.4375 12.1931 28.4974C12.1893 28.4974 12.1854 28.4974 12.1815 28.5017L12.7486 30.1627C13.1021 30.3853 13.4712 30.5865 13.848 30.7663L13.8752 30.7791C14.0305 30.8519 14.1859 30.9204 14.3413 30.9846L14.151 29.7046C12.8885 28.476 12.7214 27.0291 13.172 25.6336L13.1604 25.5908L13.1798 25.6079L13.1876 25.5822L13.1992 25.625C14.2558 26.5668 14.7997 27.911 14.283 29.7046L14.6831 31.1216L14.7026 31.1301C14.788 31.1601 14.8735 31.1901 14.9551 31.22L14.9978 31.2329L15.1104 31.2714C16.1127 31.5967 17.1731 31.7722 18.2686 31.7722C19.2048 31.7722 20.1176 31.6438 20.9878 31.4041C21.0849 31.3784 21.182 31.3484 21.2791 31.3185L21.2947 31.2115L21.485 31.2543C21.5549 31.2286 21.6287 31.2072 21.6987 31.1815L22.1143 29.7089C21.5977 27.911 22.1415 26.5668 23.1981 25.6293L23.2098 25.5865L23.2175 25.6122L23.2369 25.5951L23.2253 25.6336C23.6759 27.0334 23.5089 28.4803 22.2464 29.7046L22.0483 31.0445C22.258 30.9632 22.46 30.8733 22.662 30.7791C22.9883 30.625 23.303 30.458 23.6138 30.2697L23.9517 29.2723L24.2159 28.4974C24.2159 28.4974 24.2081 28.4974 24.2042 28.4932C24.0916 28.4332 24.0411 28.2877 24.0954 28.1593C24.1498 28.0351 24.2819 27.9795 24.3984 28.0394C24.5111 28.0993 24.5616 28.2449 24.5072 28.3733C24.4606 28.4846 24.3479 28.5402 24.2469 28.5103H24.2392L24.1887 28.6858C24.0721 29.0967 23.8973 29.7389 23.7886 30.1669C23.9944 30.0385 24.1964 29.9015 24.3946 29.7603L25.1637 27.7569C24.7325 25.5437 25.5288 24.0026 26.8884 23.0137L26.904 22.9666L26.9117 22.9966L26.9351 22.9795L26.9195 23.0266C27.3119 24.756 26.9622 26.4641 25.3191 27.774L24.9423 29.3407C25.4589 28.9212 25.9445 28.4503 26.3951 27.9409C27.4556 26.7337 28.3102 25.2954 28.8929 23.6944C29.0793 23.1764 29.2425 22.6413 29.3707 22.0934L29.359 22.0805L29.3746 22.0634L29.3901 21.9992L29.0405 20.7749C28.0693 19.953 27.8907 18.9213 28.1626 17.8939L28.1548 17.8639L28.1703 17.8768V17.8597L28.1859 17.8896C28.9667 18.5061 29.4095 19.4307 29.1221 20.7192L29.4872 21.5625C29.6581 20.685 29.7552 19.7775 29.763 18.8442H29.7552L29.763 18.8314V18.7757L29.1026 17.8682L29.0871 17.8468C28.0266 17.5001 27.5682 16.691 27.4944 15.7278L27.4789 15.7064H27.4944V15.6936L27.51 15.715C28.3529 15.9547 28.9978 16.5754 29.1376 17.7698L29.7164 18.3734L29.763 18.6002C29.763 18.352 29.7552 18.1079 29.7397 17.8639L29.6931 17.9752L29.6504 17.2818L29.6892 17.2218C29.6426 16.7381 29.5688 16.2586 29.4794 15.792L28.8035 15.0985C27.7081 14.9273 27.1487 14.1996 26.9467 13.2578L26.9273 13.2407H26.9428V13.2278L26.9622 13.245C27.8285 13.3477 28.5471 13.8571 28.8463 15.0129L29.4134 15.4496L29.4056 15.4239C29.2697 14.8289 29.0988 14.251 28.8968 13.6902C28.4423 12.4402 27.8207 11.2886 27.0671 10.2698L26.0727 9.6705C24.9733 9.80321 24.2664 9.25098 23.8624 8.39482L23.8391 8.38198H23.8546L23.8468 8.36486L23.8701 8.3777C24.7325 8.24072 25.5444 8.54037 26.0921 9.5806L26.7447 9.8503C26.6321 9.71331 26.5194 9.57633 26.4029 9.44362C26.1387 9.14397 25.8629 8.85715 25.5716 8.58746C25.3307 8.36058 24.9073 8.00528 24.4684 7.56435C24.3945 7.58148 24.3091 7.60716 24.2159 7.63284C24.1459 7.65425 24.0682 7.67565 23.9906 7.69706C23.6371 7.7998 23.2331 7.92394 23.0116 7.99243V8.00955C23.0311 8.10801 22.9845 8.20647 22.899 8.245C22.798 8.29209 22.6815 8.245 22.6387 8.12942C22.6348 8.11657 22.631 8.10801 22.6271 8.09517C22.6038 7.99243 22.6504 7.88541 22.7397 7.8426C22.8368 7.79551 22.9456 7.84261 22.9961 7.94534V7.95819C22.9961 7.95819 23.0039 7.96675 23.0078 7.97103L23.2369 7.88541L24.3674 7.45733L24.344 7.43164L24.3363 7.42309L24.3169 7.40168L24.2819 7.39312L23.5283 6.75528C22.3785 6.69107 21.7414 5.9933 21.4578 5.04297L21.4384 5.02584H21.4539L21.4501 5.00872L21.4695 5.02584C22.3746 5.04724 23.1631 5.50957 23.5594 6.69107L23.8896 6.91367C23.8468 6.8623 23.8041 6.81094 23.7652 6.75528C23.9517 6.88371 24.1226 7.00357 24.2858 7.11487C24.1382 6.62686 23.8934 5.882 23.773 5.52241C23.7575 5.5267 23.7419 5.53098 23.7264 5.53526C23.7148 5.53526 23.7031 5.53526 23.6914 5.53526C23.6138 5.53526 23.5361 5.48389 23.4972 5.40255C23.4545 5.30838 23.4661 5.20135 23.5244 5.1243C23.5438 5.09861 23.5671 5.08149 23.5904 5.06437C23.7031 5.00015 23.8391 5.04724 23.8973 5.17139C23.9556 5.29553 23.9129 5.44536 23.8041 5.50957C23.8041 5.50957 23.7963 5.51385 23.7924 5.51385L24.4722 7.24757C24.7597 7.44449 25.0277 7.63712 25.3268 7.84688L25.2492 7.29894L25.2375 7.22617C24.445 6.34004 24.3945 5.3683 24.7558 4.45649V4.43081L24.7636 4.44365L24.7713 4.42653V4.45649C25.4356 5.13286 25.7425 6.04467 25.3385 7.20048L25.5949 8.0438L25.8046 8.19791L25.8707 8.26212C25.9173 7.88969 25.9833 7.27754 26.0105 6.98644C26.0105 6.98644 25.9833 6.97788 25.9717 6.9736C25.9095 6.94792 25.8668 6.88371 25.8668 6.80665C25.8668 6.74672 25.8901 6.69107 25.9328 6.65682C25.96 6.63542 25.995 6.6183 26.03 6.6183C26.1232 6.6183 26.2009 6.69535 26.2009 6.79809C26.2009 6.90083 26.1309 6.98644 26.0377 6.98644C26.0377 6.98644 26.0299 6.98644 26.0261 6.98644L25.96 8.34773C26.2164 8.59602 26.465 8.85287 26.702 9.12256C26.8574 9.30236 27.0127 9.48643 27.1604 9.67478L27.1332 9.48643C26.3407 8.6003 26.2941 7.62856 26.6515 6.71675V6.69107L26.6592 6.70391L26.667 6.68679V6.71247C27.3313 7.38884 27.6382 8.30065 27.2342 9.45646L27.3934 9.97872C27.5216 10.15 27.6459 10.3255 27.7663 10.5053C27.8091 10.1414 27.8557 9.68335 27.8829 9.44362C27.8829 9.44362 27.8557 9.43506 27.844 9.43078C27.7819 9.4051 27.7392 9.34088 27.7392 9.26383C27.7392 9.2039 27.7625 9.14825 27.8052 9.114C27.8324 9.0926 27.8673 9.07547 27.9023 9.07547C27.9955 9.07547 28.0732 9.15253 28.0732 9.25527C28.0732 9.35801 28.0033 9.44362 27.9101 9.44362C27.9101 9.44362 27.9023 9.44362 27.8984 9.44362L27.8402 10.6166C28.0965 11.0104 28.3374 11.4213 28.5549 11.8451L28.6171 11.4556C28.0693 10.2313 28.3257 9.19533 28.99 8.38198V8.35202L29.0016 8.36914L29.0133 8.3563V8.38627C29.4833 9.34088 29.5144 10.4111 28.7297 11.4642V12.1962C28.8268 12.3974 28.9201 12.6071 29.0094 12.8169C29.1337 12.483 29.2852 12.0592 29.3668 11.8323C29.3668 11.8323 29.3435 11.8152 29.3318 11.8066C29.2774 11.7638 29.2503 11.6868 29.2658 11.614C29.2774 11.5541 29.3163 11.5112 29.359 11.4898C29.3668 11.4898 29.3784 11.4813 29.3862 11.4813C29.4095 11.4727 29.4406 11.4727 29.4678 11.4813C29.5571 11.507 29.6115 11.6054 29.5921 11.7039C29.5688 11.8023 29.4794 11.8623 29.3901 11.8409H29.3823L29.056 12.941C29.1376 13.1337 29.2114 13.3306 29.2852 13.5318L29.3396 13.6773L29.6931 13.1037C29.6542 11.7381 30.2719 10.9119 31.1809 10.471L31.1964 10.4453V10.4624L31.212 10.4539L31.1964 10.4796C31.2702 11.5669 30.9012 12.5558 29.7941 13.1551L29.4522 13.9941C29.5494 14.298 29.6387 14.602 29.7203 14.9145C29.9611 14.495 30.2641 13.9385 30.4234 13.6431L30.4312 13.6302C30.4312 13.6302 30.4079 13.6131 30.3962 13.6003C30.3302 13.5318 30.303 13.4205 30.3418 13.3177C30.3923 13.1893 30.5244 13.1337 30.6409 13.185C30.7575 13.2407 30.808 13.3862 30.7613 13.5147C30.7108 13.6431 30.5788 13.6987 30.4622 13.6474C30.4584 13.6474 30.4545 13.6474 30.4506 13.6431L29.7669 15.0857C29.8912 15.5951 29.9883 16.1174 30.0621 16.6482L30.2253 16.3828C30.1787 14.816 30.8895 13.87 31.9306 13.3648L31.9461 13.3349V13.3563L31.9656 13.3477L31.95 13.3777C32.0355 14.6234 31.6121 15.7578 30.3379 16.447L30.1049 17.0163C30.1437 17.3888 30.1709 17.7612 30.1864 18.1422C30.404 17.7569 30.6448 17.3117 30.7808 17.0634L30.7885 17.0506C30.7885 17.0506 30.7652 17.0335 30.7536 17.0206C30.6875 16.9521 30.6642 16.8408 30.6992 16.7424C30.7497 16.6139 30.8818 16.5583 30.9983 16.6097C31.1148 16.6653 31.1653 16.8109 31.1187 16.9393C31.0682 17.0677 30.9362 17.1234 30.8196 17.072C30.8157 17.072 30.8118 17.072 30.808 17.0677L30.1942 18.3648C30.1942 18.4761 30.1942 18.5874 30.1942 18.6987C30.1942 19.0882 30.1787 19.4778 30.1515 19.8588L30.536 19.4179C30.7536 17.7141 31.6859 16.8366 32.8979 16.5069L32.9212 16.477V16.5026L32.9406 16.4984L32.9173 16.5283C32.7969 17.8939 32.1404 19.0326 30.6487 19.5163L30.101 20.411C30.0621 20.7706 30.0077 21.1259 29.9456 21.4769C30.2214 21.1602 30.5283 20.8091 30.707 20.5994L30.7225 20.5822C30.7225 20.5822 30.7031 20.5608 30.6953 20.548C30.6409 20.4624 30.6409 20.3468 30.6953 20.2612C30.7691 20.1499 30.909 20.1242 31.0138 20.2055C31.1148 20.2869 31.1382 20.441 31.0643 20.5566C30.9905 20.6679 30.8507 20.6935 30.7458 20.6122C30.7458 20.6122 30.738 20.6079 30.7342 20.6036L29.9029 21.6953C29.8252 22.0976 29.7281 22.4915 29.6193 22.8767L30.3418 22.453C31.076 20.7877 32.2919 20.2312 33.6282 20.334L33.6592 20.3126L33.6515 20.3382H33.6748L33.6398 20.3639C33.1076 21.7167 32.0938 22.6456 30.4234 22.5942L29.4484 23.4333C29.3979 23.5874 29.3474 23.7415 29.2891 23.8913C29.2114 24.1053 29.1298 24.3151 29.0405 24.5249C29.4289 24.3065 29.9262 24.0197 30.2059 23.8571L30.2447 23.8356C30.2447 23.8356 30.2369 23.81 30.233 23.7971C30.2059 23.6987 30.233 23.5831 30.3185 23.5189C30.4195 23.4375 30.5632 23.4632 30.637 23.5788C30.7108 23.6901 30.6875 23.8485 30.5827 23.9298C30.4817 24.0112 30.3379 23.9855 30.2641 23.8699C30.2641 23.8699 30.2602 23.8613 30.2564 23.8571L28.9589 24.7218C28.7569 25.1841 28.5355 25.6293 28.2908 26.0574L29.2231 25.762C30.4584 24.0197 32.0083 23.6987 33.5466 24.191L33.5893 24.1738L33.5738 24.1995L33.601 24.2081L33.5582 24.2252C32.6298 25.6593 31.2353 26.4683 29.293 25.9504L27.9101 26.6909C27.7158 26.9949 27.51 27.286 27.2963 27.5685C27.6653 27.4358 28.0771 27.2774 28.3335 27.1789L28.3956 27.1575C28.3956 27.1575 28.3879 27.1361 28.3879 27.1233C28.3723 27.0206 28.419 26.9093 28.5083 26.8579C28.621 26.7937 28.7569 26.845 28.8113 26.9692C28.8696 27.0933 28.8229 27.2432 28.7103 27.3074C28.5976 27.3716 28.4617 27.3202 28.4034 27.1961C28.4034 27.1918 28.3995 27.1875 28.3995 27.1832L27.1526 27.7526C27.005 27.9366 26.8574 28.1164 26.702 28.292C26.4145 28.6173 26.1154 28.9255 25.8008 29.2166L26.768 29.1652C28.4695 27.6627 30.1825 27.7526 31.6975 28.6986H31.748L31.7247 28.7157L31.7519 28.7329H31.7014C30.3923 29.9957 28.7375 30.4666 26.7991 29.3836L25.1365 29.7902C24.8568 30.0128 24.5732 30.2226 24.278 30.4195C24.3984 30.4152 24.5227 30.4067 24.647 30.4024C24.9733 30.3853 25.2958 30.3681 25.4978 30.3553C25.4978 30.3467 25.4978 30.3339 25.4978 30.3253C25.5055 30.2183 25.5793 30.1241 25.6803 30.1027C25.8046 30.077 25.9212 30.1669 25.9445 30.2996C25.9678 30.4366 25.8862 30.5651 25.7619 30.5907C25.6376 30.6164 25.5211 30.5265 25.4978 30.3938C25.4978 30.3895 25.4978 30.3853 25.4978 30.381L24.0644 30.5565C23.6681 30.8091 23.2564 31.0359 22.833 31.2329C22.662 31.3142 22.4872 31.3912 22.3124 31.464L22.9068 31.5967C25.0433 30.518 26.8146 31.1087 28.1742 32.5342L28.2286 32.5428L28.1975 32.5599L28.2208 32.5856L28.1665 32.577C26.4961 33.5145 24.6509 33.5231 22.8835 31.8279L21.4345 31.7808C21.3452 31.8065 21.2597 31.8365 21.1704 31.8579C20.5644 32.0291 19.9351 32.1489 19.298 32.2132C20.0788 32.5471 21.2403 33.1977 21.9084 33.6858C22.227 33.9212 22.4367 34.1181 22.4367 34.2251C22.4367 34.3279 22.3629 34.3493 22.3085 34.4006H22.0172C21.7336 34.1823 21.5044 33.9126 21.217 33.6858C20.9839 33.5017 20.5799 33.2277 20.3274 33.065C20.1332 32.9409 19.3097 32.4871 18.7658 32.2474C18.6065 32.256 18.4434 32.2602 18.2802 32.2602C18.1171 32.2602 17.9617 32.2603 17.8024 32.2517C17.2547 32.4957 16.4195 32.9495 16.2292 33.0693C15.9922 33.2191 15.5494 33.5145 15.3396 33.6858C15.1066 33.8784 14.9084 34.0924 14.687 34.2851C14.6404 34.3279 14.5938 34.3664 14.5433 34.4049H14.252C14.1976 34.3493 14.1238 34.3279 14.1238 34.2294C14.1238 34.1952 14.1587 34.1438 14.217 34.0796C14.5433 33.7286 15.631 33.0436 15.8718 32.9281C16.1942 32.7782 16.5128 32.5685 16.874 32.4315C16.9945 32.3887 17.1615 32.3031 17.3363 32.2217C16.571 32.1532 15.8291 32.0034 15.1104 31.7765C14.7997 31.6781 14.4967 31.571 14.1976 31.4469H14.1898L14.1781 31.4383C14.0888 31.3998 13.9995 31.3656 13.914 31.3228C13.848 31.2928 13.7858 31.2628 13.7237 31.2329C13.4323 31.0959 13.1487 30.946 12.8729 30.7877C12.7564 30.7192 12.6399 30.6507 12.5272 30.5779C12.4456 30.5265 12.3679 30.4752 12.2902 30.4238L12.2786 30.4152C12.0067 30.2354 11.7425 30.0428 11.4861 29.8373L9.62155 29.3793L9.57105 29.3493ZM27.6187 12.2047L28.4695 13.078L28.3102 12.6242L27.6576 12.1191C27.3624 10.9633 26.6398 10.4539 25.7736 10.3511L25.7541 10.334V10.3511H25.7425L25.7619 10.3683C25.9639 11.31 26.5233 12.0378 27.6187 12.2047ZM27.4284 26.4598L27.8013 25.8305L27.7858 24.4735C28.8346 23.0223 28.7686 21.5668 28.1043 20.2826V20.2398L28.0927 20.2612L28.081 20.2398V20.2826C27.1875 21.4084 26.8651 22.8339 27.6537 24.5035L27.4245 26.4641L27.4284 26.4598Z" fill="url(#paint0_linear_770_16279)"/>
<path fill-rule="evenodd" clip-rule="evenodd" d="M7.55336 5.25705C7.76701 4.91459 7.98066 4.61065 8.19431 4.3324C8.44681 4.00278 8.69931 3.7074 8.95957 3.43343C9.20819 3.16802 9.47622 2.91545 9.75979 2.66288C9.99287 2.4574 10.2376 2.25193 10.494 2.04217C12.1294 3.20226 13.8658 3.78874 15.272 4.07983C16.6976 4.37521 17.7931 4.37092 18.1038 4.36236H18.131C18.131 4.36236 18.1466 4.36236 18.1582 4.36236H18.1854C18.3175 4.36236 18.6516 4.37093 19.1216 4.34096C19.5994 4.31099 20.2248 4.2425 20.9396 4.10123C21.7476 3.93856 22.6721 3.68172 23.6238 3.27076C24.3463 2.95826 25.0844 2.55586 25.8069 2.04217C26.0555 2.24337 26.3003 2.44884 26.5372 2.66288C26.8169 2.91117 27.0849 3.16802 27.3413 3.43771C27.6055 3.71168 27.858 4.01133 28.1066 4.33667C28.3202 4.61493 28.5339 4.92315 28.7475 5.25705C28.4484 5.81355 28.091 6.52416 27.757 7.41884C27.3879 8.40343 27.05 9.60633 26.8519 11.049C26.6382 12.59 26.5838 14.4051 26.8247 16.5241C27.0578 18.596 27.5744 20.9633 28.4989 23.6516C28.1221 24.191 27.6132 24.816 26.9878 25.5009C26.3119 26.2372 25.5078 27.0377 24.5911 27.881C23.6743 28.7244 22.6371 29.6105 21.5067 30.518C20.4773 31.3442 19.3741 32.179 18.2087 33.0094C17.0084 32.2046 15.9207 31.417 14.9457 30.6636C13.8075 29.786 12.8092 28.9427 11.9351 28.1507C10.9562 27.2603 10.1405 26.4384 9.47622 25.7064C8.73427 24.8888 8.18266 24.191 7.80974 23.6473C8.73427 20.959 9.24703 18.5917 9.48399 16.5198C9.72483 14.4008 9.67045 12.5858 9.4568 11.0447C9.25869 9.60205 8.92073 8.40343 8.5517 7.41457C8.21762 6.51988 7.86024 5.80499 7.56113 5.25276L7.55336 5.25705ZM7.7709 3.93856C7.50675 4.28531 7.25037 4.65345 6.99787 5.06441L7.7709 3.93856ZM8.575 2.99678C8.29531 3.29216 8.02728 3.60038 7.7709 3.93856L8.575 2.99678ZM9.41018 2.192C9.12273 2.44885 8.84692 2.70997 8.575 2.99678L9.41018 2.192ZM10.3231 1.42573C10.0045 1.6783 9.70541 1.93087 9.41018 2.192L10.3231 1.42573ZM10.6532 1.42573H10.3231C10.4241 1.34012 10.56 1.3444 10.6532 1.42573ZM15.373 3.48052L10.6532 1.42573C12.2576 2.60295 13.9823 3.18942 15.373 3.48052ZM18.1038 3.75021L15.373 3.48052C16.7714 3.77161 17.828 3.76305 18.1038 3.75021ZM18.1271 3.75021C18.1271 3.75021 18.1116 3.75021 18.1038 3.75021H18.1271ZM18.1932 3.75021C18.1932 3.75021 18.1776 3.75021 18.1699 3.75021H18.1932ZM19.0827 3.7288L18.1932 3.75021C18.3175 3.75021 18.6283 3.75877 19.0827 3.7288ZM20.8347 3.49764L19.0827 3.7288C19.545 3.69884 20.151 3.63463 20.8347 3.49764ZM23.414 2.69713L20.8347 3.49764C21.6116 3.34353 22.4973 3.09096 23.414 2.69713ZM25.6554 1.41718L23.414 2.69713C24.156 2.37607 24.9174 1.95656 25.6554 1.41718ZM25.9817 1.4343L25.6554 1.41718C25.7603 1.34012 25.8924 1.35296 25.9817 1.4343ZM26.8791 2.18771C26.5994 1.93943 26.3003 1.69114 25.9817 1.4343L26.8791 2.18771ZM27.7181 2.99678C27.4501 2.71425 27.1704 2.44884 26.8791 2.18771L27.7181 2.99678ZM28.5261 3.94284C28.262 3.60038 27.9939 3.28788 27.7181 2.99678L28.5261 3.94284ZM29.303 5.07725C29.0467 4.66201 28.7903 4.28959 28.5261 3.94284L29.303 5.07725ZM29.3108 5.40687L29.303 5.07725C29.3652 5.17999 29.3652 5.30841 29.3108 5.40687ZM28.2659 7.65429L29.3108 5.40687C29 5.97194 28.6193 6.71251 28.2659 7.65429ZM27.3957 11.1431L28.2659 7.65429C27.9124 8.60034 27.5899 9.75188 27.3957 11.1431ZM27.3724 16.4513L27.3957 11.1431C27.1898 12.6329 27.1393 14.3923 27.3724 16.4513ZM29.07 23.5917L27.3724 16.4513C27.6055 18.5189 28.1299 20.8905 29.07 23.5917ZM29.0233 23.8999L29.07 23.5917C29.1088 23.6987 29.0855 23.8186 29.0233 23.8999ZM27.3763 25.9333C28.0677 25.1799 28.6232 24.4949 29.0233 23.8999L27.3763 25.9333ZM24.9407 28.3476C25.8768 27.4915 26.6926 26.6781 27.3763 25.9333L24.9407 28.3476ZM21.8253 31.0146C22.9557 30.1071 24.0006 29.2124 24.9407 28.3476L21.8253 31.0146ZM18.3524 33.6301C19.58 32.7569 20.7453 31.8793 21.8253 31.0146L18.3524 33.6301ZM18.0611 33.6344H18.3524C18.2592 33.6944 18.1466 33.6944 18.0611 33.6344ZM14.6194 31.1687C15.6566 31.9692 16.8025 32.7997 18.0611 33.6344L14.6194 31.1687ZM11.5778 28.6259C12.4557 29.4264 13.4696 30.2783 14.6194 31.1687L11.5778 28.6259ZM9.08 26.143C9.75203 26.8836 10.5794 27.7184 11.5778 28.6259L9.08 26.143ZM7.26979 23.8785C7.65825 24.4607 8.25258 25.2312 9.08 26.143L7.26979 23.8785ZM7.23483 23.5874L7.26979 23.8785C7.21152 23.7929 7.20375 23.6816 7.23483 23.5874ZM8.9285 16.447L7.23483 23.5874C8.17489 20.8819 8.69542 18.5147 8.9285 16.447ZM8.90519 11.1389L8.9285 16.447C9.16157 14.388 9.11107 12.6286 8.90519 11.1389ZM8.03505 7.65001L8.90519 11.1389C8.71096 9.7476 8.38854 8.59607 8.03505 7.65001ZM6.9901 5.40259L8.03505 7.65001C7.68155 6.70824 7.30087 5.96338 6.9901 5.40259ZM7.81751 2.11066C7.48344 2.46597 7.15714 2.84696 6.8386 3.27076C6.52007 3.69456 6.21319 4.16116 5.90631 4.68342C5.80919 4.82897 5.75093 5.00448 5.74316 5.18427C5.73539 5.36406 5.77423 5.54814 5.86358 5.71081L5.87523 5.73222C6.15492 6.23307 6.53949 6.92227 6.90076 7.83408C7.26591 8.75445 7.61163 9.90599 7.80586 11.3144C8.00397 12.7484 8.05059 14.4479 7.80974 16.4513C7.5689 18.4633 7.0406 20.7835 6.09277 23.4461C6.09277 23.4547 6.08888 23.459 6.085 23.4675C6.04227 23.6002 6.02673 23.7415 6.04227 23.8828C6.0578 24.0283 6.10442 24.1696 6.18211 24.298C6.55891 24.9102 7.1921 25.762 8.11274 26.798C8.84304 27.6156 9.75979 28.5531 10.8747 29.5634C11.8147 30.4153 12.8908 31.3228 14.1183 32.2646C15.2137 33.1036 16.4335 33.9769 17.7892 34.8716L17.8047 34.8801C17.9329 34.9615 18.0805 35 18.2281 35C18.3758 35 18.5273 34.9529 18.6632 34.8587C19.9723 33.9384 21.2076 33.0137 22.3458 32.1019C23.55 31.143 24.6571 30.1927 25.6515 29.2809C26.6965 28.322 27.6055 27.4102 28.3513 26.5797C29.1166 25.7278 29.7148 24.9615 30.1227 24.3066V24.298C30.2043 24.1782 30.2509 24.0369 30.2664 23.8913C30.2819 23.7458 30.2664 23.596 30.2159 23.4461C29.2681 20.7835 28.7398 18.4633 28.4989 16.4513C28.2581 14.4479 28.3047 12.7484 28.4989 11.3144C28.6932 9.90599 29.0389 8.75445 29.404 7.83408C29.7692 6.91799 30.1615 6.21166 30.4412 5.70653C30.449 5.69369 30.4567 5.67656 30.4606 5.65944C30.5267 5.52245 30.5616 5.37263 30.5616 5.21852V5.20996C30.5616 5.04729 30.515 4.88462 30.4334 4.73479C30.1188 4.19113 29.8003 3.71168 29.4817 3.27932C29.1593 2.84268 28.8291 2.45741 28.4912 2.1021C28.1571 1.75108 27.8152 1.43001 27.4579 1.11752C27.0966 0.800738 26.7237 0.501083 26.3313 0.188585H26.3275C26.1876 0.0687227 26.0167 0.00450973 25.8419 0.000228934C25.6671 -0.00405186 25.4884 0.0516 25.333 0.175743C24.6299 0.736527 23.8957 1.16461 23.1771 1.48995C22.2797 1.89663 21.4057 2.14491 20.6482 2.29902C20.0267 2.42316 19.479 2.48309 19.0594 2.51306C18.6554 2.53874 18.3796 2.53875 18.2553 2.53446C18.2359 2.53446 18.2165 2.53446 18.1971 2.53018H18.1854C18.1854 2.53018 18.1505 2.53018 18.1349 2.53018C18.1233 2.53018 18.1116 2.53018 18.1 2.53018C17.7892 2.54302 14.0717 2.65005 10.9679 0.180028L10.9485 0.167186C10.8125 0.0644471 10.6494 0.00879235 10.4823 0.00879235C10.3153 0.00879235 10.1444 0.0644424 10.0006 0.175743C9.60441 0.488241 9.23149 0.7879 8.86634 1.10896C8.50508 1.42574 8.15547 1.75108 7.81751 2.11066ZM7.2659 3.66031L29.9595 5.41971L29.9712 5.39831C29.9984 5.34694 30.0139 5.29129 30.0139 5.23564C30.0139 5.17999 29.9984 5.12434 29.9712 5.07725C29.6682 4.55499 29.3652 4.09695 29.0583 3.68171C28.7514 3.27076 28.4368 2.90261 28.1105 2.56015C27.7919 2.22197 27.4618 1.91375 27.1121 1.60981C26.7664 1.31016 26.4013 1.0105 26.0089 0.702285C26.0012 0.698005 25.9934 0.689439 25.9856 0.685158C25.939 0.646631 25.8846 0.629508 25.8302 0.625228C25.772 0.625228 25.7137 0.642351 25.6593 0.685158C24.9212 1.27591 24.1482 1.72539 23.3868 2.06785C22.4507 2.49165 21.5378 2.75278 20.7453 2.91117C20.0927 3.03959 19.5256 3.10381 19.0944 3.13377C18.6632 3.16374 18.3524 3.15946 18.2281 3.15518C18.2204 3.15518 18.2087 3.15518 18.201 3.15518C18.1932 3.15518 18.1854 3.15518 18.1738 3.15518H18.1388H18.131C17.8008 3.16802 13.9007 3.27932 10.6494 0.689437C10.6027 0.65091 10.5445 0.629506 10.4901 0.629506C10.4357 0.629506 10.3774 0.646631 10.3269 0.685158C9.93072 0.997656 9.56168 1.29731 9.21207 1.59697C8.86246 1.90519 8.5245 2.21768 8.1982 2.56015C7.87578 2.89833 7.56502 3.2622 7.2659 3.66459V3.66031ZM6.36857 5.02588C6.66768 4.51647 6.96291 4.06698 7.2659 3.66031L6.36857 5.02588ZM6.34915 5.05585L6.36857 5.02588C6.36857 5.02588 6.35692 5.04729 6.34915 5.05585ZM6.29476 5.21852C6.29476 5.15859 6.31419 5.10294 6.34915 5.05585L6.29476 5.21852ZM6.33749 5.39403C6.30642 5.33838 6.29476 5.27845 6.29476 5.21852L6.33749 5.39403ZM7.40963 7.59436L6.34915 5.41544C6.63661 5.93341 7.03283 6.6483 7.40963 7.59436ZM8.35747 11.2245C8.15547 9.75616 7.7942 8.55754 7.40963 7.59436L8.35747 11.2245ZM8.36135 16.5284C8.60996 14.4607 8.56335 12.7013 8.35747 11.2245V16.5284H8.36135ZM6.62107 23.6431C7.58055 20.9419 8.11662 18.5832 8.36135 16.5284L6.62107 23.6431ZM6.60941 23.6816L6.62107 23.6431C6.62107 23.6431 6.6133 23.6687 6.60941 23.6816ZM6.59776 23.8143C6.59387 23.7715 6.59776 23.7244 6.60941 23.6816L6.59776 23.8143ZM6.64438 23.9513C6.61718 23.9085 6.60164 23.8614 6.59776 23.8143L6.64438 23.9513ZM8.51285 26.3656L6.64438 23.9513C7.00564 24.5377 7.6194 25.3639 8.51285 26.3656ZM11.232 29.0882L8.51285 26.3656C9.23538 27.1747 10.1366 28.0951 11.232 29.0882ZM14.4407 31.7594L11.232 29.0882C12.1527 29.923 13.2171 30.8177 14.4407 31.7594ZM18.0572 34.3322L14.4407 31.7594C15.5284 32.5942 16.7326 33.4589 18.0572 34.3322ZM18.0922 34.3536L18.0572 34.3322C18.0572 34.3322 18.0805 34.345 18.0922 34.3536ZM18.2243 34.3878C18.1776 34.3878 18.131 34.375 18.0922 34.3536L18.2243 34.3878ZM18.368 34.3408C18.3214 34.3707 18.2748 34.3878 18.2243 34.3878L18.368 34.3408ZM22.0234 31.6053L18.368 34.3408C19.6577 33.4375 20.8813 32.5171 22.0234 31.6053ZM25.298 28.81L22.0234 31.6053C23.2276 30.6464 24.3269 29.7047 25.298 28.81ZM27.959 26.1473L25.298 28.81C26.3236 27.8682 27.2209 26.9692 27.959 26.1473ZM29.6643 23.9598L27.959 26.1473C28.697 25.3254 29.2758 24.5848 29.6643 23.9598ZM29.7148 23.8143C29.7109 23.8614 29.6954 23.9085 29.6721 23.947L29.7148 23.8143ZM29.6993 23.6645C29.7148 23.7115 29.7226 23.7629 29.7148 23.8143L29.6993 23.6645ZM27.9473 16.5284C28.192 18.5874 28.732 20.9547 29.6954 23.6645L27.9434 16.5284H27.9473ZM27.9473 11.2245C27.7414 12.7056 27.6948 14.4607 27.9473 16.5284V11.2245ZM28.8952 7.59008C28.5106 8.55326 28.1493 9.75616 27.9473 11.2245L28.8952 7.59008Z" fill="url(#paint1_linear_770_16279)"/>
<path fill-rule="evenodd" clip-rule="evenodd" d="M7.22346 5.2477C7.72457 4.43007 8.22957 3.78367 8.76563 3.2186C9.28617 2.67066 9.85331 2.18266 10.4826 1.67752C13.7728 4.10473 17.5486 4.08332 18.108 4.0662C18.1313 4.0662 18.1546 4.0662 18.1779 4.0662C18.4227 4.07476 19.4831 4.09189 20.8855 3.80936C22.3228 3.52254 24.1291 2.91895 25.8111 1.67752C26.4365 2.18266 27.0037 2.66639 27.5281 3.22289C28.068 3.79224 28.573 4.43435 29.0741 5.25198C28.4487 6.39495 27.5164 8.26994 27.1241 11.0995C26.7045 14.1303 26.9143 18.2485 28.81 23.7022C28.0331 24.8623 26.6269 26.4034 24.7623 28.1157C22.9521 29.7766 20.7184 31.5917 18.2051 33.3725C15.5442 31.6003 13.4155 29.8965 11.7529 28.3897C9.5542 26.3905 8.18295 24.7382 7.4915 23.6979C9.38717 18.2399 9.59693 14.1218 9.1774 11.091C8.78506 8.2571 7.85276 6.38639 7.22735 5.24342L7.22346 5.2477ZM8.00426 2.33676C7.34777 3.03025 6.73789 3.82648 6.12802 4.86243C5.99206 5.05934 5.96875 5.33332 6.09305 5.55592C6.66409 6.57475 7.67796 8.39837 8.07418 11.2751C8.47818 14.186 8.25676 18.1885 6.34555 23.5609C6.27951 23.7407 6.29505 23.9548 6.40382 24.126C7.06808 25.2048 8.55587 27.0669 11.0459 29.3272C12.8056 30.9282 15.0781 32.7304 17.9254 34.6097C18.1002 34.7252 18.3255 34.7295 18.5081 34.6011C21.1807 32.7261 23.5542 30.804 25.4693 29.0489C27.5553 27.1354 29.0974 25.406 29.886 24.1388C29.9909 23.9762 30.022 23.7621 29.952 23.5609C28.037 18.1885 27.8194 14.186 28.2234 11.2751C28.6196 8.39837 29.6374 6.57475 30.2045 5.55592C30.3133 5.36329 30.3172 5.11071 30.2007 4.90952C29.583 3.8436 28.9654 3.03453 28.2972 2.33248C27.6446 1.64328 26.9493 1.06537 26.1685 0.444652C25.9781 0.277701 25.7023 0.260575 25.4964 0.427526C23.8805 1.71604 22.0975 2.31964 20.699 2.60217C19.4249 2.85902 18.4732 2.84618 18.2401 2.8419C18.209 2.83762 18.174 2.83761 18.143 2.83761C18.1313 2.83761 14.1263 3.06878 10.8128 0.43181C10.6263 0.281983 10.3661 0.273421 10.168 0.43181C9.3794 1.05253 8.68017 1.63471 8.01203 2.34104L8.00426 2.33676Z" fill="url(#paint2_linear_770_16279)"/>
<path d="M6.56641 5.23654C7.74731 3.20317 8.92822 2.14581 10.4782 0.925781C13.9471 3.69117 18.1541 3.44717 18.1541 3.44717" stroke="#8F6137" stroke-width="0.303049" stroke-miterlimit="2.61"/>
<path d="M18.1543 3.44727V3.45154" stroke="#8F6137" stroke-width="0.303049" stroke-miterlimit="2.61"/>
<path d="M18.1541 3.45107C18.3483 3.45964 22.4232 3.63087 25.8144 0.929688C27.3644 2.14971 28.5453 3.20707 29.7262 5.24044C28.5453 7.35515 25.5192 12.8046 29.4309 23.7891C27.9703 26.1521 23.7245 30.2189 18.2084 34.093C11.426 29.6238 7.96485 25.5742 6.86163 23.7891C10.7734 12.8046 7.74731 7.35515 6.56641 5.24044" stroke="#8F6137" stroke-width="0.303049" stroke-miterlimit="2.61"/>
<path fill-rule="evenodd" clip-rule="evenodd" d="M6.56641 5.23654C7.74731 3.20317 8.92822 2.14581 10.4782 0.925781C13.9471 3.69117 18.1541 3.44717 18.1541 3.44717C18.3483 3.46001 22.4232 3.62696 25.8144 0.925781C27.3644 2.14581 28.5453 3.20317 29.7262 5.23654C28.5453 7.35126 25.5192 12.8007 29.4309 23.7852C27.9703 26.1482 23.7245 30.215 18.2084 34.0891C11.426 29.6199 7.96485 25.5703 6.86163 23.7852C10.7734 12.8007 7.74731 7.35126 6.56641 5.23654Z" fill="url(#paint3_radial_770_16279)"/>
<g clip-path="url(#clip0_770_16279)">
<g opacity="0.5">
<path d="M11.8426 22.9069C11.6656 22.5533 11.4887 22.1997 11.2889 21.7857C11.1862 21.5757 11.1064 21.4262 11.0265 21.2766C10.8447 20.7859 10.6692 20.2922 10.4772 19.8066C10.4208 19.6639 10.2022 18.7778 10.1025 18.6176C9.98959 17.7929 10.0104 17.7646 9.89833 16.9345C9.83757 16.2954 9.79405 15.6916 9.74372 15.0424C9.73828 14.8888 9.73965 14.7806 9.74055 14.6002C9.72391 14.4438 9.70774 14.3598 9.69157 14.2757C9.69157 14.2757 9.695 14.2296 9.69119 14.1694C9.68416 14.0326 9.68095 13.956 9.67773 13.8795C9.69487 13.3699 9.71201 12.8604 9.71955 12.3062C9.71523 12.1852 9.7205 12.1089 9.72727 11.9626C9.72321 11.8467 9.71765 11.8009 9.7121 11.7551C9.71126 11.6412 9.71043 11.5274 9.71439 11.351C9.72367 11.2073 9.72816 11.1261 9.73265 11.045C9.73811 10.8382 9.74357 10.6314 9.74988 10.3361C9.75465 10.0083 9.75858 9.76895 9.80421 9.52793C10.3297 9.4897 10.8134 9.45317 11.3371 9.42187C12.7182 9.32438 14.0136 8.99764 15.2287 8.35182C15.7259 8.08761 16.1805 7.72374 16.6832 7.40325C17.0589 7.17075 17.4538 6.99694 17.7403 6.69497C18.0801 6.33685 18.3327 6.31567 18.6473 6.72253C18.8111 6.86165 18.9581 6.97289 19.1225 7.11035C19.2772 7.23921 19.4144 7.34185 19.5803 7.46533C19.8603 7.63223 20.1118 7.77828 20.3823 7.95358C20.8457 8.1913 21.29 8.39976 21.7617 8.62998C22.3396 8.82809 22.8901 9.00445 23.4405 9.1808C23.9646 9.26501 24.4886 9.34922 25.0523 9.42639C25.5824 9.47276 26.0728 9.52616 26.6431 9.58827C26.6431 10.3286 26.6431 11.097 26.6516 11.9122C26.6578 12.1324 26.6556 12.306 26.6526 12.5621C26.6568 12.754 26.6617 12.8634 26.6666 12.9728C26.6614 13.0806 26.6562 13.1883 26.6507 13.3787C26.6553 13.6361 26.6602 13.811 26.6651 13.9859C26.5032 15.5525 26.3732 17.1245 26.1643 18.6832C26.0771 19.334 25.8222 19.9567 25.6355 20.6204C25.2225 20.1788 24.8567 19.7877 24.4508 19.3454C24.3705 19.1604 24.269 19.0054 24.2995 18.8962C24.6939 17.4822 24.8254 16.0255 24.864 14.5577C24.8926 13.4702 24.8696 12.381 24.8696 11.3121C24.1308 11.1835 23.4771 11.0697 22.7911 10.9405C22.0671 10.6881 21.3756 10.4512 20.6614 10.1871C20.1008 9.86747 19.563 9.57509 19.0088 9.25958C18.9145 9.1938 18.8365 9.15116 18.7405 9.0792C18.1409 8.62946 18.1409 8.62946 17.7874 9.10685C17.1114 9.47779 16.4708 9.84909 15.7943 10.2247C15.6849 10.2418 15.6069 10.2416 15.5383 10.2696C14.326 10.7646 13.0895 11.1364 11.7974 11.2671C11.6873 11.2782 11.5212 11.5157 11.51 11.6605C11.4739 12.1278 11.498 12.6009 11.4929 13.1056C11.4905 13.185 11.4941 13.2306 11.4926 13.3181C11.4926 13.5003 11.4976 13.6406 11.4969 13.8148C11.4947 13.8943 11.4985 13.94 11.4961 14.0208C11.5095 14.2738 11.529 14.4915 11.5494 14.755C11.5889 15.374 11.6276 15.9472 11.6609 16.5451C11.658 16.5864 11.6605 16.6031 11.6605 16.6621C11.8685 17.6219 12.0789 18.5394 12.2929 19.4943C12.4368 19.8477 12.5771 20.1638 12.7316 20.5138C12.9273 20.8936 13.1088 21.2395 13.2966 21.617C13.3856 21.7647 13.4684 21.8807 13.5635 22.0292C13.7287 22.2284 13.7988 22.3738 13.615 22.6008C13.3352 22.9464 13.0948 23.3318 12.8032 23.709C12.6138 23.6273 12.4589 23.5369 12.3013 23.4141C12.1466 23.2234 11.9946 23.0652 11.8426 22.9069Z" fill="#222222"/>
<path d="M17.2708 25.4108C17.4945 25.6364 17.7182 25.8619 17.9686 26.1145C18.8441 25.1778 19.7079 24.2547 20.5705 23.3303C21.4136 22.4267 22.2541 21.5202 23.1001 20.62C23.1912 20.5231 23.3116 20.4599 23.448 20.3937C23.8467 20.8426 24.2158 21.2788 24.543 21.6655C23.9235 22.3818 23.3074 23.0942 22.6792 23.8369C21.2437 25.3818 19.8222 26.8985 18.3935 28.4071C18.2766 28.5306 18.1117 28.5989 17.9413 28.682C16.8777 27.7162 15.8419 26.7613 14.7753 25.8006C14.4088 25.4108 14.073 25.0267 13.7126 24.6145C14.0678 24.1547 14.4394 23.6738 14.8357 23.1608C15.0914 23.4007 15.3303 23.625 15.6157 23.8885C16.1984 24.4222 16.7346 24.9165 17.2708 25.4108Z" fill="#222222"/>
</g>
</g>
<g opacity="0.3" clip-path="url(#clip1_770_16279)">
<path d="M11.8426 22.9069C11.6656 22.5533 11.4887 22.1997 11.2889 21.7857C11.1862 21.5757 11.1064 21.4262 11.0265 21.2766C10.8447 20.7859 10.6692 20.2922 10.4772 19.8066C10.4208 19.6639 10.2022 18.7778 10.1025 18.6176C9.98959 17.7929 10.0104 17.7646 9.89833 16.9345C9.83757 16.2954 9.79405 15.6916 9.74372 15.0424C9.73828 14.8888 9.73965 14.7806 9.74055 14.6002C9.72391 14.4438 9.70774 14.3598 9.69157 14.2757C9.69157 14.2757 9.695 14.2296 9.69119 14.1694C9.68416 14.0326 9.68095 13.956 9.67773 13.8795C9.69487 13.3699 9.71201 12.8604 9.71955 12.3062C9.71523 12.1852 9.7205 12.1089 9.72727 11.9626C9.72321 11.8467 9.71765 11.8009 9.7121 11.7551C9.71126 11.6412 9.71043 11.5274 9.71439 11.351C9.72367 11.2073 9.72816 11.1261 9.73265 11.045C9.73811 10.8382 9.74357 10.6314 9.74988 10.3361C9.75465 10.0083 9.75858 9.76895 9.80421 9.52793C10.3297 9.4897 10.8134 9.45317 11.3371 9.42187C12.7182 9.32438 14.0136 8.99764 15.2287 8.35182C15.7259 8.08761 16.1805 7.72374 16.6832 7.40325C17.0589 7.17075 17.4538 6.99694 17.7403 6.69497C18.0801 6.33685 18.3327 6.31567 18.6473 6.72253C18.8111 6.86165 18.9581 6.97289 19.1225 7.11035C19.2772 7.23921 19.4144 7.34185 19.5803 7.46533C19.8603 7.63223 20.1118 7.77828 20.3823 7.95358C20.8457 8.1913 21.29 8.39976 21.7617 8.62998C22.3396 8.82809 22.8901 9.00445 23.4405 9.1808C23.9646 9.26501 24.4886 9.34922 25.0523 9.42639C25.5824 9.47276 26.0728 9.52616 26.6431 9.58827C26.6431 10.3286 26.6431 11.097 26.6516 11.9122C26.6578 12.1324 26.6556 12.306 26.6526 12.5621C26.6568 12.754 26.6617 12.8634 26.6666 12.9728C26.6614 13.0806 26.6562 13.1883 26.6507 13.3787C26.6553 13.6361 26.6602 13.811 26.6651 13.9859C26.5032 15.5525 26.3732 17.1245 26.1643 18.6832C26.0771 19.334 25.8222 19.9567 25.6355 20.6204C25.2225 20.1788 24.8567 19.7877 24.4508 19.3454C24.3705 19.1604 24.269 19.0054 24.2995 18.8962C24.6939 17.4822 24.8254 16.0255 24.864 14.5577C24.8926 13.4702 24.8696 12.381 24.8696 11.3121C24.1308 11.1835 23.4771 11.0697 22.7911 10.9405C22.0671 10.6881 21.3756 10.4512 20.6614 10.1871C20.1008 9.86747 19.563 9.57509 19.0088 9.25958C18.9145 9.1938 18.8365 9.15116 18.7405 9.0792C18.1409 8.62946 18.1409 8.62946 17.7874 9.10685C17.1114 9.47779 16.4708 9.84909 15.7943 10.2247C15.6849 10.2418 15.6069 10.2416 15.5383 10.2696C14.326 10.7646 13.0895 11.1364 11.7974 11.2671C11.6873 11.2782 11.5212 11.5157 11.51 11.6605C11.4739 12.1278 11.498 12.6009 11.4929 13.1056C11.4905 13.185 11.4941 13.2306 11.4926 13.3181C11.4926 13.5003 11.4976 13.6406 11.4969 13.8148C11.4947 13.8943 11.4985 13.94 11.4961 14.0208C11.5095 14.2738 11.529 14.4915 11.5494 14.755C11.5889 15.374 11.6276 15.9472 11.6609 16.5451C11.658 16.5864 11.6605 16.6031 11.6605 16.6621C11.8685 17.6219 12.0789 18.5394 12.2929 19.4943C12.4368 19.8477 12.5771 20.1638 12.7316 20.5138C12.9273 20.8936 13.1088 21.2395 13.2966 21.617C13.3856 21.7647 13.4684 21.8807 13.5635 22.0292C13.7287 22.2284 13.7988 22.3738 13.615 22.6008C13.3352 22.9464 13.0948 23.3318 12.8032 23.709C12.6138 23.6273 12.4589 23.5369 12.3013 23.4141C12.1466 23.2234 11.9946 23.0652 11.8426 22.9069Z" fill="#222222"/>
<path d="M17.2708 25.4108C17.4945 25.6364 17.7182 25.8619 17.9686 26.1145C18.8441 25.1778 19.7079 24.2547 20.5705 23.3303C21.4136 22.4267 22.2541 21.5202 23.1001 20.62C23.1912 20.5231 23.3116 20.4599 23.448 20.3937C23.8467 20.8426 24.2158 21.2788 24.543 21.6655C23.9235 22.3818 23.3074 23.0942 22.6792 23.8369C21.2437 25.3818 19.8222 26.8985 18.3935 28.4071C18.2766 28.5306 18.1117 28.5989 17.9413 28.682C16.8777 27.7162 15.8419 26.7613 14.7753 25.8006C14.4088 25.4108 14.073 25.0267 13.7126 24.6145C14.0678 24.1547 14.4394 23.6738 14.8357 23.1608C15.0914 23.4007 15.3303 23.625 15.6157 23.8885C16.1984 24.4222 16.7346 24.9165 17.2708 25.4108Z" fill="#222222"/>
</g>
<path opacity="0.5" d="M18.7177 18.0807H17.4357C17.4357 17.8007 17.5131 17.5241 17.6679 17.2509C17.8228 16.9777 18.0055 16.749 18.2161 16.5646C18.7363 16.1002 18.9964 15.6768 18.9964 15.2943C18.9964 15.0553 18.9221 14.8709 18.7735 14.7411C18.6248 14.6114 18.4173 14.5465 18.151 14.5465C17.6308 14.5465 17.2623 14.8504 17.0455 15.4582L15.9492 14.7616C16.135 14.2631 16.4292 13.8738 16.8318 13.5938C17.2344 13.3138 17.6896 13.1738 18.1975 13.1738C18.7549 13.1738 19.2411 13.3548 19.6561 13.7168C20.071 14.0719 20.2785 14.5636 20.2785 15.1919C20.2785 15.4719 20.2228 15.7382 20.1113 15.9909C20.006 16.2368 19.8759 16.4485 19.7211 16.626C19.5724 16.7968 19.4207 16.9607 19.2659 17.1177C19.1172 17.268 18.9872 17.425 18.8757 17.589C18.7704 17.7529 18.7177 17.9168 18.7177 18.0807ZM18.8664 19.7504C18.8664 19.9894 18.789 20.1943 18.6341 20.365C18.4793 20.5358 18.2935 20.6211 18.0767 20.6211C17.8599 20.6211 17.6741 20.5358 17.5193 20.365C17.3644 20.1943 17.287 19.9894 17.287 19.7504C17.287 19.5114 17.3644 19.3065 17.5193 19.1358C17.6741 18.965 17.8599 18.8797 18.0767 18.8797C18.2935 18.8797 18.4793 18.965 18.6341 19.1358C18.789 19.3065 18.8664 19.5114 18.8664 19.7504Z" fill="#222222"/>
</g>
</g>
<defs>
<linearGradient id="paint0_linear_770_16279" x1="0.993939" y1="19.3922" x2="35.7297" y2="19.3922" gradientUnits="userSpaceOnUse">
<stop stop-color="#C89749"/>
<stop offset="0.04" stop-color="#8E5523"/>
<stop offset="0.15" stop-color="#FFEE9D"/>
<stop offset="0.23" stop-color="#DEAC55"/>
<stop offset="0.51" stop-color="#E8C576"/>
<stop offset="0.81" stop-color="#DBAA4D"/>
<stop offset="0.86" stop-color="#FCF6B2"/>
<stop offset="0.95" stop-color="#8B5623"/>
<stop offset="1" stop-color="#CA983E"/>
</linearGradient>
<linearGradient id="paint1_linear_770_16279" x1="18.5933" y1="33.4718" x2="17.9801" y2="1.53483" gradientUnits="userSpaceOnUse">
<stop stop-color="#DBA73E"/>
<stop offset="0.16" stop-color="#D89D3A"/>
<stop offset="0.3" stop-color="#A46B28"/>
<stop offset="0.49" stop-color="#8E5723"/>
<stop offset="0.54" stop-color="#F4F3B8"/>
<stop offset="0.56" stop-color="#F7ED9A"/>
<stop offset="0.69" stop-color="#D5B767"/>
<stop offset="0.75" stop-color="#A76F29"/>
<stop offset="0.85" stop-color="#D0AB5B"/>
<stop offset="1" stop-color="#E0C77D"/>
</linearGradient>
<linearGradient id="paint2_linear_770_16279" x1="27.4154" y1="31.2407" x2="9.09695" y2="3.57632" gradientUnits="userSpaceOnUse">
<stop stop-color="#482A0F"/>
<stop offset="0.1" stop-color="#A77129"/>
<stop offset="0.15" stop-color="white"/>
<stop offset="0.22" stop-color="#DA9E41"/>
<stop offset="0.34" stop-color="#8E5923"/>
<stop offset="0.5" stop-color="#D8A64D"/>
<stop offset="0.66" stop-color="#F5E380"/>
<stop offset="0.72" stop-color="#DAC164"/>
<stop offset="0.77" stop-color="white"/>
<stop offset="0.83" stop-color="#A0752B"/>
<stop offset="1" stop-color="#664219"/>
</linearGradient>
<radialGradient id="paint3_radial_770_16279" cx="0" cy="0" r="1" gradientUnits="userSpaceOnUse" gradientTransform="translate(18.1463 17.5096) scale(18.9877 20.9245)">
<stop stop-color="white"/>
<stop offset="0.1" stop-color="white"/>
<stop offset="0.4" stop-color="#F1F1F1"/>
<stop offset="0.73" stop-color="#C8C0AF"/>
<stop offset="0.87" stop-color="#CBCACA"/>
<stop offset="1" stop-color="#B2AC9F"/>
</radialGradient>
<clipPath id="clip0_770_16279">
<rect width="8.18437" height="22.2601" fill="white" transform="translate(9.67773 6.42188)"/>
</clipPath>
<clipPath id="clip1_770_16279">
<rect width="8.88092" height="22.2601" fill="white" transform="matrix(-1 0 0 1 26.7441 6.42188)"/>
</clipPath>
</defs>
</svg>
