<svg width="36" height="35" viewBox="0 0 36 35" fill="none" xmlns="http://www.w3.org/2000/svg">
<path fill-rule="evenodd" clip-rule="evenodd" d="M4.53125 24.9043C7.63749 20.7869 6.31916 13.0488 5.36833 9.2594C9.63832 10.7593 16.3087 9.34537 17.9479 4.91269C17.9858 4.81716 18.012 4.81398 18.047 4.91269C19.4091 9.10973 25.8783 10.842 30.6266 9.2594C29.7487 13.3641 28.0803 21.2391 31.4666 24.9043C22.8245 38.2151 12.9691 36.9318 4.53125 24.9043Z" fill="#040708"/>
<path fill-rule="evenodd" clip-rule="evenodd" d="M4.53125 24.6739C7.63749 20.5564 6.31916 12.8184 5.36833 9.02893C9.63832 10.532 16.3087 9.1149 17.9479 4.68222C17.9858 4.58669 18.012 4.58351 18.047 4.68222C19.4091 8.87926 25.8783 10.6116 30.6266 9.02893C29.7487 13.1336 28.0803 21.0086 31.4666 24.6739C22.8245 37.9815 12.9691 36.7013 4.53125 24.6739Z" fill="#040404"/>
<path fill-rule="evenodd" clip-rule="evenodd" d="M4.53125 24.4415C7.63749 20.324 6.31916 12.5891 5.36833 8.7965C9.63832 10.2964 16.3087 8.88248 17.9479 4.4498C17.9858 4.35427 18.012 4.35108 18.047 4.4498C19.4091 8.64684 25.8783 10.3791 30.6266 8.7965C29.7487 12.9012 28.0803 20.7762 31.4666 24.4415C22.8245 37.7491 12.9691 36.4689 4.53125 24.4415Z" fill="#030404"/>
<path fill-rule="evenodd" clip-rule="evenodd" d="M4.53125 24.2129C7.63749 20.0955 6.31916 12.3574 5.36833 8.56799C9.63832 10.0678 16.3087 8.65397 17.9479 4.22129C17.9858 4.12575 18.012 4.12257 18.047 4.22129C19.4091 8.41832 25.8783 10.1506 30.6266 8.56799C29.7487 12.6727 28.0803 20.5477 31.4666 24.2129C22.8245 37.5205 12.9691 36.2404 4.53125 24.2129Z" fill="black"/>
<path fill-rule="evenodd" clip-rule="evenodd" d="M4.53125 23.9805C7.63749 19.8631 6.31916 12.1282 5.36833 8.33556C9.63832 9.83542 16.3087 8.42155 17.9479 3.98886C17.9887 3.89333 18.012 3.89015 18.047 3.98886C19.4091 8.1859 25.8783 9.91821 30.6266 8.33556C29.7516 12.4403 28.0803 20.3153 31.4666 23.9805C22.8245 37.2881 12.9691 36.008 4.53125 23.9805Z" fill="black"/>
<path fill-rule="evenodd" clip-rule="evenodd" d="M20.3661 33.5802C20.2459 33.6341 20.1344 33.6595 20.0318 33.6753C20.1344 33.6658 20.2488 33.6626 20.3779 33.6848C20.7327 33.7102 21.7592 34.7758 21.8003 34.9946C21.592 34.8582 21.5334 34.6553 21.1697 34.6362C20.9263 34.6204 20.6008 34.6204 20.3573 34.6045C19.6505 34.5601 19.8177 33.8973 19.3133 33.8498L19.2986 33.78L19.5508 33.7958C19.6212 33.7895 19.7766 33.707 19.9995 33.6753C19.7737 33.7007 19.6095 33.6595 19.5361 33.669L19.2927 33.7483V33.6785C19.7737 33.5072 19.4716 32.9047 20.152 32.6859C20.3867 32.6129 20.7034 32.5305 20.938 32.4576C21.287 32.3497 21.3046 32.1404 21.4777 31.9533C21.4835 32.1785 20.7093 33.466 20.3661 33.577V33.5802ZM18.0023 34.2969C18.2193 34.2969 18.3953 34.1066 18.3953 33.8719C18.3953 33.6373 18.2193 33.447 18.0023 33.447C17.7853 33.447 17.6122 33.6373 17.6122 33.8719C17.6122 34.1066 17.7882 34.2969 18.0023 34.2969ZM23.3517 2.10533C23.7653 2.26072 24.0761 2.14656 24.1846 2.15291L24.431 2.2195V2.14973C23.9383 2.00702 24.214 1.38545 23.5248 1.20469C23.2872 1.14126 22.9675 1.07784 22.73 1.01759C22.3751 0.925619 22.3516 0.719487 22.1698 0.541895C22.1727 0.767056 23.0057 2.01336 23.3517 2.10533ZM12.6411 2.11168C12.2276 2.26707 11.9167 2.14973 11.8082 2.15925L11.5618 2.22584V2.15607C12.0546 2.01019 11.7789 1.3918 12.4681 1.21104C12.7056 1.14761 13.0253 1.08418 13.2629 1.02393C13.6177 0.931958 13.6412 0.725826 13.823 0.548234C13.8201 0.773395 12.9872 2.01971 12.6411 2.11168ZM13.7351 33.2536C14.172 33.2409 14.4389 33.4502 14.5416 33.4787L14.7938 33.4946L14.7733 33.5612C14.2659 33.539 14.3568 34.2208 13.65 34.17C13.4066 34.151 13.081 34.1098 12.8405 34.0908C12.4769 34.0622 12.3948 34.2525 12.1719 34.3635C12.2364 34.151 13.3773 33.2313 13.7351 33.2567V33.2536ZM13.7585 33.1521C14.1398 33.3804 14.4683 33.3265 14.5709 33.355L14.8026 33.466L14.8114 33.3962C14.3509 33.1616 14.7234 32.6034 14.0723 32.2958C13.8465 32.1912 13.5415 32.0675 13.3186 31.9628C12.9843 31.8075 12.9931 31.5981 12.8405 31.3888C12.8083 31.6108 13.43 32.9935 13.7556 33.1489L13.7585 33.1521ZM11.9108 32.5495C11.5589 32.4766 10.3242 33.2345 10.2333 33.4375C10.4679 33.3582 10.5706 33.1806 10.9284 33.2567C11.1688 33.3074 11.4827 33.3963 11.7231 33.447C12.4182 33.5929 12.4065 32.9079 12.908 32.9967L12.9373 32.9333L12.688 32.8825C12.6206 32.854 12.4886 32.7366 12.2804 32.6447C12.4915 32.7303 12.6646 32.7334 12.7291 32.762L12.9461 32.9015L12.9637 32.8349C12.5355 32.54 12.9667 32.039 12.3596 31.6457C12.1484 31.5094 11.861 31.3476 11.6498 31.2144C11.336 31.0146 11.3683 30.8085 11.2451 30.5802C11.1864 30.7958 11.641 32.2514 11.949 32.4512C12.0546 32.5337 12.1543 32.5908 12.2511 32.632C12.1543 32.5939 12.0428 32.5622 11.9138 32.5495H11.9108ZM10.1834 31.6013C10.3095 31.633 10.418 31.6806 10.509 31.7282C10.418 31.6743 10.3242 31.6045 10.2303 31.5062C9.95173 31.2652 9.67018 29.7588 9.7523 29.5527C9.85202 29.7937 9.79336 29.9967 10.0808 30.2377C10.2743 30.3994 10.5412 30.5992 10.7348 30.7641C11.292 31.2366 10.8052 31.6774 11.1952 32.0294L11.1718 32.0929L10.9723 31.9216C10.9078 31.8836 10.7319 31.855 10.5266 31.7345C10.7319 31.855 10.8521 31.9945 10.9166 32.0326L11.1571 32.1182L11.1219 32.1753C10.6351 32.0167 10.5676 32.7018 9.89308 32.4607C9.66138 32.3783 9.35637 32.2483 9.12761 32.1658C8.78154 32.0421 8.65836 32.2038 8.41787 32.2482C8.52932 32.0611 9.84615 31.4776 10.1864 31.595L10.1834 31.6013ZM8.57918 30.4248C8.25657 30.2599 6.88402 30.6594 6.74911 30.8307C6.99253 30.818 7.1333 30.6721 7.46178 30.8434C7.68174 30.9575 7.96622 31.1288 8.18911 31.2398C8.82847 31.5696 8.97511 30.9005 9.44142 31.1224L9.48248 31.0685L9.25372 30.9512C9.19507 30.9068 9.09535 30.7546 8.91352 30.6119C9.09828 30.7514 9.26546 30.8022 9.32118 30.8465L9.50008 31.0432L9.53234 30.9829C9.18627 30.5833 9.72004 30.2123 9.22146 29.6668C9.04843 29.4797 8.80794 29.2419 8.6349 29.0579C8.37681 28.7789 8.45893 28.5886 8.38855 28.3349C8.28296 28.5284 8.38855 30.0601 8.63783 30.336C8.72875 30.4565 8.82553 30.5453 8.91645 30.6119C8.82847 30.5421 8.71702 30.4724 8.58211 30.4216L8.57918 30.4248ZM7.12451 29.0389C7.24475 29.1055 7.34153 29.1848 7.42072 29.2641C7.34153 29.1848 7.26235 29.0897 7.18903 28.9628C6.972 28.6552 7.04825 27.1203 7.17436 26.9427C7.21542 27.2028 7.11277 27.3835 7.33567 27.6943C7.48524 27.9036 7.6964 28.17 7.84598 28.3793C8.2771 28.9882 7.7052 29.2831 8.00141 29.7271L7.96329 29.7842L7.80785 29.5654C7.75506 29.5115 7.59962 29.4385 7.42952 29.2768C7.59376 29.4448 7.67587 29.6066 7.72866 29.6605L7.94276 29.8095L7.8929 29.8571C7.45885 29.5749 7.23302 30.2155 6.63766 29.8032C6.43236 29.6605 6.16841 29.4544 5.96312 29.3117C5.6581 29.096 5.49973 29.2229 5.25631 29.2007C5.40881 29.0484 6.81656 28.8391 7.11864 29.0453L7.12451 29.0389ZM5.84287 27.4691C5.94845 27.5484 6.0335 27.6341 6.10096 27.7165C6.03643 27.6309 5.97191 27.5262 5.91619 27.3994C5.73729 27.0664 5.98951 25.5537 6.13615 25.3951C6.14495 25.6615 6.0247 25.8233 6.20947 26.1626C6.33265 26.3877 6.51155 26.6827 6.63766 26.911C6.99546 27.5738 6.3913 27.7894 6.63766 28.2715L6.59367 28.3222L6.46756 28.0844C6.42063 28.0241 6.27399 27.9322 6.12735 27.7451C6.27106 27.9322 6.33265 28.1066 6.37957 28.1668L6.57607 28.3412L6.52328 28.3825C6.12442 28.0431 5.82821 28.6489 5.28564 28.1573C5.09794 27.9861 4.86038 27.745 4.67268 27.577C4.39406 27.3233 4.22396 27.4248 3.9864 27.3708C4.15651 27.2408 5.57598 27.225 5.85167 27.4691H5.84287ZM4.75187 25.7376C4.50844 25.4554 3.09483 25.2778 2.913 25.3856C3.14469 25.4712 3.32359 25.392 3.56994 25.6837C3.73418 25.8772 3.94241 26.1499 4.10958 26.3434C4.59056 26.9047 4.95716 26.3433 5.31203 26.7334L5.36775 26.7017L5.19472 26.5019C5.15659 26.4353 5.11553 26.2577 4.99236 26.0516C5.11553 26.2546 5.25338 26.3687 5.2915 26.4353L5.39122 26.689L5.44107 26.6446C5.25631 26.134 5.881 26.0008 5.60238 25.2968C5.5056 25.0526 5.36189 24.7387 5.26511 24.4945C5.1214 24.133 5.25924 23.9871 5.2827 23.7239C5.11847 23.8602 4.69321 25.3285 4.83105 25.6837C4.86918 25.8169 4.92197 25.9279 4.97769 26.0231C4.92197 25.9311 4.84865 25.8328 4.75187 25.7408V25.7376ZM3.87202 23.8698C3.95707 23.9744 4.01866 24.0822 4.06559 24.1805C4.0216 24.0791 3.98347 23.9617 3.96001 23.8254C3.86616 23.4543 4.45858 22.0558 4.63749 21.9416C4.5847 22.2017 4.42926 22.3254 4.5319 22.7059C4.59936 22.9596 4.70494 23.2926 4.7724 23.5463C4.96596 24.2852 4.33247 24.3296 4.45565 24.8624L4.39993 24.9004L4.33247 24.6372C4.30315 24.5674 4.17997 24.4374 4.08025 24.2186C4.17704 24.4374 4.19463 24.6245 4.22689 24.6943L4.37647 24.9163L4.31488 24.9416C4.00693 24.504 3.57874 25.0114 3.16522 24.3898C3.02151 24.1742 2.84847 23.8761 2.7077 23.6636C2.49654 23.3433 2.30884 23.3972 2.08888 23.2799C2.28244 23.1975 3.66379 23.5653 3.87202 23.8793V23.8698ZM3.21507 21.8972C3.04204 21.5579 1.71641 21.0061 1.51405 21.06C1.71934 21.2059 1.90998 21.1805 2.08301 21.5262C2.19739 21.7577 2.33523 22.078 2.45254 22.3095C2.78982 22.9818 3.27373 22.5378 3.52595 23.0135L3.59047 22.9977L3.47023 22.7566C3.44677 22.6837 3.4497 22.4966 3.37931 22.2651C3.45263 22.4966 3.55821 22.6425 3.58168 22.7154L3.6198 22.9881L3.67846 22.9596C3.61687 22.4141 4.25036 22.4554 4.14477 21.6974C4.10665 21.4374 4.04213 21.0917 4.004 20.8317C3.94828 20.4416 4.11545 20.3401 4.19756 20.0896C4.00693 20.1784 3.25613 21.485 3.30892 21.8655C3.31479 22.005 3.34119 22.1287 3.37051 22.2334C3.33532 22.1287 3.28839 22.0146 3.21507 21.9004V21.8972ZM2.79275 19.8518C2.85141 19.9754 2.8866 20.0959 2.90713 20.2038C2.88953 20.0959 2.8778 19.9691 2.8866 19.8296C2.88073 19.4427 3.77524 18.2503 3.9776 18.19C3.86616 18.4247 3.68726 18.5071 3.69899 18.9004C3.70485 19.1636 3.73125 19.5156 3.74005 19.7788C3.75764 20.5431 3.13296 20.4194 3.13002 20.968L3.06843 20.9871L3.06257 20.7143C3.0479 20.6351 2.95699 20.4702 2.913 20.2228C2.95992 20.4702 2.93352 20.6604 2.94819 20.7397L3.03911 20.9966L2.97458 21.0029C2.77809 20.4955 2.24725 20.8729 1.98916 20.1594C1.90118 19.912 1.80146 19.5759 1.71348 19.3317C1.58443 18.9638 1.38794 18.9638 1.20317 18.7925C1.40847 18.7672 2.66077 19.4934 2.79275 19.8549V19.8518ZM2.61385 17.7651C2.52586 17.3909 1.36741 16.4966 1.16211 16.4966C1.32635 16.6932 1.51991 16.7185 1.60496 17.1023C1.66362 17.3591 1.72228 17.7048 1.78386 17.9617C1.95397 18.7038 2.52586 18.4025 2.66371 18.9321H2.72823L2.66664 18.6689C2.66077 18.5896 2.70477 18.412 2.69303 18.1678C2.71063 18.412 2.77809 18.5801 2.78395 18.6594L2.75756 18.9321L2.82208 18.9194C2.8866 18.3739 3.49369 18.5864 3.56408 17.8221C3.59047 17.5589 3.60221 17.2069 3.62567 16.9437C3.66086 16.5536 3.84856 16.4966 3.9864 16.2777C3.78111 16.3126 2.75169 17.375 2.71356 17.7587C2.68717 17.8951 2.68424 18.0219 2.6901 18.1329C2.6813 18.0219 2.66077 17.8983 2.61678 17.7682L2.61385 17.7651ZM2.67837 15.6689C2.70477 15.8052 2.71356 15.9321 2.7077 16.0399C2.71356 15.9289 2.73409 15.8052 2.77515 15.672C2.85727 15.2978 4.00107 14.3845 4.2093 14.3781C4.04799 14.5779 3.85443 14.6065 3.77524 14.9902C3.72245 15.2471 3.66673 15.5927 3.611 15.8528C3.45263 16.598 2.87487 16.3095 2.74583 16.8391H2.6813L2.73996 16.5758C2.74583 16.4966 2.69597 16.3221 2.7077 16.0748C2.69303 16.319 2.62851 16.4902 2.62558 16.5663L2.65491 16.8391L2.59039 16.8295C2.51707 16.2873 1.91584 16.5092 1.83079 15.7481C1.80146 15.4849 1.78093 15.1329 1.75454 14.8729C1.71348 14.4828 1.52578 14.4289 1.385 14.2132C1.5903 14.245 2.63438 15.2883 2.67837 15.6689ZM2.98632 13.598C2.98632 13.2111 2.07128 12.0346 1.87185 11.9775C1.98623 12.2122 2.16806 12.2883 2.1622 12.6815C2.15926 12.9447 2.13873 13.2967 2.1358 13.56C2.12994 14.3274 2.75169 14.1879 2.76342 14.7365L2.82501 14.7555V14.4796C2.83967 14.4035 2.92473 14.2418 2.96579 14.0039C2.92766 14.245 2.95405 14.4257 2.93939 14.505L2.85141 14.7619L2.91593 14.7682C3.10363 14.2576 3.64326 14.6255 3.88669 13.9056C3.97174 13.6583 4.06559 13.3221 4.15064 13.0716C4.27382 12.7005 4.47032 12.6974 4.65215 12.523C4.44685 12.5008 3.20334 13.2523 3.08017 13.6139C3.02151 13.7471 2.98632 13.8739 2.96872 13.9849C2.98925 13.8707 2.99805 13.7407 2.98632 13.5948V13.598ZM3.53182 11.5874C3.52595 11.727 3.50542 11.8506 3.47609 11.9585C3.50836 11.8538 3.55528 11.7396 3.62567 11.6223C3.79284 11.2798 5.10967 10.7058 5.31203 10.7534C5.10967 10.9024 4.9161 10.8802 4.75187 11.2291C4.64042 11.4638 4.50551 11.784 4.39406 12.0187C4.06852 12.6974 3.57581 12.2597 3.32945 12.7418L3.26493 12.7259L3.38224 12.4817C3.40571 12.4088 3.39984 12.2217 3.46436 11.9902C3.39398 12.2217 3.29133 12.3707 3.2708 12.4437L3.23854 12.7164L3.17988 12.6879C3.23267 12.1424 2.59919 12.1963 2.69597 11.4352C2.72823 11.172 2.78982 10.8263 2.82501 10.5663C2.87487 10.1762 2.70477 10.0747 2.61971 9.82737C2.81035 9.913 3.58168 11.2037 3.53475 11.5874H3.53182ZM4.30608 9.66564C4.397 9.29143 3.78111 7.90558 3.59927 7.79459C3.655 8.05146 3.81337 8.17514 3.71658 8.55569C3.65206 8.80939 3.55235 9.14238 3.48783 9.39925C3.30599 10.1382 3.93948 10.173 3.8251 10.709L3.88082 10.7439L3.94534 10.4775C3.97467 10.4077 4.09492 10.2745 4.1917 10.0525C4.09785 10.2745 4.08319 10.4585 4.05386 10.5314L3.90722 10.7566L3.96881 10.7788C4.26795 10.3379 4.70494 10.8358 5.10673 10.2079C5.24751 9.98911 5.41761 9.68784 5.55545 9.47219C5.76075 9.14872 5.94845 9.19629 6.16841 9.07578C5.97191 8.99967 4.59936 9.39291 4.39406 9.70686C4.31194 9.81469 4.25036 9.92252 4.20636 10.0208C4.24742 9.91934 4.28555 9.80201 4.30608 9.66247V9.66564ZM5.29737 7.86436C5.25924 7.99755 5.20938 8.11172 5.15659 8.20686C5.21232 8.11489 5.2827 8.01658 5.37949 7.91827C5.61998 7.63286 7.02772 7.42989 7.21249 7.53454C6.98373 7.62334 6.8019 7.5504 6.55847 7.84216C6.39717 8.03877 6.19187 8.31468 6.03057 8.5113C5.55839 9.08213 5.18299 8.52398 4.83398 8.92356L4.77533 8.89185L4.94543 8.68889C4.98356 8.62229 5.02168 8.44153 5.139 8.2354C5.01875 8.44153 4.88384 8.5557 4.84572 8.62229L4.75187 8.87599L4.69907 8.8316C4.87798 8.31785 4.25036 8.19734 4.51724 7.48697C4.60816 7.24279 4.74893 6.9225 4.84278 6.68148C4.98062 6.31678 4.83985 6.17407 4.81345 5.91085C4.98062 6.04405 5.42934 7.50284 5.29737 7.86119V7.86436ZM6.49102 6.21213C6.66406 5.87597 6.38837 4.36645 6.2388 4.21106C6.23293 4.47427 6.35904 4.636 6.17721 4.9785C6.05696 5.20683 5.881 5.50493 5.76075 5.73644C5.41468 6.40557 6.02177 6.60854 5.78421 7.09374L5.83114 7.14131L5.95432 6.90346C5.99831 6.84321 6.14495 6.7449 6.29159 6.5578C6.15081 6.74807 6.09216 6.92249 6.04523 6.98274L5.8546 7.16351L5.90739 7.20156C6.30039 6.85272 6.60833 7.45526 7.1421 6.9542C7.32687 6.77978 7.56149 6.5356 7.74333 6.36435C8.01901 6.10431 8.18912 6.20262 8.42667 6.14553C8.25657 6.01868 6.83416 6.02819 6.56141 6.27872C6.45583 6.36117 6.37371 6.4468 6.30625 6.53243C6.37077 6.44363 6.43236 6.33898 6.48515 6.21213H6.49102ZM7.86651 4.73431C8.07767 4.42353 7.98089 2.89181 7.84891 2.71422C7.81372 2.97743 7.91636 3.15185 7.69934 3.46898C7.5527 3.67828 7.34447 3.95101 7.19783 4.16349C6.7755 4.77872 7.35327 5.06412 7.06292 5.51444L7.10104 5.57153L7.25062 5.34954C7.30341 5.29563 7.45885 5.21952 7.62308 5.05144C7.46178 5.22269 7.38259 5.3876 7.3298 5.43834L7.11864 5.59056L7.1685 5.63813C7.59669 5.34637 7.83131 5.98697 8.42374 5.56202C8.62904 5.41614 8.89006 5.20366 9.08949 5.05778C9.39157 4.83896 9.54994 4.95948 9.79336 4.93411C9.63792 4.78506 8.22724 4.60112 7.92809 4.8136C7.81372 4.88019 7.71987 4.9563 7.64655 5.02924C7.71987 4.95313 7.79319 4.85482 7.86064 4.73431H7.86651ZM9.4033 3.45629C9.32411 3.56729 9.23906 3.64974 9.15694 3.71634C9.23906 3.65291 9.34171 3.58949 9.46195 3.53875C9.78163 3.3675 11.16 3.74171 11.2979 3.91296C11.0545 3.90344 10.9108 3.7639 10.5852 3.93832C10.3682 4.05566 10.0837 4.23008 9.86668 4.34742C9.23319 4.68992 9.07482 4.02395 8.61437 4.25229L8.57038 4.20154L8.79914 4.08103C8.85779 4.03664 8.95458 3.88442 9.13348 3.73537C8.94871 3.87807 8.78741 3.93198 8.72875 3.97955L8.55278 4.17934L8.52052 4.11909C8.86073 3.71317 8.32109 3.35165 8.81087 2.79667C8.98097 2.6064 9.21853 2.36537 9.38863 2.1751C9.64085 1.89285 9.55874 1.70259 9.62326 1.44888C9.73177 1.63916 9.65259 3.17405 9.40623 3.45629H9.4033ZM11.0779 2.39709C11.3536 2.1529 11.6117 0.640209 11.5266 0.437248C11.4328 0.681436 11.4915 0.881223 11.207 1.12858C11.0163 1.29349 10.7524 1.49962 10.5618 1.66453C10.0104 2.14656 10.506 2.58102 10.1189 2.9362L10.1453 2.99963L10.3418 2.82521C10.4034 2.78716 10.5735 2.75545 10.7729 2.63811C10.5764 2.75862 10.462 2.89815 10.4005 2.9362L10.16 3.02501L10.1952 3.08209C10.6791 2.91718 10.7583 3.599 11.4269 3.3453C11.6586 3.25967 11.9607 3.12331 12.1895 3.03452C12.5326 2.9045 12.6587 3.06306 12.8992 3.10429C12.7848 2.91718 11.4592 2.35903 11.1219 2.48271C10.9899 2.5176 10.8785 2.56834 10.7846 2.62542C10.8785 2.56834 10.9782 2.4954 11.075 2.39075L11.0779 2.39709ZM15.6208 33.6912C15.266 33.7166 14.2395 34.7821 14.1984 35.0009C14.4067 34.8614 14.4653 34.6616 14.829 34.6426C15.0724 34.6267 15.398 34.6267 15.6414 34.6108C16.3482 34.5664 16.181 33.9037 16.6855 33.8561L16.7001 33.7863L16.4479 33.8022C16.3746 33.7958 16.2221 33.7134 15.9992 33.6817C16.225 33.707 16.3892 33.6658 16.4626 33.6753L16.706 33.7546V33.6848C16.225 33.5168 16.5271 32.9111 15.8496 32.6954C15.615 32.6193 15.2982 32.54 15.0636 32.4671C14.7146 32.3592 14.6999 32.1499 14.524 31.9628C14.5181 32.188 15.2924 33.4755 15.6355 33.5865C15.7558 33.6373 15.8701 33.6658 15.9699 33.6817C15.8672 33.669 15.7528 33.669 15.6238 33.6912H15.6208ZM22.2637 33.244C22.1346 33.2409 22.0202 33.2567 21.9205 33.2821C22.0202 33.2535 22.1287 33.2123 22.2431 33.1425C22.5687 32.9872 23.1904 31.6045 23.1582 31.3825C23.0057 31.5918 23.0145 31.8011 22.683 31.9565C22.4602 32.0611 22.1551 32.1817 21.9293 32.2895C21.2812 32.5971 21.6507 33.1552 21.1902 33.3899L21.199 33.4597L21.4307 33.3487C21.5011 33.3297 21.6712 33.3487 21.8912 33.2948C21.6712 33.355 21.5305 33.4565 21.4601 33.4724L21.2078 33.4914L21.2284 33.558C21.7358 33.5358 21.6448 34.2176 22.3516 34.1669C22.5951 34.1479 22.9206 34.1066 23.1611 34.0876C23.5248 34.0591 23.6069 34.2493 23.8298 34.3603C23.7653 34.1478 22.6244 33.2282 22.2666 33.2504L22.2637 33.244ZM24.0879 32.54C24.4398 32.4671 25.6774 33.225 25.7654 33.428C25.5308 33.3487 25.4282 33.1711 25.0704 33.2504C24.8328 33.3011 24.5161 33.3899 24.2756 33.4406C23.5805 33.5865 23.5922 32.9015 23.0907 32.9903L23.0614 32.9269L23.3107 32.8762C23.3781 32.8476 23.5072 32.7303 23.7183 32.6383C23.5072 32.7239 23.3341 32.7271 23.2696 32.7588L23.0526 32.9015L23.035 32.8349C23.4632 32.54 23.0321 32.0358 23.6391 31.6457C23.8503 31.5094 24.1377 31.3476 24.3489 31.2113C24.6627 31.0115 24.6304 30.8053 24.7565 30.577C24.8152 30.7926 24.3606 32.2482 24.0556 32.448C23.95 32.5305 23.8474 32.5876 23.7535 32.6288C23.8503 32.5907 23.9618 32.559 24.0908 32.5463L24.0879 32.54ZM25.8153 31.5918C25.6892 31.6235 25.5807 31.6679 25.4897 31.7218C25.5807 31.6679 25.6745 31.5981 25.7684 31.4998C26.0499 31.2588 26.3315 29.7525 26.2493 29.5463C26.1496 29.7874 26.2083 29.9903 25.9209 30.2313C25.7273 30.3931 25.4604 30.5929 25.2668 30.7578C24.7096 31.2303 25.1965 31.6711 24.8064 32.0199L24.8328 32.0834L25.0322 31.9121C25.0967 31.874 25.2727 31.8455 25.478 31.725C25.2727 31.8455 25.1525 31.985 25.0879 32.0231L24.8475 32.1087L24.8827 32.1658C25.3695 32.0072 25.437 32.6922 26.1115 32.4512C26.3432 32.3688 26.6482 32.2387 26.877 32.1563C27.223 32.0326 27.3462 32.1943 27.5867 32.2387C27.4753 32.0485 26.1584 31.4681 25.8182 31.5855L25.8153 31.5918ZM27.4195 30.4153C27.7421 30.2504 29.1147 30.6499 29.2496 30.8212C29.0062 30.8085 28.8654 30.6626 28.5369 30.8339C28.317 30.948 28.0325 31.1161 27.8096 31.2303C27.1702 31.5601 27.0207 30.891 26.5573 31.1129L26.5162 31.059L26.745 30.9417C26.8036 30.8973 26.9034 30.7451 27.0852 30.6024C26.9004 30.7419 26.7362 30.7926 26.6775 30.837L26.4986 31.0337L26.4664 30.9734C26.8124 30.5738 26.2787 30.2028 26.7772 29.6573C26.9503 29.4702 27.1908 29.2324 27.3638 29.0484C27.6219 28.7694 27.5398 28.5791 27.6102 28.3254C27.7157 28.5188 27.6102 30.0506 27.3609 30.3265C27.2729 30.4406 27.1849 30.5263 27.0969 30.5929C27.1849 30.5263 27.2905 30.4628 27.4166 30.4121L27.4195 30.4153ZM28.8742 29.0326C28.7598 29.096 28.666 29.1721 28.5897 29.2451C28.663 29.169 28.7393 29.0738 28.8097 28.9565C29.0267 28.6489 28.9505 27.114 28.8243 26.9364C28.7833 27.1996 28.8859 27.3772 28.663 27.688C28.5135 27.8973 28.3023 28.1637 28.1527 28.373C27.7216 28.9818 28.2935 29.2768 27.9973 29.7208L28.0354 29.7778L28.1909 29.559C28.2436 29.5051 28.3991 29.4322 28.5692 29.2704C28.405 29.4385 28.3228 29.6002 28.27 29.6542L28.056 29.8L28.1029 29.8476C28.5369 29.5653 28.7628 30.206 29.3581 29.7937C29.5634 29.651 29.8274 29.4448 30.0327 29.299C30.3377 29.0865 30.4931 29.2102 30.7395 29.188C30.587 29.0358 29.1792 28.8265 28.8771 29.0326H28.8742ZM30.1558 27.4596C30.0503 27.5389 29.9652 27.6245 29.8978 27.707C29.9623 27.6214 30.0268 27.5167 30.0825 27.3899C30.2614 27.0569 30.0092 25.5442 29.8626 25.3825C29.8538 25.6488 29.974 25.8106 29.7892 26.1499C29.6661 26.3751 29.4842 26.67 29.361 26.8983C29.0032 27.5611 29.6074 27.7768 29.361 28.2556L29.405 28.3064L29.5312 28.0685C29.5781 28.0083 29.7247 27.9163 29.8714 27.7292C29.7276 27.9163 29.6661 28.0907 29.6191 28.1478L29.4226 28.3222L29.4754 28.3634C29.8743 28.0241 30.1705 28.6298 30.7131 28.1383C30.9008 27.967 31.1383 27.726 31.326 27.5579C31.6046 27.3042 31.7747 27.4057 32.0123 27.3518C31.8422 27.2218 30.4227 27.2059 30.147 27.4501L30.1558 27.4596ZM31.2468 25.7281C31.4903 25.4459 32.9039 25.2683 33.0857 25.3761C32.854 25.4617 32.6751 25.3825 32.4288 25.6742C32.2645 25.8677 32.0563 26.1404 31.8891 26.3338C31.4081 26.8952 31.0415 26.3338 30.6867 26.7239L30.628 26.6922L30.8011 26.4924C30.8421 26.429 30.8802 26.2482 31.0034 26.0421C30.8773 26.245 30.7424 26.3592 30.7043 26.4258L30.6046 26.6795L30.5547 26.6351C30.7395 26.1245 30.1177 25.9913 30.3934 25.2873C30.4902 25.0431 30.6339 24.7292 30.7307 24.485C30.8744 24.1235 30.7365 23.9776 30.7131 23.7144C30.8773 23.8507 31.3026 25.319 31.1647 25.6742C31.1237 25.8137 31.0679 25.9311 31.0093 26.0294C31.0679 25.9343 31.1442 25.8296 31.2439 25.7313L31.2468 25.7281ZM32.1267 23.8602C32.0416 23.9649 31.98 24.0727 31.9331 24.171C31.9771 24.0695 32.0152 23.9522 32.0387 23.8158C32.1355 23.4448 31.5401 22.0463 31.3612 21.9321C31.414 22.1922 31.5695 22.3158 31.4668 22.6964C31.3993 22.9469 31.2938 23.2799 31.2263 23.5368C31.0327 24.2725 31.6662 24.3201 31.5431 24.8529L31.5988 24.8877L31.6662 24.6245C31.6956 24.5548 31.8187 24.4247 31.9185 24.2059C31.8217 24.4279 31.8041 24.6118 31.7718 24.6816L31.6222 24.9036L31.6838 24.929C31.9888 24.4913 32.42 24.9987 32.8306 24.3772C32.9743 24.1615 33.1473 23.8634 33.2881 23.6509C33.4992 23.3306 33.6869 23.3846 33.9069 23.2672C33.7133 23.1879 32.332 23.5526 32.1238 23.8666L32.1267 23.8602ZM32.7836 21.8877C32.9567 21.5484 34.2823 20.9966 34.4847 21.0505C34.2794 21.1964 34.0887 21.1678 33.9157 21.5167C33.8013 21.7482 33.6635 22.0685 33.5462 22.3C33.2089 22.9723 32.725 22.5283 32.4728 23.0008L32.4082 22.985L32.5285 22.744C32.5519 22.671 32.549 22.4839 32.6194 22.2524C32.5461 22.4839 32.4405 22.6298 32.417 22.7027L32.3789 22.9755L32.3202 22.9469C32.3818 22.4046 31.7484 22.4427 31.8539 21.6848C31.8921 21.4215 31.9566 21.079 31.9947 20.819C32.0504 20.4321 31.8833 20.3274 31.8011 20.0769C31.9918 20.1657 32.7426 21.4723 32.6927 21.8528C32.6839 21.9924 32.6605 22.116 32.6311 22.2207C32.6663 22.116 32.7132 22.0019 32.7866 21.8845L32.7836 21.8877ZM33.206 19.8422C33.1444 19.9754 33.1092 20.0991 33.0886 20.2133C33.1092 20.0991 33.1209 19.9691 33.1121 19.8232C33.118 19.4395 32.2235 18.2439 32.024 18.1837C32.1355 18.4183 32.3144 18.5008 32.3027 18.894C32.2968 19.1572 32.2704 19.5093 32.2616 19.7725C32.244 20.5399 32.8687 20.4099 32.8716 20.9617L32.9332 20.9839L32.9391 20.708C32.9537 20.6319 33.0388 20.4702 33.0857 20.2323C33.0447 20.4702 33.0681 20.6541 33.0535 20.7302L32.9596 20.9871L33.0241 20.9934C33.2206 20.4892 33.7515 20.8634 34.0095 20.1499C34.0975 19.9025 34.2002 19.5663 34.2852 19.3222C34.4143 18.9543 34.6108 18.9543 34.7955 18.783C34.5902 18.7577 33.3379 19.4871 33.206 19.8454V19.8422ZM33.3849 17.7555C33.4728 17.3813 34.6313 16.487 34.8395 16.487C34.6753 16.6837 34.4817 16.709 34.3967 17.0928C34.338 17.3496 34.2794 17.6953 34.2178 17.9522C34.0477 18.6942 33.4758 18.393 33.3379 18.9226H33.2734L33.335 18.6594C33.3409 18.5801 33.2939 18.3961 33.3115 18.1424C33.2939 18.3961 33.2236 18.5706 33.2206 18.6498L33.247 18.9226L33.1825 18.9099C33.118 18.3676 32.5109 18.5769 32.4405 17.8126C32.4141 17.5494 32.4024 17.1974 32.376 16.9342C32.3408 16.5441 32.1531 16.487 32.0182 16.2682C32.2235 16.3031 33.25 17.3655 33.2881 17.7492C33.3145 17.8919 33.3174 18.0251 33.3115 18.1393C33.3203 18.0251 33.3409 17.8951 33.3849 17.7555ZM33.3203 15.6593C33.3643 15.2756 34.4084 14.2323 34.6137 14.2037C34.4729 14.4194 34.2852 14.4733 34.2442 14.8634C34.2178 15.1234 34.1972 15.4754 34.1679 15.7386C34.0829 16.4997 33.4816 16.2777 33.4083 16.82L33.3438 16.8295L33.3731 16.5568C33.3702 16.4775 33.2998 16.2999 33.2881 16.0462C33.2822 15.9321 33.2646 15.802 33.2206 15.6625C33.1385 15.2883 31.9947 14.375 31.7865 14.3686C31.9478 14.5684 32.1413 14.597 32.2205 14.9807C32.2733 15.2376 32.329 15.5832 32.3848 15.8433C32.5431 16.5917 33.1209 16.2999 33.25 16.8295H33.3145L33.2558 16.5663C33.25 16.487 33.3027 16.3031 33.2881 16.0494C33.2822 15.9352 33.2881 15.8021 33.3174 15.6593H33.3203ZM33.0124 13.5885C33.0124 13.2016 33.9274 12.0251 34.1269 11.968C34.0125 12.2027 33.8336 12.2788 33.8365 12.672C33.8365 12.9352 33.86 13.2872 33.8629 13.5536C33.8688 14.3179 33.247 14.1815 33.2353 14.7302L33.1737 14.7492V14.4733C33.159 14.3972 33.0769 14.2354 33.0329 13.9976C33.071 14.2386 33.0447 14.4194 33.0593 14.4955L33.1473 14.7524L33.0828 14.7587C32.8951 14.2481 32.3554 14.616 32.112 13.8961C32.027 13.6488 31.9331 13.3126 31.8481 13.0652C31.7249 12.6974 31.5284 12.6942 31.3466 12.5166C31.5519 12.4944 32.7924 13.246 32.9185 13.6075C32.9772 13.7407 33.0124 13.8676 33.03 13.9786C33.0124 13.8644 33.0007 13.7344 33.0124 13.5885ZM32.4669 11.5779C32.4728 11.7174 32.4933 11.8411 32.5226 11.9458C32.4904 11.8411 32.4434 11.727 32.373 11.6096C32.2059 11.2671 30.889 10.6931 30.6867 10.7407C30.889 10.8898 31.0826 10.8676 31.2498 11.2164C31.3612 11.4511 31.4961 11.7714 31.6076 12.006C31.9331 12.6847 32.4258 12.2471 32.6722 12.7291L32.7367 12.7132L32.6194 12.469C32.5959 12.3961 32.6018 12.209 32.5373 11.9775C32.6077 12.209 32.7103 12.358 32.7308 12.431L32.7631 12.7037L32.8218 12.6752C32.769 12.1297 33.4025 12.1836 33.3086 11.4225C33.2763 11.1593 33.2148 10.8136 33.1796 10.5536C33.1297 10.1635 33.2998 10.062 33.3849 9.81469C33.1913 9.90031 32.4229 11.191 32.4669 11.5747V11.5779ZM31.6926 9.65612C31.6017 9.28191 32.2176 7.89607 32.3965 7.78507C32.3408 8.04195 32.1824 8.16563 32.2792 8.54618C32.3437 8.79988 32.4434 9.13603 32.5079 9.38974C32.6898 10.1318 32.0534 10.1667 32.1707 10.6995L32.115 10.7344L32.0504 10.468C32.0211 10.3982 31.9009 10.265 31.8041 10.043C31.895 10.265 31.9126 10.4489 31.9419 10.5187L32.0886 10.7439L32.027 10.7661C31.7278 10.3253 31.2908 10.8232 30.8861 10.1952C30.7453 9.97642 30.5752 9.67832 30.4374 9.45951C30.2321 9.13603 30.0415 9.1836 29.8244 9.0631C30.0209 8.98699 31.3935 9.37706 31.5988 9.69419C31.6868 9.80835 31.7484 9.91934 31.7923 10.024C31.7484 9.91934 31.7102 9.79566 31.6868 9.64978L31.6926 9.65612ZM30.7013 7.85484C30.7424 8.00389 30.7981 8.12441 30.8597 8.22589C30.8011 8.12441 30.7248 8.01658 30.6192 7.90876C30.3787 7.62334 28.971 7.42038 28.7862 7.52503C29.015 7.61382 29.1968 7.54088 29.4402 7.83264C29.6015 8.02926 29.8068 8.30517 29.9681 8.50179C30.4403 9.07261 30.8157 8.51764 31.1647 8.91405L31.2234 8.88233L31.0533 8.67937C31.0152 8.61278 30.977 8.43202 30.8597 8.22589C30.9829 8.43202 31.1149 8.54618 31.153 8.61278L31.2468 8.86648L31.2996 8.82209C31.1207 8.30834 31.7484 8.18783 31.4815 7.47746C31.3905 7.23327 31.2498 6.91298 31.1559 6.66879C31.0181 6.3041 31.1589 6.16139 31.1853 5.89817C31.0181 6.03137 30.5694 7.49015 30.7013 7.8485V7.85484ZM29.5077 6.20261C29.3347 5.86646 29.6103 4.35694 29.7599 4.20154C29.7658 4.46476 29.6426 4.62649 29.8215 4.96899C29.9417 5.19732 30.1177 5.49542 30.238 5.72692C30.584 6.39289 29.9769 6.59902 30.2145 7.08423L30.1676 7.13497L30.0444 6.89395C30.0004 6.83369 29.8538 6.73539 29.7071 6.54828C29.8479 6.73856 29.9065 6.91298 29.9535 6.97323L30.147 7.15082L30.0942 7.18887C29.7013 6.84003 29.3962 7.44258 28.8595 6.94152C28.6748 6.77027 28.4401 6.52291 28.2583 6.35166C27.9856 6.09162 27.8125 6.1931 27.575 6.13285C27.7451 6.00599 29.1675 6.0155 29.4402 6.26603C29.5517 6.35166 29.6367 6.44363 29.7042 6.53243C29.6367 6.44363 29.5693 6.33263 29.5165 6.19944L29.5077 6.20261ZM28.1322 4.7248C28.2026 4.85165 28.2818 4.94996 28.358 5.02924C28.5281 5.20366 28.6073 5.37491 28.663 5.42882L28.8742 5.58105L28.8243 5.62861C28.3962 5.33686 28.1586 5.97745 27.5691 5.5525C27.3667 5.40662 27.1057 5.19415 26.9034 5.04827C26.6013 4.82945 26.4429 4.94996 26.1995 4.92459C26.3549 4.77554 27.7656 4.59161 28.0647 4.80408C28.185 4.87385 28.2818 4.95313 28.358 5.03241C28.5281 5.20683 28.6894 5.28612 28.7422 5.34003L28.8918 5.56202L28.9329 5.50811C28.6425 5.05779 29.2203 4.77237 28.798 4.15714C28.6513 3.94467 28.4431 3.67194 28.2964 3.46263C28.0794 3.14868 28.1821 2.97109 28.1469 2.70788C28.0178 2.8823 27.9181 4.41719 28.1293 4.72798L28.1322 4.7248ZM26.5954 3.44678C26.6746 3.5546 26.7596 3.64023 26.8418 3.70683C26.7596 3.6434 26.657 3.57998 26.5368 3.52924C26.2171 3.35799 24.8387 3.73537 24.7008 3.90344C24.9442 3.89393 25.0879 3.75122 25.4135 3.92881C25.6305 4.04615 25.915 4.22057 26.132 4.33791C26.7655 4.67723 26.9239 4.01444 27.3843 4.24277L27.4283 4.19203L27.1996 4.07152C27.1409 4.02712 27.0441 3.87173 26.8652 3.72585C27.0471 3.86856 27.2113 3.92247 27.27 3.97004L27.4459 4.16665L27.4782 4.1064C27.138 3.70048 27.6776 3.33896 27.1878 2.78399C27.0177 2.59371 26.7802 2.35269 26.6101 2.16558C26.3579 1.88334 26.44 1.69307 26.3755 1.4362C26.2669 1.62647 26.3461 3.16136 26.5925 3.44361L26.5954 3.44678ZM24.9208 2.38758C24.6451 2.14339 24.387 0.630696 24.4721 0.427734C24.5659 0.671922 24.5073 0.87171 24.7917 1.11907C24.9824 1.28397 25.2463 1.49011 25.437 1.65501C25.9883 2.13705 25.4927 2.56833 25.8798 2.92669L25.8534 2.99012L25.6569 2.81886C25.5953 2.78081 25.4252 2.7491 25.2258 2.63176C25.4223 2.75227 25.5367 2.89181 25.5983 2.92986L25.8387 3.01866L25.8006 3.07574C25.3167 2.91083 25.2375 3.59266 24.5688 3.33896C24.3371 3.25333 24.0351 3.11697 23.8063 3.03134C23.4632 2.90132 23.3371 3.05989 23.0966 3.10111C23.211 2.91401 24.5366 2.35587 24.8739 2.47955C25 2.51443 25.1055 2.56199 25.1965 2.61273C25.1085 2.55882 25.0146 2.48589 24.9208 2.38758Z" fill="url(#paint0_linear_789_12437)"/>
<path fill-rule="evenodd" clip-rule="evenodd" d="M5.4272 23.1475C5.94345 22.2591 6.32845 21.2687 6.60553 20.2115C6.93219 18.9632 7.10719 17.6194 7.17427 16.2533C7.24719 14.7375 7.18886 13.1931 7.05178 11.7187C6.89719 10.0469 6.64636 8.46743 6.38678 7.1268C7.41928 7.35289 8.5276 7.4325 9.63885 7.36881C10.893 7.29557 12.1559 7.03763 13.3284 6.595C14.3901 6.19376 15.3788 5.63968 16.2334 4.93593C16.9101 4.37548 17.5022 3.71949 17.9717 2.96797C18.4442 3.74815 19.0567 4.42961 19.7713 5.01235C20.658 5.73203 21.7051 6.29885 22.8338 6.6969C23.9742 7.09814 25.2021 7.3306 26.4446 7.38473C27.518 7.42931 28.6 7.34333 29.6354 7.11406C29.4488 8.11396 29.2563 9.22532 29.093 10.3908C28.9034 11.7505 28.7575 13.1963 28.7109 14.642C28.6584 16.2756 28.7371 17.8964 29.0288 19.3867C29.3117 20.8165 29.79 22.1317 30.5425 23.2239C29.5713 24.8098 28.5884 26.1886 27.5967 27.3668C26.5496 28.6119 25.4967 29.6341 24.438 30.4398C23.423 31.2136 22.4051 31.79 21.3871 32.1753C20.3576 32.5638 19.328 32.7548 18.3042 32.7612C17.2892 32.7644 16.2713 32.5861 15.2563 32.2262C14.2238 31.8632 13.1972 31.3155 12.1734 30.5958C11.0068 29.7711 9.85177 28.7234 8.70844 27.456C7.59719 26.2236 6.50053 24.7843 5.42136 23.1507L5.4272 23.1475ZM6.05428 20.0427C5.77428 21.1095 5.38345 22.1062 4.8497 22.9787C4.78262 23.0838 4.77678 23.2271 4.8497 23.3386C5.98136 25.0709 7.13344 26.593 8.30594 27.8923C9.47552 29.1915 10.6655 30.2678 11.8672 31.1181C12.9318 31.8696 14.008 32.4396 15.0842 32.8185C16.1547 33.1975 17.2338 33.3853 18.3101 33.3822C19.398 33.379 20.4888 33.172 21.5767 32.7612C22.6442 32.3568 23.7117 31.7549 24.7705 30.9493C25.8642 30.115 26.9492 29.0641 28.0225 27.7872C29.0725 26.5357 30.1109 25.0709 31.1346 23.38C31.2017 23.2717 31.1988 23.122 31.12 23.0138C30.3559 21.9693 29.8717 20.6764 29.5917 19.253C29.3088 17.8136 29.233 16.2437 29.2825 14.6643C29.3292 13.2504 29.475 11.827 29.6617 10.48C29.8484 9.12341 30.0759 7.85921 30.2859 6.76696C30.2946 6.72238 30.2946 6.6778 30.2859 6.63003C30.2479 6.46444 30.0963 6.35936 29.9417 6.40075C28.8246 6.69372 27.6434 6.81154 26.4709 6.76059C25.2809 6.70964 24.1026 6.48673 23.0117 6.10142C21.9384 5.72248 20.9496 5.19068 20.1126 4.50922C19.3309 3.87234 18.6834 3.10809 18.2284 2.22283C18.2051 2.17825 18.1701 2.13684 18.1234 2.10818C17.9892 2.01902 17.8142 2.06997 17.7326 2.21645C17.2659 3.07942 16.633 3.8182 15.8892 4.43598C15.0842 5.1047 14.1451 5.62695 13.1447 6.00589C12.0218 6.42942 10.8113 6.6778 9.60968 6.74785C8.39052 6.81791 7.18302 6.70645 6.08053 6.41667C6.0397 6.40712 5.99595 6.40394 5.9522 6.41667C5.79761 6.45489 5.70136 6.62048 5.73636 6.78606C6.02511 8.19994 6.31678 9.93543 6.48594 11.7792C6.62011 13.2249 6.67844 14.7375 6.60553 16.2214C6.54136 17.5398 6.3722 18.8358 6.0572 20.0395L6.05428 20.0427ZM5.46512 16.1609C5.40095 17.4538 5.2347 18.718 4.91678 19.8708C4.63678 20.8866 4.24304 21.8132 3.70345 22.5966C3.59262 22.7558 3.53429 22.9469 3.53137 23.1411C3.52845 23.329 3.57804 23.5233 3.68595 23.6889C4.89637 25.5804 6.13595 27.2363 7.39594 28.6502C8.65594 30.064 9.94218 31.2359 11.2459 32.1562C12.4038 32.9745 13.5793 33.5955 14.7634 34.0095C15.9388 34.4203 17.1259 34.6273 18.3159 34.6209C19.5234 34.6145 20.728 34.3916 21.9209 33.9458C23.0934 33.5063 24.263 32.8472 25.4209 31.9651C26.6109 31.0575 27.7892 29.9112 28.9471 28.5196C30.0788 27.1598 31.1959 25.5613 32.2896 23.7175C32.4121 23.5424 32.4675 23.329 32.4588 23.1188C32.45 22.9055 32.3771 22.6953 32.2342 22.5265C31.4759 21.6254 31.0004 20.444 30.7234 19.1097C30.4434 17.7531 30.3704 16.2405 30.42 14.7088C30.4725 13.1262 30.6563 11.5149 30.8809 10.0214C31.1054 8.53112 31.3738 7.1459 31.5954 6.01862V6.00589C31.61 5.93265 31.6159 5.85623 31.6129 5.77662C31.61 5.69701 31.5954 5.61421 31.5721 5.53779C31.4992 5.29259 31.3417 5.10152 31.1463 4.99325C30.9509 4.88498 30.7175 4.85951 30.4929 4.93912L30.3909 4.97733L30.3675 4.98688C29.2796 5.36901 28.0955 5.54734 26.9113 5.53779C25.6921 5.52823 24.473 5.32124 23.353 4.92638C22.2446 4.5347 21.2413 3.96469 20.4451 3.22591C19.7188 2.55082 19.1676 1.73561 18.873 0.793026V0.783473L18.8701 0.780295L18.8526 0.722969C18.8526 0.713415 18.8467 0.707051 18.8438 0.697498V0.687945C18.7709 0.471406 18.6688 0.305815 18.5317 0.187992C18.383 0.0606162 18.208 -0.00307062 17.9892 0.000113773H17.9688H17.963C17.7705 0.00648257 17.6101 0.0638013 17.4759 0.168886C17.3447 0.270787 17.2455 0.414084 17.1697 0.595595V0.60197L17.1522 0.636993C17.1463 0.649731 17.1405 0.668842 17.1317 0.691132C16.8109 1.64645 16.2597 2.46166 15.5567 3.13038C14.778 3.87235 13.8155 4.44235 12.7626 4.8404C11.5843 5.28622 10.3038 5.51868 9.0526 5.5346C7.79552 5.5537 6.57053 5.35627 5.50886 4.94548L5.49137 4.93912C5.42137 4.91364 5.34553 4.89772 5.26678 4.89453C5.18803 4.89135 5.10345 4.89772 5.02178 4.92001C4.79137 4.98052 4.6047 5.13973 4.49387 5.34353C4.38012 5.54733 4.33929 5.7989 4.3947 6.05047C4.71553 7.4516 5.0772 9.34951 5.29303 11.4162C5.45345 12.9542 5.53511 14.5847 5.45928 16.1673L5.46512 16.1609ZM5.46512 20.0459C5.16762 21.1254 4.7447 22.1189 4.16137 22.966C4.12345 23.0201 4.10595 23.0838 4.10304 23.1475C4.10304 23.2112 4.11762 23.2749 4.15262 23.3322C5.34262 25.1919 6.56178 26.8255 7.80427 28.2171C9.03802 29.5991 10.2893 30.7423 11.5551 31.6371C12.6722 32.4268 13.8009 33.0223 14.9326 33.4172C16.0526 33.8089 17.1784 34.0031 18.3072 33.9999C19.4476 33.9936 20.5909 33.7834 21.7313 33.3567C22.8601 32.9332 23.9801 32.3027 25.0913 31.4556C26.2434 30.5767 27.3896 29.459 28.5213 28.0992C29.6354 26.7586 30.735 25.1823 31.8142 23.3672L31.8288 23.3449C31.8725 23.2844 31.89 23.2112 31.8871 23.1379C31.8871 23.0679 31.8609 22.9978 31.8113 22.9405C30.98 21.9534 30.4609 20.6732 30.1634 19.2371C29.8717 17.8232 29.7959 16.2596 29.8454 14.677C29.8979 13.0593 30.0846 11.4257 30.3121 9.90996C30.5425 8.391 30.8109 7.00579 31.0296 5.87533V5.86578C31.0354 5.8403 31.0354 5.81801 31.0354 5.79253C31.0354 5.76706 31.0296 5.74158 31.0209 5.71292C30.9975 5.63331 30.945 5.56962 30.8779 5.53141C30.8138 5.4932 30.735 5.48683 30.6592 5.51231L30.5571 5.55052C29.405 5.95812 28.1538 6.14919 26.9025 6.13963C25.625 6.13008 24.3476 5.91354 23.1751 5.49957C21.9967 5.08559 20.9263 4.47419 20.0746 3.68128C19.2697 2.93613 18.6601 2.02857 18.3305 0.974539L18.3247 0.952246L18.313 0.910857V0.898116H18.3101V0.885376L18.3042 0.875823C18.2692 0.767554 18.2284 0.694309 18.1788 0.652911C18.138 0.614699 18.0767 0.598782 17.9951 0.598782H17.9834C17.9105 0.598782 17.8551 0.61789 17.8142 0.649734C17.7705 0.684762 17.7297 0.745268 17.6947 0.831247L17.683 0.85353V0.863083H17.6801L17.6742 0.879011C17.3184 1.93623 16.7117 2.83423 15.9359 3.57301C15.1017 4.36911 14.0722 4.98051 12.9522 5.40404C11.7155 5.87214 10.3738 6.11416 9.06427 6.13327C7.74011 6.15237 6.44803 5.94538 5.3222 5.50912C5.29595 5.49956 5.2697 5.4932 5.24053 5.4932C5.21428 5.4932 5.18512 5.4932 5.15595 5.50275C5.08012 5.52186 5.01887 5.57599 4.98095 5.64287C4.94303 5.70974 4.92845 5.79571 4.94595 5.87851C5.2697 7.29875 5.6372 9.22531 5.85886 11.3238C6.0222 12.8906 6.10678 14.5528 6.02511 16.1769C5.96095 17.5175 5.78303 18.8326 5.45345 20.03L5.46512 20.0459Z" fill="url(#paint1_linear_789_12437)"/>
<path fill-rule="evenodd" clip-rule="evenodd" d="M5.07996 23.1579C6.25246 21.2473 6.76287 18.7857 6.88537 16.2414C7.05162 12.8309 6.52954 9.26441 6.01038 6.72326C8.25328 7.31555 10.922 7.1818 13.232 6.30609C15.2241 5.55139 16.9653 4.24579 17.9745 2.38292C18.9545 4.28719 20.7803 5.65011 22.9212 6.40482C25.1378 7.18499 27.7045 7.31555 30.0028 6.70733C29.5828 8.9173 29.087 11.796 28.9965 14.6556C28.8945 17.8686 29.3028 21.0403 30.8953 23.2152C28.8478 26.5971 26.7391 29.0745 24.607 30.7018C22.5187 32.294 20.407 33.0678 18.3099 33.0773C16.2099 33.0869 14.1012 32.329 12.0245 30.8642C9.65328 29.1892 7.32287 26.5971 5.08288 23.1675L5.07996 23.1579ZM5.74788 16.1777C5.62538 18.6679 5.1208 21.0499 3.92788 22.7822C3.78205 22.9923 3.77038 23.2853 3.91622 23.5114C6.31079 27.2531 8.82495 30.0808 11.4004 31.8959C13.6666 33.4945 15.9824 34.3192 18.3099 34.3097C20.6403 34.3001 22.9707 33.4531 25.2545 31.7112C27.5761 29.9407 29.857 27.2371 32.0532 23.5369C32.2194 23.3012 32.2136 22.9605 32.0211 22.7344C30.4315 20.8492 30.032 17.8081 30.1311 14.6938C30.2332 11.4967 30.872 8.20399 31.3124 5.94944C31.3328 5.84754 31.3299 5.73609 31.2978 5.62782C31.2015 5.29983 30.8778 5.1215 30.5803 5.22977L30.4782 5.26798C28.2061 6.07045 25.5374 6.01632 23.2682 5.21703C21.0632 4.44004 19.252 2.9593 18.6074 0.889437L18.6016 0.873509L18.5841 0.816192L18.5812 0.803452C18.4732 0.465906 18.2953 0.303502 17.9978 0.306687H17.9803C17.712 0.31624 17.5516 0.456359 17.4378 0.720664C17.4262 0.742955 17.4174 0.768424 17.4087 0.793899C16.697 2.89879 14.9441 4.34451 12.8645 5.13106C10.4437 6.04816 7.60287 6.07682 5.42121 5.23614C5.31913 5.19793 5.20829 5.18838 5.09455 5.22022C4.7883 5.30301 4.60163 5.64056 4.67746 5.97173C5.24038 8.43646 5.93163 12.4233 5.75079 16.1777H5.74788Z" fill="url(#paint2_linear_789_12437)"/>
<path fill-rule="evenodd" clip-rule="evenodd" d="M4.38477 23.1545C7.52309 18.5913 6.19018 10.0189 5.2306 5.81865C9.54433 7.4809 16.2847 5.91418 17.9443 1.00384C17.9851 0.898755 18.0085 0.895571 18.0435 1.00384C19.4201 5.65625 25.9564 7.57325 30.7572 5.81865C29.8705 10.366 28.1847 19.0944 31.6059 23.1545C22.8734 37.9015 12.9131 36.4812 4.38477 23.1545Z" stroke="#906137" stroke-width="0.303049" stroke-miterlimit="2.61"/>
<path fill-rule="evenodd" clip-rule="evenodd" d="M4.38477 23.1545C7.52309 18.5913 6.19018 10.0189 5.2306 5.81865C9.54433 7.4809 16.2847 5.91418 17.9443 1.00384C17.9851 0.898755 18.0085 0.895571 18.0435 1.00384C19.4201 5.65625 25.9564 7.57325 30.7572 5.81865C29.8705 10.366 28.1847 19.0944 31.6059 23.1545C22.8734 37.9015 12.9131 36.4812 4.38477 23.1545Z" fill="url(#paint3_linear_789_12437)"/>
<g clip-path="url(#clip0_789_12437)">
<g opacity="0.2">
<path d="M11.837 22.8392C11.6606 22.4867 11.4843 22.1341 11.2852 21.7213C11.1829 21.512 11.1033 21.3628 11.0237 21.2136C10.8426 20.7245 10.6677 20.2322 10.4764 19.748C10.4202 19.6057 10.2023 18.7222 10.1029 18.5624C9.99046 17.7402 10.0112 17.712 9.89951 16.8843C9.83897 16.247 9.7956 15.645 9.74545 14.9977C9.74002 14.8445 9.74138 14.7367 9.74228 14.5568C9.7257 14.4009 9.70959 14.317 9.69347 14.2332C9.69347 14.2332 9.69689 14.1873 9.6931 14.1272C9.6861 13.9908 9.68289 13.9145 9.67969 13.8382C9.69677 13.3301 9.71384 12.8221 9.72136 12.2695C9.71705 12.1488 9.72231 12.0727 9.72905 11.9269C9.72501 11.8114 9.71947 11.7657 9.71393 11.72C9.7131 11.6065 9.71227 11.4929 9.71622 11.3171C9.72546 11.1738 9.72994 11.0929 9.73441 11.0119C9.73985 10.8057 9.7453 10.5995 9.75158 10.3051C9.75633 9.97827 9.76025 9.73965 9.80572 9.49933C10.3293 9.46121 10.8114 9.42479 11.3332 9.39358C12.7095 9.29637 14.0004 8.97058 15.2113 8.32665C15.7066 8.06322 16.1597 7.70041 16.6607 7.38085C17.035 7.14903 17.4285 6.97573 17.714 6.67464C18.0526 6.31756 18.3043 6.29645 18.6179 6.70212C18.781 6.84084 18.9275 6.95175 19.0914 7.08881C19.2455 7.21729 19.3823 7.31963 19.5476 7.44276C19.8266 7.60916 20.0773 7.75478 20.3468 7.92958C20.8085 8.1666 21.2513 8.37446 21.7214 8.604C22.2972 8.80154 22.8458 8.97738 23.3943 9.15321C23.9165 9.23718 24.4387 9.32114 25.0005 9.39808C25.5287 9.44432 26.0173 9.49757 26.5857 9.55949C26.5857 10.2977 26.5857 11.0639 26.5941 11.8766C26.6004 12.0962 26.5981 12.2693 26.5951 12.5246C26.5993 12.716 26.6042 12.8251 26.6091 12.9342C26.6039 13.0416 26.5987 13.1491 26.5933 13.3388C26.5978 13.5955 26.6027 13.7699 26.6076 13.9443C26.4463 15.5064 26.3167 17.0737 26.1085 18.6279C26.0216 19.2767 25.7676 19.8976 25.5816 20.5594C25.17 20.1191 24.8055 19.7292 24.401 19.2881C24.3211 19.1037 24.2199 18.9491 24.2502 18.8402C24.6433 17.4303 24.7743 15.9779 24.8128 14.5144C24.8413 13.4301 24.8184 12.3441 24.8184 11.2783C24.0822 11.1501 23.4307 11.0366 22.7471 10.9077C22.0257 10.6561 21.3366 10.4199 20.6249 10.1566C20.0663 9.83788 19.5303 9.54636 18.9781 9.23176C18.8842 9.16617 18.8064 9.12366 18.7107 9.0519C18.1133 8.60348 18.1133 8.60348 17.761 9.07948C17.0873 9.44933 16.449 9.81955 15.7749 10.194C15.6658 10.2111 15.5881 10.2109 15.5197 10.2389C14.3117 10.7323 13.0795 11.1031 11.792 11.2334C11.6823 11.2445 11.5167 11.4813 11.5056 11.6256C11.4695 12.0916 11.4935 12.5633 11.4885 13.0666C11.4861 13.1458 11.4897 13.1912 11.4882 13.2784C11.4882 13.4601 11.4932 13.6 11.4924 13.7737C11.4903 13.853 11.494 13.8985 11.4917 13.9791C11.505 14.2313 11.5245 14.4484 11.5448 14.7111C11.5842 15.3283 11.6227 15.8998 11.6559 16.496C11.653 16.5372 11.6555 16.5538 11.6555 16.6126C11.8628 17.5696 12.0725 18.4845 12.2857 19.4366C12.4291 19.789 12.5689 20.1041 12.7229 20.4531C12.9179 20.8318 13.0987 21.1767 13.2858 21.5531C13.3746 21.7003 13.4571 21.816 13.5519 21.9641C13.7164 22.1627 13.7863 22.3077 13.6032 22.534C13.3244 22.8786 13.0848 23.2629 12.7942 23.639C12.6055 23.5575 12.4511 23.4674 12.294 23.345C12.14 23.1549 11.9885 22.997 11.837 22.8392Z" fill="#222222"/>
<path d="M17.2462 25.3358C17.4691 25.5607 17.692 25.7856 17.9415 26.0374C18.8139 25.1035 19.6747 24.1831 20.5343 23.2614C21.3745 22.3605 22.212 21.4566 23.0551 20.559C23.1458 20.4624 23.2658 20.3993 23.4017 20.3333C23.799 20.7809 24.1669 21.2159 24.4929 21.6015C23.8756 22.3156 23.2616 23.026 22.6356 23.7665C21.2052 25.3069 19.7886 26.8192 18.365 28.3234C18.2484 28.4465 18.0841 28.5146 17.9144 28.5975C16.8545 27.6345 15.8222 26.6823 14.7594 25.7245C14.3942 25.3358 14.0596 24.9529 13.7004 24.5418C14.0544 24.0834 14.4247 23.6039 14.8196 23.0924C15.0744 23.3316 15.3124 23.5552 15.5969 23.818C16.1775 24.3501 16.7119 24.843 17.2462 25.3358Z" fill="#222222"/>
</g>
</g>
<g opacity="0.5" clip-path="url(#clip1_789_12437)">
<path d="M11.837 22.8392C11.6606 22.4867 11.4843 22.1341 11.2852 21.7213C11.1829 21.512 11.1033 21.3628 11.0237 21.2136C10.8426 20.7245 10.6677 20.2322 10.4764 19.748C10.4202 19.6057 10.2023 18.7222 10.1029 18.5624C9.99046 17.7402 10.0112 17.712 9.89951 16.8843C9.83897 16.247 9.7956 15.645 9.74545 14.9977C9.74002 14.8445 9.74138 14.7367 9.74228 14.5568C9.7257 14.4009 9.70959 14.317 9.69347 14.2332C9.69347 14.2332 9.69689 14.1873 9.6931 14.1272C9.6861 13.9908 9.68289 13.9145 9.67969 13.8382C9.69677 13.3301 9.71384 12.8221 9.72136 12.2695C9.71705 12.1488 9.72231 12.0727 9.72905 11.9269C9.72501 11.8114 9.71947 11.7657 9.71393 11.72C9.7131 11.6065 9.71227 11.4929 9.71622 11.3171C9.72546 11.1738 9.72994 11.0929 9.73441 11.0119C9.73985 10.8057 9.7453 10.5995 9.75158 10.3051C9.75633 9.97827 9.76025 9.73965 9.80572 9.49933C10.3293 9.46121 10.8114 9.42479 11.3332 9.39358C12.7095 9.29637 14.0004 8.97058 15.2113 8.32665C15.7066 8.06322 16.1597 7.70041 16.6607 7.38085C17.035 7.14903 17.4285 6.97573 17.714 6.67464C18.0526 6.31756 18.3043 6.29645 18.6179 6.70212C18.781 6.84084 18.9275 6.95175 19.0914 7.08881C19.2455 7.21729 19.3823 7.31963 19.5476 7.44276C19.8266 7.60916 20.0773 7.75478 20.3468 7.92958C20.8085 8.1666 21.2513 8.37446 21.7214 8.604C22.2972 8.80154 22.8458 8.97738 23.3943 9.15321C23.9165 9.23718 24.4387 9.32114 25.0005 9.39808C25.5287 9.44432 26.0173 9.49757 26.5857 9.55949C26.5857 10.2977 26.5857 11.0639 26.5941 11.8766C26.6004 12.0962 26.5981 12.2693 26.5951 12.5246C26.5993 12.716 26.6042 12.8251 26.6091 12.9342C26.6039 13.0416 26.5987 13.1491 26.5933 13.3388C26.5978 13.5955 26.6027 13.7699 26.6076 13.9443C26.4463 15.5064 26.3167 17.0737 26.1085 18.6279C26.0216 19.2767 25.7676 19.8976 25.5816 20.5594C25.17 20.1191 24.8055 19.7292 24.401 19.2881C24.3211 19.1037 24.2199 18.9491 24.2502 18.8402C24.6433 17.4303 24.7743 15.9779 24.8128 14.5144C24.8413 13.4301 24.8184 12.3441 24.8184 11.2783C24.0822 11.1501 23.4307 11.0366 22.7471 10.9077C22.0257 10.6561 21.3366 10.4199 20.6249 10.1566C20.0663 9.83788 19.5303 9.54636 18.9781 9.23176C18.8842 9.16617 18.8064 9.12366 18.7107 9.0519C18.1133 8.60348 18.1133 8.60348 17.761 9.07948C17.0873 9.44933 16.449 9.81955 15.7749 10.194C15.6658 10.2111 15.5881 10.2109 15.5197 10.2389C14.3117 10.7323 13.0795 11.1031 11.792 11.2334C11.6823 11.2445 11.5167 11.4813 11.5056 11.6256C11.4695 12.0916 11.4935 12.5633 11.4885 13.0666C11.4861 13.1458 11.4897 13.1912 11.4882 13.2784C11.4882 13.4601 11.4932 13.6 11.4924 13.7737C11.4903 13.853 11.494 13.8985 11.4917 13.9791C11.505 14.2313 11.5245 14.4484 11.5448 14.7111C11.5842 15.3283 11.6227 15.8998 11.6559 16.496C11.653 16.5372 11.6555 16.5538 11.6555 16.6126C11.8628 17.5696 12.0725 18.4845 12.2857 19.4366C12.4291 19.789 12.5689 20.1041 12.7229 20.4531C12.9179 20.8318 13.0987 21.1767 13.2858 21.5531C13.3746 21.7003 13.4571 21.816 13.5519 21.9641C13.7164 22.1627 13.7863 22.3077 13.6032 22.534C13.3244 22.8786 13.0848 23.2629 12.7942 23.639C12.6055 23.5575 12.4511 23.4674 12.294 23.345C12.14 23.1549 11.9885 22.997 11.837 22.8392Z" fill="#222222"/>
<path d="M17.2462 25.3358C17.4691 25.5607 17.692 25.7856 17.9415 26.0374C18.8139 25.1035 19.6747 24.1831 20.5343 23.2614C21.3745 22.3605 22.212 21.4566 23.0551 20.559C23.1458 20.4624 23.2658 20.3993 23.4017 20.3333C23.799 20.7809 24.1669 21.2159 24.4929 21.6015C23.8756 22.3156 23.2616 23.026 22.6356 23.7665C21.2052 25.3069 19.7886 26.8192 18.365 28.3234C18.2484 28.4465 18.0841 28.5146 17.9144 28.5975C16.8545 27.6345 15.8222 26.6823 14.7594 25.7245C14.3942 25.3358 14.0596 24.9529 13.7004 24.5418C14.0544 24.0834 14.4247 23.6039 14.8196 23.0924C15.0744 23.3316 15.3124 23.5552 15.5969 23.818C16.1775 24.3501 16.7119 24.843 17.2462 25.3358Z" fill="#222222"/>
</g>
<path d="M14.4238 14.4844L16.1136 13.8262H17.2156V20.9145H15.9483V15.3046L14.7361 15.6793L14.4238 14.4844Z" fill="#222222"/>
<path d="M17.9753 14.4844L19.665 13.8262H20.7671V20.9145H19.4997V15.3046L18.2875 15.6793L17.9753 14.4844Z" fill="#222222"/>
<g style="mix-blend-mode:difference">
<path fill-rule="evenodd" clip-rule="evenodd" d="M16.1354 30.4956C16.3778 30.9943 16.5518 31.4831 16.5655 31.9485C16.7791 31.9038 17.0051 31.8697 17.24 31.8477L17.1352 30.9352H17.2249L17.329 31.8393C17.5036 31.8249 17.6831 31.8181 17.8659 31.8181C17.896 31.8181 17.9255 31.8181 17.9556 31.8181V30.7085H18.0453V31.8196C18.2597 31.8249 18.4678 31.8409 18.6685 31.8651L18.7753 30.9344H18.865L18.7568 31.8765C18.9979 31.9091 19.228 31.9553 19.443 32.0121C19.4409 31.5286 19.6183 31.0193 19.8703 30.4994C19.8977 30.5244 19.9326 30.5395 19.9717 30.5395C20.0586 30.5395 20.1292 30.4615 20.1292 30.3652C20.1292 30.269 20.0586 30.1909 19.9717 30.1909C19.8847 30.1909 19.8141 30.269 19.8141 30.3652C19.8141 30.4137 19.832 30.4577 19.8607 30.4888C19.3937 31.0314 19.0554 31.1307 18.9575 30.4016C18.9657 30.4031 18.9739 30.4039 18.9821 30.4039C19.0691 30.4039 19.1396 30.3258 19.1396 30.2295C19.1396 30.1333 19.0691 30.0552 18.9821 30.0552C18.8952 30.0552 18.8246 30.1333 18.8246 30.2295C18.8246 30.3015 18.8643 30.3645 18.9212 30.3902C18.5856 30.9594 18.3049 30.8616 18.0837 30.0499C18.1878 30.0052 18.2617 29.8923 18.2617 29.7612C18.2617 29.5899 18.1364 29.4512 17.9816 29.4512C17.8269 29.4512 17.7009 29.5899 17.7009 29.7612C17.7009 29.9105 17.7954 30.0348 17.9221 30.0651C17.7009 30.8647 17.4215 30.9571 17.0866 30.3872C17.1393 30.3591 17.1756 30.2993 17.1756 30.2303C17.1756 30.134 17.1051 30.056 17.0181 30.056C16.9312 30.056 16.8606 30.134 16.8606 30.2303C16.8606 30.3266 16.9312 30.4046 17.0181 30.4046C17.0298 30.4046 17.0414 30.4031 17.0524 30.4008C16.9544 31.1345 16.6141 31.0322 16.1443 30.485C16.1703 30.4539 16.1861 30.4122 16.1861 30.3667C16.1861 30.2705 16.1156 30.1924 16.0286 30.1924C15.9416 30.1924 15.8711 30.2705 15.8711 30.3667C15.8711 30.463 15.9416 30.541 16.0286 30.541C16.0704 30.541 16.108 30.5236 16.1361 30.4941L16.1354 30.4956Z" fill="url(#paint4_linear_789_12437)"/>
</g>
<defs>
<linearGradient id="paint0_linear_789_12437" x1="17.9964" y1="35.0041" x2="17.9964" y2="0.430904" gradientUnits="userSpaceOnUse">
<stop stop-color="#DBA73E"/>
<stop offset="0.16" stop-color="#D89D3A"/>
<stop offset="0.3" stop-color="#A46B28"/>
<stop offset="0.46" stop-color="#8E5723"/>
<stop offset="0.49" stop-color="#F4F3B8"/>
<stop offset="0.56" stop-color="#F7ED9A"/>
<stop offset="0.69" stop-color="#D5B767"/>
<stop offset="0.75" stop-color="#A76F29"/>
<stop offset="0.85" stop-color="#D0AB5B"/>
<stop offset="1" stop-color="#E0C77D"/>
</linearGradient>
<linearGradient id="paint1_linear_789_12437" x1="18.1555" y1="33.1465" x2="17.5506" y2="1.46361" gradientUnits="userSpaceOnUse">
<stop stop-color="#DBA73E"/>
<stop offset="0.16" stop-color="#D89D3A"/>
<stop offset="0.3" stop-color="#A46B28"/>
<stop offset="0.49" stop-color="#8E5723"/>
<stop offset="0.54" stop-color="#F4F3B8"/>
<stop offset="0.56" stop-color="#F7ED9A"/>
<stop offset="0.69" stop-color="#D5B767"/>
<stop offset="0.75" stop-color="#A76F29"/>
<stop offset="0.85" stop-color="#D0AB5B"/>
<stop offset="1" stop-color="#E0C77D"/>
</linearGradient>
<linearGradient id="paint2_linear_789_12437" x1="26.9082" y1="31.4533" x2="8.5412" y2="3.45881" gradientUnits="userSpaceOnUse">
<stop stop-color="#482A0F"/>
<stop offset="0.1" stop-color="#A77129"/>
<stop offset="0.15" stop-color="white"/>
<stop offset="0.22" stop-color="#DA9E41"/>
<stop offset="0.34" stop-color="#8E5923"/>
<stop offset="0.5" stop-color="#D8A64D"/>
<stop offset="0.66" stop-color="#F5E380"/>
<stop offset="0.72" stop-color="#DAC164"/>
<stop offset="0.77" stop-color="white"/>
<stop offset="0.83" stop-color="#A0752B"/>
<stop offset="1" stop-color="#664219"/>
</linearGradient>
<linearGradient id="paint3_linear_789_12437" x1="31.6059" y1="17.308" x2="4.38477" y2="17.308" gradientUnits="userSpaceOnUse">
<stop stop-color="#BA9555"/>
<stop offset="0.4" stop-color="#FCF6AC"/>
<stop offset="0.67" stop-color="#D3AC53"/>
<stop offset="0.85" stop-color="#BD882C"/>
<stop offset="1" stop-color="#A25D25"/>
</linearGradient>
<linearGradient id="paint4_linear_789_12437" x1="17.9994" y1="31.5786" x2="17.9994" y2="29.8885" gradientUnits="userSpaceOnUse">
<stop stop-color="#DBA73E"/>
<stop offset="0.16" stop-color="#D89D3A"/>
<stop offset="0.54" stop-color="#F4F3B8"/>
<stop offset="0.56" stop-color="#F7ED9A"/>
<stop offset="0.69" stop-color="#D5B767"/>
<stop offset="0.85" stop-color="#D0AB5B"/>
<stop offset="1" stop-color="#E0C77D"/>
</linearGradient>
<clipPath id="clip0_789_12437">
<rect width="8.15573" height="22.1951" fill="white" transform="translate(9.67969 6.40234)"/>
</clipPath>
<clipPath id="clip1_789_12437">
<rect width="8.84983" height="22.1951" fill="white" transform="matrix(-1 0 0 1 26.6855 6.40234)"/>
</clipPath>
</defs>
</svg>
