<svg width="36" height="35" viewBox="0 0 36 35" fill="none" xmlns="http://www.w3.org/2000/svg">
<path fill-rule="evenodd" clip-rule="evenodd" d="M27.8467 4.1504C29.909 6.43965 31.3497 9.44861 31.856 12.8198C32.5067 11.7719 31.8737 10.6607 32.0625 9.59234C32.2549 8.5055 32.8489 8.40839 33.2497 7.80718C33.7293 9.78272 33.2559 11.4601 31.8595 12.8373C31.9889 13.7046 32.0554 14.5963 32.0554 15.5054C32.0554 15.8744 32.0448 16.2416 32.0226 16.6048C32.9819 15.7385 32.6317 14.3525 33.1247 13.3035C33.6283 12.2313 34.279 12.3439 34.866 11.8573C34.8199 14.098 33.8615 15.685 32.0209 16.6291C31.949 17.7917 31.7673 18.9193 31.4871 19.9994C32.6433 19.4088 32.5546 17.9384 33.2479 17.0234C33.9457 16.1027 34.5583 16.3737 35.225 16.0444C34.7463 18.2365 33.49 19.5516 31.4854 20.0052C31.2123 21.058 30.8452 22.0643 30.3957 23.0142C31.5643 22.6295 31.7123 21.2037 32.52 20.4539C33.3481 19.6857 33.9102 20.0742 34.6177 19.8828C33.8171 21.9273 32.3977 22.9714 30.3842 23.0394C29.885 24.0903 29.2839 25.0703 28.5959 25.9609C29.9418 25.9182 30.3647 24.4361 31.3612 23.8533C32.3595 23.2696 32.8631 23.8077 33.6265 23.7873C32.3959 25.7113 30.7122 26.4262 28.595 25.9619C27.806 26.9846 26.9025 27.8908 25.9086 28.6552C27.3157 28.7902 28.0125 27.3188 29.1695 26.8953C30.362 26.4602 30.8284 27.1566 31.6707 27.2925C30.0313 29.1302 28.0941 29.5798 25.8776 28.6785C24.8873 29.4361 23.8074 30.0529 22.6583 30.5045C22.5803 31.0649 22.153 31.4952 21.6379 31.4952C21.316 31.4952 21.0279 31.3271 20.839 31.0649C20.3612 31.1727 19.8744 31.2553 19.3797 31.3058L18.1012 33.3959L16.8227 31.3058C16.3262 31.2543 15.8377 31.1717 15.3572 31.063C15.1674 31.3262 14.8802 31.4942 14.5566 31.4942C14.0406 31.4942 13.6123 31.0639 13.5361 30.5006C8.07107 28.3512 4.14607 22.4489 4.14607 15.5034C4.14607 11.0522 5.7588 7.03017 8.35389 4.14845C6.00351 6.91848 4.55746 10.687 4.55746 14.84C4.55746 21.6563 8.45141 27.4363 13.8473 29.4643C14.0326 29.2661 14.2817 29.1438 14.5566 29.1438C15.0185 29.1438 15.4104 29.4886 15.5425 29.9635C15.804 30.0208 16.0682 30.0703 16.3351 30.1101L18.1012 27.2226L19.8673 30.1101C20.1315 30.0703 20.3931 30.0218 20.6528 29.9654C20.7849 29.4885 21.1759 29.1438 21.6387 29.1438C21.9145 29.1438 22.1645 29.2661 22.3498 29.4672C27.7483 27.4402 31.6449 21.6583 31.6449 14.84C31.6449 10.687 30.1989 6.91848 27.8476 4.14845L27.8467 4.1504ZM27.1534 3.71915C26.8475 3.09366 26.2172 3.21604 25.7889 2.87416C25.3607 2.53228 25.4476 2.17971 25.2747 1.82617C26.2393 1.9874 26.8635 2.62357 27.1525 3.71915H27.1534ZM28.6509 6.16575C28.298 5.21295 27.6827 4.70984 26.8014 4.67196C26.9867 4.97014 26.9389 5.29745 27.3529 5.55677C27.7661 5.81707 28.3228 5.63739 28.6509 6.16575ZM29.8753 8.77844C29.5552 7.56631 28.8646 6.86117 27.7962 6.68343C27.9877 7.07485 27.892 7.4653 28.3654 7.84312C28.8388 8.22191 29.5375 8.08593 29.8762 8.77844H29.8753ZM30.7965 11.6873C30.6546 10.2557 30.0074 9.30777 28.8433 8.86197C28.9869 9.34371 28.8105 9.75843 29.2724 10.2926C29.7343 10.8258 30.5402 10.8346 30.7965 11.6883V11.6873ZM31.113 15.4345C31.3267 13.8212 30.8621 12.5673 29.7024 11.6912C29.7361 12.2672 29.4355 12.6615 29.8035 13.3997C30.1723 14.1369 31.0527 14.4146 31.1121 15.4345H31.113ZM30.6431 19.369C31.2779 17.6985 31.0917 16.1949 30.0606 14.874C29.9524 15.5054 29.5286 15.8336 29.7414 16.7495C29.9542 17.6645 30.8337 18.2501 30.6431 19.369ZM29.1181 23.1016C30.0836 21.3708 30.1094 19.6623 29.1687 17.9869C28.9506 18.6668 28.4283 18.9475 28.5232 20.0081C28.6181 21.0687 29.5047 21.8953 29.119 23.1016H29.1181ZM27.0736 25.8862C28.2705 24.1913 28.4753 22.3935 27.657 20.5005C27.3564 21.1892 26.7775 21.4145 26.7669 22.545C26.7562 23.6756 27.6056 24.6672 27.0736 25.8862ZM24.6514 28.0938C26.1737 26.4932 26.6463 24.6041 26.0345 22.4246C25.6152 23.1084 24.9626 23.2443 24.7924 24.4555C24.6222 25.6657 25.3935 26.8827 24.6514 28.0938ZM22.5803 29.136C24.1292 27.041 24.4324 24.7857 23.4492 22.378C23.0538 23.2346 22.3197 23.4988 22.278 24.9217C22.2363 26.3446 23.2807 27.6189 22.5803 29.136ZM28.5587 4.74189C28.6376 3.50451 28.22 2.58473 27.2962 1.99809C27.3511 2.43224 27.1437 2.75178 27.462 3.28695C27.7794 3.82211 28.4612 3.97362 28.5587 4.74286V4.74189ZM29.9356 6.94955C30.4303 5.6539 30.2876 4.48742 29.4887 3.46081C29.4045 3.95129 29.0756 4.20479 29.2387 4.91575C29.4027 5.62671 30.0845 6.08222 29.9347 6.94955H29.9356ZM31.2956 9.6409C32.1734 8.00336 32.1725 6.40662 31.2673 4.85746C31.0731 5.49849 30.5899 5.77045 30.6936 6.76016C30.7973 7.74987 31.6387 8.50648 31.2956 9.6409ZM22.8756 30.6832C24.8784 32.2003 26.883 32.2916 28.8787 30.9134C28.0861 30.5608 27.7723 29.7615 26.5248 29.8722C25.2774 29.9839 24.279 31.3058 22.8756 30.6832ZM8.8433 3.71915C9.14917 3.09366 9.77955 3.21604 10.2078 2.87416C10.6351 2.53228 10.5491 2.17971 10.7211 1.82617C9.75561 1.9874 9.13233 2.62357 8.8433 3.71915ZM7.34671 6.16575C7.67475 5.63739 8.23154 5.81707 8.64469 5.55677C9.05874 5.29648 9.01086 4.97014 9.19616 4.67196C8.31488 4.70984 7.69958 5.21392 7.34671 6.16575ZM6.12143 8.77844C6.46011 8.08593 7.15875 8.22191 7.63219 7.84312C8.10564 7.46433 8.00989 7.07485 8.20051 6.68343C7.13215 6.86214 6.44149 7.56631 6.12143 8.77844ZM5.20024 11.6873C5.45559 10.8336 6.26151 10.8249 6.72431 10.2917C7.18712 9.75746 7.0098 9.34371 7.15343 8.86099C5.98932 9.3068 5.3421 10.2547 5.20024 11.6864V11.6873ZM4.88373 15.4345C4.94402 14.4146 5.82353 14.1369 6.19235 13.3997C6.56118 12.6615 6.26062 12.2662 6.29431 11.6912C5.13464 12.5673 4.67006 13.8212 4.88373 15.4345ZM5.35451 19.369C5.16301 18.2501 6.04341 17.6645 6.2553 16.7495C6.46809 15.8336 6.04518 15.5054 5.93612 14.874C4.905 16.1949 4.71882 17.6985 5.35362 19.369H5.35451ZM6.87947 23.1016C6.49291 21.8953 7.3804 21.0687 7.47438 20.0081C7.56836 18.9475 7.04704 18.6668 6.82893 17.9869C5.88825 19.6623 5.91396 21.3698 6.87947 23.1016ZM8.92398 25.8862C8.39201 24.6672 9.24138 23.6756 9.23074 22.545C9.2201 21.4145 8.64115 21.1892 8.34059 20.5005C7.52225 22.3935 7.72618 24.1913 8.92398 25.8862ZM11.3462 28.0938C10.6041 26.8827 11.3754 25.6657 11.2052 24.4555C11.035 23.2453 10.3824 23.1084 9.96307 22.4246C9.35132 24.6031 9.82388 26.4932 11.3462 28.0938ZM13.4173 29.136C12.7169 27.6189 13.7613 26.3446 13.7196 24.9217C13.6779 23.4988 12.9438 23.2346 12.5484 22.378C11.5661 24.7857 11.8684 27.041 13.4182 29.136H13.4173ZM7.43803 4.74189C7.53644 3.97265 8.21824 3.82114 8.53476 3.28597C8.85305 2.75081 8.64558 2.43127 8.70055 1.99711C7.77582 2.58472 7.36001 3.50353 7.43803 4.74092V4.74189ZM6.06114 6.94955C5.9113 6.08125 6.5931 5.62574 6.75712 4.91575C6.92114 4.20479 6.59221 3.95129 6.50798 3.46081C5.70915 4.48742 5.56641 5.6539 6.06114 6.94955ZM4.70109 9.6409C4.35797 8.50648 5.19936 7.74987 5.30309 6.76016C5.40682 5.77045 4.92362 5.49849 4.72946 4.85746C3.82424 6.40662 3.82424 8.00434 4.70109 9.6409ZM4.17711 12.8752C3.46782 11.8107 4.12745 10.6792 3.93506 9.59234C3.74267 8.5055 3.14865 8.40839 2.7479 7.80718C2.26382 9.80117 2.74968 11.4902 4.17622 12.8752H4.17711ZM4.04057 16.6612C2.1592 15.721 1.17861 14.1233 1.13251 11.8573C1.71944 12.3439 2.37021 12.2322 2.8738 13.3035C3.37739 14.3748 3.00058 15.7996 4.03968 16.6612H4.04057ZM4.53352 20.01C3.35345 19.4273 3.44743 17.9442 2.75056 17.0234C2.0528 16.1027 1.44016 16.3737 0.773438 16.0444C1.25398 18.2443 2.51738 19.5604 4.53352 20.01ZM5.69231 23.0413C4.44042 22.7014 4.30566 21.2222 3.47846 20.4539C2.65037 19.6857 2.08827 20.0742 1.38076 19.8828C2.192 21.9545 3.63805 22.9986 5.69231 23.0413ZM7.40966 25.9609C6.05847 25.9231 5.63557 24.437 4.63725 23.8533C3.63894 23.2696 3.13535 23.8077 2.37198 23.7873C3.60347 25.7142 5.28979 26.4281 7.40966 25.9609ZM10.2166 28.6397C8.72449 28.8776 8.02053 27.3304 6.82893 26.8953C5.63734 26.4602 5.1701 27.1566 4.32782 27.2925C5.99109 29.1564 7.96024 29.5925 10.2166 28.6397ZM13.122 30.6832C11.7185 31.3058 10.7202 29.9839 9.47278 29.8722C8.22445 29.7615 7.91148 30.5608 7.11885 30.9134C9.1146 32.2916 11.1192 32.2003 13.122 30.6832Z" fill="url(#paint0_linear_770_16205)"/>
<path fill-rule="evenodd" clip-rule="evenodd" d="M18.3265 34.9194C19.7477 34.1764 21.5165 32.6642 23.2374 30.7353C24.8439 28.9336 26.4114 26.7638 27.6155 24.5124C28.6466 22.5845 29.4179 20.5866 29.7327 18.6859C30.0155 16.9794 29.9321 15.3506 29.3434 13.9189C29.0615 13.2371 28.8868 12.5397 28.7946 11.8453C28.69 11.0566 28.6909 10.2728 28.7601 9.52106C28.8461 8.59546 29.0367 7.7155 29.2672 6.93073C29.5837 5.85069 29.9774 4.94936 30.277 4.35495C30.3772 4.15487 30.3941 3.9276 30.34 3.72266C30.2859 3.51773 30.16 3.3361 29.9765 3.22538C29.8887 3.17293 29.7947 3.14088 29.7007 3.12825C29.6032 3.11563 29.5057 3.1234 29.4126 3.15156L29.402 3.15448C28.9861 3.25938 27.5862 3.48373 25.883 3.44973C24.8466 3.42934 23.6993 3.31279 22.6008 3.01267C21.7692 2.78637 20.9695 2.45323 20.2815 1.97537C19.6875 1.56259 19.175 1.04102 18.7946 0.385424C18.7911 0.378625 18.7867 0.372792 18.7822 0.366964C18.6696 0.183396 18.5012 0.0649082 18.3177 0.0202303C18.1279 -0.02639 17.9222 0.00663228 17.7458 0.129011C17.6802 0.17466 17.6217 0.230988 17.5729 0.29412C17.5259 0.355309 17.4869 0.424278 17.4576 0.498093C17.142 1.15466 16.6757 1.67525 16.1127 2.0861C15.4539 2.5659 14.664 2.8971 13.8261 3.11952C12.6984 3.41866 11.4944 3.52355 10.3941 3.52744C8.51449 3.53521 6.9452 3.2516 6.56839 3.14865C6.36536 3.09328 6.16056 3.13312 5.99387 3.24287C5.82719 3.35262 5.69775 3.53229 5.64721 3.75471L5.64455 3.76928C5.62327 3.87223 5.61973 3.97519 5.63214 4.07426C5.64544 4.17915 5.67824 4.2792 5.72523 4.36952C6.0249 4.96588 6.41501 5.86428 6.72975 6.93947C6.95761 7.71647 7.14557 8.58574 7.23246 9.49873C7.23246 9.51427 7.23423 9.52981 7.23689 9.54535C7.30516 10.2903 7.30427 11.0673 7.20054 11.8472C7.10833 12.5417 6.93367 13.239 6.65262 13.9209C6.08519 15.2923 5.99919 16.8278 6.26251 18.4343C6.55686 20.2263 7.28743 22.1057 8.26801 23.9384C9.43921 26.1267 10.9739 28.2615 12.5343 30.0913C14.3643 32.2378 16.2377 33.9696 17.6048 34.8796C17.7157 34.9534 17.838 34.9923 17.9595 34.9991C18.0747 35.0049 18.1891 34.9826 18.2946 34.934C18.3026 34.9311 18.3106 34.9282 18.3177 34.9243L18.3239 34.9214L18.3265 34.9194ZM22.8748 30.3487C21.2062 32.2203 19.4995 33.685 18.1332 34.4057C18.1253 34.4086 18.1173 34.4125 18.1093 34.4163C18.0712 34.4367 18.0286 34.4455 17.9861 34.4435C17.9462 34.4416 17.9063 34.429 17.869 34.4047C16.54 33.5208 14.7083 31.8231 12.9076 29.7125C11.3685 27.9079 9.8568 25.8061 8.70688 23.6567C7.75467 21.8774 7.04538 20.0582 6.76256 18.3352C6.51697 16.8366 6.5941 15.4098 7.11631 14.1472C7.41776 13.4158 7.60572 12.6679 7.70413 11.924C7.81407 11.0935 7.81407 10.268 7.74048 9.47445V9.46571L7.7396 9.46376C7.65005 8.4993 7.45234 7.58341 7.21384 6.76852C6.88668 5.64964 6.48151 4.7182 6.1712 4.10048L6.16853 4.09562C6.15169 4.06454 6.14105 4.02958 6.13573 3.99365C6.1313 3.96257 6.13219 3.92857 6.13928 3.89555L6.14105 3.88777C6.15789 3.81298 6.20045 3.75374 6.25631 3.71683C6.31217 3.67992 6.38043 3.6673 6.4487 3.68575C6.84058 3.79356 8.46483 4.08786 10.3967 4.08009C11.5325 4.07523 12.7782 3.96742 13.9476 3.65758C14.8395 3.42157 15.6844 3.0661 16.3946 2.54842C17.0259 2.08804 17.5507 1.49946 17.9098 0.75159C17.9142 0.742849 17.9187 0.733133 17.9222 0.724392C17.932 0.70011 17.9453 0.67486 17.9621 0.653492C17.9781 0.633096 17.9976 0.614636 18.0206 0.599096C18.08 0.557332 18.1492 0.546648 18.2121 0.562188C18.2715 0.576756 18.3265 0.614638 18.3638 0.673885L18.37 0.685539C18.792 1.41495 19.3585 1.99285 20.0128 2.44643C20.7505 2.95828 21.6007 3.31376 22.4811 3.55366C23.6178 3.8635 24.804 3.98393 25.8759 4.0053C27.6252 4.04027 29.081 3.80522 29.5172 3.69546C29.5261 3.69352 29.535 3.69256 29.5438 3.68964C29.5757 3.67993 29.6085 3.67701 29.6413 3.68187C29.6724 3.68575 29.7034 3.69644 29.7327 3.71392C29.7938 3.75083 29.8364 3.81202 29.8541 3.87903C29.8719 3.94702 29.8665 4.02376 29.8328 4.09077C29.5225 4.70558 29.1156 5.63992 28.7858 6.76464C28.5455 7.58243 28.3469 8.50028 28.2574 9.46765C28.1829 10.2641 28.1829 11.0935 28.2928 11.9269C28.3912 12.6709 28.5792 13.4187 28.8806 14.1511C29.425 15.4739 29.5004 16.993 29.2344 18.5926C28.9303 20.4234 28.182 22.3611 27.1784 24.2366C25.9965 26.4462 24.4538 28.5801 22.873 30.3526L22.8748 30.3487ZM26.3086 23.6723C25.2101 25.7255 23.7951 27.7079 22.3402 29.3706C20.8427 31.083 19.308 32.4525 18.0393 33.211C16.767 32.2873 15.1108 30.7061 13.491 28.7811C12.0574 27.0775 10.6556 25.1088 9.57841 23.0954C8.70688 21.4666 8.05168 19.8164 7.77861 18.274C7.54188 16.9376 7.59242 15.6837 8.04016 14.6017C8.38061 13.7761 8.59251 12.936 8.70422 12.1027C8.83012 11.1674 8.83012 10.2398 8.74677 9.35109L8.745 9.33944C8.66609 8.50416 8.51448 7.70676 8.32564 6.97249C8.14123 6.25376 7.92046 5.59427 7.69792 5.01929C8.56679 5.12613 9.72027 5.21258 10.9597 5.17276C12.013 5.13876 13.1284 5.01347 14.1843 4.73375C15.07 4.4987 15.9176 4.15584 16.665 3.66924C17.2493 3.28948 17.7724 2.82133 18.2051 2.24926C18.6696 2.78734 19.2078 3.23024 19.7947 3.59349C20.5501 4.06066 21.3835 4.3938 22.2391 4.62787C23.256 4.90468 24.312 5.03969 25.3032 5.08728C26.4451 5.14362 27.4984 5.08534 28.3061 4.9989C28.0818 5.57679 27.8584 6.24211 27.6722 6.96569C27.4816 7.70482 27.3282 8.50999 27.2502 9.35207C27.1677 10.2408 27.1677 11.1683 27.2927 12.1027C27.4044 12.936 27.6163 13.7771 27.9577 14.6017C28.4276 15.7449 28.4763 17.0891 28.2201 18.5266C27.9258 20.1777 27.2298 21.9464 26.3068 23.6713L26.3086 23.6723ZM22.7054 29.7553C21.1211 31.5667 19.4853 33.0099 18.143 33.7782C18.0596 33.8258 17.9639 33.818 17.8894 33.7656C16.5693 32.8342 14.8209 31.1791 13.1195 29.157C11.6655 27.4291 10.2416 25.4293 9.14309 23.3761C8.24319 21.6948 7.56671 19.9854 7.28122 18.3789C7.025 16.9337 7.0844 15.5691 7.57823 14.3744C7.8983 13.5994 8.09689 12.8078 8.2024 12.023C8.3212 11.1411 8.3221 10.268 8.24585 9.43172C8.24319 9.41715 8.2423 9.40354 8.24141 9.388C8.16605 8.59157 8.01976 7.82817 7.83889 7.12206C7.61104 6.23628 7.32821 5.44567 7.05869 4.79978C7.00106 4.66089 7.05691 4.49676 7.18369 4.43266C7.22802 4.41032 7.2759 4.40351 7.32112 4.41031C8.19974 4.53851 9.51635 4.66478 10.9473 4.61913C11.9678 4.58611 13.0477 4.4647 14.0673 4.19469C14.9051 3.97227 15.7066 3.64885 16.4097 3.19139C17.0259 2.79026 17.5667 2.2852 17.9887 1.65388C18.0712 1.53053 18.2299 1.50431 18.3425 1.59463C18.3646 1.61212 18.3824 1.63251 18.3974 1.65582C18.862 2.24926 19.4232 2.72809 20.0448 3.11271C20.7549 3.55172 21.5458 3.86738 22.3623 4.0898C23.3456 4.35787 24.3678 4.48801 25.3271 4.53463C26.6517 4.59971 27.861 4.50549 28.6874 4.39768C28.8266 4.3802 28.9525 4.48801 28.9684 4.6405C28.9746 4.69974 28.9631 4.75706 28.9392 4.80659C28.6696 5.45053 28.3886 6.23724 28.1616 7.1172C27.9781 7.83011 27.83 8.60323 27.7555 9.40743C27.6766 10.2515 27.6766 11.1343 27.7963 12.024C27.9018 12.8097 28.1004 13.6004 28.4205 14.3754C28.9374 15.6322 28.9941 17.0891 28.7184 18.6344C28.4125 20.3477 27.6952 22.1736 26.7439 23.953C25.6233 26.047 24.1834 28.0643 22.7046 29.7553H22.7054Z" fill="url(#paint1_linear_770_16205)"/>
<path fill-rule="evenodd" clip-rule="evenodd" d="M18.2163 34.6685C20.9214 33.2544 24.9315 28.9798 27.3971 24.3722C29.3166 20.7853 30.3185 16.9654 29.1127 14.0332C28.4921 12.5297 28.3732 10.9533 28.5098 9.49255C28.719 7.24408 29.5285 5.26563 30.056 4.22153C30.1908 3.95346 30.1012 3.61547 29.8557 3.46881C29.736 3.39693 29.6021 3.38333 29.4797 3.42024C28.8352 3.58924 25.5175 4.09429 22.5421 3.28329C20.9355 2.84525 19.4416 2.01968 18.5825 0.535601C18.4327 0.276276 18.1197 0.199556 17.883 0.363699C17.7925 0.42683 17.726 0.516185 17.6879 0.617195C16.9662 2.12847 15.5095 2.95889 13.887 3.38916C10.7804 4.21375 7.11873 3.58535 6.50874 3.41733C6.23744 3.34351 5.9626 3.52417 5.89433 3.82137C5.86064 3.96803 5.88369 4.11469 5.94841 4.2361C6.47594 5.28409 7.2792 7.25574 7.48755 9.49255V9.49449C7.62409 10.9553 7.50528 12.5316 6.88466 14.0351C5.72233 16.844 6.66745 20.3968 8.48764 23.7982C11.0074 28.5068 15.2373 32.9795 17.7367 34.6423C17.8874 34.7423 18.0674 34.7452 18.2154 34.6685V34.6704L18.2163 34.6685ZM26.5247 23.8118C24.2293 28.1018 20.5756 32.0723 18.0239 33.5321C15.6035 31.8237 11.7175 27.6444 9.35917 23.2358C7.69147 20.1191 6.80309 16.9159 7.80761 14.4877C8.51069 12.7851 8.64634 11.0135 8.49385 9.3789C8.32185 7.53837 7.78456 5.87267 7.28718 4.68385C8.81125 4.90724 11.6369 5.12285 14.1247 4.4624C15.7533 4.03019 17.2482 3.22696 18.1906 1.8167C19.2271 3.15023 20.7201 3.92627 22.3 4.35751C24.677 5.00534 27.2739 4.86062 28.7155 4.67122C28.2163 5.86198 27.6746 7.53254 27.5026 9.3789C27.3501 11.0135 27.4858 12.7851 28.1888 14.4877C29.2395 17.0411 28.2935 20.5066 26.5247 23.8108V23.8118Z" fill="url(#paint2_linear_770_16205)"/>
<path fill-rule="evenodd" clip-rule="evenodd" d="M17.9975 34.1675C22.6362 31.7423 31.2575 20.6 28.6491 14.2616C26.985 10.2328 28.7006 5.75631 29.6102 3.95463C28.6154 4.22269 20.7814 5.37266 18.1535 0.832031C15.9131 5.6349 7.36269 4.22269 6.38477 3.95463C7.29353 5.75534 9.00822 10.2319 7.34496 14.2616C4.72061 20.601 13.826 31.3936 17.9975 34.1675Z" stroke="#8F6137" stroke-width="0.303049" stroke-miterlimit="2.61"/>
<path fill-rule="evenodd" clip-rule="evenodd" d="M17.9975 34.1675C22.6362 31.7423 31.2575 20.6 28.6491 14.2616C26.985 10.2328 28.7006 5.75631 29.6102 3.95463C28.6154 4.22269 20.7814 5.37266 18.1535 0.832031C15.9131 5.6349 7.36269 4.22269 6.38477 3.95463C7.29353 5.75534 9.00822 10.2319 7.34496 14.2616C4.72061 20.601 13.826 31.3936 17.9975 34.1675Z" fill="url(#paint3_radial_770_16205)"/>
<path fill-rule="evenodd" clip-rule="evenodd" d="M17.9975 34.1665C18.0205 34.1549 18.0436 34.1413 18.0666 34.1287V1.00586C15.7012 5.59796 7.35028 4.21878 6.38477 3.95362C7.29353 5.75433 9.00822 10.2309 7.34496 14.2606C4.72061 20.6 13.826 31.3926 17.9975 34.1665Z" fill="url(#paint4_radial_770_16205)"/>
<g clip-path="url(#clip0_770_16205)">
<path d="M11.8351 22.8392C11.6587 22.4867 11.4823 22.1341 11.2832 21.7213C11.1809 21.512 11.1014 21.3628 11.0218 21.2136C10.8406 20.7245 10.6657 20.2322 10.4744 19.748C10.4182 19.6057 10.2004 18.7222 10.101 18.5624C9.9885 17.7402 10.0092 17.712 9.89756 16.8843C9.83701 16.247 9.79364 15.645 9.74349 14.9977C9.73807 14.8445 9.73943 14.7367 9.74033 14.5568C9.72375 14.4009 9.70764 14.317 9.69152 14.2332C9.69152 14.2332 9.69494 14.1873 9.69114 14.1272C9.68414 13.9908 9.68094 13.9145 9.67773 13.8382C9.69481 13.3301 9.71189 12.8221 9.7194 12.2695C9.71509 12.1488 9.72035 12.0727 9.7271 11.9269C9.72305 11.8114 9.71751 11.7657 9.71198 11.72C9.71115 11.6065 9.71032 11.4929 9.71426 11.3171C9.72351 11.1738 9.72798 11.0929 9.73245 11.0119C9.7379 10.8057 9.74334 10.5995 9.74962 10.3051C9.75438 9.97827 9.7583 9.73965 9.80376 9.49933C10.3274 9.46121 10.8095 9.42479 11.3313 9.39358C12.7076 9.29637 13.9984 8.97058 15.2093 8.32665C15.7047 8.06322 16.1577 7.70041 16.6587 7.38085C17.0331 7.14903 17.4265 6.97573 17.712 6.67464C18.0506 6.31756 18.3024 6.29645 18.6159 6.70212C18.7791 6.84084 18.9256 6.95175 19.0894 7.08881C19.2436 7.21729 19.3804 7.31963 19.5456 7.44276C19.8247 7.60916 20.0753 7.75478 20.3449 7.92958C20.8066 8.1666 21.2493 8.37446 21.7194 8.604C22.2953 8.80154 22.8438 8.97738 23.3923 9.15321C23.9145 9.23718 24.4368 9.32114 24.9985 9.39808C25.5267 9.44432 26.0154 9.49757 26.5837 9.55949C26.5837 10.2977 26.5837 11.0639 26.5922 11.8766C26.5984 12.0962 26.5962 12.2693 26.5932 12.5246C26.5973 12.716 26.6022 12.8251 26.6071 12.9342C26.6019 13.0416 26.5968 13.1491 26.5913 13.3388C26.5959 13.5955 26.6007 13.7699 26.6056 13.9443C26.4443 15.5064 26.3148 17.0737 26.1066 18.6279C26.0197 19.2767 25.7657 19.8976 25.5797 20.5594C25.1681 20.1191 24.8035 19.7292 24.3991 19.2881C24.3191 19.1037 24.2179 18.9491 24.2483 18.8402C24.6413 17.4303 24.7724 15.9779 24.8108 14.5144C24.8393 13.4301 24.8164 12.3441 24.8164 11.2783C24.0802 11.1501 23.4288 11.0366 22.7452 10.9077C22.0238 10.6561 21.3346 10.4199 20.6229 10.1566C20.0644 9.83788 19.5284 9.54636 18.9762 9.23176C18.8822 9.16617 18.8044 9.12366 18.7088 9.0519C18.1113 8.60348 18.1113 8.60348 17.759 9.07948C17.0854 9.44933 16.447 9.81955 15.7729 10.194C15.6638 10.2111 15.5862 10.2109 15.5178 10.2389C14.3098 10.7323 13.0775 11.1031 11.79 11.2334C11.6803 11.2445 11.5148 11.4813 11.5036 11.6256C11.4676 12.0916 11.4916 12.5633 11.4865 13.0666C11.4842 13.1458 11.4878 13.1912 11.4863 13.2784C11.4862 13.4601 11.4913 13.6 11.4905 13.7737C11.4884 13.853 11.4921 13.8985 11.4897 13.9791C11.5031 14.2313 11.5225 14.4484 11.5428 14.7111C11.5822 15.3283 11.6208 15.8998 11.654 16.496C11.6511 16.5372 11.6535 16.5538 11.6536 16.6126C11.8609 17.5696 12.0705 18.4845 12.2838 19.4366C12.4271 19.789 12.5669 20.1041 12.7209 20.4531C12.916 20.8318 13.0968 21.1767 13.2839 21.5531C13.3726 21.7003 13.4551 21.816 13.5499 21.9641C13.7145 22.1627 13.7843 22.3077 13.6013 22.534C13.3224 22.8786 13.0828 23.2629 12.7923 23.639C12.6035 23.5575 12.4491 23.4674 12.2921 23.345C12.138 23.1549 11.9865 22.997 11.8351 22.8392Z" fill="url(#paint5_linear_770_16205)"/>
<path d="M17.2443 25.3358C17.4672 25.5607 17.6901 25.7856 17.9396 26.0374C18.812 25.1035 19.6728 24.1831 20.5324 23.2614C21.3726 22.3605 22.2101 21.4566 23.0531 20.559C23.1439 20.4624 23.2639 20.3993 23.3998 20.3333C23.7971 20.7809 24.1649 21.2159 24.4909 21.6015C23.8737 22.3156 23.2597 23.026 22.6337 23.7665C21.2033 25.3069 19.7867 26.8192 18.363 28.3234C18.2465 28.4465 18.0822 28.5146 17.9124 28.5975C16.8525 27.6345 15.8203 26.6823 14.7575 25.7245C14.3923 25.3358 14.0576 24.9529 13.6985 24.5418C14.0525 24.0834 14.4227 23.6039 14.8177 23.0924C15.0724 23.3316 15.3105 23.5552 15.5949 23.818C16.1756 24.3501 16.7099 24.843 17.2443 25.3358Z" fill="url(#paint6_linear_770_16205)"/>
</g>
<g opacity="0.5" clip-path="url(#clip1_770_16205)">
<path d="M11.8351 22.8392C11.6587 22.4867 11.4823 22.1341 11.2832 21.7213C11.1809 21.512 11.1014 21.3628 11.0218 21.2136C10.8406 20.7245 10.6657 20.2322 10.4744 19.748C10.4182 19.6057 10.2004 18.7222 10.101 18.5624C9.9885 17.7402 10.0092 17.712 9.89756 16.8843C9.83701 16.247 9.79364 15.645 9.74349 14.9977C9.73807 14.8445 9.73943 14.7367 9.74033 14.5568C9.72375 14.4009 9.70764 14.317 9.69152 14.2332C9.69152 14.2332 9.69494 14.1873 9.69114 14.1272C9.68414 13.9908 9.68094 13.9145 9.67773 13.8382C9.69481 13.3301 9.71189 12.8221 9.7194 12.2695C9.71509 12.1488 9.72035 12.0727 9.7271 11.9269C9.72305 11.8114 9.71751 11.7657 9.71198 11.72C9.71115 11.6065 9.71032 11.4929 9.71426 11.3171C9.72351 11.1738 9.72798 11.0929 9.73245 11.0119C9.7379 10.8057 9.74334 10.5995 9.74962 10.3051C9.75438 9.97827 9.7583 9.73965 9.80376 9.49933C10.3274 9.46121 10.8095 9.42479 11.3313 9.39358C12.7076 9.29637 13.9984 8.97058 15.2093 8.32665C15.7047 8.06322 16.1577 7.70041 16.6587 7.38085C17.0331 7.14903 17.4265 6.97573 17.712 6.67464C18.0506 6.31756 18.3024 6.29645 18.6159 6.70212C18.7791 6.84084 18.9256 6.95175 19.0894 7.08881C19.2436 7.21729 19.3804 7.31963 19.5456 7.44276C19.8247 7.60916 20.0753 7.75478 20.3449 7.92958C20.8066 8.1666 21.2493 8.37446 21.7194 8.604C22.2953 8.80154 22.8438 8.97738 23.3923 9.15321C23.9145 9.23718 24.4368 9.32114 24.9985 9.39808C25.5267 9.44432 26.0154 9.49757 26.5837 9.55949C26.5837 10.2977 26.5837 11.0639 26.5922 11.8766C26.5984 12.0962 26.5962 12.2693 26.5932 12.5246C26.5973 12.716 26.6022 12.8251 26.6071 12.9342C26.6019 13.0416 26.5968 13.1491 26.5913 13.3388C26.5959 13.5955 26.6007 13.7699 26.6056 13.9443C26.4443 15.5064 26.3148 17.0737 26.1066 18.6279C26.0197 19.2767 25.7657 19.8976 25.5797 20.5594C25.1681 20.1191 24.8035 19.7292 24.3991 19.2881C24.3191 19.1037 24.2179 18.9491 24.2483 18.8402C24.6413 17.4303 24.7724 15.9779 24.8108 14.5144C24.8393 13.4301 24.8164 12.3441 24.8164 11.2783C24.0802 11.1501 23.4288 11.0366 22.7452 10.9077C22.0238 10.6561 21.3346 10.4199 20.6229 10.1566C20.0644 9.83788 19.5284 9.54636 18.9762 9.23176C18.8822 9.16617 18.8044 9.12366 18.7088 9.0519C18.1113 8.60348 18.1113 8.60348 17.759 9.07948C17.0854 9.44933 16.447 9.81955 15.7729 10.194C15.6638 10.2111 15.5862 10.2109 15.5178 10.2389C14.3098 10.7323 13.0775 11.1031 11.79 11.2334C11.6803 11.2445 11.5148 11.4813 11.5036 11.6256C11.4676 12.0916 11.4916 12.5633 11.4865 13.0666C11.4842 13.1458 11.4878 13.1912 11.4863 13.2784C11.4862 13.4601 11.4913 13.6 11.4905 13.7737C11.4884 13.853 11.4921 13.8985 11.4897 13.9791C11.5031 14.2313 11.5225 14.4484 11.5428 14.7111C11.5822 15.3283 11.6208 15.8998 11.654 16.496C11.6511 16.5372 11.6535 16.5538 11.6536 16.6126C11.8609 17.5696 12.0705 18.4845 12.2838 19.4366C12.4271 19.789 12.5669 20.1041 12.7209 20.4531C12.916 20.8318 13.0968 21.1767 13.2839 21.5531C13.3726 21.7003 13.4551 21.816 13.5499 21.9641C13.7145 22.1627 13.7843 22.3077 13.6013 22.534C13.3224 22.8786 13.0828 23.2629 12.7923 23.639C12.6035 23.5575 12.4491 23.4674 12.2921 23.345C12.138 23.1549 11.9865 22.997 11.8351 22.8392Z" fill="url(#paint7_linear_770_16205)"/>
<path d="M17.2443 25.3358C17.4672 25.5607 17.6901 25.7856 17.9396 26.0374C18.812 25.1035 19.6728 24.1831 20.5324 23.2614C21.3726 22.3605 22.2101 21.4566 23.0531 20.559C23.1439 20.4624 23.2639 20.3993 23.3998 20.3333C23.7971 20.7809 24.1649 21.2159 24.4909 21.6015C23.8737 22.3156 23.2597 23.026 22.6337 23.7665C21.2033 25.3069 19.7867 26.8192 18.363 28.3234C18.2465 28.4465 18.0822 28.5146 17.9124 28.5975C16.8525 27.6345 15.8203 26.6823 14.7575 25.7245C14.3923 25.3358 14.0576 24.9529 13.6985 24.5418C14.0525 24.0834 14.4227 23.6039 14.8177 23.0924C15.0724 23.3316 15.3105 23.5552 15.5949 23.818C16.1756 24.3501 16.7099 24.843 17.2443 25.3358Z" fill="url(#paint8_linear_770_16205)"/>
</g>
<path d="M20.0818 20.9138H15.734V19.8586L17.9543 17.3386C18.4498 16.7581 18.6976 16.2801 18.6976 15.9045C18.6976 15.6245 18.617 15.3991 18.456 15.2284C18.3012 15.0577 18.0999 14.9723 17.8521 14.9723C17.3567 14.9723 16.9943 15.2523 16.7652 15.8123L15.6875 15.1157C15.8857 14.6308 16.1737 14.2586 16.5515 13.9991C16.9355 13.7328 17.3629 13.5996 17.8336 13.5996C18.422 13.5996 18.9267 13.8045 19.3479 14.2142C19.769 14.6172 19.9796 15.1635 19.9796 15.8533C19.9796 16.5977 19.6235 17.3625 18.9112 18.1479L17.6385 19.5513H20.0818V20.9138Z" fill="url(#paint9_linear_770_16205)"/>
<defs>
<linearGradient id="paint0_linear_770_16205" x1="17.9984" y1="33.3969" x2="17.9984" y2="1.82714" gradientUnits="userSpaceOnUse">
<stop stop-color="#DBA73E"/>
<stop offset="0.16" stop-color="#D89D3A"/>
<stop offset="0.3" stop-color="#A46B28"/>
<stop offset="0.46" stop-color="#8E5723"/>
<stop offset="0.49" stop-color="#F4F3B8"/>
<stop offset="0.56" stop-color="#F7ED9A"/>
<stop offset="0.69" stop-color="#D5B767"/>
<stop offset="0.75" stop-color="#A76F29"/>
<stop offset="0.85" stop-color="#D0AB5B"/>
<stop offset="1" stop-color="#E0C77D"/>
</linearGradient>
<linearGradient id="paint1_linear_770_16205" x1="17.9994" y1="35.2448" x2="17.9994" y2="-0.268234" gradientUnits="userSpaceOnUse">
<stop stop-color="#DBA73E"/>
<stop offset="0.16" stop-color="#D89D3A"/>
<stop offset="0.3" stop-color="#A46B28"/>
<stop offset="0.49" stop-color="#8E5723"/>
<stop offset="0.54" stop-color="#F4F3B8"/>
<stop offset="0.56" stop-color="#F7ED9A"/>
<stop offset="0.69" stop-color="#D5B767"/>
<stop offset="0.75" stop-color="#A76F29"/>
<stop offset="0.85" stop-color="#D0AB5B"/>
<stop offset="1" stop-color="#E0C77D"/>
</linearGradient>
<linearGradient id="paint2_linear_770_16205" x1="28.2544" y1="30.1211" x2="10.4356" y2="3.05047" gradientUnits="userSpaceOnUse">
<stop stop-color="#482A0F"/>
<stop offset="0.1" stop-color="#A77129"/>
<stop offset="0.15" stop-color="white"/>
<stop offset="0.22" stop-color="#DA9E41"/>
<stop offset="0.34" stop-color="#8E5923"/>
<stop offset="0.5" stop-color="#D8A64D"/>
<stop offset="0.66" stop-color="#F5E380"/>
<stop offset="0.72" stop-color="#DAC164"/>
<stop offset="0.77" stop-color="white"/>
<stop offset="0.83" stop-color="#A0752B"/>
<stop offset="1" stop-color="#664219"/>
</linearGradient>
<radialGradient id="paint3_radial_770_16205" cx="0" cy="0" r="1" gradientUnits="userSpaceOnUse" gradientTransform="translate(17.9975 18.5002) scale(19.2189 21.0539)">
<stop stop-color="#493211"/>
<stop offset="0.4" stop-color="#241909"/>
<stop offset="0.78" stop-color="#0A0604"/>
<stop offset="1" stop-color="#000002"/>
</radialGradient>
<radialGradient id="paint4_radial_770_16205" cx="0" cy="0" r="1" gradientUnits="userSpaceOnUse" gradientTransform="translate(18.2635 21.4994) scale(22.2945 24.4232)">
<stop stop-color="#937551"/>
<stop offset="1" stop-color="#393939"/>
</radialGradient>
<linearGradient id="paint5_linear_770_16205" x1="38.6995" y1="30.5108" x2="-5.05381" y2="13.6936" gradientUnits="userSpaceOnUse">
<stop stop-color="#482A0F"/>
<stop offset="0.1" stop-color="#A77129"/>
<stop offset="0.15" stop-color="white"/>
<stop offset="0.22" stop-color="#DA9E41"/>
<stop offset="0.34" stop-color="#8E5923"/>
<stop offset="0.5" stop-color="#D8A64D"/>
<stop offset="0.66" stop-color="#F5E380"/>
<stop offset="0.72" stop-color="#DAC164"/>
<stop offset="0.77" stop-color="white"/>
<stop offset="0.83" stop-color="#A0752B"/>
<stop offset="1" stop-color="#664219"/>
</linearGradient>
<linearGradient id="paint6_linear_770_16205" x1="38.6995" y1="30.5108" x2="-5.05381" y2="13.6936" gradientUnits="userSpaceOnUse">
<stop stop-color="#482A0F"/>
<stop offset="0.1" stop-color="#A77129"/>
<stop offset="0.15" stop-color="white"/>
<stop offset="0.22" stop-color="#DA9E41"/>
<stop offset="0.34" stop-color="#8E5923"/>
<stop offset="0.5" stop-color="#D8A64D"/>
<stop offset="0.66" stop-color="#F5E380"/>
<stop offset="0.72" stop-color="#DAC164"/>
<stop offset="0.77" stop-color="white"/>
<stop offset="0.83" stop-color="#A0752B"/>
<stop offset="1" stop-color="#664219"/>
</linearGradient>
<linearGradient id="paint7_linear_770_16205" x1="38.6995" y1="30.5108" x2="-5.05381" y2="13.6936" gradientUnits="userSpaceOnUse">
<stop stop-color="#482A0F"/>
<stop offset="0.1" stop-color="#A77129"/>
<stop offset="0.15" stop-color="white"/>
<stop offset="0.22" stop-color="#DA9E41"/>
<stop offset="0.34" stop-color="#8E5923"/>
<stop offset="0.5" stop-color="#D8A64D"/>
<stop offset="0.66" stop-color="#F5E380"/>
<stop offset="0.72" stop-color="#DAC164"/>
<stop offset="0.77" stop-color="white"/>
<stop offset="0.83" stop-color="#A0752B"/>
<stop offset="1" stop-color="#664219"/>
</linearGradient>
<linearGradient id="paint8_linear_770_16205" x1="38.6995" y1="30.5108" x2="-5.05381" y2="13.6936" gradientUnits="userSpaceOnUse">
<stop stop-color="#482A0F"/>
<stop offset="0.1" stop-color="#A77129"/>
<stop offset="0.15" stop-color="white"/>
<stop offset="0.22" stop-color="#DA9E41"/>
<stop offset="0.34" stop-color="#8E5923"/>
<stop offset="0.5" stop-color="#D8A64D"/>
<stop offset="0.66" stop-color="#F5E380"/>
<stop offset="0.72" stop-color="#DAC164"/>
<stop offset="0.77" stop-color="white"/>
<stop offset="0.83" stop-color="#A0752B"/>
<stop offset="1" stop-color="#664219"/>
</linearGradient>
<linearGradient id="paint9_linear_770_16205" x1="25.2959" y1="32.0146" x2="8.23108" y2="29.7171" gradientUnits="userSpaceOnUse">
<stop stop-color="#482A0F"/>
<stop offset="0.1" stop-color="#A77129"/>
<stop offset="0.15" stop-color="white"/>
<stop offset="0.22" stop-color="#DA9E41"/>
<stop offset="0.34" stop-color="#8E5923"/>
<stop offset="0.5" stop-color="#D8A64D"/>
<stop offset="0.66" stop-color="#F5E380"/>
<stop offset="0.72" stop-color="#DAC164"/>
<stop offset="0.77" stop-color="white"/>
<stop offset="0.83" stop-color="#A0752B"/>
<stop offset="1" stop-color="#664219"/>
</linearGradient>
<clipPath id="clip0_770_16205">
<rect width="8.15573" height="22.1951" fill="white" transform="translate(9.67773 6.40234)"/>
</clipPath>
<clipPath id="clip1_770_16205">
<rect width="8.84983" height="22.1951" fill="white" transform="matrix(-1 0 0 1 26.6836 6.40234)"/>
</clipPath>
</defs>
</svg>
