<svg width="36" height="35" viewBox="0 0 36 35" fill="none" xmlns="http://www.w3.org/2000/svg">
<path fill-rule="evenodd" clip-rule="evenodd" d="M20.2096 33.3513C20.1015 33.3979 20.0019 33.4226 19.9114 33.4336C20.001 33.4226 20.1041 33.4208 20.2188 33.4409C20.5212 33.462 21.3933 34.3777 21.4285 34.5662C21.2509 34.4482 21.2006 34.2753 20.8915 34.257C20.6846 34.2451 20.4081 34.2442 20.1995 34.2314C19.5981 34.1929 19.7413 33.623 19.3116 33.5827L19.2999 33.5233L19.5151 33.5379C19.5771 33.5306 19.7128 33.4583 19.9114 33.4345C19.7137 33.4601 19.5662 33.4217 19.5043 33.4309L19.2973 33.4976V33.4373C19.707 33.2909 19.449 32.7721 20.027 32.5855C20.2272 32.5206 20.4969 32.4519 20.6955 32.3888C20.9928 32.2946 21.0063 32.1143 21.1537 31.9552C21.1595 32.1482 20.5003 33.2552 20.2096 33.3513ZM18.1983 33.2396C18.3826 33.2396 18.5317 33.4025 18.5317 33.6028C18.5317 33.8032 18.3826 33.966 18.1983 33.966C18.014 33.966 17.8657 33.8032 17.8657 33.6028C17.8657 33.4025 18.0148 33.2396 18.1983 33.2396ZM22.7487 6.31031C23.0997 6.44205 23.3661 6.34417 23.4574 6.35057L23.6668 6.40729L23.6651 6.34782C23.2488 6.2234 23.4833 5.69186 22.8969 5.53633C22.6942 5.48235 22.422 5.42746 22.2201 5.37531C21.9185 5.29755 21.8976 5.11823 21.7426 4.96637C21.7451 5.1594 22.4538 6.2289 22.7487 6.30941V6.31031ZM13.6378 6.31672C13.2868 6.44938 13.0205 6.35057 12.9291 6.35789L12.7197 6.41461L12.7214 6.35423C13.1377 6.23073 12.904 5.69735 13.4896 5.54274C13.6923 5.48876 13.9654 5.43479 14.1664 5.38172C14.4672 5.30304 14.4889 5.12463 14.6439 4.97277C14.6406 5.16489 13.9327 6.23621 13.6378 6.31672ZM14.5694 33.0704C14.6858 33.0667 14.7872 33.0823 14.8751 33.1061C14.7872 33.0823 14.69 33.0448 14.5886 32.9835C14.3113 32.8499 13.7828 31.6606 13.8104 31.4703C13.9394 31.6487 13.9319 31.8289 14.2159 31.9625C14.406 32.0521 14.6657 32.1573 14.8567 32.2488C15.4096 32.5123 15.0946 32.9917 15.485 33.1921L15.4774 33.2515L15.2797 33.1564C15.2194 33.1399 15.0686 33.1564 14.8751 33.1052C15.0686 33.1555 15.1951 33.246 15.2554 33.2616L15.4716 33.2771L15.4531 33.3339C15.0217 33.3156 15.0988 33.9002 14.4973 33.8563C14.2896 33.8407 14.014 33.8032 13.8079 33.7877C13.4996 33.7639 13.4301 33.9276 13.2399 34.0219C13.2961 33.8389 14.2653 33.0494 14.5685 33.0695L14.5694 33.0704ZM13.0171 32.4647C12.7189 32.4025 11.6667 33.053 11.5897 33.2268C11.7882 33.16 11.8762 33.0073 12.1794 33.0731C12.3821 33.117 12.651 33.1921 12.8554 33.236C13.4468 33.3613 13.4376 32.7712 13.8632 32.8481L13.8883 32.795L13.6764 32.7502C13.6194 32.7273 13.508 32.6239 13.3287 32.5471C13.5088 32.6203 13.6546 32.6239 13.7116 32.6486L13.8967 32.7694L13.9109 32.7118C13.5465 32.4593 13.9143 32.0265 13.3966 31.6889C13.2173 31.5727 12.9719 31.4319 12.7934 31.3166C12.5271 31.1455 12.5547 30.9671 12.4483 30.7722C12.3989 30.9579 12.7859 32.2086 13.0456 32.3806C13.1394 32.4547 13.2316 32.5059 13.3162 32.5416C13.2316 32.5059 13.1319 32.4766 13.0163 32.4647H13.0171ZM11.5469 31.6505C11.66 31.6789 11.7555 31.7209 11.8351 31.7676C11.3727 31.4959 11.0477 30.2233 11.1784 29.8939C11.2621 30.1016 11.2144 30.2745 11.459 30.4813C11.6223 30.6204 11.8502 30.7933 12.0144 30.9332C12.4885 31.3385 12.0747 31.7182 12.4064 32.0183L12.3855 32.0732L12.2163 31.9277C12.161 31.8948 12.0119 31.8701 11.8359 31.7676C12.0119 31.8701 12.1141 31.9918 12.1693 32.0238L12.3746 32.097L12.3444 32.1464C11.9314 32.011 11.872 32.5983 11.2998 32.3925C11.1021 32.322 10.8441 32.2104 10.6481 32.139C10.3549 32.032 10.2502 32.1711 10.0449 32.2104C10.1413 32.0476 11.2596 31.548 11.5486 31.6496L11.5469 31.6505ZM10.1815 30.6405C9.90672 30.4996 8.73897 30.8427 8.62504 30.99C8.83279 30.979 8.95258 30.8546 9.23154 31.0019C9.41751 31.0997 9.66128 31.2452 9.84892 31.3431C10.3934 31.6267 10.5191 31.0522 10.9136 31.2425L10.9497 31.1976L10.7545 31.097C10.7034 31.0577 10.6171 30.9241 10.4563 30.7988C10.6179 30.9232 10.762 30.968 10.8123 31.0083L10.9639 31.1766L10.9915 31.1245C10.6967 30.7805 11.1515 30.4612 10.7268 29.9937C10.5802 29.8317 10.3742 29.6286 10.2276 29.4694C10.0081 29.2297 10.0768 29.066 10.0173 28.8482C9.92767 29.0138 10.0165 30.3303 10.2284 30.5673C10.3013 30.6652 10.3775 30.7384 10.4512 30.7951C10.3775 30.7384 10.2887 30.6844 10.1806 30.6405H10.1815ZM8.94336 29.4511C9.0464 29.5097 9.12933 29.5765 9.19635 29.6433C9.12933 29.5765 9.06148 29.4923 8.99949 29.3853C8.81604 29.1218 8.8797 27.8025 8.98776 27.6507C9.02127 27.8748 8.93499 28.0285 9.12515 28.2957C9.25164 28.475 9.43258 28.7037 9.55991 28.8848C9.92682 29.4063 9.43929 29.6607 9.69143 30.0431L9.65876 30.0906L9.52809 29.9031C9.48285 29.8564 9.34295 29.7924 9.19719 29.6442C9.34379 29.7915 9.41416 29.9369 9.46107 29.9827L9.64368 30.1099L9.60263 30.1501C9.23321 29.9068 9.04305 30.4593 8.5354 30.1035C8.36032 29.9799 8.13582 29.8025 7.96158 29.6799C7.70189 29.496 7.5687 29.6021 7.36095 29.5847C7.49079 29.4539 8.6887 29.2737 8.94504 29.4521L8.94336 29.4511ZM7.85269 28.1008C7.94818 28.1731 8.0219 28.2508 8.08054 28.3258C8.02274 28.2508 7.9641 28.1575 7.91551 28.0432C7.76389 27.7559 7.97834 26.4559 8.10316 26.3195C8.1107 26.5464 8.00766 26.6873 8.16431 26.9782C8.26986 27.1731 8.42316 27.4256 8.52787 27.6214C8.83195 28.1905 8.31844 28.3753 8.52535 28.7888L8.48682 28.8318L8.37875 28.6278C8.33854 28.5756 8.20787 28.4924 8.0797 28.3258C8.20871 28.4924 8.26148 28.6461 8.30253 28.6982L8.46839 28.8492L8.42316 28.883C8.08472 28.5912 7.83174 29.1126 7.36933 28.69C7.20933 28.5445 7.00744 28.3368 6.84911 28.1914C6.61288 27.9736 6.46796 28.0615 6.2644 28.0148C6.40848 27.9032 7.61729 27.8895 7.85185 28.1008H7.85269ZM6.92535 26.6123C7.01163 26.6965 7.07613 26.7843 7.12556 26.8666C7.23362 27.0496 7.35341 27.1493 7.38692 27.207L7.47153 27.4247L7.51509 27.3872C7.35677 26.949 7.88703 26.8355 7.65164 26.2299C7.56954 26.0204 7.4464 25.7496 7.36514 25.5419C7.242 25.2317 7.36095 25.1064 7.37938 24.8795C7.23949 24.9975 6.87676 26.2573 6.99487 26.5629C7.03006 26.6837 7.07697 26.7843 7.1264 26.8666C7.2353 27.0487 7.27048 27.2097 7.30483 27.2664L7.45226 27.4384L7.40283 27.4659C7.10042 27.1292 6.78964 27.6122 6.38 27.1301C6.23843 26.9636 6.06084 26.7303 5.92094 26.5629C5.71152 26.315 5.55822 26.3817 5.36136 26.3086C5.51717 26.2171 6.7176 26.3698 6.92618 26.6114L6.92535 26.6123ZM6.17645 25.0076C6.42022 25.3132 6.43613 25.6197 6.47718 25.7093L6.60367 25.9005L6.55174 25.9207C6.29037 25.5465 5.92681 25.9829 5.57497 25.4477C5.45351 25.2629 5.30439 25.0067 5.18544 24.8228C5.00617 24.5474 4.84617 24.5923 4.65936 24.4925C4.82439 24.4239 5.99885 24.7395 6.17645 25.0076ZM6.25099 24.9683C6.16974 24.649 6.67404 23.4487 6.8265 23.3508C6.78294 23.5731 6.64974 23.681 6.73603 24.0058C6.79383 24.2236 6.8843 24.5099 6.94127 24.7286C7.10629 25.3617 6.56597 25.401 6.6732 25.8575L6.62545 25.8886L6.56765 25.6617C6.52911 25.5721 6.31885 25.3681 6.25183 24.9683H6.25099ZM5.61854 23.3133C5.47278 23.0223 4.34439 22.5484 4.17266 22.5942C4.34607 22.7186 4.51026 22.6957 4.65602 22.9931C4.75403 23.1934 4.87131 23.467 4.97099 23.6664C5.25833 24.2455 5.66963 23.8631 5.88576 24.2702L5.93937 24.2574L5.83634 24.0497C5.81623 23.9857 5.81875 23.8201 5.75508 23.6142C5.81791 23.8201 5.91089 23.95 5.93016 24.0159L5.96199 24.2492L6.01309 24.2245C5.95948 23.757 6.49979 23.7917 6.40932 23.1413C6.37832 22.9162 6.32053 22.6207 6.2887 22.3966C6.24095 22.0626 6.38503 21.973 6.45456 21.7589C6.29288 21.8348 5.65371 22.9555 5.69727 23.284C5.70398 23.4102 5.7266 23.52 5.75508 23.6142C5.72576 23.5209 5.68304 23.4185 5.61937 23.3133H5.61854ZM5.26 21.5558C5.31193 21.6692 5.3421 21.7763 5.36053 21.8732C5.34294 21.7763 5.33287 21.6647 5.34125 21.5375C5.33539 21.2054 6.09854 20.1816 6.26775 20.1277C6.17393 20.3308 6.02147 20.3994 6.03069 20.7379C6.03655 20.9639 6.05916 21.2658 6.06419 21.4936C6.07927 22.1514 5.54733 22.0434 5.54649 22.5137L5.49372 22.531L5.48869 22.295C5.47696 22.2273 5.3999 22.0864 5.36053 21.8732C5.3999 22.0864 5.37812 22.2493 5.39152 22.317L5.47026 22.5356L5.41497 22.542C5.24743 22.1074 4.79507 22.4313 4.57727 21.8174C4.50188 21.6052 4.41644 21.317 4.34272 21.1066C4.23214 20.791 4.06711 20.7919 3.90879 20.6437C4.08387 20.6217 5.14942 21.2475 5.26084 21.5558H5.26ZM5.1067 19.7626C5.03131 19.4415 4.04785 18.6739 3.87109 18.6721C4.01099 18.8404 4.17518 18.8633 4.24806 19.1917C4.29748 19.4113 4.34858 19.7087 4.39884 19.9291C4.5446 20.5686 5.03047 20.3097 5.14607 20.7635H5.20136L5.14859 20.5366C5.14356 20.468 5.18377 20.3097 5.16953 20.0929C5.16283 19.9941 5.16618 19.8816 5.18879 19.7571C5.22147 19.4278 6.09603 18.5157 6.27027 18.4855C6.15383 18.6739 5.99466 18.7215 5.96451 19.0582C5.9444 19.2832 5.93183 19.5861 5.91089 19.812C5.84974 20.4671 5.33455 20.2869 5.27926 20.7534L5.22481 20.7635L5.24743 20.5284C5.24324 20.4598 5.18293 20.3097 5.16869 20.092C5.16199 19.9932 5.1444 19.8825 5.10586 19.7626H5.1067ZM5.16115 17.9631C5.12346 17.6346 4.23549 16.7381 4.06041 16.7115C4.18021 16.8982 4.33937 16.9421 4.37455 17.2778C4.39801 17.502 4.41475 17.8048 4.43989 18.0308C4.51109 18.684 5.02293 18.4946 5.08576 18.9603L5.14021 18.9703L5.11424 18.7361C5.11675 18.6675 5.17539 18.5147 5.18544 18.2979C5.19047 18.1991 5.20639 18.0875 5.24325 17.9676C5.31361 17.6447 6.28618 16.8606 6.4621 16.8552C6.32555 17.0262 6.16137 17.0509 6.09268 17.3803C6.0466 17.6008 6.00053 17.899 5.95278 18.1204C5.81707 18.7618 5.32701 18.512 5.21811 18.9676L5.16282 18.9703L5.21225 18.7407C5.21644 18.673 5.17287 18.5138 5.1846 18.297C5.18963 18.1982 5.18461 18.0857 5.16032 17.9622L5.16115 17.9631ZM5.42252 16.1846C5.42252 15.8534 4.64512 14.8424 4.47423 14.7921C4.57141 14.9934 4.72471 15.0593 4.72136 15.3978C4.71885 15.6228 4.70042 15.9247 4.69874 16.1535C4.69372 16.8122 5.22398 16.6941 5.23236 17.1653L5.28513 17.1818V16.9466C5.29686 16.8789 5.37225 16.7362 5.40743 16.5221C5.42419 16.4252 5.45267 16.3172 5.50293 16.2028C5.60932 15.8927 6.66482 15.2477 6.84074 15.266C6.68493 15.417 6.5199 15.4197 6.41351 15.7372C6.34231 15.9494 6.26189 16.2395 6.18984 16.4526C5.98126 17.0702 5.52387 16.7545 5.36303 17.1927L5.30858 17.1882L5.38398 16.9668C5.3957 16.9 5.37141 16.7371 5.40743 16.5231C5.42335 16.4261 5.43173 16.3136 5.42168 16.1873L5.42252 16.1846ZM5.88576 14.4564C5.88157 14.5835 5.86063 14.6933 5.83298 14.7875C5.77267 14.9943 5.7777 15.1599 5.75844 15.2249L5.65791 15.4334L5.71152 15.4463C5.92178 15.0346 6.33896 15.4097 6.61624 14.826C6.71258 14.6238 6.8265 14.3475 6.92033 14.1471C7.0619 13.8461 7.22692 13.8663 7.39781 13.7391C7.22608 13.6961 6.1044 14.191 5.96283 14.4847C5.9 14.5908 5.85896 14.6942 5.83131 14.7885C5.771 14.9952 5.68053 15.127 5.6621 15.1928L5.63361 15.4261L5.58251 15.4023C5.62858 14.9339 5.08911 14.9788 5.16953 14.3265C5.19717 14.1005 5.24994 13.8031 5.27842 13.579C5.32115 13.2442 5.17623 13.1581 5.10335 12.945C5.2667 13.0182 5.92262 14.1279 5.88325 14.4573L5.88576 14.4564ZM6.54419 12.8059C6.52576 12.9313 6.49226 13.0374 6.45456 13.127C6.37079 13.3237 6.35655 13.4893 6.32974 13.5506L6.2066 13.7446L6.25854 13.7638C6.51404 13.3841 6.8843 13.8141 7.22775 13.2725C7.34671 13.085 7.4908 12.827 7.60807 12.6403C7.78315 12.3613 7.94399 12.4043 8.12912 12.3009C7.96326 12.235 6.79466 12.5717 6.62042 12.8434C6.54587 12.9404 6.49309 13.0374 6.4554 13.127C6.37163 13.3247 6.26608 13.4427 6.24011 13.5049L6.18482 13.7327L6.13707 13.7025C6.23675 13.2441 5.69644 13.214 5.85142 12.5781C5.90503 12.3585 5.99131 12.0704 6.04576 11.8526C6.12702 11.526 5.99299 11.4199 5.94524 11.1985C6.09938 11.2936 6.62126 12.4848 6.54503 12.8059H6.54419ZM7.38776 11.2589C7.50085 10.9515 7.11885 9.69809 6.97728 9.58282C6.99906 9.80879 7.1197 9.9323 7.00242 10.2452C6.92367 10.4538 6.80472 10.7273 6.72597 10.9387C6.49896 11.548 7.03089 11.6523 6.88011 12.0932L6.92367 12.1298L7.0041 11.9112C7.03677 11.8526 7.15488 11.7502 7.26043 11.5654C7.30818 11.4812 7.37184 11.3924 7.45728 11.3064C7.66085 11.0603 8.85959 10.8874 9.01708 10.9753C8.82106 11.0521 8.66692 10.989 8.46085 11.2415C8.32346 11.4107 8.15006 11.6468 8.011 11.816C7.60807 12.3055 7.28975 11.8288 6.99237 12.1701L6.94293 12.1426L7.08787 11.9679C7.12137 11.9103 7.15404 11.7502 7.25959 11.5654C7.30734 11.4812 7.35257 11.3806 7.38608 11.2589H7.38776ZM8.40305 9.83899C8.55049 9.54989 8.31593 8.25442 8.18859 8.11993C8.18441 8.34774 8.28996 8.48588 8.13666 8.78047C8.03446 8.97717 7.88451 9.23151 7.78315 9.43004C7.48828 10.0037 8.0043 10.1802 7.80325 10.5965L7.84262 10.6404L7.94734 10.4346C7.98671 10.3815 8.11572 10.2955 8.24137 10.1263C8.11572 10.2955 8.06462 10.451 8.02441 10.5032L7.86106 10.6578L7.90713 10.6907C8.24137 10.3925 8.5019 10.9094 8.95761 10.4785C9.1151 10.3294 9.31447 10.1189 9.47028 9.96981C9.704 9.74749 9.84892 9.83258 10.0525 9.78318C9.90672 9.6734 8.69792 9.68254 8.46756 9.89662C8.3729 9.97073 8.30001 10.0503 8.24221 10.1263C8.30001 10.0503 8.35614 9.95518 8.40305 9.8399V9.83899ZM9.57332 8.57097C9.75258 8.30383 9.66882 6.9864 9.55908 6.83636C9.52892 7.06051 9.61688 7.2133 9.43175 7.48319C9.30777 7.66433 9.13017 7.89671 9.00619 8.07969C8.64682 8.60848 9.13939 8.85366 8.89143 9.23974L8.92578 9.28732L9.05395 9.09794C9.09918 9.05037 9.23657 8.98358 9.38149 8.83354C9.23741 8.98267 9.16871 9.12996 9.12263 9.17754L8.94253 9.30652L8.98441 9.34678C9.34965 9.09702 9.54903 9.64595 10.0508 9.28092C10.2242 9.15466 10.4462 8.97352 10.6179 8.84727C10.8751 8.6588 11.01 8.7631 11.2169 8.74205C11.0854 8.61306 9.88495 8.4557 9.63112 8.63684C9.52892 8.69631 9.44767 8.76493 9.38149 8.83446C9.44683 8.76584 9.51468 8.68076 9.57415 8.57189L9.57332 8.57097ZM10.8801 7.47312C11.0887 7.23251 11.1574 5.91417 11.0653 5.75041C11.0091 5.96906 11.0795 6.13192 10.8642 6.37527C10.7201 6.53812 10.5174 6.74396 10.3733 6.90864C9.95615 7.38346 10.4152 7.69452 10.1262 8.044L10.1547 8.09523L10.3038 7.92507C10.3541 7.8839 10.499 7.83632 10.659 7.70641C10.7319 7.64786 10.8207 7.59113 10.9287 7.54539C11.201 7.39901 12.3738 7.72105 12.4902 7.86651C12.2824 7.85919 12.1601 7.7366 11.8837 7.88938C11.6986 7.99094 11.4581 8.14099 11.2713 8.24254C10.731 8.5353 10.597 7.96258 10.2058 8.16111L10.1689 8.11628L10.3624 8.01199C10.4127 7.97265 10.4981 7.83541 10.6581 7.70641C10.731 7.64786 10.8072 7.57284 10.8793 7.47312H10.8801ZM12.3026 6.56373C12.5379 6.35423 12.7574 5.05511 12.6845 4.87946C12.6041 5.08896 12.6544 5.26004 12.4131 5.47229C12.2514 5.61318 12.0269 5.78975 11.8644 5.9343C11.3962 6.34874 11.8158 6.72018 11.4883 7.02666L11.5101 7.08247L11.6776 6.93335C11.7321 6.8995 11.8812 6.87205 12.0554 6.76684C11.8812 6.87205 11.7815 6.99648 11.7262 7.02941L11.5218 7.10626L11.5528 7.15566C11.9641 7.01294 12.032 7.59938 12.6008 7.38255C12.7976 7.30845 13.054 7.19226 13.2491 7.11632C13.5407 7.00471 13.6479 7.14194 13.8531 7.17762C13.7551 7.01752 12.6284 6.5372 12.3411 6.64424C12.228 6.67443 12.1333 6.71834 12.0546 6.76775C12.1333 6.71926 12.2179 6.65522 12.3009 6.56648L12.3026 6.56373ZM16.1677 33.4482C15.8653 33.4684 14.9932 34.3841 14.9589 34.5735C15.1365 34.4546 15.1868 34.2826 15.4959 34.2643C15.7028 34.2524 15.9801 34.2515 16.1878 34.2378C16.7893 34.1993 16.646 33.6303 17.0758 33.5891L17.0875 33.5306L16.8722 33.5443C16.8102 33.537 16.6745 33.4647 16.476 33.4409C16.6745 33.4665 16.8211 33.429 16.8831 33.4373L17.09 33.5049V33.4446C16.6804 33.2982 16.9384 32.7795 16.3604 32.5937C16.1602 32.5297 15.8904 32.4602 15.6919 32.397C15.3945 32.3028 15.3811 32.1235 15.2337 31.9643C15.2278 32.1564 15.8871 33.2634 16.1777 33.3595C16.2858 33.4061 16.3855 33.4318 16.476 33.4427C16.3863 33.4318 16.2833 33.4299 16.1685 33.4501L16.1677 33.4482ZM21.818 33.0649C21.7032 33.0612 21.6019 33.0759 21.5147 33.0997C21.6019 33.0759 21.6982 33.0384 21.7987 32.978C22.076 32.8435 22.6046 31.6551 22.5761 31.4657C22.4471 31.6441 22.4546 31.8243 22.1707 31.9579C21.9805 32.0476 21.7208 32.1528 21.5298 32.2433C20.9778 32.5077 21.2927 32.9871 20.9024 33.1875L20.9099 33.247L21.1076 33.1518C21.1679 33.1344 21.317 33.1518 21.5089 33.1006C21.317 33.1518 21.1922 33.2415 21.1311 33.257L20.9158 33.2726L20.9342 33.3293C21.3656 33.3119 21.2886 33.8956 21.89 33.8517C22.0978 33.8361 22.3734 33.7986 22.5795 33.7831C22.8877 33.7593 22.9573 33.9221 23.1474 34.0173C23.0913 33.8343 22.1221 33.0448 21.8188 33.0649H21.818ZM23.3711 32.4583C23.6693 32.397 24.7223 33.0475 24.7985 33.2213C24.6 33.1546 24.512 33.0018 24.2088 33.0676C24.0061 33.1125 23.7372 33.1866 23.5328 33.2305C22.9413 33.3567 22.9506 32.7657 22.525 32.8435L22.4999 32.7886L22.7118 32.7447C22.7696 32.7218 22.8802 32.6184 23.0595 32.5416C22.8785 32.6148 22.7336 32.6184 22.6766 32.6431L22.4915 32.7648L22.4773 32.7063C22.8408 32.4538 22.4739 32.021 22.9916 31.6834C23.1709 31.5673 23.4163 31.4264 23.5947 31.312C23.8611 31.14 23.8327 30.9616 23.9399 30.7677C23.9893 30.9534 23.6023 32.204 23.3426 32.3751C23.2488 32.451 23.1566 32.5013 23.072 32.5361C23.1566 32.5013 23.2563 32.4721 23.3719 32.4593L23.3711 32.4583ZM24.8412 31.6441C24.7282 31.6725 24.6327 31.7145 24.5531 31.7621C24.6335 31.7145 24.7181 31.6514 24.8027 31.5645C25.0406 31.3587 25.2802 30.065 25.2107 29.8875C25.1269 30.0961 25.1755 30.2681 24.93 30.4758C24.7667 30.6139 24.5388 30.7869 24.3747 30.9268C23.9005 31.3321 24.3143 31.7118 23.9826 32.0119L24.0035 32.0677L24.1728 31.9213C24.2281 31.8893 24.3772 31.8637 24.5522 31.7621C24.3763 31.8646 24.275 31.9863 24.2197 32.0174L24.0144 32.0906L24.0454 32.1409C24.4593 32.0055 24.5179 32.5928 25.09 32.387C25.2877 32.3156 25.5458 32.2049 25.7418 32.1326C26.035 32.0256 26.1397 32.1647 26.3449 32.204C26.2494 32.0421 25.1303 31.5416 24.8412 31.6432V31.6441ZM26.2059 30.6341C26.4806 30.4932 27.6484 30.8363 27.7623 30.9836C27.5546 30.9726 27.4348 30.8482 27.1558 30.9955C26.969 31.0933 26.7261 31.2388 26.5384 31.3367C25.9939 31.6194 25.8683 31.0449 25.4737 31.2361L25.4377 31.1894L25.6329 31.0888C25.6848 31.0494 25.7711 30.9149 25.9336 30.7887C25.7711 30.9149 25.6253 30.9598 25.5751 30.9991L25.4235 31.1675L25.3958 31.1153C25.6907 30.7722 25.2366 30.4529 25.6605 29.9845C25.8071 29.8226 26.0132 29.6204 26.1598 29.4612C26.3784 29.2224 26.3106 29.0568 26.37 28.84C26.4597 29.0056 26.37 30.323 26.1581 30.56C26.0844 30.6579 26.0073 30.732 25.9336 30.7896C26.0073 30.7329 26.097 30.6771 26.2059 30.6332V30.6341ZM27.444 29.4447C27.341 29.5033 27.258 29.5701 27.1918 29.6369C27.2589 29.5692 27.3259 29.485 27.3879 29.3789C27.5713 29.1145 27.5076 27.7952 27.3996 27.6434C27.3661 27.8675 27.4524 28.0221 27.2622 28.2893C27.1357 28.4686 26.9548 28.6973 26.8274 28.8775C26.4605 29.399 26.9489 29.6543 26.6951 30.0358L26.7286 30.0833L26.8593 29.8958C26.9053 29.8491 27.0444 29.7842 27.1902 29.6369C27.0436 29.7842 26.9724 29.9296 26.9263 29.9763L26.7437 30.1025L26.7847 30.1419C27.1541 29.8985 27.3451 30.452 27.8528 30.0961C28.0279 29.9726 28.2524 29.7951 28.4258 29.6716C28.6855 29.4887 28.8186 29.5948 29.0264 29.5765C28.8965 29.4466 27.6986 29.2663 27.4423 29.4438L27.444 29.4447ZM28.5347 28.0953C28.7684 27.884 29.978 27.8977 30.1213 28.0093C29.9177 28.056 29.7728 27.9681 29.5366 28.1859C29.3782 28.3323 29.1763 28.5381 29.0163 28.6845C28.5539 29.1072 28.3009 28.5848 27.9625 28.8766L27.9173 28.8428L28.0832 28.6918C28.1242 28.6396 28.177 28.486 28.306 28.3194C28.3646 28.2435 28.4224 28.1511 28.471 28.0358C28.6226 27.7486 28.4082 26.4485 28.2834 26.3131C28.2758 26.54 28.3789 26.6809 28.2222 26.9718C28.1167 27.1658 27.9634 27.4183 27.8586 27.6159C27.5546 28.184 28.0681 28.3688 27.8612 28.7824L27.8997 28.8254L28.0078 28.6214C28.048 28.5683 28.1778 28.485 28.3068 28.3194C28.3654 28.2435 28.4392 28.1658 28.5347 28.0935V28.0953ZM29.462 26.6068C29.3757 26.691 29.3112 26.7788 29.2618 26.8611C29.1537 27.0441 29.0339 27.1438 29.0004 27.2024L28.9158 27.4192L28.8723 27.3817C29.0306 26.9435 28.5003 26.8309 28.7366 26.2244C28.8178 26.0149 28.9418 25.7441 29.0231 25.5364C29.1454 25.2263 29.0272 25.1 29.0088 24.874C29.1487 24.992 29.5106 26.2518 29.3933 26.5574C29.3581 26.6791 29.3112 26.7788 29.2618 26.862C29.1529 27.0441 29.1185 27.2042 29.0834 27.2618L28.9359 27.4348L28.9845 27.4631C29.2869 27.1265 29.5977 27.6095 30.0082 27.1274C30.1498 26.9609 30.3265 26.7276 30.4664 26.5611C30.6758 26.3122 30.8291 26.379 31.026 26.3058C30.8702 26.2143 29.6698 26.3662 29.462 26.6086V26.6068ZM30.2109 25.0021C30.1347 25.0973 30.0802 25.1933 30.0417 25.2821C29.9554 25.4788 29.8473 25.594 29.8214 25.6562L29.7627 25.8841L29.7158 25.852C29.8222 25.3955 29.2827 25.3562 29.4478 24.7231C29.5039 24.5035 29.5952 24.2181 29.653 24.0012C29.7384 23.6765 29.6061 23.5676 29.5617 23.3462C29.7133 23.4441 30.2184 24.6435 30.1372 24.9637C30.1162 25.0881 30.0811 25.1942 30.0417 25.283C29.9546 25.4788 29.9387 25.6425 29.9102 25.7038L29.7837 25.895L29.8356 25.9161C30.097 25.541 30.4614 25.9774 30.8124 25.4422C30.9338 25.2574 31.083 25.0012 31.2027 24.8173C31.382 24.5419 31.542 24.5877 31.7288 24.487C31.5638 24.4175 30.3902 24.7331 30.2117 25.0021H30.2109ZM30.7688 23.3078C30.7043 23.413 30.6616 23.5154 30.6331 23.6088C30.5703 23.8146 30.4765 23.9445 30.4572 24.0104L30.4254 24.2437L30.3743 24.219C30.4279 23.7515 29.8876 23.7862 29.978 23.1358C30.009 22.9107 30.066 22.6143 30.0987 22.3911C30.1464 22.0571 30.0032 21.9675 29.9336 21.7534C30.0961 21.8302 30.7345 22.951 30.6909 23.2785C30.6842 23.4057 30.6616 23.5154 30.6331 23.6088C30.5694 23.8146 30.572 23.9793 30.5519 24.0442L30.4488 24.251L30.5024 24.2647C30.7185 23.8576 31.1299 24.24 31.4164 23.6609C31.5152 23.4605 31.6333 23.187 31.7313 22.9876C31.8771 22.6893 32.0413 22.7131 32.2147 22.5878C32.043 22.542 30.9146 23.0168 30.7688 23.3068V23.3078ZM31.1274 21.5503C31.0754 21.6637 31.0453 21.7699 31.0268 21.8678C31.0444 21.7699 31.0545 21.6582 31.0461 21.5329C31.052 21.2017 30.2888 20.1762 30.1196 20.1231C30.2134 20.3262 30.3659 20.3948 30.3567 20.7324C30.3508 20.9584 30.3282 21.2603 30.3232 21.4881C30.3081 22.1459 30.8392 22.0379 30.8409 22.5082L30.8936 22.5256L30.8987 22.2904C30.9104 22.2227 30.9874 22.0809 31.0268 21.8678C30.9874 22.0809 31.0092 22.2447 30.9967 22.3115L30.9179 22.531L30.9724 22.5365C31.1399 22.102 31.5923 22.4258 31.8101 21.8119C31.8855 21.5997 31.9709 21.3124 32.0446 21.1011C32.1552 20.7855 32.3202 20.7855 32.4786 20.6373C32.3035 20.6153 31.2388 21.2411 31.1265 21.5494L31.1274 21.5503ZM31.2806 19.7571C31.3552 19.436 32.3403 18.6684 32.5163 18.6666C32.3764 18.8349 32.213 18.8569 32.1393 19.1853C32.0899 19.4049 32.0388 19.7022 31.9885 19.9227C31.8428 20.5622 31.3569 20.3033 31.2413 20.7571L31.186 20.7589L31.2388 20.5302C31.2463 20.4305 31.1575 20.1396 31.2815 19.7571H31.2806ZM31.1977 19.7507C31.2698 20.1496 31.1441 20.4232 31.1391 20.5229L31.1617 20.758L31.1072 20.7479C31.052 20.2804 30.5368 20.4616 30.4756 19.8065C30.4547 19.5796 30.4421 19.2777 30.4228 19.0527C30.3927 18.716 30.2335 18.6684 30.1171 18.48C30.2913 18.5092 31.1659 19.4214 31.1986 19.7507H31.1977ZM31.2262 17.9576C31.2019 18.082 31.1969 18.1936 31.2019 18.2933C31.1969 18.1936 31.181 18.0829 31.1441 17.9631C31.0737 17.6401 30.1012 16.8561 29.9253 16.8506C30.0618 17.0217 30.226 17.0473 30.2947 17.3766C30.3407 17.5971 30.3877 17.8954 30.4346 18.1168C30.5703 18.7581 31.0603 18.5083 31.1692 18.9639L31.2245 18.9667L31.1751 18.7371C31.1709 18.6684 31.2136 18.5102 31.2027 18.2933C31.2145 18.5102 31.2723 18.6629 31.2748 18.7316L31.2488 18.9649L31.3033 18.9557C31.3661 18.4891 31.8779 18.6794 31.9491 18.0262C31.9743 17.8002 31.991 17.4974 32.0145 17.2733C32.0497 16.9375 32.2097 16.8927 32.3286 16.7069C32.1535 16.7335 31.2656 17.6291 31.2279 17.9576H31.2262ZM30.9648 16.18C30.9548 16.3062 30.9632 16.4188 30.9791 16.5157C31.0151 16.7298 30.9908 16.8927 31.0025 16.9604L31.0779 17.1818L31.0235 17.1863C30.8626 16.749 30.4053 17.0647 30.1967 16.4462C30.1246 16.233 30.0442 15.943 29.973 15.7308C29.8674 15.4133 29.7016 15.4106 29.5466 15.2605C29.7217 15.2413 30.7772 15.8863 30.8836 16.1964C30.9338 16.3108 30.9623 16.4188 30.9791 16.5157C31.0151 16.7298 31.0905 16.8725 31.1005 16.9402V17.1754L31.155 17.1589C31.1634 16.6877 31.6928 16.8058 31.6886 16.147C31.6869 15.9202 31.6693 15.6173 31.6668 15.3914C31.6626 15.0538 31.8168 14.9879 31.9131 14.7866C31.7422 14.8369 30.964 15.8479 30.9648 16.1791V16.18ZM30.5016 14.4518C30.5066 14.579 30.5276 14.6887 30.5544 14.7839C30.6147 14.9916 30.6096 15.1562 30.6289 15.2212L30.7294 15.4298L30.6758 15.4426C30.4664 15.0309 30.0492 15.406 29.7711 14.8214C29.6748 14.6201 29.5608 14.3438 29.4662 14.1426C29.3246 13.8416 29.1604 13.8626 28.9887 13.7336C29.1613 13.6915 30.2821 14.1856 30.4237 14.4792C30.4865 14.5863 30.5276 14.6887 30.5552 14.7839C30.6155 14.9916 30.706 15.1224 30.7253 15.1883L30.7529 15.4216L30.804 15.3987C30.7588 14.9303 31.2974 14.9742 31.217 14.3219C31.1893 14.0959 31.1366 13.7986 31.1081 13.5753C31.0654 13.2405 31.2094 13.1545 31.2832 12.9413C31.1198 13.0145 30.4639 14.1243 30.5024 14.4518H30.5016ZM29.8432 12.8014C29.7669 12.4811 30.2896 11.29 30.4429 11.1948C30.3952 11.4162 30.2612 11.5214 30.3424 11.848C30.3969 12.0667 30.4832 12.354 30.5368 12.5735C30.6917 13.2103 30.1514 13.2396 30.2511 13.6988L30.2034 13.729L30.1489 13.5003C30.1229 13.4381 30.0174 13.321 29.9336 13.1225C29.8959 13.0328 29.8432 12.9358 29.7686 12.8389C29.5944 12.5662 28.4258 12.2305 28.2591 12.2954C28.4442 12.3997 28.605 12.3567 28.7801 12.6358C28.8974 12.8224 29.0415 13.0804 29.1604 13.267C29.5039 13.8086 29.8741 13.3786 30.1296 13.7583L30.1816 13.7391L30.0584 13.5451C30.0316 13.4829 30.0174 13.3183 29.9336 13.1216C29.8959 13.0319 29.8624 12.9249 29.8432 12.8004V12.8014ZM28.9996 11.2534C28.8865 10.946 29.2685 9.69261 29.4101 9.57733C29.3883 9.80331 29.2677 9.92681 29.3849 10.2388C29.4637 10.4483 29.5826 10.7218 29.6605 10.9332C29.8876 11.5434 29.3556 11.6468 29.5064 12.0877L29.4628 12.1243L29.3816 11.9048C29.3489 11.8471 29.2308 11.7438 29.1252 11.559C29.0775 11.4757 29.0138 11.387 28.9284 11.301C28.7248 11.0558 27.5261 10.8819 27.3686 10.9698C27.5646 11.0466 27.7188 10.9826 27.9248 11.2351C28.0622 11.4043 28.2356 11.6404 28.3747 11.8105C28.7776 12.3 29.0951 11.8234 29.3925 12.1646L29.4419 12.1381L29.297 11.9633C29.2635 11.9057 29.2308 11.7447 29.1244 11.5599C29.0767 11.4757 29.0314 11.3751 28.9979 11.2534H28.9996ZM27.9843 9.83441C27.8369 9.54439 28.0714 8.24894 28.1987 8.11537C28.2029 8.34226 28.0974 8.48131 28.2507 8.77499C28.3529 8.97169 28.5028 9.22602 28.6042 9.42455C28.8991 9.99817 28.3839 10.1738 28.5841 10.591L28.5456 10.6331L28.44 10.4272C28.4006 10.3742 28.2716 10.2891 28.146 10.1198C28.2725 10.2882 28.3227 10.4437 28.3629 10.4959L28.5271 10.6496L28.4811 10.6825C28.1477 10.3842 27.8863 10.9021 27.4306 10.4703C27.2731 10.322 27.0737 10.1107 26.9179 9.96249C26.685 9.74018 26.5393 9.82435 26.3357 9.77495C26.4815 9.66608 27.6903 9.67431 27.9215 9.88931C28.0161 9.96341 28.089 10.0421 28.146 10.1189C28.089 10.043 28.032 9.94877 27.9851 9.83258L27.9843 9.83441ZM26.814 8.56548C26.6348 8.29833 26.7177 6.98092 26.8283 6.82996C26.8584 7.05502 26.7705 7.20689 26.9556 7.47861C27.0796 7.65975 27.2572 7.89213 27.3812 8.07419C27.7397 8.60299 27.248 8.84818 27.4951 9.23426L27.4616 9.28183L27.3334 9.09245C27.2882 9.04487 27.1499 8.97809 27.0059 8.82805C27.1499 8.97717 27.2186 9.12447 27.2647 9.17112L27.4448 9.30104L27.4038 9.34129C27.0377 9.09153 26.8392 9.64046 26.3365 9.27542C26.1631 9.14825 25.942 8.96711 25.7703 8.84086C25.5131 8.65239 25.3782 8.75669 25.1713 8.73564C25.3028 8.60665 26.5032 8.4493 26.7571 8.63136C26.8593 8.69174 26.9414 8.75943 27.0067 8.82805C26.9405 8.76035 26.8743 8.67435 26.814 8.56639V8.56548ZM25.5072 7.46763C25.2986 7.22702 25.2299 5.90869 25.3221 5.74492C25.3782 5.96358 25.3078 6.12734 25.5231 6.36978C25.6672 6.53263 25.8699 6.73848 26.014 6.90316C26.4312 7.37798 25.9713 7.68994 26.2612 8.03851L26.2327 8.09066L26.0836 7.91958C26.0333 7.87841 25.8892 7.83084 25.7284 7.70184C25.6555 7.64329 25.5667 7.58657 25.4578 7.54082C25.1855 7.39536 24.0128 7.71648 23.8963 7.86286C24.1041 7.85554 24.2264 7.73386 24.5028 7.88573C24.6879 7.98637 24.9284 8.13732 25.1152 8.23887C25.6555 8.53163 25.7895 7.95984 26.1816 8.15745L26.2184 8.11262L26.0249 8.00832C25.9747 7.96807 25.8892 7.83267 25.7292 7.70276C25.6563 7.64421 25.5801 7.56827 25.5081 7.46854L25.5072 7.46763ZM24.084 6.55733C23.8494 6.34783 23.6291 5.0487 23.702 4.87305C23.7824 5.08255 23.7321 5.25455 23.9734 5.46588C24.1351 5.60677 24.3596 5.78426 24.5221 5.9279C24.9904 6.34234 24.5707 6.71377 24.8982 7.02025L24.8764 7.07516L24.7089 6.92603C24.6544 6.89218 24.5053 6.86473 24.3311 6.7586C24.2523 6.71103 24.1577 6.6662 24.0446 6.63601C23.7581 6.52897 22.6306 7.00836 22.5325 7.16938C22.7386 7.1337 22.845 6.99556 23.1365 7.10809C23.3317 7.18402 23.588 7.29929 23.7849 7.37431C24.3545 7.59022 24.4216 7.0047 24.8329 7.14742L24.8647 7.09711L24.6603 7.02117C24.605 6.98915 24.5053 6.86381 24.3311 6.7586C24.2523 6.71103 24.1677 6.64516 24.0848 6.55733H24.084Z" fill="url(#paint0_linear_770_16168)"/>
<path fill-rule="evenodd" clip-rule="evenodd" d="M8.11472 6.61455C8.4565 6.09215 8.84268 5.61001 9.26572 5.16996C9.74489 4.67135 10.2693 4.22581 10.8297 3.83424C11.8651 3.11058 13.0261 2.56531 14.2517 2.19661C15.5191 1.81603 16.8544 1.62482 18.1914 1.62482C19.5284 1.62482 20.8654 1.81419 22.1328 2.19478C23.3575 2.56256 24.5194 3.10783 25.5556 3.83149C26.1169 4.22398 26.6421 4.66952 27.1213 5.16904C27.5452 5.61092 27.9314 6.09307 28.274 6.61729C27.9883 7.1406 27.6482 7.8112 27.3316 8.65014C26.9822 9.57508 26.6614 10.7022 26.4721 12.0571C26.2702 13.4999 26.2199 15.2016 26.4478 17.1887C26.6706 19.1346 27.1615 21.3577 28.0386 23.8837C27.6038 24.5141 27.0032 25.2377 26.302 25.9989C25.4945 26.8754 24.5579 27.7957 23.5912 28.6749C22.5877 29.588 21.5539 30.4562 20.5965 31.1853C19.7387 31.8395 18.9453 32.3811 18.2944 32.7424C17.1359 31.9749 16.0905 31.2265 15.1506 30.5083C14.0632 29.6776 13.1082 28.8789 12.2773 28.1306C11.3441 27.2907 10.5683 26.5149 9.93839 25.8269C9.22802 25.052 8.70613 24.3915 8.35179 23.8782C9.22802 21.3532 9.71807 19.1309 9.9409 17.185C10.1688 15.197 10.1177 13.4962 9.91661 12.0535C9.72729 10.6995 9.40646 9.57233 9.05713 8.64739C8.74048 7.80937 8.40038 7.13785 8.11472 6.61546V6.61455ZM8.92309 4.77657C8.43807 5.28158 7.99827 5.83964 7.61461 6.44895C7.56099 6.53403 7.55429 6.64931 7.60623 6.74355C7.89691 7.26777 8.26047 7.96215 8.59723 8.85324C8.93231 9.74067 9.24059 10.8257 9.42405 12.1349C9.61923 13.5337 9.66865 15.1851 9.44666 17.12C9.22467 19.0614 8.72959 21.2864 7.83828 23.8252C7.80896 23.9084 7.81817 24.0054 7.87011 24.0832C8.23618 24.6293 8.8008 25.3539 9.58823 26.2139C10.2257 26.9092 11.0123 27.6969 11.9623 28.5505C12.8008 29.3062 13.7667 30.1122 14.8666 30.9539C15.8576 31.7114 16.9525 32.4936 18.1537 33.2859C18.2232 33.3307 18.312 33.338 18.3908 33.2969C19.0869 32.9245 19.9489 32.3408 20.8804 31.6309C21.8488 30.8926 22.8943 30.0152 23.9087 29.093C24.8905 28.2001 25.8379 27.2687 26.6522 26.3859C27.4053 25.568 28.0495 24.7858 28.5069 24.1051C28.5655 24.0319 28.5856 23.9267 28.5521 23.8297C27.6599 21.291 27.1649 19.0651 26.942 17.1246C26.7209 15.1906 26.7695 13.5383 26.9646 12.1395C27.1473 10.8303 27.4564 9.74525 27.7915 8.85782C28.1249 7.97405 28.4859 7.28332 28.7749 6.76001C28.8311 6.67035 28.8344 6.54776 28.7749 6.45261C28.3904 5.84239 27.9498 5.2834 27.4648 4.77747C26.9647 4.25599 26.4134 3.78941 25.8229 3.3768C24.7447 2.62295 23.5368 2.05573 22.2643 1.67422C20.9541 1.28083 19.5728 1.08504 18.1923 1.08596C16.8117 1.08596 15.432 1.28358 14.1227 1.67697C12.8494 2.05939 11.6423 2.62753 10.565 3.38047C9.97525 3.79216 9.42404 4.25965 8.92477 4.78022L8.92309 4.77657ZM10.0305 2.46376C9.34195 2.94499 8.70027 3.49573 8.12226 4.11602C7.56603 4.71252 7.06592 5.37397 6.63618 6.09856C6.54571 6.22847 6.49293 6.38674 6.48539 6.54868C6.47785 6.7097 6.5122 6.87345 6.59429 7.01983C6.86152 7.49373 7.23346 8.1552 7.57943 9.01975C7.92708 9.88705 8.25461 10.9684 8.44058 12.295C8.62906 13.6426 8.67179 15.2427 8.44477 17.1255C8.21692 19.0166 7.71597 21.1967 6.81711 23.6998C6.8146 23.7062 6.81293 23.7126 6.81126 23.7199C6.77188 23.8371 6.75848 23.9633 6.77105 24.0877C6.78445 24.2158 6.8255 24.3421 6.89586 24.4555C7.25189 25.0264 7.85084 25.8278 8.72038 26.7939C9.41148 27.5615 10.2768 28.4361 11.3323 29.3858C12.2178 30.1826 13.2339 31.0307 14.3874 31.909C14.3933 31.9136 14.3983 31.9172 14.4042 31.9209C15.4379 32.7077 16.5839 33.521 17.848 34.3471C17.951 34.4212 18.0691 34.4661 18.1906 34.478C18.3129 34.4898 18.4402 34.4679 18.5617 34.4084C19.2896 34.0507 20.2178 33.4423 21.2281 32.6848C22.2819 31.8943 23.4321 30.9347 24.5437 29.9237C25.6151 28.9485 26.6505 27.9247 27.5284 26.9577C28.346 26.0565 29.0313 25.1993 29.4895 24.4683L29.4945 24.461C29.5615 24.354 29.6051 24.2304 29.6193 24.0996H29.6202C29.6344 23.9706 29.621 23.8352 29.5741 23.7035C28.6744 21.2013 28.1735 19.0202 27.9456 17.1292C27.7186 15.2455 27.7613 13.6463 27.9498 12.2987C28.1349 10.9721 28.4633 9.89071 28.8101 9.02341C29.1561 8.15885 29.5289 7.4974 29.7961 7.02258C29.8036 7.00977 29.8095 6.99605 29.8145 6.98233C29.874 6.86248 29.9041 6.72616 29.9033 6.58984V6.58161C29.9008 6.43615 29.8631 6.29068 29.7869 6.15986C29.3521 5.41698 28.8461 4.7418 28.2824 4.13432C27.6993 3.5058 27.0518 2.94864 26.3556 2.46193C25.1971 1.65227 23.9037 1.04296 22.5424 0.633097C21.1401 0.210425 19.6649 0 18.1914 0C16.7179 0 15.2436 0.212257 13.8421 0.634929C12.4817 1.04571 11.1882 1.65593 10.0305 2.46376ZM8.47074 4.50301C7.93713 5.07481 7.45796 5.70973 7.04665 6.40595C7.04247 6.41327 7.03827 6.41967 7.03409 6.42608C7.00225 6.4709 6.98382 6.52397 6.98131 6.57795C6.9788 6.63193 6.99052 6.6859 7.01816 6.7353C7.29125 7.21927 7.67073 7.89445 8.0343 8.80292C8.39702 9.70864 8.73964 10.8367 8.93231 12.2145C9.12665 13.6042 9.17106 15.2537 8.9365 17.196C8.70362 19.1255 8.19598 21.3422 7.28623 23.8791C7.28288 23.8901 7.27869 23.9011 7.27451 23.9121C7.26362 23.9487 7.26027 23.9889 7.26445 24.0283C7.26864 24.0694 7.28288 24.1115 7.30634 24.149C7.64896 24.6989 8.22865 25.4738 9.07472 26.4133C9.75661 27.1699 10.6094 28.0327 11.6481 28.9677C12.516 29.749 13.5196 30.5861 14.6722 31.4634C14.6781 31.468 14.6831 31.4717 14.689 31.4772C15.7101 32.2539 16.8461 33.0599 18.1035 33.8824C18.1102 33.8869 18.116 33.8915 18.1219 33.8961C18.1546 33.919 18.1939 33.9327 18.235 33.9364C18.276 33.94 18.3187 33.9336 18.359 33.9135C19.0601 33.5695 19.9615 32.9766 20.9491 32.2365C21.9954 31.4515 23.133 30.5037 24.227 29.5074C25.2826 28.5468 26.3062 27.535 27.1766 26.5753C27.9732 25.697 28.6384 24.8663 29.079 24.1627L29.0865 24.1518C29.1083 24.1161 29.1226 24.0758 29.1276 24.0338H29.1268C29.1318 23.9898 29.1268 23.9441 29.1117 23.9011C28.1977 21.3568 27.6876 19.1337 27.4539 17.1996C27.2193 15.2574 27.2637 13.6078 27.4581 12.2182C27.6507 10.8404 27.9925 9.71231 28.3552 8.80658C28.7146 7.91092 29.0882 7.24215 29.3605 6.75909L29.3697 6.73988L29.3714 6.73805C29.3957 6.69414 29.4091 6.64291 29.4091 6.59259V6.58893C29.4091 6.54135 29.3957 6.49286 29.3705 6.44986C28.9575 5.74358 28.475 5.10134 27.9364 4.5204C27.3768 3.91749 26.7569 3.38321 26.0918 2.91845C24.976 2.13898 23.7286 1.55163 22.4134 1.15549C21.0538 0.745623 19.623 0.54161 18.1948 0.542525C16.7665 0.542525 15.3365 0.74837 13.9778 1.15823C12.6626 1.55437 11.4153 2.14264 10.3003 2.9212C9.64185 3.38138 9.02781 3.90926 8.47325 4.50301H8.47074Z" fill="url(#paint1_linear_770_16168)"/>
<path fill-rule="evenodd" clip-rule="evenodd" d="M7.81733 6.60412C8.57797 5.3974 9.5631 4.39745 10.6948 3.60699C12.8419 2.10752 15.5133 1.3564 18.1897 1.35457C20.8662 1.35366 23.5385 2.10294 25.6872 3.60333C26.8197 4.3947 27.8057 5.39466 28.568 6.60504C27.9758 7.67361 27.0886 9.43291 26.7167 12.097C26.3196 14.9386 26.5173 18.8021 28.3175 23.9245C27.386 25.3179 25.6268 27.1732 23.7479 28.8831C21.7743 30.679 19.6792 32.3029 18.2802 33.0522C15.737 31.3743 13.7022 29.7669 12.1181 28.3406C10.0238 26.4551 8.72289 24.8979 8.06948 23.9218C9.86886 18.8003 10.0657 14.9368 9.66865 12.0952C9.29671 9.432 8.40959 7.67178 7.81733 6.60504V6.60412ZM10.1621 2.69304C8.83849 3.61797 7.69503 4.80731 6.83555 6.25921C6.71157 6.43304 6.6923 6.67914 6.80456 6.87767C7.34404 7.83646 8.30655 9.55093 8.68435 12.2553C9.06718 14.9926 8.85943 18.7527 7.04664 23.7983C6.98884 23.9593 7.00308 24.1477 7.09942 24.3014C7.72853 25.3106 9.13252 27.0552 11.4881 29.1759C13.1493 30.6708 15.2896 32.3587 17.9728 34.1135C18.111 34.2159 18.2936 34.2397 18.457 34.1601C19.9229 33.4392 22.2308 31.6726 24.382 29.7148C26.4277 27.8539 28.3452 25.8092 29.2809 24.3143C29.3756 24.1706 29.4032 23.9785 29.3395 23.801C27.5259 18.7546 27.3182 14.9944 27.7002 12.2571C28.078 9.55276 29.0405 7.83829 29.5808 6.87858H29.5791C29.6755 6.70659 29.6796 6.48336 29.5749 6.30221C28.7113 4.82743 27.5569 3.62254 26.2199 2.68846C23.9087 1.07462 21.0471 0.267705 18.1897 0.269534C15.3323 0.270449 12.4708 1.0792 10.1621 2.6912V2.69304Z" fill="url(#paint2_linear_770_16168)"/>
<path d="M7.22852 6.59313C11.7379 -1.10553 24.6368 -1.12383 29.1578 6.59497C28.0395 8.58024 25.1737 13.6935 28.878 23.9995C27.015 26.9829 21.043 32.2956 18.2535 33.6661C11.8334 29.4714 8.55711 25.6747 7.50998 23.9968C11.2118 13.6916 8.34685 8.5775 7.22852 6.59405" stroke="#8F6137" stroke-width="0.303049" stroke-miterlimit="2.61"/>
<path fill-rule="evenodd" clip-rule="evenodd" d="M7.22852 6.59313C11.7379 -1.10553 24.6368 -1.12383 29.1578 6.59496C28.0395 8.58024 25.1737 13.6935 28.878 23.9995C27.015 26.9829 21.043 32.2956 18.2535 33.6661C11.8334 29.4714 8.55711 25.6747 7.50998 23.9968C11.2118 13.6916 8.34685 8.5775 7.22852 6.59405V6.59313Z" fill="url(#paint3_radial_770_16168)"/>
<path fill-rule="evenodd" clip-rule="evenodd" d="M7.2274 6.59366C9.51013 2.6963 13.9432 0.767739 18.3504 0.815312V33.6172C18.3169 33.6337 18.2842 33.6511 18.2515 33.6666C11.8314 29.4719 8.55515 25.6752 7.50803 23.9973C11.2098 13.6922 8.34489 8.57802 7.22656 6.59458L7.2274 6.59366Z" fill="url(#paint4_radial_770_16168)"/>
<g clip-path="url(#clip0_770_16168)">
<path d="M11.8351 22.8392C11.6587 22.4867 11.4823 22.1341 11.2832 21.7213C11.1809 21.512 11.1014 21.3628 11.0218 21.2136C10.8406 20.7245 10.6657 20.2322 10.4744 19.748C10.4182 19.6057 10.2004 18.7222 10.101 18.5624C9.9885 17.7402 10.0092 17.712 9.89756 16.8843C9.83701 16.247 9.79364 15.645 9.74349 14.9977C9.73807 14.8445 9.73943 14.7367 9.74033 14.5568C9.72375 14.4009 9.70764 14.317 9.69152 14.2332C9.69152 14.2332 9.69494 14.1873 9.69114 14.1272C9.68414 13.9908 9.68094 13.9145 9.67773 13.8382C9.69481 13.3301 9.71189 12.8221 9.7194 12.2695C9.71509 12.1488 9.72035 12.0727 9.7271 11.9269C9.72305 11.8114 9.71751 11.7657 9.71198 11.72C9.71115 11.6065 9.71032 11.4929 9.71426 11.3171C9.72351 11.1738 9.72798 11.0929 9.73245 11.0119C9.7379 10.8057 9.74334 10.5995 9.74962 10.3051C9.75438 9.97827 9.7583 9.73965 9.80376 9.49933C10.3274 9.46121 10.8095 9.42479 11.3313 9.39358C12.7076 9.29637 13.9984 8.97058 15.2093 8.32665C15.7047 8.06322 16.1577 7.70041 16.6587 7.38085C17.0331 7.14903 17.4265 6.97573 17.712 6.67464C18.0506 6.31756 18.3024 6.29645 18.6159 6.70212C18.7791 6.84084 18.9256 6.95175 19.0894 7.08881C19.2436 7.21729 19.3804 7.31963 19.5456 7.44276C19.8247 7.60916 20.0753 7.75478 20.3449 7.92958C20.8066 8.1666 21.2493 8.37446 21.7194 8.604C22.2953 8.80154 22.8438 8.97738 23.3923 9.15321C23.9145 9.23718 24.4368 9.32114 24.9985 9.39808C25.5267 9.44432 26.0154 9.49757 26.5837 9.55949C26.5837 10.2977 26.5837 11.0639 26.5922 11.8766C26.5984 12.0962 26.5962 12.2693 26.5932 12.5246C26.5973 12.716 26.6022 12.8251 26.6071 12.9342C26.6019 13.0416 26.5968 13.1491 26.5913 13.3388C26.5959 13.5955 26.6007 13.7699 26.6056 13.9443C26.4443 15.5064 26.3148 17.0737 26.1066 18.6279C26.0197 19.2767 25.7657 19.8976 25.5797 20.5594C25.1681 20.1191 24.8035 19.7292 24.3991 19.2881C24.3191 19.1037 24.2179 18.9491 24.2483 18.8402C24.6413 17.4303 24.7724 15.9779 24.8108 14.5144C24.8393 13.4301 24.8164 12.3441 24.8164 11.2783C24.0802 11.1501 23.4288 11.0366 22.7452 10.9077C22.0238 10.6561 21.3346 10.4199 20.6229 10.1566C20.0644 9.83788 19.5284 9.54636 18.9762 9.23176C18.8822 9.16617 18.8044 9.12366 18.7088 9.0519C18.1113 8.60348 18.1113 8.60348 17.759 9.07948C17.0854 9.44933 16.447 9.81955 15.7729 10.194C15.6638 10.2111 15.5862 10.2109 15.5178 10.2389C14.3098 10.7323 13.0775 11.1031 11.79 11.2334C11.6803 11.2445 11.5148 11.4813 11.5036 11.6256C11.4676 12.0916 11.4916 12.5633 11.4865 13.0666C11.4842 13.1458 11.4878 13.1912 11.4863 13.2784C11.4862 13.4601 11.4913 13.6 11.4905 13.7737C11.4884 13.853 11.4921 13.8985 11.4897 13.9791C11.5031 14.2313 11.5225 14.4484 11.5428 14.7111C11.5822 15.3283 11.6208 15.8998 11.654 16.496C11.6511 16.5372 11.6535 16.5538 11.6536 16.6126C11.8609 17.5696 12.0705 18.4845 12.2838 19.4366C12.4271 19.789 12.5669 20.1041 12.7209 20.4531C12.916 20.8318 13.0968 21.1767 13.2839 21.5531C13.3726 21.7003 13.4551 21.816 13.5499 21.9641C13.7145 22.1627 13.7843 22.3077 13.6013 22.534C13.3224 22.8786 13.0828 23.2629 12.7923 23.639C12.6035 23.5575 12.4491 23.4674 12.2921 23.345C12.138 23.1549 11.9865 22.997 11.8351 22.8392Z" fill="url(#paint5_linear_770_16168)"/>
<path d="M17.2443 25.3358C17.4672 25.5607 17.6901 25.7856 17.9396 26.0374C18.812 25.1035 19.6728 24.1831 20.5324 23.2614C21.3726 22.3605 22.2101 21.4566 23.0531 20.559C23.1439 20.4624 23.2639 20.3993 23.3998 20.3333C23.7971 20.7809 24.1649 21.2159 24.4909 21.6015C23.8737 22.3156 23.2597 23.026 22.6337 23.7665C21.2033 25.3069 19.7867 26.8192 18.363 28.3234C18.2465 28.4465 18.0822 28.5146 17.9124 28.5975C16.8525 27.6345 15.8203 26.6823 14.7575 25.7245C14.3923 25.3358 14.0576 24.9529 13.6985 24.5418C14.0525 24.0834 14.4227 23.6039 14.8177 23.0924C15.0724 23.3316 15.3105 23.5552 15.5949 23.818C16.1756 24.3501 16.7099 24.843 17.2443 25.3358Z" fill="url(#paint6_linear_770_16168)"/>
</g>
<g opacity="0.5" clip-path="url(#clip1_770_16168)">
<path d="M11.8351 22.8392C11.6587 22.4867 11.4823 22.1341 11.2832 21.7213C11.1809 21.512 11.1014 21.3628 11.0218 21.2136C10.8406 20.7245 10.6657 20.2322 10.4744 19.748C10.4182 19.6057 10.2004 18.7222 10.101 18.5624C9.9885 17.7402 10.0092 17.712 9.89756 16.8843C9.83701 16.247 9.79364 15.645 9.74349 14.9977C9.73807 14.8445 9.73943 14.7367 9.74033 14.5568C9.72375 14.4009 9.70764 14.317 9.69152 14.2332C9.69152 14.2332 9.69494 14.1873 9.69114 14.1272C9.68414 13.9908 9.68094 13.9145 9.67773 13.8382C9.69481 13.3301 9.71189 12.8221 9.7194 12.2695C9.71509 12.1488 9.72035 12.0727 9.7271 11.9269C9.72305 11.8114 9.71751 11.7657 9.71198 11.72C9.71115 11.6065 9.71032 11.4929 9.71426 11.3171C9.72351 11.1738 9.72798 11.0929 9.73245 11.0119C9.7379 10.8057 9.74334 10.5995 9.74962 10.3051C9.75438 9.97827 9.7583 9.73965 9.80376 9.49933C10.3274 9.46121 10.8095 9.42479 11.3313 9.39358C12.7076 9.29637 13.9984 8.97058 15.2093 8.32665C15.7047 8.06322 16.1577 7.70041 16.6587 7.38085C17.0331 7.14903 17.4265 6.97573 17.712 6.67464C18.0506 6.31756 18.3024 6.29645 18.6159 6.70212C18.7791 6.84084 18.9256 6.95175 19.0894 7.08881C19.2436 7.21729 19.3804 7.31963 19.5456 7.44276C19.8247 7.60916 20.0753 7.75478 20.3449 7.92958C20.8066 8.1666 21.2493 8.37446 21.7194 8.604C22.2953 8.80154 22.8438 8.97738 23.3923 9.15321C23.9145 9.23718 24.4368 9.32114 24.9985 9.39808C25.5267 9.44432 26.0154 9.49757 26.5837 9.55949C26.5837 10.2977 26.5837 11.0639 26.5922 11.8766C26.5984 12.0962 26.5962 12.2693 26.5932 12.5246C26.5973 12.716 26.6022 12.8251 26.6071 12.9342C26.6019 13.0416 26.5968 13.1491 26.5913 13.3388C26.5959 13.5955 26.6007 13.7699 26.6056 13.9443C26.4443 15.5064 26.3148 17.0737 26.1066 18.6279C26.0197 19.2767 25.7657 19.8976 25.5797 20.5594C25.1681 20.1191 24.8035 19.7292 24.3991 19.2881C24.3191 19.1037 24.2179 18.9491 24.2483 18.8402C24.6413 17.4303 24.7724 15.9779 24.8108 14.5144C24.8393 13.4301 24.8164 12.3441 24.8164 11.2783C24.0802 11.1501 23.4288 11.0366 22.7452 10.9077C22.0238 10.6561 21.3346 10.4199 20.6229 10.1566C20.0644 9.83788 19.5284 9.54636 18.9762 9.23176C18.8822 9.16617 18.8044 9.12366 18.7088 9.0519C18.1113 8.60348 18.1113 8.60348 17.759 9.07948C17.0854 9.44933 16.447 9.81955 15.7729 10.194C15.6638 10.2111 15.5862 10.2109 15.5178 10.2389C14.3098 10.7323 13.0775 11.1031 11.79 11.2334C11.6803 11.2445 11.5148 11.4813 11.5036 11.6256C11.4676 12.0916 11.4916 12.5633 11.4865 13.0666C11.4842 13.1458 11.4878 13.1912 11.4863 13.2784C11.4862 13.4601 11.4913 13.6 11.4905 13.7737C11.4884 13.853 11.4921 13.8985 11.4897 13.9791C11.5031 14.2313 11.5225 14.4484 11.5428 14.7111C11.5822 15.3283 11.6208 15.8998 11.654 16.496C11.6511 16.5372 11.6535 16.5538 11.6536 16.6126C11.8609 17.5696 12.0705 18.4845 12.2838 19.4366C12.4271 19.789 12.5669 20.1041 12.7209 20.4531C12.916 20.8318 13.0968 21.1767 13.2839 21.5531C13.3726 21.7003 13.4551 21.816 13.5499 21.9641C13.7145 22.1627 13.7843 22.3077 13.6013 22.534C13.3224 22.8786 13.0828 23.2629 12.7923 23.639C12.6035 23.5575 12.4491 23.4674 12.2921 23.345C12.138 23.1549 11.9865 22.997 11.8351 22.8392Z" fill="url(#paint7_linear_770_16168)"/>
<path d="M17.2443 25.3358C17.4672 25.5607 17.6901 25.7856 17.9396 26.0374C18.812 25.1035 19.6728 24.1831 20.5324 23.2614C21.3726 22.3605 22.2101 21.4566 23.0531 20.559C23.1439 20.4624 23.2639 20.3993 23.3998 20.3333C23.7971 20.7809 24.1649 21.2159 24.4909 21.6015C23.8737 22.3156 23.2597 23.026 22.6337 23.7665C21.2033 25.3069 19.7867 26.8192 18.363 28.3234C18.2465 28.4465 18.0822 28.5146 17.9124 28.5975C16.8525 27.6345 15.8203 26.6823 14.7575 25.7245C14.3923 25.3358 14.0576 24.9529 13.6985 24.5418C14.0525 24.0834 14.4227 23.6039 14.8177 23.0924C15.0724 23.3316 15.3105 23.5552 15.5949 23.818C16.1756 24.3501 16.7099 24.843 17.2443 25.3358Z" fill="url(#paint8_linear_770_16168)"/>
</g>
<path d="M19.9801 14.4842L18.7631 16.2257C19.2152 16.3691 19.5744 16.6218 19.8407 16.9837C20.1133 17.3457 20.2495 17.7759 20.2495 18.2745C20.2495 19.012 20.0235 19.5891 19.5713 20.0057C19.1316 20.4223 18.5835 20.6306 17.9269 20.6306C17.4129 20.6306 16.9577 20.5008 16.5613 20.2413C16.1649 19.9749 15.8769 19.5993 15.6973 19.1145L16.7935 18.4179C16.9484 18.971 17.3262 19.2476 17.9269 19.2476C18.2552 19.2476 18.5091 19.1623 18.6887 18.9915C18.8746 18.814 18.9675 18.5749 18.9675 18.2745C18.9675 17.9808 18.8746 17.7452 18.6887 17.5676C18.5091 17.3901 18.2552 17.3013 17.9269 17.3013H17.6482L17.1558 16.4818L18.4379 14.6379H15.8924V13.3164H19.9801V14.4842Z" fill="url(#paint9_linear_770_16168)"/>
<defs>
<linearGradient id="paint0_linear_770_16168" x1="18.1924" y1="34.5726" x2="18.1924" y2="4.87122" gradientUnits="userSpaceOnUse">
<stop stop-color="#DBA73E"/>
<stop offset="0.16" stop-color="#D89D3A"/>
<stop offset="0.3" stop-color="#A46B28"/>
<stop offset="0.46" stop-color="#8E5723"/>
<stop offset="0.49" stop-color="#F4F3B8"/>
<stop offset="0.56" stop-color="#F7ED9A"/>
<stop offset="0.69" stop-color="#D5B767"/>
<stop offset="0.75" stop-color="#A76F29"/>
<stop offset="0.85" stop-color="#D0AB5B"/>
<stop offset="1" stop-color="#E0C77D"/>
</linearGradient>
<linearGradient id="paint1_linear_770_16168" x1="18.6153" y1="32.9657" x2="18.0148" y2="1.50499" gradientUnits="userSpaceOnUse">
<stop stop-color="#DBA73E"/>
<stop offset="0.16" stop-color="#D89D3A"/>
<stop offset="0.3" stop-color="#A46B28"/>
<stop offset="0.49" stop-color="#8E5723"/>
<stop offset="0.54" stop-color="#F4F3B8"/>
<stop offset="0.56" stop-color="#F7ED9A"/>
<stop offset="0.69" stop-color="#D5B767"/>
<stop offset="0.75" stop-color="#A76F29"/>
<stop offset="0.85" stop-color="#D0AB5B"/>
<stop offset="1" stop-color="#E0C77D"/>
</linearGradient>
<linearGradient id="paint2_linear_770_16168" x1="26.8775" y1="30.8272" x2="9.16101" y2="3.82908" gradientUnits="userSpaceOnUse">
<stop stop-color="#482A0F"/>
<stop offset="0.1" stop-color="#A77129"/>
<stop offset="0.15" stop-color="white"/>
<stop offset="0.22" stop-color="#DA9E41"/>
<stop offset="0.34" stop-color="#8E5923"/>
<stop offset="0.5" stop-color="#D8A64D"/>
<stop offset="0.66" stop-color="#F5E380"/>
<stop offset="0.72" stop-color="#DAC164"/>
<stop offset="0.77" stop-color="white"/>
<stop offset="0.83" stop-color="#A0752B"/>
<stop offset="1" stop-color="#664219"/>
</linearGradient>
<radialGradient id="paint3_radial_770_16168" cx="0" cy="0" r="1" gradientUnits="userSpaceOnUse" gradientTransform="translate(18.1923 18.3401) scale(19.252 21.0256)">
<stop stop-color="#493211"/>
<stop offset="0.4" stop-color="#241909"/>
<stop offset="0.78" stop-color="#0A0604"/>
<stop offset="1" stop-color="#000002"/>
</radialGradient>
<radialGradient id="paint4_radial_770_16168" cx="0" cy="0" r="1" gradientUnits="userSpaceOnUse" gradientTransform="translate(18.4107 21.6461) scale(22.7134 24.8059)">
<stop stop-color="#937551"/>
<stop offset="1" stop-color="#393939"/>
</radialGradient>
<linearGradient id="paint5_linear_770_16168" x1="38.6995" y1="30.5108" x2="-5.05381" y2="13.6936" gradientUnits="userSpaceOnUse">
<stop stop-color="#482A0F"/>
<stop offset="0.1" stop-color="#A77129"/>
<stop offset="0.15" stop-color="white"/>
<stop offset="0.22" stop-color="#DA9E41"/>
<stop offset="0.34" stop-color="#8E5923"/>
<stop offset="0.5" stop-color="#D8A64D"/>
<stop offset="0.66" stop-color="#F5E380"/>
<stop offset="0.72" stop-color="#DAC164"/>
<stop offset="0.77" stop-color="white"/>
<stop offset="0.83" stop-color="#A0752B"/>
<stop offset="1" stop-color="#664219"/>
</linearGradient>
<linearGradient id="paint6_linear_770_16168" x1="38.6995" y1="30.5108" x2="-5.05381" y2="13.6936" gradientUnits="userSpaceOnUse">
<stop stop-color="#482A0F"/>
<stop offset="0.1" stop-color="#A77129"/>
<stop offset="0.15" stop-color="white"/>
<stop offset="0.22" stop-color="#DA9E41"/>
<stop offset="0.34" stop-color="#8E5923"/>
<stop offset="0.5" stop-color="#D8A64D"/>
<stop offset="0.66" stop-color="#F5E380"/>
<stop offset="0.72" stop-color="#DAC164"/>
<stop offset="0.77" stop-color="white"/>
<stop offset="0.83" stop-color="#A0752B"/>
<stop offset="1" stop-color="#664219"/>
</linearGradient>
<linearGradient id="paint7_linear_770_16168" x1="38.6995" y1="30.5108" x2="-5.05381" y2="13.6936" gradientUnits="userSpaceOnUse">
<stop stop-color="#482A0F"/>
<stop offset="0.1" stop-color="#A77129"/>
<stop offset="0.15" stop-color="white"/>
<stop offset="0.22" stop-color="#DA9E41"/>
<stop offset="0.34" stop-color="#8E5923"/>
<stop offset="0.5" stop-color="#D8A64D"/>
<stop offset="0.66" stop-color="#F5E380"/>
<stop offset="0.72" stop-color="#DAC164"/>
<stop offset="0.77" stop-color="white"/>
<stop offset="0.83" stop-color="#A0752B"/>
<stop offset="1" stop-color="#664219"/>
</linearGradient>
<linearGradient id="paint8_linear_770_16168" x1="38.6995" y1="30.5108" x2="-5.05381" y2="13.6936" gradientUnits="userSpaceOnUse">
<stop stop-color="#482A0F"/>
<stop offset="0.1" stop-color="#A77129"/>
<stop offset="0.15" stop-color="white"/>
<stop offset="0.22" stop-color="#DA9E41"/>
<stop offset="0.34" stop-color="#8E5923"/>
<stop offset="0.5" stop-color="#D8A64D"/>
<stop offset="0.66" stop-color="#F5E380"/>
<stop offset="0.72" stop-color="#DAC164"/>
<stop offset="0.77" stop-color="white"/>
<stop offset="0.83" stop-color="#A0752B"/>
<stop offset="1" stop-color="#664219"/>
</linearGradient>
<linearGradient id="paint9_linear_770_16168" x1="26.0507" y1="31.588" x2="7.72528" y2="28.9309" gradientUnits="userSpaceOnUse">
<stop stop-color="#482A0F"/>
<stop offset="0.1" stop-color="#A77129"/>
<stop offset="0.15" stop-color="white"/>
<stop offset="0.22" stop-color="#DA9E41"/>
<stop offset="0.34" stop-color="#8E5923"/>
<stop offset="0.5" stop-color="#D8A64D"/>
<stop offset="0.66" stop-color="#F5E380"/>
<stop offset="0.72" stop-color="#DAC164"/>
<stop offset="0.77" stop-color="white"/>
<stop offset="0.83" stop-color="#A0752B"/>
<stop offset="1" stop-color="#664219"/>
</linearGradient>
<clipPath id="clip0_770_16168">
<rect width="8.15573" height="22.1951" fill="white" transform="translate(9.67773 6.40234)"/>
</clipPath>
<clipPath id="clip1_770_16168">
<rect width="8.84983" height="22.1951" fill="white" transform="matrix(-1 0 0 1 26.6836 6.40234)"/>
</clipPath>
</defs>
</svg>
