<svg width="36" height="36" viewBox="0 0 36 36" fill="none" xmlns="http://www.w3.org/2000/svg">
<path fill-rule="evenodd" clip-rule="evenodd" d="M23.7221 9.75708C23.9789 9.91569 24.2301 10.0846 24.4738 10.2638C24.2958 9.88685 24.307 9.31831 24.0521 8.99903C24.6913 9.36569 24.4457 10.2494 25.3268 10.6202C25.1806 10.647 25.0569 10.649 24.9537 10.6346C25.2143 10.8468 25.4655 11.0713 25.7092 11.3041C25.533 10.8571 25.6417 10.1938 25.3924 9.7818C26.0485 10.2885 25.6586 11.2258 26.5809 11.7758C26.3878 11.782 26.236 11.7593 26.1141 11.714C26.4291 12.0498 26.7271 12.402 27.0083 12.7748C26.8227 12.2496 27.0889 11.4833 26.8659 10.9539C27.5014 11.6275 26.9333 12.575 27.8519 13.3434C27.5913 13.3084 27.402 13.2342 27.267 13.1333C27.5032 13.4711 27.7263 13.8233 27.9307 14.1879C27.9794 13.6112 28.2512 12.9602 28.1219 12.4185C28.7424 13.3557 27.895 14.3383 28.8305 15.4507C28.703 15.4074 28.5905 15.358 28.4949 15.3065C28.6655 15.6896 28.8192 16.0851 28.9561 16.4889C29.0929 15.9183 29.4903 15.3209 29.4547 14.7462C29.9046 15.7947 28.9055 16.5857 29.6328 17.8711C29.4922 17.7887 29.376 17.7042 29.2804 17.6198C29.3947 18.0915 29.4866 18.5756 29.5522 19.0679C29.7884 18.4108 30.4464 17.8052 30.5308 17.1027C30.8138 18.386 29.5353 19.0164 30.0808 20.6334C29.8896 20.4604 29.749 20.2935 29.6516 20.1329C29.6666 20.3965 29.674 20.6622 29.674 20.93C29.674 21.1298 29.6703 21.3297 29.6609 21.5274C30.0902 20.8971 30.9001 20.4109 31.1438 19.6817C31.17 21.1916 29.6009 21.548 29.8446 23.5008C29.704 23.3031 29.6009 23.1218 29.5297 22.9508C29.4566 23.4596 29.3554 23.956 29.2298 24.4422C29.7547 23.7192 30.9319 23.4411 31.4006 22.6398C31.1063 24.228 29.3872 24.1971 29.2241 26.3085C29.0573 25.9233 28.9804 25.5978 28.9692 25.3218C28.7761 25.9047 28.5437 26.4691 28.2775 27.0088C29.0329 26.5103 30.2402 26.5412 30.9038 25.8841C30.1821 27.462 28.3824 26.8914 27.6645 29.0584C27.6101 28.7227 27.597 28.4364 27.6176 28.1933C27.357 28.6073 27.0758 29.0049 26.774 29.3819C27.657 29.2006 28.7799 29.4931 29.5653 29.042C28.4274 30.4757 26.6878 29.3489 25.4093 31.3985C25.4262 31.1554 25.4561 30.9412 25.4974 30.7496C25.1543 31.0648 24.7944 31.3594 24.4195 31.6313C25.4205 31.5695 26.6128 32.3646 27.6101 32.1174C26.1123 33.2277 24.6332 31.5777 22.8429 33.2669C22.9591 32.9002 23.0904 32.6097 23.2347 32.3831C22.7042 32.6757 22.1493 32.9249 21.5757 33.1268C22.7136 33.1824 23.814 34.5831 24.9931 34.6408C23.186 35.3123 22.0987 33.1783 19.8454 34.3504C20.1303 33.8951 20.4078 33.5903 20.6834 33.3966C19.8266 33.617 18.9325 33.7344 18.0139 33.7344C17.0953 33.7344 16.1636 33.6109 15.2882 33.3822C15.5713 33.5738 15.8562 33.8828 16.1486 34.3504C13.8972 33.1783 12.8081 35.3103 11.0028 34.6408C12.1932 34.5811 13.303 33.1577 14.4521 33.1247C13.8616 32.9167 13.2898 32.6571 12.7443 32.3522C12.8962 32.585 13.0349 32.8837 13.1549 33.2648C11.3646 31.5736 9.88552 33.2256 8.38769 32.1154C9.39811 32.3667 10.6072 31.5468 11.6177 31.6333C11.2259 31.3491 10.8491 31.0401 10.4929 30.7084C10.5398 30.9082 10.5735 31.1348 10.5904 31.3964C9.31188 29.3468 7.57223 30.4736 6.43433 29.0399C7.23105 29.4993 8.37644 29.1882 9.26689 29.388C8.94633 28.9884 8.65014 28.5682 8.37644 28.1274C8.40644 28.3849 8.39519 28.6918 8.3352 29.0584C7.61722 26.8894 5.81571 27.462 5.09585 25.8841C5.77447 26.5577 7.02296 26.5083 7.77469 27.0439C7.48599 26.4609 7.23667 25.8512 7.03234 25.2188C7.03984 25.5175 6.96485 25.8738 6.77739 26.3085C6.61617 24.1991 4.89526 24.228 4.60095 22.6398C5.08648 23.4699 6.3331 23.7398 6.82613 24.5246C6.68553 23.9931 6.57493 23.4472 6.4962 22.8911C6.42309 23.0785 6.31248 23.2804 6.15501 23.5008C6.39872 21.546 4.82966 21.1896 4.8559 19.6817C5.1071 20.4315 5.9563 20.9259 6.37434 21.583C6.36497 21.3667 6.35935 21.1504 6.35935 20.9321C6.35935 20.6417 6.36872 20.3533 6.38559 20.069C6.28811 20.2503 6.13814 20.4377 5.91881 20.6375C6.46432 19.0205 5.18583 18.3881 5.4689 17.1068C5.55701 17.8361 6.26187 18.4602 6.47183 19.1462C6.53931 18.6147 6.63679 18.0935 6.76239 17.5827C6.65929 17.6836 6.52994 17.7804 6.36685 17.8752C7.0942 16.5898 6.0969 15.7988 6.54493 14.7503C6.50744 15.3456 6.93673 15.9656 7.05858 16.5527C7.20293 16.1181 7.36789 15.6937 7.55161 15.2838C7.44475 15.3477 7.31915 15.4033 7.17106 15.4548C8.10462 14.3424 7.25916 13.3599 7.87966 12.4226C7.74657 12.9808 8.03901 13.6544 8.07463 14.2456C8.30333 13.8357 8.55453 13.4402 8.8226 13.0612C8.68575 13.2012 8.47392 13.3022 8.14961 13.3475C9.06818 12.5771 8.50017 11.6316 9.13754 10.958C8.89946 11.5245 9.2219 12.3629 8.9482 12.8881C9.25752 12.4679 9.5912 12.0683 9.9455 11.6955C9.81428 11.7573 9.64556 11.7881 9.42248 11.7799C10.3448 11.2299 9.95488 10.2947 10.611 9.78591C10.3504 10.2164 10.4798 10.9189 10.2698 11.3659C10.5341 11.1084 10.8078 10.8632 11.0928 10.6305C10.9803 10.6531 10.8434 10.6531 10.6766 10.6243C11.5577 10.2556 11.3102 9.36981 11.9513 9.00315C11.687 9.3348 11.7095 9.93217 11.5089 10.3091C11.7695 10.1155 12.0395 9.93423 12.315 9.76326C12.2232 9.76326 12.1182 9.74472 11.9945 9.70352C12.8081 9.48517 12.6825 8.67562 13.2823 8.43049C12.8943 8.80952 12.9824 9.75502 12.3244 9.76326C12.0357 9.94659 11.7545 10.1443 11.4827 10.3545C11.4096 10.4739 11.3065 10.5666 11.1584 10.614C9.90801 11.6543 8.85447 12.9726 8.07275 14.4866C8.05213 14.7276 7.9659 14.9481 7.76157 15.1355C7.48787 15.7452 7.25729 16.3818 7.07358 17.0409C7.06608 17.0821 7.05483 17.1254 7.03984 17.1666C6.7324 18.314 6.56743 19.5293 6.56743 20.7879C6.56743 24.1971 7.77656 27.291 9.74492 29.5734C9.968 29.7011 10.1592 29.8927 10.3036 30.179C12.3375 32.239 15.0445 33.4934 18.0158 33.4934C20.987 33.4934 23.634 32.2637 25.6605 30.245C25.8217 29.8927 26.0485 29.6744 26.3166 29.5384C27.9794 27.5959 29.0948 25.0705 29.3872 22.2669C29.3891 22.2278 29.3929 22.1886 29.3985 22.1495C29.4416 21.7004 29.4641 21.2473 29.4641 20.7858C29.4641 19.589 29.3141 18.4314 29.0367 17.3334C28.9448 17.1769 28.9073 17.0162 28.9055 16.8535C28.7367 16.2767 28.5305 15.7185 28.2925 15.1808C28.0263 14.9687 27.9306 14.7029 27.9213 14.4125C27.387 13.3928 26.729 12.4638 25.9698 11.6501C25.8836 11.5945 25.8179 11.5224 25.7673 11.44C25.488 11.1537 25.1956 10.8838 24.8919 10.6305C24.695 10.5852 24.5751 10.4677 24.4907 10.3112C24.2376 10.1176 23.9771 9.93629 23.709 9.76531C23.0135 9.79003 23.1129 8.81776 22.7192 8.43461C23.3209 8.67974 23.1935 9.48929 24.0071 9.70764C23.8983 9.74265 23.8027 9.76119 23.7184 9.76531L23.7221 9.75708ZM22.603 8.98461C21.9225 8.90015 21.9506 8.22862 21.4388 8.09679C21.8381 8.39754 21.8025 9.36981 22.603 8.98461ZM22.5673 8.89809C22.3105 8.62412 22.7586 8.32543 21.9825 8.12974C22.3518 8.36663 22.2262 8.79922 22.5673 8.89809ZM22.6067 8.96607C22.0462 8.76214 22.4605 8.1215 21.422 7.96289C22.0106 8.22038 21.9356 8.88574 22.6067 8.96607ZM23.9789 9.58816C23.7052 9.21326 24.292 8.92487 23.3753 8.55821C23.7896 8.90839 23.5778 9.41101 23.9789 9.58816ZM24.0183 9.6788C23.3678 9.33686 23.9583 8.62824 22.7192 8.26158C23.3978 8.67356 23.2141 9.46663 24.0183 9.6788ZM25.3062 10.4904C25.0475 10.029 25.7411 9.79827 24.7663 9.24622C25.1843 9.70146 24.8825 10.2288 25.3062 10.4904ZM25.338 10.5975C24.6557 10.1155 25.4055 9.41719 24.0708 8.81364C24.7757 9.37805 24.4682 10.235 25.338 10.5975ZM26.5753 11.6295C26.3522 11.0795 27.1471 10.9374 26.146 10.1711C26.5453 10.7397 26.1423 11.2752 26.5753 11.6295ZM26.5959 11.7531C25.9061 11.1104 26.8284 10.4616 25.4374 9.58198C26.1385 10.3174 25.6849 11.2155 26.5959 11.7531ZM27.8688 13.1848C27.7113 12.5441 28.598 12.5359 27.627 11.5162C27.9738 12.2104 27.4526 12.7151 27.8688 13.1848ZM27.8725 13.3228C27.222 12.4947 28.3243 11.9591 26.9465 10.7438C27.597 11.6749 26.9652 12.5668 27.8725 13.3228ZM28.8792 15.2694C28.8136 14.4805 29.8578 14.6741 28.9092 13.2548C29.1866 14.1488 28.4799 14.6246 28.8792 15.2694ZM28.8586 15.4321C28.2512 14.3115 29.6459 13.9346 28.2568 12.1919C28.8455 13.434 27.9344 14.3363 28.8586 15.4321ZM29.7134 17.7022C29.7847 16.9153 30.7763 17.319 30.0865 15.7288C30.2064 16.664 29.4303 16.9853 29.7134 17.7022ZM29.6647 17.8566C29.2579 16.631 30.6938 16.5465 29.6253 14.5505C29.9909 15.8915 28.9429 16.5919 29.6647 17.8566ZM30.2064 20.4645C30.4483 19.6035 31.4718 20.3038 31.0332 18.3572C30.9732 19.4304 30.0396 19.5952 30.2064 20.4645ZM30.1202 20.6252C29.9215 19.1544 31.5412 19.4222 30.7632 16.9256C30.8926 18.5138 29.5766 19.0308 30.1202 20.6252ZM30.0246 23.3463C30.4895 22.4503 31.4737 23.5111 31.4212 21.2184C31.1119 22.4008 30.034 22.3308 30.0246 23.3463ZM29.8915 23.5029C30.0021 21.8076 31.7493 22.5471 31.4437 19.5478C31.23 21.3564 29.6459 21.5748 29.8915 23.5029ZM29.4453 26.1931C30.124 25.3753 30.9282 26.739 31.3631 24.3227C30.7857 25.4824 29.6722 25.1302 29.4453 26.1931ZM29.2729 26.3229C29.749 24.5761 31.4231 25.7997 31.7436 22.578C31.1344 24.4195 29.4266 24.2403 29.2729 26.3229ZM27.9288 29.0069C28.8548 28.3581 29.346 30.0472 30.4314 27.6412C29.5241 28.6794 28.4443 27.9605 27.9288 29.0069ZM27.7151 29.0873C28.6693 27.3982 30.1108 29.2109 31.2844 25.9253C30.1652 27.6701 28.4162 26.945 27.7151 29.0873ZM25.698 31.4191C26.8209 31.0154 26.9221 32.9228 28.643 30.7332C27.4414 31.5489 26.4909 30.4798 25.698 31.4191ZM25.4543 31.4397C26.8621 29.9607 27.9232 32.276 29.9515 29.1944C28.3581 30.6837 26.7103 29.4128 25.4543 31.4397ZM23.1297 33.3719C24.3614 33.2977 23.9977 35.2485 26.266 33.5491C24.8563 34.0167 24.157 32.6571 23.1297 33.3719ZM22.8785 33.3225C24.6613 32.2451 25.1656 34.8942 27.9625 32.3852C25.9904 33.4172 24.6407 31.6498 22.8785 33.3225ZM20.1135 34.5461C21.3863 34.8468 20.5203 36.7234 23.2628 35.6872C21.7088 35.7326 21.3413 34.1341 20.1135 34.5461ZM19.8698 34.4183C21.9581 33.8683 21.7988 36.7193 25.2856 35.0219C23.0154 35.4689 22.0893 33.2545 19.8698 34.4183ZM13.4004 8.98873C14.2009 9.37393 14.1634 8.40165 14.5646 8.10091C14.0547 8.23274 14.0828 8.90221 13.4004 8.98873ZM13.4361 8.90221C13.7772 8.80333 13.6516 8.37076 14.0209 8.13387C13.2448 8.32956 13.6929 8.62824 13.4361 8.90221ZM13.3967 8.97019C14.0678 8.88779 13.9928 8.2245 14.5814 7.96701C13.5429 8.12563 13.9572 8.76626 13.3967 8.97019ZM12.0245 9.59228C12.4256 9.41513 12.2119 8.91251 12.6281 8.56233C11.7114 8.92899 12.3 9.21738 12.0245 9.59228ZM11.9851 9.68292C12.7893 9.47075 12.6037 8.67768 13.2842 8.2657C12.047 8.63236 12.6375 9.34097 11.9851 9.68292ZM10.6972 10.4945C11.1209 10.2329 10.8191 9.70558 11.2371 9.25034C10.2623 9.80239 10.9559 10.0331 10.6972 10.4945ZM10.6654 10.6016C11.5352 10.2412 11.2277 9.38217 11.9326 8.81776C10.5979 9.41925 11.3496 10.1176 10.6654 10.6016ZM9.42811 11.6337C9.86114 11.2773 9.4581 10.7438 9.8574 10.1752C8.85635 10.9415 9.65119 11.0837 9.42811 11.6337ZM9.40749 11.7573C10.3186 11.2176 9.8649 10.3215 10.566 9.5861C9.17503 10.4657 10.0955 11.1146 9.40749 11.7573ZM8.13462 13.1889C8.55078 12.7213 8.02964 12.2146 8.37644 11.5204C7.40351 12.54 8.29209 12.5483 8.13462 13.1889ZM8.13087 13.3269C9.04006 12.5709 8.40643 11.679 9.05693 10.7479C7.67908 11.9632 8.78136 12.4988 8.13087 13.3269ZM7.12419 15.2735C7.52536 14.6288 6.81676 14.1529 7.0942 13.2589C6.14564 14.6782 7.18793 14.4846 7.12419 15.2735ZM7.14482 15.4362C8.06901 14.3404 7.15794 13.4381 7.74657 12.196C6.35747 13.9387 7.75219 14.3157 7.14482 15.4362ZM6.28999 17.7063C6.57306 16.9915 5.79696 16.6701 5.91693 15.7329C5.22707 17.3231 6.21875 16.9173 6.28999 17.7063ZM6.33872 17.8608C7.06045 16.5939 6.01254 15.8956 6.37809 14.5546C5.30956 16.5527 6.74552 16.6351 6.33872 17.8608ZM5.79696 20.4686C5.9638 19.5993 5.03211 19.4345 4.97025 18.3613C4.52971 20.31 5.55326 19.6076 5.79696 20.4686ZM5.88319 20.6293C6.42496 19.0349 5.10897 18.5179 5.2402 16.9297C4.4641 19.4263 6.0819 19.1585 5.88319 20.6293ZM5.9788 23.3504C5.96943 22.3328 4.89151 22.4049 4.5822 21.2225C4.52971 23.5173 5.51389 22.4564 5.9788 23.3504ZM6.1119 23.507C6.35747 21.581 4.77341 21.3626 4.55971 19.552C4.25602 22.5512 6.00317 21.8117 6.1119 23.507ZM6.55806 26.1972C6.33123 25.1343 5.2177 25.4866 4.64031 24.3268C5.07523 26.7431 5.87944 25.3794 6.55806 26.1972ZM6.73052 26.327C6.57681 24.2444 4.86902 24.4236 4.25977 22.5821C4.58033 25.8038 6.25437 24.5781 6.73052 26.327ZM8.07463 29.0111C7.56098 27.9646 6.47932 28.6835 5.572 27.6453C6.65741 30.0513 7.14856 28.3622 8.07463 29.0111ZM8.28834 29.0914C7.58535 26.9491 5.8382 27.6742 4.71905 25.9294C5.89257 29.215 7.33415 27.4023 8.28834 29.0914ZM10.3054 31.4232C9.51246 30.4818 8.56203 31.553 7.3604 30.7373C9.07943 32.927 9.18065 31.0215 10.3054 31.4232ZM10.5491 31.4438C9.29314 29.4169 7.64534 30.6878 6.05191 29.1985C8.08025 32.2802 9.14129 29.9648 10.5491 31.4438ZM12.8737 33.376C11.8445 32.6612 11.1471 34.0208 9.73742 33.5532C12.0076 35.2547 11.642 33.3019 12.8737 33.376ZM13.1249 33.3266C11.3627 31.6539 10.0111 33.4213 8.04089 32.3893C10.8397 34.8983 11.3421 32.2493 13.1249 33.3266ZM15.8899 34.5502C14.6602 34.1382 14.2946 35.7346 12.7406 35.6914C15.4831 36.7275 14.6171 34.8509 15.8899 34.5502ZM16.1336 34.4225C13.9141 33.2586 12.988 35.473 10.7178 35.026C14.2046 36.7254 14.0453 33.8725 16.1336 34.4225Z" fill="url(#paint0_linear_789_12515)"/>
<path d="M7.93164 4.21509L17.0779 1.10257L17.1323 1.08403L17.1792 1.07167L17.2541 1.05725L17.4716 1.02017L17.5503 1.01399L17.5953 1.01193H17.6385L17.9515 1.00781H18.0021L18.0452 1.01193L18.1127 1.01811L18.3283 1.05107L18.3883 1.06137L18.437 1.07372L18.5045 1.09227L28.0407 4.20273L28.4475 4.33663L29.0118 4.51996L29.2536 4.6003L29.8985 4.81041L29.8704 5.54374L29.8591 5.81976L29.8348 6.4604L29.8179 6.92388L28.9537 29.1359L28.9424 29.4428L28.9256 29.8713L28.9181 30.0546L28.8993 30.5449L28.5281 30.8106L28.3875 30.9115L28.0632 31.1443L27.8289 31.3112" stroke="#2E1F1B" stroke-width="0.751219" stroke-miterlimit="2.61"/>
<path d="M27.8286 31.3125C27.5306 31.5247 27.2156 31.7265 26.8838 31.914C26.5576 32.0994 26.2071 32.2765 25.834 32.4455C25.4703 32.6082 25.0917 32.7627 24.698 32.9007C24.3062 33.0408 23.9032 33.1664 23.4945 33.2756C23.1064 33.3807 22.6903 33.4775 22.2516 33.564C21.8111 33.6505 21.3818 33.7226 20.9675 33.7762C20.5513 33.8297 20.1145 33.8709 19.659 33.9018C19.2035 33.9307 18.7648 33.9471 18.343 33.9471C17.9456 33.9471 17.5163 33.9327 17.057 33.9059C16.624 33.8792 16.1947 33.84 15.7654 33.7885C15.3436 33.737 14.9181 33.6711 14.4869 33.5928C14.0764 33.5166 13.6546 33.426 13.2197 33.3168C12.7829 33.2097 12.3686 33.0923 11.9768 32.9707C11.5906 32.8492 11.1857 32.7091 10.7639 32.5464C10.3552 32.3898 9.95969 32.225 9.57915 32.05C9.18547 31.8707 8.80493 31.6812 8.4375 31.4855" stroke="#2E1F1B" stroke-width="0.751219" stroke-miterlimit="2.61"/>
<path d="M8.43547 31.4819L8.1449 31.3253L7.74186 31.1111L7.56939 31.0184L7.11011 30.7712L7.08761 30.2027L7.08012 29.9905L7.06137 29.4941L7.04637 29.1357L6.18405 6.92363L6.1653 6.46633L6.14093 5.83188L6.13156 5.55997L6.10156 4.83694L6.73706 4.62065L6.97514 4.53825L7.5319 4.3508L7.93119 4.21484" stroke="#2E1F1B" stroke-width="0.751219" stroke-miterlimit="2.61"/>
<path d="M17.6762 3.62109L8.62741 6.70066L8.54492 6.7295L8.54867 6.8222L9.411 29.0342L9.41287 29.1084L9.47286 29.1413" stroke="#2E1F1B" stroke-width="0.751219" stroke-miterlimit="2.61"/>
<path d="M9.47266 29.141C9.82134 29.3285 10.1606 29.4954 10.4906 29.6478C10.8505 29.8126 11.2011 29.9609 11.5385 30.0907C11.8778 30.2204 12.2415 30.3461 12.6239 30.4656C13.0157 30.5892 13.3869 30.6942 13.7374 30.7807C14.1067 30.8714 14.4854 30.9538 14.8716 31.0259C15.2559 31.0959 15.6402 31.1556 16.0226 31.203C16.4181 31.2504 16.8024 31.2875 17.1792 31.3101C17.5448 31.3328 17.9328 31.3431 18.3396 31.3431C18.7464 31.3431 19.1607 31.3307 19.5263 31.3081C19.9106 31.2834 20.3005 31.2463 20.6923 31.1948C21.1028 31.1412 21.4834 31.0815 21.8283 31.0115C22.1901 30.9394 22.5557 30.8549 22.9212 30.754C23.2886 30.6551 23.6373 30.5459 23.9673 30.4285C24.3047 30.309 24.6252 30.1813 24.9289 30.0433C25.227 29.9094 25.5157 29.7631 25.7894 29.6066C26.0593 29.4542 26.3087 29.2955 26.5355 29.1328" stroke="#2E1F1B" stroke-width="0.751219" stroke-miterlimit="2.61"/>
<path d="M26.539 29.1319L26.5877 29.0969L26.5915 29.033L27.4538 6.82099L27.4576 6.72623L27.3732 6.69946L17.9176 3.61371L17.8707 3.60547L17.7583 3.60753L17.6758 3.61989" stroke="#2E1F1B" stroke-width="0.751219" stroke-miterlimit="2.61"/>
<path d="M17.8173 6.55078L11.2148 8.79608L11.9291 27.2076" stroke="#2E1F1B" stroke-width="0.751219" stroke-miterlimit="2.61"/>
<path d="M11.9297 27.209C11.9897 27.2337 12.0497 27.2584 12.1134 27.2852C12.3684 27.3882 12.6027 27.4788 12.8183 27.555C13.0657 27.6416 13.3357 27.7281 13.6262 27.8146C13.898 27.8949 14.1755 27.967 14.4567 28.035C14.8016 28.1174 15.1203 28.1833 15.4109 28.2348C15.7258 28.2904 16.0482 28.3378 16.38 28.377C16.71 28.4161 17.0362 28.4449 17.353 28.4614C17.6548 28.4779 17.9847 28.4882 18.339 28.4882C18.6933 28.4882 19.0326 28.4799 19.3288 28.4614C19.6513 28.4429 19.9737 28.414 20.2905 28.3749C20.6054 28.3378 20.9166 28.2904 21.2222 28.2328C21.5315 28.1771 21.8296 28.1112 22.1164 28.0391C22.377 27.9732 22.6169 27.9052 22.8362 27.8352C23.0406 27.7713 23.2655 27.6889 23.5074 27.5942" stroke="#2E1F1B" stroke-width="0.751219" stroke-miterlimit="2.61"/>
<path d="M23.5098 27.5938H23.5137" stroke="#2E1F1B" stroke-width="0.751219" stroke-miterlimit="2.61"/>
<path d="M23.5137 27.5936C23.7161 27.5132 23.8923 27.4391 24.0404 27.3711" stroke="#2E1F1B" stroke-width="0.751219" stroke-miterlimit="2.61"/>
<path d="M24.0402 27.3703L24.0646 27.3579L24.7845 8.82286L17.8184 6.55078" stroke="#2E1F1B" stroke-width="0.751219" stroke-miterlimit="2.61"/>
<path d="M9.64844 6.60875L17.4637 3.9494L17.7149 3.9082H17.9005L18.1461 3.94528L26.3382 6.61699L26.58 6.69733L27.2249 6.90743L27.1968 7.64076L27.1874 7.91679L26.3963 28.2461L26.3888 28.45L26.3682 28.9959L25.9314 29.2513L25.7665 29.346" stroke="#2E1F1B" stroke-width="0.751219" stroke-miterlimit="2.61"/>
<path d="M25.7668 29.3457C25.5494 29.4734 25.315 29.595 25.0638 29.7144C24.8126 29.8339 24.5577 29.9451 24.3027 30.0461" stroke="#2E1F1B" stroke-width="0.751219" stroke-miterlimit="2.61"/>
<path d="M24.3029 30.0469H24.3008" stroke="#2E1F1B" stroke-width="0.751219" stroke-miterlimit="2.61"/>
<path d="M24.3008 30.047C24.0608 30.1418 23.7928 30.2345 23.4984 30.3292C23.2098 30.4219 22.9267 30.5022 22.6474 30.5743C22.3137 30.6588 21.9688 30.735 21.6145 30.7989C21.2695 30.8627 20.9115 30.9163 20.5422 30.9616C20.1879 31.0028 19.8223 31.0358 19.4455 31.0584C19.0556 31.0811 18.6863 31.0934 18.3414 31.0934C17.9964 31.0934 17.6402 31.0811 17.2391 31.0584C16.8679 31.0358 16.4986 31.0049 16.1312 30.9616C15.7787 30.9204 15.4132 30.8669 15.0364 30.8009C14.6521 30.733 14.2922 30.6588 13.9566 30.5805C13.6492 30.5084 13.338 30.424 13.0212 30.3313C12.7325 30.2468 12.425 30.1459 12.0951 30.0305C11.7858 29.9213 11.484 29.806 11.1915 29.6845C10.901 29.565 10.6067 29.4331 10.3086 29.291" stroke="#2E1F1B" stroke-width="0.751219" stroke-miterlimit="2.61"/>
<path d="M10.3088 29.289L10.1251 29.2004L9.6321 28.9656L9.6096 28.3703L9.60023 28.1478L8.81476 7.903L8.80351 7.63109L8.77539 6.906L9.41089 6.69177L9.64897 6.60938" stroke="#2E1F1B" stroke-width="0.751219" stroke-miterlimit="2.61"/>
<path fill-rule="evenodd" clip-rule="evenodd" d="M17.9999 1.00824H18.0449L18.1124 1.01854L18.3279 1.0515L18.3879 1.06179L18.4367 1.0721L18.5042 1.09064L28.0404 4.20316L28.4472 4.335L29.0114 4.51833L29.2533 4.5966L29.8981 4.80672L29.87 5.54005L29.8588 5.81607L29.8344 6.45877L29.8175 6.92018L28.9552 29.1322L28.9439 29.4412L28.9271 29.8697L28.9196 30.053L28.9008 30.5433L28.5296 30.809L28.3909 30.9079L28.0647 31.1406L27.8304 31.3075C27.5324 31.5197 27.2174 31.7215 26.8856 31.909C26.5594 32.0944 26.2089 32.2715 25.8358 32.4404C25.4721 32.6032 25.0935 32.7577 24.6998 32.8957C24.308 33.0357 23.905 33.1614 23.4963 33.2706C23.1082 33.3756 22.6921 33.4725 22.2534 33.559C21.8129 33.6455 21.3836 33.7176 20.9693 33.7711C20.5531 33.8247 20.1163 33.8659 19.6608 33.8968C19.2053 33.9256 18.7666 33.9421 18.3448 33.9421C18.2342 33.9421 18.1199 33.9421 18.0036 33.938V31.3322C18.1161 31.3322 18.2286 31.3343 18.3448 31.3343C18.7704 31.3343 19.1659 31.3219 19.5315 31.2992C19.9157 31.2745 20.3057 31.2374 20.6975 31.1859C21.108 31.1324 21.4886 31.0727 21.8335 31.0026C22.1953 30.9305 22.5608 30.8461 22.9264 30.7451C23.2938 30.6462 23.6425 30.5371 23.9724 30.4197C24.3099 30.3002 24.6304 30.1725 24.9341 30.0345C25.2322 29.9006 25.5209 29.7543 25.7946 29.5978C26.0645 29.4453 26.3138 29.2867 26.5407 29.124L26.5894 29.089V29.0251L27.4555 6.81307L27.4592 6.71832L27.3749 6.69154L18.0018 3.63257V1L17.9999 1.00824ZM17.9999 31.0891C18.1161 31.0912 18.2305 31.0933 18.3411 31.0933C18.686 31.0933 19.0553 31.0809 19.4452 31.0582C19.822 31.0356 20.1894 31.0026 20.5419 30.9614C20.9112 30.9161 21.2674 30.8625 21.6142 30.7987C21.9685 30.7328 22.3115 30.6586 22.6471 30.5742C22.9264 30.5041 23.2113 30.4217 23.4982 30.329C23.7925 30.2363 24.0605 30.1416 24.3005 30.0468H24.3024C24.5573 29.9459 24.8123 29.8346 25.0635 29.7152C25.3128 29.5957 25.5471 29.4721 25.7665 29.3464L25.9295 29.2517L26.3663 28.9983L26.387 28.4524L26.3945 28.2485L27.1837 7.91924L27.1949 7.64322L27.223 6.90989L26.5782 6.69978L26.3363 6.6215L18.1442 3.94773L17.998 3.92508V6.61326L24.7823 8.82766L24.0624 27.3628L24.038 27.3731C23.89 27.441 23.7137 27.5172 23.5113 27.5955H23.5075C23.2638 27.6903 23.0407 27.7706 22.8364 27.8365C22.6171 27.9066 22.3771 27.9745 22.1166 28.0405C21.8297 28.1126 21.5298 28.1785 21.2224 28.2341C20.9168 28.2897 20.6056 28.3371 20.2907 28.3762C19.972 28.4133 19.6514 28.4421 19.329 28.4627C19.0328 28.4792 18.7047 28.4895 18.3392 28.4895C18.223 28.4895 18.1086 28.4895 17.998 28.4875V31.0933L17.9999 31.0891ZM7.93127 4.21552L7.53198 4.35147L6.97709 4.54099L6.73902 4.62132L6.10352 4.83762L6.13164 5.5627L6.14289 5.83461L6.16726 6.46906L6.18413 6.92636L7.04646 29.1384L7.05958 29.4968L7.07832 29.9933L7.08582 30.2054L7.10832 30.774L7.5676 31.0212L7.74006 31.1139L8.14311 31.3301L8.43368 31.4846C8.8011 31.6803 9.18165 31.8698 9.57532 32.0491C9.954 32.2221 10.3495 32.3869 10.7601 32.5455C11.1838 32.7082 11.5887 32.8504 11.973 32.9698C12.3648 33.0934 12.7809 33.2088 13.2158 33.3159C13.6508 33.423 14.0725 33.5157 14.4831 33.5919C14.9143 33.6723 15.3398 33.7361 15.7616 33.7876C16.189 33.8391 16.6202 33.8783 17.0532 33.905C17.385 33.9256 17.6999 33.938 17.998 33.9442V31.3384C17.7149 31.3343 17.4394 31.324 17.1788 31.3075C16.802 31.2848 16.4177 31.2498 16.0222 31.2004C15.6379 31.153 15.2536 31.0953 14.8711 31.0232C14.485 30.9511 14.1044 30.8708 13.737 30.7781C13.3883 30.6916 13.0171 30.5865 12.6235 30.4629C12.241 30.3434 11.8792 30.2178 11.5381 30.088C11.2006 29.9582 10.8501 29.812 10.4901 29.6451C10.1602 29.4948 9.81902 29.3258 9.47222 29.1384L9.41223 29.1054V29.0313L8.54616 6.81925L8.5424 6.7245L8.62489 6.69565L17.6737 3.61609L17.7543 3.60373H17.8668L17.9136 3.60991L17.9961 3.63668V1.00412H17.6343L17.5912 1.00618H17.5462L17.4694 1.01648L17.2519 1.0515L17.1769 1.06592L17.1282 1.07828L17.0738 1.09682L7.92753 4.20934L7.93127 4.21552ZM17.9999 3.92302L17.8987 3.90859H17.7131L17.4637 3.95185L9.64656 6.6112L9.40848 6.69154L8.77298 6.90783L8.8011 7.63292L8.81235 7.90482L9.59782 28.1496L9.60719 28.3721L9.62969 28.9674L10.1227 29.2023L10.3083 29.2908C10.6064 29.433 10.9007 29.5648 11.1912 29.6843C11.4837 29.8058 11.7855 29.9212 12.0948 30.0303C12.4248 30.1457 12.7341 30.2466 13.0209 30.3311C13.3377 30.4238 13.6508 30.5082 13.9563 30.5803C14.29 30.6607 14.6518 30.7328 15.0361 30.8007C15.4129 30.8667 15.7785 30.9202 16.1309 30.9614C16.4983 31.0047 16.8695 31.0376 17.2388 31.0582C17.5069 31.0747 17.7599 31.085 17.9999 31.0891V28.4833C17.7731 28.4792 17.5575 28.471 17.355 28.4607C17.0363 28.4421 16.712 28.4133 16.3821 28.3762C16.0503 28.3371 15.7278 28.2897 15.4129 28.2341C15.1223 28.1826 14.8036 28.1167 14.4587 28.0343C14.1775 27.9663 13.9001 27.8942 13.6283 27.8139C13.3377 27.7294 13.0677 27.6408 12.8203 27.5543C12.6066 27.4781 12.3723 27.3895 12.1154 27.2845C12.0517 27.2598 11.9917 27.233 11.9317 27.2083L11.2175 8.79677L17.8199 6.5494L18.0018 6.60914V3.92095L17.9999 3.92302Z" fill="url(#paint1_linear_789_12515)"/>
<path fill-rule="evenodd" clip-rule="evenodd" d="M8.1846 5.11726L17.3309 2.00473L17.3796 1.99237L17.5971 1.95735H17.6421L17.9551 1.95117H18.0001L18.2157 1.98619L18.2645 1.99649L27.8007 5.10902L28.2075 5.24085L28.7717 5.42624L29.0136 5.50452L29.0023 5.78055L28.9779 6.42324L28.9592 6.88466L28.0969 29.0967L28.0856 29.4057L28.0687 29.8341L28.0612 30.0175L27.9225 30.1163L27.5963 30.3491L27.362 30.516C26.8221 30.9012 26.1997 31.2555 25.508 31.5686C24.8275 31.8755 24.0833 32.1412 23.2885 32.3555C22.5255 32.5615 21.7138 32.7242 20.8702 32.8334C20.0547 32.9384 19.2093 32.994 18.3451 32.994C17.5409 32.994 16.7104 32.9446 15.8631 32.8416C15.057 32.7427 14.2378 32.5944 13.4111 32.3884C12.6218 32.1927 11.8307 31.9476 11.049 31.6469C10.2936 31.3564 9.54746 31.0186 8.81823 30.6272L8.52766 30.4727L8.12462 30.2564L7.95215 30.1637L7.94465 29.9516L7.92591 29.4551L7.91279 29.0967L7.05046 6.88466L7.03171 6.42736L7.00734 5.79291L6.99609 5.521L7.23417 5.44066L7.78906 5.25115L8.18836 5.1152L8.1846 5.11726ZM17.494 2.69274L8.37394 5.79497L7.97465 5.93092L7.65784 6.03804L7.67096 6.40058L7.68783 6.85788L8.55016 29.0699L8.56328 29.4283L8.57453 29.7126L8.80511 29.8362L9.09568 29.9907C9.80991 30.3738 10.5316 30.7014 11.2571 30.9795C12.0182 31.272 12.7831 31.5088 13.5498 31.7004C14.3484 31.8982 15.1451 32.0424 15.9306 32.1392C16.746 32.2401 17.554 32.2854 18.3432 32.2854C19.1868 32.2854 20.0079 32.2319 20.7952 32.1289C21.6144 32.0238 22.398 31.8673 23.1329 31.6675C23.8996 31.4594 24.6138 31.206 25.2606 30.9135C25.9148 30.619 26.5016 30.2853 27.0096 29.9227L27.2439 29.7559L27.4295 29.622L27.4389 29.3768L27.4501 29.0679L28.3124 6.85582L28.3312 6.3944L28.3462 6.02774L28.0238 5.92268L27.617 5.79085L18.1032 2.68656L17.9345 2.66184H17.6758L17.4959 2.69274H17.494ZM17.8145 5.5622L10.3292 8.10825L11.0959 27.8566C11.5795 28.0812 12.067 28.2768 12.5562 28.4499C13.1242 28.6497 13.6997 28.8186 14.2771 28.9546C14.9557 29.1152 15.6287 29.2326 16.2924 29.3109C16.9822 29.3913 17.6683 29.4304 18.3432 29.4304C19.0518 29.4304 19.736 29.3892 20.3847 29.3109C21.0614 29.2306 21.7063 29.1091 22.3118 28.9566C22.8404 28.8227 23.3391 28.6641 23.8002 28.4828C24.1995 28.3263 24.5688 28.1553 24.9025 27.972L25.673 8.12473L17.8145 5.56014V5.5622ZM9.90176 7.51293L9.66369 7.59327L9.67493 7.86518L10.4623 28.11L10.4716 28.3325L10.6572 28.421C11.2215 28.6909 11.7914 28.9257 12.3631 29.1276C12.9611 29.3377 13.5554 29.5128 14.144 29.6529C14.8395 29.8177 15.5369 29.9392 16.2267 30.0195C16.9485 30.104 17.659 30.1431 18.3451 30.1431C19.0687 30.1431 19.7754 30.0999 20.4559 30.0175C21.1589 29.933 21.83 29.8094 22.458 29.6487C23.0148 29.5087 23.5378 29.3398 24.0177 29.1523C24.507 28.9607 24.9606 28.7444 25.3674 28.5076L25.5305 28.4128L25.538 28.2089L26.3272 7.8796L26.3385 7.60357L26.0966 7.52529L17.9045 4.85153H17.7189L9.90176 7.51293Z" fill="#40250D"/>
<path fill-rule="evenodd" clip-rule="evenodd" d="M7.91797 6.28265L17.7897 3.01562L28.0833 6.28265C27.7721 14.0588 27.4628 21.835 27.1516 29.6111C23.5598 32.1119 15.707 33.1872 8.84966 29.6111L7.91797 6.28265Z" fill="url(#paint2_radial_789_12515)"/>
<path fill-rule="evenodd" clip-rule="evenodd" d="M17.989 4.16027L18.0808 4.3333L18.2627 4.37244L18.1371 4.51869L18.1577 4.71438L17.9871 4.63199L17.8203 4.71438L17.8409 4.51663L17.7153 4.37037L17.8971 4.33124L17.9871 4.1582L17.989 4.16027ZM17.989 31.2605L18.0808 31.0874L18.2627 31.0483L18.1371 30.902L18.1577 30.7063L17.9871 30.7887L17.8203 30.7063L17.8409 30.9041L17.7153 31.0504L17.8971 31.0895L17.9871 31.2625L17.989 31.2605ZM19.1269 31.1616L19.17 30.968L19.3331 30.8773L19.1737 30.7723L19.1437 30.5766L19.0013 30.7063L18.8194 30.6775L18.8907 30.8608L18.8082 31.038L18.9938 31.0215L19.125 31.1595L19.1269 31.1616ZM20.1467 30.9226L20.1748 30.7249L20.3304 30.6178L20.1635 30.5292L20.1167 30.3376L19.9854 30.4798L19.8017 30.4674L19.888 30.6446L19.8205 30.8279L20.0042 30.7949L20.1467 30.9206V30.9226ZM21.0952 30.6198L21.084 30.42L21.2152 30.282L21.0352 30.2326L20.9528 30.0554L20.8534 30.2243L20.6716 30.2532L20.7897 30.4056L20.7597 30.6013L20.9321 30.5271L21.0952 30.6178V30.6198ZM16.8754 31.1595L16.8323 30.9659L16.6674 30.8753L16.8267 30.7702L16.8567 30.5745L16.9992 30.7043L17.181 30.6754L17.1098 30.8588L17.1923 31.0359L17.0067 31.0195L16.8754 31.1575V31.1595ZM15.8556 30.9206L15.8275 30.7228L15.6719 30.6157L15.8388 30.5271L15.8856 30.3356L16.0169 30.4777L16.2006 30.4653L16.1143 30.6425L16.1818 30.8258L15.9981 30.7929L15.8556 30.9185V30.9206ZM14.9071 30.6178L14.9183 30.418L14.7871 30.28L14.9671 30.2305L15.0496 30.0534L15.1489 30.2223L15.3307 30.2511L15.2127 30.4035L15.2426 30.5992L15.0702 30.5251L14.9071 30.6157V30.6178ZM19.1269 4.25502L19.17 4.44865L19.3331 4.53929L19.1737 4.64435L19.1437 4.84004L19.0013 4.71026L18.8194 4.7391L18.8907 4.55577L18.8082 4.37862L18.9938 4.3951L19.125 4.25708L19.1269 4.25502ZM20.1467 4.49397L20.1748 4.69173L20.3304 4.79678L20.1635 4.88535L20.1167 5.07693L19.9854 4.93479L19.8017 4.94715L19.888 4.77L19.8205 4.58667L20.0042 4.61963L20.1467 4.49397ZM21.0952 4.79678L21.084 4.99659L21.2152 5.13461L21.0352 5.18404L20.9528 5.3612L20.8534 5.19228L20.6716 5.16344L20.7897 5.00895L20.7597 4.81532L20.9321 4.88948L21.0952 4.79884V4.79678ZM16.8754 4.25708L16.8323 4.45071L16.6674 4.54135L16.8267 4.64641L16.8567 4.8421L16.9992 4.71232L17.181 4.74116L17.1098 4.55783L17.1923 4.38068L17.0067 4.39715L16.8754 4.25914V4.25708ZM15.8556 4.49603L15.8275 4.69378L15.6719 4.79884L15.8388 4.88741L15.8856 5.07898L16.0169 4.93685L16.2006 4.94921L16.1143 4.77206L16.1818 4.58873L15.9981 4.62168L15.8556 4.49603ZM14.9071 4.79884L14.9183 4.99865L14.7871 5.13666L14.9671 5.1861L15.0496 5.36325L15.1489 5.19434L15.3307 5.1655L15.2127 5.01101L15.2426 4.81738L15.0702 4.89154L14.9071 4.8009V4.79884Z" fill="url(#paint3_linear_789_12515)"/>
<g clip-path="url(#clip0_789_12515)">
<path d="M11.837 23.8392C11.6606 23.4867 11.4843 23.1341 11.2852 22.7213C11.1829 22.512 11.1033 22.3628 11.0237 22.2136C10.8426 21.7245 10.6677 21.2322 10.4764 20.748C10.4202 20.6057 10.2023 19.7222 10.1029 19.5624C9.99046 18.7402 10.0112 18.712 9.89951 17.8843C9.83897 17.247 9.7956 16.645 9.74545 15.9977C9.74002 15.8445 9.74138 15.7367 9.74228 15.5568C9.7257 15.4009 9.70959 15.317 9.69347 15.2332C9.69347 15.2332 9.69689 15.1873 9.6931 15.1272C9.6861 14.9908 9.68289 14.9145 9.67969 14.8382C9.69677 14.3301 9.71384 13.8221 9.72136 13.2695C9.71705 13.1488 9.72231 13.0727 9.72905 12.9269C9.72501 12.8114 9.71947 12.7657 9.71393 12.72C9.7131 12.6065 9.71227 12.4929 9.71622 12.3171C9.72546 12.1738 9.72994 12.0929 9.73441 12.0119C9.73985 11.8057 9.7453 11.5995 9.75158 11.3051C9.75633 10.9783 9.76025 10.7396 9.80572 10.4993C10.3293 10.4612 10.8114 10.4248 11.3332 10.3936C12.7095 10.2964 14.0004 9.97058 15.2113 9.32665C15.7066 9.06322 16.1597 8.70041 16.6607 8.38085C17.035 8.14903 17.4285 7.97573 17.714 7.67464C18.0526 7.31756 18.3043 7.29645 18.6179 7.70212C18.781 7.84084 18.9275 7.95175 19.0914 8.08881C19.2455 8.21729 19.3823 8.31963 19.5476 8.44276C19.8266 8.60916 20.0773 8.75478 20.3468 8.92958C20.8085 9.1666 21.2513 9.37446 21.7214 9.604C22.2972 9.80154 22.8458 9.97738 23.3943 10.1532C23.9165 10.2372 24.4387 10.3211 25.0005 10.3981C25.5287 10.4443 26.0173 10.4976 26.5857 10.5595C26.5857 11.2977 26.5857 12.0639 26.5941 12.8766C26.6004 13.0962 26.5981 13.2693 26.5951 13.5246C26.5993 13.716 26.6042 13.8251 26.6091 13.9342C26.6039 14.0416 26.5987 14.1491 26.5933 14.3388C26.5978 14.5955 26.6027 14.7699 26.6076 14.9443C26.4463 16.5064 26.3167 18.0737 26.1085 19.6279C26.0216 20.2767 25.7676 20.8976 25.5816 21.5594C25.17 21.1191 24.8055 20.7292 24.401 20.2881C24.3211 20.1037 24.2199 19.9491 24.2502 19.8402C24.6433 18.4303 24.7743 16.9779 24.8128 15.5144C24.8413 14.4301 24.8184 13.3441 24.8184 12.2783C24.0822 12.1501 23.4307 12.0366 22.7471 11.9077C22.0257 11.6561 21.3366 11.4199 20.6249 11.1566C20.0663 10.8379 19.5303 10.5464 18.9781 10.2318C18.8842 10.1662 18.8064 10.1237 18.7107 10.0519C18.1133 9.60348 18.1133 9.60348 17.761 10.0795C17.0873 10.4493 16.449 10.8195 15.7749 11.194C15.6658 11.2111 15.5881 11.2109 15.5197 11.2389C14.3117 11.7323 13.0795 12.1031 11.792 12.2334C11.6823 12.2445 11.5167 12.4813 11.5056 12.6256C11.4695 13.0916 11.4935 13.5633 11.4885 14.0666C11.4861 14.1458 11.4897 14.1912 11.4882 14.2784C11.4882 14.4601 11.4932 14.6 11.4924 14.7737C11.4903 14.853 11.494 14.8985 11.4917 14.9791C11.505 15.2313 11.5245 15.4484 11.5448 15.7111C11.5842 16.3283 11.6227 16.8998 11.6559 17.496C11.653 17.5372 11.6555 17.5538 11.6555 17.6126C11.8628 18.5696 12.0725 19.4845 12.2857 20.4366C12.4291 20.789 12.5689 21.1041 12.7229 21.4531C12.9179 21.8318 13.0987 22.1767 13.2858 22.5531C13.3746 22.7003 13.4571 22.816 13.5519 22.9641C13.7164 23.1627 13.7863 23.3077 13.6032 23.534C13.3244 23.8786 13.0848 24.2629 12.7942 24.639C12.6055 24.5575 12.4511 24.4674 12.294 24.345C12.14 24.1549 11.9885 23.997 11.837 23.8392Z" fill="url(#paint4_linear_789_12515)"/>
<path d="M17.2462 26.3358C17.4691 26.5607 17.692 26.7856 17.9415 27.0374C18.8139 26.1035 19.6747 25.1831 20.5343 24.2614C21.3745 23.3605 22.212 22.4566 23.0551 21.559C23.1458 21.4624 23.2658 21.3993 23.4017 21.3333C23.799 21.7809 24.1669 22.2159 24.4929 22.6015C23.8756 23.3156 23.2616 24.026 22.6356 24.7665C21.2052 26.3069 19.7886 27.8192 18.365 29.3234C18.2484 29.4465 18.0841 29.5146 17.9144 29.5975C16.8545 28.6345 15.8222 27.6823 14.7594 26.7245C14.3942 26.3358 14.0596 25.9529 13.7004 25.5418C14.0544 25.0834 14.4247 24.6039 14.8196 24.0924C15.0744 24.3316 15.3124 24.5552 15.5969 24.818C16.1775 25.3501 16.7119 25.843 17.2462 26.3358Z" fill="url(#paint5_linear_789_12515)"/>
</g>
<g opacity="0.5" clip-path="url(#clip1_789_12515)">
<path d="M11.837 23.8392C11.6606 23.4867 11.4843 23.1341 11.2852 22.7213C11.1829 22.512 11.1033 22.3628 11.0237 22.2136C10.8426 21.7245 10.6677 21.2322 10.4764 20.748C10.4202 20.6057 10.2023 19.7222 10.1029 19.5624C9.99046 18.7402 10.0112 18.712 9.89951 17.8843C9.83897 17.247 9.7956 16.645 9.74545 15.9977C9.74002 15.8445 9.74138 15.7367 9.74228 15.5568C9.7257 15.4009 9.70959 15.317 9.69347 15.2332C9.69347 15.2332 9.69689 15.1873 9.6931 15.1272C9.6861 14.9908 9.68289 14.9145 9.67969 14.8382C9.69677 14.3301 9.71384 13.8221 9.72136 13.2695C9.71705 13.1488 9.72231 13.0727 9.72905 12.9269C9.72501 12.8114 9.71947 12.7657 9.71393 12.72C9.7131 12.6065 9.71227 12.4929 9.71622 12.3171C9.72546 12.1738 9.72994 12.0929 9.73441 12.0119C9.73985 11.8057 9.7453 11.5995 9.75158 11.3051C9.75633 10.9783 9.76025 10.7396 9.80572 10.4993C10.3293 10.4612 10.8114 10.4248 11.3332 10.3936C12.7095 10.2964 14.0004 9.97058 15.2113 9.32665C15.7066 9.06322 16.1597 8.70041 16.6607 8.38085C17.035 8.14903 17.4285 7.97573 17.714 7.67464C18.0526 7.31756 18.3043 7.29645 18.6179 7.70212C18.781 7.84084 18.9275 7.95175 19.0914 8.08881C19.2455 8.21729 19.3823 8.31963 19.5476 8.44276C19.8266 8.60916 20.0773 8.75478 20.3468 8.92958C20.8085 9.1666 21.2513 9.37446 21.7214 9.604C22.2972 9.80154 22.8458 9.97738 23.3943 10.1532C23.9165 10.2372 24.4387 10.3211 25.0005 10.3981C25.5287 10.4443 26.0173 10.4976 26.5857 10.5595C26.5857 11.2977 26.5857 12.0639 26.5941 12.8766C26.6004 13.0962 26.5981 13.2693 26.5951 13.5246C26.5993 13.716 26.6042 13.8251 26.6091 13.9342C26.6039 14.0416 26.5987 14.1491 26.5933 14.3388C26.5978 14.5955 26.6027 14.7699 26.6076 14.9443C26.4463 16.5064 26.3167 18.0737 26.1085 19.6279C26.0216 20.2767 25.7676 20.8976 25.5816 21.5594C25.17 21.1191 24.8055 20.7292 24.401 20.2881C24.3211 20.1037 24.2199 19.9491 24.2502 19.8402C24.6433 18.4303 24.7743 16.9779 24.8128 15.5144C24.8413 14.4301 24.8184 13.3441 24.8184 12.2783C24.0822 12.1501 23.4307 12.0366 22.7471 11.9077C22.0257 11.6561 21.3366 11.4199 20.6249 11.1566C20.0663 10.8379 19.5303 10.5464 18.9781 10.2318C18.8842 10.1662 18.8064 10.1237 18.7107 10.0519C18.1133 9.60348 18.1133 9.60348 17.761 10.0795C17.0873 10.4493 16.449 10.8195 15.7749 11.194C15.6658 11.2111 15.5881 11.2109 15.5197 11.2389C14.3117 11.7323 13.0795 12.1031 11.792 12.2334C11.6823 12.2445 11.5167 12.4813 11.5056 12.6256C11.4695 13.0916 11.4935 13.5633 11.4885 14.0666C11.4861 14.1458 11.4897 14.1912 11.4882 14.2784C11.4882 14.4601 11.4932 14.6 11.4924 14.7737C11.4903 14.853 11.494 14.8985 11.4917 14.9791C11.505 15.2313 11.5245 15.4484 11.5448 15.7111C11.5842 16.3283 11.6227 16.8998 11.6559 17.496C11.653 17.5372 11.6555 17.5538 11.6555 17.6126C11.8628 18.5696 12.0725 19.4845 12.2857 20.4366C12.4291 20.789 12.5689 21.1041 12.7229 21.4531C12.9179 21.8318 13.0987 22.1767 13.2858 22.5531C13.3746 22.7003 13.4571 22.816 13.5519 22.9641C13.7164 23.1627 13.7863 23.3077 13.6032 23.534C13.3244 23.8786 13.0848 24.2629 12.7942 24.639C12.6055 24.5575 12.4511 24.4674 12.294 24.345C12.14 24.1549 11.9885 23.997 11.837 23.8392Z" fill="url(#paint6_linear_789_12515)"/>
<path d="M17.2462 26.3358C17.4691 26.5607 17.692 26.7856 17.9415 27.0374C18.8139 26.1035 19.6747 25.1831 20.5343 24.2614C21.3745 23.3605 22.212 22.4566 23.0551 21.559C23.1458 21.4624 23.2658 21.3993 23.4017 21.3333C23.799 21.7809 24.1669 22.2159 24.4929 22.6015C23.8756 23.3156 23.2616 24.026 22.6356 24.7665C21.2052 26.3069 19.7886 27.8192 18.365 29.3234C18.2484 29.4465 18.0841 29.5146 17.9144 29.5975C16.8545 28.6345 15.8222 27.6823 14.7594 26.7245C14.3942 26.3358 14.0596 25.9529 13.7004 25.5418C14.0544 25.0834 14.4247 24.6039 14.8196 24.0924C15.0744 24.3316 15.3124 24.5552 15.5969 24.818C16.1775 25.3501 16.7119 25.843 17.2462 26.3358Z" fill="url(#paint7_linear_789_12515)"/>
</g>
<path d="M13.6523 15.4089L15.3618 14.743H16.4766V21.9138H15.1945V16.2386L13.9682 16.6177L13.6523 15.4089Z" fill="url(#paint8_linear_789_12515)"/>
<path d="M22.0668 17.0889C22.0668 17.642 21.9367 18.1269 21.6766 18.5435H21.6859L19.6606 21.9138H18.1927L19.642 19.5781C18.9669 19.5713 18.4157 19.3357 17.9883 18.8713C17.5672 18.4069 17.3566 17.8128 17.3566 17.0889C17.3566 16.3513 17.5733 15.7538 18.0069 15.2962C18.4466 14.8318 19.0133 14.5996 19.707 14.5996C20.4007 14.5996 20.9674 14.8318 21.4072 15.2962C21.8469 15.7606 22.0668 16.3581 22.0668 17.0889ZM18.6293 17.0889C18.6293 17.4372 18.7315 17.7206 18.9359 17.9391C19.1403 18.1508 19.3973 18.2567 19.707 18.2567C20.0291 18.2567 20.2892 18.1508 20.4874 17.9391C20.6918 17.7206 20.794 17.4372 20.794 17.0889C20.794 16.7406 20.6918 16.4606 20.4874 16.2489C20.2892 16.0372 20.0291 15.9313 19.707 15.9313C19.3973 15.9313 19.1403 16.0406 18.9359 16.2591C18.7315 16.4708 18.6293 16.7474 18.6293 17.0889Z" fill="url(#paint9_linear_789_12515)"/>
<defs>
<linearGradient id="paint0_linear_789_12515" x1="18.0008" y1="33.1824" x2="18.0008" y2="10.7726" gradientUnits="userSpaceOnUse">
<stop stop-color="#BA9555"/>
<stop offset="0.12" stop-color="#965824"/>
<stop offset="0.4" stop-color="#FCF6AC"/>
<stop offset="0.67" stop-color="#D3AC53"/>
<stop offset="0.85" stop-color="#BD882C"/>
<stop offset="1" stop-color="#A25D25"/>
</linearGradient>
<linearGradient id="paint1_linear_789_12515" x1="22.8027" y1="38.2453" x2="12.7138" y2="-1.51784" gradientUnits="userSpaceOnUse">
<stop stop-color="#BA9555"/>
<stop offset="0.12" stop-color="#965824"/>
<stop offset="0.4" stop-color="#FCF6AC"/>
<stop offset="0.67" stop-color="#D3AC53"/>
<stop offset="0.85" stop-color="#BD882C"/>
<stop offset="1" stop-color="#A25D25"/>
</linearGradient>
<radialGradient id="paint2_radial_789_12515" cx="0" cy="0" r="1" gradientUnits="userSpaceOnUse" gradientTransform="translate(17.397 17.4645) scale(15.8308 17.5728)">
<stop offset="0.385417" stop-color="#1C4AED"/>
<stop offset="1" stop-color="#000002"/>
</radialGradient>
<linearGradient id="paint3_linear_789_12515" x1="23.4479" y1="18.6579" x2="12.8586" y2="17.1315" gradientUnits="userSpaceOnUse">
<stop stop-color="#BA9555"/>
<stop offset="0.12" stop-color="#965824"/>
<stop offset="0.4" stop-color="#FCF6AC"/>
<stop offset="0.67" stop-color="#D3AC53"/>
<stop offset="0.85" stop-color="#BD882C"/>
<stop offset="1" stop-color="#A25D25"/>
</linearGradient>
<linearGradient id="paint4_linear_789_12515" x1="38.7015" y1="31.5108" x2="-5.05186" y2="14.6936" gradientUnits="userSpaceOnUse">
<stop stop-color="#482A0F"/>
<stop offset="0.1" stop-color="#A77129"/>
<stop offset="0.15" stop-color="white"/>
<stop offset="0.22" stop-color="#DA9E41"/>
<stop offset="0.34" stop-color="#8E5923"/>
<stop offset="0.5" stop-color="#D8A64D"/>
<stop offset="0.66" stop-color="#F5E380"/>
<stop offset="0.72" stop-color="#DAC164"/>
<stop offset="0.77" stop-color="white"/>
<stop offset="0.83" stop-color="#A0752B"/>
<stop offset="1" stop-color="#664219"/>
</linearGradient>
<linearGradient id="paint5_linear_789_12515" x1="38.7015" y1="31.5108" x2="-5.05186" y2="14.6936" gradientUnits="userSpaceOnUse">
<stop stop-color="#482A0F"/>
<stop offset="0.1" stop-color="#A77129"/>
<stop offset="0.15" stop-color="white"/>
<stop offset="0.22" stop-color="#DA9E41"/>
<stop offset="0.34" stop-color="#8E5923"/>
<stop offset="0.5" stop-color="#D8A64D"/>
<stop offset="0.66" stop-color="#F5E380"/>
<stop offset="0.72" stop-color="#DAC164"/>
<stop offset="0.77" stop-color="white"/>
<stop offset="0.83" stop-color="#A0752B"/>
<stop offset="1" stop-color="#664219"/>
</linearGradient>
<linearGradient id="paint6_linear_789_12515" x1="38.7015" y1="31.5108" x2="-5.05186" y2="14.6936" gradientUnits="userSpaceOnUse">
<stop stop-color="#482A0F"/>
<stop offset="0.1" stop-color="#A77129"/>
<stop offset="0.15" stop-color="white"/>
<stop offset="0.22" stop-color="#DA9E41"/>
<stop offset="0.34" stop-color="#8E5923"/>
<stop offset="0.5" stop-color="#D8A64D"/>
<stop offset="0.66" stop-color="#F5E380"/>
<stop offset="0.72" stop-color="#DAC164"/>
<stop offset="0.77" stop-color="white"/>
<stop offset="0.83" stop-color="#A0752B"/>
<stop offset="1" stop-color="#664219"/>
</linearGradient>
<linearGradient id="paint7_linear_789_12515" x1="38.7015" y1="31.5108" x2="-5.05186" y2="14.6936" gradientUnits="userSpaceOnUse">
<stop stop-color="#482A0F"/>
<stop offset="0.1" stop-color="#A77129"/>
<stop offset="0.15" stop-color="white"/>
<stop offset="0.22" stop-color="#DA9E41"/>
<stop offset="0.34" stop-color="#8E5923"/>
<stop offset="0.5" stop-color="#D8A64D"/>
<stop offset="0.66" stop-color="#F5E380"/>
<stop offset="0.72" stop-color="#DAC164"/>
<stop offset="0.77" stop-color="white"/>
<stop offset="0.83" stop-color="#A0752B"/>
<stop offset="1" stop-color="#664219"/>
</linearGradient>
<linearGradient id="paint8_linear_789_12515" x1="29.8299" y1="34.7263" x2="2.43139" y2="29.2865" gradientUnits="userSpaceOnUse">
<stop stop-color="#482A0F"/>
<stop offset="0.1" stop-color="#A77129"/>
<stop offset="0.15" stop-color="white"/>
<stop offset="0.22" stop-color="#DA9E41"/>
<stop offset="0.34" stop-color="#8E5923"/>
<stop offset="0.5" stop-color="#D8A64D"/>
<stop offset="0.66" stop-color="#F5E380"/>
<stop offset="0.72" stop-color="#DAC164"/>
<stop offset="0.77" stop-color="white"/>
<stop offset="0.83" stop-color="#A0752B"/>
<stop offset="1" stop-color="#664219"/>
</linearGradient>
<linearGradient id="paint9_linear_789_12515" x1="29.8299" y1="34.7263" x2="2.43139" y2="29.2865" gradientUnits="userSpaceOnUse">
<stop stop-color="#482A0F"/>
<stop offset="0.1" stop-color="#A77129"/>
<stop offset="0.15" stop-color="white"/>
<stop offset="0.22" stop-color="#DA9E41"/>
<stop offset="0.34" stop-color="#8E5923"/>
<stop offset="0.5" stop-color="#D8A64D"/>
<stop offset="0.66" stop-color="#F5E380"/>
<stop offset="0.72" stop-color="#DAC164"/>
<stop offset="0.77" stop-color="white"/>
<stop offset="0.83" stop-color="#A0752B"/>
<stop offset="1" stop-color="#664219"/>
</linearGradient>
<clipPath id="clip0_789_12515">
<rect width="8.15573" height="22.1951" fill="white" transform="translate(9.67969 7.40234)"/>
</clipPath>
<clipPath id="clip1_789_12515">
<rect width="8.84983" height="22.1951" fill="white" transform="matrix(-1 0 0 1 26.6855 7.40234)"/>
</clipPath>
</defs>
</svg>
