<svg width="36" height="35" viewBox="0 0 36 35" fill="none" xmlns="http://www.w3.org/2000/svg">
<path fill-rule="evenodd" clip-rule="evenodd" d="M20.5361 33.5737C20.4173 33.6268 20.3062 33.6544 20.2057 33.6682C20.3062 33.6575 20.4211 33.6565 20.5477 33.6777C20.9004 33.7032 21.913 34.7716 21.9526 34.9923C21.7468 34.8543 21.6888 34.6538 21.3294 34.6315C21.0888 34.6177 20.767 34.6167 20.5255 34.6008C19.8259 34.5562 19.9931 33.891 19.4926 33.8432L19.4791 33.7743L19.7293 33.7912C19.7999 33.7838 19.9525 33.7021 20.1738 33.6713C19.9516 33.6968 19.7873 33.6554 19.7168 33.665L19.4762 33.7435V33.6735C19.9516 33.5026 19.652 32.8958 20.3245 32.6772C20.5574 32.6029 20.8704 32.5223 21.1014 32.448C21.4473 32.3387 21.4618 32.1276 21.6347 31.9409C21.6415 32.1669 20.8753 33.4591 20.5371 33.5705L20.5361 33.5737ZM18.1988 34.2941C18.4124 34.2941 18.5853 34.1032 18.5853 33.8687C18.5853 33.6342 18.4114 33.4443 18.1988 33.4443C17.9863 33.4443 17.8114 33.6353 17.8114 33.8687C17.8114 34.1021 17.9853 34.2941 18.1988 34.2941ZM23.486 1.97854C23.8947 2.13344 24.2039 2.01886 24.3092 2.02629L24.5527 2.09207L24.5508 2.02098C24.0667 1.87669 24.3392 1.25495 23.658 1.07353C23.4232 1.01093 23.1053 0.947266 22.8715 0.885729C22.5217 0.794484 22.4966 0.585469 22.3169 0.408284C22.3207 0.634275 23.143 1.88411 23.486 1.97748V1.97854ZM12.8981 1.98597C12.4894 2.14088 12.1812 2.02522 12.0749 2.03371L11.8314 2.10056L11.8333 2.03053C12.3174 1.88517 12.0449 1.26344 12.7261 1.08201C12.9609 1.01941 13.2778 0.955749 13.5126 0.894212C13.8624 0.802967 13.8875 0.593952 14.0672 0.416767C14.0643 0.641697 13.2411 1.89261 12.8991 1.98597H12.8981ZM13.9803 33.2459C14.4122 33.2321 14.676 33.4432 14.7784 33.4708L15.0286 33.4878L15.0074 33.5546C14.5069 33.5334 14.5967 34.2167 13.8972 34.1647C13.6556 34.1467 13.3358 34.1031 13.0962 34.0851C12.7377 34.0575 12.6566 34.2485 12.4363 34.3589C12.501 34.1445 13.6276 33.2225 13.9803 33.2469V33.2459ZM14.0025 33.143C14.3803 33.3721 14.703 33.318 14.8064 33.3467L15.0364 33.4581L15.046 33.3891C14.5919 33.1546 14.9581 32.5934 14.3165 32.2857C14.0943 32.1796 13.7928 32.0565 13.5716 31.9525C13.2411 31.7955 13.2498 31.5854 13.1001 31.3764C13.0682 31.5982 13.6817 32.987 14.0035 33.144L14.0025 33.143ZM12.1763 32.5371C11.8295 32.465 10.6062 33.2247 10.5173 33.4284C10.7483 33.3499 10.8507 33.1706 11.2034 33.248C11.4401 33.3 11.7512 33.387 11.9889 33.4379C12.6759 33.5854 12.6653 32.8957 13.16 32.9849L13.1889 32.9223L12.9426 32.8703C12.8759 32.8427 12.7464 32.7228 12.5396 32.6326C12.7483 32.7186 12.9174 32.7228 12.9841 32.7515L13.1996 32.8926L13.216 32.8257C12.7928 32.5308 13.2199 32.0247 12.6189 31.631C12.4111 31.4942 12.1251 31.3319 11.9184 31.1971C11.6082 30.9966 11.6411 30.7886 11.5174 30.5616C11.4604 30.777 11.9097 32.239 12.2121 32.4385C12.3155 32.5212 12.4169 32.5796 12.5107 32.621C12.415 32.5828 12.3048 32.552 12.1773 32.5382L12.1763 32.5371ZM10.4671 31.5854C10.5927 31.6173 10.698 31.6629 10.7879 31.7138C10.699 31.6608 10.6053 31.5897 10.5115 31.4931C10.2352 31.2523 9.95692 29.7404 10.0381 29.5335C10.1357 29.7764 10.0796 29.978 10.3637 30.2199C10.554 30.3823 10.8178 30.5839 11.0091 30.7472C11.5609 31.2226 11.0787 31.665 11.4652 32.0162L11.441 32.0809L11.2439 31.9101C11.1802 31.8719 11.0062 31.8433 10.8024 31.7234C11.0072 31.8433 11.1251 31.9854 11.1889 32.0226L11.4275 32.1085L11.3918 32.1669C10.9116 32.0088 10.8429 32.6952 10.1782 32.4544C9.94823 32.3716 9.64869 32.2422 9.42067 32.1584C9.07862 32.0332 8.95784 32.1966 8.71919 32.2422C8.8303 32.0533 10.1308 31.4677 10.4661 31.5876L10.4671 31.5854ZM8.88055 30.4056C8.56169 30.2412 7.20414 30.6411 7.07177 30.8141C7.31333 30.8014 7.45343 30.656 7.77712 30.8279C7.99355 30.9425 8.27569 31.1133 8.49502 31.2268C9.12693 31.5568 9.27283 30.8862 9.73179 31.109L9.77334 31.056L9.54627 30.9382C9.4883 30.8947 9.38975 30.7419 9.20906 30.5987C9.39265 30.7377 9.55497 30.7886 9.61294 30.8343L9.7888 31.0305L9.82068 30.969C9.47767 30.5679 10.0062 30.1945 9.51342 29.6481C9.34337 29.4603 9.10374 29.2226 8.93369 29.0359C8.67957 28.7568 8.7588 28.5637 8.68923 28.3102C8.58488 28.5043 8.68923 30.0427 8.93465 30.3197C9.02451 30.4406 9.1192 30.5297 9.20906 30.5976C9.12114 30.5266 9.01292 30.4587 8.87958 30.4056H8.88055ZM7.44184 29.0157C7.56165 29.0836 7.6573 29.1621 7.7346 29.2407C7.6573 29.1621 7.57807 29.0645 7.50561 28.9383C7.29207 28.6295 7.3655 27.089 7.49208 26.9118C7.5317 27.1738 7.43121 27.3531 7.65151 27.6661C7.79934 27.8751 8.00901 28.1425 8.15684 28.3537C8.58391 28.9637 8.01674 29.2608 8.31047 29.7064L8.27182 29.7626L8.11916 29.543C8.06698 29.49 7.91142 29.4157 7.7462 29.2523C7.90949 29.421 7.98872 29.5844 8.04089 29.6364L8.25347 29.7839L8.20515 29.8306C7.77615 29.5462 7.55392 30.1913 6.96452 29.7754C6.76065 29.6332 6.49977 29.4242 6.29783 29.281C5.99636 29.0656 5.8408 29.1918 5.60021 29.1696C5.75094 29.0178 7.14327 28.8078 7.44087 29.0147L7.44184 29.0157ZM6.17415 27.4391C6.27947 27.5187 6.36256 27.6046 6.42923 27.6884C6.3645 27.6025 6.30169 27.4985 6.24758 27.3701C6.07173 27.0349 6.32101 25.5166 6.46595 25.3574C6.47464 25.6237 6.35483 25.7882 6.53745 26.1277C6.65919 26.3558 6.83795 26.6497 6.95969 26.8789C7.31236 27.5441 6.7162 27.7606 6.95679 28.2433L6.91234 28.2942L6.78674 28.0555C6.74132 27.995 6.59542 27.9017 6.44952 27.7149C6.59156 27.9027 6.65146 28.0778 6.69784 28.1372L6.89109 28.3133L6.83794 28.3537C6.44469 28.0131 6.15096 28.6221 5.61374 28.1277C5.42822 27.9569 5.19343 27.715 5.00888 27.5452C4.73351 27.2895 4.56635 27.3924 4.32962 27.3383C4.49678 27.2078 5.90167 27.1908 6.17415 27.438V27.4391ZM5.09681 25.6991C4.85525 25.4158 3.46002 25.2386 3.27837 25.3447C3.50737 25.4306 3.68515 25.3521 3.92864 25.6428C4.09193 25.8381 4.29677 26.1107 4.462 26.3049C4.93835 26.8683 5.30068 26.3038 5.65142 26.6975L5.70746 26.6646L5.53644 26.463C5.49779 26.3972 5.45721 26.2168 5.3374 26.0099C5.46011 26.2147 5.59441 26.3261 5.63306 26.394L5.73065 26.6476L5.7809 26.6041C5.59731 26.0916 6.21473 25.9601 5.93936 25.2513C5.84467 25.0062 5.70166 24.689 5.60601 24.4471C5.46301 24.0853 5.60118 23.9389 5.62243 23.6736C5.46011 23.8116 5.0398 25.2842 5.17604 25.6407C5.21469 25.7744 5.2659 25.8869 5.32001 25.9813C5.26396 25.889 5.1915 25.7914 5.09584 25.6991H5.09681ZM4.2272 23.8243C4.31127 23.9304 4.37214 24.0365 4.41755 24.1362C4.37407 24.0354 4.33735 23.9166 4.31417 23.7787C4.21948 23.4052 4.80597 22.0036 4.98279 21.8891C4.93158 22.149 4.77795 22.2753 4.87747 22.6551C4.94414 22.9087 5.05043 23.2429 5.11613 23.4986C5.30744 24.2391 4.68036 24.2848 4.80404 24.8184L4.74897 24.8556L4.68133 24.5903C4.65138 24.5192 4.53157 24.3887 4.43204 24.1681C4.52673 24.3898 4.54606 24.5744 4.57698 24.6444L4.72384 24.8683L4.66394 24.8927C4.36054 24.4545 3.93734 24.9638 3.52862 24.3389C3.38755 24.1224 3.2146 23.8243 3.07546 23.6089C2.86676 23.2874 2.68124 23.3405 2.46481 23.2227C2.65612 23.141 4.0214 23.5102 4.22817 23.8243H4.2272ZM3.57887 21.8445C3.40881 21.505 2.09764 20.9511 1.8986 21.0042C2.10054 21.1495 2.29089 21.1241 2.46095 21.471C2.57399 21.7044 2.7112 22.0249 2.82618 22.2583C3.15953 22.9341 3.63781 22.4875 3.88903 22.9638L3.95183 22.9479L3.83105 22.706C3.80786 22.6317 3.8098 22.4461 3.74216 22.2127C3.81463 22.444 3.91898 22.5914 3.9412 22.6657L3.97792 22.9384L4.03686 22.9097C3.97502 22.3633 4.6021 22.4036 4.49775 21.6429C4.46103 21.3808 4.39533 21.035 4.35861 20.774C4.30257 20.3835 4.46973 20.2795 4.55089 20.0281C4.36248 20.1172 3.62042 21.4275 3.67163 21.8105C3.67839 21.9517 3.70254 22.0737 3.73346 22.1798C3.69965 22.0747 3.6523 21.9612 3.5808 21.8445H3.57887ZM3.16242 19.7904C3.21943 19.9167 3.25422 20.0366 3.27547 20.1448C3.25711 20.0366 3.24745 19.9093 3.25615 19.7703C3.24938 19.383 4.13638 18.1862 4.33349 18.1236C4.22431 18.3602 4.04652 18.4408 4.05715 18.8355C4.06391 19.0997 4.09 19.452 4.09676 19.7172C4.11416 20.4854 3.49577 20.3591 3.49384 20.9098L3.43297 20.9299L3.42717 20.6551C3.41364 20.5756 3.32378 20.4111 3.27837 20.1618C3.32378 20.4111 3.29866 20.6021 3.31412 20.6806L3.40495 20.9374L3.34118 20.9437C3.14697 20.4366 2.62134 20.8143 2.36819 20.0981C2.28123 19.8498 2.18171 19.5135 2.09475 19.2663C1.96624 18.8971 1.77396 18.8981 1.59038 18.7252C1.79425 18.6997 3.03198 19.4307 3.16146 19.7904H3.16242ZM2.98464 17.696C2.89768 17.3204 1.75367 16.4239 1.54883 16.4218C1.71115 16.6191 1.9015 16.6446 1.98653 17.0276C2.04354 17.2854 2.10344 17.6313 2.16238 17.8902C2.33147 18.6371 2.89575 18.3337 3.03102 18.8642L3.09479 18.8663L3.03392 18.5979C3.02812 18.5194 3.07257 18.3411 3.05904 18.096C3.0774 18.3411 3.14407 18.5109 3.1489 18.5894L3.12281 18.8631L3.18658 18.8514C3.25132 18.305 3.84941 18.5151 3.91995 17.7512C3.94507 17.486 3.95859 17.1337 3.98178 16.8695C4.01657 16.477 4.20208 16.4207 4.33735 16.2011C4.13445 16.235 3.11798 17.3013 3.08029 17.6865C3.05517 17.8244 3.05034 17.9496 3.05614 18.061C3.04744 17.9507 3.02619 17.8265 2.98464 17.6939V17.696ZM3.04744 15.5932C3.0745 15.73 3.08126 15.8552 3.07643 15.9666C3.08319 15.8563 3.10252 15.7321 3.14213 15.5984C3.2233 15.2218 4.35378 14.304 4.55862 14.2977C4.39919 14.4982 4.20885 14.5269 4.12962 14.912C4.07647 15.1698 4.0214 15.5178 3.96729 15.7767C3.80883 16.5268 3.23972 16.234 3.11315 16.7666L3.04938 16.7687L3.10638 16.5014C3.11121 16.4228 3.0629 16.2446 3.07353 15.9995C3.05904 16.2446 2.9943 16.4165 2.9914 16.4939L3.02232 16.7677L2.95855 16.7571C2.88608 16.2128 2.29089 16.4345 2.20876 15.6706C2.17977 15.4064 2.16045 15.0542 2.13339 14.791C2.09281 14.3985 1.90633 14.3465 1.76816 14.129C1.97107 14.1598 3.00396 15.207 3.04744 15.591V15.5932ZM3.35084 13.5157C3.35084 13.1285 2.44742 11.9476 2.24837 11.8892C2.36142 12.1248 2.54018 12.2012 2.53534 12.5959C2.53245 12.86 2.51119 13.2133 2.50926 13.4786C2.50443 14.2478 3.11894 14.1099 3.12957 14.6595L3.19141 14.6796L3.19334 14.4038C3.20494 14.3263 3.289 14.1651 3.33151 13.9242C3.29383 14.1661 3.32089 14.3486 3.30639 14.4261L3.21847 14.6839L3.28224 14.6903C3.46872 14.1789 4.00014 14.547 4.24266 13.8255C4.32673 13.5762 4.42045 13.2388 4.50258 12.9895C4.62529 12.6181 4.81757 12.615 4.99922 12.4388C4.79534 12.4166 3.56824 13.1698 3.44456 13.5327C3.38659 13.6653 3.35277 13.7927 3.33345 13.9062C3.35277 13.7927 3.36243 13.6622 3.35084 13.5136V13.5157ZM3.88903 11.4967C3.88419 11.6378 3.86197 11.7609 3.83298 11.868C3.86487 11.7619 3.91125 11.6473 3.98082 11.5296C4.14508 11.1869 5.44851 10.6086 5.64852 10.6585C5.44851 10.8092 5.25817 10.7848 5.09294 11.1359C4.98279 11.3715 4.85042 11.694 4.7393 11.9296C4.41659 12.6118 3.93154 12.1736 3.68805 12.6542L3.62525 12.6394L3.74216 12.3953C3.76438 12.3211 3.75859 12.1354 3.82332 11.9009C3.75375 12.1343 3.6523 12.2818 3.63104 12.3571L3.59819 12.6309L3.53925 12.6033C3.59239 12.0569 2.96628 12.1089 3.05904 11.346C3.09092 11.0818 3.15276 10.7338 3.18561 10.4728C3.23489 10.0813 3.06677 9.98052 2.98174 9.73119C3.17112 9.81607 3.93347 11.1137 3.88806 11.4967H3.88903ZM4.65428 9.56886C4.74317 9.19327 4.13541 7.80232 3.95666 7.69197C4.0127 7.94979 4.16827 8.07392 4.07358 8.45588C4.01077 8.71052 3.91028 9.04579 3.84748 9.30361C3.66776 10.0463 4.29484 10.0813 4.17986 10.6171L4.23493 10.6521L4.29871 10.3858C4.32769 10.3147 4.44557 10.18 4.54123 9.95931C4.44944 10.1832 4.43398 10.3678 4.40306 10.4389L4.25909 10.6649L4.31996 10.6882C4.61659 10.2447 5.04753 10.7466 5.44561 10.1142C5.58379 9.89564 5.75191 9.59326 5.88815 9.37576C6.09202 9.05004 6.27753 9.09989 6.493 8.97894C6.30072 8.90149 4.94125 9.29619 4.7393 9.61236C4.65718 9.72058 4.59727 9.82774 4.55379 9.92853C4.59534 9.82668 4.63109 9.70785 4.65234 9.56886H4.65428ZM5.63499 7.76093C5.59828 7.89567 5.549 8.00814 5.49586 8.10469C5.55093 8.01132 5.62147 7.91159 5.71616 7.81716C5.95288 7.52963 7.34618 7.32805 7.5288 7.43096C7.30173 7.52115 7.12202 7.44582 6.88336 7.74077C6.72296 7.93812 6.52199 8.21397 6.36063 8.41238C5.89298 8.98425 5.52291 8.42723 5.17797 8.82616L5.12096 8.79539L5.28909 8.59063C5.32677 8.52485 5.36445 8.34341 5.4804 8.1344C5.36059 8.34129 5.22821 8.45694 5.19053 8.52378L5.09681 8.77949L5.0456 8.73598C5.22145 8.2214 4.60307 8.09939 4.86685 7.38641C4.95767 7.14026 5.09584 6.82196 5.18763 6.57687C5.32484 6.21083 5.18473 6.06653 5.15865 5.80341C5.3229 5.93815 5.76737 7.40231 5.63596 7.76199L5.63499 7.76093ZM6.81476 6.1026C6.98578 5.76415 6.7133 4.25012 6.56547 4.0931C6.56064 4.35834 6.68335 4.52068 6.50556 4.86444C6.38672 5.09467 6.21376 5.3928 6.09492 5.62409C5.75191 6.29464 6.35193 6.50048 6.11811 6.98748L6.16352 7.03628L6.28526 6.79543C6.32971 6.73389 6.47464 6.63734 6.61765 6.44955C6.47754 6.64052 6.42054 6.81559 6.37512 6.87607L6.18574 7.05643L6.23889 7.09464C6.62731 6.74663 6.9307 7.35139 7.46019 6.84742C7.64281 6.67342 7.87374 6.42727 8.05539 6.25433C8.3269 5.99439 8.49599 6.09305 8.73175 6.03576C8.56266 5.90738 7.15777 5.91799 6.88916 6.16944C6.7848 6.25114 6.70364 6.33814 6.63794 6.42408C6.70074 6.33708 6.76258 6.23098 6.81476 6.1026ZM8.17423 4.6204C8.38294 4.30847 8.28632 2.76898 8.15781 2.59392C8.12206 2.85704 8.22544 3.03423 8.00998 3.3504C7.86601 3.56154 7.65924 3.83315 7.51527 4.04747C7.09786 4.66602 7.66987 4.95249 7.38193 5.40235L7.42155 5.45859L7.57034 5.23684C7.62059 5.18167 7.77615 5.10634 7.93944 4.9387C7.77905 5.11058 7.70175 5.27504 7.64958 5.32809L7.44087 5.4798L7.48918 5.52649C7.91432 5.23366 8.14525 5.87556 8.72885 5.44904C8.93079 5.30156 9.1878 5.0883 9.38781 4.94189C9.68638 4.7212 9.84291 4.84427 10.0845 4.81881C9.93083 4.66921 8.5356 4.48459 8.2409 4.69679C8.12786 4.76363 8.03606 4.83897 7.96263 4.9143C8.0351 4.83685 8.10853 4.74029 8.1752 4.61934L8.17423 4.6204ZM9.69314 3.33767C9.61391 3.44801 9.52985 3.53289 9.44965 3.59973C9.53178 3.53501 9.6313 3.47241 9.75015 3.42254C10.0671 3.25172 11.4294 3.62838 11.5647 3.79814C11.3232 3.78965 11.1811 3.64748 10.8603 3.82466C10.6458 3.94243 10.3656 4.11856 10.1482 4.23633C9.52115 4.57903 9.36462 3.9106 8.9105 4.14083L8.86702 4.08885L9.09215 3.96683C9.15012 3.92121 9.24481 3.76844 9.42356 3.6199C9.24191 3.76313 9.08055 3.81724 9.02355 3.86498L8.85059 4.06445L8.81774 4.00398C9.15399 3.59656 8.61967 3.2337 9.10471 2.6788C9.27187 2.48676 9.50859 2.24485 9.67575 2.05599C9.926 1.77164 9.84387 1.58068 9.90861 1.32498C10.0159 1.51702 9.93663 3.05757 9.69314 3.33873V3.33767ZM11.3473 2.27456C11.6198 2.02841 11.8758 0.51013 11.7908 0.30642C11.6971 0.550448 11.757 0.752039 11.4758 0.999249C11.2884 1.1637 11.0265 1.3706 10.8381 1.53824C10.2941 2.02205 10.7821 2.45705 10.4014 2.8146L10.4275 2.87932L10.6226 2.70533C10.6845 2.66607 10.8507 2.6353 11.0478 2.51859C10.8536 2.64061 10.7415 2.77853 10.6787 2.81672L10.442 2.9069L10.4777 2.96526C10.956 2.79869 11.0343 3.48303 11.6961 3.22945C11.9251 3.14245 12.2227 3.00664 12.4498 2.91857C12.7889 2.78595 12.9126 2.94829 13.1522 2.98966C13.0382 2.80293 11.729 2.24167 11.3947 2.36686C11.2642 2.40188 11.1541 2.45386 11.0623 2.5101C11.1541 2.45386 11.2526 2.37854 11.3483 2.27456H11.3473ZM15.8383 33.6862C15.4866 33.7106 14.4731 34.7801 14.4334 35.0007C14.6392 34.8618 14.6972 34.6612 15.0567 34.64C15.2972 34.6252 15.619 34.6252 15.8606 34.6092C16.5591 34.5636 16.3929 33.8984 16.8925 33.8517L16.906 33.7827L16.6558 33.7997C16.5843 33.7923 16.4326 33.7106 16.2113 33.6798C16.4335 33.7053 16.5978 33.6639 16.6683 33.6735L16.9089 33.752V33.6809C16.4335 33.5111 16.7331 32.9042 16.0606 32.6867C15.8287 32.6114 15.5146 32.5308 15.2837 32.4576C14.9378 32.3483 14.9233 32.1382 14.7504 31.9504C14.7436 32.1753 15.5108 33.4697 15.848 33.5811C15.9678 33.6331 16.0789 33.6607 16.1784 33.6756C16.078 33.6639 15.963 33.6639 15.8364 33.6851L15.8383 33.6862ZM22.4048 33.2384C22.2773 33.2342 22.1632 33.2512 22.0647 33.2756C22.1623 33.248 22.2705 33.2045 22.3826 33.1366C22.7043 32.9796 23.3179 31.5918 23.286 31.369C23.1362 31.578 23.1449 31.7881 22.8154 31.9451C22.5942 32.0491 22.2917 32.1722 22.0705 32.2783C21.4289 32.587 21.7941 33.1472 21.341 33.3817L21.3497 33.4517L21.5796 33.3403C21.6492 33.3223 21.8173 33.3403 22.0347 33.2851C21.8183 33.3456 21.6763 33.4464 21.6067 33.4644L21.3564 33.4825L21.3777 33.5483C21.8782 33.527 21.7883 34.2093 22.4879 34.1594C22.7295 34.1414 23.0493 34.0979 23.2889 34.0798C23.6483 34.0522 23.7285 34.2432 23.9488 34.3525C23.8841 34.1392 22.7575 33.2162 22.4048 33.2395V33.2384ZM24.2087 32.5297C24.5556 32.4576 25.7789 33.2172 25.8678 33.4199C25.6368 33.3414 25.5344 33.1631 25.1817 33.2406C24.946 33.2926 24.6339 33.3796 24.3962 33.4305C23.7092 33.578 23.7198 32.8883 23.2251 32.9774L23.1971 32.9149L23.4435 32.8629C23.5102 32.8353 23.6387 32.7154 23.8474 32.6252C23.6377 32.7101 23.4686 32.7154 23.4029 32.744L23.1874 32.8862L23.17 32.8183C23.5933 32.5233 23.1662 32.0173 23.7681 31.6226C23.9759 31.4857 24.2619 31.3223 24.4687 31.1876C24.7788 30.987 24.746 30.7791 24.8706 30.552C24.9276 30.7685 24.4783 32.2294 24.1769 32.431C24.0735 32.5138 23.9711 32.5721 23.8773 32.6125C23.972 32.5743 24.0831 32.5435 24.2107 32.5297H24.2087ZM25.918 31.578C25.7934 31.6088 25.6861 31.6555 25.5962 31.7064C25.6851 31.6523 25.7789 31.5812 25.8716 31.4846C26.1489 31.2438 26.4272 29.7308 26.346 29.5239C26.2484 29.768 26.3045 29.9696 26.0204 30.2115C25.8301 30.3738 25.5653 30.5754 25.375 30.7398C24.8233 31.2141 25.3054 31.6565 24.9189 32.0077L24.944 32.0724L25.1411 31.9016C25.2049 31.8634 25.3788 31.8348 25.5827 31.7149C25.3788 31.8348 25.26 31.9769 25.1962 32.0151L24.9576 32.1011L24.9933 32.1594C25.4735 32.0013 25.5412 32.6878 26.2069 32.447C26.4369 32.3631 26.7374 32.2348 26.9644 32.1499C27.3065 32.0247 27.4282 32.1881 27.6659 32.2337C27.5548 32.0438 26.2542 31.4602 25.919 31.5791L25.918 31.578ZM27.5045 30.3971C27.8234 30.2327 29.1809 30.6327 29.3133 30.8056C29.0718 30.7929 28.9326 30.6475 28.608 30.8194C28.3915 30.934 28.1094 31.1037 27.8901 31.2183C27.2582 31.5494 27.1113 30.8777 26.6533 31.1006L26.6117 31.0475L26.8388 30.9297C26.8977 30.8852 26.9953 30.7335 27.176 30.5892C26.9924 30.7292 26.8301 30.7801 26.7721 30.8247L26.5963 31.021L26.5644 30.9594C26.9074 30.5584 26.3789 30.1849 26.8717 29.6385C27.0427 29.4497 27.2813 29.2131 27.4514 29.0263C27.7055 28.7462 27.6272 28.5542 27.6958 28.2996C27.8002 28.4937 27.6968 30.0321 27.4504 30.3091C27.3644 30.4236 27.2746 30.5107 27.1895 30.5775C27.2755 30.5096 27.3799 30.4459 27.5065 30.395L27.5045 30.3971ZM28.9432 29.0083C28.8292 29.073 28.7374 29.1473 28.6621 29.2205C28.7355 29.1441 28.8099 29.0486 28.8785 28.9298C29.092 28.621 29.0186 27.0805 28.892 26.9012C28.8534 27.1643 28.9539 27.3447 28.7326 27.6566C28.5848 27.8656 28.3751 28.133 28.2273 28.3452C27.8002 28.9552 28.3674 29.2523 28.0736 29.6979L28.1123 29.7542L28.265 29.5345C28.3171 29.4815 28.4717 29.4083 28.6379 29.2438C28.4746 29.4115 28.3954 29.5749 28.3432 29.6279L28.1316 29.7754L28.179 29.8231C28.608 29.5388 28.8302 30.1839 29.4196 29.769C29.6235 29.6258 29.8834 29.4178 30.0863 29.2746C30.3878 29.0592 30.5433 29.1844 30.7839 29.1632C30.6332 29.0094 29.2408 28.8003 28.9432 29.0083ZM30.2109 27.4306C30.1056 27.5102 30.0225 27.5961 29.9568 27.6799C30.0206 27.594 30.0844 27.49 30.1385 27.3627C30.3153 27.0264 30.066 25.5081 29.9201 25.3489C29.9114 25.6152 30.0312 25.7797 29.8476 26.1192C29.7259 26.3463 29.5471 26.6412 29.4254 26.8715C29.0727 27.5356 29.6689 27.7521 29.4283 28.2348L29.4727 28.2858L29.5983 28.047C29.6438 27.9876 29.7897 27.8932 29.9356 27.7075C29.7935 27.8964 29.7336 28.0704 29.6872 28.1287L29.494 28.3048L29.5471 28.3452C29.9404 28.0035 30.2341 28.6136 30.7713 28.1202C30.9569 27.9505 31.1926 27.7075 31.3762 27.5378C31.6516 27.2831 31.8187 27.385 32.0555 27.3309C31.8883 27.2004 30.4824 27.1844 30.2109 27.4306ZM31.2892 25.6906C31.5308 25.4083 32.926 25.2301 33.1067 25.3373C32.8777 25.4221 32.6999 25.3447 32.4564 25.6354C32.2931 25.8296 32.0883 26.1022 31.9231 26.2975C31.4467 26.8609 31.0854 26.2975 30.7337 26.69L30.6767 26.6582L30.8477 26.4566C30.8873 26.3908 30.9269 26.2105 31.0467 26.0036C30.923 26.2083 30.7897 26.3208 30.7511 26.3876L30.6535 26.6412L30.6032 26.5977C30.7868 26.0853 30.1704 25.9526 30.4448 25.245C30.5395 24.9999 30.6825 24.6826 30.7771 24.4407C30.9201 24.0779 30.782 23.9315 30.7598 23.6662C30.9221 23.8041 31.3433 25.2768 31.2071 25.6333C31.1665 25.7744 31.1115 25.8922 31.0544 25.9887C31.1115 25.8922 31.1868 25.7892 31.2873 25.6906H31.2892ZM32.1588 23.8158C32.0748 23.9219 32.0139 24.028 31.9685 24.1277C32.011 24.0269 32.0487 23.9081 32.0719 23.7702C32.1666 23.3967 31.5801 21.9952 31.4033 21.8806C31.4545 22.1405 31.6091 22.2657 31.5086 22.6466C31.4419 22.8991 31.3366 23.2344 31.2699 23.4901C31.0786 24.2296 31.7057 24.2763 31.582 24.81L31.6371 24.846L31.7047 24.5808C31.7347 24.5097 31.8554 24.3792 31.954 24.1596C31.8593 24.3813 31.84 24.5659 31.8091 24.636L31.6622 24.8588L31.7231 24.8832C32.0255 24.4439 32.4497 24.9543 32.8574 24.3304C32.9985 24.1139 33.1714 23.8158 33.3106 23.5994C33.5183 23.2779 33.7048 23.3309 33.9222 23.2142C33.7299 23.1336 32.3656 23.5028 32.1588 23.8158ZM32.8072 21.8349C32.9772 21.4954 34.2884 20.9416 34.4874 20.9957C34.2855 21.1411 34.0952 21.1145 33.9251 21.4625C33.8111 21.696 33.6749 22.0164 33.5589 22.2498C33.2256 22.9256 32.7473 22.4779 32.497 22.9554L32.4342 22.9394L32.555 22.6975C32.5782 22.6233 32.5753 22.4376 32.6439 22.2042C32.5705 22.4365 32.4671 22.5829 32.4448 22.6572L32.4081 22.9299L32.3492 22.9012C32.411 22.3548 31.7839 22.3951 31.8893 21.6355C31.926 21.3724 31.9917 21.0265 32.0294 20.7655C32.0854 20.3761 31.9183 20.271 31.8371 20.0207C32.0255 20.1098 32.7685 21.4201 32.7173 21.8031C32.7096 21.9442 32.6864 22.0673 32.6555 22.1723C32.6893 22.0684 32.7366 21.9538 32.8081 21.836L32.8072 21.8349ZM33.2246 19.7819C33.1637 19.9146 33.1289 20.0398 33.1077 20.1533C33.128 20.0398 33.1396 19.9093 33.1299 19.7607C33.1367 19.3745 32.2497 18.1767 32.0526 18.1141C32.1617 18.3496 32.3395 18.4313 32.3289 18.826C32.3221 19.0902 32.296 19.4424 32.2893 19.7087C32.2729 20.4779 32.8893 20.3496 32.8912 20.9013L32.9521 20.9225L32.9579 20.6477C32.9714 20.5703 33.0574 20.41 33.1038 20.1713C33.0623 20.4111 33.0864 20.5957 33.0719 20.6721L32.9801 20.9299L33.0439 20.9363C33.2391 20.4291 33.7637 20.8069 34.0169 20.0907C34.1048 19.8435 34.2043 19.5061 34.2903 19.2589C34.4188 18.8907 34.6111 18.8907 34.7947 18.7188C34.5908 18.6934 33.3531 19.4244 33.2236 19.7841L33.2246 19.7819ZM33.4024 17.6875C33.4903 17.312 34.6333 16.4154 34.8392 16.4133C34.6768 16.6096 34.4865 16.6361 34.4015 17.0202C34.3444 17.2759 34.2845 17.6239 34.2256 17.8817C34.0565 18.6276 33.4913 18.3252 33.357 18.8557H33.2932L33.355 18.5904C33.3608 18.5098 33.3144 18.3252 33.3309 18.0706C33.3144 18.3241 33.2439 18.5013 33.24 18.5809L33.2661 18.8546L33.2024 18.843C33.1376 18.2966 32.5395 18.5088 32.469 17.7427C32.4439 17.4775 32.4304 17.1252 32.4062 16.8621C32.3714 16.4695 32.1859 16.4133 32.0516 16.1937C32.2545 16.2287 33.271 17.2939 33.3077 17.679C33.3338 17.8233 33.3376 17.9549 33.3299 18.0706C33.3376 17.9549 33.3579 17.8265 33.4024 17.6865V17.6875ZM33.3396 15.5847C33.3831 15.2006 34.4159 14.1534 34.6189 14.1226C34.4797 14.3401 34.2942 14.3921 34.2527 14.7857C34.2256 15.0478 34.2063 15.4 34.1773 15.6653C34.0952 16.4292 33.5 16.2075 33.4265 16.7517L33.3628 16.7624L33.3927 16.4886C33.3898 16.409 33.3212 16.2308 33.3096 15.9772C33.3038 15.8616 33.2855 15.7321 33.242 15.591C33.1608 15.2144 32.0303 14.2977 31.8245 14.2913C31.984 14.4908 32.1743 14.5205 32.2535 14.9056C32.3067 15.1624 32.3618 15.5114 32.4159 15.7703C32.5734 16.5194 33.1434 16.2276 33.27 16.7602L33.3338 16.7634L33.2768 16.495C33.2719 16.4154 33.3222 16.2308 33.3087 15.9762C33.3029 15.8605 33.3087 15.73 33.3367 15.5847H33.3396ZM33.0362 13.5072C33.0362 13.12 33.9396 11.9391 34.1377 11.8797C34.0256 12.1152 33.8468 12.1927 33.8517 12.5874C33.8546 12.8515 33.8758 13.2049 33.8778 13.4712C33.8836 14.2393 33.2671 14.1014 33.2574 14.6531L33.1956 14.6722V14.3964C33.1821 14.32 33.098 14.1587 33.0555 13.9178C33.0932 14.1598 33.0661 14.3433 33.0806 14.4186L33.1686 14.6775L33.1038 14.6828C32.9173 14.1714 32.3859 14.5396 32.1444 13.8181C32.0603 13.5688 31.9666 13.2303 31.8835 12.9821C31.7608 12.6118 31.5685 12.6086 31.3878 12.4314C31.5917 12.4091 32.8188 13.1624 32.9415 13.5253C33.0004 13.659 33.0333 13.7852 33.0526 13.8988C33.0342 13.7852 33.0246 13.6547 33.0362 13.5062V13.5072ZM32.498 11.4882C32.5028 11.6293 32.525 11.7524 32.554 11.8585C32.5221 11.7534 32.4758 11.6378 32.4062 11.52C32.2419 11.1784 30.9385 10.5991 30.7385 10.6489C30.9385 10.7985 31.1298 10.7752 31.2941 11.1264C31.4042 11.3619 31.5366 11.6845 31.6477 11.92C31.9704 12.6022 32.4555 12.163 32.699 12.6447L32.7618 12.6298L32.6458 12.3868C32.6236 12.3126 32.6294 12.1269 32.5637 11.8924C32.6333 12.1248 32.7347 12.2744 32.756 12.3486L32.7888 12.6213L32.8478 12.5937C32.7946 12.0473 33.4207 12.0993 33.328 11.3354C33.2951 11.0733 33.2343 10.7253 33.2014 10.4643C33.1521 10.0739 33.3202 9.97097 33.4053 9.72269C33.2159 9.80863 32.4535 11.1052 32.499 11.4882H32.498ZM31.7318 9.55931C31.6429 9.18478 32.2506 7.79276 32.4284 7.68242C32.3733 7.94024 32.2178 8.06438 32.3115 8.44527C32.3743 8.69991 32.4748 9.03624 32.5376 9.293C32.7173 10.0368 32.0893 10.0718 32.2052 10.6076L32.1501 10.6426L32.0864 10.3763C32.0574 10.3052 31.9395 10.1715 31.8439 9.95081C31.9347 10.1736 31.9511 10.3593 31.982 10.4293L32.125 10.6564L32.0651 10.6797C31.7685 10.2362 31.3366 10.7381 30.9385 10.1057C30.8003 9.88716 30.6322 9.58583 30.496 9.36727C30.2921 9.04154 30.1056 9.09141 29.8911 8.97046C30.0844 8.893 31.4429 9.28663 31.6448 9.60386C31.7318 9.71739 31.7926 9.82985 31.8371 9.93489C31.7936 9.82985 31.755 9.70573 31.7318 9.55931ZM30.7511 7.75138C30.7916 7.90098 30.8477 8.023 30.9066 8.12379C30.8496 8.02087 30.7742 7.91265 30.6699 7.80656C30.4332 7.52009 29.0399 7.31744 28.8573 7.42035C29.0843 7.51054 29.264 7.43521 29.5027 7.73123C29.6631 7.92857 29.8641 8.20442 30.0264 8.40177C30.494 8.9747 30.8641 8.41663 31.209 8.81662L31.2661 8.78585L31.0979 8.58107C31.0593 8.51529 31.0226 8.33387 30.9066 8.12485C31.0274 8.33068 31.1588 8.4474 31.1965 8.51424L31.2902 8.76993L31.3414 8.72644C31.1656 8.21186 31.7839 8.08984 31.5202 7.37791C31.4293 7.13176 31.2912 6.81134 31.1994 6.56732C31.0622 6.20233 31.2023 6.05805 31.2284 5.79386C31.0641 5.92861 30.6206 7.39171 30.7511 7.75244V7.75138ZM29.5713 6.09306C29.4003 5.7546 29.6727 4.24058 29.8196 4.08355C29.8244 4.3488 29.7027 4.51112 29.8795 4.85488C29.9984 5.08405 30.1713 5.38219 30.2902 5.61455C30.6332 6.28403 30.0331 6.49092 30.267 6.97686L30.2216 7.02673L30.0998 6.78695C30.0554 6.72541 29.9104 6.62886 29.7674 6.44106C29.9066 6.63204 29.9645 6.80711 30.01 6.86758L30.2003 7.04688L30.1472 7.08614C29.7597 6.73707 29.4563 7.34184 28.9259 6.83893C28.7423 6.66599 28.5113 6.41879 28.3307 6.24478C28.0601 5.98484 27.891 6.08457 27.6543 6.02621C27.8234 5.89889 29.2292 5.90844 29.4969 6.1599C29.607 6.24584 29.6921 6.33815 29.7578 6.42833C29.6911 6.33815 29.6264 6.22886 29.5703 6.09412L29.5713 6.09306ZM28.2118 4.6098C28.2814 4.73711 28.3596 4.83685 28.436 4.91642C28.6031 5.09149 28.6833 5.26442 28.7365 5.31853L28.9461 5.47026L28.8969 5.51588C28.4727 5.22305 28.2398 5.866 27.6572 5.43842C27.4562 5.29094 27.1982 5.07876 26.9982 4.93128C26.6997 4.71165 26.5422 4.8326 26.3026 4.80714C26.4552 4.65648 27.8504 4.47293 28.1451 4.68618C28.264 4.75621 28.3587 4.83579 28.435 4.91536C28.6022 5.09149 28.7635 5.17 28.8147 5.22517L28.9635 5.44692L29.0032 5.39174C28.7152 4.93976 29.2872 4.65435 28.8698 4.0358C28.7258 3.82254 28.5191 3.54987 28.3751 3.33873C28.1596 3.02256 28.2621 2.84431 28.2273 2.58119C28.0988 2.75625 28.0012 4.29574 28.2099 4.60767L28.2118 4.6098ZM26.6939 3.32813C26.7731 3.43741 26.8572 3.52228 26.9374 3.59019C26.8552 3.52547 26.7557 3.46286 26.6369 3.413C26.3199 3.24324 24.9576 3.61883 24.8223 3.78859C25.0639 3.7801 25.2059 3.63687 25.5267 3.81512C25.7412 3.93395 26.0214 4.10901 26.2378 4.22784C26.8659 4.56948 27.0214 3.90212 27.4765 4.13235L27.519 4.08036L27.2949 3.95835C27.2369 3.91273 27.1412 3.75888 26.9635 3.61246C27.1451 3.7557 27.3065 3.80875 27.3635 3.8565L27.5364 4.0549L27.5693 3.99442C27.233 3.587 27.7673 3.2252 27.2823 2.66818C27.1151 2.4772 26.8784 2.2353 26.7122 2.04538C26.462 1.76104 26.5441 1.57006 26.4794 1.31436C26.3721 1.5064 26.4514 3.04695 26.6948 3.32918L26.6939 3.32813ZM25.0397 2.26501C24.7663 2.01886 24.5112 0.502707 24.5952 0.296875C24.689 0.541963 24.63 0.742493 24.9102 0.989704C25.0977 1.15522 25.3595 1.36105 25.5479 1.52868C26.0919 2.01249 25.604 2.4475 25.9847 2.80505L25.9595 2.86977L25.7644 2.69577C25.7025 2.65651 25.5354 2.62574 25.3392 2.50903C25.5334 2.63105 25.6455 2.76898 25.7083 2.80718L25.946 2.8963L25.9093 2.95359C25.431 2.78702 25.3528 3.47136 24.6909 3.21884C24.4629 3.13184 24.1643 2.99603 23.9382 2.90797C23.5991 2.7764 23.4754 2.93768 23.2367 2.97906C23.3507 2.79232 24.66 2.23106 24.9943 2.35626C25.1189 2.39021 25.2242 2.43796 25.3131 2.49101C25.2252 2.43583 25.1325 2.36262 25.0407 2.26395L25.0397 2.26501Z" fill="url(#paint0_linear_770_16242)"/>
<path fill-rule="evenodd" clip-rule="evenodd" d="M5.70067 23.1498C6.2147 22.2628 6.59732 21.2708 6.87076 20.2161C7.19445 18.9674 7.36934 17.6241 7.43601 16.2587C7.50944 14.7446 7.44953 13.1988 7.31426 11.7261C7.1616 10.055 6.91231 8.47523 6.6524 7.1352C7.6795 7.36119 8.77906 7.44183 9.88442 7.37711C11.1299 7.30496 12.386 7.04715 13.5532 6.6026C14.6073 6.20048 15.5919 5.6477 16.4393 4.94215C17.1118 4.383 17.6992 3.72625 18.1679 2.97294C18.6365 3.75277 19.2462 4.43605 19.9573 5.01747C20.8395 5.73788 21.8791 6.30339 23.0029 6.70126C24.1353 7.10231 25.3585 7.33573 26.5914 7.38772C27.6581 7.4344 28.7326 7.34528 29.7635 7.11611C29.578 8.1145 29.3857 9.22748 29.2253 10.3914C29.0379 11.7494 28.892 13.1945 28.8447 14.6417V14.6438C28.7925 16.2735 28.8707 17.8936 29.1625 19.3843C29.4418 20.8135 29.9191 22.127 30.667 23.2209C29.7027 24.8049 28.7258 26.1842 27.7403 27.364C26.7006 28.6086 25.6532 29.6303 24.602 30.4366C23.5932 31.2101 22.5806 31.7862 21.568 32.1703C20.5457 32.5586 19.5225 32.7517 18.5031 32.756C17.4954 32.7602 16.4828 32.5809 15.4731 32.2223C14.4479 31.8594 13.4256 31.313 12.4101 30.5926C11.2516 29.7703 10.1018 28.72 8.96651 27.4542C7.86115 26.2213 6.77028 24.7837 5.70067 23.1498ZM6.32485 20.0453C6.04754 21.1127 5.65719 22.1068 5.12576 22.979C5.05813 23.084 5.05426 23.2283 5.12576 23.3386C6.24948 25.0712 7.39736 26.5916 8.56166 27.8913C9.72499 29.19 10.9077 30.2679 12.1009 31.1157C13.1599 31.8679 14.2276 32.4366 15.2982 32.8164C16.363 33.1931 17.4335 33.3841 18.5031 33.3788C19.5844 33.3735 20.6685 33.1697 21.7497 32.7591C22.8115 32.356 23.8705 31.7544 24.9227 30.947C26.0107 30.113 27.089 29.0616 28.1538 27.7863C29.1983 26.5364 30.2312 25.0702 31.2486 23.3811C31.3143 23.2718 31.3124 23.1232 31.2341 23.015C30.4737 21.971 29.9935 20.6787 29.7152 19.2559C29.4331 17.8172 29.3587 16.248 29.4089 14.6672V14.664C29.4543 13.2539 29.5993 11.8311 29.7848 10.4837C29.9713 9.12774 30.1974 7.86517 30.4041 6.77235C30.4128 6.72885 30.4119 6.68216 30.4022 6.63548C30.3655 6.4689 30.2119 6.36705 30.0602 6.4063C28.9509 6.7002 27.776 6.81691 26.6107 6.76704C25.429 6.71611 24.258 6.49331 23.1739 6.10923C22.1081 5.73152 21.1245 5.19784 20.2926 4.51775C19.5158 3.88222 18.8713 3.1183 18.4191 2.23238C18.3959 2.18675 18.3611 2.14538 18.3167 2.11673C18.1824 2.02867 18.0084 2.07748 17.9282 2.22602C17.4645 3.0886 16.8364 3.8281 16.0963 4.44454C15.2953 5.1119 14.3638 5.63497 13.3677 6.01374C12.2517 6.43814 11.0497 6.68535 9.85447 6.75537C8.64379 6.82646 7.44277 6.71505 6.34804 6.42434C6.30746 6.41373 6.26398 6.41267 6.2205 6.42328C6.06783 6.46042 5.97121 6.62593 6.00503 6.79357C6.29296 8.2068 6.5809 9.94046 6.74999 11.7866C6.88236 13.2317 6.9413 14.7457 6.86883 16.2268C6.80506 17.5446 6.63597 18.84 6.32388 20.0453H6.32485ZM5.73835 16.1632C5.67554 17.4554 5.50839 18.718 5.19243 19.8703C4.91513 20.8846 4.52284 21.8119 3.98755 22.5949C3.87837 22.753 3.82039 22.945 3.81653 23.1413C3.81363 23.3301 3.86291 23.5232 3.96919 23.6898C5.17117 25.5794 6.40408 27.2367 7.65824 28.651C8.91143 30.0632 10.1888 31.2356 11.4855 32.1554C12.6372 32.9735 13.8034 33.5931 14.9803 34.0069C16.1494 34.4175 17.3273 34.6244 18.5099 34.6191C19.71 34.6138 20.9061 34.3909 22.0936 33.9443C23.2599 33.505 24.4213 32.8472 25.573 31.9645C26.7566 31.0563 27.9267 29.9104 29.0775 28.5184C30.2022 27.1592 31.3114 25.5603 32.4004 23.7163C32.5211 23.5402 32.5781 23.328 32.5695 23.1169C32.5617 22.9036 32.4873 22.6925 32.3463 22.5238C31.5926 21.6241 31.1192 20.4411 30.8447 19.1074C30.5665 17.7515 30.493 16.2385 30.5423 14.7064C30.5926 13.1245 30.7761 11.515 31.0003 10.0211C31.2245 8.53041 31.4921 7.14476 31.7095 6.01905L31.7114 6.00526C31.725 5.93099 31.7298 5.8546 31.7259 5.77714C31.7221 5.69651 31.7085 5.61481 31.6854 5.53736C31.6129 5.29227 31.4564 5.10235 31.2631 4.99413C31.0699 4.88591 30.838 4.85832 30.6148 4.9379L30.5124 4.97503L30.4911 4.98459C29.4089 5.36442 28.233 5.54478 27.0571 5.5363C25.8465 5.52781 24.6348 5.31879 23.5217 4.92517C22.4202 4.53472 21.4221 3.96285 20.6327 3.22546C19.91 2.55067 19.3621 1.73584 19.0703 0.793683L19.0674 0.784124V0.780951L19.05 0.723654C19.0481 0.715166 19.0452 0.707741 19.0423 0.699253L19.0394 0.689695C18.9689 0.473253 18.8703 0.306681 18.7341 0.188911C18.5872 0.0605316 18.4114 -0.0020698 18.1949 5.21726e-05H18.1756H18.1708C17.9785 0.0064181 17.82 0.0626598 17.6867 0.168759C17.5572 0.271675 17.4587 0.413848 17.3833 0.594216L17.3804 0.601637L17.3669 0.635596C17.3611 0.649389 17.3543 0.667415 17.3466 0.690757C17.0268 1.64565 16.4789 2.45942 15.7803 3.12997C15.0073 3.8716 14.0489 4.44241 13.0034 4.84028C11.8323 5.2859 10.5598 5.5172 9.31628 5.53417C8.06792 5.55221 6.84951 5.35487 5.79246 4.94533L5.77507 4.93896C5.70453 4.9135 5.62917 4.89758 5.5509 4.89333C5.47167 4.88909 5.38954 4.89759 5.30838 4.91881C5.07938 4.98034 4.89483 5.13737 4.78275 5.34214C4.67067 5.54585 4.62912 5.79729 4.68516 6.04769C5.00305 7.44819 5.36345 9.34525 5.57892 11.4121C5.73932 12.9494 5.81951 14.578 5.74318 16.161L5.73835 16.1632ZM5.73545 20.0485C5.43979 21.1286 5.01851 22.1206 4.43878 22.9683V22.9705C4.40206 23.0235 4.38274 23.0872 4.38177 23.1508C4.3808 23.2145 4.39723 23.2792 4.43201 23.3344C5.61564 25.1932 6.82825 26.8261 8.06309 28.2171C9.28923 29.5985 10.5347 30.7422 11.7917 31.6345C12.9019 32.4228 14.0237 33.0191 15.1503 33.4148H15.1513C16.2644 33.8063 17.3843 34.0026 18.5051 33.9973C19.6394 33.992 20.7747 33.7798 21.9072 33.3544C23.028 32.9321 24.143 32.3008 25.2464 31.4541C26.3924 30.5756 27.5306 29.4595 28.6553 28.0993C29.7635 26.7593 30.8563 25.1837 31.9288 23.3673L31.9424 23.3461C31.9839 23.2866 32.0042 23.2134 32.0013 23.1402C31.9984 23.0702 31.9733 23.0002 31.9259 22.9439C31.0998 21.9572 30.5839 20.6777 30.2892 19.2432C29.9993 17.831 29.923 16.2661 29.9732 14.6852C30.0254 13.0693 30.2109 11.4343 30.438 9.92136C30.666 8.40414 30.9336 7.01743 31.152 5.89066L31.1539 5.88218C31.1578 5.85884 31.1597 5.83443 31.1578 5.81003C31.1568 5.78456 31.152 5.75804 31.1443 5.73045C31.1201 5.64982 31.0679 5.58616 31.0032 5.55009C30.9385 5.51402 30.8612 5.50446 30.7868 5.53099L30.6843 5.56707C29.5394 5.97343 28.2949 6.16546 27.0523 6.15591C25.7827 6.14742 24.5121 5.92887 23.3459 5.51508C22.1748 5.10024 21.11 4.48911 20.2636 3.69761C19.4645 2.95173 18.8568 2.04459 18.5312 0.991025L18.5254 0.969797L18.5128 0.928417L18.5089 0.916748L18.5051 0.904017L18.5022 0.895533C18.4674 0.788374 18.4268 0.714106 18.3785 0.671666C18.337 0.635593 18.2771 0.617555 18.1969 0.617555H18.1843C18.1109 0.620738 18.0558 0.637713 18.0152 0.669542C17.9708 0.704555 17.9311 0.766088 17.8954 0.850967L17.8848 0.873257L17.8809 0.88174H17.8819L17.8751 0.899781C17.5205 1.95759 16.9176 2.85517 16.1485 3.59362C15.3194 4.38936 14.2962 4.99943 13.1831 5.42383C11.955 5.89172 10.6216 6.1347 9.31821 6.15274C8.00318 6.17184 6.71713 5.96387 5.59921 5.52992C5.57312 5.52038 5.54607 5.51402 5.51902 5.5119C5.49196 5.5119 5.46394 5.51401 5.43592 5.52144C5.36152 5.5416 5.30065 5.59465 5.26297 5.66255C5.22528 5.73045 5.21079 5.81534 5.22915 5.8981C5.55187 7.31982 5.9171 9.24445 6.13643 11.3399C6.29973 12.9049 6.38185 14.5674 6.30262 16.1908C6.23789 17.5329 6.063 18.8453 5.73448 20.0443L5.73545 20.0485Z" fill="url(#paint1_linear_770_16242)"/>
<path fill-rule="evenodd" clip-rule="evenodd" d="M5.35613 23.159C6.52333 21.2492 7.02866 18.7877 7.15137 16.2434C7.3166 12.8355 6.7987 9.26849 6.28081 6.72743C8.50989 7.31946 11.1612 7.18472 13.4599 6.3094C15.4406 5.55398 17.1711 4.25002 18.1721 2.38587C19.1451 4.28822 20.9607 5.65264 23.0883 6.40594C25.2903 7.18577 27.8412 7.31522 30.1282 6.7094C29.7098 8.91731 29.219 11.7968 29.1272 14.653C29.0238 17.8657 29.4325 21.0359 31.0142 23.2088C28.9784 26.5902 26.8827 29.0655 24.7628 30.692C22.6873 32.2845 20.5896 33.058 18.5036 33.0665C16.4155 33.076 14.3208 32.3195 12.2559 30.8532C9.89835 29.1801 7.58231 26.5881 5.35709 23.1579L5.35613 23.159ZM6.02089 16.1798C5.90011 18.6699 5.39671 21.0518 4.21212 22.7834C4.06815 22.9924 4.05559 23.2873 4.19956 23.5133C6.57937 27.2544 9.07803 30.0798 11.6376 31.8973C13.8898 33.4962 16.1914 34.3206 18.5065 34.3099C20.8244 34.2993 23.1376 33.4537 25.4092 31.7105C27.7175 29.9397 29.9833 27.2374 32.1669 23.5388C32.3331 23.3033 32.3254 22.9627 32.136 22.7367C30.5562 20.8513 30.1582 17.8116 30.2577 14.6976C30.3601 11.5008 30.9939 8.21069 31.4307 5.95715C31.451 5.85423 31.4471 5.7439 31.4152 5.63568C31.3186 5.30889 30.9988 5.12958 30.7012 5.23568L30.5997 5.27175C28.3407 6.07386 25.6894 6.02081 23.4342 5.22189C21.2418 4.44524 19.4418 2.96622 18.8012 0.894111L18.7963 0.877132L18.7789 0.819847L18.7751 0.807116C18.6678 0.470782 18.492 0.308445 18.1953 0.310567H18.1779C17.9122 0.319055 17.7509 0.459108 17.6397 0.724356C17.6291 0.747697 17.6185 0.772094 17.6108 0.797558C16.9044 2.90256 15.1604 4.34656 13.0937 5.13382C10.6878 6.05051 7.86445 6.08022 5.69624 5.23992C5.59575 5.20066 5.48367 5.19218 5.37255 5.22295C5.06916 5.30465 4.88364 5.64204 4.95804 5.97519C5.51652 8.43774 6.20544 12.4239 6.02379 16.1787L6.02089 16.1798Z" fill="url(#paint2_linear_770_16242)"/>
<path fill-rule="evenodd" clip-rule="evenodd" d="M4.66406 23.1566C7.784 18.5954 6.45931 10.0258 5.50565 5.82638C9.79472 7.49001 16.4936 5.92293 18.1419 1.01162C18.1816 0.906579 18.2057 0.903396 18.2405 1.01162C19.6096 5.66193 26.1065 7.5802 30.8778 5.82638C29.9975 10.3727 28.3192 19.0972 31.7203 23.1566C23.0397 37.899 13.1408 36.4783 4.66406 23.1566Z" stroke="#8F6137" stroke-width="0.303049" stroke-miterlimit="2.61"/>
<path fill-rule="evenodd" clip-rule="evenodd" d="M4.66406 23.1566C7.784 18.5954 6.45931 10.0258 5.50565 5.82638C9.79472 7.49001 16.4936 5.92293 18.1419 1.01162C18.1816 0.906579 18.2057 0.903396 18.2405 1.01162C19.6096 5.66193 26.1065 7.5802 30.8778 5.82638C29.9975 10.3727 28.3192 19.0972 31.7203 23.1566C23.0397 37.899 13.1408 36.4783 4.66406 23.1566Z" fill="url(#paint3_radial_770_16242)"/>
<path fill-rule="evenodd" clip-rule="evenodd" d="M4.66406 23.1583C7.784 18.5971 6.45931 10.0275 5.50565 5.82811C9.79472 7.49174 16.4936 5.92466 18.1419 1.01335C18.1787 0.915736 18.2018 0.906193 18.2337 0.993194V33.6844C13.5746 33.5655 8.93864 29.8765 4.66406 23.1583Z" fill="url(#paint4_radial_770_16242)"/>
<g clip-path="url(#clip0_770_16242)">
<path d="M12.2218 22.8392C12.0454 22.4867 11.869 22.1341 11.67 21.7213C11.5677 21.512 11.4881 21.3628 11.4085 21.2136C11.2273 20.7245 11.0524 20.2322 10.8611 19.748C10.8049 19.6057 10.5871 18.7222 10.4877 18.5624C10.3752 17.7402 10.3959 17.712 10.2843 16.8843C10.2237 16.247 10.1804 15.645 10.1302 14.9977C10.1248 14.8445 10.1261 14.7367 10.127 14.5568C10.1105 14.4009 10.0944 14.317 10.0782 14.2332C10.0782 14.2332 10.0817 14.1873 10.0779 14.1272C10.0709 13.9908 10.0677 13.9145 10.0645 13.8382C10.0815 13.3301 10.0986 12.8221 10.1061 12.2695C10.1018 12.1488 10.1071 12.0727 10.1138 11.9269C10.1098 11.8114 10.1042 11.7657 10.0987 11.72C10.0979 11.6065 10.097 11.4929 10.101 11.3171C10.1102 11.1738 10.1147 11.0929 10.1192 11.0119C10.1246 10.8057 10.1301 10.5995 10.1363 10.3051C10.1411 9.97827 10.145 9.73965 10.1905 9.49933C10.7141 9.46121 11.1962 9.42479 11.718 9.39358C13.0943 9.29637 14.3851 8.97058 15.596 8.32665C16.0914 8.06322 16.5445 7.70041 17.0454 7.38085C17.4198 7.14903 17.8133 6.97573 18.0988 6.67464C18.4374 6.31756 18.6891 6.29645 19.0026 6.70212C19.1658 6.84084 19.3123 6.95175 19.4761 7.08881C19.6303 7.21729 19.7671 7.31963 19.9323 7.44276C20.2114 7.60916 20.462 7.75478 20.7316 7.92958C21.1933 8.1666 21.6361 8.37446 22.1062 8.604C22.682 8.80154 23.2305 8.97738 23.779 9.15321C24.3013 9.23718 24.8235 9.32114 25.3852 9.39808C25.9134 9.44432 26.4021 9.49757 26.9704 9.55949C26.9704 10.2977 26.9704 11.0639 26.9789 11.8766C26.9851 12.0962 26.9829 12.2693 26.9799 12.5246C26.9841 12.716 26.9889 12.8251 26.9938 12.9342C26.9887 13.0416 26.9835 13.1491 26.978 13.3388C26.9826 13.5955 26.9875 13.7699 26.9923 13.9443C26.831 15.5064 26.7015 17.0737 26.4933 18.6279C26.4064 19.2767 26.1524 19.8976 25.9664 20.5594C25.5548 20.1191 25.1903 19.7292 24.7858 19.2881C24.7058 19.1037 24.6047 18.9491 24.635 18.8402C25.028 17.4303 25.1591 15.9779 25.1975 14.5144C25.226 13.4301 25.2031 12.3441 25.2031 11.2783C24.4669 11.1501 23.8155 11.0366 23.1319 10.9077C22.4105 10.6561 21.7213 10.4199 21.0096 10.1566C20.4511 9.83788 19.9151 9.54636 19.3629 9.23176C19.2689 9.16617 19.1911 9.12366 19.0955 9.0519C18.498 8.60348 18.498 8.60348 18.1457 9.07948C17.4721 9.44933 16.8338 9.81955 16.1597 10.194C16.0505 10.2111 15.9729 10.2109 15.9045 10.2389C14.6965 10.7323 13.4642 11.1031 12.1767 11.2334C12.067 11.2445 11.9015 11.4813 11.8903 11.6256C11.8543 12.0916 11.8783 12.5633 11.8733 13.0666C11.8709 13.1458 11.8745 13.1912 11.873 13.2784C11.8729 13.4601 11.878 13.6 11.8772 13.7737C11.8751 13.853 11.8788 13.8985 11.8764 13.9791C11.8898 14.2313 11.9093 14.4484 11.9296 14.7111C11.969 15.3283 12.0075 15.8998 12.0407 16.496C12.0378 16.5372 12.0402 16.5538 12.0403 16.6126C12.2476 17.5696 12.4573 18.4845 12.6705 19.4366C12.8139 19.789 12.9536 20.1041 13.1076 20.4531C13.3027 20.8318 13.4835 21.1767 13.6706 21.5531C13.7594 21.7003 13.8418 21.816 13.9366 21.9641C14.1012 22.1627 14.1711 22.3077 13.988 22.534C13.7091 22.8786 13.4695 23.2629 13.179 23.639C12.9903 23.5575 12.8358 23.4674 12.6788 23.345C12.5247 23.1549 12.3732 22.997 12.2218 22.8392Z" fill="url(#paint5_linear_770_16242)"/>
<path d="M17.631 25.3358C17.8539 25.5607 18.0768 25.7856 18.3263 26.0374C19.1987 25.1035 20.0595 24.1831 20.9191 23.2614C21.7593 22.3605 22.5968 21.4566 23.4398 20.559C23.5306 20.4624 23.6506 20.3993 23.7865 20.3333C24.1838 20.7809 24.5516 21.2159 24.8777 21.6015C24.2604 22.3156 23.6464 23.026 23.0204 23.7665C21.59 25.3069 20.1734 26.8192 18.7498 28.3234C18.6332 28.4465 18.4689 28.5146 18.2991 28.5975C17.2393 27.6345 16.207 26.6823 15.1442 25.7245C14.779 25.3358 14.4444 24.9529 14.0852 24.5418C14.4392 24.0834 14.8094 23.6039 15.2044 23.0924C15.4591 23.3316 15.6972 23.5552 15.9816 23.818C16.5623 24.3501 17.0966 24.843 17.631 25.3358Z" fill="url(#paint6_linear_770_16242)"/>
</g>
<g opacity="0.5" clip-path="url(#clip1_770_16242)">
<path d="M12.2218 22.8392C12.0454 22.4867 11.869 22.1341 11.67 21.7213C11.5677 21.512 11.4881 21.3628 11.4085 21.2136C11.2273 20.7245 11.0524 20.2322 10.8611 19.748C10.8049 19.6057 10.5871 18.7222 10.4877 18.5624C10.3752 17.7402 10.3959 17.712 10.2843 16.8843C10.2237 16.247 10.1804 15.645 10.1302 14.9977C10.1248 14.8445 10.1261 14.7367 10.127 14.5568C10.1105 14.4009 10.0944 14.317 10.0782 14.2332C10.0782 14.2332 10.0817 14.1873 10.0779 14.1272C10.0709 13.9908 10.0677 13.9145 10.0645 13.8382C10.0815 13.3301 10.0986 12.8221 10.1061 12.2695C10.1018 12.1488 10.1071 12.0727 10.1138 11.9269C10.1098 11.8114 10.1042 11.7657 10.0987 11.72C10.0979 11.6065 10.097 11.4929 10.101 11.3171C10.1102 11.1738 10.1147 11.0929 10.1192 11.0119C10.1246 10.8057 10.1301 10.5995 10.1363 10.3051C10.1411 9.97827 10.145 9.73965 10.1905 9.49933C10.7141 9.46121 11.1962 9.42479 11.718 9.39358C13.0943 9.29637 14.3851 8.97058 15.596 8.32665C16.0914 8.06322 16.5445 7.70041 17.0454 7.38085C17.4198 7.14903 17.8133 6.97573 18.0988 6.67464C18.4374 6.31756 18.6891 6.29645 19.0026 6.70212C19.1658 6.84084 19.3123 6.95175 19.4761 7.08881C19.6303 7.21729 19.7671 7.31963 19.9323 7.44276C20.2114 7.60916 20.462 7.75478 20.7316 7.92958C21.1933 8.1666 21.6361 8.37446 22.1062 8.604C22.682 8.80154 23.2305 8.97738 23.779 9.15321C24.3013 9.23718 24.8235 9.32114 25.3852 9.39808C25.9134 9.44432 26.4021 9.49757 26.9704 9.55949C26.9704 10.2977 26.9704 11.0639 26.9789 11.8766C26.9851 12.0962 26.9829 12.2693 26.9799 12.5246C26.9841 12.716 26.9889 12.8251 26.9938 12.9342C26.9887 13.0416 26.9835 13.1491 26.978 13.3388C26.9826 13.5955 26.9875 13.7699 26.9923 13.9443C26.831 15.5064 26.7015 17.0737 26.4933 18.6279C26.4064 19.2767 26.1524 19.8976 25.9664 20.5594C25.5548 20.1191 25.1903 19.7292 24.7858 19.2881C24.7058 19.1037 24.6047 18.9491 24.635 18.8402C25.028 17.4303 25.1591 15.9779 25.1975 14.5144C25.226 13.4301 25.2031 12.3441 25.2031 11.2783C24.4669 11.1501 23.8155 11.0366 23.1319 10.9077C22.4105 10.6561 21.7213 10.4199 21.0096 10.1566C20.4511 9.83788 19.9151 9.54636 19.3629 9.23176C19.2689 9.16617 19.1911 9.12366 19.0955 9.0519C18.498 8.60348 18.498 8.60348 18.1457 9.07948C17.4721 9.44933 16.8338 9.81955 16.1597 10.194C16.0505 10.2111 15.9729 10.2109 15.9045 10.2389C14.6965 10.7323 13.4642 11.1031 12.1767 11.2334C12.067 11.2445 11.9015 11.4813 11.8903 11.6256C11.8543 12.0916 11.8783 12.5633 11.8733 13.0666C11.8709 13.1458 11.8745 13.1912 11.873 13.2784C11.8729 13.4601 11.878 13.6 11.8772 13.7737C11.8751 13.853 11.8788 13.8985 11.8764 13.9791C11.8898 14.2313 11.9093 14.4484 11.9296 14.7111C11.969 15.3283 12.0075 15.8998 12.0407 16.496C12.0378 16.5372 12.0402 16.5538 12.0403 16.6126C12.2476 17.5696 12.4573 18.4845 12.6705 19.4366C12.8139 19.789 12.9536 20.1041 13.1076 20.4531C13.3027 20.8318 13.4835 21.1767 13.6706 21.5531C13.7594 21.7003 13.8418 21.816 13.9366 21.9641C14.1012 22.1627 14.1711 22.3077 13.988 22.534C13.7091 22.8786 13.4695 23.2629 13.179 23.639C12.9903 23.5575 12.8358 23.4674 12.6788 23.345C12.5247 23.1549 12.3732 22.997 12.2218 22.8392Z" fill="url(#paint7_linear_770_16242)"/>
<path d="M17.631 25.3358C17.8539 25.5607 18.0768 25.7856 18.3263 26.0374C19.1987 25.1035 20.0595 24.1831 20.9191 23.2614C21.7593 22.3605 22.5968 21.4566 23.4398 20.559C23.5306 20.4624 23.6506 20.3993 23.7865 20.3333C24.1838 20.7809 24.5516 21.2159 24.8777 21.6015C24.2604 22.3156 23.6464 23.026 23.0204 23.7665C21.59 25.3069 20.1734 26.8192 18.7498 28.3234C18.6332 28.4465 18.4689 28.5146 18.2991 28.5975C17.2393 27.6345 16.207 26.6823 15.1442 25.7245C14.779 25.3358 14.4444 24.9529 14.0852 24.5418C14.4392 24.0834 14.8094 23.6039 15.2044 23.0924C15.4591 23.3316 15.6972 23.5552 15.9816 23.818C16.5623 24.3501 17.0966 24.843 17.631 25.3358Z" fill="url(#paint8_linear_770_16242)"/>
</g>
<path d="M16.3594 14.41L18.0688 13.7441H19.1836V20.9149H17.9016V15.2398L16.6752 15.6188L16.3594 14.41Z" fill="url(#paint9_linear_770_16242)"/>
<defs>
<linearGradient id="paint0_linear_770_16242" x1="18.193" y1="35.0018" x2="18.193" y2="0.297934" gradientUnits="userSpaceOnUse">
<stop stop-color="#DBA73E"/>
<stop offset="0.16" stop-color="#D89D3A"/>
<stop offset="0.3" stop-color="#A46B28"/>
<stop offset="0.46" stop-color="#8E5723"/>
<stop offset="0.49" stop-color="#F4F3B8"/>
<stop offset="0.56" stop-color="#F7ED9A"/>
<stop offset="0.69" stop-color="#D5B767"/>
<stop offset="0.75" stop-color="#A76F29"/>
<stop offset="0.85" stop-color="#D0AB5B"/>
<stop offset="1" stop-color="#E0C77D"/>
</linearGradient>
<linearGradient id="paint1_linear_770_16242" x1="18.194" y1="34.1968" x2="18.194" y2="0.405351" gradientUnits="userSpaceOnUse">
<stop stop-color="#DBA73E"/>
<stop offset="0.16" stop-color="#D89D3A"/>
<stop offset="0.3" stop-color="#A46B28"/>
<stop offset="0.49" stop-color="#8E5723"/>
<stop offset="0.54" stop-color="#F4F3B8"/>
<stop offset="0.56" stop-color="#F7ED9A"/>
<stop offset="0.69" stop-color="#D5B767"/>
<stop offset="0.75" stop-color="#A76F29"/>
<stop offset="0.85" stop-color="#D0AB5B"/>
<stop offset="1" stop-color="#E0C77D"/>
</linearGradient>
<linearGradient id="paint2_linear_770_16242" x1="27.3358" y1="31.9737" x2="8.28446" y2="3.0983" gradientUnits="userSpaceOnUse">
<stop stop-color="#482A0F"/>
<stop offset="0.1" stop-color="#A77129"/>
<stop offset="0.15" stop-color="white"/>
<stop offset="0.22" stop-color="#DA9E41"/>
<stop offset="0.34" stop-color="#8E5923"/>
<stop offset="0.5" stop-color="#D8A64D"/>
<stop offset="0.66" stop-color="#F5E380"/>
<stop offset="0.72" stop-color="#DAC164"/>
<stop offset="0.77" stop-color="white"/>
<stop offset="0.83" stop-color="#A0752B"/>
<stop offset="1" stop-color="#664219"/>
</linearGradient>
<radialGradient id="paint3_radial_770_16242" cx="0" cy="0" r="1" gradientUnits="userSpaceOnUse" gradientTransform="translate(18.1922 18.5455) scale(22.1188 24.2882)">
<stop stop-color="#493211"/>
<stop offset="0.4" stop-color="#241909"/>
<stop offset="0.78" stop-color="#0A0604"/>
<stop offset="1" stop-color="#000002"/>
</radialGradient>
<radialGradient id="paint4_radial_770_16242" cx="0" cy="0" r="1" gradientUnits="userSpaceOnUse" gradientTransform="translate(18.4627 22.2533) scale(25.9557 28.5013)">
<stop stop-color="#937551"/>
<stop offset="1" stop-color="#393939"/>
</radialGradient>
<linearGradient id="paint5_linear_770_16242" x1="39.0862" y1="30.5108" x2="-4.66709" y2="13.6936" gradientUnits="userSpaceOnUse">
<stop stop-color="#482A0F"/>
<stop offset="0.1" stop-color="#A77129"/>
<stop offset="0.15" stop-color="white"/>
<stop offset="0.22" stop-color="#DA9E41"/>
<stop offset="0.34" stop-color="#8E5923"/>
<stop offset="0.5" stop-color="#D8A64D"/>
<stop offset="0.66" stop-color="#F5E380"/>
<stop offset="0.72" stop-color="#DAC164"/>
<stop offset="0.77" stop-color="white"/>
<stop offset="0.83" stop-color="#A0752B"/>
<stop offset="1" stop-color="#664219"/>
</linearGradient>
<linearGradient id="paint6_linear_770_16242" x1="39.0862" y1="30.5108" x2="-4.66709" y2="13.6936" gradientUnits="userSpaceOnUse">
<stop stop-color="#482A0F"/>
<stop offset="0.1" stop-color="#A77129"/>
<stop offset="0.15" stop-color="white"/>
<stop offset="0.22" stop-color="#DA9E41"/>
<stop offset="0.34" stop-color="#8E5923"/>
<stop offset="0.5" stop-color="#D8A64D"/>
<stop offset="0.66" stop-color="#F5E380"/>
<stop offset="0.72" stop-color="#DAC164"/>
<stop offset="0.77" stop-color="white"/>
<stop offset="0.83" stop-color="#A0752B"/>
<stop offset="1" stop-color="#664219"/>
</linearGradient>
<linearGradient id="paint7_linear_770_16242" x1="39.0862" y1="30.5108" x2="-4.66709" y2="13.6936" gradientUnits="userSpaceOnUse">
<stop stop-color="#482A0F"/>
<stop offset="0.1" stop-color="#A77129"/>
<stop offset="0.15" stop-color="white"/>
<stop offset="0.22" stop-color="#DA9E41"/>
<stop offset="0.34" stop-color="#8E5923"/>
<stop offset="0.5" stop-color="#D8A64D"/>
<stop offset="0.66" stop-color="#F5E380"/>
<stop offset="0.72" stop-color="#DAC164"/>
<stop offset="0.77" stop-color="white"/>
<stop offset="0.83" stop-color="#A0752B"/>
<stop offset="1" stop-color="#664219"/>
</linearGradient>
<linearGradient id="paint8_linear_770_16242" x1="39.0862" y1="30.5108" x2="-4.66709" y2="13.6936" gradientUnits="userSpaceOnUse">
<stop stop-color="#482A0F"/>
<stop offset="0.1" stop-color="#A77129"/>
<stop offset="0.15" stop-color="white"/>
<stop offset="0.22" stop-color="#DA9E41"/>
<stop offset="0.34" stop-color="#8E5923"/>
<stop offset="0.5" stop-color="#D8A64D"/>
<stop offset="0.66" stop-color="#F5E380"/>
<stop offset="0.72" stop-color="#DAC164"/>
<stop offset="0.77" stop-color="white"/>
<stop offset="0.83" stop-color="#A0752B"/>
<stop offset="1" stop-color="#664219"/>
</linearGradient>
<linearGradient id="paint9_linear_770_16242" x1="23.8055" y1="32.0158" x2="10.5825" y2="30.6463" gradientUnits="userSpaceOnUse">
<stop stop-color="#482A0F"/>
<stop offset="0.1" stop-color="#A77129"/>
<stop offset="0.15" stop-color="white"/>
<stop offset="0.22" stop-color="#DA9E41"/>
<stop offset="0.34" stop-color="#8E5923"/>
<stop offset="0.5" stop-color="#D8A64D"/>
<stop offset="0.66" stop-color="#F5E380"/>
<stop offset="0.72" stop-color="#DAC164"/>
<stop offset="0.77" stop-color="white"/>
<stop offset="0.83" stop-color="#A0752B"/>
<stop offset="1" stop-color="#664219"/>
</linearGradient>
<clipPath id="clip0_770_16242">
<rect width="8.15573" height="22.1951" fill="white" transform="translate(10.0645 6.40234)"/>
</clipPath>
<clipPath id="clip1_770_16242">
<rect width="8.84983" height="22.1951" fill="white" transform="matrix(-1 0 0 1 27.0703 6.40234)"/>
</clipPath>
</defs>
</svg>
