<svg width="36" height="35" viewBox="0 0 36 35" fill="none" xmlns="http://www.w3.org/2000/svg">
<path fill-rule="evenodd" clip-rule="evenodd" d="M9.59891 29.9553C8.38889 29.7781 7.38109 29.6957 6.37528 29.6986C5.38671 29.7016 4.39682 29.7876 3.21531 29.948C3.44736 30.3235 3.54483 30.4737 3.61644 30.583C3.75037 30.7886 3.79678 30.8593 4.34974 31.8181C4.37759 31.8669 4.37162 31.9289 4.33781 31.969L4.07525 32.3124C3.78352 32.6952 3.64362 32.8774 3.49179 33.086C3.34393 33.2879 3.18878 33.5066 2.89175 33.9244L2.5735 34.3728C3.70064 34.1606 4.65275 34.0666 5.60684 34.0739C6.61132 34.0812 7.61381 34.2 8.81986 34.41L9.59957 29.9545L9.59891 29.9553ZM6.37528 29.4493C7.42485 29.4464 8.47376 29.5346 9.74412 29.7249C9.74743 29.7249 9.75141 29.7249 9.75472 29.7263C9.81638 29.7395 9.85683 29.8051 9.8449 29.8729L9.02142 34.5769C9.01015 34.6426 8.95312 34.687 8.89212 34.6768C7.64696 34.4566 6.62458 34.332 5.60485 34.3239C4.58511 34.3159 3.56406 34.426 2.32155 34.6761C2.29105 34.6827 2.2579 34.6746 2.23137 34.6513C2.18165 34.609 2.17303 34.5303 2.21148 34.4763C2.41503 34.1905 2.57814 33.9609 2.71207 33.7713C3.01706 33.3419 3.17685 33.1173 3.3141 32.9299C3.47455 32.7105 3.6118 32.5311 3.90021 32.1527L4.11238 31.8757C3.60052 30.9884 3.55477 30.9184 3.43079 30.7281C3.34592 30.5969 3.22525 30.4117 2.92291 29.9196C2.91296 29.9035 2.907 29.8853 2.90435 29.8656C2.89639 29.7971 2.94015 29.7344 3.00247 29.7263C4.27482 29.5492 5.32439 29.4537 6.37462 29.45L6.37528 29.4493Z" fill="url(#paint0_linear_770_16066)"/>
<path fill-rule="evenodd" clip-rule="evenodd" d="M9.73263 29.8496C7.19722 29.4691 5.55226 29.496 3.01685 29.8496C3.80187 31.1292 3.34704 30.3155 4.25273 31.886C3.26482 33.1815 3.5897 32.7419 2.30078 34.5537C4.80039 34.0513 6.40955 34.1111 8.90915 34.5537C9.18365 32.9854 9.45814 31.4179 9.73263 29.8496Z" fill="url(#paint1_linear_770_16066)"/>
<path fill-rule="evenodd" clip-rule="evenodd" d="M26.2572 29.4749C27.5275 29.2846 28.5764 29.1957 29.626 29.1993C30.6769 29.2022 31.7265 29.2985 32.9981 29.4756C33.0605 29.4844 33.1042 29.5471 33.0963 29.6156C33.0936 29.636 33.0877 29.6543 33.0777 29.6696C32.7754 30.1624 32.6547 30.3476 32.5692 30.4789C32.4452 30.6699 32.4001 30.7391 31.8876 31.6264L32.0997 31.9042C32.3882 32.2819 32.5261 32.4627 32.6865 32.6814C32.8238 32.8688 32.9829 33.0934 33.2886 33.5228C33.4231 33.7124 33.5862 33.942 33.7891 34.2278C33.8276 34.2825 33.819 34.3605 33.7699 34.4028C33.7434 34.4254 33.7102 34.4334 33.6797 34.4269C32.4366 34.1768 31.4162 34.0674 30.3964 34.0747C29.3767 34.082 28.3543 34.2074 27.1092 34.4276C27.0488 34.4385 26.9911 34.394 26.9799 34.3277L26.1564 29.6236C26.1445 29.5558 26.1849 29.4902 26.2466 29.4778C26.2505 29.4771 26.2539 29.4764 26.2572 29.4764V29.4749ZM29.626 29.4487C28.6202 29.4458 27.6124 29.5274 26.4024 29.7053L27.1821 34.1607C28.3881 33.9508 29.3906 33.8319 30.3951 33.8246C31.3485 33.8173 32.3006 33.9114 33.4284 34.1236L33.1095 33.6752C32.8132 33.2574 32.6574 33.0387 32.5095 32.836C32.357 32.6282 32.2178 32.4452 31.9254 32.0632L31.6635 31.7198C31.6297 31.6797 31.6237 31.6177 31.6515 31.5688C32.2045 30.6101 32.2509 30.5386 32.3848 30.333C32.4558 30.223 32.5539 30.0735 32.786 29.6973C31.6045 29.5369 30.6146 29.4516 29.626 29.4479V29.4487Z" fill="url(#paint2_linear_770_16066)"/>
<path fill-rule="evenodd" clip-rule="evenodd" d="M26.2676 29.5977C28.803 29.2171 30.4479 29.2441 32.9834 29.5977C32.1983 30.8772 32.6532 30.0636 31.7475 31.634C32.7354 32.9296 32.4105 32.49 33.6994 34.3017C31.1998 33.7994 29.5907 33.8599 27.0911 34.3017C26.8166 32.7335 26.5421 31.1659 26.2676 29.5977Z" fill="url(#paint3_linear_770_16066)"/>
<path fill-rule="evenodd" clip-rule="evenodd" d="M5.14913 32.3577C5.21609 32.3548 5.28438 32.3541 5.354 32.357C6.3313 32.0128 9.26784 31.0876 9.44222 31.033C9.46012 31.0257 9.48067 31.0235 9.50123 31.0271C9.56289 31.0388 9.60466 31.1037 9.59339 31.1722C9.5914 31.1817 9.06098 34.4852 9.06098 34.5121C9.06098 34.5734 9.02053 34.6266 8.96351 34.6361C8.90119 34.6463 8.8435 34.5989 8.83422 34.5304C8.79046 34.2059 8.15329 33.665 7.3497 33.2341L7.34374 33.2311C6.64557 32.8571 5.82873 32.5786 5.16637 32.6071C5.16173 32.6071 5.15775 32.6071 5.1531 32.6071C5.09012 32.6071 5.03906 32.5509 5.03906 32.4816C5.03906 32.4758 5.07884 32.4576 5.15111 32.4299L5.14846 32.357L5.14913 32.3577ZM5.58009 32.3737C6.18676 32.4423 6.85708 32.6916 7.44386 33.0059L7.44982 33.0095C8.085 33.35 8.62669 33.7743 8.89057 34.1345C9.00395 33.412 9.25259 31.8568 9.33878 31.3173C8.69432 31.4937 6.41749 32.1178 5.58009 32.373V32.3737Z" fill="url(#paint4_linear_770_16066)"/>
<path fill-rule="evenodd" clip-rule="evenodd" d="M5.1543 32.4805C6.63748 32.4105 8.85663 33.8344 8.94747 34.5103C8.94747 34.4774 9.48186 31.1484 9.48186 31.1484C9.48186 31.1484 5.1543 32.4761 5.1543 32.4805Z" fill="url(#paint5_linear_770_16066)"/>
<path fill-rule="evenodd" clip-rule="evenodd" d="M30.8297 32.4078C30.168 32.3794 29.3512 32.6579 28.6523 33.0319L28.647 33.0348C27.8434 33.4657 27.2063 34.0067 27.1625 34.3311C27.1532 34.3997 27.0955 34.4471 27.0339 34.4369C26.9769 34.4274 26.9364 34.3742 26.9364 34.3129C26.9364 34.2859 26.4053 30.9825 26.404 30.973C26.3934 30.9052 26.4345 30.8396 26.4962 30.8279C26.5167 30.8243 26.5366 30.8264 26.5545 30.8337C26.7289 30.8884 29.6668 31.8136 30.6434 32.1578C30.7124 32.1548 30.7806 32.1556 30.8476 32.1585L30.845 32.2307C30.9172 32.2584 30.957 32.2766 30.957 32.2832C30.957 32.3524 30.906 32.4086 30.843 32.4086C30.8383 32.4086 30.8343 32.4086 30.8297 32.4078ZM28.5529 32.8066C29.1397 32.4931 29.8106 32.2431 30.4173 32.1745C29.5799 31.9186 27.3024 31.2952 26.658 31.1188C26.7448 31.6583 26.9928 33.2135 27.1062 33.936C27.37 33.5758 27.9117 33.1515 28.5469 32.8103L28.5529 32.8066Z" fill="url(#paint6_linear_770_16066)"/>
<path fill-rule="evenodd" clip-rule="evenodd" d="M30.8432 32.2832C29.36 32.2132 27.1409 33.6364 27.05 34.313C27.05 34.2802 26.5156 30.9512 26.5156 30.9512C26.5156 30.9512 30.8432 32.2788 30.8432 32.2832Z" fill="url(#paint7_linear_770_16066)"/>
<path fill-rule="evenodd" clip-rule="evenodd" d="M10.1164 1.75668C9.31216 2.36109 8.56559 3.05445 7.88599 3.82582C5.29555 6.76695 3.69302 10.8301 3.69302 15.3169C3.69302 19.8037 5.29555 23.8669 7.88599 26.808C10.4771 29.7499 14.0574 31.5697 18.011 31.5697C21.9647 31.5697 25.545 29.7499 28.1361 26.808C30.7265 23.8669 32.3291 19.8037 32.3291 15.3169C32.3291 10.8301 30.7265 6.76695 28.1361 3.82582C27.4492 3.0457 26.6914 2.34432 25.8765 1.73407V1.98415C26.641 2.56669 27.3531 3.23234 28.0022 3.96945C30.5595 6.87339 32.1414 10.8855 32.1414 15.3169C32.1414 19.7483 30.5595 23.7612 28.0022 26.6644C25.4455 29.5676 21.913 31.3633 18.011 31.3633C14.1091 31.3633 10.5772 29.5676 8.01992 26.6644C5.46264 23.7604 3.88065 19.7483 3.88065 15.3169C3.88065 10.8855 5.46264 6.87339 8.01992 3.96945C8.66041 3.24182 9.36255 2.58418 10.1164 2.00675V1.75668ZM21.7485 35C21.238 34.9723 18.9917 34.696 19.1806 32.0151C19.1806 32.0151 21.8917 31.8948 21.8513 34.9417C21.5503 34.3985 21.169 33.9093 20.7447 33.45C20.2972 32.9659 19.7986 32.5109 19.294 32.0589L19.2211 32.1573C19.7223 32.6064 20.2169 33.057 20.6638 33.5411C21.0802 33.9917 21.4535 34.47 21.7485 35ZM20.3144 27.3198C20.26 27.9381 20.1142 28.5476 19.9186 29.1535C19.7091 29.8031 19.4432 30.4461 19.1707 31.0914L19.2748 31.1446C19.5493 30.495 19.8171 29.8468 20.0266 29.1958C20.2262 28.5782 20.3747 27.9556 20.4298 27.3227C21.6769 30.0437 19.1906 31.2379 19.1906 31.2379C17.9554 28.9173 19.8669 27.5903 20.3144 27.3198ZM23.8828 0.725023C24.2137 0.900733 24.5392 1.08082 24.8455 1.28277C25.0782 1.43661 25.299 1.60284 25.5006 1.78875V1.79896C23.975 2.1183 23.8874 0.82345 23.8828 0.725023ZM25.492 1.67429C25.4528 1.35933 25.2327 0.561712 24.0094 0.700967C24.3098 0.862094 24.6055 1.02833 24.8826 1.21133C25.0968 1.35277 25.3017 1.50514 25.4913 1.67429H25.492ZM25.372 0.00249831C25.5603 0.35173 25.7519 0.695129 25.962 1.01447C26.1218 1.25725 26.2922 1.48692 26.4785 1.69252H26.4878C26.6489 -0.0149959 25.4621 -0.00114711 25.372 0.00249831ZM26.3738 1.69325C26.2041 1.49931 26.0476 1.28715 25.9004 1.06259C25.7101 0.772414 25.5337 0.461098 25.3613 0.144675C25.3388 1.50296 26.0834 1.67648 26.3738 1.69325ZM25.427 2.79635C25.7578 2.97206 26.0834 3.15214 26.389 3.3541C26.6218 3.50793 26.8425 3.67417 27.0441 3.86082V3.87102C25.5185 4.19036 25.431 2.89551 25.4263 2.79635H25.427ZM27.0361 3.74634C26.8465 3.57647 26.6423 3.42482 26.4275 3.28338C26.1497 3.10038 25.8546 2.93415 25.5543 2.77302C26.7776 2.63376 26.997 3.43065 27.0361 3.74634ZM26.9301 0.908754C27.0196 0.922607 28.1905 1.13331 27.7641 2.78396H27.7549C27.603 2.54409 27.4718 2.28672 27.3524 2.01696C27.1959 1.66262 27.0607 1.28788 26.9301 0.908754ZM27.6521 2.76427C27.3683 2.69282 26.6629 2.38078 26.8976 1.04728C27.0182 1.39214 27.1429 1.73189 27.2848 2.05341C27.3948 2.30203 27.5149 2.54117 27.6521 2.76427ZM28.3516 1.75886C28.4491 1.79531 29.7134 2.31005 28.9125 4.04965L28.9026 4.04673C28.7799 3.74416 28.6844 3.42555 28.6042 3.09601C28.4994 2.66293 28.4232 2.21308 28.3516 1.75886ZM28.7912 4.00007C28.4888 3.8528 27.7635 3.33587 28.2886 1.90468C28.3549 2.31807 28.4265 2.72636 28.522 3.12006C28.5949 3.42336 28.6824 3.71792 28.7918 4.00007H28.7912ZM26.8956 4.40034C27.2914 4.61104 27.6813 4.82612 28.0486 5.06817C28.3271 5.2519 28.5916 5.45095 28.8336 5.67478V5.68644C27.0063 6.06921 26.9016 4.51845 26.8962 4.39961L26.8956 4.40034ZM28.823 5.53771C28.5956 5.33502 28.3509 5.15275 28.0937 4.98361C27.7608 4.76415 27.4074 4.56584 27.0474 4.37263C28.5127 4.20567 28.7759 5.16077 28.823 5.53844V5.53771ZM29.6166 3.36722C29.7181 3.40587 31.0408 3.94393 30.2028 5.76226L30.1921 5.75862C30.0642 5.44293 29.9641 5.10901 29.8805 4.76488C29.7711 4.31212 29.6909 3.84186 29.6166 3.36649V3.36722ZM30.0761 5.7105C29.7599 5.55666 29.0014 5.01641 29.5503 3.5196C29.6193 3.95195 29.6949 4.37919 29.7943 4.7904C29.8712 5.10755 29.9621 5.41595 30.0761 5.7105ZM28.3198 6.36887C28.6824 6.64227 29.0385 6.92005 29.368 7.2197C29.6186 7.44791 29.8527 7.6885 30.0615 7.94879L30.0595 7.96045C28.2004 8.03701 28.3085 6.48625 28.3198 6.36814V6.36887ZM30.0702 7.81172C29.8732 7.57477 29.6564 7.35386 29.4257 7.14388C29.1267 6.87194 28.8044 6.61675 28.4749 6.36668C29.9462 6.44396 30.0755 7.43114 30.0708 7.81245L30.0702 7.81172ZM31.2033 4.90195C31.2981 4.97705 32.518 5.99849 31.1217 7.59737L31.1118 7.59008C31.07 7.21679 31.062 6.83475 31.074 6.4476C31.0905 5.9387 31.1429 5.42179 31.2026 4.90122L31.2033 4.90195ZM31.005 7.49968C30.7212 7.22992 30.0881 6.40313 31.0905 5.03756C31.0375 5.51146 30.9931 5.98172 30.9778 6.44396C30.9659 6.80048 30.9725 7.15336 31.0057 7.49968H31.005ZM32.341 7.22699C32.4299 7.31886 33.5703 8.55684 31.9286 10.0099L31.9193 10.0012C31.9213 9.60818 31.9591 9.21084 32.0194 8.8113C32.099 8.28563 32.2157 7.75776 32.341 7.22699ZM31.8192 9.89107C31.5573 9.56881 31.001 8.61882 32.2071 7.35094C32.0944 7.83432 31.9909 8.31552 31.9187 8.79307C31.863 9.16126 31.8265 9.52726 31.8192 9.8918V9.89107ZM29.3289 8.50873C29.7108 8.90316 30.0847 9.30124 30.4235 9.71974C30.6808 10.0383 30.9175 10.3679 31.1204 10.7171L31.1164 10.731C28.9132 10.451 29.2964 8.64434 29.3289 8.508V8.50873ZM31.1529 10.5575C30.9599 10.2381 30.7405 9.93481 30.5031 9.64172C30.1955 9.26187 29.858 8.89733 29.5106 8.53643C31.2311 8.92066 31.2212 10.1098 31.1529 10.5575ZM33.2732 9.31728C33.0796 9.90128 32.8953 10.4838 32.7541 11.0685C32.6467 11.5126 32.5645 11.9566 32.524 12.4006L32.534 12.4115C34.5317 10.9665 33.3654 9.43175 33.2739 9.31728H33.2732ZM32.4212 12.2642C32.1567 11.8691 31.623 10.7295 33.1101 9.44122C32.9351 9.97418 32.7707 10.505 32.6427 11.035C32.5439 11.444 32.4663 11.8538 32.4219 12.2642H32.4212ZM29.8951 10.9905C30.2525 11.4724 30.5999 11.9573 30.9076 12.4575C31.1409 12.8388 31.3511 13.2281 31.5222 13.6335L31.5162 13.6473C29.1976 13.0013 29.8427 11.1312 29.8951 10.9905ZM31.5785 13.468C31.4141 13.0969 31.2185 12.7374 31.0037 12.3867C30.7246 11.9318 30.4109 11.4892 30.0867 11.0489C31.8756 11.7305 31.7105 12.9999 31.5785 13.468ZM33.9807 12.1629C34.0503 12.2941 34.9255 14.0483 32.7116 15.0428L32.7037 15.0297C32.8217 14.6024 32.9808 14.1839 33.1638 13.7713C33.4052 13.2281 33.6883 12.6951 33.9807 12.1629ZM32.6274 14.8736C32.4378 14.4303 32.1136 13.1982 33.799 12.2497C33.5338 12.7352 33.2792 13.2223 33.0604 13.7151C32.8913 14.0957 32.7435 14.4814 32.6274 14.8736ZM30.1053 13.6757C30.462 14.1584 30.8101 14.6425 31.1177 15.1434C31.3511 15.524 31.5613 15.914 31.7324 16.3187L31.7264 16.3325C29.4085 15.6866 30.0529 13.8165 30.1053 13.675V13.6757ZM31.7881 16.1539C31.6236 15.7821 31.4287 15.4234 31.2132 15.0719C30.9341 14.6177 30.6205 14.1744 30.2962 13.7341C32.0851 14.4158 31.92 15.6851 31.7881 16.1532V16.1539ZM34.3546 14.9662C33.9807 15.4328 33.6167 15.9016 33.2918 16.3894C33.0445 16.7605 32.8217 17.1411 32.6367 17.5384L32.642 17.553C34.9812 17.0055 34.4024 15.1091 34.3546 14.9662ZM32.5863 17.3707C32.7634 17.0062 32.9715 16.6555 33.199 16.3143C33.494 15.8717 33.8229 15.4423 34.1617 15.0165C32.3503 15.6217 32.471 16.8968 32.5863 17.3707ZM29.801 16.1641C30.1583 16.646 30.5064 17.1301 30.8134 17.631C31.0468 18.0123 31.257 18.4017 31.428 18.807L31.4221 18.8209C29.1035 18.1749 29.7486 16.3048 29.801 16.1634V16.1641ZM31.4844 18.6415C31.32 18.2704 31.1244 17.911 30.9089 17.5603C30.6297 17.1054 30.3161 16.6628 29.9919 16.2224C31.7808 16.9041 31.6157 18.1735 31.4837 18.6415H31.4844ZM34.4176 17.8629C34.4302 18.0145 34.5509 20.01 32.162 19.8846L32.16 19.8686C32.4312 19.5361 32.7348 19.2306 33.0597 18.9412C33.4867 18.5613 33.9482 18.2092 34.4176 17.8629ZM32.1507 19.6929C32.1487 19.2029 32.3271 17.9351 34.2194 17.8578C33.793 18.1749 33.3753 18.4979 32.9875 18.8428C32.6884 19.1096 32.4067 19.3903 32.1507 19.6922V19.6929ZM29.4927 18.7946C29.7214 19.2853 29.8779 19.8168 29.9952 20.3724C30.1212 20.968 30.2028 21.5892 30.2803 22.2133L30.3811 22.1987C30.3029 21.5688 30.2213 20.944 30.0947 20.3469C29.9747 19.7811 29.8149 19.2379 29.5795 18.7356C31.6952 20.1121 30.3586 22.3125 30.3586 22.3125C28.4252 21.2291 29.2752 19.2314 29.492 18.7939L29.4927 18.7946ZM33.8381 23.2144C33.557 23.6051 32.219 25.2478 30.5548 23.7174C30.5548 23.7174 31.8716 21.5017 33.8527 23.1028C33.3402 23.0627 32.823 23.113 32.3026 23.2144C31.7536 23.3208 31.1986 23.4827 30.6417 23.6503L30.6689 23.7583C31.2225 23.5913 31.7735 23.4309 32.3211 23.3244C32.8316 23.2253 33.3382 23.1757 33.8381 23.2144ZM32.7335 25.9557C32.3841 26.2925 30.757 27.6785 29.3355 25.7946C29.3355 25.7946 31.0375 23.8268 32.7673 25.8463C32.2575 25.7013 31.727 25.6473 31.1847 25.6429C30.6132 25.6386 30.0257 25.6889 29.435 25.745L29.4436 25.8595C30.0304 25.8041 30.6132 25.7538 31.184 25.7581C31.7158 25.7625 32.2356 25.815 32.7335 25.9557ZM28.7461 21.2743C28.8502 21.8641 28.8668 22.4729 28.8369 23.0933C28.8044 23.759 28.7189 24.4356 28.6274 25.1151L28.7368 25.1326C28.829 24.448 28.9158 23.7663 28.9483 23.0999C28.9788 22.4678 28.9616 21.8459 28.8542 21.2422C30.6888 23.3886 28.6824 25.2456 28.6824 25.2456C26.9586 23.4673 28.3993 21.6599 28.7461 21.2743ZM31.2888 28.3668C30.8751 28.665 28.9748 29.8578 27.7323 27.6428C27.7323 27.6428 29.7904 25.8485 31.3392 28.2574C30.822 28.0212 30.2704 27.8776 29.7002 27.7843C29.0988 27.6858 28.4736 27.6435 27.8444 27.6056L27.8384 27.7274C28.463 27.7646 29.0842 27.8076 29.6843 27.9053C30.2439 27.9964 30.7836 28.1371 31.2895 28.3661L31.2888 28.3668ZM29.4874 30.5818C29.0159 30.7976 26.8797 31.6105 26.0018 29.101C26.0018 29.101 28.4026 27.7106 29.557 30.4811C29.073 30.1326 28.5379 29.8716 27.9743 29.6573C27.3809 29.432 26.7537 29.257 26.1205 29.0871L26.0933 29.2096C26.7212 29.3788 27.3445 29.5516 27.9372 29.7768C28.4895 29.9875 29.014 30.242 29.4867 30.581L29.4874 30.5818ZM27.18 23.716C27.2046 24.3153 27.1402 24.9211 27.0282 25.5299C26.9075 26.1825 26.7331 26.8379 26.5528 27.4963L26.6589 27.532C26.8406 26.8693 27.0169 26.2087 27.1376 25.5547C27.2523 24.9335 27.3166 24.316 27.2907 23.7014C28.821 26.119 26.5893 27.6348 26.5893 27.6348C25.12 25.5985 26.7849 24.0426 27.18 23.7167V23.716ZM27.0507 32.4096C26.5581 32.559 24.3469 33.0752 23.7588 30.4651C23.7588 30.4651 26.2975 29.413 27.1316 32.3192C26.6901 31.9065 26.1888 31.5755 25.6544 31.2861C25.0908 30.9813 24.4875 30.7225 23.8795 30.468L23.8384 30.5861C24.4424 30.8391 25.0411 31.0958 25.604 31.4005C26.1285 31.6834 26.6198 32.0086 27.0514 32.4096H27.0507ZM25.2685 25.7086C25.1777 26.3217 24.996 26.9196 24.7646 27.5101C24.5167 28.143 24.213 28.7663 23.9034 29.3904L24.0041 29.4509C24.3158 28.8225 24.6221 28.1947 24.87 27.5612C25.1054 26.9589 25.2911 26.3487 25.3832 25.7202C26.4659 28.525 23.914 29.5384 23.914 29.5384C22.8193 27.1339 24.8057 25.947 25.2685 25.7086ZM24.4537 33.7307C23.9458 33.7919 21.6882 33.9137 21.486 31.2343C21.486 31.2343 24.1447 30.6408 24.5465 33.6556C24.1705 33.1715 23.7237 32.7566 23.237 32.3768C22.7252 31.9772 22.1669 31.6156 21.6033 31.2576L21.5456 31.367C22.1052 31.7228 22.6595 32.0815 23.1707 32.4796C23.6474 32.8521 24.085 33.2589 24.453 33.7299L24.4537 33.7307ZM22.9154 26.9742C22.7928 27.5808 22.58 28.1656 22.3181 28.7408C22.0376 29.3576 21.7021 29.9598 21.36 30.5635L21.4575 30.6306C21.8016 30.0225 22.1397 29.4159 22.4208 28.7984C22.6874 28.2122 22.9042 27.6144 23.0295 26.9925C23.9637 29.8614 21.3633 30.7115 21.3633 30.7115C20.396 28.2421 22.4407 27.182 22.9154 26.9742ZM34.2054 20.438C34.1862 20.5889 33.8792 22.5604 31.5832 21.8247L31.5845 21.8087C31.9187 21.555 32.2794 21.3362 32.656 21.1379C33.1519 20.8776 33.675 20.6538 34.2048 20.4373L34.2054 20.438ZM31.613 21.6352C31.7151 21.1583 32.158 19.9714 34.0138 20.3811C33.5318 20.5802 33.0571 20.7872 32.6069 21.0235C32.2595 21.2057 31.9253 21.4062 31.613 21.6352ZM14.2524 34.9978C14.7622 34.9701 17.0092 34.6938 16.8196 32.0129C16.8196 32.0129 14.1091 31.8926 14.1496 34.9395C14.4506 34.3963 14.8318 33.9071 15.2562 33.4478C15.7037 32.9637 16.2023 32.5087 16.7069 32.0567L16.7798 32.1551C16.2792 32.6042 15.7839 33.0548 15.3371 33.5389C14.9207 33.9895 14.5474 34.4678 14.2524 34.9978ZM15.6858 27.3176C16.1334 27.5881 18.0442 28.9151 16.8096 31.2357C16.8096 31.2357 14.3233 30.0415 15.5704 27.3206C15.6255 27.9534 15.774 28.576 15.9736 29.1936C16.1838 29.8446 16.4516 30.4928 16.7254 31.1424L16.8295 31.0892C16.557 30.444 16.2918 29.8009 16.0816 29.1513C15.8861 28.5454 15.7402 27.9359 15.6858 27.3176ZM12.1174 0.722834C12.1134 0.82126 12.0253 2.11684 10.4996 1.79677V1.78657C10.7019 1.59992 10.9226 1.43442 11.1554 1.28059C11.461 1.07863 11.7872 0.898543 12.1174 0.722834ZM10.5083 1.6721C10.6979 1.50368 10.9028 1.35058 11.1176 1.20914C11.3954 1.02614 11.6904 0.859905 11.9908 0.698777C10.7682 0.559522 10.5474 1.35641 10.5083 1.6721ZM10.6276 0.000308922C10.5374 -0.00260742 9.35128 -0.017186 9.51173 1.6896H9.52101C9.70798 1.484 9.87838 1.25506 10.0375 1.01228C10.2477 0.692939 10.4386 0.34954 10.6269 0.000308922H10.6276ZM9.62577 1.69106C9.91617 1.67502 10.6608 1.50077 10.6375 0.142486C10.4652 0.459637 10.2895 0.770225 10.0985 1.0604C9.95131 1.28423 9.7955 1.49639 9.62511 1.69106H9.62577ZM10.5726 2.79416C10.5686 2.89259 10.4804 4.18817 8.95479 3.86883V3.85863C9.15635 3.67198 9.3778 3.50575 9.61052 3.35192C9.91684 3.14996 10.2424 2.96987 10.5726 2.79416ZM8.96341 3.74416C9.00253 3.42847 9.22265 2.63157 10.4453 2.77083C10.1449 2.93196 9.84921 3.09819 9.57206 3.28119C9.3579 3.42263 9.15303 3.57502 8.96341 3.74416ZM9.06949 0.906565C8.93887 1.28569 8.80362 1.66043 8.64714 2.01477C8.5278 2.28453 8.39651 2.5419 8.24402 2.78031H8.23474C7.80842 1.13039 8.97932 0.919687 9.06883 0.905835L9.06949 0.906565ZM8.34745 2.76208C8.4847 2.53825 8.60471 2.29984 8.71477 2.05122C8.85666 1.7297 8.98131 1.38995 9.10198 1.04509C9.33735 2.37859 8.63123 2.69063 8.34745 2.76208ZM7.64796 1.75668C7.57702 2.2109 7.50011 2.66074 7.39602 3.09382C7.31645 3.42263 7.22031 3.74198 7.09765 4.04455L7.08704 4.04746C6.28611 2.30786 7.5505 1.79313 7.64796 1.75668ZM7.20837 3.99788C7.31711 3.71573 7.40463 3.42117 7.47823 3.11787C7.57304 2.7249 7.64531 2.31589 7.71162 1.9025C8.23739 3.33369 7.51138 3.85061 7.20904 3.99788H7.20837ZM9.10397 4.39815C9.09866 4.51699 8.9939 6.06775 7.1666 5.68499V5.67332C7.40861 5.44949 7.67316 5.25044 7.95163 5.06671C8.31828 4.82466 8.70881 4.60959 9.10397 4.39888V4.39815ZM7.17655 5.53552C7.22362 5.15785 7.48685 4.20275 8.95213 4.36971C8.59211 4.56292 8.23805 4.76196 7.90588 4.98069C7.64862 5.15056 7.40397 5.3321 7.17655 5.53479V5.53552ZM6.38291 3.36503C6.30865 3.8404 6.22843 4.31066 6.11903 4.76342C6.03549 5.10755 5.93537 5.44074 5.8074 5.75716L5.7968 5.7608C4.9594 3.94174 6.28147 3.40368 6.38291 3.36576V3.36503ZM5.92343 5.70831C6.03747 5.41376 6.1283 5.10463 6.20522 4.78821C6.30467 4.377 6.38026 3.94976 6.44921 3.51741C6.9982 5.01422 6.2397 5.55448 5.92343 5.70831ZM7.67979 6.36668C7.6904 6.48479 7.79913 8.03555 5.94001 7.95899L5.93868 7.94733C6.14687 7.68631 6.38158 7.44572 6.63155 7.21824C6.96107 6.91859 7.31712 6.64081 7.67979 6.36741V6.36668ZM5.9294 7.80954C5.9241 7.42823 6.05405 6.44104 7.5253 6.36376C7.19578 6.61456 6.87355 6.86902 6.57453 7.14096C6.34379 7.35094 6.12632 7.57186 5.9294 7.80881V7.80954ZM4.79629 4.89976C4.85596 5.4196 4.90834 5.93652 4.92558 6.44615C4.93818 6.83329 4.92956 7.2146 4.88779 7.58862L4.87784 7.59591C3.48217 5.9963 4.70214 4.97486 4.79629 4.90049V4.89976ZM4.99453 7.49749C5.02769 7.15117 5.03365 6.7983 5.02238 6.44177C5.00713 5.97954 4.96205 5.50927 4.90967 5.03537C5.91283 6.40021 5.27964 7.227 4.9952 7.49749H4.99453ZM3.65854 7.22481C3.78385 7.75486 3.90054 8.28344 3.98011 8.80911C4.03978 9.20865 4.07824 9.606 4.08022 9.99897L4.07094 10.0077C2.42929 8.55466 3.5697 7.31595 3.65854 7.22481ZM4.18034 9.88888C4.17239 9.52507 4.13592 9.15834 4.08022 8.79015C4.00795 8.31333 3.90452 7.83213 3.79181 7.34802C4.99785 8.6159 4.44157 9.56662 4.17968 9.88815L4.18034 9.88888ZM6.67066 8.50654C6.70315 8.64288 7.08638 10.4488 4.88315 10.7295L4.87917 10.7157C5.08206 10.3664 5.31809 10.0369 5.57535 9.71828C5.91415 9.29978 6.28809 8.9017 6.67 8.50727L6.67066 8.50654ZM4.84668 10.5553C4.77773 10.1076 4.76844 8.91847 6.48833 8.53424C6.14157 8.89514 5.80343 9.25969 5.49578 9.63954C5.25842 9.93263 5.03896 10.2367 4.84602 10.5553H4.84668ZM2.72632 9.31509C2.63483 9.42956 1.46857 10.9643 3.46626 12.4093L3.47621 12.3984C3.4351 11.9544 3.35288 11.5104 3.24614 11.0664C3.10491 10.4824 2.91993 9.89909 2.72632 9.31509ZM3.57831 12.2621C3.53389 11.8516 3.45632 11.4426 3.35753 11.0328C3.2289 10.5028 3.06513 9.97127 2.89009 9.43904C4.37726 10.7273 3.84286 11.8669 3.57898 12.2621H3.57831ZM6.10444 10.9883C6.15682 11.1291 6.80128 12.9992 4.48334 13.6451L4.47738 13.6313C4.64844 13.2266 4.85795 12.8366 5.092 12.4553C5.39965 11.9544 5.74774 11.4703 6.10444 10.9883ZM4.42168 13.4658C4.28974 12.9977 4.12465 11.7284 5.91349 11.0467C5.58927 11.487 5.27566 11.9296 4.99653 12.3845C4.78104 12.7352 4.58611 13.0947 4.42168 13.4658ZM2.0202 12.1607C2.3126 12.6929 2.59571 13.2259 2.83705 13.7691C3.02005 14.1817 3.17851 14.6002 3.29719 15.0275L3.28924 15.0406C1.07539 14.0461 1.95059 12.2927 2.0202 12.1607ZM3.37344 14.8714C3.25741 14.4785 3.10956 14.0928 2.94048 13.7129C2.72169 13.2201 2.46708 12.7338 2.20187 12.2475C3.88728 13.196 3.56306 14.4282 3.37344 14.8714ZM5.89559 13.6736C5.94797 13.815 6.59243 15.6844 4.27449 16.3311L4.26852 16.3172C4.43958 15.9126 4.6491 15.5225 4.88248 15.1419C5.19013 14.6411 5.53822 14.1562 5.89492 13.6743L5.89559 13.6736ZM4.21283 16.1517C4.08089 15.6829 3.91579 14.4136 5.70464 13.7326C5.38042 14.173 5.06747 14.6155 4.78767 15.0705C4.57219 15.4219 4.37726 15.7806 4.21283 16.1524V16.1517ZM1.64626 14.964C1.59852 15.1069 1.0197 17.0033 3.35885 17.5508L3.36416 17.5362C3.17917 17.1389 2.95573 16.7583 2.70909 16.3872C2.38421 15.8995 2.01954 15.4306 1.64626 14.964ZM3.41454 17.3686C3.52991 16.8947 3.65059 15.6195 1.8392 15.0143C2.17801 15.4401 2.50686 15.8696 2.80191 16.3121C3.02933 16.6533 3.23685 17.004 3.41454 17.3686ZM6.19991 16.1619C6.25229 16.3034 6.89675 18.1735 4.57882 18.8194L4.57285 18.8056C4.74391 18.4002 4.95409 18.0109 5.18748 17.6296C5.49446 17.1287 5.84254 16.6446 6.19991 16.1627V16.1619ZM4.51716 18.6393C4.38455 18.1713 4.22012 16.9019 6.00896 16.2203C5.68541 16.6606 5.3718 17.1039 5.092 17.5581C4.87652 17.9088 4.68159 18.2682 4.51716 18.6393ZM1.58393 17.8607C2.05335 18.2077 2.51482 18.5591 2.94181 18.939C3.26669 19.2284 3.57036 19.5347 3.84153 19.8664L3.83955 19.8824C1.45067 20.0078 1.57134 18.0116 1.58393 17.8607ZM3.85082 19.6907C3.59489 19.3881 3.3131 19.1074 3.01408 18.8413C2.62621 18.4957 2.20917 18.1727 1.78218 17.8563C3.67445 17.9336 3.85281 19.2015 3.85082 19.6914V19.6907ZM6.50889 18.7925C6.7257 19.2299 7.57503 21.2276 5.64231 22.311C5.64231 22.311 4.30565 20.1099 6.42136 18.7341C6.18665 19.2365 6.0262 19.7796 5.90686 20.3454C5.78088 20.9425 5.69867 21.5674 5.62043 22.1973L5.72121 22.2119C5.79879 21.5878 5.88034 20.9666 6.00631 20.3709C6.12367 19.8154 6.28014 19.2839 6.50889 18.7932V18.7925ZM2.16342 23.2122C2.66334 23.1735 3.16989 23.2231 3.68042 23.3223C4.22808 23.4287 4.77905 23.5891 5.33268 23.7561L5.35986 23.6482C4.80292 23.4805 4.24797 23.3186 3.69899 23.2122C3.17851 23.1115 2.66135 23.0605 2.14883 23.1006C4.12995 21.4996 5.44672 23.7152 5.44672 23.7152C3.78253 25.2456 2.44454 23.603 2.16342 23.2122ZM3.26802 25.9535C3.76595 25.8128 4.28576 25.7603 4.81751 25.7559C5.38837 25.7516 5.97117 25.8019 6.55795 25.8573L6.56723 25.7428C5.97648 25.6874 5.38904 25.6364 4.81751 25.6407C4.27515 25.6451 3.74473 25.6991 3.2342 25.8442C4.96404 23.8246 6.66602 25.7924 6.66602 25.7924C5.2445 27.6763 3.61743 26.2904 3.26802 25.9535ZM7.25545 21.2721C7.60288 21.6578 9.04363 23.4652 7.3191 25.2434C7.3191 25.2434 5.31279 23.3864 7.14738 21.24C7.03997 21.8437 7.02273 22.4656 7.05323 23.0977C7.08572 23.7648 7.17258 24.4458 7.26407 25.1304L7.37347 25.1129C7.28198 24.4334 7.19644 23.7568 7.16396 23.0911C7.13346 22.4707 7.15069 21.8619 7.25413 21.2721H7.25545ZM4.71341 28.3646C5.21864 28.1349 5.75901 27.995 6.3186 27.9038C6.9193 27.8061 7.53989 27.7638 8.16512 27.7259L8.15916 27.6042C7.52995 27.6421 6.90471 27.6844 6.30335 27.7828C5.73315 27.8761 5.18151 28.0197 4.66435 28.256C6.21318 25.8471 8.27121 27.6413 8.27121 27.6413C7.02803 29.857 5.12847 28.6635 4.71474 28.3653L4.71341 28.3646ZM6.51552 30.5796C6.98892 30.2405 7.51271 29.9854 8.06501 29.7754C8.65775 29.5501 9.281 29.3773 9.90888 29.2082L9.8817 29.0857C9.24917 29.2555 8.62129 29.4298 8.02788 29.6558C7.46497 29.8702 6.92991 30.1312 6.44524 30.4797C7.60023 27.7099 10.0004 29.0995 10.0004 29.0995C9.12253 31.609 6.98626 30.7961 6.51485 30.5803L6.51552 30.5796ZM8.82285 23.7138C9.21801 24.0397 10.8829 25.5963 9.4136 27.6319C9.4136 27.6319 7.18186 26.1161 8.71212 23.6985C8.68626 24.3131 8.75123 24.9314 8.86594 25.5518C8.98661 26.2058 9.16232 26.8663 9.34465 27.5291L9.45073 27.4934C9.27039 26.835 9.09535 26.1803 8.97534 25.527C8.86329 24.9175 8.79898 24.3124 8.82351 23.713L8.82285 23.7138ZM8.95213 32.4074C9.3831 32.0064 9.87506 31.6812 10.3995 31.3983C10.9618 31.0936 11.5605 30.8369 12.1652 30.5839L12.124 30.4658C11.5154 30.721 10.9127 30.9791 10.3491 31.2839C9.81473 31.5733 9.31282 31.905 8.87125 32.317C9.70533 29.4108 12.2441 30.4629 12.2441 30.4629C11.656 33.073 9.44476 32.5568 8.95213 32.4074ZM10.7343 25.7064C11.1971 25.9448 13.1829 27.1317 12.0882 29.5362C12.0882 29.5362 9.53626 28.5228 10.619 25.718C10.7111 26.3465 10.8968 26.9567 11.1322 27.559C11.3801 28.1933 11.6865 28.8203 11.9981 29.4488L12.0988 29.3882C11.7892 28.7641 11.4856 28.1415 11.2376 27.5079C11.0062 26.9174 10.8245 26.3195 10.7337 25.7064H10.7343ZM11.5492 33.7285C11.9172 33.2568 12.3548 32.8499 12.8315 32.4781C13.3427 32.08 13.8963 31.7213 14.4559 31.3655L14.3982 31.2562C13.8347 31.6141 13.2764 31.9758 12.7645 32.3753C12.2785 32.7544 11.8317 33.17 11.4557 33.6541C11.8575 30.6386 14.5162 31.2328 14.5162 31.2328C14.314 33.9122 12.0564 33.7912 11.5485 33.7292L11.5492 33.7285ZM13.0874 26.9721C13.5615 27.1798 15.6063 28.2399 14.6396 30.7093C14.6396 30.7093 12.0392 29.8592 12.9734 26.9903C13.098 27.6115 13.3148 28.21 13.582 28.7962C13.8632 29.413 14.2013 30.0204 14.5454 30.6284L14.6429 30.5613C14.3008 29.9577 13.9653 29.3554 13.6848 28.7386C13.4229 28.1641 13.2107 27.5787 13.0874 26.9721ZM1.79743 20.4358C2.32719 20.6524 2.85031 20.8755 3.34626 21.1365C3.72352 21.3348 4.0842 21.5535 4.4177 21.8072L4.41903 21.8233C2.12297 22.5582 1.81599 20.5867 1.79677 20.4365L1.79743 20.4358ZM4.39052 21.633C4.07757 21.404 3.74341 21.2035 3.39598 21.0213C2.94579 20.785 2.47106 20.578 1.98904 20.3789C3.84485 19.9692 4.28775 21.1554 4.39052 21.633Z" fill="url(#paint8_linear_770_16066)"/>
<path fill-rule="evenodd" clip-rule="evenodd" d="M28.5355 7.66255C28.643 8.92533 28.6622 10.2406 28.6052 11.5661C28.5442 12.9841 28.395 14.4161 28.1735 15.8086C27.9401 17.2719 27.6279 18.6841 27.2533 19.9826C26.8793 21.2797 26.445 22.46 25.969 23.4596C25.5718 24.2944 25.0997 25.2182 24.5561 26.1405C24.0164 27.0569 23.4057 27.9712 22.7274 28.7921C22.0836 29.5723 21.3815 30.2649 20.627 30.7854C19.8917 31.2929 19.1047 31.6377 18.2726 31.7413C17.4405 31.6377 16.6535 31.2922 15.9182 30.7854C15.1637 30.2649 14.4615 29.5723 13.8177 28.7921C13.1394 27.9712 12.5288 27.0569 11.9891 26.1405C11.4454 25.2174 10.9733 24.2937 10.5768 23.4596C10.1008 22.4593 9.66717 21.2797 9.29256 19.9826C8.91795 18.6841 8.605 17.2719 8.37228 15.8079C8.15083 14.4153 8.00165 12.9834 7.94065 11.5653C7.88363 10.2399 7.90286 8.92387 8.01027 7.66182C8.43063 7.0195 8.89011 6.43039 9.38009 5.89525C9.89923 5.32875 10.4555 4.82057 11.0403 4.37292C12.1051 3.55707 13.2628 2.94392 14.4675 2.53126C15.702 2.10912 16.987 1.89695 18.2732 1.89695C20.8126 1.89695 23.3514 2.72228 25.5068 4.3722C26.0923 4.81985 26.6479 5.32803 27.1671 5.89452C27.6577 6.42967 28.1165 7.0195 28.5369 7.66182L28.5355 7.66255ZM29.1535 11.5945C29.2125 10.218 29.1913 8.8495 29.0759 7.53423C29.0733 7.47955 29.0567 7.42487 29.0255 7.37675C28.5747 6.68047 28.0814 6.04325 27.5529 5.46654C27.0079 4.87161 26.4278 4.34084 25.8198 3.87569C23.5702 2.15286 20.9214 1.29182 18.2726 1.29182C16.9333 1.29182 15.5926 1.51272 14.303 1.95382C13.0446 2.38471 11.8359 3.02484 10.7247 3.87569C10.1167 4.34084 9.53589 4.87161 8.99155 5.46654C8.46378 6.04325 7.97049 6.67974 7.51897 7.37675C7.49179 7.41904 7.47388 7.46934 7.46924 7.52403C7.35321 8.84148 7.33134 10.2143 7.39035 11.5945C7.45267 13.0454 7.60384 14.5028 7.8286 15.9129C8.06597 17.4038 8.38488 18.8423 8.76612 20.1649C9.14803 21.4882 9.5949 22.7006 10.0889 23.7389C10.494 24.5904 10.9747 25.5324 11.527 26.47C12.0832 27.4134 12.7118 28.3547 13.4093 29.1997C14.0829 30.0163 14.8229 30.7446 15.6238 31.2973C16.434 31.8565 17.3059 32.2356 18.2354 32.3464C18.2567 32.3493 18.2779 32.3493 18.2998 32.3472C19.2313 32.2378 20.1058 31.8579 20.9174 31.2973C21.719 30.7446 22.4583 30.0163 23.1319 29.1997C23.8294 28.3547 24.4579 27.4134 25.0142 26.47C25.5665 25.5331 26.0472 24.5912 26.453 23.7389C26.9469 22.7006 27.3945 21.4882 27.7757 20.1649C28.157 18.8423 28.4759 17.4038 28.7132 15.9129C28.938 14.5035 29.0892 13.0454 29.1515 11.5945H29.1535ZM29.7993 16.1207C30.0353 14.6384 30.1931 13.1037 30.2548 11.5726C30.3138 10.1188 30.2859 8.67233 30.1573 7.28342C30.1533 7.20323 30.1394 7.12302 30.1162 7.04501V7.04355C30.0917 6.96262 30.0565 6.88462 30.0114 6.81317C29.5155 6.03013 28.9692 5.31417 28.3804 4.66528C27.7744 3.99671 27.1273 3.40251 26.4477 2.88194C25.2436 1.96038 23.9335 1.26557 22.5703 0.798224C21.1733 0.319945 19.722 0.0800781 18.2719 0.0800781C16.8219 0.0800781 15.3705 0.319216 13.9735 0.798224C12.6103 1.26557 11.3009 1.95965 10.0961 2.88194C9.41655 3.40251 8.76943 3.99744 8.16343 4.66528C7.57532 5.31417 7.02899 6.03086 6.53305 6.81317C6.52576 6.82483 6.51979 6.8365 6.51382 6.84816C6.482 6.90284 6.45681 6.95898 6.43758 7.01585L6.43161 7.0348C6.41172 7.09823 6.39779 7.16677 6.39116 7.23895C6.25922 8.63369 6.23005 10.0882 6.2884 11.55C6.35006 13.0877 6.50786 14.6311 6.74456 16.1192C6.98988 17.6605 7.32338 19.158 7.72583 20.5455C8.12763 21.9315 8.59771 23.2037 9.11752 24.2959C9.54053 25.1846 10.0431 26.1682 10.6213 27.1488C11.2034 28.136 11.8631 29.1231 12.5971 30.0119C13.3576 30.9335 14.2009 31.7551 15.1265 32.3778C16.0607 33.0062 17.0778 33.4306 18.1764 33.5509H18.1778C18.2043 33.5545 18.2315 33.556 18.2587 33.5567C18.2885 33.5567 18.3183 33.5552 18.3482 33.5531H18.3495C19.4528 33.4364 20.4732 33.0121 21.41 32.3829C22.3382 31.7602 23.1843 30.9356 23.9467 30.0119C24.6807 29.1231 25.3404 28.1367 25.9226 27.1488C26.5007 26.1682 27.0033 25.1846 27.4263 24.2959C27.9455 23.2037 28.4162 21.9315 28.818 20.5455C29.2204 19.158 29.5533 17.6605 29.7993 16.1199V16.1207ZM29.7064 11.5464C29.7641 10.1196 29.737 8.70077 29.6103 7.33957L29.609 7.31332C29.6077 7.28707 29.603 7.26082 29.5957 7.2353C29.5884 7.21051 29.5765 7.185 29.5599 7.15875C29.0806 6.40196 28.5548 5.71225 27.9912 5.09034C27.4124 4.45166 26.7898 3.88006 26.1334 3.37845C24.9751 2.49116 23.716 1.82331 22.4072 1.37492C21.0652 0.9156 19.6689 0.685942 18.2719 0.685942C16.8749 0.685942 15.4786 0.9156 14.1373 1.37492C12.8278 1.82331 11.5687 2.49116 10.4104 3.37845C9.75469 3.88079 9.13211 4.45166 8.55329 5.09034C7.99303 5.70861 7.46991 6.39394 6.99319 7.14563L6.98391 7.16094L6.98059 7.16604C6.97131 7.18281 6.96203 7.20249 6.95407 7.22582L6.9501 7.23603C6.94413 7.25718 6.93948 7.27832 6.93749 7.29946C6.8082 8.66577 6.77969 10.0904 6.83671 11.5231C6.89705 13.0264 7.0522 14.5429 7.28691 16.0142C7.52958 17.5387 7.85645 19.01 8.2483 20.3625C8.64014 21.7156 9.0983 22.9544 9.60352 24.0159C10.0179 24.8872 10.5119 25.8532 11.0814 26.8192C11.6476 27.7787 12.2894 28.7382 13.0035 29.6036C13.7322 30.4865 14.5364 31.271 15.4123 31.8608C16.2802 32.4448 17.2197 32.8386 18.2295 32.9486L18.2427 32.9508C18.2507 32.9508 18.2587 32.9523 18.2666 32.9523C18.2759 32.9523 18.2865 32.9523 18.2971 32.9508C19.3102 32.8437 20.253 32.45 21.1229 31.866C22.0021 31.2761 22.8083 30.4894 23.539 29.6043C24.2531 28.7389 24.8955 27.7787 25.4611 26.82C26.0313 25.8539 26.5246 24.8879 26.939 24.0166C27.4442 22.9551 27.9017 21.7156 28.2942 20.3632C28.6861 19.0107 29.0129 17.5402 29.2556 16.0157C29.489 14.5517 29.6441 13.0425 29.7045 11.5456L29.7064 11.5464Z" fill="url(#paint9_linear_770_16066)"/>
<path fill-rule="evenodd" clip-rule="evenodd" d="M28.8002 7.55313C29.0356 10.2223 28.8784 13.1248 28.4428 15.861C27.9721 18.8146 27.1804 21.5603 26.2104 23.5995C25.4075 25.2866 24.3049 27.3303 22.9291 28.9962C21.611 30.5922 20.0456 31.8375 18.2707 32.046C16.4958 31.8375 14.9304 30.5922 13.6123 28.9962C12.2365 27.3295 11.1339 25.2859 10.3316 23.5995C9.36164 21.5603 8.56998 18.8146 8.09924 15.861C7.66363 13.1241 7.50649 10.2216 7.74187 7.55313C8.63761 6.16932 9.70376 5.02612 10.8806 4.12497C13.0832 2.4386 15.677 1.59504 18.2707 1.59504C20.8645 1.59504 23.4589 2.4386 25.6608 4.12497C26.8377 5.02612 27.9045 6.1686 28.8002 7.55313ZM29.5269 16.0696C29.985 13.194 30.1448 10.1312 29.8823 7.31034C29.8783 7.19879 29.8465 7.08651 29.7841 6.98809C28.7949 5.42566 27.6061 4.14028 26.2893 3.13196C23.8978 1.3005 21.0833 0.384766 18.2707 0.384766C15.4582 0.384766 12.6443 1.3005 10.2521 3.13196C8.93531 4.14028 7.74651 5.42566 6.75794 6.98809H6.7586C6.70689 7.06974 6.67307 7.1667 6.66312 7.27169C6.39592 10.1035 6.55439 13.1809 7.01453 16.0696C7.50318 19.1346 8.33461 22.0043 9.35898 24.1588C10.1964 25.9195 11.3507 28.0557 12.7994 29.8106C14.2892 31.6151 16.0933 33.023 18.2024 33.2526C18.2415 33.2584 18.282 33.2592 18.3224 33.2548C20.4388 33.0302 22.2489 31.6202 23.742 29.8106C25.1907 28.0557 26.3444 25.9195 27.1824 24.1588C28.2068 22.005 29.0389 19.1354 29.5269 16.0703V16.0696Z" fill="url(#paint10_linear_770_16066)"/>
<path fill-rule="evenodd" clip-rule="evenodd" d="M29.3335 7.33327C29.8726 13.0427 28.6367 19.8042 26.6973 23.8791C25.057 27.3269 22.1848 32.238 18.2716 32.6536C14.3584 32.2388 11.4869 27.3269 9.84655 23.8791C7.90787 19.8042 6.67132 13.0427 7.21103 7.33327C12.5663 -1.12411 23.9783 -1.12411 29.3335 7.33327Z" stroke="#8F6137" stroke-width="0.303049" stroke-miterlimit="2.61"/>
<path fill-rule="evenodd" clip-rule="evenodd" d="M29.3335 7.33327C29.8726 13.0427 28.6367 19.8042 26.6973 23.8791C25.057 27.3269 22.1848 32.238 18.2716 32.6536C14.3584 32.2388 11.4869 27.3269 9.84655 23.8791C7.90787 19.8042 6.67132 13.0427 7.21103 7.33327C12.5663 -1.12411 23.9783 -1.12411 29.3335 7.33327Z" fill="url(#paint11_radial_770_16066)"/>
<path fill-rule="evenodd" clip-rule="evenodd" d="M13.4312 29.1784C14.7221 30.7423 16.2511 31.9788 17.9902 32.2778V1.32812C15.9819 1.37479 13.9809 1.91795 12.1622 2.95909C10.3793 3.97907 8.77148 5.47807 7.50378 7.45607C7.25647 10.1712 7.4136 13.1254 7.85651 15.9083C8.33123 18.8874 9.13151 21.6601 10.1141 23.7256C10.9243 25.4287 12.0382 27.4928 13.4306 29.1791L13.4312 29.1784Z" fill="url(#paint12_radial_770_16066)"/>
<path fill-rule="evenodd" clip-rule="evenodd" d="M16.1954 2.82109C16.4301 3.30082 16.5985 3.77108 16.6118 4.21874C16.8186 4.17572 17.0374 4.14291 17.2648 4.12177L17.1634 3.24395H17.2503L17.351 4.11375C17.5201 4.0999 17.6938 4.09333 17.8708 4.09333C17.9 4.09333 17.9285 4.09333 17.9577 4.09333V3.02595H18.0446V4.09479C18.2521 4.0999 18.4536 4.11521 18.6479 4.13854L18.7513 3.24322H18.8382L18.7334 4.14948C18.9668 4.18083 19.1896 4.2253 19.3978 4.27998C19.3958 3.81483 19.5675 3.32488 19.8115 2.82473C19.838 2.84879 19.8719 2.86337 19.9096 2.86337C19.9939 2.86337 20.0621 2.78828 20.0621 2.69569C20.0621 2.60309 19.9939 2.52799 19.9096 2.52799C19.8254 2.52799 19.7571 2.60309 19.7571 2.69569C19.7571 2.74235 19.7744 2.78463 19.8022 2.81453C19.3501 3.33655 19.0225 3.43206 18.9277 2.73068C18.9357 2.73214 18.9436 2.73286 18.9516 2.73286C19.0358 2.73286 19.1041 2.65777 19.1041 2.56518C19.1041 2.47258 19.0358 2.39748 18.9516 2.39748C18.8674 2.39748 18.7991 2.47258 18.7991 2.56518C18.7991 2.63444 18.8375 2.69495 18.8926 2.71974C18.5677 3.26728 18.2958 3.17323 18.0817 2.39238C18.1825 2.34937 18.2541 2.24073 18.2541 2.1146C18.2541 1.94983 18.1327 1.81641 17.9829 1.81641C17.833 1.81641 17.7111 1.94983 17.7111 2.1146C17.7111 2.25823 17.8026 2.3778 17.9252 2.40696C17.7111 3.17615 17.4405 3.26509 17.1163 2.71682C17.1674 2.68985 17.2025 2.63225 17.2025 2.56591C17.2025 2.47331 17.1342 2.39821 17.05 2.39821C16.9658 2.39821 16.8975 2.47331 16.8975 2.56591C16.8975 2.6585 16.9658 2.73359 17.05 2.73359C17.0613 2.73359 17.0726 2.73214 17.0832 2.72995C16.9884 3.4357 16.6588 3.33728 16.204 2.81088C16.2292 2.78099 16.2444 2.74088 16.2444 2.69714C16.2444 2.60454 16.1762 2.52945 16.092 2.52945C16.0077 2.52945 15.9395 2.60454 15.9395 2.69714C15.9395 2.78973 16.0077 2.86483 16.092 2.86483C16.1324 2.86483 16.1689 2.84806 16.196 2.81963L16.1954 2.82109Z" fill="url(#paint13_linear_770_16066)"/>
<g clip-path="url(#clip0_770_16066)">
<path d="M11.8351 22.8392C11.6587 22.4867 11.4823 22.1341 11.2832 21.7213C11.1809 21.512 11.1014 21.3628 11.0218 21.2136C10.8406 20.7245 10.6657 20.2322 10.4744 19.748C10.4182 19.6057 10.2004 18.7222 10.101 18.5624C9.9885 17.7402 10.0092 17.712 9.89756 16.8843C9.83701 16.247 9.79364 15.645 9.74349 14.9977C9.73807 14.8445 9.73943 14.7367 9.74033 14.5568C9.72375 14.4009 9.70764 14.317 9.69152 14.2332C9.69152 14.2332 9.69494 14.1873 9.69114 14.1272C9.68414 13.9908 9.68094 13.9145 9.67773 13.8382C9.69481 13.3301 9.71189 12.8221 9.7194 12.2695C9.71509 12.1488 9.72035 12.0727 9.7271 11.9269C9.72305 11.8114 9.71751 11.7657 9.71198 11.72C9.71115 11.6065 9.71032 11.4929 9.71426 11.3171C9.72351 11.1738 9.72798 11.0929 9.73245 11.0119C9.7379 10.8057 9.74334 10.5995 9.74962 10.3051C9.75438 9.97827 9.7583 9.73965 9.80376 9.49933C10.3274 9.46121 10.8095 9.42479 11.3313 9.39358C12.7076 9.29637 13.9984 8.97058 15.2093 8.32665C15.7047 8.06322 16.1577 7.70041 16.6587 7.38085C17.0331 7.14903 17.4265 6.97573 17.712 6.67464C18.0506 6.31756 18.3024 6.29645 18.6159 6.70212C18.7791 6.84084 18.9256 6.95175 19.0894 7.08881C19.2436 7.21729 19.3804 7.31963 19.5456 7.44276C19.8247 7.60916 20.0753 7.75478 20.3449 7.92958C20.8066 8.1666 21.2493 8.37446 21.7194 8.604C22.2953 8.80154 22.8438 8.97738 23.3923 9.15321C23.9145 9.23718 24.4368 9.32114 24.9985 9.39808C25.5267 9.44432 26.0154 9.49757 26.5837 9.55949C26.5837 10.2977 26.5837 11.0639 26.5922 11.8766C26.5984 12.0962 26.5962 12.2693 26.5932 12.5246C26.5973 12.716 26.6022 12.8251 26.6071 12.9342C26.6019 13.0416 26.5968 13.1491 26.5913 13.3388C26.5959 13.5955 26.6007 13.7699 26.6056 13.9443C26.4443 15.5064 26.3148 17.0737 26.1066 18.6279C26.0197 19.2767 25.7657 19.8976 25.5797 20.5594C25.1681 20.1191 24.8035 19.7292 24.3991 19.2881C24.3191 19.1037 24.2179 18.9491 24.2483 18.8402C24.6413 17.4303 24.7724 15.9779 24.8108 14.5144C24.8393 13.4301 24.8164 12.3441 24.8164 11.2783C24.0802 11.1501 23.4288 11.0366 22.7452 10.9077C22.0238 10.6561 21.3346 10.4199 20.6229 10.1566C20.0644 9.83788 19.5284 9.54636 18.9762 9.23176C18.8822 9.16617 18.8044 9.12366 18.7088 9.0519C18.1113 8.60348 18.1113 8.60348 17.759 9.07948C17.0854 9.44933 16.447 9.81955 15.7729 10.194C15.6638 10.2111 15.5862 10.2109 15.5178 10.2389C14.3098 10.7323 13.0775 11.1031 11.79 11.2334C11.6803 11.2445 11.5148 11.4813 11.5036 11.6256C11.4676 12.0916 11.4916 12.5633 11.4865 13.0666C11.4842 13.1458 11.4878 13.1912 11.4863 13.2784C11.4862 13.4601 11.4913 13.6 11.4905 13.7737C11.4884 13.853 11.4921 13.8985 11.4897 13.9791C11.5031 14.2313 11.5225 14.4484 11.5428 14.7111C11.5822 15.3283 11.6208 15.8998 11.654 16.496C11.6511 16.5372 11.6535 16.5538 11.6536 16.6126C11.8609 17.5696 12.0705 18.4845 12.2838 19.4366C12.4271 19.789 12.5669 20.1041 12.7209 20.4531C12.916 20.8318 13.0968 21.1767 13.2839 21.5531C13.3726 21.7003 13.4551 21.816 13.5499 21.9641C13.7145 22.1627 13.7843 22.3077 13.6013 22.534C13.3224 22.8786 13.0828 23.2629 12.7923 23.639C12.6035 23.5575 12.4491 23.4674 12.2921 23.345C12.138 23.1549 11.9865 22.997 11.8351 22.8392Z" fill="url(#paint14_linear_770_16066)"/>
<path d="M17.2443 25.3358C17.4672 25.5607 17.6901 25.7856 17.9396 26.0374C18.812 25.1035 19.6728 24.1831 20.5324 23.2614C21.3726 22.3605 22.2101 21.4566 23.0531 20.559C23.1439 20.4624 23.2639 20.3993 23.3998 20.3333C23.7971 20.7809 24.1649 21.2159 24.4909 21.6015C23.8737 22.3156 23.2597 23.026 22.6337 23.7665C21.2033 25.3069 19.7867 26.8192 18.363 28.3234C18.2465 28.4465 18.0822 28.5146 17.9124 28.5975C16.8525 27.6345 15.8203 26.6823 14.7575 25.7245C14.3923 25.3358 14.0576 24.9529 13.6985 24.5418C14.0525 24.0834 14.4227 23.6039 14.8177 23.0924C15.0724 23.3316 15.3105 23.5552 15.5949 23.818C16.1756 24.3501 16.7099 24.843 17.2443 25.3358Z" fill="url(#paint15_linear_770_16066)"/>
</g>
<g opacity="0.5" clip-path="url(#clip1_770_16066)">
<path d="M11.8351 22.8392C11.6587 22.4867 11.4823 22.1341 11.2832 21.7213C11.1809 21.512 11.1014 21.3628 11.0218 21.2136C10.8406 20.7245 10.6657 20.2322 10.4744 19.748C10.4182 19.6057 10.2004 18.7222 10.101 18.5624C9.9885 17.7402 10.0092 17.712 9.89756 16.8843C9.83701 16.247 9.79364 15.645 9.74349 14.9977C9.73807 14.8445 9.73943 14.7367 9.74033 14.5568C9.72375 14.4009 9.70764 14.317 9.69152 14.2332C9.69152 14.2332 9.69494 14.1873 9.69114 14.1272C9.68414 13.9908 9.68094 13.9145 9.67773 13.8382C9.69481 13.3301 9.71189 12.8221 9.7194 12.2695C9.71509 12.1488 9.72035 12.0727 9.7271 11.9269C9.72305 11.8114 9.71751 11.7657 9.71198 11.72C9.71115 11.6065 9.71032 11.4929 9.71426 11.3171C9.72351 11.1738 9.72798 11.0929 9.73245 11.0119C9.7379 10.8057 9.74334 10.5995 9.74962 10.3051C9.75438 9.97827 9.7583 9.73965 9.80376 9.49933C10.3274 9.46121 10.8095 9.42479 11.3313 9.39358C12.7076 9.29637 13.9984 8.97058 15.2093 8.32665C15.7047 8.06322 16.1577 7.70041 16.6587 7.38085C17.0331 7.14903 17.4265 6.97573 17.712 6.67464C18.0506 6.31756 18.3024 6.29645 18.6159 6.70212C18.7791 6.84084 18.9256 6.95175 19.0894 7.08881C19.2436 7.21729 19.3804 7.31963 19.5456 7.44276C19.8247 7.60916 20.0753 7.75478 20.3449 7.92958C20.8066 8.1666 21.2493 8.37446 21.7194 8.604C22.2953 8.80154 22.8438 8.97738 23.3923 9.15321C23.9145 9.23718 24.4368 9.32114 24.9985 9.39808C25.5267 9.44432 26.0154 9.49757 26.5837 9.55949C26.5837 10.2977 26.5837 11.0639 26.5922 11.8766C26.5984 12.0962 26.5962 12.2693 26.5932 12.5246C26.5973 12.716 26.6022 12.8251 26.6071 12.9342C26.6019 13.0416 26.5968 13.1491 26.5913 13.3388C26.5959 13.5955 26.6007 13.7699 26.6056 13.9443C26.4443 15.5064 26.3148 17.0737 26.1066 18.6279C26.0197 19.2767 25.7657 19.8976 25.5797 20.5594C25.1681 20.1191 24.8035 19.7292 24.3991 19.2881C24.3191 19.1037 24.2179 18.9491 24.2483 18.8402C24.6413 17.4303 24.7724 15.9779 24.8108 14.5144C24.8393 13.4301 24.8164 12.3441 24.8164 11.2783C24.0802 11.1501 23.4288 11.0366 22.7452 10.9077C22.0238 10.6561 21.3346 10.4199 20.6229 10.1566C20.0644 9.83788 19.5284 9.54636 18.9762 9.23176C18.8822 9.16617 18.8044 9.12366 18.7088 9.0519C18.1113 8.60348 18.1113 8.60348 17.759 9.07948C17.0854 9.44933 16.447 9.81955 15.7729 10.194C15.6638 10.2111 15.5862 10.2109 15.5178 10.2389C14.3098 10.7323 13.0775 11.1031 11.79 11.2334C11.6803 11.2445 11.5148 11.4813 11.5036 11.6256C11.4676 12.0916 11.4916 12.5633 11.4865 13.0666C11.4842 13.1458 11.4878 13.1912 11.4863 13.2784C11.4862 13.4601 11.4913 13.6 11.4905 13.7737C11.4884 13.853 11.4921 13.8985 11.4897 13.9791C11.5031 14.2313 11.5225 14.4484 11.5428 14.7111C11.5822 15.3283 11.6208 15.8998 11.654 16.496C11.6511 16.5372 11.6535 16.5538 11.6536 16.6126C11.8609 17.5696 12.0705 18.4845 12.2838 19.4366C12.4271 19.789 12.5669 20.1041 12.7209 20.4531C12.916 20.8318 13.0968 21.1767 13.2839 21.5531C13.3726 21.7003 13.4551 21.816 13.5499 21.9641C13.7145 22.1627 13.7843 22.3077 13.6013 22.534C13.3224 22.8786 13.0828 23.2629 12.7923 23.639C12.6035 23.5575 12.4491 23.4674 12.2921 23.345C12.138 23.1549 11.9865 22.997 11.8351 22.8392Z" fill="url(#paint16_linear_770_16066)"/>
<path d="M17.2443 25.3358C17.4672 25.5607 17.6901 25.7856 17.9396 26.0374C18.812 25.1035 19.6728 24.1831 20.5324 23.2614C21.3726 22.3605 22.2101 21.4566 23.0531 20.559C23.1439 20.4624 23.2639 20.3993 23.3998 20.3333C23.7971 20.7809 24.1649 21.2159 24.4909 21.6015C23.8737 22.3156 23.2597 23.026 22.6337 23.7665C21.2033 25.3069 19.7867 26.8192 18.363 28.3234C18.2465 28.4465 18.0822 28.5146 17.9124 28.5975C16.8525 27.6345 15.8203 26.6823 14.7575 25.7245C14.3923 25.3358 14.0576 24.9529 13.6985 24.5418C14.0525 24.0834 14.4227 23.6039 14.8177 23.0924C15.0724 23.3316 15.3105 23.5552 15.5949 23.818C16.1756 24.3501 16.7099 24.843 17.2443 25.3358Z" fill="url(#paint17_linear_770_16066)"/>
</g>
<path fill-rule="evenodd" clip-rule="evenodd" d="M4.35352 27.7635C13.6995 25.3801 22.7976 25.2627 31.7517 27.7635C31.4533 29.2719 31.155 30.7804 30.8566 32.2896C22.7027 30.0214 14.5097 30.1082 5.17766 32.4682C4.90316 30.9 4.62867 29.3317 4.35418 27.7642L4.35352 27.7635Z" fill="url(#paint18_linear_770_16066)"/>
<path fill-rule="evenodd" clip-rule="evenodd" d="M4.33053 27.6413C9.01016 26.4478 13.6295 25.8215 18.2004 25.8069C22.7726 25.7923 27.2951 26.3894 31.7804 27.642C31.8414 27.6588 31.8786 27.7273 31.8627 27.7937L30.9682 32.3147C30.955 32.3825 30.8946 32.4255 30.833 32.4109L30.8264 32.4095C26.7587 31.2779 22.6824 30.7348 18.4596 30.7669C14.2355 30.8004 9.86215 31.4106 5.20307 32.5888C5.14141 32.6041 5.08108 32.5626 5.06649 32.4948V32.4904H5.06583L4.24235 27.7864C4.23042 27.72 4.2702 27.6551 4.32987 27.6413H4.33053ZM18.2004 26.0562C13.6832 26.0708 9.11559 26.6854 4.48701 27.8578L5.26739 32.3162C9.89795 31.1533 14.2507 30.5503 18.4589 30.5175C22.6638 30.4847 26.7235 31.0213 30.7713 32.1361L31.618 27.8549C27.1843 26.6271 22.7156 26.0417 18.2004 26.0562Z" fill="url(#paint19_linear_770_16066)"/>
<path fill-rule="evenodd" clip-rule="evenodd" d="M18.0742 25.9325C22.6789 25.9062 27.2339 26.5012 31.7524 27.7632C31.4541 29.2717 31.1557 30.7801 30.8573 32.2886C26.6564 31.1199 22.4462 30.5767 18.0742 30.6467V25.9325Z" fill="url(#paint20_linear_770_16066)"/>
<path d="M17.0302 16.3563H17.6991C18.3309 16.3563 18.8573 16.5646 19.2785 16.9812C19.7058 17.391 19.9195 17.9646 19.9195 18.7022C19.9195 19.4398 19.6934 20.0168 19.2413 20.4334C18.8016 20.85 18.2534 21.0583 17.5969 21.0583C17.0643 21.0583 16.5967 20.9285 16.1941 20.669C15.7977 20.4027 15.5097 20.0202 15.3301 19.5217L16.4263 18.8149C16.5812 19.3885 16.9714 19.6754 17.5969 19.6754C17.9252 19.6754 18.1791 19.59 18.3587 19.4193C18.5445 19.2417 18.6374 19.0027 18.6374 18.7022C18.6374 18.4085 18.5476 18.1729 18.368 17.9954C18.1884 17.8178 17.9438 17.729 17.6341 17.729H15.6645L15.9247 13.7441H19.6129V15.0656H17.1138L17.0302 16.3563Z" fill="url(#paint21_linear_770_16066)"/>
<defs>
<linearGradient id="paint0_linear_770_16066" x1="6.01725" y1="33.9514" x2="6.01725" y2="30.1653" gradientUnits="userSpaceOnUse">
<stop stop-color="#DBA73E"/>
<stop offset="0.16" stop-color="#D89D3A"/>
<stop offset="0.3" stop-color="#A46B28"/>
<stop offset="0.49" stop-color="#8E5723"/>
<stop offset="0.54" stop-color="#F4F3B8"/>
<stop offset="0.56" stop-color="#F7ED9A"/>
<stop offset="0.69" stop-color="#D5B767"/>
<stop offset="0.75" stop-color="#A76F29"/>
<stop offset="0.85" stop-color="#D0AB5B"/>
<stop offset="1" stop-color="#E0C77D"/>
</linearGradient>
<linearGradient id="paint1_linear_770_16066" x1="9.82811" y1="32.8659" x2="2.30138" y2="31.7814" gradientUnits="userSpaceOnUse">
<stop stop-color="#C89749"/>
<stop offset="0.04" stop-color="#8E5523"/>
<stop offset="0.15" stop-color="#FFEE9D"/>
<stop offset="0.23" stop-color="#DEAC55"/>
<stop offset="0.51" stop-color="#E8C576"/>
<stop offset="0.81" stop-color="#DBAA4D"/>
<stop offset="0.86" stop-color="#FCF6B2"/>
<stop offset="0.95" stop-color="#8B5623"/>
<stop offset="1" stop-color="#CA983E"/>
</linearGradient>
<linearGradient id="paint2_linear_770_16066" x1="29.984" y1="33.7007" x2="29.984" y2="29.9153" gradientUnits="userSpaceOnUse">
<stop stop-color="#DBA73E"/>
<stop offset="0.16" stop-color="#D89D3A"/>
<stop offset="0.3" stop-color="#A46B28"/>
<stop offset="0.49" stop-color="#8E5723"/>
<stop offset="0.54" stop-color="#F4F3B8"/>
<stop offset="0.56" stop-color="#F7ED9A"/>
<stop offset="0.69" stop-color="#D5B767"/>
<stop offset="0.75" stop-color="#A76F29"/>
<stop offset="0.85" stop-color="#D0AB5B"/>
<stop offset="1" stop-color="#E0C77D"/>
</linearGradient>
<linearGradient id="paint3_linear_770_16066" x1="26.07" y1="32.393" x2="33.7863" y2="31.6554" gradientUnits="userSpaceOnUse">
<stop stop-color="#C89749"/>
<stop offset="0.04" stop-color="#8E5523"/>
<stop offset="0.15" stop-color="#FFEE9D"/>
<stop offset="0.23" stop-color="#DEAC55"/>
<stop offset="0.51" stop-color="#E8C576"/>
<stop offset="0.81" stop-color="#DBAA4D"/>
<stop offset="0.86" stop-color="#FCF6B2"/>
<stop offset="0.95" stop-color="#8B5623"/>
<stop offset="1" stop-color="#CA983E"/>
</linearGradient>
<linearGradient id="paint4_linear_770_16066" x1="7.31722" y1="34.0944" x2="7.31722" y2="31.5608" gradientUnits="userSpaceOnUse">
<stop stop-color="#DBA73E"/>
<stop offset="0.16" stop-color="#D89D3A"/>
<stop offset="0.3" stop-color="#A46B28"/>
<stop offset="0.49" stop-color="#8E5723"/>
<stop offset="0.54" stop-color="#F4F3B8"/>
<stop offset="0.56" stop-color="#F7ED9A"/>
<stop offset="0.69" stop-color="#D5B767"/>
<stop offset="0.75" stop-color="#A76F29"/>
<stop offset="0.85" stop-color="#D0AB5B"/>
<stop offset="1" stop-color="#E0C77D"/>
</linearGradient>
<linearGradient id="paint5_linear_770_16066" x1="5.33994" y1="31.9235" x2="9.3748" y2="32.7035" gradientUnits="userSpaceOnUse">
<stop stop-color="#6E4E1F"/>
<stop offset="0.04" stop-color="#432810"/>
<stop offset="0.15" stop-color="#8C804D"/>
<stop offset="0.23" stop-color="#7B5A24"/>
<stop offset="0.51" stop-color="#816735"/>
<stop offset="0.81" stop-color="#785923"/>
<stop offset="0.86" stop-color="#8B855C"/>
<stop offset="0.95" stop-color="#422810"/>
<stop offset="1" stop-color="#6F4E1F"/>
</linearGradient>
<linearGradient id="paint6_linear_770_16066" x1="28.6795" y1="33.8952" x2="28.6795" y2="31.3616" gradientUnits="userSpaceOnUse">
<stop stop-color="#DBA73E"/>
<stop offset="0.16" stop-color="#D89D3A"/>
<stop offset="0.3" stop-color="#A46B28"/>
<stop offset="0.49" stop-color="#8E5723"/>
<stop offset="0.54" stop-color="#F4F3B8"/>
<stop offset="0.56" stop-color="#F7ED9A"/>
<stop offset="0.69" stop-color="#D5B767"/>
<stop offset="0.75" stop-color="#A76F29"/>
<stop offset="0.85" stop-color="#D0AB5B"/>
<stop offset="1" stop-color="#E0C77D"/>
</linearGradient>
<linearGradient id="paint7_linear_770_16066" x1="30.6874" y1="31.8749" x2="26.6937" y2="32.5156" gradientUnits="userSpaceOnUse">
<stop stop-color="#6E4E1F"/>
<stop offset="0.04" stop-color="#432810"/>
<stop offset="0.15" stop-color="#8C804D"/>
<stop offset="0.23" stop-color="#7B5A24"/>
<stop offset="0.51" stop-color="#816735"/>
<stop offset="0.81" stop-color="#785923"/>
<stop offset="0.86" stop-color="#8B855C"/>
<stop offset="0.95" stop-color="#422810"/>
<stop offset="1" stop-color="#6F4E1F"/>
</linearGradient>
<linearGradient id="paint8_linear_770_16066" x1="-4.10549" y1="17.5012" x2="40.1057" y2="17.5012" gradientUnits="userSpaceOnUse">
<stop stop-color="#C89749"/>
<stop offset="0.04" stop-color="#8E5523"/>
<stop offset="0.15" stop-color="#FFEE9D"/>
<stop offset="0.23" stop-color="#DEAC55"/>
<stop offset="0.51" stop-color="#E8C576"/>
<stop offset="0.81" stop-color="#DBAA4D"/>
<stop offset="0.86" stop-color="#FCF6B2"/>
<stop offset="0.95" stop-color="#8B5623"/>
<stop offset="1" stop-color="#CA983E"/>
</linearGradient>
<linearGradient id="paint9_linear_770_16066" x1="18.2719" y1="32.77" x2="18.2719" y2="0.849992" gradientUnits="userSpaceOnUse">
<stop stop-color="#DBA73E"/>
<stop offset="0.16" stop-color="#D89D3A"/>
<stop offset="0.3" stop-color="#A46B28"/>
<stop offset="0.49" stop-color="#8E5723"/>
<stop offset="0.54" stop-color="#F4F3B8"/>
<stop offset="0.56" stop-color="#F7ED9A"/>
<stop offset="0.69" stop-color="#D5B767"/>
<stop offset="0.75" stop-color="#A76F29"/>
<stop offset="0.85" stop-color="#D0AB5B"/>
<stop offset="1" stop-color="#E0C77D"/>
</linearGradient>
<linearGradient id="paint10_linear_770_16066" x1="18.2707" y1="37.6351" x2="18.2707" y2="-3.99412" gradientUnits="userSpaceOnUse">
<stop stop-color="#F4C761"/>
<stop offset="0.28" stop-color="#A97F2C"/>
<stop offset="0.36" stop-color="#230B0A"/>
<stop offset="0.46" stop-color="#6D4C1E"/>
<stop offset="0.51" stop-color="#1A0B05"/>
<stop offset="0.53" stop-color="#F8F1DE"/>
<stop offset="0.86" stop-color="#F3E3C2"/>
<stop offset="1" stop-color="#D0AB5B"/>
</linearGradient>
<radialGradient id="paint11_radial_770_16066" cx="0" cy="0" r="1" gradientUnits="userSpaceOnUse" gradientTransform="translate(18.2716 16.8223) scale(16.7745 18.4458)">
<stop stop-color="#493211"/>
<stop offset="0.4" stop-color="#241909"/>
<stop offset="0.78" stop-color="#0A0604"/>
<stop offset="1" stop-color="#000002"/>
</radialGradient>
<radialGradient id="paint12_radial_770_16066" cx="0" cy="0" r="1" gradientUnits="userSpaceOnUse" gradientTransform="translate(14.7811 10.9243) scale(32.1481 35.3511)">
<stop stop-color="#937551"/>
<stop offset="1" stop-color="#393939"/>
</radialGradient>
<linearGradient id="paint13_linear_770_16066" x1="18.0001" y1="3.86295" x2="18.0001" y2="2.23709" gradientUnits="userSpaceOnUse">
<stop stop-color="#DBA73E"/>
<stop offset="0.16" stop-color="#D89D3A"/>
<stop offset="0.54" stop-color="#F4F3B8"/>
<stop offset="0.56" stop-color="#F7ED9A"/>
<stop offset="0.69" stop-color="#D5B767"/>
<stop offset="0.85" stop-color="#D0AB5B"/>
<stop offset="1" stop-color="#E0C77D"/>
</linearGradient>
<linearGradient id="paint14_linear_770_16066" x1="38.6995" y1="30.5108" x2="-5.05381" y2="13.6936" gradientUnits="userSpaceOnUse">
<stop stop-color="#482A0F"/>
<stop offset="0.1" stop-color="#A77129"/>
<stop offset="0.15" stop-color="white"/>
<stop offset="0.22" stop-color="#DA9E41"/>
<stop offset="0.34" stop-color="#8E5923"/>
<stop offset="0.5" stop-color="#D8A64D"/>
<stop offset="0.66" stop-color="#F5E380"/>
<stop offset="0.72" stop-color="#DAC164"/>
<stop offset="0.77" stop-color="white"/>
<stop offset="0.83" stop-color="#A0752B"/>
<stop offset="1" stop-color="#664219"/>
</linearGradient>
<linearGradient id="paint15_linear_770_16066" x1="38.6995" y1="30.5108" x2="-5.05381" y2="13.6936" gradientUnits="userSpaceOnUse">
<stop stop-color="#482A0F"/>
<stop offset="0.1" stop-color="#A77129"/>
<stop offset="0.15" stop-color="white"/>
<stop offset="0.22" stop-color="#DA9E41"/>
<stop offset="0.34" stop-color="#8E5923"/>
<stop offset="0.5" stop-color="#D8A64D"/>
<stop offset="0.66" stop-color="#F5E380"/>
<stop offset="0.72" stop-color="#DAC164"/>
<stop offset="0.77" stop-color="white"/>
<stop offset="0.83" stop-color="#A0752B"/>
<stop offset="1" stop-color="#664219"/>
</linearGradient>
<linearGradient id="paint16_linear_770_16066" x1="38.6995" y1="30.5108" x2="-5.05381" y2="13.6936" gradientUnits="userSpaceOnUse">
<stop stop-color="#482A0F"/>
<stop offset="0.1" stop-color="#A77129"/>
<stop offset="0.15" stop-color="white"/>
<stop offset="0.22" stop-color="#DA9E41"/>
<stop offset="0.34" stop-color="#8E5923"/>
<stop offset="0.5" stop-color="#D8A64D"/>
<stop offset="0.66" stop-color="#F5E380"/>
<stop offset="0.72" stop-color="#DAC164"/>
<stop offset="0.77" stop-color="white"/>
<stop offset="0.83" stop-color="#A0752B"/>
<stop offset="1" stop-color="#664219"/>
</linearGradient>
<linearGradient id="paint17_linear_770_16066" x1="38.6995" y1="30.5108" x2="-5.05381" y2="13.6936" gradientUnits="userSpaceOnUse">
<stop stop-color="#482A0F"/>
<stop offset="0.1" stop-color="#A77129"/>
<stop offset="0.15" stop-color="white"/>
<stop offset="0.22" stop-color="#DA9E41"/>
<stop offset="0.34" stop-color="#8E5923"/>
<stop offset="0.5" stop-color="#D8A64D"/>
<stop offset="0.66" stop-color="#F5E380"/>
<stop offset="0.72" stop-color="#DAC164"/>
<stop offset="0.77" stop-color="white"/>
<stop offset="0.83" stop-color="#A0752B"/>
<stop offset="1" stop-color="#664219"/>
</linearGradient>
<linearGradient id="paint18_linear_770_16066" x1="3.02879" y1="32.4697" x2="25.3745" y2="29.2514" gradientUnits="userSpaceOnUse">
<stop stop-color="#C89749"/>
<stop offset="0.04" stop-color="#8E5523"/>
<stop offset="0.15" stop-color="#FFEE9D"/>
<stop offset="0.23" stop-color="#DEAC55"/>
<stop offset="0.51" stop-color="#E8C576"/>
<stop offset="0.81" stop-color="#DBAA4D"/>
<stop offset="0.86" stop-color="#FCF6B2"/>
<stop offset="0.95" stop-color="#8B5623"/>
<stop offset="1" stop-color="#CA983E"/>
</linearGradient>
<linearGradient id="paint19_linear_770_16066" x1="18.0532" y1="32.1353" x2="18.0532" y2="26.2465" gradientUnits="userSpaceOnUse">
<stop stop-color="#DBA73E"/>
<stop offset="0.16" stop-color="#D89D3A"/>
<stop offset="0.3" stop-color="#A46B28"/>
<stop offset="0.49" stop-color="#8E5723"/>
<stop offset="0.54" stop-color="#F4F3B8"/>
<stop offset="0.56" stop-color="#F7ED9A"/>
<stop offset="0.69" stop-color="#D5B767"/>
<stop offset="0.75" stop-color="#A76F29"/>
<stop offset="0.85" stop-color="#D0AB5B"/>
<stop offset="1" stop-color="#E0C77D"/>
</linearGradient>
<linearGradient id="paint20_linear_770_16066" x1="12.0758" y1="24.8892" x2="31.6259" y2="30.325" gradientUnits="userSpaceOnUse">
<stop stop-color="#C89749"/>
<stop offset="0.04" stop-color="#8E5523"/>
<stop offset="0.15" stop-color="#FFEE9D"/>
<stop offset="0.23" stop-color="#DEAC55"/>
<stop offset="0.51" stop-color="#E8C576"/>
<stop offset="0.81" stop-color="#DBAA4D"/>
<stop offset="0.86" stop-color="#FCF6B2"/>
<stop offset="0.95" stop-color="#8B5623"/>
<stop offset="1" stop-color="#CA983E"/>
</linearGradient>
<linearGradient id="paint21_linear_770_16066" x1="25.6654" y1="32.0158" x2="7.33995" y2="29.3587" gradientUnits="userSpaceOnUse">
<stop stop-color="#482A0F"/>
<stop offset="0.1" stop-color="#A77129"/>
<stop offset="0.15" stop-color="white"/>
<stop offset="0.22" stop-color="#DA9E41"/>
<stop offset="0.34" stop-color="#8E5923"/>
<stop offset="0.5" stop-color="#D8A64D"/>
<stop offset="0.66" stop-color="#F5E380"/>
<stop offset="0.72" stop-color="#DAC164"/>
<stop offset="0.77" stop-color="white"/>
<stop offset="0.83" stop-color="#A0752B"/>
<stop offset="1" stop-color="#664219"/>
</linearGradient>
<clipPath id="clip0_770_16066">
<rect width="8.15573" height="22.1951" fill="white" transform="translate(9.67773 6.40234)"/>
</clipPath>
<clipPath id="clip1_770_16066">
<rect width="8.84983" height="22.1951" fill="white" transform="matrix(-1 0 0 1 26.6836 6.40234)"/>
</clipPath>
</defs>
</svg>
