<svg width="351" height="351" viewBox="0 0 351 351" fill="none" xmlns="http://www.w3.org/2000/svg">
<path d="M174.146 170.238L248.191 160.636L176.076 179.982L174.146 170.238Z" fill="white"/>
<g filter="url(#filter0_d_694_8002)">
<circle cx="175.109" cy="175.109" r="9.93333" transform="rotate(-11.2027 175.109 175.109)" fill="#051D28"/>
<circle cx="175.109" cy="175.109" r="8.07083" transform="rotate(-11.2027 175.109 175.109)" stroke="white" stroke-width="3.725"/>
</g>
<path d="M163.897 57.848L163.897 52.7L181.525 52.7L181.525 57.263L172.282 80L166.588 80L175.558 57.848L163.897 57.848ZM193.27 80.546C189.864 80.546 187.186 79.259 185.236 76.685C183.312 74.059 182.35 70.614 182.35 66.35C182.35 62.086 183.312 58.654 185.236 56.054C187.186 53.454 189.864 52.154 193.27 52.154C196.728 52.154 199.406 53.454 201.304 56.054C203.228 58.654 204.19 62.086 204.19 66.35C204.19 70.614 203.228 74.059 201.304 76.685C199.406 79.259 196.728 80.546 193.27 80.546ZM198.847 66.35C198.847 63.438 198.366 61.215 197.404 59.681C196.468 58.147 195.09 57.38 193.27 57.38C191.45 57.38 190.072 58.147 189.136 59.681C188.2 61.215 187.732 63.438 187.732 66.35C187.732 69.262 188.2 71.485 189.136 73.019C190.072 74.527 191.45 75.281 193.27 75.281C195.09 75.281 196.468 74.514 197.404 72.98C198.366 71.446 198.847 69.236 198.847 66.35ZM217.815 63.191C216.541 64.413 214.981 65.024 213.135 65.024C211.263 65.024 209.69 64.4 208.416 63.152C207.168 61.904 206.544 60.383 206.544 58.589C206.544 56.795 207.168 55.274 208.416 54.026C209.716 52.778 211.289 52.154 213.135 52.154C215.007 52.154 216.567 52.778 217.815 54.026C219.063 55.222 219.687 56.743 219.687 58.589C219.687 60.409 219.063 61.943 217.815 63.191ZM211.653 77.231L209.313 75.866L227.097 56.093L229.476 57.419L211.653 77.231ZM211.341 60.383C211.809 60.851 212.394 61.085 213.096 61.085C213.798 61.085 214.383 60.851 214.851 60.383C215.319 59.889 215.553 59.291 215.553 58.589C215.553 57.887 215.319 57.302 214.851 56.834C214.383 56.366 213.798 56.132 213.096 56.132C212.394 56.132 211.809 56.366 211.341 56.834C210.899 57.302 210.678 57.887 210.678 58.589C210.678 59.291 210.899 59.889 211.341 60.383ZM232.869 74.033C232.869 75.827 232.245 77.348 230.997 78.596C229.749 79.844 228.189 80.468 226.317 80.468C224.445 80.468 222.885 79.844 221.637 78.596C220.389 77.348 219.765 75.827 219.765 74.033C219.765 72.239 220.389 70.718 221.637 69.47C222.885 68.222 224.445 67.598 226.317 67.598C228.189 67.598 229.749 68.222 230.997 69.47C232.245 70.718 232.869 72.239 232.869 74.033ZM228.033 75.827C228.501 75.333 228.735 74.735 228.735 74.033C228.735 73.331 228.501 72.746 228.033 72.278C227.591 71.784 227.019 71.537 226.317 71.537C225.615 71.537 225.03 71.784 224.562 72.278C224.12 72.746 223.899 73.331 223.899 74.033C223.899 74.735 224.12 75.333 224.562 75.827C225.03 76.295 225.615 76.529 226.317 76.529C227.019 76.529 227.591 76.295 228.033 75.827Z" fill="white"/>
<path opacity="0.5" d="M164.05 86.5L171.775 86.5L171.775 97L170.05 97L170.05 88.15L165.775 88.15L165.775 97L164.05 97L164.05 86.5ZM178.019 89.305C179.039 89.305 179.919 89.69 180.659 90.46C181.389 91.22 181.754 92.15 181.754 93.25C181.754 94.36 181.389 95.295 180.659 96.055C179.929 96.815 179.049 97.195 178.019 97.195C176.889 97.195 176.014 96.775 175.394 95.935L175.394 100L173.774 100L173.774 89.5L175.394 89.5L175.394 90.58C176.004 89.73 176.879 89.305 178.019 89.305ZM176.069 94.975C176.519 95.425 177.084 95.65 177.764 95.65C178.444 95.65 179.009 95.425 179.459 94.975C179.909 94.515 180.134 93.94 180.134 93.25C180.134 92.56 179.909 91.99 179.459 91.54C179.009 91.08 178.444 90.85 177.764 90.85C177.084 90.85 176.519 91.08 176.069 91.54C175.619 91.99 175.394 92.56 175.394 93.25C175.394 93.93 175.619 94.505 176.069 94.975ZM189.567 96.055C188.807 96.815 187.872 97.195 186.762 97.195C185.652 97.195 184.717 96.815 183.957 96.055C183.187 95.285 182.802 94.35 182.802 93.25C182.802 92.15 183.187 91.215 183.957 90.445C184.717 89.685 185.652 89.305 186.762 89.305C187.872 89.305 188.807 89.685 189.567 90.445C190.337 91.215 190.722 92.15 190.722 93.25C190.722 94.35 190.337 95.285 189.567 96.055ZM184.422 93.25C184.422 93.93 184.647 94.495 185.097 94.945C185.547 95.395 186.102 95.62 186.762 95.62C187.422 95.62 187.977 95.395 188.427 94.945C188.877 94.495 189.102 93.93 189.102 93.25C189.102 92.57 188.877 92.005 188.427 91.555C187.977 91.105 187.422 90.88 186.762 90.88C186.102 90.88 185.547 91.105 185.097 91.555C184.647 92.005 184.422 92.57 184.422 93.25ZM192.187 89.5L197.212 89.5L197.212 91.06L193.807 91.06L193.807 97L192.187 97L192.187 89.5ZM202.555 89.305C203.575 89.305 204.455 89.69 205.195 90.46C205.925 91.22 206.29 92.15 206.29 93.25C206.29 94.36 205.925 95.295 205.195 96.055C204.465 96.815 203.585 97.195 202.555 97.195C201.425 97.195 200.55 96.775 199.93 95.935L199.93 100L198.31 100L198.31 89.5L199.93 89.5L199.93 90.58C200.54 89.73 201.415 89.305 202.555 89.305ZM200.605 94.975C201.055 95.425 201.62 95.65 202.3 95.65C202.98 95.65 203.545 95.425 203.995 94.975C204.445 94.515 204.67 93.94 204.67 93.25C204.67 92.56 204.445 91.99 203.995 91.54C203.545 91.08 202.98 90.85 202.3 90.85C201.62 90.85 201.055 91.08 200.605 91.54C200.155 91.99 199.93 92.56 199.93 93.25C199.93 93.93 200.155 94.505 200.605 94.975ZM215.003 93.94L209.033 93.94C209.153 94.5 209.423 94.935 209.843 95.245C210.273 95.555 210.803 95.71 211.433 95.71C212.283 95.71 212.928 95.4 213.368 94.78L214.703 95.56C213.973 96.65 212.878 97.195 211.418 97.195C210.208 97.195 209.223 96.825 208.463 96.085C207.713 95.335 207.338 94.39 207.338 93.25C207.338 92.14 207.708 91.205 208.448 90.445C209.178 89.685 210.128 89.305 211.298 89.305C212.388 89.305 213.288 89.69 213.998 90.46C214.708 91.23 215.063 92.165 215.063 93.265C215.063 93.465 215.043 93.69 215.003 93.94ZM209.018 92.62L213.428 92.62C213.318 92.03 213.068 91.575 212.678 91.255C212.298 90.935 211.833 90.775 211.283 90.775C210.683 90.775 210.183 90.94 209.783 91.27C209.383 91.6 209.128 92.05 209.018 92.62ZM219.985 97.195C218.855 97.195 217.91 96.815 217.15 96.055C216.4 95.285 216.025 94.35 216.025 93.25C216.025 92.13 216.4 91.195 217.15 90.445C217.91 89.685 218.855 89.305 219.985 89.305C220.715 89.305 221.38 89.48 221.98 89.83C222.58 90.18 223.03 90.65 223.33 91.24L221.935 92.05C221.765 91.69 221.505 91.41 221.155 91.21C220.815 91 220.42 90.895 219.97 90.895C219.31 90.895 218.755 91.12 218.305 91.57C217.865 92.03 217.645 92.59 217.645 93.25C217.645 93.91 217.865 94.47 218.305 94.93C218.755 95.38 219.31 95.605 219.97 95.605C220.41 95.605 220.805 95.505 221.155 95.305C221.515 95.095 221.785 94.81 221.965 94.45L223.36 95.245C223.04 95.845 222.575 96.32 221.965 96.67C221.365 97.02 220.705 97.195 219.985 97.195ZM227.954 97.195C226.824 97.195 225.879 96.815 225.119 96.055C224.369 95.285 223.994 94.35 223.994 93.25C223.994 92.13 224.369 91.195 225.119 90.445C225.879 89.685 226.824 89.305 227.954 89.305C228.684 89.305 229.349 89.48 229.949 89.83C230.549 90.18 230.999 90.65 231.299 91.24L229.904 92.05C229.734 91.69 229.474 91.41 229.124 91.21C228.784 91 228.389 90.895 227.939 90.895C227.279 90.895 226.724 91.12 226.274 91.57C225.834 92.03 225.614 92.59 225.614 93.25C225.614 93.91 225.834 94.47 226.274 94.93C226.724 95.38 227.279 95.605 227.939 95.605C228.379 95.605 228.774 95.505 229.124 95.305C229.484 95.095 229.754 94.81 229.934 94.45L231.329 95.245C231.009 95.845 230.544 96.32 229.934 96.67C229.334 97.02 228.674 97.195 227.954 97.195Z" fill="white"/>
<defs>
<filter id="filter0_d_694_8002" x="155.24" y="155.24" width="39.7378" height="39.7378" filterUnits="userSpaceOnUse" color-interpolation-filters="sRGB">
<feFlood flood-opacity="0" result="BackgroundImageFix"/>
<feColorMatrix in="SourceAlpha" type="matrix" values="0 0 0 0 0 0 0 0 0 0 0 0 0 0 0 0 0 0 127 0" result="hardAlpha"/>
<feOffset/>
<feGaussianBlur stdDeviation="4.96667"/>
<feComposite in2="hardAlpha" operator="out"/>
<feColorMatrix type="matrix" values="0 0 0 0 0 0 0 0 0 0 0 0 0 0 0 0 0 0 0.4 0"/>
<feBlend mode="normal" in2="BackgroundImageFix" result="effect1_dropShadow_694_8002"/>
<feBlend mode="normal" in="SourceGraphic" in2="effect1_dropShadow_694_8002" result="shape"/>
</filter>
</defs>
</svg>
