<svg width="36" height="35" viewBox="0 0 36 35" fill="none" xmlns="http://www.w3.org/2000/svg">
<path fill-rule="evenodd" clip-rule="evenodd" d="M22.0265 30.7061C21.2762 31.2955 20.5795 31.2666 20.3671 31.3542L19.9046 31.6518L19.8695 31.5064C20.7804 30.8871 19.8783 29.796 21.1718 28.9697C21.6193 28.6837 22.2327 28.3418 22.6785 28.0606C23.3445 27.6397 23.2796 27.1948 23.5507 26.7123C23.6683 27.1756 22.6758 30.2862 22.0265 30.7061ZM24.8652 6.3786C24.7371 6.11858 24.7389 5.75937 24.2431 5.60817C23.9982 5.53401 23.6692 5.45503 23.4252 5.38281C23.0619 5.27398 23.0426 5.05442 22.8592 4.86277C22.8557 5.09872 23.6788 6.43831 24.0342 6.5481C24.4572 6.7253 24.7845 6.61647 24.8942 6.62899L24.9187 6.63669C25.5488 7.12496 26.1359 7.67774 26.6729 8.28639C28.8939 10.8028 30.2681 14.2794 30.2681 18.121C30.2681 21.9626 28.8939 25.4392 26.6729 27.9556C24.4528 30.472 21.385 32.0283 17.9969 32.0283C14.6089 32.0283 11.5411 30.472 9.32095 27.9556C7.09997 25.4392 5.72667 21.9616 5.72667 18.121C5.72667 14.2804 7.10085 10.8028 9.32095 8.28639C9.85799 7.67871 10.4442 7.12689 11.0716 6.63958L11.1041 6.62899C11.2146 6.61551 11.542 6.72434 11.9649 6.5481C12.3203 6.43831 13.1434 5.09775 13.1399 4.86277C12.9565 5.05442 12.9372 5.27398 12.5739 5.38281C12.3308 5.456 12.0009 5.53401 11.7561 5.60817C11.2655 5.75744 11.262 6.11183 11.1374 6.37089C10.4398 6.89479 9.79305 7.49477 9.20424 8.16216C6.9543 10.7113 5.56345 14.2322 5.56345 18.121C5.56345 22.0098 6.95517 25.5316 9.20424 28.0799C11.4542 30.629 14.5632 32.2075 17.9969 32.2075C21.4306 32.2075 24.5397 30.63 26.7896 28.0799C29.0395 25.5307 30.4313 22.0098 30.4313 18.121C30.4313 14.2322 29.0395 10.7104 26.7896 8.16216C26.2034 7.49863 25.5585 6.89961 24.8652 6.3786ZM19.7993 34.8C20.0556 34.8 20.2644 34.5708 20.2644 34.2896C20.2644 34.0084 20.0556 33.7792 19.7993 33.7792C19.5431 33.7792 19.3343 34.0084 19.3343 34.2896C19.3343 34.5708 19.5431 34.8 19.7993 34.8ZM16.2129 34.8C16.4692 34.8 16.678 34.5708 16.678 34.2896C16.678 34.0084 16.4692 33.7792 16.2129 33.7792C15.9567 33.7792 15.7479 34.0084 15.7479 34.2896C15.7479 34.5708 15.9567 34.8 16.2129 34.8ZM18.0364 35.0003C18.4848 35.0003 18.8508 34.5987 18.8508 34.1066C18.8508 33.6145 18.4848 33.2119 18.0364 33.2119C17.588 33.2119 17.2221 33.6135 17.2221 34.1066C17.2221 34.5997 17.588 35.0003 18.0364 35.0003ZM11.0698 7.35705C11.3928 7.15481 12.8494 7.45144 13.0012 7.61997C12.7459 7.62864 12.5888 7.48899 12.2615 7.69893C12.0421 7.83954 11.7587 8.04371 11.5376 8.18335C10.8978 8.58879 10.6934 7.89733 10.2292 8.17276L10.1809 8.12075L10.4108 7.97629C10.4968 7.89828 10.6565 7.56411 11.0707 7.3561L11.0698 7.35705ZM10.8118 6.04442C10.5626 6.45853 10.2388 6.58084 10.1572 6.66077L9.99314 6.88708L9.95364 6.82737C10.2713 6.368 9.68338 6.04346 10.1423 5.41556C10.3011 5.19887 10.5275 4.92343 10.6855 4.70868C10.9224 4.38702 10.8215 4.19634 10.868 3.9238C10.9961 4.11352 11.0409 5.72758 10.811 6.04538L10.8118 6.04442ZM9.08315 7.49477C8.80498 7.95703 8.44433 8.09282 8.35219 8.18335L8.16878 8.4347L8.1249 8.36825C8.47942 7.85591 7.82304 7.49187 8.33551 6.79174C8.51277 6.54905 8.76462 6.24281 8.94187 6.00301C9.20688 5.6438 9.09368 5.43193 9.14545 5.12664C9.28849 5.33755 9.33851 7.14037 9.08227 7.49477H9.08315ZM9.12527 9.13676C9.44381 8.7814 11.2462 8.59745 11.4761 8.74094C11.1795 8.84399 10.9522 8.73709 10.6302 9.10401C10.4152 9.34863 10.1432 9.69244 9.92557 9.93801C9.29727 10.6478 8.8471 9.91008 8.38378 10.4041L8.31094 10.3608L8.53734 10.1075C8.61544 9.98424 8.70143 9.53258 9.12439 9.13676H9.12527ZM7.60454 8.91044C7.44659 9.52775 7.09207 9.81764 7.01924 9.95342L6.89814 10.302L6.82883 10.2452C7.05435 9.54317 6.21456 9.39582 6.55503 8.42411C6.67262 8.08801 6.85252 7.65175 6.97098 7.31854C7.14824 6.82064 6.95519 6.629 6.91394 6.27267C7.13946 6.45083 7.77478 8.42025 7.60542 8.91044H7.60454ZM6.54538 10.8009C6.5524 11.5309 6.24879 11.97 6.2093 12.1434L6.17771 12.5652L6.08556 12.5276C6.12856 11.6821 5.16945 11.8159 5.25895 10.6362C5.29055 10.2289 5.35986 9.69051 5.39233 9.28603C5.44059 8.68027 5.17471 8.53967 5.02729 8.16408C5.32477 8.27965 6.58838 10.2067 6.54626 10.7999L6.54538 10.8009ZM7.40271 11.8285C7.66421 11.319 9.65353 10.5081 9.95364 10.5929C9.64651 10.8096 9.35956 10.7653 9.09718 11.2863C8.92168 11.6359 8.71021 12.1164 8.53207 12.467C8.01785 13.4811 7.30268 12.7963 6.91658 13.5109L6.82268 13.4859L7.00783 13.1228C7.06224 12.9581 7.03416 12.4179 7.40359 11.8275L7.40271 11.8285ZM5.4406 12.9851C5.60206 13.6823 5.40462 14.1812 5.40287 14.3584L5.46253 14.7715L5.36601 14.76C5.22824 13.9385 4.33669 14.3112 4.17259 13.1575C4.11556 12.7588 4.06816 12.2243 4.01376 11.8275C3.93215 11.2352 3.64696 11.1669 3.42583 10.8452C3.73559 10.8799 5.35548 12.4053 5.4406 12.9861V12.9851ZM6.44622 15.2714C6.57785 14.7051 8.30392 13.351 8.61456 13.3472C8.36974 13.6448 8.08191 13.6833 7.95291 14.2631C7.86692 14.6502 7.77653 15.1751 7.68878 15.5641C7.43343 16.6909 6.58049 16.2344 6.37778 17.0356L6.28125 17.0385L6.37427 16.635C6.38656 16.4607 6.23123 15.9474 6.4471 15.2714H6.44622ZM4.87636 15.3821C4.67892 14.8361 2.7984 13.7295 2.48864 13.769C2.76769 14.031 3.0599 14.03 3.25559 14.5895C3.38634 14.9632 3.53814 15.4736 3.67153 15.8501C4.05763 16.9384 4.85529 16.3625 5.15101 17.1329L5.24755 17.1214L5.10801 16.7333C5.07467 16.5599 5.16945 16.0264 4.87548 15.3831L4.87636 15.3821ZM4.47182 17.8957C4.95006 18.4735 4.99219 19.0619 5.07292 19.2314L5.32213 19.5935L5.22385 19.6359C4.71051 18.9261 4.02956 19.7813 3.3372 18.7682C3.09764 18.4176 2.80455 17.9322 2.56762 17.5836C2.21398 17.0617 1.90949 17.156 1.54883 16.9721C1.8621 16.8315 4.12169 17.3872 4.4727 17.8957H4.47182ZM6.24352 18.8741C6.23387 18.2414 7.68791 16.2932 8.00995 16.192C7.83094 16.5782 7.54048 16.7092 7.5554 17.3535C7.56593 17.7839 7.6063 18.3598 7.61507 18.7932C7.63964 20.049 6.63138 19.8381 6.62699 20.7366L6.52608 20.7694L6.51906 20.3196C6.48747 20.1328 6.19263 19.6455 6.24352 18.8741ZM4.97288 20.7925C5.52221 21.456 5.57047 22.1321 5.66349 22.3266L5.94956 22.7427L5.83723 22.7908C5.24754 21.9761 4.46567 22.9584 3.67065 21.795C3.39599 21.3925 3.05815 20.8368 2.787 20.4352C2.38159 19.8352 2.03234 19.944 1.61728 19.7331C1.97706 19.5723 4.57011 20.2089 4.97376 20.7925H4.97288ZM6.92359 22.995C6.79021 22.3574 7.88096 20.0404 8.18809 19.8632C8.08191 20.2965 7.81427 20.4968 7.95555 21.1469C8.05032 21.5812 8.20477 22.1542 8.29778 22.5915C8.56806 23.8569 7.50538 23.881 7.6765 24.792L7.58173 24.8488L7.48608 24.3952C7.41764 24.2132 7.02363 23.7895 6.92359 22.9959V22.995ZM5.71 23.5834C6.36813 24.114 6.53749 24.766 6.66298 24.9365L7.01836 25.2822L6.91658 25.3544C6.19175 24.6832 5.60293 25.8157 4.61397 24.8479C4.27174 24.5137 3.84177 24.0408 3.50305 23.7076C2.9976 23.2078 2.67468 23.3908 2.22978 23.2733C2.5527 23.0373 5.20982 23.099 5.71 23.5834ZM6.69456 26.1355C7.42904 26.5284 7.70195 27.1361 7.85375 27.2796L8.26004 27.5492L8.17141 27.6397C7.34918 27.1216 6.9543 28.3524 5.82407 27.5945C5.4327 27.3325 4.93164 26.9521 4.54466 26.6902C3.9655 26.2982 3.67767 26.5419 3.22048 26.5139C3.50041 26.2173 6.12418 25.756 6.69544 26.1345L6.69456 26.1355ZM8.51891 28.4497C9.39817 28.7578 9.79306 29.3886 9.98436 29.5225L10.4784 29.7517L10.3933 29.8692C9.39642 29.4377 9.13843 30.8842 7.76161 30.24C7.28512 30.0175 6.66911 29.6824 6.19701 29.458C5.49149 29.1238 5.20542 29.4464 4.6912 29.4965C4.95971 29.1151 7.82479 28.1299 8.51978 28.4497H8.51891ZM8.28286 25.3092C8.13456 24.5984 9.34815 22.0204 9.6895 21.823C9.57192 22.3054 9.27269 22.5289 9.43064 23.2511C9.53594 23.7346 9.70794 24.3721 9.81149 24.8585C10.1125 26.2674 8.92958 26.2944 9.12 27.3085L9.01382 27.372L8.90765 26.8664C8.83131 26.6642 8.39255 26.1923 8.28198 25.3092H8.28286ZM10.9365 30.4749C11.8508 30.6117 12.3387 31.1587 12.5484 31.2531L13.0706 31.386L13.0048 31.5179C11.9552 31.282 11.9281 32.7545 10.4705 32.3808C9.96681 32.2508 9.30604 32.037 8.80673 31.906C8.05909 31.7105 7.82831 32.0832 7.329 32.2296C7.53346 31.8039 10.2002 30.29 10.9356 30.4749H10.9365ZM10.6144 28.6837C10.1476 28.1656 9.94224 25.2726 10.137 24.9066C10.2687 25.3853 10.1221 25.7474 10.603 26.2703C10.9242 26.6208 11.3761 27.0638 11.6981 27.4173C12.6301 28.441 11.6376 29.1469 12.2861 29.899L12.2264 30.0136L11.8938 29.6458C11.7315 29.5177 11.133 29.3703 10.6144 28.6827V28.6837ZM13.891 31.8454C14.8124 31.8011 15.3828 32.2421 15.604 32.2951L16.1392 32.323L16.0962 32.4656C15.0257 32.4386 15.2389 33.8938 13.7436 33.8119C13.2268 33.783 12.5423 33.7031 12.029 33.6722C11.2611 33.626 11.0944 34.0382 10.6276 34.2799C10.7601 33.8215 13.1373 31.8088 13.8902 31.8463L13.891 31.8454ZM13.9726 30.7061C13.3233 30.2862 12.3308 27.1765 12.4484 26.7123C12.7196 27.1958 12.6538 27.6397 13.3198 28.0606C13.7656 28.3418 14.3789 28.6837 14.8265 28.9697C16.1199 29.795 15.2187 30.8871 16.1296 31.5064L16.0953 31.6518L15.6329 31.3542C15.4214 31.2666 14.7238 31.2955 13.9735 30.7061H13.9726ZM24.9293 7.3561C25.3435 7.56411 25.5023 7.89828 25.5892 7.97629L25.8182 8.12075L25.7699 8.17276C25.3048 7.89733 25.1004 8.58879 24.4616 8.18335C24.2404 8.04371 23.9561 7.83954 23.7376 7.69893C23.4103 7.48899 23.2524 7.62864 22.9979 7.61997C23.1497 7.45144 24.6064 7.15481 24.9293 7.35705V7.3561ZM25.1881 6.04347C24.9582 5.72566 25.003 4.11159 25.1311 3.92188C25.1776 4.19442 25.0767 4.38606 25.3136 4.70676C25.4725 4.92152 25.698 5.19695 25.8568 5.41363C26.3157 6.04154 25.7287 6.36705 26.0455 6.82546L26.006 6.88517L25.8419 6.65884C25.7594 6.57794 25.4356 6.45661 25.1864 6.0425L25.1881 6.04347ZM26.9177 7.4938C26.6615 7.1394 26.7115 5.33755 26.8545 5.12568C26.9063 5.43097 26.794 5.6438 27.0581 6.00205C27.2354 6.24185 27.4872 6.54809 27.6645 6.79078C28.177 7.49091 27.5214 7.85495 27.8751 8.36729L27.8321 8.43374L27.6487 8.18238C27.5566 8.09186 27.1959 7.95607 26.9177 7.4938ZM26.8747 9.1358C27.2986 9.53161 27.3846 9.98328 27.4627 10.1065L27.6891 10.3598L27.6171 10.4032C27.1546 9.90912 26.7036 10.6468 26.0753 9.93705C25.8577 9.69147 25.5865 9.34766 25.3707 9.10305C25.0495 8.73613 24.8222 8.84304 24.5256 8.73999C24.7555 8.5965 26.5579 8.78044 26.8756 9.1358H26.8747ZM28.3955 8.90948C28.2261 8.41929 28.8605 6.44987 29.0861 6.27171C29.0457 6.629 28.8526 6.81968 29.029 7.31757C29.1475 7.65079 29.3265 8.08704 29.445 8.42315C29.7854 9.39486 28.9448 9.54124 29.1712 10.2443L29.101 10.3011L28.9799 9.95246C28.907 9.81667 28.5525 9.52679 28.3946 8.90948H28.3955ZM29.4546 10.7999C29.4125 10.2057 30.6752 8.27965 30.9736 8.16408C30.8262 8.5387 30.5594 8.68027 30.6085 9.28603C30.641 9.69051 30.7103 10.2289 30.741 10.6362C30.8306 11.8159 29.8714 11.6821 29.9144 12.5276L29.8223 12.5652L29.7907 12.1434C29.7512 11.97 29.4476 11.5299 29.4546 10.8009V10.7999ZM28.5973 11.8275C28.9667 12.4179 28.9386 12.9581 28.9922 13.1228L29.1773 13.4859L29.0834 13.5109C28.6973 12.7963 27.9821 13.4811 27.4679 12.467C27.2898 12.1164 27.0783 11.6359 26.9028 11.2863C26.6404 10.7643 26.3535 10.8086 26.0464 10.5929C26.3465 10.5081 28.3358 11.319 28.5973 11.8285V11.8275ZM30.5594 12.9841C30.6445 12.4034 32.2635 10.8789 32.5742 10.8433C32.353 11.1649 32.0678 11.2333 31.9862 11.8256C31.9318 12.2224 31.8844 12.7568 31.8274 13.1555C31.6633 14.3093 30.7718 13.9366 30.634 14.7581L30.5375 14.7696L30.5971 14.3565C30.5962 14.1802 30.3979 13.6814 30.5594 12.9832V12.9841ZM29.5538 15.2704C29.7696 15.9464 29.6134 16.4598 29.6266 16.6341L29.7187 17.0376L29.6222 17.0347C29.4195 16.2344 28.5666 16.6899 28.3112 15.5632C28.2235 15.1731 28.1331 14.6492 28.0471 14.2621C27.919 13.6823 27.6311 13.6438 27.3854 13.3462C27.6952 13.3501 29.4221 14.7041 29.5538 15.2704ZM31.1236 15.3811C30.8288 16.0245 30.9244 16.558 30.8911 16.7313L30.7516 17.1194L30.8481 17.131C31.1438 16.3615 31.9415 16.9365 32.3276 15.8482C32.461 15.4726 32.6128 14.9622 32.7435 14.5876C32.9401 14.0281 33.2314 14.029 33.5105 13.7671C33.2007 13.7276 31.3202 14.8341 31.1228 15.3802L31.1236 15.3811ZM31.5282 17.8947C31.8792 17.3862 34.1388 16.8315 34.4521 16.9711C34.0914 17.156 33.7869 17.0607 33.4333 17.5827C33.1972 17.9313 32.9032 18.4176 32.6637 18.7672C31.9713 19.7803 31.2904 18.9242 30.777 19.6349L30.6787 19.5925L30.9279 19.2304C31.0087 19.0609 31.0508 18.4716 31.5291 17.8947H31.5282ZM29.7565 18.8731C29.8074 19.6445 29.5125 20.1318 29.4809 20.3187L29.473 20.7684L29.373 20.7357C29.3677 19.8371 28.3595 20.0481 28.384 18.7923C28.3928 18.3589 28.4332 17.783 28.4437 17.3525C28.4586 16.7082 28.1691 16.5772 27.9892 16.1911C28.3112 16.2912 29.7653 18.2404 29.7556 18.8731H29.7565ZM31.0271 20.7915C31.4299 20.2079 34.0238 19.5713 34.3827 19.7322C33.9685 19.944 33.6193 19.8352 33.213 20.4342C32.941 20.8349 32.604 21.3915 32.3293 21.7941C31.5343 22.9574 30.7524 21.9751 30.1628 22.7898L30.0496 22.7417L30.3356 22.3257C30.4286 22.1302 30.4769 21.4551 31.0262 20.7915H31.0271ZM29.0764 22.994C28.9764 23.7876 28.5832 24.2123 28.5139 24.3933L28.4183 24.8469L28.3235 24.7901C28.4937 23.879 27.4319 23.855 27.7022 22.5895C27.7961 22.1513 27.9497 21.5783 28.0445 21.145C28.1857 20.4959 27.9172 20.2946 27.8119 19.8612C28.119 20.0394 29.2089 22.3555 29.0764 22.9931V22.994ZM30.2891 23.5824C30.7893 23.098 33.4464 23.0364 33.7702 23.2723C33.3253 23.3898 33.0024 23.2078 32.497 23.7067C32.1591 24.0408 31.7282 24.5127 31.386 24.8469C30.3971 25.8148 29.8082 24.6822 29.0834 25.3535L28.9816 25.2812L29.337 24.9355C29.4625 24.765 29.6319 24.1131 30.29 23.5824H30.2891ZM29.3046 26.1345C29.8758 25.756 32.4996 26.2173 32.7795 26.5139C32.3223 26.5419 32.0345 26.2992 31.4553 26.6902C31.0684 26.9531 30.5673 27.3335 30.1759 27.5945C29.0448 28.3524 28.6499 27.1216 27.8277 27.6397L27.7391 27.5492L28.1445 27.2796C28.2963 27.1361 28.5692 26.5284 29.3037 26.1355L29.3046 26.1345ZM27.4802 28.4487C28.1752 28.128 31.0403 29.1142 31.3088 29.4955C30.7937 29.4454 30.5085 29.1219 29.8021 29.457C29.33 29.6804 28.714 30.0156 28.2375 30.239C26.8607 30.8833 26.6027 29.4377 25.6058 29.8682L25.5207 29.7507L26.0148 29.5215C26.2061 29.3877 26.6018 28.7569 27.4802 28.4487ZM27.7163 25.3082C27.6057 26.1923 27.1669 26.6642 27.0906 26.8655L26.9835 27.3711L26.8774 27.3075C27.0678 26.2934 25.8849 26.2664 26.1859 24.8575C26.2894 24.3712 26.4614 23.7327 26.5667 23.2502C26.7247 22.5279 26.4254 22.3045 26.3079 21.822C26.6492 22.0204 27.8628 24.5984 27.7154 25.3082H27.7163ZM25.0627 30.474C24.1483 30.6107 23.6595 31.1577 23.4507 31.2521L22.9286 31.385L22.9944 31.517C24.0439 31.281 24.0711 32.7535 25.5286 32.3798C26.0323 32.2498 26.6931 32.036 27.1932 31.9051C27.9409 31.7096 28.1717 32.0823 28.671 32.2286C28.4665 31.803 25.7989 30.2891 25.0644 30.474H25.0627ZM25.3847 28.6827C25.8515 28.1646 26.0569 25.2716 25.8621 24.9057C25.7304 25.3843 25.8779 25.7464 25.397 26.2693C25.0749 26.6199 24.623 27.0629 24.3018 27.4163C23.3699 28.44 24.3615 29.1459 23.7139 29.8981L23.7736 30.0127L24.1062 29.6448C24.2685 29.5167 24.8679 29.3694 25.3856 28.6818L25.3847 28.6827ZM22.1081 31.8444C22.861 31.8068 25.239 33.8196 25.3707 34.278C24.9038 34.0353 24.7371 33.6241 23.9693 33.6703C23.4559 33.7011 22.7715 33.782 22.2546 33.81C20.7602 33.8918 20.9735 32.4367 19.902 32.4636L19.859 32.3211L20.3943 32.2932C20.6154 32.2402 21.1858 31.7991 22.1072 31.8434L22.1081 31.8444Z" fill="url(#paint0_linear_770_16029)"/>
<path fill-rule="evenodd" clip-rule="evenodd" d="M18.0391 31.9114H18.0382L18.0145 31.9095C17.438 31.8575 16.4551 31.271 15.3038 30.2348C14.2798 29.3122 13.1381 28.04 12.0465 26.477C10.7592 24.6337 9.56228 22.3956 8.73479 19.856C8.03717 17.7123 7.6028 15.3548 7.6028 12.8422C7.6028 12.8297 7.60279 12.8181 7.60016 12.8056C7.60016 12.5456 7.60543 12.2942 7.6142 12.0506C7.62386 11.7963 7.63878 11.5247 7.65984 11.2378C7.65984 11.2291 7.65984 11.2214 7.65984 11.2127V11.1992C7.86166 8.86578 8.04156 7.08608 8.18722 5.77634C8.31271 4.64958 8.40836 3.89937 8.47241 3.44192L17.8311 1.7248L27.3363 3.44866C27.4162 3.87336 27.5346 4.56579 27.6794 5.59625C27.8496 6.80487 28.0594 8.49309 28.2919 10.7967C28.3252 11.1299 28.3507 11.4593 28.3665 11.7867C28.3832 12.1132 28.3911 12.4493 28.3911 12.7921C28.3911 15.1872 27.9646 17.4802 27.2766 19.5941C26.4632 22.0951 25.2864 24.3467 24.0193 26.2247C22.9321 27.8358 21.793 29.1668 20.7707 30.1394C19.6431 31.2123 18.6779 31.8373 18.1049 31.9076L18.0847 31.9095H18.0548H18.0364L18.0391 31.9114ZM18.0206 32.4816H18.0294C18.0382 32.4825 18.0478 32.4835 18.0575 32.4835L18.111 32.4816C18.1329 32.4806 18.1505 32.4787 18.1645 32.4768C18.8358 32.3959 19.9064 31.7208 21.113 30.5728C22.1607 29.5761 23.3278 28.2134 24.4388 26.5665C25.7348 24.6453 26.9388 22.3436 27.7698 19.7886C28.4762 17.616 28.9149 15.2585 28.9149 12.794C28.9149 12.4579 28.9062 12.1122 28.8886 11.7578C28.8719 11.415 28.8456 11.074 28.8123 10.736C28.5797 8.44205 28.3683 6.74035 28.1954 5.51054C28.0216 4.27399 27.8883 3.53052 27.811 3.14049C27.7891 3.02877 27.7066 2.93824 27.5987 2.91898L17.8837 1.15757C17.8539 1.15083 17.8214 1.14988 17.7898 1.15565L8.20389 2.91416C8.09683 2.93439 8.00733 3.02781 7.98978 3.15204C7.92572 3.60082 7.81428 4.42903 7.67212 5.70796C7.52997 6.98784 7.35095 8.75985 7.14562 11.1463C7.14474 11.154 7.14386 11.1617 7.14386 11.1704V11.1848L7.1421 11.1935C7.12192 11.466 7.107 11.7443 7.09647 12.0294C7.08506 12.3212 7.0798 12.5918 7.0798 12.8432C7.0798 12.8557 7.07979 12.8682 7.08243 12.8807C7.08681 15.4501 7.53083 17.8587 8.24425 20.0496C9.09017 22.647 10.3152 24.9371 11.6332 26.8246C12.7503 28.4233 13.9218 29.7282 14.9748 30.6768C16.2086 31.7882 17.3002 32.4209 17.975 32.4806H17.982L18.0127 32.4825H18.0215L18.0206 32.4816ZM17.8907 33.6199C17.9092 33.6208 17.9381 33.6228 17.9759 33.6247C18.0145 33.6266 18.0417 33.6276 18.0566 33.6276C18.0838 33.6276 18.1189 33.6257 18.1619 33.6228C18.1996 33.6208 18.2383 33.617 18.2777 33.6122C19.0666 33.5159 20.2829 32.7868 21.6272 31.5532C22.7978 30.4794 24.0807 29.0136 25.2733 27.2455C26.6299 25.2356 27.8891 22.8232 28.7587 20.1402C29.4976 17.8606 29.9565 15.3846 29.9565 12.7921C29.9565 12.4406 29.9469 12.0775 29.9285 11.7019C29.91 11.3389 29.8829 10.9748 29.846 10.6089C29.5547 7.73228 29.294 5.77056 29.0992 4.49934C28.9035 3.22042 28.7728 2.63199 28.7447 2.50969C28.7105 2.34308 28.6315 2.19285 28.5209 2.07632C28.4113 1.96172 28.2691 1.88082 28.1085 1.85193L17.9768 0.0144363H17.975C17.9329 0.00576886 17.889 0 17.8443 0C17.796 0 17.7486 0.00288866 17.703 0.0115561H17.7021L7.69756 1.84711C7.53084 1.86926 7.37639 1.95112 7.25705 2.07439C7.13771 2.1967 7.0526 2.36138 7.02276 2.5511L7.02013 2.57229C6.98064 2.81401 6.62261 5.09354 6.11015 11.0355L6.10663 11.0606C6.10488 11.0702 6.10489 11.0808 6.10401 11.0914V11.0991L6.10313 11.1039C6.08295 11.3774 6.06803 11.6644 6.0575 11.9629V11.9677C6.04784 12.2403 6.04258 12.5176 6.04258 12.7989C6.04082 12.8133 6.03906 12.8278 6.03906 12.8432C6.03906 15.5589 6.5059 18.1033 7.25617 20.4137C8.14158 23.1391 9.42538 25.5409 10.8057 27.518C12.0079 29.239 13.2996 30.645 14.4807 31.6707C15.8576 32.8668 17.1001 33.5505 17.8916 33.6208L17.8907 33.6199ZM17.9987 33.0546H18.0004C18.0092 33.0546 18.0294 33.0546 18.0566 33.0546C18.0856 33.0546 18.111 33.0546 18.1312 33.0527C18.1575 33.0517 18.1873 33.0478 18.2207 33.044C18.9122 32.9602 20.0266 32.2764 21.2929 31.115C22.4371 30.0653 23.6902 28.6342 24.8556 26.9055C26.1832 24.9371 27.4161 22.5766 28.2673 19.9504C28.9878 17.7287 29.4353 15.3163 29.4353 12.7921C29.4353 12.4339 29.4265 12.0804 29.409 11.7328C29.3914 11.3841 29.3642 11.0297 29.3283 10.6705C29.0387 7.80643 28.7789 5.85627 28.5859 4.59179C28.3937 3.33791 28.2665 2.7649 28.2393 2.64644L28.2358 2.63103C28.2243 2.5771 28.198 2.52703 28.162 2.48947C28.1261 2.45095 28.0787 2.42398 28.0252 2.41435L17.8934 0.576863L17.8758 0.573007C17.8627 0.570118 17.8486 0.568187 17.8363 0.568187C17.8223 0.568187 17.8056 0.568191 17.7872 0.572043L7.77742 2.40856L7.76338 2.41049C7.70722 2.41723 7.65457 2.44517 7.6142 2.48658C7.57472 2.52702 7.54664 2.58192 7.53698 2.64548C7.53523 2.65319 7.53435 2.66185 7.53171 2.67052C7.49135 2.91706 7.13684 5.17828 6.627 11.1L6.62525 11.1135L6.62173 11.1376V11.1424L6.62085 11.1443C6.59979 11.4323 6.58401 11.7106 6.57435 11.9812V11.9889C6.56382 12.274 6.55943 12.5571 6.55943 12.8383C6.55943 12.847 6.55943 12.8547 6.55855 12.8634C6.56119 15.4992 7.01574 17.9704 7.74495 20.2162C8.61194 22.8839 9.86678 25.2337 11.2173 27.1665C12.3931 28.8499 13.6524 30.2223 14.8001 31.219C16.0954 32.3438 17.2344 32.9852 17.9311 33.0469H17.932C17.9671 33.0507 17.9882 33.0517 17.9969 33.0517L17.9987 33.0546Z" fill="url(#paint1_linear_770_16029)"/>
<path fill-rule="evenodd" clip-rule="evenodd" d="M18.0575 32.1969C18.0338 32.1969 18.0127 32.1959 17.9943 32.194C16.8237 32.09 14.2122 30.0464 11.8403 26.6498C9.43505 23.2069 7.34307 18.4013 7.34307 12.8416H7.34044C7.34044 12.3216 7.36061 11.7784 7.40186 11.215V11.1842C7.81078 6.45279 8.12142 4.06539 8.2469 3.1948L17.8328 1.43628L27.5566 3.19962C27.711 3.98546 28.0883 6.16868 28.5534 10.7663C28.6219 11.4433 28.6543 12.1193 28.6543 12.7935C28.6543 18.0893 26.5992 22.8852 24.2308 26.3965C21.8913 29.8634 19.3097 32.0495 18.1365 32.193C18.1136 32.1959 18.0873 32.1969 18.0584 32.1969H18.0575ZM17.9127 33.3343C17.9653 33.3391 18.0145 33.341 18.0575 33.341C18.1137 33.341 18.1786 33.3362 18.2497 33.3275C19.6458 33.158 22.5556 30.7947 25.0653 27.0754C27.5452 23.3995 29.6968 18.3676 29.6968 12.7925C29.6968 12.0885 29.6617 11.3711 29.588 10.6401C29.0071 4.89843 28.5482 2.81824 28.4929 2.57941C28.4499 2.35598 28.2858 2.173 28.0673 2.13448L17.9355 0.296998C17.8741 0.283515 17.81 0.280622 17.7451 0.293142L7.73532 2.12967C7.51067 2.15664 7.32025 2.34347 7.27988 2.59964C7.279 2.60542 6.91045 4.78094 6.36814 11.0754C6.36551 11.0918 6.36376 11.1081 6.36288 11.1245C6.32164 11.6888 6.30146 12.2619 6.30146 12.8407H6.29883C6.29883 18.6902 8.49173 23.7327 11.0119 27.3422C13.5646 30.9979 16.5192 33.21 17.9118 33.3333L17.9127 33.3343Z" fill="url(#paint2_linear_770_16029)"/>
<path d="M18.0568 32.7693C15.5164 32.7693 5.96818 23.5973 6.88167 11.1711C7.42222 4.88823 7.79253 2.69922 7.79253 2.69922" stroke="#8F6137" stroke-width="0.303049" stroke-miterlimit="2.61"/>
<path d="M7.79297 2.69876L17.8308 0.857422L27.9836 2.69876" stroke="#8F6137" stroke-width="0.303049" stroke-miterlimit="2.61"/>
<path d="M27.9839 2.69922C27.9839 2.69922 28.4552 4.62049 29.0703 10.704C30.2857 22.7219 20.5997 32.7693 18.0566 32.7693" stroke="#8F6137" stroke-width="0.303049" stroke-miterlimit="2.61"/>
<path fill-rule="evenodd" clip-rule="evenodd" d="M18.0568 32.7689C15.5164 32.7689 5.96818 23.5968 6.88167 11.1707C7.42222 4.88777 7.79253 2.69876 7.79253 2.69876L17.8295 0.857422L27.9832 2.69876C27.9832 2.69876 28.4544 4.62004 29.0696 10.7036C30.2849 22.7214 20.599 32.7689 18.0559 32.7689H18.0568Z" fill="url(#paint3_radial_770_16029)"/>
<path fill-rule="evenodd" clip-rule="evenodd" d="M18.0314 32.7679C15.4533 32.7082 5.97087 23.5564 6.88172 11.1707C7.42227 4.88777 7.79258 2.69876 7.79258 2.69876L17.8296 0.857422L18.0305 0.894018V32.7679H18.0314Z" fill="url(#paint4_radial_770_16029)"/>
<g clip-path="url(#clip0_770_16029)">
<path d="M11.8351 22.8392C11.6587 22.4867 11.4823 22.1341 11.2832 21.7213C11.1809 21.512 11.1014 21.3628 11.0218 21.2136C10.8406 20.7245 10.6657 20.2322 10.4744 19.748C10.4182 19.6057 10.2004 18.7222 10.101 18.5624C9.9885 17.7402 10.0092 17.712 9.89756 16.8843C9.83701 16.247 9.79364 15.645 9.74349 14.9977C9.73807 14.8445 9.73943 14.7367 9.74033 14.5568C9.72375 14.4009 9.70764 14.317 9.69152 14.2332C9.69152 14.2332 9.69494 14.1873 9.69114 14.1272C9.68414 13.9908 9.68094 13.9145 9.67773 13.8382C9.69481 13.3301 9.71189 12.8221 9.7194 12.2695C9.71509 12.1488 9.72035 12.0727 9.7271 11.9269C9.72305 11.8114 9.71751 11.7657 9.71198 11.72C9.71115 11.6065 9.71032 11.4929 9.71426 11.3171C9.72351 11.1738 9.72798 11.0929 9.73245 11.0119C9.7379 10.8057 9.74334 10.5995 9.74962 10.3051C9.75438 9.97827 9.7583 9.73965 9.80376 9.49933C10.3274 9.46121 10.8095 9.42479 11.3313 9.39358C12.7076 9.29637 13.9984 8.97058 15.2093 8.32665C15.7047 8.06322 16.1577 7.70041 16.6587 7.38085C17.0331 7.14903 17.4265 6.97573 17.712 6.67464C18.0506 6.31756 18.3024 6.29645 18.6159 6.70212C18.7791 6.84084 18.9256 6.95175 19.0894 7.08881C19.2436 7.21729 19.3804 7.31963 19.5456 7.44276C19.8247 7.60916 20.0753 7.75478 20.3449 7.92958C20.8066 8.1666 21.2493 8.37446 21.7194 8.604C22.2953 8.80154 22.8438 8.97738 23.3923 9.15321C23.9145 9.23718 24.4368 9.32114 24.9985 9.39808C25.5267 9.44432 26.0154 9.49757 26.5837 9.55949C26.5837 10.2977 26.5837 11.0639 26.5922 11.8766C26.5984 12.0962 26.5962 12.2693 26.5932 12.5246C26.5973 12.716 26.6022 12.8251 26.6071 12.9342C26.6019 13.0416 26.5968 13.1491 26.5913 13.3388C26.5959 13.5955 26.6007 13.7699 26.6056 13.9443C26.4443 15.5064 26.3148 17.0737 26.1066 18.6279C26.0197 19.2767 25.7657 19.8976 25.5797 20.5594C25.1681 20.1191 24.8035 19.7292 24.3991 19.2881C24.3191 19.1037 24.2179 18.9491 24.2483 18.8402C24.6413 17.4303 24.7724 15.9779 24.8108 14.5144C24.8393 13.4301 24.8164 12.3441 24.8164 11.2783C24.0802 11.1501 23.4288 11.0366 22.7452 10.9077C22.0238 10.6561 21.3346 10.4199 20.6229 10.1566C20.0644 9.83788 19.5284 9.54636 18.9762 9.23176C18.8822 9.16617 18.8044 9.12366 18.7088 9.0519C18.1113 8.60348 18.1113 8.60348 17.759 9.07948C17.0854 9.44933 16.447 9.81955 15.7729 10.194C15.6638 10.2111 15.5862 10.2109 15.5178 10.2389C14.3098 10.7323 13.0775 11.1031 11.79 11.2334C11.6803 11.2445 11.5148 11.4813 11.5036 11.6256C11.4676 12.0916 11.4916 12.5633 11.4865 13.0666C11.4842 13.1458 11.4878 13.1912 11.4863 13.2784C11.4862 13.4601 11.4913 13.6 11.4905 13.7737C11.4884 13.853 11.4921 13.8985 11.4897 13.9791C11.5031 14.2313 11.5225 14.4484 11.5428 14.7111C11.5822 15.3283 11.6208 15.8998 11.654 16.496C11.6511 16.5372 11.6535 16.5538 11.6536 16.6126C11.8609 17.5696 12.0705 18.4845 12.2838 19.4366C12.4271 19.789 12.5669 20.1041 12.7209 20.4531C12.916 20.8318 13.0968 21.1767 13.2839 21.5531C13.3726 21.7003 13.4551 21.816 13.5499 21.9641C13.7145 22.1627 13.7843 22.3077 13.6013 22.534C13.3224 22.8786 13.0828 23.2629 12.7923 23.639C12.6035 23.5575 12.4491 23.4674 12.2921 23.345C12.138 23.1549 11.9865 22.997 11.8351 22.8392Z" fill="url(#paint5_linear_770_16029)"/>
<path d="M17.2443 25.3358C17.4672 25.5607 17.6901 25.7856 17.9396 26.0374C18.812 25.1035 19.6728 24.1831 20.5324 23.2614C21.3726 22.3605 22.2101 21.4566 23.0531 20.559C23.1439 20.4624 23.2639 20.3993 23.3998 20.3333C23.7971 20.7809 24.1649 21.2159 24.4909 21.6015C23.8737 22.3156 23.2597 23.026 22.6337 23.7665C21.2033 25.3069 19.7867 26.8192 18.363 28.3234C18.2465 28.4465 18.0822 28.5146 17.9124 28.5975C16.8525 27.6345 15.8203 26.6823 14.7575 25.7245C14.3923 25.3358 14.0576 24.9529 13.6985 24.5418C14.0525 24.0834 14.4227 23.6039 14.8177 23.0924C15.0724 23.3316 15.3105 23.5552 15.5949 23.818C16.1756 24.3501 16.7099 24.843 17.2443 25.3358Z" fill="url(#paint6_linear_770_16029)"/>
</g>
<g opacity="0.5" clip-path="url(#clip1_770_16029)">
<path d="M11.8351 22.8392C11.6587 22.4867 11.4823 22.1341 11.2832 21.7213C11.1809 21.512 11.1014 21.3628 11.0218 21.2136C10.8406 20.7245 10.6657 20.2322 10.4744 19.748C10.4182 19.6057 10.2004 18.7222 10.101 18.5624C9.9885 17.7402 10.0092 17.712 9.89756 16.8843C9.83701 16.247 9.79364 15.645 9.74349 14.9977C9.73807 14.8445 9.73943 14.7367 9.74033 14.5568C9.72375 14.4009 9.70764 14.317 9.69152 14.2332C9.69152 14.2332 9.69494 14.1873 9.69114 14.1272C9.68414 13.9908 9.68094 13.9145 9.67773 13.8382C9.69481 13.3301 9.71189 12.8221 9.7194 12.2695C9.71509 12.1488 9.72035 12.0727 9.7271 11.9269C9.72305 11.8114 9.71751 11.7657 9.71198 11.72C9.71115 11.6065 9.71032 11.4929 9.71426 11.3171C9.72351 11.1738 9.72798 11.0929 9.73245 11.0119C9.7379 10.8057 9.74334 10.5995 9.74962 10.3051C9.75438 9.97827 9.7583 9.73965 9.80376 9.49933C10.3274 9.46121 10.8095 9.42479 11.3313 9.39358C12.7076 9.29637 13.9984 8.97058 15.2093 8.32665C15.7047 8.06322 16.1577 7.70041 16.6587 7.38085C17.0331 7.14903 17.4265 6.97573 17.712 6.67464C18.0506 6.31756 18.3024 6.29645 18.6159 6.70212C18.7791 6.84084 18.9256 6.95175 19.0894 7.08881C19.2436 7.21729 19.3804 7.31963 19.5456 7.44276C19.8247 7.60916 20.0753 7.75478 20.3449 7.92958C20.8066 8.1666 21.2493 8.37446 21.7194 8.604C22.2953 8.80154 22.8438 8.97738 23.3923 9.15321C23.9145 9.23718 24.4368 9.32114 24.9985 9.39808C25.5267 9.44432 26.0154 9.49757 26.5837 9.55949C26.5837 10.2977 26.5837 11.0639 26.5922 11.8766C26.5984 12.0962 26.5962 12.2693 26.5932 12.5246C26.5973 12.716 26.6022 12.8251 26.6071 12.9342C26.6019 13.0416 26.5968 13.1491 26.5913 13.3388C26.5959 13.5955 26.6007 13.7699 26.6056 13.9443C26.4443 15.5064 26.3148 17.0737 26.1066 18.6279C26.0197 19.2767 25.7657 19.8976 25.5797 20.5594C25.1681 20.1191 24.8035 19.7292 24.3991 19.2881C24.3191 19.1037 24.2179 18.9491 24.2483 18.8402C24.6413 17.4303 24.7724 15.9779 24.8108 14.5144C24.8393 13.4301 24.8164 12.3441 24.8164 11.2783C24.0802 11.1501 23.4288 11.0366 22.7452 10.9077C22.0238 10.6561 21.3346 10.4199 20.6229 10.1566C20.0644 9.83788 19.5284 9.54636 18.9762 9.23176C18.8822 9.16617 18.8044 9.12366 18.7088 9.0519C18.1113 8.60348 18.1113 8.60348 17.759 9.07948C17.0854 9.44933 16.447 9.81955 15.7729 10.194C15.6638 10.2111 15.5862 10.2109 15.5178 10.2389C14.3098 10.7323 13.0775 11.1031 11.79 11.2334C11.6803 11.2445 11.5148 11.4813 11.5036 11.6256C11.4676 12.0916 11.4916 12.5633 11.4865 13.0666C11.4842 13.1458 11.4878 13.1912 11.4863 13.2784C11.4862 13.4601 11.4913 13.6 11.4905 13.7737C11.4884 13.853 11.4921 13.8985 11.4897 13.9791C11.5031 14.2313 11.5225 14.4484 11.5428 14.7111C11.5822 15.3283 11.6208 15.8998 11.654 16.496C11.6511 16.5372 11.6535 16.5538 11.6536 16.6126C11.8609 17.5696 12.0705 18.4845 12.2838 19.4366C12.4271 19.789 12.5669 20.1041 12.7209 20.4531C12.916 20.8318 13.0968 21.1767 13.2839 21.5531C13.3726 21.7003 13.4551 21.816 13.5499 21.9641C13.7145 22.1627 13.7843 22.3077 13.6013 22.534C13.3224 22.8786 13.0828 23.2629 12.7923 23.639C12.6035 23.5575 12.4491 23.4674 12.2921 23.345C12.138 23.1549 11.9865 22.997 11.8351 22.8392Z" fill="url(#paint7_linear_770_16029)"/>
<path d="M17.2443 25.3358C17.4672 25.5607 17.6901 25.7856 17.9396 26.0374C18.812 25.1035 19.6728 24.1831 20.5324 23.2614C21.3726 22.3605 22.2101 21.4566 23.0531 20.559C23.1439 20.4624 23.2639 20.3993 23.3998 20.3333C23.7971 20.7809 24.1649 21.2159 24.4909 21.6015C23.8737 22.3156 23.2597 23.026 22.6337 23.7665C21.2033 25.3069 19.7867 26.8192 18.363 28.3234C18.2465 28.4465 18.0822 28.5146 17.9124 28.5975C16.8525 27.6345 15.8203 26.6823 14.7575 25.7245C14.3923 25.3358 14.0576 24.9529 13.6985 24.5418C14.0525 24.0834 14.4227 23.6039 14.8177 23.0924C15.0724 23.3316 15.3105 23.5552 15.5949 23.818C16.1756 24.3501 16.7099 24.843 17.2443 25.3358Z" fill="url(#paint8_linear_770_16029)"/>
</g>
<path d="M19.6575 18.3846H20.3542V19.6958H19.6575V20.9149H18.3661V19.6958H15.291V18.3846L17.4557 13.7441H18.8306L16.6753 18.3846H18.3661V16.6841H19.6575V18.3846Z" fill="url(#paint9_linear_770_16029)"/>
<defs>
<linearGradient id="paint0_linear_770_16029" x1="17.9996" y1="34.9993" x2="17.9996" y2="3.92188" gradientUnits="userSpaceOnUse">
<stop stop-color="#DBA73E"/>
<stop offset="0.16" stop-color="#D89D3A"/>
<stop offset="0.3" stop-color="#A46B28"/>
<stop offset="0.46" stop-color="#8E5723"/>
<stop offset="0.49" stop-color="#F4F3B8"/>
<stop offset="0.56" stop-color="#F7ED9A"/>
<stop offset="0.69" stop-color="#D5B767"/>
<stop offset="0.75" stop-color="#A76F29"/>
<stop offset="0.85" stop-color="#D0AB5B"/>
<stop offset="1" stop-color="#E0C77D"/>
</linearGradient>
<linearGradient id="paint1_linear_770_16029" x1="17.9987" y1="33.174" x2="17.9987" y2="0.436261" gradientUnits="userSpaceOnUse">
<stop stop-color="#DBA73E"/>
<stop offset="0.16" stop-color="#D89D3A"/>
<stop offset="0.3" stop-color="#A46B28"/>
<stop offset="0.49" stop-color="#8E5723"/>
<stop offset="0.54" stop-color="#F4F3B8"/>
<stop offset="0.56" stop-color="#F7ED9A"/>
<stop offset="0.69" stop-color="#D5B767"/>
<stop offset="0.75" stop-color="#A76F29"/>
<stop offset="0.85" stop-color="#D0AB5B"/>
<stop offset="1" stop-color="#E0C77D"/>
</linearGradient>
<linearGradient id="paint2_linear_770_16029" x1="27.3969" y1="29.693" x2="10.3271" y2="2.75349" gradientUnits="userSpaceOnUse">
<stop stop-color="#482A0F"/>
<stop offset="0.1" stop-color="#A77129"/>
<stop offset="0.15" stop-color="white"/>
<stop offset="0.22" stop-color="#DA9E41"/>
<stop offset="0.34" stop-color="#8E5923"/>
<stop offset="0.5" stop-color="#D8A64D"/>
<stop offset="0.66" stop-color="#F5E380"/>
<stop offset="0.72" stop-color="#DAC164"/>
<stop offset="0.77" stop-color="white"/>
<stop offset="0.83" stop-color="#A0752B"/>
<stop offset="1" stop-color="#664219"/>
</linearGradient>
<radialGradient id="paint3_radial_770_16029" cx="0" cy="0" r="1" gradientUnits="userSpaceOnUse" gradientTransform="translate(17.7523 17.7704) scale(18.2751 20.0564)">
<stop stop-color="#493211"/>
<stop offset="0.4" stop-color="#241909"/>
<stop offset="0.78" stop-color="#0A0604"/>
<stop offset="1" stop-color="#000002"/>
</radialGradient>
<radialGradient id="paint4_radial_770_16029" cx="0" cy="0" r="1" gradientUnits="userSpaceOnUse" gradientTransform="translate(18.2438 20.6432) scale(21.0787 23.1333)">
<stop stop-color="#937551"/>
<stop offset="1" stop-color="#393939"/>
</radialGradient>
<linearGradient id="paint5_linear_770_16029" x1="38.6995" y1="30.5108" x2="-5.05381" y2="13.6936" gradientUnits="userSpaceOnUse">
<stop stop-color="#482A0F"/>
<stop offset="0.1" stop-color="#A77129"/>
<stop offset="0.15" stop-color="white"/>
<stop offset="0.22" stop-color="#DA9E41"/>
<stop offset="0.34" stop-color="#8E5923"/>
<stop offset="0.5" stop-color="#D8A64D"/>
<stop offset="0.66" stop-color="#F5E380"/>
<stop offset="0.72" stop-color="#DAC164"/>
<stop offset="0.77" stop-color="white"/>
<stop offset="0.83" stop-color="#A0752B"/>
<stop offset="1" stop-color="#664219"/>
</linearGradient>
<linearGradient id="paint6_linear_770_16029" x1="38.6995" y1="30.5108" x2="-5.05381" y2="13.6936" gradientUnits="userSpaceOnUse">
<stop stop-color="#482A0F"/>
<stop offset="0.1" stop-color="#A77129"/>
<stop offset="0.15" stop-color="white"/>
<stop offset="0.22" stop-color="#DA9E41"/>
<stop offset="0.34" stop-color="#8E5923"/>
<stop offset="0.5" stop-color="#D8A64D"/>
<stop offset="0.66" stop-color="#F5E380"/>
<stop offset="0.72" stop-color="#DAC164"/>
<stop offset="0.77" stop-color="white"/>
<stop offset="0.83" stop-color="#A0752B"/>
<stop offset="1" stop-color="#664219"/>
</linearGradient>
<linearGradient id="paint7_linear_770_16029" x1="38.6995" y1="30.5108" x2="-5.05381" y2="13.6936" gradientUnits="userSpaceOnUse">
<stop stop-color="#482A0F"/>
<stop offset="0.1" stop-color="#A77129"/>
<stop offset="0.15" stop-color="white"/>
<stop offset="0.22" stop-color="#DA9E41"/>
<stop offset="0.34" stop-color="#8E5923"/>
<stop offset="0.5" stop-color="#D8A64D"/>
<stop offset="0.66" stop-color="#F5E380"/>
<stop offset="0.72" stop-color="#DAC164"/>
<stop offset="0.77" stop-color="white"/>
<stop offset="0.83" stop-color="#A0752B"/>
<stop offset="1" stop-color="#664219"/>
</linearGradient>
<linearGradient id="paint8_linear_770_16029" x1="38.6995" y1="30.5108" x2="-5.05381" y2="13.6936" gradientUnits="userSpaceOnUse">
<stop stop-color="#482A0F"/>
<stop offset="0.1" stop-color="#A77129"/>
<stop offset="0.15" stop-color="white"/>
<stop offset="0.22" stop-color="#DA9E41"/>
<stop offset="0.34" stop-color="#8E5923"/>
<stop offset="0.5" stop-color="#D8A64D"/>
<stop offset="0.66" stop-color="#F5E380"/>
<stop offset="0.72" stop-color="#DAC164"/>
<stop offset="0.77" stop-color="white"/>
<stop offset="0.83" stop-color="#A0752B"/>
<stop offset="1" stop-color="#664219"/>
</linearGradient>
<linearGradient id="paint9_linear_770_16029" x1="25.6633" y1="32.0158" x2="7.33793" y2="29.3587" gradientUnits="userSpaceOnUse">
<stop stop-color="#482A0F"/>
<stop offset="0.1" stop-color="#A77129"/>
<stop offset="0.15" stop-color="white"/>
<stop offset="0.22" stop-color="#DA9E41"/>
<stop offset="0.34" stop-color="#8E5923"/>
<stop offset="0.5" stop-color="#D8A64D"/>
<stop offset="0.66" stop-color="#F5E380"/>
<stop offset="0.72" stop-color="#DAC164"/>
<stop offset="0.77" stop-color="white"/>
<stop offset="0.83" stop-color="#A0752B"/>
<stop offset="1" stop-color="#664219"/>
</linearGradient>
<clipPath id="clip0_770_16029">
<rect width="8.15573" height="22.1951" fill="white" transform="translate(9.67773 6.40234)"/>
</clipPath>
<clipPath id="clip1_770_16029">
<rect width="8.84983" height="22.1951" fill="white" transform="matrix(-1 0 0 1 26.6836 6.40234)"/>
</clipPath>
</defs>
</svg>
