<svg width="41" height="40" viewBox="0 0 41 40" fill="none" xmlns="http://www.w3.org/2000/svg">
<rect x="0.0429688" width="40" height="40" rx="20" fill="url(#paint0_linear_1050_118128)"/>
<path fill-rule="evenodd" clip-rule="evenodd" d="M9.0947 19.7879C14.9251 17.2477 18.813 15.5731 20.7583 14.7639C26.3125 12.4538 27.4666 12.0525 28.2188 12.0392C28.3843 12.0363 28.7542 12.0773 28.9938 12.2717C29.1962 12.4359 29.2518 12.6577 29.2785 12.8134C29.3051 12.969 29.3383 13.3236 29.3119 13.6007C29.0109 16.7632 27.7086 24.4376 27.046 27.9797C26.7657 29.4784 26.2136 29.9809 25.6792 30.0301C24.5178 30.137 23.6358 29.2626 22.5109 28.5252C20.7506 27.3713 19.7562 26.653 18.0476 25.527C16.0729 24.2258 17.353 23.5106 18.4783 22.3418C18.7729 22.0359 23.8902 17.3813 23.9892 16.9591C24.0016 16.9063 24.0131 16.7094 23.8962 16.6055C23.7792 16.5015 23.6066 16.5371 23.4821 16.5653C23.3055 16.6054 20.4935 18.4641 15.0459 22.1413C14.2478 22.6894 13.5248 22.9564 12.877 22.9425C12.1629 22.927 10.7893 22.5387 9.76811 22.2067C8.51561 21.7996 7.52014 21.5844 7.60682 20.8929C7.65197 20.5328 8.14793 20.1644 9.0947 19.7879Z" fill="white"/>
<defs>
<linearGradient id="paint0_linear_1050_118128" x1="20.043" y1="0" x2="20.043" y2="39.7033" gradientUnits="userSpaceOnUse">
<stop stop-color="#2AABEE"/>
<stop offset="1" stop-color="#229ED9"/>
</linearGradient>
</defs>
</svg>
