<svg width="41" height="40" viewBox="0 0 41 40" fill="none" xmlns="http://www.w3.org/2000/svg">
<rect x="0.570312" width="40" height="40" rx="20" fill="#AE9408"/>
<path fill-rule="evenodd" clip-rule="evenodd" d="M9.62204 19.7879C15.4525 17.2477 19.3403 15.5731 21.2856 14.7639C26.8398 12.4538 27.9939 12.0525 28.7462 12.0392C28.9116 12.0363 29.2815 12.0773 29.5212 12.2717C29.7235 12.4359 29.7792 12.6577 29.8058 12.8134C29.8325 12.969 29.8656 13.3236 29.8393 13.6007C29.5383 16.7632 28.2359 24.4376 27.5734 27.9797C27.293 29.4784 26.741 29.9809 26.2065 30.0301C25.0451 30.137 24.1632 29.2626 23.0382 28.5252C21.278 27.3713 20.2836 26.653 18.5749 25.527C16.6003 24.2258 17.8804 23.5106 19.0057 22.3418C19.3002 22.0359 24.4175 17.3813 24.5166 16.9591C24.5289 16.9063 24.5404 16.7094 24.4235 16.6055C24.3066 16.5015 24.134 16.5371 24.0094 16.5653C23.8329 16.6054 21.0208 18.4641 15.5733 22.1413C14.7751 22.6894 14.0521 22.9564 13.4044 22.9425C12.6903 22.927 11.3166 22.5387 10.2955 22.2067C9.04295 21.7996 8.04749 21.5844 8.13417 20.8929C8.17932 20.5328 8.67528 20.1644 9.62204 19.7879Z" fill="#222222"/>
</svg>
