<svg width="137" height="137" viewBox="0 0 137 137" fill="none" xmlns="http://www.w3.org/2000/svg">
<g filter="url(#filter0_b_38_1300)">
<circle cx="68.5" cy="68.5" r="68.5" fill="#020F50"/>
<circle cx="68.5" cy="68.5" r="68" stroke="url(#paint0_linear_38_1300)"/>
</g>
<g filter="url(#filter1_b_38_1300)">
<circle cx="69" cy="69" r="57" fill="white" fill-opacity="0.2"/>
<circle cx="69" cy="69" r="57" fill="url(#paint1_linear_38_1300)" fill-opacity="0.2"/>
<circle cx="69" cy="69" r="56.5" stroke="url(#paint2_linear_38_1300)"/>
</g>
<g clip-path="url(#clip0_38_1300)">
<path d="M93.8227 58.2899L69.6562 43.1858C69.2538 42.9381 68.7462 42.9381 68.3438 43.1858L44.1774 58.2899C43.2455 58.8272 42.7969 59.9284 43.0879 60.964C43.4487 62.0936 44.5151 62.8466 45.7002 62.8086H92.2998C93.4849 62.8466 94.5513 62.0936 94.9121 60.964C95.2032 59.9284 94.7546 58.8272 93.8227 58.2899ZM69.0001 57.8565C66.9488 57.8565 65.286 56.1936 65.286 54.1424C65.286 52.0911 66.9488 50.4283 69.0001 50.4283C71.0513 50.4283 72.7142 52.0911 72.7142 54.1424C72.708 56.1912 71.0487 57.8504 69.0001 57.8565Z" fill="#FFD600"/>
<path d="M93.8227 58.2899L69.6562 43.1858C69.2538 42.9381 68.7462 42.9381 68.3438 43.1858L44.1774 58.2899C43.2455 58.8272 42.7969 59.9284 43.0879 60.964C43.4487 62.0936 44.5151 62.8466 45.7002 62.8086H92.2998C93.4849 62.8466 94.5513 62.0936 94.9121 60.964C95.2032 59.9284 94.7546 58.8272 93.8227 58.2899ZM69.0001 57.8565C66.9488 57.8565 65.286 56.1936 65.286 54.1424C65.286 52.0911 66.9488 50.4283 69.0001 50.4283C71.0513 50.4283 72.7142 52.0911 72.7142 54.1424C72.708 56.1912 71.0487 57.8504 69.0001 57.8565Z" fill="#FFD600"/>
<path d="M68.9995 56.6161C70.3669 56.6161 71.4755 55.5076 71.4755 54.1401C71.4755 52.7726 70.3669 51.6641 68.9995 51.6641C67.632 51.6641 66.5234 52.7726 66.5234 54.1401C66.5234 55.5076 67.632 56.6161 68.9995 56.6161Z" fill="#FFD600"/>
<path d="M68.9995 56.6161C70.3669 56.6161 71.4755 55.5076 71.4755 54.1401C71.4755 52.7726 70.3669 51.6641 68.9995 51.6641C67.632 51.6641 66.5234 52.7726 66.5234 54.1401C66.5234 55.5076 67.632 56.6161 68.9995 56.6161Z" fill="#FFD600"/>
<path d="M75.1928 61.5701V62.8082H62.8125V61.5701C62.8125 60.8864 63.3668 60.332 64.0506 60.332H73.9548C74.6386 60.3321 75.1928 60.8864 75.1928 61.5701Z" fill="#FFD600"/>
<path d="M75.1928 61.5701V62.8082H62.8125V61.5701C62.8125 60.8864 63.3668 60.332 64.0506 60.332H73.9548C74.6386 60.3321 75.1928 60.8864 75.1928 61.5701Z" fill="#FFD600"/>
<path d="M75.1928 86.3315H62.8125C62.8169 84.7614 63.8082 83.3636 65.2885 82.8402V67.5381C63.8082 67.0148 62.8169 65.617 62.8125 64.0469H75.1929C75.1885 65.617 74.1972 67.0148 72.7169 67.5381V82.8402C74.1972 83.3636 75.1884 84.7614 75.1928 86.3315Z" fill="#FFD600"/>
<path d="M75.1928 86.3315H62.8125C62.8169 84.7614 63.8082 83.3636 65.2885 82.8402V67.5381C63.8082 67.0148 62.8169 65.617 62.8125 64.0469H75.1929C75.1885 65.617 74.1972 67.0148 72.7169 67.5381V82.8402C74.1972 83.3636 75.1884 84.7614 75.1928 86.3315Z" fill="#FFD600"/>
<path d="M60.3334 61.5701V62.8082H47.9531V61.5701C47.9531 60.8864 48.5075 60.332 49.1912 60.332H59.0954C59.7792 60.3321 60.3334 60.8864 60.3334 61.5701Z" fill="#FFD600"/>
<path d="M60.3334 61.5701V62.8082H47.9531V61.5701C47.9531 60.8864 48.5075 60.332 49.1912 60.332H59.0954C59.7792 60.3321 60.3334 60.8864 60.3334 61.5701Z" fill="#FFD600"/>
<path d="M60.3334 86.3315H47.9531C47.9575 84.7614 48.9489 83.3636 50.4292 82.8402V67.5381C48.9489 67.0148 47.9575 65.617 47.9531 64.0469H60.3335C60.3291 65.617 59.3378 67.0148 57.8575 67.5381V82.8402C59.3378 83.3636 60.329 84.7614 60.3334 86.3315Z" fill="#FFD600"/>
<path d="M60.3334 86.3315H47.9531C47.9575 84.7614 48.9489 83.3636 50.4292 82.8402V67.5381C48.9489 67.0148 47.9575 65.617 47.9531 64.0469H60.3335C60.3291 65.617 59.3378 67.0148 57.8575 67.5381V82.8402C59.3378 83.3636 60.329 84.7614 60.3334 86.3315Z" fill="#FFD600"/>
<path d="M90.0443 61.5701V62.8082H77.6641V61.5701C77.6641 60.8864 78.2184 60.332 78.9021 60.332H88.8064C89.4901 60.3321 90.0443 60.8864 90.0443 61.5701Z" fill="#FFD600"/>
<path d="M90.0443 61.5701V62.8082H77.6641V61.5701C77.6641 60.8864 78.2184 60.332 78.9021 60.332H88.8064C89.4901 60.3321 90.0443 60.8864 90.0443 61.5701Z" fill="#FFD600"/>
<path d="M90.0443 86.3315H77.6641C77.6685 84.7614 78.6598 83.3636 80.1401 82.8402V67.5381C78.6598 67.0148 77.6685 65.617 77.6641 64.0469H90.0444C90.04 65.617 89.0487 67.0148 87.5684 67.5381V82.8402C89.0487 83.3636 90.0399 84.7614 90.0443 86.3315Z" fill="#FFD600"/>
<path d="M90.0443 86.3315H77.6641C77.6685 84.7614 78.6598 83.3636 80.1401 82.8402V67.5381C78.6598 67.0148 77.6685 65.617 77.6641 64.0469H90.0444C90.04 65.617 89.0487 67.0148 87.5684 67.5381V82.8402C89.0487 83.3636 90.0399 84.7614 90.0443 86.3315Z" fill="#FFD600"/>
<path d="M91.2875 87.5703H46.7182C45.3525 87.5744 44.2462 88.6806 44.2422 90.0463V92.5224C44.2462 93.8881 45.3525 94.9943 46.7182 94.9984H91.2875C92.6533 94.9943 93.7594 93.8881 93.7635 92.5224V90.0463C93.7594 88.6806 92.6533 87.5745 91.2875 87.5703Z" fill="#FFD600"/>
<path d="M91.2875 87.5703H46.7182C45.3525 87.5744 44.2462 88.6806 44.2422 90.0463V92.5224C44.2462 93.8881 45.3525 94.9943 46.7182 94.9984H91.2875C92.6533 94.9943 93.7594 93.8881 93.7635 92.5224V90.0463C93.7594 88.6806 92.6533 87.5745 91.2875 87.5703Z" fill="#FFD600"/>
</g>
<defs>
<filter id="filter0_b_38_1300" x="-50" y="-50" width="237" height="237" filterUnits="userSpaceOnUse" color-interpolation-filters="sRGB">
<feFlood flood-opacity="0" result="BackgroundImageFix"/>
<feGaussianBlur in="BackgroundImageFix" stdDeviation="25"/>
<feComposite in2="SourceAlpha" operator="in" result="effect1_backgroundBlur_38_1300"/>
<feBlend mode="normal" in="SourceGraphic" in2="effect1_backgroundBlur_38_1300" result="shape"/>
</filter>
<filter id="filter1_b_38_1300" x="-38" y="-38" width="214" height="214" filterUnits="userSpaceOnUse" color-interpolation-filters="sRGB">
<feFlood flood-opacity="0" result="BackgroundImageFix"/>
<feGaussianBlur in="BackgroundImageFix" stdDeviation="25"/>
<feComposite in2="SourceAlpha" operator="in" result="effect1_backgroundBlur_38_1300"/>
<feBlend mode="normal" in="SourceGraphic" in2="effect1_backgroundBlur_38_1300" result="shape"/>
</filter>
<linearGradient id="paint0_linear_38_1300" x1="96.0593" y1="-538.712" x2="-64.129" y2="-525.749" gradientUnits="userSpaceOnUse">
<stop stop-color="#021152" stop-opacity="0"/>
<stop offset="0.473958" stop-color="#021152" stop-opacity="0.3"/>
<stop offset="1" stop-color="#021152" stop-opacity="0"/>
</linearGradient>
<linearGradient id="paint1_linear_38_1300" x1="22.0306" y1="36.4286" x2="66.7691" y2="39.0691" gradientUnits="userSpaceOnUse">
<stop stop-color="white"/>
<stop offset="1" stop-color="white" stop-opacity="0"/>
</linearGradient>
<linearGradient id="paint2_linear_38_1300" x1="91.9326" y1="-436.271" x2="-41.3628" y2="-425.484" gradientUnits="userSpaceOnUse">
<stop stop-color="white" stop-opacity="0"/>
<stop offset="0.473958" stop-color="white" stop-opacity="0.5"/>
<stop offset="1" stop-color="white" stop-opacity="0"/>
</linearGradient>
<clipPath id="clip0_38_1300">
<rect width="52" height="52" fill="white" transform="translate(43 43)"/>
</clipPath>
</defs>
</svg>
