<svg width="137" height="138" viewBox="0 0 137 138" fill="none" xmlns="http://www.w3.org/2000/svg">
<g filter="url(#filter0_b_38_1298)">
<circle cx="68.5" cy="69" r="68.5" fill="#020F50"/>
<circle cx="68.5" cy="69" r="68" stroke="url(#paint0_linear_38_1298)"/>
</g>
<g filter="url(#filter1_b_38_1298)">
<circle cx="69" cy="69.5" r="57" fill="white" fill-opacity="0.2"/>
<circle cx="69" cy="69.5" r="57" fill="url(#paint1_linear_38_1298)" fill-opacity="0.2"/>
<circle cx="69" cy="69.5" r="56.5" stroke="url(#paint2_linear_38_1298)"/>
</g>
<path d="M68.9901 53.3984C60.0987 53.3984 52.8906 60.6064 52.8906 69.4979C52.8906 78.3895 60.0986 85.5974 68.9901 85.5974C77.8816 85.5974 85.0896 78.3893 85.0896 69.4979C85.0813 60.6097 77.8782 53.4067 68.9901 53.3984ZM61.6339 70.8106C61.2858 71.159 60.8136 71.3551 60.3211 71.3554C60.0794 71.3545 59.84 71.3083 59.6152 71.2192C58.9207 70.9285 58.4672 70.2507 58.4635 69.4978C58.4629 69.3771 58.4755 69.2567 58.5007 69.1387C58.5247 69.0193 58.5621 68.903 58.6121 68.7919C58.6507 68.6777 58.7049 68.5693 58.7732 68.47C58.8417 68.3672 58.9205 68.2718 59.0085 68.1852C59.7463 67.4919 60.8961 67.4919 61.6339 68.1852C61.7219 68.2718 61.8007 68.3672 61.8692 68.47C61.9369 68.5717 61.995 68.6795 62.0426 68.7919C62.083 68.9052 62.1161 69.0211 62.1416 69.1387C62.1668 69.2568 62.1793 69.3772 62.1788 69.4978C62.1762 69.99 61.9806 70.4613 61.6339 70.8106ZM68.9901 68.2595C71.7212 68.2561 73.9378 70.4674 73.9411 73.1984C73.9439 75.4571 72.4159 77.4305 70.2286 77.9934V79.4052C70.2286 80.0892 69.6741 80.6437 68.9901 80.6437C68.3061 80.6437 67.7516 80.0892 67.7516 79.4052V77.9934C65.5703 77.4302 64.0437 75.466 64.0364 73.2132C64.0364 72.5292 64.5909 71.9747 65.2748 71.9747C65.9588 71.9747 66.5133 72.5292 66.5133 73.2132C66.5133 74.5811 67.6222 75.69 68.9901 75.69C70.358 75.69 71.4669 74.5811 71.4669 73.2132C71.4669 71.8453 70.358 70.7364 68.9901 70.7364C66.259 70.7397 64.0424 68.5285 64.0391 65.7974C64.0363 63.5388 65.5643 61.5654 67.7516 61.0024V59.5906C67.7516 58.9067 68.3061 58.3522 68.9901 58.3522C69.6741 58.3522 70.2286 58.9067 70.2286 59.5906V61.0024C72.4099 61.5656 73.9365 63.5298 73.9438 65.7827C73.9438 66.4666 73.3893 67.0211 72.7054 67.0211C72.0214 67.0211 71.4669 66.4666 71.4669 65.7827C71.4669 64.4148 70.358 63.3059 68.9901 63.3059C67.6222 63.3059 66.5133 64.4148 66.5133 65.7827C66.5133 67.1506 67.6222 68.2595 68.9901 68.2595ZM78.9718 70.8106C78.6238 71.159 78.1516 71.3551 77.6591 71.3554C77.4174 71.3545 77.1779 71.3083 76.9532 71.2192C76.4954 71.0258 76.1312 70.6615 75.9376 70.2037C75.8485 69.9789 75.8023 69.7395 75.8014 69.4978C75.8009 69.3771 75.8134 69.2567 75.8386 69.1387C75.8643 69.0211 75.8973 68.9053 75.9376 68.7919C75.9854 68.6794 76.0434 68.5717 76.111 68.47C76.1795 68.3672 76.2583 68.2718 76.3463 68.1852C77.0841 67.4919 78.2339 67.4919 78.9717 68.1852C79.0597 68.2718 79.1386 68.3672 79.2071 68.47C79.2753 68.5693 79.3295 68.6777 79.3681 68.7919C79.4181 68.9029 79.4555 69.0192 79.4795 69.1387C79.5047 69.2568 79.5173 69.3772 79.5167 69.4978C79.5162 69.9904 79.3203 70.4626 78.9718 70.8106Z" fill="#FFD600"/>
<path d="M68.9901 53.3984C60.0987 53.3984 52.8906 60.6064 52.8906 69.4979C52.8906 78.3895 60.0986 85.5974 68.9901 85.5974C77.8816 85.5974 85.0896 78.3893 85.0896 69.4979C85.0813 60.6097 77.8782 53.4067 68.9901 53.3984ZM61.6339 70.8106C61.2858 71.159 60.8136 71.3551 60.3211 71.3554C60.0794 71.3545 59.84 71.3083 59.6152 71.2192C58.9207 70.9285 58.4672 70.2507 58.4635 69.4978C58.4629 69.3771 58.4755 69.2567 58.5007 69.1387C58.5247 69.0193 58.5621 68.903 58.6121 68.7919C58.6507 68.6777 58.7049 68.5693 58.7732 68.47C58.8417 68.3672 58.9205 68.2718 59.0085 68.1852C59.7463 67.4919 60.8961 67.4919 61.6339 68.1852C61.7219 68.2718 61.8007 68.3672 61.8692 68.47C61.9369 68.5717 61.995 68.6795 62.0426 68.7919C62.083 68.9052 62.1161 69.0211 62.1416 69.1387C62.1668 69.2568 62.1793 69.3772 62.1788 69.4978C62.1762 69.99 61.9806 70.4613 61.6339 70.8106ZM68.9901 68.2595C71.7212 68.2561 73.9378 70.4674 73.9411 73.1984C73.9439 75.4571 72.4159 77.4305 70.2286 77.9934V79.4052C70.2286 80.0892 69.6741 80.6437 68.9901 80.6437C68.3061 80.6437 67.7516 80.0892 67.7516 79.4052V77.9934C65.5703 77.4302 64.0437 75.466 64.0364 73.2132C64.0364 72.5292 64.5909 71.9747 65.2748 71.9747C65.9588 71.9747 66.5133 72.5292 66.5133 73.2132C66.5133 74.5811 67.6222 75.69 68.9901 75.69C70.358 75.69 71.4669 74.5811 71.4669 73.2132C71.4669 71.8453 70.358 70.7364 68.9901 70.7364C66.259 70.7397 64.0424 68.5285 64.0391 65.7974C64.0363 63.5388 65.5643 61.5654 67.7516 61.0024V59.5906C67.7516 58.9067 68.3061 58.3522 68.9901 58.3522C69.6741 58.3522 70.2286 58.9067 70.2286 59.5906V61.0024C72.4099 61.5656 73.9365 63.5298 73.9438 65.7827C73.9438 66.4666 73.3893 67.0211 72.7054 67.0211C72.0214 67.0211 71.4669 66.4666 71.4669 65.7827C71.4669 64.4148 70.358 63.3059 68.9901 63.3059C67.6222 63.3059 66.5133 64.4148 66.5133 65.7827C66.5133 67.1506 67.6222 68.2595 68.9901 68.2595ZM78.9718 70.8106C78.6238 71.159 78.1516 71.3551 77.6591 71.3554C77.4174 71.3545 77.1779 71.3083 76.9532 71.2192C76.4954 71.0258 76.1312 70.6615 75.9376 70.2037C75.8485 69.9789 75.8023 69.7395 75.8014 69.4978C75.8009 69.3771 75.8134 69.2567 75.8386 69.1387C75.8643 69.0211 75.8973 68.9053 75.9376 68.7919C75.9854 68.6794 76.0434 68.5717 76.111 68.47C76.1795 68.3672 76.2583 68.2718 76.3463 68.1852C77.0841 67.4919 78.2339 67.4919 78.9717 68.1852C79.0597 68.2718 79.1386 68.3672 79.2071 68.47C79.2753 68.5693 79.3295 68.6777 79.3681 68.7919C79.4181 68.9029 79.4555 69.0192 79.4795 69.1387C79.5047 69.2568 79.5173 69.3772 79.5167 69.4978C79.5162 69.9904 79.3203 70.4626 78.9718 70.8106Z" fill="#FFD600"/>
<path d="M94.6369 64.9048C94.1534 64.4214 93.3694 64.4214 92.8858 64.9048L91.09 66.7005C89.5497 54.4901 78.4025 45.8403 66.1921 47.3807C57.1313 48.5238 49.6851 55.0797 47.4036 63.9228C47.1941 64.5739 47.5521 65.2716 48.2032 65.481C48.8543 65.6905 49.5519 65.3325 49.7614 64.6814C49.7761 64.6357 49.7881 64.5891 49.7974 64.5421C52.5289 53.9506 63.3291 47.5789 73.9204 50.3103C81.4966 52.2642 87.2123 58.4952 88.5066 66.2114L87.2013 64.9061C86.7094 64.4309 85.9253 64.4446 85.4501 64.9365C84.9865 65.4165 84.9865 66.1773 85.4501 66.6572L89.1654 70.3725C89.6484 70.8568 90.4325 70.8577 90.9168 70.3747C90.9175 70.374 90.9183 70.3732 90.919 70.3725L94.6342 66.6572C95.1189 66.1746 95.1204 65.3905 94.6377 64.9058C94.6375 64.9055 94.6373 64.9051 94.6369 64.9048Z" fill="#FFD600"/>
<path d="M94.6369 64.9048C94.1534 64.4214 93.3694 64.4214 92.8858 64.9048L91.09 66.7005C89.5497 54.4901 78.4025 45.8403 66.1921 47.3807C57.1313 48.5238 49.6851 55.0797 47.4036 63.9228C47.1941 64.5739 47.5521 65.2716 48.2032 65.481C48.8543 65.6905 49.5519 65.3325 49.7614 64.6814C49.7761 64.6357 49.7881 64.5891 49.7974 64.5421C52.5289 53.9506 63.3291 47.5789 73.9204 50.3103C81.4966 52.2642 87.2123 58.4952 88.5066 66.2114L87.2013 64.9061C86.7094 64.4309 85.9253 64.4446 85.4501 64.9365C84.9865 65.4165 84.9865 66.1773 85.4501 66.6572L89.1654 70.3725C89.6484 70.8568 90.4325 70.8577 90.9168 70.3747C90.9175 70.374 90.9183 70.3732 90.919 70.3725L94.6342 66.6572C95.1189 66.1746 95.1204 65.3905 94.6377 64.9058C94.6375 64.9055 94.6373 64.9051 94.6369 64.9048Z" fill="#FFD600"/>
<path d="M89.6929 73.5605C89.033 73.3986 88.3647 73.7944 88.1895 74.4509C85.4648 85.044 74.6687 91.4225 64.0755 88.6978C56.4898 86.7467 50.7667 80.5081 49.4753 72.7827L50.7806 74.0881C51.2725 74.5633 52.0566 74.5496 52.5318 74.0576C52.9952 73.5777 52.9952 72.8169 52.5318 72.3369L48.8165 68.6216C48.3335 68.1374 47.5494 68.1364 47.0651 68.6194C47.0644 68.6201 47.0636 68.6209 47.0629 68.6216L43.3477 72.3369C42.8724 72.8288 42.8861 73.6128 43.3781 74.0881C43.858 74.5515 44.6189 74.5515 45.0987 74.0881L46.8944 72.2923C48.4294 84.5034 59.5728 93.1581 71.7839 91.623C80.8523 90.483 88.3053 83.9212 90.5846 75.07C90.7557 74.4078 90.3577 73.7323 89.6956 73.5611C89.6947 73.561 89.6937 73.5607 89.6929 73.5605Z" fill="#FFD600"/>
<path d="M89.6929 73.5605C89.033 73.3986 88.3647 73.7944 88.1895 74.4509C85.4648 85.044 74.6687 91.4225 64.0755 88.6978C56.4898 86.7467 50.7667 80.5081 49.4753 72.7827L50.7806 74.0881C51.2725 74.5633 52.0566 74.5496 52.5318 74.0576C52.9952 73.5777 52.9952 72.8169 52.5318 72.3369L48.8165 68.6216C48.3335 68.1374 47.5494 68.1364 47.0651 68.6194C47.0644 68.6201 47.0636 68.6209 47.0629 68.6216L43.3477 72.3369C42.8724 72.8288 42.8861 73.6128 43.3781 74.0881C43.858 74.5515 44.6189 74.5515 45.0987 74.0881L46.8944 72.2923C48.4294 84.5034 59.5728 93.1581 71.7839 91.623C80.8523 90.483 88.3053 83.9212 90.5846 75.07C90.7557 74.4078 90.3577 73.7323 89.6956 73.5611C89.6947 73.561 89.6937 73.5607 89.6929 73.5605Z" fill="#FFD600"/>
<defs>
<filter id="filter0_b_38_1298" x="-50" y="-49.5" width="237" height="237" filterUnits="userSpaceOnUse" color-interpolation-filters="sRGB">
<feFlood flood-opacity="0" result="BackgroundImageFix"/>
<feGaussianBlur in="BackgroundImageFix" stdDeviation="25"/>
<feComposite in2="SourceAlpha" operator="in" result="effect1_backgroundBlur_38_1298"/>
<feBlend mode="normal" in="SourceGraphic" in2="effect1_backgroundBlur_38_1298" result="shape"/>
</filter>
<filter id="filter1_b_38_1298" x="-38" y="-37.5" width="214" height="214" filterUnits="userSpaceOnUse" color-interpolation-filters="sRGB">
<feFlood flood-opacity="0" result="BackgroundImageFix"/>
<feGaussianBlur in="BackgroundImageFix" stdDeviation="25"/>
<feComposite in2="SourceAlpha" operator="in" result="effect1_backgroundBlur_38_1298"/>
<feBlend mode="normal" in="SourceGraphic" in2="effect1_backgroundBlur_38_1298" result="shape"/>
</filter>
<linearGradient id="paint0_linear_38_1298" x1="96.0593" y1="-538.212" x2="-64.129" y2="-525.249" gradientUnits="userSpaceOnUse">
<stop stop-color="#021152" stop-opacity="0"/>
<stop offset="0.473958" stop-color="#021152" stop-opacity="0.3"/>
<stop offset="1" stop-color="#021152" stop-opacity="0"/>
</linearGradient>
<linearGradient id="paint1_linear_38_1298" x1="22.0306" y1="36.9286" x2="66.7691" y2="39.5691" gradientUnits="userSpaceOnUse">
<stop stop-color="white"/>
<stop offset="1" stop-color="white" stop-opacity="0"/>
</linearGradient>
<linearGradient id="paint2_linear_38_1298" x1="91.9326" y1="-435.771" x2="-41.3628" y2="-424.984" gradientUnits="userSpaceOnUse">
<stop stop-color="white" stop-opacity="0"/>
<stop offset="0.473958" stop-color="white" stop-opacity="0.5"/>
<stop offset="1" stop-color="white" stop-opacity="0"/>
</linearGradient>
</defs>
</svg>
