<svg width="137" height="137" viewBox="0 0 137 137" fill="none" xmlns="http://www.w3.org/2000/svg">
<g filter="url(#filter0_b_38_1297)">
<circle cx="68.5" cy="68.5" r="68.5" fill="#020F50"/>
<circle cx="68.5" cy="68.5" r="68" stroke="url(#paint0_linear_38_1297)"/>
</g>
<g filter="url(#filter1_b_38_1297)">
<circle cx="69" cy="69" r="57" fill="white" fill-opacity="0.2"/>
<circle cx="69" cy="69" r="57" fill="url(#paint1_linear_38_1297)" fill-opacity="0.2"/>
<circle cx="69" cy="69" r="56.5" stroke="url(#paint2_linear_38_1297)"/>
</g>
<g clip-path="url(#clip0_38_1297)">
<path d="M44.2381 60.3333C43.5544 60.3333 43 59.7791 43 59.0953V46.7143C43 44.663 44.663 43 46.7143 43H59.0953C59.7791 43 60.3334 43.5544 60.3334 44.2381C60.3334 44.9219 59.7791 45.4763 59.0953 45.4763H46.7143C46.0305 45.4763 45.4762 46.0306 45.4762 46.7144V59.0954C45.4762 59.7791 44.9219 60.3333 44.2381 60.3333Z" fill="#FFD600"/>
<path d="M44.2381 60.3333C43.5544 60.3333 43 59.7791 43 59.0953V46.7143C43 44.663 44.663 43 46.7143 43H59.0953C59.7791 43 60.3334 43.5544 60.3334 44.2381C60.3334 44.9219 59.7791 45.4763 59.0953 45.4763H46.7143C46.0305 45.4763 45.4762 46.0306 45.4762 46.7144V59.0954C45.4762 59.7791 44.9219 60.3333 44.2381 60.3333Z" fill="#FFD600"/>
<path d="M59.0953 94.9975H46.7143C44.663 94.9975 43 93.3345 43 91.2832V78.9022C43 78.2184 43.5544 77.6641 44.2381 77.6641C44.9219 77.6641 45.4763 78.2184 45.4763 78.9022V91.2832C45.4763 91.967 46.0306 92.5213 46.7144 92.5213H59.0954C59.7792 92.5213 60.3335 93.0757 60.3335 93.7595C60.3335 94.4432 59.7791 94.9975 59.0953 94.9975Z" fill="#FFD600"/>
<path d="M59.0953 94.9975H46.7143C44.663 94.9975 43 93.3345 43 91.2832V78.9022C43 78.2184 43.5544 77.6641 44.2381 77.6641C44.9219 77.6641 45.4763 78.2184 45.4763 78.9022V91.2832C45.4763 91.967 46.0306 92.5213 46.7144 92.5213H59.0954C59.7792 92.5213 60.3335 93.0757 60.3335 93.7595C60.3335 94.4432 59.7791 94.9975 59.0953 94.9975Z" fill="#FFD600"/>
<path d="M91.2832 94.9975H78.9022C78.2184 94.9975 77.6641 94.4431 77.6641 93.7593C77.6641 93.0756 78.2184 92.5212 78.9022 92.5212H91.2832C91.967 92.5212 92.5213 91.9668 92.5213 91.2831V78.9022C92.5213 78.2184 93.0757 77.6641 93.7595 77.6641C94.4432 77.6641 94.9975 78.2184 94.9975 78.9022V91.2832C94.9975 93.3345 93.3345 94.9975 91.2832 94.9975Z" fill="#FFD600"/>
<path d="M91.2832 94.9975H78.9022C78.2184 94.9975 77.6641 94.4431 77.6641 93.7593C77.6641 93.0756 78.2184 92.5212 78.9022 92.5212H91.2832C91.967 92.5212 92.5213 91.9668 92.5213 91.2831V78.9022C92.5213 78.2184 93.0757 77.6641 93.7595 77.6641C94.4432 77.6641 94.9975 78.2184 94.9975 78.9022V91.2832C94.9975 93.3345 93.3345 94.9975 91.2832 94.9975Z" fill="#FFD600"/>
<path d="M93.7593 60.3333C93.0756 60.3333 92.5212 59.7789 92.5212 59.0952V46.7143C92.5212 46.0305 91.9668 45.4762 91.2831 45.4762H78.9022C78.2184 45.4762 77.6641 44.9218 77.6641 44.238C77.6641 43.5542 78.2184 43 78.9022 43H91.2832C93.3345 43 94.9975 44.663 94.9975 46.7143V59.0953C94.9975 59.7791 94.4431 60.3333 93.7593 60.3333Z" fill="#FFD600"/>
<path d="M93.7593 60.3333C93.0756 60.3333 92.5212 59.7789 92.5212 59.0952V46.7143C92.5212 46.0305 91.9668 45.4762 91.2831 45.4762H78.9022C78.2184 45.4762 77.6641 44.9218 77.6641 44.238C77.6641 43.5542 78.2184 43 78.9022 43H91.2832C93.3345 43 94.9975 44.663 94.9975 46.7143V59.0953C94.9975 59.7791 94.4431 60.3333 93.7593 60.3333Z" fill="#FFD600"/>
<path d="M54.144 50.4297H64.0487C66.1 50.4297 67.763 52.0926 67.763 54.144V64.0487C67.763 66.1 66.1 67.763 64.0487 67.763H54.144C52.0926 67.763 50.4297 66.1 50.4297 64.0487V54.144C50.4297 52.0926 52.0926 50.4297 54.144 50.4297Z" fill="#FFD600"/>
<path d="M54.144 50.4297H64.0487C66.1 50.4297 67.763 52.0926 67.763 54.144V64.0487C67.763 66.1 66.1 67.763 64.0487 67.763H54.144C52.0926 67.763 50.4297 66.1 50.4297 64.0487V54.144C50.4297 52.0926 52.0926 50.4297 54.144 50.4297Z" fill="#FFD600"/>
<path d="M54.144 70.2383H64.0487C66.1 70.2383 67.763 71.9012 67.763 73.9526V83.8573C67.763 85.9086 66.1 87.5716 64.0487 87.5716H54.144C52.0926 87.5716 50.4297 85.9086 50.4297 83.8573V73.9526C50.4297 71.9012 52.0926 70.2383 54.144 70.2383Z" fill="#FFD600"/>
<path d="M54.144 70.2383H64.0487C66.1 70.2383 67.763 71.9012 67.763 73.9526V83.8573C67.763 85.9086 66.1 87.5716 64.0487 87.5716H54.144C52.0926 87.5716 50.4297 85.9086 50.4297 83.8573V73.9526C50.4297 71.9012 52.0926 70.2383 54.144 70.2383Z" fill="#FFD600"/>
<path d="M73.9487 50.4297H83.8534C85.9047 50.4297 87.5677 52.0926 87.5677 54.144V64.0487C87.5677 66.1 85.9047 67.763 83.8534 67.763H73.9487C71.8973 67.763 70.2344 66.1 70.2344 64.0487V54.144C70.2344 52.0926 71.8973 50.4297 73.9487 50.4297Z" fill="#FFD600"/>
<path d="M73.9487 50.4297H83.8534C85.9047 50.4297 87.5677 52.0926 87.5677 54.144V64.0487C87.5677 66.1 85.9047 67.763 83.8534 67.763H73.9487C71.8973 67.763 70.2344 66.1 70.2344 64.0487V54.144C70.2344 52.0926 71.8973 50.4297 73.9487 50.4297Z" fill="#FFD600"/>
<path d="M78.9011 87.5717C83.6876 87.5717 87.5678 83.6915 87.5678 78.905C87.5678 74.1185 83.6876 70.2383 78.9011 70.2383C74.1146 70.2383 70.2344 74.1185 70.2344 78.905C70.2344 83.6915 74.1146 87.5717 78.9011 87.5717Z" fill="#FFD600"/>
<path d="M78.9011 87.5717C83.6876 87.5717 87.5678 83.6915 87.5678 78.905C87.5678 74.1185 83.6876 70.2383 78.9011 70.2383C74.1146 70.2383 70.2344 74.1185 70.2344 78.905C70.2344 83.6915 74.1146 87.5717 78.9011 87.5717Z" fill="#FFD600"/>
</g>
<defs>
<filter id="filter0_b_38_1297" x="-50" y="-50" width="237" height="237" filterUnits="userSpaceOnUse" color-interpolation-filters="sRGB">
<feFlood flood-opacity="0" result="BackgroundImageFix"/>
<feGaussianBlur in="BackgroundImageFix" stdDeviation="25"/>
<feComposite in2="SourceAlpha" operator="in" result="effect1_backgroundBlur_38_1297"/>
<feBlend mode="normal" in="SourceGraphic" in2="effect1_backgroundBlur_38_1297" result="shape"/>
</filter>
<filter id="filter1_b_38_1297" x="-38" y="-38" width="214" height="214" filterUnits="userSpaceOnUse" color-interpolation-filters="sRGB">
<feFlood flood-opacity="0" result="BackgroundImageFix"/>
<feGaussianBlur in="BackgroundImageFix" stdDeviation="25"/>
<feComposite in2="SourceAlpha" operator="in" result="effect1_backgroundBlur_38_1297"/>
<feBlend mode="normal" in="SourceGraphic" in2="effect1_backgroundBlur_38_1297" result="shape"/>
</filter>
<linearGradient id="paint0_linear_38_1297" x1="96.0593" y1="-538.712" x2="-64.129" y2="-525.749" gradientUnits="userSpaceOnUse">
<stop stop-color="#021152" stop-opacity="0"/>
<stop offset="0.473958" stop-color="#021152" stop-opacity="0.3"/>
<stop offset="1" stop-color="#021152" stop-opacity="0"/>
</linearGradient>
<linearGradient id="paint1_linear_38_1297" x1="22.0306" y1="36.4286" x2="66.7691" y2="39.0691" gradientUnits="userSpaceOnUse">
<stop stop-color="white"/>
<stop offset="1" stop-color="white" stop-opacity="0"/>
</linearGradient>
<linearGradient id="paint2_linear_38_1297" x1="91.9326" y1="-436.271" x2="-41.3628" y2="-425.484" gradientUnits="userSpaceOnUse">
<stop stop-color="white" stop-opacity="0"/>
<stop offset="0.473958" stop-color="white" stop-opacity="0.5"/>
<stop offset="1" stop-color="white" stop-opacity="0"/>
</linearGradient>
<clipPath id="clip0_38_1297">
<rect width="52" height="52" fill="white" transform="translate(43 43)"/>
</clipPath>
</defs>
</svg>
