<svg width="91" height="92" viewBox="0 0 91 92" fill="none" xmlns="http://www.w3.org/2000/svg">
<path d="M64.4609 57.3739H78.7859C80.8788 57.3739 82.5775 55.6752 82.5775 53.5822V25.5807C82.5775 23.4877 80.8788 21.7891 78.7859 21.7891H64.4609" stroke="#FFD600" stroke-width="5" stroke-linecap="round" stroke-linejoin="round"/>
<path d="M64.4609 57.3739H78.7859C80.8788 57.3739 82.5775 55.6752 82.5775 53.5822V25.5807C82.5775 23.4877 80.8788 21.7891 78.7859 21.7891H64.4609" stroke="#FFD600" stroke-width="5" stroke-linecap="round" stroke-linejoin="round"/>
<path d="M24.0152 15.6641H15.7229C11.2297 15.6641 7.58594 19.3079 7.58594 23.801V75.7809C7.58594 80.2703 11.2297 83.9141 15.7229 83.9141H48.7445C53.2338 83.9141 56.8776 80.2703 56.8776 75.7771V23.801C56.8776 19.3079 53.2338 15.6641 48.7407 15.6641H40.4445" stroke="#FFD600" stroke-width="5" stroke-linecap="round" stroke-linejoin="round"/>
<path d="M24.0152 15.6641H15.7229C11.2297 15.6641 7.58594 19.3079 7.58594 23.801V75.7809C7.58594 80.2703 11.2297 83.9141 15.7229 83.9141H48.7445C53.2338 83.9141 56.8776 80.2703 56.8776 75.7771V23.801C56.8776 19.3079 53.2338 15.6641 48.7407 15.6641H40.4445" stroke="#FFD600" stroke-width="5" stroke-linecap="round" stroke-linejoin="round"/>
<path d="M44.5483 60.5322C44.1691 60.5322 43.862 60.8165 43.8658 61.1654C43.8658 61.5142 44.1729 61.7986 44.5521 61.7986C44.9313 61.7986 45.2384 61.5142 45.2384 61.1654C45.2384 60.8165 44.9313 60.5322 44.5483 60.5322" stroke="#FFD600" stroke-width="5" stroke-linecap="round" stroke-linejoin="round"/>
<path d="M44.5483 60.5322C44.1691 60.5322 43.862 60.8165 43.8658 61.1654C43.8658 61.5142 44.1729 61.7986 44.5521 61.7986C44.9313 61.7986 45.2384 61.5142 45.2384 61.1654C45.2384 60.8165 44.9313 60.5322 44.5483 60.5322" stroke="#FFD600" stroke-width="5" stroke-linecap="round" stroke-linejoin="round"/>
<path d="M19.9077 60.5322C19.5285 60.5322 19.2214 60.8165 19.2252 61.1654C19.2252 61.5142 19.5323 61.7986 19.9115 61.7986C20.2906 61.7986 20.5978 61.5142 20.5978 61.1654C20.5978 60.8165 20.2906 60.5322 19.9077 60.5322" stroke="#FFD600" stroke-width="5" stroke-linecap="round" stroke-linejoin="round"/>
<path d="M19.9077 60.5322C19.5285 60.5322 19.2214 60.8165 19.2252 61.1654C19.2252 61.5142 19.5323 61.7986 19.9115 61.7986C20.2906 61.7986 20.5978 61.5142 20.5978 61.1654C20.5978 60.8165 20.2906 60.5322 19.9077 60.5322" stroke="#FFD600" stroke-width="5" stroke-linecap="round" stroke-linejoin="round"/>
<path d="M7.58594 34.6224H56.8776" stroke="#FFD600" stroke-width="5" stroke-linecap="round" stroke-linejoin="round"/>
<path d="M7.58594 34.6224H56.8776" stroke="#FFD600" stroke-width="5" stroke-linecap="round" stroke-linejoin="round"/>
<path d="M56.8776 49.7904H7.58594" stroke="#FFD600" stroke-width="5" stroke-linecap="round" stroke-linejoin="round"/>
<path d="M56.8776 49.7904H7.58594" stroke="#FFD600" stroke-width="5" stroke-linecap="round" stroke-linejoin="round"/>
<path d="M32.228 60.5322C31.8488 60.5322 31.5417 60.8165 31.5455 61.1654C31.5455 61.5142 31.8526 61.7986 32.2318 61.7986C32.611 61.7986 32.9181 61.5142 32.9181 61.1654C32.9181 60.8165 32.611 60.5322 32.228 60.5322" stroke="#FFD600" stroke-width="5" stroke-linecap="round" stroke-linejoin="round"/>
<path d="M32.228 60.5322C31.8488 60.5322 31.5417 60.8165 31.5455 61.1654C31.5455 61.5142 31.8526 61.7986 32.2318 61.7986C32.611 61.7986 32.9181 61.5142 32.9181 61.1654C32.9181 60.8165 32.611 60.5322 32.228 60.5322" stroke="#FFD600" stroke-width="5" stroke-linecap="round" stroke-linejoin="round"/>
<path d="M44.5483 71.9072C44.1691 71.9072 43.862 72.1915 43.8658 72.5404C43.8658 72.8892 44.1729 73.1736 44.5521 73.1736C44.9313 73.1736 45.2384 72.8892 45.2384 72.5404C45.2384 72.1915 44.9313 71.9072 44.5483 71.9072" stroke="#FFD600" stroke-width="5" stroke-linecap="round" stroke-linejoin="round"/>
<path d="M44.5483 71.9072C44.1691 71.9072 43.862 72.1915 43.8658 72.5404C43.8658 72.8892 44.1729 73.1736 44.5521 73.1736C44.9313 73.1736 45.2384 72.8892 45.2384 72.5404C45.2384 72.1915 44.9313 71.9072 44.5483 71.9072" stroke="#FFD600" stroke-width="5" stroke-linecap="round" stroke-linejoin="round"/>
<path d="M19.9077 71.9072C19.5285 71.9072 19.2214 72.1915 19.2252 72.5404C19.2252 72.8892 19.5323 73.1736 19.9115 73.1736C20.2906 73.1736 20.5978 72.8892 20.5978 72.5404C20.5978 72.1915 20.2906 71.9072 19.9077 71.9072" stroke="#FFD600" stroke-width="5" stroke-linecap="round" stroke-linejoin="round"/>
<path d="M19.9077 71.9072C19.5285 71.9072 19.2214 72.1915 19.2252 72.5404C19.2252 72.8892 19.5323 73.1736 19.9115 73.1736C20.2906 73.1736 20.5978 72.8892 20.5978 72.5404C20.5978 72.1915 20.2906 71.9072 19.9077 71.9072" stroke="#FFD600" stroke-width="5" stroke-linecap="round" stroke-linejoin="round"/>
<path d="M32.228 71.9072C31.8488 71.9072 31.5417 72.1915 31.5455 72.5404C31.5455 72.8892 31.8526 73.1736 32.2318 73.1736C32.611 73.1736 32.9181 72.8892 32.9181 72.5404C32.9181 72.1915 32.611 71.9072 32.228 71.9072" stroke="#FFD600" stroke-width="5" stroke-linecap="round" stroke-linejoin="round"/>
<path d="M32.228 71.9072C31.8488 71.9072 31.5417 72.1915 31.5455 72.5404C31.5455 72.8892 31.8526 73.1736 32.2318 73.1736C32.611 73.1736 32.9181 72.8892 32.9181 72.5404C32.9181 72.1915 32.611 71.9072 32.228 71.9072" stroke="#FFD600" stroke-width="5" stroke-linecap="round" stroke-linejoin="round"/>
<path fill-rule="evenodd" clip-rule="evenodd" d="M24.0156 8.08203H40.4449V23.2487H24.0156V8.08203Z" stroke="#FFD600" stroke-width="5" stroke-linecap="round" stroke-linejoin="round"/>
<path fill-rule="evenodd" clip-rule="evenodd" d="M24.0156 8.08203H40.4449V23.2487H24.0156V8.08203Z" stroke="#FFD600" stroke-width="5" stroke-linecap="round" stroke-linejoin="round"/>
<path d="M77.7344 74.4375L72.0469 80.125L66.3594 74.4375" stroke="#FFD600" stroke-width="5" stroke-linecap="round" stroke-linejoin="round"/>
<path d="M77.7344 74.4375L72.0469 80.125L66.3594 74.4375" stroke="#FFD600" stroke-width="5" stroke-linecap="round" stroke-linejoin="round"/>
<path d="M72.0443 68.75V80.125" stroke="#FFD600" stroke-width="5" stroke-linecap="round" stroke-linejoin="round"/>
<path d="M72.0443 68.75V80.125" stroke="#FFD600" stroke-width="5" stroke-linecap="round" stroke-linejoin="round"/>
<path d="M72.0443 57.3733V21.7695" stroke="#FFD600" stroke-width="5" stroke-linecap="round" stroke-linejoin="round"/>
<path d="M72.0443 57.3733V21.7695" stroke="#FFD600" stroke-width="5" stroke-linecap="round" stroke-linejoin="round"/>
</svg>
