<svg width="113" height="113" viewBox="0 0 113 113" fill="none" xmlns="http://www.w3.org/2000/svg">
<path fill-rule="evenodd" clip-rule="evenodd" d="M94.1693 52.6474C94.1693 74.028 78.0997 94.0195 56.5026 98.8738C34.9055 94.0195 18.8359 74.028 18.8359 52.6474V34.1013C18.8359 30.2781 21.1477 26.8316 24.6884 25.3862L48.2301 15.7529C53.5316 13.5824 59.4736 13.5824 64.7751 15.7529L88.3168 25.3862C91.8575 26.8363 94.1693 30.2781 94.1693 34.1013V52.6474V52.6474Z" stroke="#FFD600" stroke-width="5" stroke-linecap="round" stroke-linejoin="round"/>
<path fill-rule="evenodd" clip-rule="evenodd" d="M94.1693 52.6474C94.1693 74.028 78.0997 94.0195 56.5026 98.8738C34.9055 94.0195 18.8359 74.028 18.8359 52.6474V34.1013C18.8359 30.2781 21.1477 26.8316 24.6884 25.3862L48.2301 15.7529C53.5316 13.5824 59.4736 13.5824 64.7751 15.7529L88.3168 25.3862C91.8575 26.8363 94.1693 30.2781 94.1693 34.1013V52.6474V52.6474Z" stroke="#FFD600" stroke-width="5" stroke-linecap="round" stroke-linejoin="round"/>
<path d="M56.5026 40.0208V35.3125" stroke="#FFD600" stroke-width="5" stroke-linecap="round" stroke-linejoin="round"/>
<path d="M56.5026 40.0208V35.3125" stroke="#FFD600" stroke-width="5" stroke-linecap="round" stroke-linejoin="round"/>
<path d="M56.5026 68.2695V72.9779" stroke="#FFD600" stroke-width="5" stroke-linecap="round" stroke-linejoin="round"/>
<path d="M56.5026 68.2695V72.9779" stroke="#FFD600" stroke-width="5" stroke-linecap="round" stroke-linejoin="round"/>
<path d="M48.3289 64.9039C49.5484 66.9002 51.6295 68.2798 54.1484 68.2798H56.5026H59.3088C62.9624 68.2798 65.9193 65.3182 65.9193 61.6693C65.9193 58.6371 63.8523 55.9957 60.9143 55.2518L52.0862 53.0342C49.1529 52.2997 47.0859 49.6583 47.0859 46.6261C47.0859 42.9725 50.0475 40.0156 53.6964 40.0156H56.5026H58.8568C61.3663 40.0156 63.4474 41.3905 64.6621 43.3821" stroke="#FFD600" stroke-width="5" stroke-linecap="round" stroke-linejoin="round"/>
<path d="M48.3289 64.9039C49.5484 66.9002 51.6295 68.2798 54.1484 68.2798H56.5026H59.3088C62.9624 68.2798 65.9193 65.3182 65.9193 61.6693C65.9193 58.6371 63.8523 55.9957 60.9143 55.2518L52.0862 53.0342C49.1529 52.2997 47.0859 49.6583 47.0859 46.6261C47.0859 42.9725 50.0475 40.0156 53.6964 40.0156H56.5026H58.8568C61.3663 40.0156 63.4474 41.3905 64.6621 43.3821" stroke="#FFD600" stroke-width="5" stroke-linecap="round" stroke-linejoin="round"/>
</svg>
