<svg width="102" height="102" viewBox="0 0 102 102" fill="none" xmlns="http://www.w3.org/2000/svg">
<g id="Group">
<g id="Group_2">
<g id="Path">
<path d="M13.4844 30.1584H88.5156" stroke="#FFD600" stroke-width="5" stroke-linecap="round" stroke-linejoin="round"/>
<path d="M13.4844 30.1584H88.5156" stroke="#FFD600" stroke-width="5" stroke-linecap="round" stroke-linejoin="round"/>
</g>
<g id="Path_2">
<path d="M40.869 46.8303H30.1562" stroke="#FFD600" stroke-width="5" stroke-linecap="round" stroke-linejoin="round"/>
<path d="M40.869 46.8303H30.1562" stroke="#FFD600" stroke-width="5" stroke-linecap="round" stroke-linejoin="round"/>
</g>
<g id="Path_3">
<path d="M38.4948 71.842H25.9896C19.0825 71.842 13.4844 66.2438 13.4844 59.3368V25.9896C13.4844 19.0825 19.0825 13.4844 25.9896 13.4844H76.0104C82.9175 13.4844 88.5156 19.0825 88.5156 25.9896V42.6632" stroke="#FFD600" stroke-width="5" stroke-linecap="round" stroke-linejoin="round"/>
<path d="M38.4948 71.842H25.9896C19.0825 71.842 13.4844 66.2438 13.4844 59.3368V25.9896C13.4844 19.0825 19.0825 13.4844 25.9896 13.4844H76.0104C82.9175 13.4844 88.5156 19.0825 88.5156 25.9896V42.6632" stroke="#FFD600" stroke-width="5" stroke-linecap="round" stroke-linejoin="round"/>
</g>
<g id="Path_4">
<path fill-rule="evenodd" clip-rule="evenodd" d="M57.5082 77.2851C56.1743 75.2634 56.1743 72.5956 57.5082 70.5739C61.6349 64.3339 68.1126 59.3359 74.5945 59.3359C81.0764 59.3359 87.5499 64.3339 91.6808 70.5698C93.0189 72.5915 93.0189 75.2634 91.6808 77.2809C87.5457 83.5168 81.0722 88.5148 74.5945 88.5148C68.1126 88.5189 61.6349 83.521 57.5082 77.2851Z" stroke="#FFD600" stroke-width="5" stroke-linecap="round" stroke-linejoin="round"/>
<path fill-rule="evenodd" clip-rule="evenodd" d="M57.5082 77.2851C56.1743 75.2634 56.1743 72.5956 57.5082 70.5739C61.6349 64.3339 68.1126 59.3359 74.5945 59.3359C81.0764 59.3359 87.5499 64.3339 91.6808 70.5698C93.0189 72.5915 93.0189 75.2634 91.6808 77.2809C87.5457 83.5168 81.0722 88.5148 74.5945 88.5148C68.1126 88.5189 61.6349 83.521 57.5082 77.2851Z" stroke="#FFD600" stroke-width="5" stroke-linecap="round" stroke-linejoin="round"/>
</g>
<g id="Path_5">
<path d="M75.0797 73.4442C75.3507 73.7151 75.3507 74.1486 75.0797 74.4196C74.8088 74.6905 74.3753 74.6905 74.1043 74.4196C73.8334 74.1486 73.8334 73.7151 74.1043 73.4442C74.3753 73.1732 74.8129 73.1732 75.0797 73.4442" stroke="#FFD600" stroke-width="5" stroke-linecap="round" stroke-linejoin="round"/>
<path d="M75.0797 73.4442C75.3507 73.7151 75.3507 74.1486 75.0797 74.4196C74.8088 74.6905 74.3753 74.6905 74.1043 74.4196C73.8334 74.1486 73.8334 73.7151 74.1043 73.4442C74.3753 73.1732 74.8129 73.1732 75.0797 73.4442" stroke="#FFD600" stroke-width="5" stroke-linecap="round" stroke-linejoin="round"/>
</g>
</g>
</g>
</svg>
