<svg width="100" height="100" viewBox="0 0 100 100" fill="none" xmlns="http://www.w3.org/2000/svg">
<path d="M25 68.75L12.5 81V45.8333H25M45.8333 61.0833L39.2917 55.5L33.3333 61V29.1667H45.8333M66.6667 54.1667L54.1667 66.6667V12.5H66.6667M78.375 53.375L70.8333 45.8333H91.6667V66.6667L84.2083 59.2083L54.1667 89L39.7083 76.4167L23.9583 91.6667H12.5L39.4583 65.25L54.1667 77.6667" fill="#FFD600"/>
<path d="M25 68.75L12.5 81V45.8333H25M45.8333 61.0833L39.2917 55.5L33.3333 61V29.1667H45.8333M66.6667 54.1667L54.1667 66.6667V12.5H66.6667M78.375 53.375L70.8333 45.8333H91.6667V66.6667L84.2083 59.2083L54.1667 89L39.7083 76.4167L23.9583 91.6667H12.5L39.4583 65.25L54.1667 77.6667" fill="#FFD600"/>
</svg>
