<svg width="113" height="113" viewBox="0 0 113 113" fill="none" xmlns="http://www.w3.org/2000/svg">
<path d="M55.3229 32.957V38.8424" stroke="#FFD600" stroke-width="5" stroke-linecap="round" stroke-linejoin="round"/>
<path d="M55.3229 32.957V38.8424" stroke="#FFD600" stroke-width="5" stroke-linecap="round" stroke-linejoin="round"/>
<path d="M55.3229 80.0417V74.1562" stroke="#FFD600" stroke-width="5" stroke-linecap="round" stroke-linejoin="round"/>
<path d="M55.3229 80.0417V74.1562" stroke="#FFD600" stroke-width="5" stroke-linecap="round" stroke-linejoin="round"/>
<path d="M67.0351 47.0833C66.7291 42.488 62.9389 38.8438 58.2682 38.8438H51.8178C47.2507 38.8438 43.5547 42.5445 43.5547 47.1069C43.5547 50.8971 46.1349 54.2023 49.8074 55.1252L60.839 57.8937C64.5162 58.8165 67.0916 62.1217 67.0916 65.912C67.0916 70.479 63.3909 74.1751 58.8285 74.1751H52.3781C47.698 74.1751 43.9078 70.5214 43.6065 65.9167" stroke="#FFD600" stroke-width="5" stroke-linecap="round" stroke-linejoin="round"/>
<path d="M67.0351 47.0833C66.7291 42.488 62.9389 38.8438 58.2682 38.8438H51.8178C47.2507 38.8438 43.5547 42.5445 43.5547 47.1069C43.5547 50.8971 46.1349 54.2023 49.8074 55.1252L60.839 57.8937C64.5162 58.8165 67.0916 62.1217 67.0916 65.912C67.0916 70.479 63.3909 74.1751 58.8285 74.1751H52.3781C47.698 74.1751 43.9078 70.5214 43.6065 65.9167" stroke="#FFD600" stroke-width="5" stroke-linecap="round" stroke-linejoin="round"/>
<path d="M27.6406 27.6459C35.028 20.2585 45.2357 15.6914 56.5121 15.6914C79.0603 15.6914 97.3428 33.9644 97.3428 56.5032C97.3428 59.6484 96.952 62.6994 96.2787 65.6421" stroke="#FFD600" stroke-width="5" stroke-linecap="round" stroke-linejoin="round"/>
<path d="M27.6406 27.6459C35.028 20.2585 45.2357 15.6914 56.5121 15.6914C79.0603 15.6914 97.3428 33.9644 97.3428 56.5032C97.3428 59.6484 96.952 62.6994 96.2787 65.6421" stroke="#FFD600" stroke-width="5" stroke-linecap="round" stroke-linejoin="round"/>
<path d="M89.9609 59.332L97.3389 66.71L104.717 59.332" stroke="#FFD600" stroke-width="5" stroke-linecap="round" stroke-linejoin="round"/>
<path d="M89.9609 59.332L97.3389 66.71L104.717 59.332" stroke="#FFD600" stroke-width="5" stroke-linecap="round" stroke-linejoin="round"/>
<path d="M85.3584 85.3517C77.971 92.7391 67.7634 97.3062 56.4869 97.3062C33.9387 97.3062 15.6562 79.0331 15.6562 56.4943C15.6562 53.3492 16.047 50.2982 16.7203 47.3555" stroke="#FFD600" stroke-width="5" stroke-linecap="round" stroke-linejoin="round"/>
<path d="M85.3584 85.3517C77.971 92.7391 67.7634 97.3062 56.4869 97.3062C33.9387 97.3062 15.6562 79.0331 15.6562 56.4943C15.6562 53.3492 16.047 50.2982 16.7203 47.3555" stroke="#FFD600" stroke-width="5" stroke-linecap="round" stroke-linejoin="round"/>
<path d="M23.0372 53.6631L15.6592 46.2852L8.28125 53.6631" stroke="#FFD600" stroke-width="5" stroke-linecap="round" stroke-linejoin="round"/>
<path d="M23.0372 53.6631L15.6592 46.2852L8.28125 53.6631" stroke="#FFD600" stroke-width="5" stroke-linecap="round" stroke-linejoin="round"/>
</svg>
