<svg width="37" height="36" viewBox="0 0 37 36" fill="none" xmlns="http://www.w3.org/2000/svg">
<g clip-path="url(#clip0_202_3200)">
<path d="M18.8572 36C28.7983 36 36.8572 27.9411 36.8572 18C36.8572 8.05888 28.7983 0 18.8572 0C8.91605 0 0.857178 8.05888 0.857178 18C0.857178 27.9411 8.91605 36 18.8572 36Z" fill="#334C8C"/>
<path d="M23.4188 16.2971L23.1204 18.8029C23.1075 18.9193 23.052 19.0268 22.9645 19.1046C22.877 19.1825 22.7638 19.2252 22.6467 19.2245H20.0414V26.6613C20.0421 26.7501 20.0075 26.8355 19.9454 26.899C19.8833 26.9624 19.7986 26.9988 19.7098 27H17.0548C17.0107 26.9994 16.9671 26.9901 16.9265 26.9726C16.8859 26.9551 16.8492 26.9298 16.8184 26.8982C16.7876 26.8665 16.7634 26.8291 16.747 26.788C16.7307 26.747 16.7226 26.7031 16.7233 26.6589L16.7375 19.2245H14.7646C14.6389 19.2245 14.5185 19.1746 14.4296 19.0857C14.3408 18.9969 14.2909 18.8764 14.2909 18.7508V16.245C14.2909 16.1194 14.3408 15.9989 14.4296 15.9101C14.5185 15.8212 14.6389 15.7713 14.7646 15.7713H16.7256V13.3413C16.7256 10.53 18.3977 9 20.8467 9H22.8527C22.9784 9 23.0988 9.04991 23.1877 9.13874C23.2765 9.22757 23.3264 9.34806 23.3264 9.47368V11.5839C23.3264 11.7096 23.2765 11.8301 23.1877 11.9189C23.0988 12.0077 22.9784 12.0576 22.8527 12.0576H21.6235C20.2925 12.0789 20.0414 12.7161 20.0414 13.6682V15.7642H22.9569C23.0235 15.7654 23.089 15.7805 23.1493 15.8086C23.2095 15.8368 23.2632 15.8773 23.3068 15.9276C23.3504 15.9779 23.3828 16.0368 23.4021 16.1004C23.4214 16.1641 23.4271 16.2311 23.4188 16.2971Z" fill="white"/>
</g>
<defs>
<clipPath id="clip0_202_3200">
<rect width="36" height="36" fill="white" transform="translate(0.857178)"/>
</clipPath>
</defs>
</svg>
