<svg width="37" height="36" viewBox="0 0 37 36" fill="none" xmlns="http://www.w3.org/2000/svg">
<g filter="url(#filter0_b_202_3198)">
<rect x="0.428589" width="36" height="36" rx="18" fill="white" fill-opacity="0.2"/>
<path fill-rule="evenodd" clip-rule="evenodd" d="M17.2846 19.1439C16.1146 17.9739 15.2326 16.6639 14.6466 15.3349C14.5226 15.0539 14.5956 14.7249 14.8126 14.5079L15.6316 13.6899C16.3026 13.0189 16.3026 12.0699 15.7166 11.4839L14.5426 10.3099C13.7616 9.52887 12.4956 9.52887 11.7146 10.3099L11.0626 10.9619C10.3216 11.7029 10.0126 12.7719 10.2126 13.8319C10.7066 16.4449 12.2246 19.3059 14.6736 21.7549C17.1226 24.2039 19.9836 25.7219 22.5966 26.2159C23.6566 26.4159 24.7256 26.1069 25.4666 25.3659L26.1176 24.7149C26.8986 23.9339 26.8986 22.6679 26.1176 21.8869L24.9446 20.7139C24.3586 20.1279 23.4086 20.1279 22.8236 20.7139L21.9206 21.6179C21.7036 21.8349 21.3746 21.9079 21.0936 21.7839C19.7646 21.1969 18.4546 20.3139 17.2846 19.1439Z" stroke="white" stroke-width="1.5" stroke-linecap="round" stroke-linejoin="round"/>
<rect x="0.928589" y="0.5" width="35" height="35" rx="17.5" stroke="url(#paint0_linear_202_3198)"/>
</g>
<defs>
<filter id="filter0_b_202_3198" x="-23.5714" y="-24" width="84" height="84" filterUnits="userSpaceOnUse" color-interpolation-filters="sRGB">
<feFlood flood-opacity="0" result="BackgroundImageFix"/>
<feGaussianBlur in="BackgroundImageFix" stdDeviation="12"/>
<feComposite in2="SourceAlpha" operator="in" result="effect1_backgroundBlur_202_3198"/>
<feBlend mode="normal" in="SourceGraphic" in2="effect1_backgroundBlur_202_3198" result="shape"/>
</filter>
<linearGradient id="paint0_linear_202_3198" x1="32.3175" y1="-8.40002" x2="-3.34723" y2="-4.48663" gradientUnits="userSpaceOnUse">
<stop stop-color="white" stop-opacity="0"/>
<stop offset="0.473958" stop-color="white" stop-opacity="0.5"/>
<stop offset="1" stop-color="white" stop-opacity="0"/>
</linearGradient>
</defs>
</svg>
