<svg width="36" height="36" viewBox="0 0 36 36" fill="none" xmlns="http://www.w3.org/2000/svg">
<g filter="url(#filter0_b_202_3189)">
<rect width="36" height="36" rx="18" fill="white" fill-opacity="0.2"/>
<path fill-rule="evenodd" clip-rule="evenodd" d="M9 12.8V12.8C9 13.4 9.3 13.9 9.8 14.3L15.8 18.4C17.2 19.3 18.9 19.3 20.3 18.4L26.3 14.4C26.7 13.9 27 13.4 27 12.8V12.8C27 11.8 26.2 11 25.2 11H10.8C9.8 11 9 11.8 9 12.8Z" stroke="white" stroke-width="1.5" stroke-linecap="round" stroke-linejoin="round"/>
<path d="M9 13V23C9 24.1 9.9 25 11 25H25C26.1 25 27 24.1 27 23V13" stroke="white" stroke-width="1.5" stroke-linecap="round" stroke-linejoin="round"/>
<path d="M9.58984 24.4124L15.6838 18.3184" stroke="white" stroke-width="1.5" stroke-linecap="round" stroke-linejoin="round"/>
<path d="M20.3594 18.3594L26.4114 24.4114" stroke="white" stroke-width="1.5" stroke-linecap="round" stroke-linejoin="round"/>
<rect x="0.5" y="0.5" width="35" height="35" rx="17.5" stroke="url(#paint0_linear_202_3189)"/>
</g>
<defs>
<filter id="filter0_b_202_3189" x="-24" y="-24" width="84" height="84" filterUnits="userSpaceOnUse" color-interpolation-filters="sRGB">
<feFlood flood-opacity="0" result="BackgroundImageFix"/>
<feGaussianBlur in="BackgroundImageFix" stdDeviation="12"/>
<feComposite in2="SourceAlpha" operator="in" result="effect1_backgroundBlur_202_3189"/>
<feBlend mode="normal" in="SourceGraphic" in2="effect1_backgroundBlur_202_3189" result="shape"/>
</filter>
<linearGradient id="paint0_linear_202_3189" x1="31.8889" y1="-8.40002" x2="-3.77582" y2="-4.48663" gradientUnits="userSpaceOnUse">
<stop stop-color="white" stop-opacity="0"/>
<stop offset="0.473958" stop-color="white" stop-opacity="0.5"/>
<stop offset="1" stop-color="white" stop-opacity="0"/>
</linearGradient>
</defs>
</svg>
