<svg width="37" height="36" viewBox="0 0 37 36" fill="none" xmlns="http://www.w3.org/2000/svg">
<rect x="0.285767" width="36" height="36" rx="18" fill="url(#paint0_linear_202_3205)"/>
<path fill-rule="evenodd" clip-rule="evenodd" d="M8.43391 17.8099C13.6813 15.5237 17.1803 14.0165 18.9311 13.2883C23.9299 11.2092 24.9686 10.848 25.6456 10.8361C25.7945 10.8334 26.1275 10.8703 26.3431 11.0453C26.5252 11.1931 26.5753 11.3927 26.5993 11.5328C26.6233 11.6729 26.6531 11.992 26.6294 12.2414C26.3585 15.0876 25.1864 21.9947 24.5901 25.1825C24.3378 26.5314 23.8409 26.9836 23.36 27.0279C22.3147 27.1241 21.5209 26.3371 20.5085 25.6734C18.9243 24.635 18.0293 23.9885 16.4915 22.9751C14.7143 21.804 15.8664 21.1603 16.8792 20.1084C17.1442 19.8331 21.7498 15.644 21.839 15.2639C21.8501 15.2164 21.8605 15.0393 21.7552 14.9457C21.65 14.8522 21.4946 14.8842 21.3825 14.9096C21.2236 14.9457 18.6928 16.6184 13.79 19.928C13.0717 20.4212 12.421 20.6616 11.838 20.649C11.1953 20.6351 9.95903 20.2856 9.03998 19.9869C7.91273 19.6204 7.01681 19.4267 7.09482 18.8044C7.13546 18.4803 7.58182 18.1488 8.43391 17.8099Z" fill="white"/>
<defs>
<linearGradient id="paint0_linear_202_3205" x1="18.2858" y1="0" x2="18.2858" y2="35.733" gradientUnits="userSpaceOnUse">
<stop stop-color="#2AABEE"/>
<stop offset="1" stop-color="#229ED9"/>
</linearGradient>
</defs>
</svg>
