<svg width="37" height="36" viewBox="0 0 37 36" fill="none" xmlns="http://www.w3.org/2000/svg">
<g clip-path="url(#clip0_202_3206)">
<path d="M18.7144 36C28.6555 36 36.7144 27.9411 36.7144 18C36.7144 8.05888 28.6555 0 18.7144 0C8.77323 0 0.714355 8.05888 0.714355 18C0.714355 27.9411 8.77323 36 18.7144 36Z" fill="#2AA81A"/>
<path d="M25.0667 11.6509C23.5689 10.1361 21.5788 9.20674 19.4559 9.03059C17.3329 8.85444 15.2169 9.44311 13.4899 10.6903C11.7629 11.9375 10.5387 13.7611 10.0384 15.8318C9.53802 17.9024 9.79448 20.0838 10.7614 21.9819L9.81407 26.5814C9.80393 26.6274 9.80354 26.6749 9.81292 26.721C9.8223 26.7671 9.84125 26.8107 9.86855 26.8491C9.90763 26.9071 9.9635 26.9518 10.0287 26.9772C10.0939 27.0026 10.1652 27.0074 10.2333 26.9912L14.7333 25.923C16.6262 26.8646 18.7919 27.104 20.8448 26.5985C22.8977 26.093 24.7047 24.8754 25.944 23.1625C27.1833 21.4496 27.7746 19.3526 27.6127 17.2445C27.4507 15.1365 26.546 13.1544 25.0596 11.6509H25.0667ZM23.6599 22.8701C22.624 23.9042 21.29 24.5875 19.8456 24.8242C18.4012 25.0608 16.9189 24.8388 15.6072 24.1893L14.9772 23.8767L12.2133 24.5304V24.4948L12.7959 21.7072L12.488 21.1009C11.8173 19.7856 11.5805 18.2917 11.8116 16.8335C12.0426 15.3753 12.7296 14.0278 13.7741 12.9843C15.0855 11.6743 16.8633 10.9384 18.717 10.9384C20.5706 10.9384 22.3485 11.6743 23.6599 12.9843L23.6907 13.0269C24.985 14.3412 25.7076 16.1136 25.7009 17.9582C25.6943 19.8028 24.9589 21.57 23.6551 22.8748L23.6599 22.8701Z" fill="white"/>
<path d="M23.4168 20.8435C23.0781 21.3764 22.5404 22.0278 21.8702 22.1912C20.686 22.4754 18.8836 22.1912 16.6265 20.1046L16.5981 20.0785C14.6346 18.2454 14.1136 16.7177 14.2296 15.5075C14.2983 14.8183 14.8715 14.1977 15.3546 13.7904C15.4315 13.7256 15.5224 13.6797 15.6201 13.6563C15.7178 13.633 15.8197 13.6328 15.9175 13.6558C16.0153 13.6788 16.1063 13.7244 16.1834 13.7889C16.2605 13.8534 16.3214 13.935 16.3612 14.0272L17.0883 15.6709C17.1358 15.7767 17.1536 15.8934 17.1398 16.0086C17.1261 16.1237 17.0813 16.233 17.0102 16.3246L16.6407 16.7983C16.5639 16.8966 16.5182 17.0156 16.5093 17.14C16.5004 17.2645 16.5289 17.3887 16.591 17.497C16.9419 18.0142 17.3619 18.4812 17.8391 18.8849C18.3526 19.379 18.935 19.7963 19.5681 20.1235C19.6836 20.1701 19.8104 20.1812 19.9323 20.1555C20.0542 20.1298 20.1657 20.0684 20.2525 19.9791L20.6765 19.548C20.7572 19.4613 20.8603 19.3985 20.9744 19.3668C21.0885 19.335 21.2092 19.3354 21.3231 19.368L23.052 19.863C23.15 19.8909 23.24 19.9414 23.3148 20.0106C23.3896 20.0797 23.4471 20.1655 23.4826 20.2609C23.5181 20.3564 23.5307 20.4589 23.5192 20.5601C23.5078 20.6613 23.4727 20.7584 23.4168 20.8435Z" fill="white"/>
</g>
<defs>
<clipPath id="clip0_202_3206">
<rect width="36" height="36" fill="white" transform="translate(0.714355)"/>
</clipPath>
</defs>
</svg>
