<svg width="37" height="36" viewBox="0 0 37 36" fill="none" xmlns="http://www.w3.org/2000/svg">
<g clip-path="url(#clip0_202_3221)">
<path d="M18.5714 36C28.5125 36 36.5714 27.9411 36.5714 18C36.5714 8.05888 28.5125 0 18.5714 0C8.63029 0 0.571411 8.05888 0.571411 18C0.571411 27.9411 8.63029 36 18.5714 36Z" fill="url(#paint0_linear_202_3221)"/>
<path d="M22.2093 9H14.9335C13.512 9.00188 12.1492 9.56742 11.144 10.5726C10.1388 11.5778 9.57329 12.9406 9.57141 14.3621V21.6379C9.57329 23.0594 10.1388 24.4222 11.144 25.4274C12.1492 26.4326 13.512 26.9981 14.9335 27H22.2093C23.631 26.9987 24.9942 26.4334 25.9995 25.4281C27.0048 24.4228 27.5702 23.0596 27.5714 21.6379V14.3621C27.5695 12.9406 27.004 11.5778 25.9988 10.5726C24.9936 9.56742 23.6308 9.00188 22.2093 9ZM25.7619 21.6379C25.7619 22.5801 25.3876 23.4837 24.7214 24.15C24.0551 24.8162 23.1515 25.1905 22.2093 25.1905H14.9335C13.9913 25.1905 13.0877 24.8162 12.4214 24.15C11.7552 23.4837 11.3809 22.5801 11.3809 21.6379V14.3621C11.3809 13.4199 11.7552 12.5163 12.4214 11.85C13.0877 11.1838 13.9913 10.8095 14.9335 10.8095H22.2093C23.1515 10.8095 24.0551 11.1838 24.7214 11.85C25.3876 12.5163 25.7619 13.4199 25.7619 14.3621V21.6379Z" fill="white"/>
<path d="M18.5738 13.3457C17.6527 13.3452 16.7521 13.618 15.986 14.1294C15.22 14.6409 14.6228 15.3681 14.2701 16.219C13.9173 17.07 13.8249 18.0064 14.0045 18.9098C14.1841 19.8133 14.6276 20.6432 15.279 21.2945C15.9303 21.9459 16.7602 22.3894 17.6637 22.569C18.5671 22.7486 19.5035 22.6562 20.3545 22.3034C21.2054 21.9507 21.9326 21.3535 22.444 20.5875C22.9555 19.8214 23.2283 18.9208 23.2278 17.9997C23.2265 16.7657 22.7358 15.5827 21.8633 14.7102C20.9908 13.8377 19.8078 13.347 18.5738 13.3457ZM18.5738 20.8418C18.0117 20.8418 17.4622 20.6751 16.9949 20.3628C16.5275 20.0505 16.1632 19.6066 15.9481 19.0873C15.733 18.568 15.6767 17.9965 15.7864 17.4452C15.896 16.8939 16.1667 16.3875 16.5642 15.99C16.9616 15.5925 17.4681 15.3218 18.0194 15.2122C18.5707 15.1025 19.1421 15.1588 19.6615 15.3739C20.1808 15.589 20.6247 15.9533 20.937 16.4207C21.2493 16.888 21.416 17.4375 21.416 17.9997C21.416 18.7534 21.1165 19.4763 20.5835 20.0093C20.0505 20.5423 19.3276 20.8418 18.5738 20.8418Z" fill="white"/>
<path d="M23.2537 14.4974C23.8894 14.4974 24.4048 13.9821 24.4048 13.3464C24.4048 12.7107 23.8894 12.1953 23.2537 12.1953C22.618 12.1953 22.1027 12.7107 22.1027 13.3464C22.1027 13.9821 22.618 14.4974 23.2537 14.4974Z" fill="white"/>
</g>
<defs>
<linearGradient id="paint0_linear_202_3221" x1="18.5714" y1="35.8342" x2="18.5714" y2="2.43947" gradientUnits="userSpaceOnUse">
<stop stop-color="#E09B3D"/>
<stop offset="0.24" stop-color="#C74C4D"/>
<stop offset="0.65" stop-color="#C21975"/>
<stop offset="1" stop-color="#7024C4"/>
</linearGradient>
<clipPath id="clip0_202_3221">
<rect width="36" height="36" fill="white" transform="translate(0.571411)"/>
</clipPath>
</defs>
</svg>
