<svg width="37" height="36" viewBox="0 0 37 36" fill="none" xmlns="http://www.w3.org/2000/svg">
<g clip-path="url(#clip0_202_3213)">
<path d="M18.1428 36C28.0839 36 36.1428 27.9411 36.1428 18C36.1428 8.05888 28.0839 0 18.1428 0C8.2017 0 0.142822 8.05888 0.142822 18C0.142822 27.9411 8.2017 36 18.1428 36Z" fill="#0B69C7"/>
<path d="M14.1183 11.4561C14.1187 11.9425 13.9749 12.4181 13.7049 12.8228C13.435 13.2274 13.051 13.5429 12.6017 13.7293C12.1524 13.9156 11.6579 13.9645 11.1808 13.8697C10.7037 13.7749 10.2654 13.5407 9.92147 13.1968C9.57751 12.8528 9.34332 12.4146 9.24854 11.9375C9.15376 11.4603 9.20264 10.9658 9.38901 10.5165C9.57537 10.0672 9.89084 9.68329 10.2955 9.41333C10.7001 9.14338 11.1758 8.99953 11.6622 9C12.3134 9.00063 12.9377 9.25959 13.3982 9.72005C13.8587 10.1805 14.1176 10.8049 14.1183 11.4561Z" fill="white"/>
<path d="M12.955 14.9375H10.3687C10.0325 14.9375 9.76001 15.21 9.76001 15.5462V26.3912C9.76001 26.7274 10.0325 26.9999 10.3687 26.9999H12.955C13.2912 26.9999 13.5637 26.7274 13.5637 26.3912V15.5462C13.5637 15.21 13.2912 14.9375 12.955 14.9375Z" fill="white"/>
<path d="M27.0846 21.19V26.4408C27.0846 26.5891 27.0257 26.7312 26.9209 26.8361C26.8161 26.9409 26.6739 26.9998 26.5256 26.9998H23.7499C23.6016 26.9998 23.4594 26.9409 23.3546 26.8361C23.2498 26.7312 23.1909 26.5891 23.1909 26.4408V21.3535C23.1909 20.5932 23.4112 18.0377 21.2062 18.0377C19.4962 18.0377 19.148 19.795 19.0746 20.5837V26.4527C19.0715 26.598 19.0119 26.7365 18.9084 26.8386C18.805 26.9408 18.6658 26.9986 18.5204 26.9998H15.8346C15.7611 27.0001 15.6883 26.9858 15.6203 26.9579C15.5524 26.9299 15.4906 26.8887 15.4387 26.8368C15.3867 26.7848 15.3455 26.723 15.3175 26.6551C15.2896 26.5871 15.2753 26.5143 15.2756 26.4408V15.4987C15.2753 15.4251 15.2896 15.3522 15.3175 15.2841C15.3455 15.216 15.3866 15.1541 15.4385 15.1019C15.4904 15.0498 15.5522 15.0084 15.6201 14.9802C15.6881 14.9519 15.761 14.9374 15.8346 14.9374H18.5204C18.5949 14.9361 18.6689 14.9497 18.7381 14.9774C18.8073 15.005 18.8703 15.0462 18.9234 15.0984C18.9766 15.1507 19.0188 15.213 19.0476 15.2817C19.0764 15.3504 19.0912 15.4242 19.0912 15.4987V16.4461C19.7259 15.4987 20.6685 14.7598 22.6746 14.7598C27.1106 14.7574 27.0846 18.9092 27.0846 21.19Z" fill="white"/>
</g>
<defs>
<clipPath id="clip0_202_3213">
<rect width="36" height="36" fill="white" transform="translate(0.142822)"/>
</clipPath>
</defs>
</svg>
