<svg width="32" height="32" viewBox="0 0 32 32" fill="none" xmlns="http://www.w3.org/2000/svg">
<path d="M18.8284 13.1716C20.3905 14.7337 20.3905 17.2663 18.8284 18.8284C17.2663 20.3905 14.7337 20.3905 13.1716 18.8284C11.6095 17.2663 11.6095 14.7337 13.1716 13.1716C14.7337 11.6095 17.2663 11.6095 18.8284 13.1716" stroke="white" stroke-width="1.5" stroke-linecap="round" stroke-linejoin="round"/>
<path fill-rule="evenodd" clip-rule="evenodd" d="M21.5733 24.9667V24.9667C22.244 25.6373 23.3333 25.6373 24.004 24.9667L24.9667 24.004C25.6373 23.3333 25.6373 22.244 24.9667 21.5733V21.5733C24.4573 21.064 24.308 20.3 24.588 19.636C24.6173 19.5653 24.6467 19.4947 24.6747 19.4227C24.9187 18.8013 25.524 18.4013 26.1907 18.4013H26.28C27.2293 18.4013 27.9987 17.632 27.9987 16.6827V15.3213C27.9987 14.372 27.2293 13.6027 26.28 13.6027H26.1907C25.524 13.6027 24.9187 13.2013 24.6747 12.5813C24.6467 12.5093 24.6173 12.4387 24.588 12.368C24.308 11.704 24.4573 10.94 24.9667 10.4307V10.4307C25.6373 9.76 25.6373 8.67067 24.9667 8L24.004 7.03733C23.3333 6.36667 22.244 6.36667 21.5733 7.03733V7.03733C21.064 7.54667 20.3 7.696 19.636 7.416C19.5653 7.38667 19.4947 7.35733 19.4227 7.32933C18.8013 7.08133 18.4 6.47467 18.4 5.808V5.71867C18.4 4.76933 17.6307 4 16.6813 4H15.32C14.3693 4 13.6 4.76933 13.6 5.71867V5.808C13.6 6.47467 13.1987 7.08 12.5787 7.324C12.5067 7.35333 12.436 7.38133 12.3653 7.412C11.7013 7.692 10.9373 7.54267 10.428 7.03333V7.03333C9.75733 6.36267 8.668 6.36267 7.99733 7.03333L7.03333 7.996C6.36267 8.66667 6.36267 9.756 7.03333 10.4267V10.4267C7.54267 10.936 7.692 11.7 7.412 12.364C7.38133 12.436 7.35333 12.5067 7.32533 12.5787C7.08133 13.1987 6.47467 13.6 5.808 13.6H5.71867C4.76933 13.6 4 14.3693 4 15.3187V16.68C4 17.6307 4.76933 18.4 5.71867 18.4H5.808C6.47467 18.4 7.08 18.8013 7.324 19.4213C7.352 19.4933 7.38133 19.564 7.41067 19.6347C7.69067 20.2987 7.54133 21.0627 7.032 21.572V21.572C6.36133 22.2427 6.36133 23.332 7.032 24.0027L7.99467 24.9653C8.66533 25.636 9.75467 25.636 10.4253 24.9653V24.9653C10.9347 24.456 11.6987 24.3067 12.3627 24.5867C12.4333 24.616 12.504 24.6453 12.576 24.6733C13.1973 24.9173 13.5973 25.5227 13.5973 26.1893V26.2787C13.5973 27.228 14.3667 27.9973 15.316 27.9973H16.6773C17.6267 27.9973 18.396 27.228 18.396 26.2787V26.1893C18.396 25.5227 18.7973 24.9173 19.4173 24.6733C19.4893 24.6453 19.56 24.616 19.6307 24.5867C20.2987 24.308 21.0627 24.4573 21.5733 24.9667V24.9667Z" stroke="white" stroke-width="1.5" stroke-linecap="round" stroke-linejoin="round"/>
</svg>
