<svg width="21" height="21" fill="none" xmlns="http://www.w3.org/2000/svg"><g fill="#FFD600" clip-path="url(#a)"><path d="M19.392 4.83v2.544H1.896V4.831A1.855 1.855 0 0 1 3.77 3h1.25V4.25a1.875 1.875 0 1 0 3.749 0V3h3.75v1.25a1.875 1.875 0 0 0 3.748 0V3h1.25a1.855 1.855 0 0 1 1.875 1.83ZM1.896 8.623v10.042a1.855 1.855 0 0 0 1.874 1.83h13.747a1.855 1.855 0 0 0 1.875-1.83V8.623H1.896Zm5.623 8.748a.626.626 0 0 1-.625.625h-1.25a.627.627 0 0 1-.624-.625v-1.25a.627.627 0 0 1 .625-.624h1.25a.626.626 0 0 1 .624.624v1.25Zm0-4.374a.626.626 0 0 1-.625.625h-1.25a.627.627 0 0 1-.624-.625v-1.25a.627.627 0 0 1 .625-.624h1.25a.626.626 0 0 1 .624.624v1.25Zm4.374 4.374a.626.626 0 0 1-.625.625h-1.25a.627.627 0 0 1-.624-.625v-1.25a.627.627 0 0 1 .625-.624h1.25a.626.626 0 0 1 .624.624v1.25Zm0-4.374a.626.626 0 0 1-.625.625h-1.25a.627.627 0 0 1-.624-.625v-1.25a.627.627 0 0 1 .625-.624h1.25a.626.626 0 0 1 .624.624v1.25Zm4.374 0a.627.627 0 0 1-.625.625h-1.25a.627.627 0 0 1-.624-.625v-1.25a.627.627 0 0 1 .625-.624h1.25a.626.626 0 0 1 .624.624v1.25Z"/><path d="M7.52 3v1.25a.625.625 0 0 1-1.25 0V3a.625.625 0 1 1 1.25 0ZM15.018 3v1.25a.625.625 0 1 1-1.25 0V3a.625.625 0 1 1 1.25 0Z"/></g><defs><clipPath id="a"><path fill="#fff" transform="translate(.646 .502)" d="M0 0h19.995v19.995H0z"/></clipPath></defs></svg>