<svg width="21" height="21" fill="none" xmlns="http://www.w3.org/2000/svg"><g fill="#FFD600" clip-path="url(#a)"><path d="M18.436 14.522a.586.586 0 0 0-.564 1.027c.697.383 1.098.808 1.098 1.166 0 .437-.62 1.115-2.36 1.706-1.718.584-4.015.905-6.466.905-2.452 0-4.749-.321-6.467-.905-1.74-.591-2.36-1.269-2.36-1.706 0-.358.4-.783 1.098-1.166a.586.586 0 1 0-.564-1.027c-.778.427-1.705 1.155-1.705 2.193 0 .795.547 1.93 3.154 2.815 1.837.624 4.267.968 6.843.968 2.577 0 5.007-.344 6.844-.968 2.607-.885 3.154-2.02 3.154-2.815 0-1.038-.927-1.766-1.705-2.193Z"/><path d="M5.722 17.575c1.189.335 2.76.52 4.422.52 1.663 0 3.234-.184 4.423-.52 1.455-.411 2.192-1.006 2.192-1.769 0-.762-.737-1.357-2.192-1.768a11.47 11.47 0 0 0-1.048-.24c-.203.351-.415.712-.637 1.083.413.062.801.138 1.154.228 1.07.273 1.462.58 1.542.697-.08.119-.472.426-1.542.698-1.014.258-2.317.406-3.69.419a2.739 2.739 0 0 1-.403 0c-1.373-.013-2.677-.16-3.69-.419-1.071-.273-1.462-.58-1.543-.698.08-.117.472-.424 1.543-.697.352-.09.74-.166 1.154-.228a84.444 84.444 0 0 1-.638-1.082 11.46 11.46 0 0 0-1.047.24c-1.455.41-2.193 1.005-2.193 1.767 0 .763.738 1.358 2.193 1.769Z"/><path d="M10.144 15.758c.521 0 .995-.266 1.267-.711 1.906-3.119 4.179-7.23 4.179-9.1A5.452 5.452 0 0 0 10.144.503a5.452 5.452 0 0 0-5.446 5.446c0 1.87 2.273 5.98 4.179 9.099.272.445.746.71 1.267.71ZM7.955 5.574c0-1.207.982-2.19 2.189-2.19s2.189.983 2.189 2.19a2.191 2.191 0 0 1-2.189 2.188 2.191 2.191 0 0 1-2.189-2.188Z"/></g><defs><clipPath id="a"><path fill="#fff" transform="translate(.146 .502)" d="M0 0h19.995v19.995H0z"/></clipPath></defs></svg>