<svg width="21" height="21" fill="none" xmlns="http://www.w3.org/2000/svg"><g fill="#FFD600" clip-path="url(#a)"><path d="M10.143 3.94a6.561 6.561 0 1 0 6.561 6.56 6.568 6.568 0 0 0-6.56-6.56Zm2.987 8.822a.623.623 0 0 1-.487.238.602.602 0 0 1-.388-.138l-2.499-1.874a.625.625 0 0 1-.237-.488V6.126a.625.625 0 1 1 1.25 0V10.2l2.261 1.688a.613.613 0 0 1 .1.874Z"/><path d="M10.143 1.127a9.373 9.373 0 1 0 9.373 9.373 9.384 9.384 0 0 0-9.372-9.373Zm0 17.225a7.852 7.852 0 1 1 7.853-7.852 7.86 7.86 0 0 1-7.852 7.852Z"/></g><defs><clipPath id="a"><path fill="#fff" transform="translate(.146 .502)" d="M0 0h19.995v19.995H0z"/></clipPath></defs></svg>