<svg width="21" height="21" viewBox="0 0 21 21" fill="none" xmlns="http://www.w3.org/2000/svg">
<g id="time 1" clip-path="url(#clip0_3059_222417)">
<g id="Layer 2">
<path id="Vector" d="M10.1435 3.93945C8.84586 3.93945 7.57737 4.32425 6.49842 5.04518C5.41947 5.76611 4.57853 6.79079 4.08195 7.98966C3.58536 9.18852 3.45543 10.5077 3.70859 11.7804C3.96175 13.0531 4.58662 14.2222 5.50419 15.1397C6.42176 16.0573 7.59081 16.6822 8.86352 16.9353C10.1362 17.1885 11.4554 17.0586 12.6543 16.562C13.8531 16.0654 14.8778 15.2245 15.5988 14.1455C16.3197 13.0666 16.7045 11.7981 16.7045 10.5004C16.7026 8.76094 16.0107 7.09323 14.7807 5.86322C13.5507 4.63321 11.883 3.94135 10.1435 3.93945ZM13.1303 12.7624C13.0722 12.8361 12.9981 12.8957 12.9137 12.9368C12.8294 12.9779 12.7368 12.9995 12.6429 12.9999C12.5016 13.001 12.3644 12.9523 12.2554 12.8624L9.75602 10.9878C9.68242 10.9296 9.62286 10.8556 9.58177 10.7712C9.54068 10.6868 9.51911 10.5943 9.51865 10.5004V6.12645C9.51865 5.96072 9.58448 5.80179 9.70166 5.68461C9.81885 5.56742 9.97778 5.50159 10.1435 5.50159C10.3092 5.50159 10.4682 5.56742 10.5853 5.68461C10.7025 5.80179 10.7684 5.96072 10.7684 6.12645V10.2005L13.0304 11.8876C13.0954 11.9377 13.1498 12.0004 13.1901 12.0719C13.2305 12.1434 13.2561 12.2223 13.2654 12.3039C13.2747 12.3855 13.2676 12.4681 13.2444 12.5468C13.2212 12.6256 13.1824 12.6989 13.1303 12.7624Z" fill="#FFD600"/>
<path id="Vector_2" d="M10.1435 1.12695C8.28974 1.12695 6.4776 1.67666 4.93624 2.70656C3.39489 3.73646 2.19355 5.2003 1.48414 6.91296C0.774737 8.62562 0.589123 10.5102 0.950776 12.3283C1.31243 14.1465 2.2051 15.8166 3.51592 17.1274C4.82673 18.4382 6.49681 19.3309 8.31496 19.6925C10.1331 20.0542 12.0177 19.8686 13.7303 19.1591C15.443 18.4497 16.9068 17.2484 17.9367 15.707C18.9666 14.1657 19.5163 12.3536 19.5163 10.4998C19.5133 8.01488 18.5249 5.63262 16.7678 3.87553C15.0107 2.11844 12.6284 1.12998 10.1435 1.12695ZM10.1435 18.3521C8.59046 18.3521 7.07229 17.8916 5.78098 17.0288C4.48967 16.1659 3.48322 14.9396 2.8889 13.5047C2.29457 12.0699 2.13907 10.4911 2.44205 8.96787C2.74504 7.44466 3.4929 6.04551 4.59107 4.94734C5.68924 3.84917 7.08839 3.10131 8.61159 2.79833C10.1348 2.49534 11.7136 2.65084 13.1485 3.24517C14.5833 3.83949 15.8097 4.84595 16.6725 6.13726C17.5353 7.42857 17.9958 8.94674 17.9958 10.4998C17.9938 12.5817 17.1659 14.5778 15.6937 16.05C14.2216 17.5222 12.2255 18.3501 10.1435 18.3521Z" fill="#FFD600"/>
</g>
</g>
<defs>
<clipPath id="clip0_3059_222417">
<rect width="19.9954" height="19.9954" fill="white" transform="translate(0.145828 0.501953)"/>
</clipPath>
</defs>
</svg>
